<svg xmlns="http://www.w3.org/2000/svg" width="305" height="165" viewBox="0 0 305 165">
    <g fill="none" fill-rule="evenodd">
        <g fill-rule="nonzero">
            <g>
                <g>
                    <path fill="#000" d="M118.65 122.42c0-1.15-.41-1.7-1.21-1.7-1.45 0-3.7 2-6.2 6-3.75 6-5.48 11.59-5.48 15.3 0 2.12.69 3.22 2.06 3.22 1.78 0 3.73-1.49 5.7-4.44.66-1 .8-1.8 1.32-1.8s1.29.89 1.29 1.44c-.28.991-.767 1.912-1.43 2.7-2.6 3.65-5.18 5.47-7.43 5.47-3 0-5-2.43-5-6.72 0-4.44 2.16-11.25 6.31-16.9 3.23-4.44 6.63-6.66 9.07-6.66 2.17 0 3.37 1.43 3.37 3.92-.033 2.302-1.04 4.482-2.77 6-.819.833-1.86 1.413-3 1.67-.55 0-1.21-1.18-1.21-1.79 0-.61.94-.55 2.28-1.46 1.457-.92 2.338-2.526 2.33-4.25zm44.43 9.52c0 5.38-3.32 9.7-6.69 9.7-1.014.021-1.99-.385-2.69-1.12-.983.549-2.07.89-3.19 1v.06h-.69c-2.09 0-3.18-.65-3.4-2.09-.733 1.031-1.83 1.746-3.07 2v.11h-.66c-2.9 0-4.28-.74-4.28-2.61 0-2.28 2-5.23 2-6.78 0-.45-.52-.91-1.54-1.55-2.07 6.66-4.19 10.2-7.49 10.85v.1h-.71c-2.32-.07-3.35-.61-3.35-2.15.078-1.1.31-2.184.69-3.22-1.84 3.65-3.65 5.44-5.85 5.44-.91.078-1.792-.338-2.31-1.09-.28-.509-.467-1.065-.55-1.64-.068-.457-.101-.918-.1-1.38.104-1.985.74-3.905 1.84-5.56 1.81-2.89 4-4.38 6.33-4.38 1.034-.047 2.03.394 2.69 1.19l.19-.67c.17-.61.28-.94.85-.94 1.24 0 2.31.54 2.31 1.18 0 .31-.69 1.46-1.59 3.77-1.21 3.07-1.79 5.17-1.79 6.3 0 .75.33 1 1.32 1.09 2.43-.6 4-3.94 6.06-10.06-.417-.47-.632-1.083-.6-1.71 0-1.43.79-2.49 1.86-2.49.438-.025.865.142 1.17.456.305.315.458.747.42 1.184.005.441-.087.878-.27 1.28 2.36 1.67 3.73 1.85 3.73 3.47 0 1.94-2.14 5-2.14 6.84 0 .77.48.92 1.83 1 2.09-.26 3.4-2.88 4.59-8.08.79-3.43.19-4 3-4 .71 0 1.07.24 1.07.67-.275 1.275-.653 2.526-1.13 3.74l-1.35 4.35c-.26.707-.435 1.442-.52 2.19 0 .81.42 1 1.49 1.15.862-.064 1.69-.357 2.4-.85v-1.34c0-1.15.71-5.59 2.88-12.22 1.37-4.2 2.14-6.35 3.92-6.35.93 0 1.65.76 1.65 2-.116 2.314-1.106 4.497-2.77 6.11-1.87 5.87-2.63 9.64-2.63 11 0 .76.32 1.22.93 1.22 1.48 0 3.51-2.71 3.67-6.69-.535.013-1.05-.208-1.407-.606-.358-.398-.523-.933-.453-1.464 0-1.34.74-2.28 1.92-2.28 1.37.04 2.41 1.53 2.41 3.87zm-33.73-1.37c-.39-.364-.897-.577-1.43-.6-1 0-2.47 1-3.78 2.82-1.079 1.42-1.728 3.121-1.87 4.9 0 1 .3 1.43.93 1.43 1.73 0 3.84-2.86 6.15-8.55zm42.86-2.46c-1.18 0-1.92.94-1.92 2.28-.07.53.095 1.066.453 1.464.358.398.872.62 1.407.606-.16 4-2.19 6.69-3.67 6.69-.6 0-.93-.46-.93-1.22 0-1.37.76-5.14 2.63-11 1.664-1.613 2.654-3.796 2.77-6.11 0-1.27-.71-2-1.64-2-1.79 0-2.56 2.15-3.93 6.35-2.17 6.63-2.88 11.07-2.88 12.22 0 .46 0 .92.06 1.34-.785.54-1.708.846-2.66.88l-.52 2c1.364-.032 2.699-.396 3.89-1.06.7.735 1.676 1.141 2.69 1.12 3.37 0 6.69-4.32 6.69-9.7 0-2.37-1.06-3.86-2.44-3.86zm38.48 7.6c-.36.898-.602 1.84-.72 2.8 0 .79.52 1 1.87 1.06l-.52 2h-.31c-2.9 0-4.25-.82-4.25-2.71.27-1.838.8-3.63 1.57-5.32.351-.737.616-1.512.79-2.31 0-.33-.13-.48-.46-.48-.66 0-3.29 2.37-5.35 7.63-1.13 2.92-.66 3.25-2.74 3.25-.69 0-1-.12-1-.52.043-.348.144-.686.3-1-.631.72-1.494 1.198-2.44 1.35v.11h-.68c-2.34-.06-3.38-.6-3.38-2.15.084-1.099.312-2.181.68-3.22-1.83 3.65-3.64 5.44-5.83 5.44-.854.078-1.69-.274-2.23-.94-.871.488-1.843.769-2.84.82v.06h-.69c-1.558.048-3.08-.475-4.28-1.47-1.619.87-3.406 1.378-5.24 1.49l.52-2c1.126-.066 2.227-.355 3.24-.85-.734-1.17-1.084-2.541-1-3.92 0-3.89 2.8-7.36 6.17-7.36 1.84 0 3 1.28 3 3.47 0 2-1.37 5.16-4.25 7.6.676.664 1.593 1.025 2.54 1 .776-.032 1.532-.255 2.2-.65-.077-.453-.114-.911-.11-1.37.108-1.984.744-3.903 1.84-5.56 1.81-2.89 4-4.38 6.33-4.38 1.034-.05 2.031.391 2.69 1.19l.19-.67c.17-.61.28-.94.86-.94 1.23 0 2.3.54 2.3 1.18 0 .31-.69 1.46-1.59 3.77-1.21 3.07-1.79 5.17-1.79 6.3 0 .78.36 1 1.43 1.11 1.83-.25 3-2.2 3.92-6 1.29-5 .85-6.32 2.5-6.32 1.37 0 1.95.15 1.95.61 0 .46-1 2.73-2.31 7 2.66-4.78 4.91-7.21 7.22-7.21.503-.038.995.153 1.34.52.346.367.508.87.44 1.37.02 1.17-.76 3.17-1.88 6.22zm-27.84-4.47c0-.85-.39-1.3-1.1-1.3-1.42 0-2.82 2.18-2.82 4.8-.054.79.17 1.575.63 2.22 1.835-1.374 3.025-3.442 3.29-5.72zm12.59-.67c-.389-.365-.897-.578-1.43-.6-1 0-2.47 1-3.78 2.82-1.079 1.42-1.728 3.121-1.87 4.9 0 1 .3 1.43.93 1.43 1.73 0 3.84-2.86 6.15-8.55zm73.91 5.2c-.354.878-.586 1.8-.69 2.74 0 .76.55 1 1.89 1.06l-.52 2h-.17c-3 0-4.41-.76-4.41-2.68 0-1.18.72-2.83 1.57-5.2.362-.87.637-1.775.82-2.7 0-.34-.08-.46-.36-.46-.55 0-3 2.71-5.23 7.63-1.27 2.77-.78 3.35-2.37 3.35-1.34 0-1.78-.15-1.78-.61.466-1.559 1.017-3.091 1.65-4.59.72-1.68 1.253-3.434 1.59-5.23 0-.37-.19-.61-.53-.61-.7 0-3.37 3.07-5 7.08-.9 2.22-1.26 3.47-1.4 3.65-.27.37-.79.43-1.67.43-.66 0-1-.12-1-.49.055-.345.156-.681.3-1-.625.728-1.491 1.207-2.44 1.35v.11h-.69c-2.08-.07-3-.59-3-2.24.076-1.085.288-2.157.63-3.19-2.14 3.52-3.57 5.44-5.62 5.44-.95.111-1.858-.424-2.22-1.31-.876.663-1.91 1.084-3 1.22v.09h-.69c-2.76-.07-4.17-1.11-4.17-3 0-2.07 1.42-4.71 1.42-6.93.052-.383-.104-.764-.41-1-.934.695-2.077 1.048-3.24 1-1.86 6.65-3.81 9.94-6.58 9.94-1.76 0-2.77-1.34-2.77-3.62 0-3.43 2.52-9.06 8.07-14.68.21-1.71.21-2.83.62-3.38.778-.718 1.735-1.212 2.77-1.43.33 0 .42.15.42.73-.013.369-.05.736-.11 1.1 1.021-1.19 2.484-1.913 4.05-2 .938-.04 1.846.33 2.49 1.014.643.683.957 1.612.86 2.546 0 2.58-1.56 5.1-4.69 7.6 1.126.52 1.845 1.65 1.84 2.89 0 2.12-1.23 4.31-1.23 6 0 .74.39 1 1.5 1.09.949-.097 1.86-.42 2.66-.94-.015-.183-.015-.367 0-.55 0-1.7.83-4.07 1.82-7.29.79-2.59.9-3.5 1.72-3.5 1.13 0 2.66.58 2.66 1.18 0 .37-.74 1.7-1.78 4.5-.717 1.643-1.224 3.37-1.51 5.14 0 .61.28 1 .8 1 1.18 0 2.87-2.29 4.33-6 1.56-4.05 1.1-5.63 2.58-5.63 1.15 0 2.22.49 2.22 1.09 0 .34-.71 1.77-1.7 4.54-.68 1.668-1.115 3.427-1.29 5.22 0 .93.39 1.22 1.34 1.33 1.81-.26 2.93-2.18 3.9-6 1.23-4.86.85-6.32 2.47-6.32 1.4 0 2 .15 2 .61 0 .46-1.07 2.76-2.33 7 2.71-4.87 4.69-7.3 6.66-7.3.488-.032.966.153 1.306.506.339.353.505.837.454 1.324 0 .85-.63 2.61-1.78 5.35 2.76-4.72 4.47-7.21 6.74-7.21.555-.06 1.108.128 1.51.513.404.386.616.93.58 1.487.06 1.13-.71 3.13-1.86 6.24zm-42.18-9.55c-3.82 5.29-5.21 9.52-5.21 11 0 .49.22.73.54.73 1.02.04 2.8-3.88 4.67-11.73zm8.14-3.16c0-1.18-.57-1.82-1.56-1.82-1.147.128-2.2.694-2.94 1.58-.35 1.82-.76 3.62-1.2 5.38h.24c.707.01 1.41.11 2.09.3 2.28-2.06 3.37-4.01 3.37-5.44zm-83.2-4.64c-1.303.167-2.236 1.343-2.1 2.65 0 1.17.57 1.81 1.61 1.81.627-.06 1.204-.37 1.602-.858.399-.488.585-1.115.518-1.742.047-.467-.101-.932-.41-1.285-.31-.352-.751-.56-1.22-.575z" transform="translate(-718 -919) translate(-49 814) translate(767 105)"/>
                    <path fill="#CEA55A" d="M55.99 157.05c3 0 4 1.76 4 3.61 0 1.41-.82 3.5-4 3.5s-4-2.09-4-3.5c-.03-1.85 1.02-3.61 4-3.61zm2.71 3.53c0-1.63-1.16-2.39-2.71-2.39s-2.71.76-2.71 2.39c0 1.92 1.45 2.45 2.71 2.45s2.71-.53 2.71-2.45zm5.29-3.36h6.23v1.14h-4.91v1.57h4.22v1.14h-4.22v2.92h-1.32v-6.77zm15.6 5.44c.495.137 1.006.208 1.52.21 1.55 0 1.86-.54 1.84-1.54v-4.13h1.32v4.2c0 2-1 2.65-3 2.65-.564.005-1.126-.046-1.68-.15v-1.24zm11.46-5.46h1.54l3.28 6.77h-1.39l-.71-1.55h-3.9l-.72 1.55h-1.4l3.3-6.77zm2.17 4.09l-1.42-3-1.41 3h2.83zm7.45-2.45v5.13H99.5v-6.77h1.78l2.11 5 2.16-5h1.73v6.77h-1.19v-5.11l-2.18 5.13h-1.05l-2.19-5.15zm13.57-1.64h1.5l3.29 6.77h-1.44l-.7-1.55h-3.9l-.72 1.55h-1.41l3.38-6.77zm2.17 4.09l-1.42-3-1.41 3h2.83zm6.38-4.09h1.32v6.77h-1.32v-6.77zm12.92 4.36c-.13.75-.67 2.58-3.78 2.58-2.14 0-3.83-1.19-3.83-3.66 0-2 1.24-3.45 3.93-3.45 3 0 3.47 2 3.57 2.33h-1.32c-.395-.82-1.267-1.297-2.17-1.19-1.88 0-2.66 1.05-2.66 2.46-.018.672.255 1.32.75 1.776.494.456 1.161.676 1.83.604 1.024.105 1.99-.49 2.36-1.45h1.32zm6.57-4.36h1.51l3.28 6.77h-1.39l-.71-1.55h-3.9l-.72 1.55h-1.4l3.33-6.77zm2.17 4.09l-1.42-3-1.41 3h2.83zm20 2.85c-.87-.01-1.716-.29-2.42-.8l-.32.2c-.76.411-1.615.618-2.48.6-1.69 0-2.83-.75-2.83-2.1.099-1.027.859-1.868 1.87-2.07l.29-.09-.16-.21c-.433-.536-.485-1.286-.129-1.876.356-.59 1.042-.896 1.719-.764 1 0 2.07.47 2.07 1.62-.04.845-.63 1.564-1.45 1.77h-.1l.08.09c.42.42.86.86 1.29 1.22l.22.18.08-.07c.488-.421.907-.918 1.24-1.47l.07-.12 1 .54-.07.12c-.326.544-.719 1.045-1.17 1.49l-.22.2c.412.26.893.393 1.38.38h.25v1.13l-.21.03zm-5.2-1.1c.53-.014 1.051-.126 1.54-.33l.3-.13-.3-.24c-.462-.4-.9-.827-1.31-1.28l-.25-.28-.26.09c-.53.17-1.28.48-1.28 1.14 0 .66.9 1.05 1.52 1.05l.04-.02zm.77-3.49c.45-.15.9-.45.9-1 0-.48-.39-.87-.87-.87s-.87.39-.87.87c.05.32.208.614.45.83l.17.17h.22zm14.67-2.35h4.08c1.59 0 2.65.45 2.65 1.73.046.584-.26 1.139-.78 1.41.628.317 1.017.967 1 1.67 0 1.27-1 2-2.66 2h-4.34l.05-6.81zm4.17 2.68c.86 0 1.24-.22 1.24-.79 0-.57-.38-.79-1.24-.79h-2.85v1.58h2.85zm0 3c.84 0 1.47-.16 1.47-1s-.57-.93-1.47-.93h-2.88v1.89l2.88.04zm9.49-5.67h1.51l3.29 6.77h-1.4l-.71-1.55h-3.9l-.72 1.55h-1.4l3.33-6.77zm2.17 4.09l-1.42-3-1.41 3h2.83zm6.3-4.09h4.07c1.6 0 2.75.37 2.75 2 .022.518-.167 1.022-.523 1.399s-.849.593-1.367.601l2.08 2.75h-1.64l-2-2.66h-2.09v2.66h-1.32l.04-6.75zm3.87 3c1.08 0 1.63-.16 1.63-1s-.55-1-1.63-1h-2.55v1.91l2.55.09zm7.21-3h4.07c1.6 0 2.66.45 2.66 1.73.041.583-.265 1.135-.78 1.41.626.319 1.015.968 1 1.67 0 1.27-1 2-2.67 2h-4.29l.01-6.81zm4.16 2.68c.86 0 1.25-.22 1.25-.79 0-.57-.39-.79-1.25-.79h-2.84v1.58h2.84zm0 3c.84 0 1.48-.16 1.48-1s-.58-.93-1.48-.93h-2.87v1.89l2.87.04zm9.49-5.67h1.51l3.28 6.77h-1.4l-.7-1.55h-3.9l-.72 1.55h-1.41l3.34-6.77zm2.17 4.09l-1.42-3-1.42 3h2.84zm6.3-4.09h3.26c2.14 0 3.85.91 3.85 3.35s-1.56 3.42-3.8 3.42h-3.31v-6.77zm2.66 5.64c2.26 0 3.13-.69 3.13-2.28 0-1.59-.91-2.22-3.13-2.22h-1.34v4.5h1.34zm12-5.81c3 0 4 1.76 4 3.61 0 1.41-.83 3.5-4 3.5s-4-2.09-4-3.5c0-1.85 1.05-3.61 4.03-3.61h-.03zm2.71 3.53c0-1.63-1.16-2.39-2.71-2.39s-2.71.76-2.71 2.39c0 1.92 1.44 2.45 2.71 2.45s2.74-.53 2.74-2.45h-.03zm10.56-1.3c-.22-.6-.77-1.13-2.38-1.13-.9 0-1.8.23-1.8.85 0 .29.17.6 1.52.76l1.6.25c1.52.23 2.41.82 2.41 1.95 0 1.6-1.53 2.2-3.33 2.2-2.9 0-3.61-1.43-3.77-2l1.27-.4c.25.5.75 1.22 2.54 1.22 1.08 0 2-.36 2-1 0-.43-.5-.72-1.47-.84l-1.62-.23c-1.56-.21-2.44-.89-2.44-1.93 0-2 2.64-2 3.16-2 2.91 0 3.42 1.36 3.58 1.82l-1.27.48z" transform="translate(-718 -919) translate(-49 814) translate(767 105)"/>
                    <path fill="#000" d="M97.65 118.13c-.499-.198-1.035-.283-1.57-.25-.91 0-1.62.83-2.14 2.48-.11.37-.19.65-.26.84l-2.15 6.6c-.393-.224-.808-.406-1.24-.54-.402-.121-.82-.182-1.24-.18-1.116.012-2.208.327-3.16.91-1.124.691-2.102 1.595-2.88 2.66-.736.962-1.314 2.035-1.71 3.18-.398 1.124-.604 2.307-.61 3.5v.83c0 .25.06.49.1.73-.699.428-1.5.66-2.32.67-.958-.013-1.87-.405-2.54-1.09 1.289-1.072 2.367-2.374 3.18-3.84.724-1.213 1.134-2.588 1.19-4 .052-.944-.248-1.873-.84-2.61-.56-.662-1.393-1.03-2.26-1-1.755.024-3.4.863-4.45 2.27-1.246 1.49-1.913 3.378-1.88 5.32-.013.77.07 1.54.25 2.29.15.622.41 1.211.77 1.74-.502.246-1.028.44-1.57.58-.45.12-1.18.28-1.83.39l-.7.06c-.48.021-.954.109-1.41.26l4-10.87.27-.87c.038-.157.058-.318.06-.48.02-.272-.126-.529-.37-.65-.416-.152-.858-.217-1.3-.19-.481-.059-.969.04-1.39.28-.273.386-.436.839-.47 1.31-.37-.413-.814-.752-1.31-1-.497-.208-1.031-.31-1.57-.3-1.242.012-2.45.414-3.45 1.15-1.21.913-2.23 2.054-3 3.36-.566.941-1.023 1.945-1.36 2.99-.312.895-.48 1.833-.5 2.78v.74c0 .23.05.45.08.67-.341.178-.73.244-1.11.19-.289-.11-.537-.305-.71-.56-.343-.45-.49-1.02-.41-1.58.075-2.008.259-4.011.55-6 .3-2.3.45-5.41.93-8.24.08-1.08.29-2.43-.42-3.24-2.12-2.44-2.64-2.44-2.64-2.44s-1-.69-2.27 1.6c-.53 1.3-3.71 8-4.77 10.31-2.325.343-4.482 1.415-6.16 3.06-1.505 1.435-2.364 3.42-2.38 5.5-.056 1.09.301 2.161 1 3 .712.751 1.717 1.153 2.75 1.1 1.64 0 3.1-1 4.25-3.34.9-1.84 1.58-3.2 3.29-7.33l3.45-.09c-.42 1.7-.72 3.08-.91 4.13-.156.805-.25 1.62-.28 2.44 0 5 4.9 4.4 6.49 3.32.545.7 1.407 1.076 2.29 1 1.17-.028 2.283-.512 3.1-1.35 1.212-1.24 2.203-2.677 2.93-4.25-.42 1.24-.84 2.41-1.27 3.52-.43 1.11-.86 2.18-1.31 3.21-1.08.54-2.047 1.28-2.85 2.18-.577.675-.896 1.532-.9 2.42-.025.506.143 1.003.47 1.39.365.346.858.524 1.36.49 1.042-.077 1.981-.655 2.52-1.55 1.12-1.731 2.01-3.6 2.65-5.56.936-.285 1.903-.46 2.88-.52.742-.083 1.472-.244 2.18-.48.932-.264 1.834-.626 2.69-1.08 1.226 1.038 2.794 1.583 4.4 1.53 1.308.094 2.609-.258 3.69-1 .218.352.539.628.92.79.445.205.93.307 1.42.3 1.144-.051 2.221-.55 3-1.39 1.189-1.23 2.16-2.654 2.87-4.21-.25.82-.44 1.49-.55 2-.099.43-.152.869-.16 1.31-.064.693.28 1.36.88 1.71.961.412 2.007.587 3.05.51h.25l.53-2.05c-.573.01-1.137-.138-1.63-.43-.31-.298-.465-.722-.42-1.15.152-1.36.444-2.7.87-4 .58-2.05 1.32-4.24 2.23-6.55l2.48-6.36c.09-.24.23-.55.4-1 .195-.38.33-.788.4-1.21.012-.32-.159-.618-.44-.77zm-55.61 18.71c-.66 1.14-.87 1.59-1.58 1.59-.315.008-.615-.133-.81-.38-.207-.291-.31-.643-.29-1 .045-1.141.537-2.219 1.37-3 1.012-1.058 2.254-1.869 3.63-2.37-1.12 2.41-1.65 3.98-2.32 5.16zm9.73-8.61h-3c.54-1.19 2.06-4.5 3.35-7 .11-.22.26-.18.31 0 .16.52.16 1.99-.66 7zm11.34 8.64c-1.08 1.49-2.07 2.23-3 2.23-.285.019-.557-.12-.71-.36-.186-.339-.269-.725-.24-1.11.028-.831.204-1.65.52-2.42.346-.933.817-1.814 1.4-2.62.552-.81 1.227-1.528 2-2.13.525-.451 1.18-.725 1.87-.78.252 0 .501.055.73.16.27.116.52.275.74.47-.854 2.304-1.964 4.504-3.31 6.56zm11.76 0c-.233-.296-.403-.636-.5-1-.107-.421-.157-.855-.15-1.29-.028-1.215.276-2.415.88-3.47.349-.821 1.113-1.391 2-1.49.318-.016.627.113.84.35.21.29.313.643.29 1-.073 1.094-.416 2.152-1 3.08-.57 1.104-1.376 2.07-2.36 2.83v-.01zm12.78-.15c-1 1.58-1.92 2.37-2.72 2.37-.317-.002-.613-.154-.8-.41-.219-.32-.327-.703-.31-1.09.046-.8.235-1.587.56-2.32.363-.94.843-1.83 1.43-2.65.548-.827 1.223-1.563 2-2.18.572-.452 1.272-.71 2-.74.159 0 .316.02.47.06.164.052.325.115.48.19-.796 2.363-1.839 4.635-3.11 6.78v-.01z" transform="translate(-718 -919) translate(-49 814) translate(767 105)"/>
                    <path fill="#000" stroke="#000" stroke-width=".28" d="M137.51 57.53c2.885.082 5.591-1.397 7.08-3.87.858.292 1.767.404 2.67.33h.17l.59-.05h0c.886-.12 1.715-.503 2.38-1.1-.16.248-.262.528-.3.82 0 .26.22.35.45.39.422.045.848.045 1.27 0 .37.04.74-.093 1-.36.175-.264.297-.56.36-.87.022-.079.04-.159.05-.24.13-.32.29-.71.51-1.2 2.06-4.28 4.68-6.22 5.33-6.22.33 0 .46.12.46.39-.17.664-.432 1.3-.78 1.89-.755 1.351-1.282 2.817-1.56 4.34 0 1.47 1.24 2.14 3.85 2.21h.68c1.569-.13 3.102-.536 4.53-1.2 1.356.896 2.968 1.324 4.59 1.22h.36l.51-1.64h-.12c-1.02.074-2.032-.232-2.84-.86 2.87-2 4.23-4.57 4.23-6.21.043-.794-.265-1.566-.843-2.111-.578-.546-1.367-.808-2.157-.719-3.326.025-6.038 2.675-6.14 6-.073 1.154.283 2.293 1 3.2-.942.376-1.938.599-2.95.66-1-.08-1.45-.26-1.45-.83.113-.785.35-1.548.7-2.26 1.12-2.56 1.89-4.19 1.89-5.09 0-.9-.63-1.54-1.78-1.54-2.29 0-4.53 2-7.18 5.89l4.34-10c.39-.689.68-1.43.86-2.2 0-.47-.58-.58-1.84-.58-2.08 0-1.64.92-2.84 4.3l-2.79 7.89c-1 2.88-2 4.37-4 4.47-.794.095-1.6.054-2.38-.12.1-.21.2-.43.31-.65 1.12-2.507 2.703-7.62 4.75-15.34-2.604-.757-5.29-1.19-8-1.29-3.61 0-5.49 1.22-5.49 2.88-.012.5.311.946.79 1.09.55-.79 2-1.34 4.1-1.34 1.588.037 3.165.262 4.7.67-1.073 4.433-2.48 8.779-4.21 13-1.17 2.48-2.54 3.7-5 3.7-1.451.083-2.865-.48-3.86-1.54-.612.242-.996.853-.95 1.51.03 1.53 1.73 2.58 4.95 2.58zm32.38-13.05c.291-.027.58.075.79.279.209.204.319.49.3.781-.328 1.974-1.534 3.692-3.28 4.67-.441-.496-.665-1.148-.62-1.81 0-2.13 1.39-3.92 2.81-3.92z" transform="translate(-718 -919) translate(-49 814) translate(767 105)"/>
                    <path fill="#000" d="M15.97 66.05c-2.135-.19-4.285-.083-6.39.32-1 .15-2.05.31-3.17.38H5.05c-1.006-.027-2.011.054-3 .24l-1.08.25.29 1.08c2.83 10.07 2.61 25.61.93 35.76l-.14.87.84.3c3.758 1.36 7.706 2.125 11.7 2.27 1.313.017 2.623-.127 3.9-.43 2.27-.724 4.283-2.084 5.8-3.92 5.17-6.3 6.54-19 3-27.67-2.31-5.62-6.21-8.84-11.32-9.45zm3.55 29.48c-.73 2.1-2.17 4.69-4.89 5.08-1.136.226-2.314-.051-3.23-.76-.806-6.162-1.034-12.386-.68-18.59 0-.53.05-1.06.07-1.6 0-.9.08-1.83.15-2.73v-.66c.001-.839.133-1.672.39-2.47.14-.36.69-.49.8-.51.614-.162 1.255-.19 1.88-.08 1.057.23 2.027.753 2.8 1.51 3.64 3.79 4.98 14.29 2.71 20.81zM51.45 66.22h-2l-1.44-.06.37 1.4c1.49 5.57 2.12 15.57 1.49 23.78-.17 2.37-.45 4.83-1.75 6.59-.782.972-1.973 1.523-3.22 1.49-1.067.013-2.101-.372-2.9-1.08-1.58-1.48-2-4.52-2.18-7-.458-7.554.049-15.135 1.51-22.56l.23-1.31-1.33.07h-2c-1.681.04-3.361-.13-5-.51l-1.63-.44.3 1.66c.7 3.8.49 8.64.27 13.77-.34 8.07-.7 16.42 2.67 21.31 2 2.85 5.77 4.56 10.16 4.56.44 0 .87 0 1.3-.06 3.375-.132 6.508-1.787 8.52-4.5 3.39-4.9 3-13.7 2.68-22.24-.22-5.33-.42-10.36.27-14.16l.3-1.66-1.62.44c-1.639.38-3.319.55-5 .51zM104.9 65.85c-2.3-.127-4.608-.03-6.89.29-2.318.338-4.666.411-7 .22l-1.46-.18.29 1.44c2.25 11.14 2.46 27.84.5 38.86l-.23 1.31 1.32-.06c1.06-.05 2.38-.06 3.67-.07H100.06l-.23-2.79c-.33-3.93-.71-8.37 0-11.85.85-.66 2.49-.7 4.09-.75 1.04.01 2.078-.084 3.1-.28 5.2-1.26 9.3-6.12 10-11.82.556-3.402-.308-6.883-2.39-9.63-2.14-2.72-5.51-4.31-9.73-4.69zm-5.14 19.36c-.273-1.352-.37-2.733-.29-4.11v-1.11c0-2.16.05-4.86.58-5.77.16-.28.28-.35 1.14-.5 2.72-.45 4.75 0 5.89 1.28 1 1.09 1.32 2.84 1 5.07-.268 2.432-1.985 4.458-4.34 5.12-.824.19-1.665.29-2.51.3-.506.042-1.015-.055-1.47-.28zM75.84 65.85c-2.297-.132-4.602-.035-6.88.29-2.318.338-4.666.411-7 .22l-1.46-.18.29 1.44c2.24 11.14 2.46 27.84.5 38.86l-.23 1.31 1.32-.06c1.06-.05 2.37-.06 3.67-.07H71l-.23-2.83c-.32-3.92-.7-8.35.05-11.81.85-.66 2.49-.7 4.09-.75 1.04.009 2.078-.085 3.1-.28 5.44-1.518 9.404-6.203 10-11.82.557-3.403-.31-6.886-2.4-9.63-2.18-2.72-5.54-4.31-9.77-4.69zm3.25 14.22c-.268 2.432-1.985 4.458-4.34 5.12-.823.193-1.665.293-2.51.3-.526.058-1.058-.04-1.53-.28-.266-1.353-.364-2.733-.29-4.11V80c0-2.17.06-4.87.58-5.78.17-.28.27-.35 1.14-.5 2.69-.45 4.75 0 5.89 1.28.98 1.09 1.34 2.84 1.06 5.07zM242.59 98.93l-.1-.29c-2.5-7.67-5.09-15.61-6-25l-1-7.67h-2.99c-2 0-3.92 0-6.3-.14l-1-.08-.12 1c-1.043 7.966-2.715 15.838-5 23.54-1.22 4.3-2.39 7.75-3.64 11.42l-.27.79c-.42 1.24-.84 2.49-1.27 3.78l-.5 1.55 1.63-.17c1.303-.125 2.611-.182 3.92-.17h5.37v-1.27c-.156-2.19-.066-4.39.27-6.56h1c2.38-.19 4.77-.19 7.15 0 .266 2.226.36 4.47.28 6.71v1l1 .11c.997.09 1.999.13 3 .12h5.82l1.51.09-.44-1.46c-.78-2.5-1.57-4.94-2.32-7.3zm-9.77-5.87c-2.06.11-4.46.11-6.41 0 .791-3.872 1.792-7.697 3-11.46l.24-.79c.27 1 .55 1.89.82 2.83v.15c.98 3.035 1.758 6.132 2.33 9.27h.02zM273.01 104.19c-1.443-1.866-2.778-3.812-4-5.83l-.56-1c-1.349-2.112-2.484-4.353-3.39-6.69 1.779-.71 3.378-1.806 4.68-3.21 2.81-3.224 4.054-7.524 3.4-11.75-.815-4.426-4.163-7.954-8.54-9-2.57-.63-6-.5-9.51-.22-2.366.237-4.745.3-7.12.19l-1.38-.02.27 1.38c2.12 10.62 2.34 27.83.48 38.36l-.23 1.3h1.32c1.84-.08 4.82-.11 7.21-.12h1.08v-1.07c0-.9-.16-2.28-.28-3.48-.08-.79-.17-1.56-.21-2.19v-.29c-.08-1.1-.14-2.24-.17-3.36-.053-1.166 0-2.334.16-3.49.033-.344.117-.681.25-1 .163-.239.379-.437.63-.58.08 0 .54.28 1.79 2.29l.25.39c2.531 3.647 4.406 7.708 5.54 12l.2.74.75.06c1.092.063 2.188.063 3.28 0v-.63l.21.62c1.397-.123 2.803-.123 4.2 0l2.54.4-1.51-2.07c-.47-.56-.87-1.09-1.34-1.73zm-8.94-22.41c-.745 1.53-2.105 2.67-3.74 3.14-.79.187-1.598.288-2.41.3-1 0-1.41-.21-1.47-.29-.65-.83-.26-5.23-.1-6.93l.14-1.79c.12-1.69.21-2 .7-2.31 3-.61 5.25 0 6.45 1.62 1.07 1.47 1.23 3.69.43 6.26zM304.48 99.43h-1.35c-1.5 0-3.1.06-4.79.12h-.3c-1.88.07-3.81.14-5.7.14-2.006.025-4.012-.099-6-.37-.28-2.35-.33-5-.38-7.45v-1.34c4.862-.587 9.78-.543 14.63.13l1.09.16.12-1.09c.13-1.13.15-2.49.17-3.81 0-1 0-1.87.08-2.53l.12-1.35-1.34.21c-6.16 1-11.13 1.16-15.15.53 0-.93 0-1.88-.09-2.92-.07-1.93-.13-3.77 0-5.5 2.489-.566 5.039-.818 7.59-.75 2.22 0 4.45.11 6.74.23h.56l2.86.12h1.14l-.39-8.64-1.21.24c-4.718.82-9.502 1.204-14.29 1.15-4.059.017-8.115-.197-12.15-.64l-1.64-.18.51 1.57c3.3 10.24 2.85 25.55 2.17 39.09l-.07 1.32 1.3-.22c3.528-.493 7.088-.713 10.65-.66 4.548-.043 9.093.241 13.6.85l1.17.19.06-1.19v-2.43c-.042-1.264-.012-2.53.09-3.79l.2-1.19zM211.08 67.66l.07-1.22-1.22.11c-2 .16-3.54.18-5.23.21l-3.06.06.19 1.2c.13.81.26 1.6.4 2.41.851 4.364 1.36 8.787 1.52 13.23-1.22 0-2.52.09-4.06.18-1.54.09-3.21.18-4.7.18-1.068.017-2.135-.06-3.19-.23 0-1.18-.08-2.44-.16-3.7-.1-1.71-.2-3.47-.14-5 .08-2.43.17-4.35.27-6.53l.16-3.16-1.34.27c-1.91.283-3.84.397-5.77.34h-2.76l.62 2.47c.481 1.73.862 3.486 1.14 5.26 1.15 8.07.72 18 .34 26.68-.09 2-.17 4-.23 5.9v1.1h1.1c1 0 2 0 3-.06s2.1-.07 3.1-.07h2.21l-.26-1.3c-.782-4.689-1.28-9.42-1.49-14.17 4.057-.547 8.147-.804 12.24-.77-.15 2-.21 4.15-.28 6.47-.09 3.1-.18 6.31-.48 8.94l-.14 1.31 1.3-.14c2.378-.264 4.775-.304 7.16-.12l1.52.16-.37-1.47c-2.48-9.97-2.08-25.83-1.46-38.54zM170.59 85.11c-2.29-1-4.46-1.89-5.72-3.13-1.462-1.475-1.86-3.7-1-5.59.634-1.823 2.312-3.077 4.24-3.17.665.007 1.322.15 1.93.42 2.1.94 3.28 4.65 2.53 7.95l-.34 1.5 2-.27c1.778-.354 3.6-.422 5.4-.2l1.33.34v-1.37c0-5.07-1.28-8.95-3.78-11.52-1.936-1.888-4.36-3.197-7-3.78-4.05-.87-8.265.377-11.19 3.31-3 3.08-5.28 10.51-2 15.16 1.83 2.56 5.14 3.74 8.34 4.87 2.63.94 5.12 1.82 6.47 3.34 1.06 1.377 1.329 3.206.71 4.83-.378 1.534-1.507 2.773-3 3.29-1.577.49-3.291-.067-4.28-1.39-1.2-1.883-1.469-4.213-.73-6.32l.48-1.65-1.68.3c-.433.074-.871.11-1.31.11-1.665-.048-3.313-.345-4.89-.88l-1.69-.56.31 1.75c.1.662.146 1.33.14 2-.01.822.06 1.642.21 2.45 1.08 5.435 5.398 9.643 10.86 10.58.64.087 1.284.13 1.93.13 3.454.009 6.768-1.367 9.2-3.82 1.755-1.843 2.797-4.25 2.94-6.79.49-7.2-5.58-9.8-10.41-11.89zM137.06 65.81l-1-.08-.19.94c-.16.83-.32 1.66-.47 2.49l-.09.44c-1 5.06-1.95 10.27-3.79 14.5-2-4.46-3-10-4-15.38l-.56-3-1 .12c-2.636.3-5.296.337-7.94.11l-1.66-.12.59 1.56c1.25 3.26 2.95 7.6 5 12.17.56 1.21 1.12 2.54 1.67 3.85l.15.35c.69 1.65 1.4 3.36 2.13 4.9.19.4.41.8.64 1.2.31.488.552 1.017.72 1.57.86 4 .19 8.76-.36 12.62-.13.92-.26 1.79-.35 2.6l-.14 1.14h10.19l-.32-1.32c-.691-3.325-1.08-6.705-1.16-10.1v-1.06c-.151-1.36-.151-2.73 0-4.09.176-.601.424-1.179.74-1.72.18-.34.35-.69.51-1 3-6.81 6.2-14.11 9.12-21.1l.71-1.7-1.82.24c-2.438.206-4.89.162-7.32-.13z" transform="translate(-718 -919) translate(-49 814) translate(767 105)"/>
                    <path fill="#CEA55A" d="M51.59 48.92h-2.52v-.94h6.14v.94h-2.52v4.74h-1.1v-4.74zm6.87-.94h3.38c1.33 0 2.29.3 2.29 1.68.016.43-.141.847-.436 1.16-.296.312-.704.492-1.134.5l1.73 2.29h-1.36l-1.63-2.22h-1.75v2.27h-1.09v-5.68zm3.22 2.5c.9 0 1.35-.13 1.35-.8s-.45-.79-1.35-.79h-2.13v1.59h2.13zm8.43-2.5h1.25l2.73 5.63h-1.16l-.59-1.3H69.1l-.6 1.3h-1.17l2.78-5.63zm1.8 3.39l-1.18-2.51-1.14 2.51h2.32zm5.39-3.39h2.71c1.78 0 3.2.75 3.2 2.78s-1.3 2.85-3.16 2.85H77.3v-5.63zm2.19 4.68c1.88 0 2.6-.57 2.6-1.89 0-1.32-.76-1.85-2.6-1.85h-1.11v3.74h1.11zm7.17-4.68h5.05v.94h-3.95v1.31h3.4v.94h-3.4v1.49h4.05v1h-5.15v-5.68zm128.46 1.36v4.32h-1v-5.63h1.47l1.76 4.17 1.79-4.17h1.45v5.63h-1v-4.27l-1.78 4.27h-.87l-1.82-4.32zm11.47-1.36h1.25l2.75 5.68h-1.2l-.58-1.3h-3.22l-.6 1.3h-1.2l2.8-5.68zm1.8 3.39l-1.17-2.51-1.18 2.51h2.35zm5.39-3.39h3.38c1.33 0 2.29.3 2.29 1.68.016.43-.141.847-.436 1.16-.296.312-.704.492-1.134.5l1.71 2.34h-1.36l-1.64-2.27h-1.74v2.27h-1.1l.03-5.68zm3.22 2.5c.9 0 1.36-.13 1.36-.8s-.46-.79-1.36-.79h-2.12v1.59H237zm6.06-2.5h1.1v2.62l3.12-2.62h1.57l-2.69 2.23 3 3.4h-1.44l-2.32-2.75-1.2 1v1.8h-1.1l-.04-5.68zM153 .98l-1.95 19.31 1.95 4.32 1.94-4.32L153 .98zm-11.5 9.55l1 11.39 3 3.67.76-4.68-4.76-10.38zm0 0l1 11.39 3 3.67.76-4.68-4.76-10.38zm-31.42 31.42l10.38 4.8 4.68-.77-3.67-3-11.39-1.03zm11.51-19.83l6.61 9.34 4.44 1.67-1.73-4.47-9.32-6.54zm62.78-.07l-9.35 6.61-1.66 4.44 4.42-1.7 6.59-9.35zm11.57 19.92l-11.4 1-3.67 3 4.68.77 10.39-4.77zm-31.42-31.42l-4.8 10.38.76 4.68 3-3.66 1.04-11.4zm41 42.95l-19.31-1.94-4.32 1.94 4.32 1.95 19.31-1.95zm-85.66 1.95l4.32-1.95-4.32-1.94-19.31 1.94 19.31 1.95zm3.52-16.86l4.72.48-2.77-3.85-17.69-8 15.74 11.37zm11.43-12.79l3.78 2.76-.47-4.71-11.36-15.74 8.05 17.69zm33.09-1.94l-.46 4.72 3.84-2.78 7.9-17.73-11.28 15.79zm12.81 11.34l-2.74 3.86 4.71-.5 15.68-11.44-17.65 8.08z" transform="translate(-718 -919) translate(-49 814) translate(767 105)"/>
                </g>
            </g>
        </g>
    </g>
</svg>
