<?xml version="1.0" encoding="UTF-8"?>
<svg width="42px" height="37px" viewBox="0 0 42 37" version="1.1" xmlns="http://www.w3.org/2000/svg" xmlns:xlink="http://www.w3.org/1999/xlink">
    <title>Cart</title>
    <defs>
        <filter id="filter-1">
            <feColorMatrix in="SourceGraphic" type="matrix" values="0 0 0 0 0.808000 0 0 0 0 0.647000 0 0 0 0 0.353000 0 0 0 1.000000 0"></feColorMatrix>
        </filter>
        <polygon id="path-2" points="0 0.324174174 42 0.324174174 42 35.3241742 0 35.3241742"></polygon>
    </defs>
    <g id="Page-1" stroke="none" stroke-width="1" fill="none" fill-rule="evenodd">
        <g id="Cart" transform="translate(-1228.000000, -32.000000)" filter="url(#filter-1)">
            <g transform="translate(1228.000000, 32.675826)">
                <mask id="mask-3" fill="white">
                    <use xlink:href="#path-2"></use>
                </mask>
                <g id="Clip-2"></g>
                <path d="M18.804977,13.0743372 C18.804977,12.7377223 19.0734392,12.4641133 19.4044279,12.4641133 C19.7359903,12.4641133 20.0044525,12.7377223 20.0044525,13.0743372 C20.0044525,13.4109521 19.7359903,13.6839786 19.4044279,13.6839786 C19.0734392,13.6845611 18.804977,13.4115355 18.804977,13.0743372 L18.804977,13.0743372 Z M32.7116653,30.0357615 C32.7116653,30.4207976 32.4041957,30.7329102 32.0255951,30.7329102 L30.5668356,30.7329102 C30.1876613,30.7329102 29.8807654,30.4207976 29.8807654,30.0357615 L29.8807654,22.2685329 C29.8807654,21.8834968 30.1876613,21.5713842 30.5668356,21.5713842 L32.0255951,21.5713842 C32.4041957,21.5713842 32.7116653,21.8834968 32.7116653,22.2685329 L32.7116653,30.0357615 Z M25.8469481,30.0357615 C25.8469481,30.4207976 25.5400522,30.7329102 25.1603043,30.7329102 L23.7021184,30.7329102 C23.3229441,30.7329102 23.0160482,30.4207976 23.0160482,30.0357615 L23.0160482,22.2685329 C23.0160482,21.8834968 23.3229441,21.5713842 23.7021184,21.5713842 L25.1603043,21.5713842 C25.5400522,21.5713842 25.8469481,21.8834968 25.8469481,22.2685329 L25.8469481,30.0357615 Z M18.9822309,30.0357615 C18.9822309,30.4207976 18.675335,30.7329102 18.2967344,30.7329102 L16.8379748,30.7329102 C16.4582269,30.7329102 16.1507573,30.4207976 16.1507573,30.0357615 L16.1507573,22.2685329 C16.1507573,21.8834968 16.4582269,21.5713842 16.8379748,21.5713842 L18.2967344,21.5713842 C18.6759086,21.5713842 18.9822309,21.8834968 18.9822309,22.2685329 L18.9822309,30.0357615 Z M12.1180873,30.0357615 C12.1180873,30.4207976 11.8106178,30.7329102 11.4314435,30.7329102 L9.97325758,30.7329102 C9.59408334,30.7329102 9.28661376,30.4207976 9.28661376,30.0357615 L9.28661376,22.2685329 C9.28661376,21.8834968 9.59408334,21.5713842 9.97325758,21.5713842 L11.4314435,21.5713842 C11.8106178,21.5713842 12.1180873,21.8834968 12.1180873,22.2685329 L12.1180873,30.0357615 Z M41.2129697,11.3725942 L20.1862955,11.3725942 L9.52582051,0.530910629 C9.24014915,0.240383378 8.76058839,0.258468408 8.45426609,0.569997629 L7.135474,1.91062338 C6.8291517,2.22273599 6.81251622,2.71103179 7.0970403,3.00039226 L15.3298824,11.3725942 L0.785309423,11.3725942 C0.351639647,11.3725942 0,11.7302111 0,12.1712525 L0,15.2643759 C0,15.7054173 0.351639647,16.0630342 0.785309423,16.0630342 L2.992092,16.0630342 L5.15183632,31.5315684 C5.15183632,31.5315684 5.74038816,35.3241742 7.89898521,35.3241742 L20.6561045,35.3241742 L21.3433219,35.3241742 L34.1004412,35.3241742 C36.2584646,35.3241742 36.8470164,31.5315684 36.8470164,31.5315684 L39.0073344,16.0630342 L41.2141169,16.0630342 C41.6477867,16.0630342 42,15.7054173 42,15.2643759 L42,12.1712525 C41.9988527,11.7302111 41.6466394,11.3725942 41.2129697,11.3725942 L41.2129697,11.3725942 Z" id="Fill-1" fill="#000000" mask="url(#mask-3)"></path>
            </g>
        </g>
    </g>
</svg>