<svg xmlns="http://www.w3.org/2000/svg" xmlns:xlink="http://www.w3.org/1999/xlink" width="23" height="26" viewBox="0 0 23 26">
    <defs>
        <filter id="ji9u3kas7a">
            <feColorMatrix in="SourceGraphic" values="0 0 0 0 0.808000 0 0 0 0 0.647000 0 0 0 0 0.353000 0 0 0 1.000000 0"/>
        </filter>
        <path id="ht2onnq3ob" d="M0.929 0L21.929 0 21.929 26 0.929 26z"/>
    </defs>
    <g fill="none" fill-rule="evenodd">
        <g filter="url(#ji9u3kas7a)" transform="translate(-310 -31)">
            <g transform="translate(310.071 31)">
                <mask id="fodcvmn42c" fill="#fff">
                    <use xlink:href="#ht2onnq3ob"/>
                </mask>
                <path fill="#000" d="M14.467 10.978c.833-.847 1.248-1.863 1.248-3.056 0-.136.046-.256.138-.368v.013c.092-.093.206-.14.341-.14.135 0 .255.047.366.14h-.012c.101.102.15.219.15.355 0 1.461-.507 2.716-1.524 3.763-1.042 1.023-2.29 1.533-3.742 1.533-1.463 0-2.701-.51-3.719-1.533-1.032-1.047-1.551-2.302-1.551-3.763 0-.136.049-.253.15-.355.083-.093.194-.14.33-.14.134 0 .254.047.365.14h-.013c.102.102.151.219.151.355 0 1.193.421 2.21 1.26 3.056.842.837 1.85 1.254 3.027 1.254 1.183 0 2.197-.42 3.035-1.254m-3.035-9.674c1.084 0 2.012.39 2.786 1.165.747.75 1.131 1.653 1.147 2.7H7.498c.016-1.047.4-1.946 1.147-2.7.765-.776 1.693-1.165 2.787-1.165m8.004 4.069c-.15-.136-.32-.204-.504-.204h-2.256c-.024-1.412-.537-2.623-1.539-3.637C14.12.51 12.885 0 11.432 0 9.987 0 8.746.51 7.713 1.532 6.715 2.546 6.205 3.76 6.19 5.17H3.922c-.185 0-.354.068-.504.204-.142.142-.221.309-.24.494L.935 25.327c-.025.185.021.342.138.469.117.136.274.204.467.204h19.78c.184 0 .335-.068.454-.204.117-.127.17-.284.151-.47L19.688 5.867c-.01-.185-.093-.349-.252-.494" mask="url(#fodcvmn42c)"/>
            </g>
        </g>
    </g>
</svg>
