<?xml version="1.0" encoding="utf-8"?>
<!-- Generator: Adobe Illustrator 23.0.1, SVG Export Plug-In . SVG Version: 6.00 Build 0)  -->
<svg version="1.1" id="Layer_1" xmlns="http://www.w3.org/2000/svg" xmlns:xlink="http://www.w3.org/1999/xlink" x="0px" y="0px"
	 viewBox="0 0 42.7 37" style="enable-background:new 0 0 42.7 37;" xml:space="preserve">
<style type="text/css">
	.st0{fill:#018101;}
</style>
<path class="st0" d="M41.9,12H20.5L9.7,1.2c-0.3-0.3-0.8-0.3-1.1,0L7.3,2.6C7,2.9,7,3.4,7.3,3.7l8.4,8.4H0.8C0.4,12,0,12.4,0,12.8
	v3.1c0,0.4,0.4,0.8,0.8,0.8H3l2.2,15.5c0,0,0.6,3.8,2.8,3.8h13h0.7h13c2.2,0,2.8-3.8,2.8-3.8l2.2-15.5h2.2c0.4,0,0.8-0.4,0.8-0.8
	v-3.1C42.7,12.4,42.4,12,41.9,12z M12.3,30.7c0,0.4-0.3,0.7-0.7,0.7h-1.5c-0.4,0-0.7-0.3-0.7-0.7v-7.8c0-0.4,0.3-0.7,0.7-0.7h1.5
	c0.4,0,0.7,0.3,0.7,0.7V30.7z M19.3,30.7c0,0.4-0.3,0.7-0.7,0.7h-1.5c-0.4,0-0.7-0.3-0.7-0.7v-7.8c0-0.4,0.3-0.7,0.7-0.7h1.5
	c0.4,0,0.7,0.3,0.7,0.7V30.7z M26.3,30.7c0,0.4-0.3,0.7-0.7,0.7h-1.5c-0.4,0-0.7-0.3-0.7-0.7v-7.8c0-0.4,0.3-0.7,0.7-0.7h1.5
	c0.4,0,0.7,0.3,0.7,0.7V30.7z M33.3,30.7c0,0.4-0.3,0.7-0.7,0.7h-1.5c-0.4,0-0.7-0.3-0.7-0.7v-7.8c0-0.4,0.3-0.7,0.7-0.7h1.5
	c0.4,0,0.7,0.3,0.7,0.7V30.7z M19.1,13.8c0-0.3,0.3-0.6,0.6-0.6c0.3,0,0.6,0.3,0.6,0.6s-0.3,0.6-0.6,0.6
	C19.4,14.4,19.1,14.1,19.1,13.8z"/>
</svg>
