<svg xmlns="http://www.w3.org/2000/svg" xmlns:xlink="http://www.w3.org/1999/xlink" width="37" height="38" viewBox="0 0 37 38">
    <defs>
        <path id="wztjnnym0a" d="M0 0.282L36.518 0.282 36.518 36.8 0 36.8z"/>
    </defs>
    <g fill="none" fill-rule="evenodd" opacity=".7">
        <g>
            <g>
                <g>
                    <g>
                        <g>
                            <path fill="#FEFEFE" d="M15.64 29.782L12 26.129 19.12 18.982 12 11.836 15.64 8.182 26.4 18.982z" transform="translate(-248 -517) translate(229.073 221) translate(.927 141) translate(18 155) matrix(-1 0 0 1 37 0)"/>
                            <g transform="translate(-248 -517) translate(229.073 221) translate(.927 141) translate(18 155) matrix(-1 0 0 1 37 0) translate(0 .182)">
                                <mask id="yi0izrvkrb" fill="#fff">
                                    <use xlink:href="#wztjnnym0a"/>
                                </mask>
                                <path fill="#FEFEFE" d="M18.26 5.383C11.003 5.383 5.1 11.285 5.1 18.54c0 7.255 5.903 13.158 13.158 13.158 7.256 0 13.158-5.903 13.158-13.158 0-7.256-5.902-13.158-13.158-13.158m0 31.417C8.191 36.8 0 28.61 0 18.54 0 8.474 8.191.283 18.26.283c10.067 0 18.258 8.19 18.258 18.259 0 10.068-8.191 18.26-18.259 18.26" mask="url(#yi0izrvkrb)"/>
                            </g>
                        </g>
                    </g>
                </g>
            </g>
        </g>
    </g>
</svg>
