<svg xmlns="http://www.w3.org/2000/svg" width="24" height="24" viewBox="0 0 24 24">
    <g fill="none" fill-rule="evenodd">
        <g fill="#016479">
            <g>
                <path d="M474.417 76.788c.777.777.777 2.016 0 2.782l-.844.856c-.777.765-2.015.765-2.78 0L463 72.633l-7.79 7.793c-.765.765-2.016.765-2.781 0l-.856-.856c-.765-.766-.765-2.005 0-2.782l7.791-7.794-7.79-7.793c-.766-.766-.766-2.005 0-2.77l.855-.857c.765-.765 2.016-.765 2.78 0l7.791 7.794 7.791-7.794c.766-.765 2.004-.765 2.781 0l.844.856c.777.766.777 2.005 0 2.77l-7.79 7.794 7.79 7.794z" transform="translate(-1381 -57) translate(930)"/>
            </g>
        </g>
    </g>
</svg>
