<svg xmlns="http://www.w3.org/2000/svg" width="15" height="15" viewBox="0 0 15 15">
    <g fill="none" fill-opacity=".25" fill-rule="evenodd">
        <g fill="#000">
            <g>
                <g>
                    <path d="M427.636 25.367c.485.486.485 1.26 0 1.74l-.528.534c-.485.479-1.26.479-1.738 0l-4.87-4.87-4.868 4.87c-.478.479-1.26.479-1.738 0l-.535-.535c-.479-.479-.479-1.253 0-1.739l4.87-4.87-4.87-4.871c-.479-.48-.479-1.253 0-1.732l.535-.535c.478-.479 1.26-.479 1.738 0l4.869 4.87 4.87-4.87c.478-.479 1.252-.479 1.737 0l.528.535c.485.479.485 1.253 0 1.732l-4.87 4.87 4.87 4.871z" transform="translate(-1384 -229) translate(930) translate(41 216)"/>
                </g>
            </g>
        </g>
    </g>
</svg>
