<svg xmlns="http://www.w3.org/2000/svg" width="328" height="113" viewBox="0 0 328 113">
    <g fill="none" fill-rule="evenodd">
        <g fill="#FFF">
            <g>
                <path d="M370.246 600.866c.08.082.149.15.217.217.068-.135.159-.266.19-.41.012-.05-.122-.133-.19-.2l-.217.393zm-191.433-60.14c-.07.004-.158-.017-.206.018-.305.227-.297.834.015 1.004.052.028.155.02.203-.015.306-.227.294-.829-.012-1.008zm-167.418 64.36c-.15.51-.278.77-.285 1.03-.005.152.184.31.285.463.103-.154.29-.31.287-.463-.007-.26-.135-.52-.287-1.03zm97.4-23.254c0-.198.02-.4-.01-.594-.011-.079-.152-.213-.195-.199-.145.046-.376.136-.387.23-.043.392-.028.793-.01 1.19.005.072.156.211.199.197.144-.046.344-.12.387-.234.065-.174.017-.39.017-.59zm1.209 44.607c-.195-.204-.402-.399-.583-.615-.215-.255-.443-.332-.612-.002-.08.155-.066.404-.001.575.125.332.627.448.977.255.082-.045.14-.135.219-.213zM3.324 598.03c-.628.003-.866.275-.776.752.056.306.217.508.597.478.46-.036.727-.29.598-.755-.06-.214-.323-.372-.42-.475zm103.945 26.26c.413-1.33.3-1.872-.618-2.414-.172-.102-.612.014-.761.18-.141.156-.178.607-.054.761.429.53.948.987 1.433 1.472zm-55.22-11.12c-.065-.264-.037-.794-.266-.952-.492-.338-.205-.953-.598-1.248-.133-.1-.367-.133-.537-.1-.17.032-.448.186-.447.284.006.47-.021.993.179 1.388.21.418.657.721 1.019 1.055.107.1.274.134.413.198l.237-.626zm169.425-57.286c-.424.424-.845.83-1.248 1.253-.441.461-.153 1.41.5 1.686.155.065 1.05-.61 1.029-.84-.066-.679.276-1.409-.281-2.099zm-187.452 51.95c-.142.121-.3.23-.425.366-.686.737-.72.924-.184 1.458.42.42.863.82 1.333 1.18.105.081.409.012.544-.09.129-.098.265-.383.21-.493-.421-.848-.691-1.796-1.478-2.42zM95.36 568.39c0 .3-.043.606.009.897.115.65.645 1.12.83 1.754.025.08.525.078.777.012.299-.079.245-.22.017-.424-.195-.174-.38-.469-.393-.719-.046-.897.01-1.799-.051-2.693-.01-.126-.46-.275-.72-.309-.141-.019-.43.164-.447.287-.06.39-.022.795-.022 1.195zm-37.202 41.165c-.067-.286-.093-.692-.258-1.03-.378-.769-1.443-.594-1.891-1.3-.115.133-.318.261-.325.4-.018.391-.097.893.103 1.16.416.551.982.997 1.523 1.442.103.086.414.026.555-.073.133-.093.168-.325.293-.599zm-33.331-11.523c-.16.16-.292.23-.294.303-.015.814-.01 1.627-.01 2.442.503.503 1.005 1.007 1.518 1.501.007.007.136-.11.315-.26 0-.404-.044-.903.01-1.39.085-.767-.145-1.359-.76-1.83-.286-.222-.521-.509-.78-.766zm-18.623 1.676c-.054.77.055 1.01.302 1.387.567.868 1.61 1.051 2.337 1.684.049.045.365-.076.399-.174.205-.593-.066-1.562-.627-1.826-.71-.334-1.401-.656-1.871-1.304-.18-.247-.293-.28-.432-.025-.044.082-.072.172-.108.258zm15.067 1.338c-.123.18-.373.381-.387.6-.026.376-.03.864.18 1.123.493.605.434 1.551 1.265 1.935.326.152.975-.024.96-.364-.02-.476.208-1.01-.273-1.409-.537-.445-.99-.944-1.102-1.683-.012-.08-.34-.11-.643-.202zm343.447-.637c-.143 1.21.02 1.844.657 2.314.242.18.403.486.66.623.23.122.624.21.795.093.183-.126.163-.52.278-.776.372-.825-.902-1.058-.666-1.899.054-.19-.518-.567-.817-.843-.06-.055-.19-.07-.276-.053-.185.034-.462.05-.524.167-.131.245-.148.552-.107.374zm-347.237.083c-.686.701-.673.695-.311 1.496.075.166-.061.461.039.577.684.801.886 1.944 1.854 2.551.215.134.318.278.428.073.085-.16.12-.355.143-.539.023-.197.089-.463-.008-.589-.851-1.109-.935-2.68-2.145-3.569zm-5.764 2.133c.509.59 1.106 1.031 1.339 1.878.17.623.877 1.018 1.705.87.519-.092.536-.026.265-.652-.037-.085-.207-.155-.197-.213.204-1.29-.723-1.964-1.501-2.686-.317-.295-.722-.167-1.02.176-.188.217-.394.42-.591.627zm15.86 2.981c0 .518-.036.825.014 1.117.029.168.19.443.302.447 1.554.061 1.54 1.516 2.082 2.42.195.322.385.645.63.93.27.312.869.467 1.013.238.142-.227.177-.528.23-.803.082-.42-.057-.749-.394-1.04-.453-.394-.938-.79-1.261-1.282-.35-.533-.484-1.203-.8-1.765-.231-.414-.56-.803-.932-1.093-.135-.104-.617.032-.765.207-.158.188-.108.551-.12.624zm54.356 2.158c-.185-.357-.51-.753-.591-1.194-.108-.588-.011-1.212-.036-1.819-.007-.176-.105-.365-.207-.517-.321-.48-.99-.69-1.013-1.41-.028-.849-1.02-.327-1.335-.907-.277-.51-.456.1-.603.232-.157.142-.678.342-.312.598.495.346.225 1.01.634 1.266.816.511 1.128 1.413 1.424 2.157.359.898.994 1.44 1.585 2.075.046.05.288-.046.412-.12.049-.032.025-.185.042-.36zm281.459-5.718c-.04-.07-.074-.145-.12-.212-.524-.775-.862-1.644-1.284-2.47-.267-.524-.78-.8-1.486-.75-.725.05-.662.478-.782.961-.082.333-.723.516-.531.957.186.426.559 1.068.874 1.083.853.04 1.12.742 1.673 1.1.216.141.605.254.79.152.339-.183.583-.538.866-.82zm-200.855 35.677c.202 0 .41.028.606-.008.18-.034.348-.136.52-.207-.082-.144-.14-.312-.252-.426-1.355-1.368-2.708-2.739-4.097-4.072-.16-.153-.616-.2-.785-.083-.182.127-.326.69-.25.748.667.504.496 1.501 1.2 1.955-.161.764.546 1 .89 1.455.823-.13 1.297.931 2.168.638zm193.582-39.082h-.302c-.81.006-.915.087-.926.765-.011.793-.114 1.584.729 2.133.496.324.838.877 1.312 1.244.174.134.597.132.792.01.325-.207.648-.517.807-.86.187-.404-.127-.729-.43-1.02-.116-.11-.116-.35-.157-.533-.33-1.479-.594-1.732-1.825-1.739zm-5.56 7.688c-.184-.312-.551-.645-.52-.932.092-.819-.24-1.604-.87-1.725-1.65-.318-1.693-1.395-1.611-2.656.026-.4.06-.817-.015-1.205-.051-.259-.29-.48-.445-.719l-1.98-1.062c-.172.071-.45.102-.495.221-.1.263-.184.605-.098.855.517 1.505 1.262 2.94 2.075 4.267.765 1.246 2.083 2.153 3.166 3.2.05.05.205.033.293.001.174-.065.336-.162.5-.245zm-313.822-6.17c0 .605-.133 1.253.043 1.801.137.428.736.685.99 1.103.337.551.51 1.2.81 1.777.176.337.452.625.7.92.324.384.939.11 1.27.625.32.497.825.88 1.274 1.284.045.041.286-.095.4-.192.05-.042.015-.192.008-.293-.051-.694-.66-.997-1.091-1.344-.583-.467-.58-1.23-1.056-1.692-.443-.429-.317-.933-.277-1.396.078-.913-1.026-1.5-.628-2.472-.403-.423-.577-.96-.791-1.488-.105-.258-.388-.465-.631-.638-.142-.1-.372-.14-.548-.112-.315.048-.507.224-.482.605.036.501.009 1.007.009 1.512zm67.783 17.107c-.573-.574-1.031-1.133-1.59-1.562-.585-.45-.726-1.124-1.084-1.686-.32-.5-.805-.919-1.288-1.279-.15-.113-.752.041-.77.14-.225 1.268-.516 2.566.793 3.512.819.591 1.033 1.59 1.498 2.417.139.248.295.486.439.731.395.67 1.068.533 1.625.445.487-.076.376-.608.377-.994v-1.724zm-6.106-47.946c-.377.98.31 1.907.75 2.833.209.438.578.795.463 1.315-.167.758.299 1.28.618 1.862.129.235.203.638.377.683.369.097.793.047 1.18-.023.116-.02.298-.346.256-.462-.22-.61-.413-1.264-.786-1.779-.673-.932-.66-1.776-.02-2.689.369-.524.397-1.133-.012-1.618-.28-.33-.267-.735-.443-1.024-.248-.412-.593-.729-.632-1.267-.008-.107-.6-.332-.74-.236-.465.316-1.04.61-1.013 1.327.01.302.002.604.002 1.078zm19.54-14.544c-.021.98.824 1.722.738 2.742-.015.195.387.436.613.638.402.36.847.221 1.09-.345.404-.94 1.232-1.865.026-2.853-.15-.123-.024-.58-.024-.884 0-.909-.166-1.858.043-2.717.249-1.026-.742-1.586-.673-2.487.004-.049-.365-.202-.394-.167-.305.364-.844.557-.815 1.174.033.706-.125 1.447.04 2.114.224.912-.49 1.442-.637 2.181-.04.194-.006.402-.006.604zm-13.901 15.164c-.202 0-.403-.004-.603 0-.723.016-.853.31-.783 1.227.037.492.658.643.599.944-.217 1.088.52 1.614 1.107 2.277.766.865 1.907 1.437 2.155 2.725.016.081.345.16.518.14.17-.02.473-.172.47-.254-.044-1.04.497-2.19-.524-3.06.19-.836-.351-1.448-.612-2.157-.158-.429-.002-.909-.405-1.353-.49-.54-1.035-.487-1.621-.489h-.301zm235.005 33.803c.125-1.053-.514-1.848-.988-2.632-.404-.669-1.116-1.147-1.667-1.735-.188-.2-.454-.504-.418-.713.223-1.28-.87-1.725-1.54-2.372-.227-.222-.983-.11-1.363.097-.361.197-.187.637.077 1.005.379.53.87 1.12.913 1.711.05.731.46 1.246.63 1.867.235.861 1 1.19 1.439 1.825.16.231.428.498.405.724-.087.827.174 1.238 1.044 1.362.468.067 1.149.057 1.277-.303.096-.268.13-.557.19-.836zm-159.705-57.592c-.315.562-.826 1.096-.9 1.685-.12.98.04 1.994.082 2.993.972.813.295 1.905.49 2.85.018.086.084.191.159.234.917.531.988 1.673 1.714 2.35.452.421.98.281 1.425.207.476-.079.36-.622.36-1.008.002-.594-.121-1.08-.461-1.65-.524-.874-1.058-1.875-.774-3.035.095-.384.04-.812.008-1.216-.04-.487.162-1.002-.112-1.42l-1.991-1.99zm-49.916 39.666c.304 0 .609.007.913-.002.266-.008.54-.399.418-.655-.163-.34-.467-.624-.583-.974-.146-.448.132-.96-.281-1.414-.304-.336-.415-.84-.67-1.233-.262-.406-.771-.733-.855-1.158-.116-.584-.54-.822-.862-1.169-.69-.74-1.384-1.488-2.155-2.142-.611-.519-.821-1.123-.68-1.85.148-.754-.404-1.076-.82-1.483-.041-.039-.385.101-.394.181-.127 1.081.078 1.856.843 3.291.31.582.666 1.142.959 1.732.08.163.013.4.012.602-.002.594.077 1.09.463 1.65.306.446.489 1.014.912 1.434.196.196.48.525.428.71-.231.81.588 1.22.627 1.885.022.375.183.56.51.587.402.034.809.008 1.215.008zm-98.202 10.991c-.172.072-.451.103-.5.225-.431 1.088-.105 2.536.913 2.755 1.164.25 1.152 1.16 1.677 1.778.354.417.207.945.593 1.295.363.33.732.691.972 1.111.417.732.486 1.648 1.176 2.241.09 1.13 1.134 1.556 1.7 2.335.153.211.138.546.19.826.018.098-.033.22.008.3.409.8.983 1.44 1.834 1.786.087.035.252.043.29-.006.09-.119.22-.347.173-.41-.908-1.23-1.18-2.883-2.552-3.807-.818-.55-1.035-1.34-.995-2.325.066-1.61-.182-2.319-1.384-3.649-.425-.47-.238-1.18-.823-1.495-.323-1.357-1.504-2.033-2.383-2.938-.148-.152-.585-.02-.89-.022zm187.182-32.37c.515-.356.15-1.225.855-1.47.018-1.309.144-2.63.008-3.924-.073-.706-.593-1.364-.96-2.02-.091-.163-.211-.346-.207-.517.028-1.209-.464-1.888-1.753-1.842-.18.007-.363-.092-.545-.142-.227-.062-.261-.64-.638-.27-.276.271-.571.568-.724.912-.513 1.148.67 2.004.589 3.083-.038.494.359.67.585.978.4.55 1.344.816 1.214 1.6-.137.824.736 1.196.633 1.878-.131.862.452 1.253.943 1.734zm121.23 31.76c-.116 0-.217.01-.317-.002-.575-.063-.97.051-.944.767.006.214.008 2.01 0 2.216-.033.777.653.526.976.778.358.278.892.52.874 1.132-.017.61.843.861.638 1.55.642.642 1.282 1.285 1.927 1.924.14.14 1.328.292 1.413.153.142-.235.273-.518.279-.783.01-.485.035-1.017-.144-1.446-.251-.602-.682-1.13-1.041-1.687-.206-.319-.542-.485-.66-.942-.548-2.133-.607-2.1-1.457-3.028-.44-.48-.91-.739-1.544-.632zm9.752 3.045c-.005.473.058.88.357 1.355.49.78.613 1.953 1.352 2.407 1.077.66.292 1.981 1.226 2.571.109.07.037.38.12.542.65 1.253 1.234 1.352 2.2.39.216-.213.439-.418.64-.643.298-.332.295-1.319-.01-1.635-.418-.436-.855-.854-1.278-1.285-1.086-1.107-1.542-2.158-1.558-3.585-.004-.403.013-.806-.003-1.209-.035-.845-.99-1.518-1.91-1.335-.175.035-.475.177-.472.261.03.803-.943 1.286-.664 2.166zM163.786 544.81c-.201.988-.02 1.903.91 2.594.186.138.327.561.258.777-.378 1.17 1.02 1.953.633 3.1.698.463.656 1.17.618 1.874.765.431.569 1.192.65 1.862.01.08.124.171.21.206.05.02.192-.052.204-.104.286-1.167.099-2.195-.306-4.305-.232-1.207-.592-2.513.338-3.705.258-.33-.002-1.17.27-1.368.922-.663-.215-.929-.174-1.415.077-.906.038-1.824.002-2.735-.005-.122-.273-.336-.416-.333-.474.013-1.002-.196-1.4.282-.26.31-.543.612-.86.858-.78.603-1.15 1.352-.937 2.412zm-51.021 39.786c.335-.335.677-.664 1.004-1.007.69-.722.629-.998.212-2.09-.301-.788-1.015-1.383-.941-2.368.06-.787-.83-1.057-1.243-1.6-.234-.308-.58-.503-.572-.99.017-.968.258-2.005-.597-2.793.26-1.033-.937-1.747-.611-2.794-.348-.337-.662-.733-1.065-.983-.143-.089-.68.12-.731.287-.115.371-.204 1.006-.005 1.171.664.55.674 1.23.56 1.913-.15.927.246 1.526.9 2.086.19.163.315.5.326.763.039.912.129 1.845-.013 2.737-.185 1.166.32 2.12.82 3.02.232.422.296.92.6 1.277.396.462.855.87 1.356 1.371zM169.86 556.2l1.238 1.237c.288.288.552.605.874.85.132.1.41.098.577.032.152-.059.298-.253.35-.418.062-.184.066-.419.005-.603-.176-.535-.496-1.04-.576-1.585-.102-.697-.057-1.422-.014-2.132.03-.487-.548-.733-.52-.986.077-.718-.7-.956-.71-1.56-.01-.712-.002-1.425-.002-2.137 1.175-.962.419-2.272.592-3.412.087-.579-.77-.854-.616-1.58.123-.585.024-1.216.024-1.826 0-.306.014-.612-.003-.916-.021-.384-.704-1.044-1.221-1.13-.157-.028-.492.12-.496.2-.062 1.207-.082 2.416-.112 3.624.992.995.578 2.255.596 3.41.045 2.95.014 5.9.014 8.932zm155.089 50.226c.42.371 1.039.77 1.45 1.323.44.592.679 1.333 1.014 2.005.084.17.19.458.3.463.808.041 1.62.045 2.43.016.329-.01 1.096-1.193.918-1.41-.551-.674-.775-1.513-1.202-2.246-.044-.076.029-.27-.011-.29-.336-.162-.768-.214-1.016-.457-.62-.606-1.456-1.082-1.521-2.098-.705-.56-.615-1.685-1.504-2.115-.234-.813-.986-1.417-.858-2.392.092-.696.05-1.419-.028-2.119-.014-.125-.578-.357-.74-.268-.5.276-1.04.598-1.044 1.303-.002.304.027.611-.006.912-.084.746.085 1.36.716 1.842.399.306.724.707 1.102 1.085v4.446zm-63.784-5.943c-.17.16-.307.23-.307.3-.012 1.415-.01 2.83-.01 4.335.25.23.53.524.846.772.76.598 1.182 1.33.986 2.325-.246 1.245.395 2.228.918 3.262.59 1.17 1.224 2.315 1.746 3.523.228.53.775.816 1.49.767.735-.05.54-.687.804-.937.848-.807.58-1.345-.165-1.939-.312-.249-.367-.707-.56-.966-.851-1.155-.984-2.739-2.216-3.655-.123-.09-.194-.353-.173-.52.118-.956-.644-1.56-.913-2.36-.33-.979-1.17-1.779-.952-2.956.042-.229-.148-.554-.322-.759-.363-.428-.785-.805-1.172-1.192zm-143.51-16.49c.959-1.057 1.08-1.15.57-1.809-.435-.564-.042-1.179-.387-1.672-.336-.48-1.052-.7-1.084-1.365-.024-.494-.48-.628-.601-.97-.08-.222.03-.603.193-.802.654-.806.634-1.789.1-2.434-.524-.632.029-1.416-.583-1.906-.686-.55-.341-1.322-.326-1.976.028-1.205-.933-1.627-1.596-2.297-.071.072-.155.135-.212.216-.27.388-.672.322-1.07.362-.803.081-.781.17-.832.872-.043.598.448.862.588 1.28.18.547-.017 1.21.073 1.802.037.241.436.408.608.653.379.544.774 1.09 1.055 1.685.157.333.225.807.115 1.147-.29.906.956 1.29.662 2.191-.067.2.222.5.298.766.23.814.995 1.41.919 2.362-.02.238.197.532.374.741.328.383.706.722 1.137 1.153zm7.633.871c.106-.77-.064-1.462-.813-2.026-.64-.48-1.082-1.246-1.75-1.665-.865-.544-.168-1.529-.811-2.124-.476-.44-.446-1.266-1.08-1.67-.226-.146-.481-.33-.45-.72.049-.603-.1-1.24.04-1.812.199-.815-.59-1.209-.63-1.876-.036-.604.04-1.217-.021-1.817-.065-.652-.557-1.024-1.136-1.186-.18-.05-.63.213-.651.374-.08.596.072 1.231-.053 1.81-.251 1.157.324 2.094.75 3.035.198.434.588.773.492 1.313-.12.662.31 1.404-.303 2-.101.098-.213.345-.164.412.5.698.837 1.457 1.108 2.275.142.425.72.668.606 1.277-.021.112.262.281.405.424.5.5.922 1.152 1.52 1.461.704.362 1.36.72 1.878 1.32.058.067.172.155.237.138.269-.07.567-.129.779-.29.102-.079.034-.377.047-.653zm125.195 15.61c-.217 0-.421-.005-.624 0-.535.01-.655.108-.241.617.447.55 0 1.174.39 1.682.87 1.14 1.086 2.715 2.374 3.585.464.313.57.762.539 1.304-.042.71-.165 1.468.03 2.12.213.703.975 1.273 1.084 1.967.103.643.563.987.738 1.542.459 1.441 1.826 1.9 3.06 2.42.295.123.882.243 1.086-.215.15-.34.109-.784.079-1.176-.011-.146-.251-.406-.356-.39-.621.085-.872-.4-1.24-.717-.39-.335-.163-.907-.61-1.295-.393-.342-.322-1.105-.892-1.437-.474-.277-.466-.814-.667-1.244-.28-.6-.94-1.11-.997-1.702-.078-.814-.375-1.469-.708-2.164-.61-1.274-.678-1.289-.59-2.483.067-.855-.427-1.258-.897-1.78-.441-.49-.92-.742-1.558-.635zm83.64 4.697c.044-.823.092-1.623-.768-2.12-.808-.469-1.071-1.37-1.464-2.122-.25-.48-.141-1.147-.21-1.728-.042-.377.047-.733-.215-1.128-.515-.775-.865-1.658-1.312-2.48-.225-.416-.521-.268-1.07-.192-1.314.18-1.54 1.3-2.086 2.147-.14.217-.235.588-.146.802.14.337.418.601.597.962.807 1.624 1.458 3.374 3.006 4.518.72.533.644 1.626 1.482 2.133.257.155.237.716.466.986.15.178.63.32.777.215.669-.473 1.224-1.06.944-1.993zm-205.177-37.969c0-.955-.012-1.353.004-1.749.016-.408.005-.778-.361-1.072-.557-.447-.977-.924-.897-1.77.06-.642-.72-1.069-.613-1.879.145-1.093.035-2.22.035-3.272-.706-.976-2.108-1.444-1.831-2.96-.472-.515-.928-1.044-1.424-1.533-.113-.113-.371-.14-.548-.114-.317.05-.504.231-.48.611.034.504.007 1.012.005 1.518-1.334.747-.263 1.563.046 2.214.342.723.616 1.376.597 2.201-.014.66-.29 1.365.269 2.011.746.862.893 2.061 1.696 2.958.94 1.052 2.337 1.43 3.502 2.836zm55.799-18.635c-.668-.02-.835.081-.837.558-.006 1.523.033 3.048-.02 4.57-.021.585.225.941.619 1.274-.254.706.643.941.632 1.571-.011.587.772.858.624 1.58-.122.585-.03 1.214-.023 1.823.003.196.016.396.062.585.02.084.142.213.206.207.818-.086 1.285.895 2.176.68.347-.083.578-.189.593-.505.019-.387.074-.908-.138-1.14-.384-.418-.468-.829-.47-1.349-.002-.619 0-1.184.575-1.614.098-.072-.055-.534-.151-.793-.1-.262-.38-.49-.393-.744-.05-.91-.012-1.827-.024-2.74-.004-.286.049-.555-.195-.84-.298-.349-.377-.886-.68-1.226-.602-.675-1.28-1.284-1.96-1.883-.114-.1-.393-.014-.596-.014zm140.178 64.73c.369 0 .577.025.774-.007.323-.05.56-.215.49-.595-.07-.378.106-.75-.188-1.146-.734-.992-1.04-2.22-1.91-3.185-.597-.66-1.14-1.588-.946-2.629.194-1.032-.317-1.702-1.025-2.327-.264-.233-.297-1.379-.216-2.148.04-.387.106-.93-.105-1.153-.548-.578-.545-1.485-1.26-1.935-.303-.19-.667-.666-.845-.598-.335.13-.56.514-1.03.476-.126-.01-.395.232-.392.354.02.868-.27 1.825.667 2.464.324.221.576.514.546.992-.044.708.03 1.424-.021 2.131-.076 1.045-.018 2.004.975 2.655.135.09.268.345.24.492-.154.817.294 1.31.837 1.801.6.544 1.169 1.128 1.725 1.72.6.64.866 1.453 1.142 2.268.068.2.432.3.542.37zm-69.571-9.3c.406.358.928.832 1.462 1.293.747.644-.013 1.675.463 2.232.91 1.066.054 2.91 1.682 3.593.049.02.07.185.053.272-.16.797.236 1.33.807 1.805.31.26.54.63.874.844.64.41.613 1.212 1.078 1.691.512.526.239 1.14.288 1.711.039.448.113.776.665.748.405-.02.812.006 1.218-.007.565-.018.735-.446.414-1.064-.131-.253-.376-.467-.441-.73-.367-1.467-1.086-3.132-1.937-4.068-.365-.402-.606-.775-.518-1.317.125-.764-.127-1.376-.76-1.817-.92-.64-1.26-1.5-1.083-2.606.064-.396.03-.813 0-1.217-.013-.178-.083-.435-.211-.507-.936-.526-.856-1.78-1.715-2.348-.48-.317-.56-.785-.511-1.315.027-.302.063-.623-.008-.91-.127-.518-.582-.42-.97-.419-.403.001-.842-.04-.847.55-.008 1.117-.003 2.235-.003 3.585zm-91.598 6.307c.097.561-.25 1.218.253 1.705.499.483.422 1.265 1.05 1.715.65.465 1.164 1.122 1.737 1.696.573.573 1.096 1.213 1.733 1.701.668.511.642 1.41 1.267 1.927.466.384.86.853 1.288 1.285-.27.707.68.931.626 1.572-.014.16.112.391.247.492.795.597 1.09 1.365.979 2.348-.028.245.13.577.31.768.763.812 1.546 1.61 2.373 2.354.138.124.617.064.787-.085.353-.309.83-.562.794-1.182-.047-.789.095-1.562-.721-2.158-.515-.378-1.113-.784-1.176-1.64-.027-.343-.632-.758-1.06-.932-.967-.396-1.597-.999-1.962-2.002-.287-.787-.894-1.46-1.164-2.25-.216-.632-.585-1.028-1.121-1.254-1.17-.495-2.04-1.167-1.965-2.586-.593-.617-.672-1.368-.631-2.18.013-.252-.164-.542-.321-.768-.64-.917-1.711-1.23-2.607-1.78-.124-.077-.588.152-.686.346-.123.242-.03.593-.03.908zm118.216-15.938c-.12.142-.334.28-.342.428-.031.586-.13 1.184.483 1.626.38.274.842.593.722 1.208-.171.873.433 1.351 1.052 1.59.8.308 1.397.646 1.416 1.585.703.56.614 1.682 1.5 2.112.16.748.965 1.268.889 2.047-.097 1.02.258 1.765 1.042 2.307.775.536.929 1.25.818 2.1-.082.626.153.928.823.893.145-.008.29.245.458.34.712.406.809.378 1.465-.357.435-.488.48-.763-.04-1.24-.74-.678-1.133-1.557-1.457-2.439-.312-.847-.844-2.227-1.308-2.802-.806-1-1.154-1.997-1.162-3.16-.003-.507-.037-1.017.01-1.518.05-.55-.137-.945-.548-1.302-.457-.397-.891-.829-1.29-1.286-.67-.768-1.422-1.487-1.748-1.514-.403-.032-.83.071-1.21-.028-.444-.116-.845-.393-1.272-.585-.085-.037-.2-.005-.301-.005zm3.916 14.542c0-.78.003-1.289 0-1.797-.01-1.388-.254-2.12-1.368-3.39-.375-.427-.387-.852-.496-1.334-.141-.629-.455-1.24-.798-1.795-.192-.31-.575-.663-.906-.7-1.287-.144-1.33-1.375-1.77-2.12-.4-.674-.44-1.73.386-2.45.108-.094.14-.468.05-.56-.546-.563-1.12-1.106-1.736-1.59-.084-.067-.646.208-.661.358-.19 1.875-.094 2.962.712 4.257.335.536.377.722-.052 1.13-.12.112-.044.59.099.788.505.705.72 1.596 1.478 2.152.36.265.257.711-.094 1.02-.238.211-.333.365-.046.66.467.48.478 1.236 1.073 1.698.63.49 1.346 1.058 1.625 1.752.278.695.06 1.588.06 2.34.846.844 1.636 1.635 2.427 2.426-.332.812.977 1.056.647 1.868.143.047.334.178.423.128.737-.413.665-1.396 1.3-1.89-.3-.564-.522-1.19-.921-1.673-.443-.536-1.046-.942-1.432-1.278zm27.809-10.267c-.407 0-.837-.078-1.21.034-.171.051-.387.543-.311.716.226.521.742.912.586 1.592-.15.647.798.867.64 1.584-.036.168.577.475.542.648-.22 1.083.425 1.712 1.12 2.296.592.497.832 1.067.758 1.834-.058.605-.138 1.255.022 1.82.174.62.615 1.164.935 1.744.09.165.172.335.252.506.278.597.537 1.202.836 1.788.088.172.273.3.424.434.433.386 1.093.314 1.516.828.15.183.672.193 1.015.443.524.382 1.569.306 1.612-.018.064-.467.159-1.119-.09-1.399-.53-.595-.36-1.725-1.262-1.909-1.204-.245-1.67-.857-1.645-2.055.006-.302-.461-.602-.68-.923-.6-.875-1.368-1.764-1.08-2.885.263-1.027-.61-1.613-.705-2.494-.041-.374-.643-.687-.565-1.282.067-.499.034-1.016.007-1.523-.021-.38.16-1.07-.244-1.06-.71.016-.951-.706-1.558-.718-.304-.006-.61 0-.915 0zm-5.44-.61c-.202 0-.405-.003-.608 0-.857.006-1.312.538-.981 1.297.448 1.031.869 2.142 1.59 2.964.537.611.78 1.327 1.229 1.947.52.72.094 1.561.206 2.34.058.397-.041.818.029 1.211.046.262.282.485.4.741.278.593.532 1.197.805 1.793.194.426.493.826.59 1.271.17.795 1.09.275 1.379.896.244.523 1.139.732 1.04 1.37-.123.811.59 1.22.635 1.881.027.378.183.572.499.597.504.04 1.013.023 1.519.006.365-.01.624-.576.412-.933-.338-.573-.806-1.088-1.038-1.697-.214-.558-.41-1.069-.88-1.463-.315-.264-.866-2-1.13-2.565-.512-1.105-.92-2.27-1.655-3.266-.275-.372-.21-.718.12-1.04.112-.11.258-.383.228-.41-.87-.813-.768-2.199-1.71-2.94-.543-.428-.69-.929-.63-1.573.04-.4.02-.81.004-1.214-.015-.405-.751-1.185-1.142-1.21-.302-.02-.608-.004-.911-.004zm-61.451 11.866c.8 1.026 2.304 1.723 1.837 3.46-.024.085-.015.226.04.28.936.91 1.868 1.826 2.847 2.688.099.086.543-.127.749-.296.1-.082-.047-.416.033-.58.902-1.849.93-2.185-.298-3.32-.733-.676-1.13-1.406-.918-2.357.219-.992-.616-1.58-.82-2.414-.102-.42-.921-.698-.968-1.094-.072-.582-.361-.89-.703-1.248-1.22-1.278-1.47-1.906-1.822-3.809-.116-.629-.356-1.346-.788-1.774-.431-.427-1.165-.562-1.784-.772-.107-.036-.404.17-.438.306-.07.287-.061.61-.012.906.107.651.84 1.084.632 1.884-.048.186.359.452.424.714.229.916 1.058 1.658.773 2.726-.123.463.227.734.526.992.474.41.794.84.708 1.542-.085.7-.018 1.417-.018 2.166zm58.012-.557c.638.633 1.292 1.27 1.927 1.923.199.205.523.495.486.691-.203 1.115.656 1.586 1.228 2.248.407.472.92.31 1.394.3.31-.009.447-.25.479-.613.06-.656-.14-1.16-.63-1.573.243-.924-.24-1.528-.898-2.062-.158-.126-.283-.29-.434-.425-.304-.272-.517-.547-.514-1.01.007-.894.132-1.869-.176-2.66-.334-.854-.883-1.65-1.241-2.525-.07-.173-.404-.33-.378-.438.27-1.089-.473-1.663-1.116-2.287-.432-.42-.683-.845-.795-1.51-.155-.929-.776-1.77-.573-2.802.02-.105-.231-.374-.364-.38-.6-.027-1.228-.082-1.794.067-.34.09-.59.532-.85.841-.012.014.285.253.39.418.1.154.179.347.187.526.039.777.002 1.491.573 2.216.496.632.502 1.652 1.187 2.218.619.512.8 1.117.685 1.851-.091.574.16.978.593 1.273.572.392.689.918.645 1.567-.048.707-.011 1.418-.011 2.146zm-235.714 6.704c-1.006-1.007-1.981-2.05-3.037-3.005-.507-.46-.722-.934-.627-1.582.058-.384-.2-.473-.486-.614-.851-.419-1.957-.539-2.436-1.433-.493-.919-1.03-1.9-.746-3.047.14-.567-.178-.944-.578-1.287-.38-.327-.611-.685-.706-1.246-.07-.408-.722-.688-1.006-1.1-.261-.382-.162-.974-.665-1.247-.14-.987-.647-1.53-1.68-1.736-.4-.08-.744-.785-1.251-.37-.534.436-.176.88.229 1.24.07.062.168.165.156.233-.123.741.364 1.277.563 1.904.272.86.926 1.285 1.463 1.83.423.426.528.88.408 1.357-.224.887.503 1.446.727 2.161.216.688 1.329 1.082 1.583 1.776.298.814.833 1.318 1.367 1.876.844.882 1.693 1.763 2.596 2.582.438.396.543.837.454 1.342-.174.97.62 1.584.83 2.41 1.133.094 1.59 1.107 2.333 1.731.457.384.965.163 1.439.141.109-.005.31-.517.26-.75-.054-.257-.32-.499-.55-.678-.52-.41-.77-.896-.648-1.573.052-.296.008-.609.008-.915zm201.564-18.626c-.178.061-.391.08-.527.19-.756.61-1.04 1.307-.58 2.046.28.45.468.822.457 1.343-.032 1.352.015 1.347.997 2.627.11.143.24.368.202.512-.26.957.899 1.535.642 2.493-.037.136.104.39.237.492.78.6 1.095 1.353.987 2.345-.051.461-.193.997.285 1.395.456.38.279 1.124.854 1.48.336.206.54.626.877.831.82.501.87 1.511 1.496 2.128.032 1.534 1.577 1.504 2.364 2.256.093.09.479.05.55-.054.153-.222.346-.647.248-.775-.881-1.137-1.058-2.723-2.302-3.616-.64-.459-.78-1.078-.743-1.83.034-.689.159-1.525-.164-2.04-.402-.64-.476-1.516-1.23-1.942-.39-.22-.506-.603-.421-1.036.175-.888-.142-1.552-.86-2.083-.322-.239-.786-.539-.827-.857-.123-.967-1.597-1.773-.398-2.89.209-.195.282-.295.08-.437-.361-.255-.311-.717-.483-1.009-.35-.59-.948-1.037-1.456-1.53-.055-.054-.188-.027-.285-.039zm-205.228 8.245c0-.323-.054-.73.01-1.116.172-1.014-.257-1.736-1.015-2.333-.58-.456-.887-.98-.87-1.795.014-.587-.533-.993-1.153-1.178-.266-.079-.54-.226-.735-.418-.197-.19-.376-.232-.426.058-.085.488-.078.996-.082 1.495-.011 1.306.084 1.25.969 2.658.43.685 1.04 1.414.87 2.385-.068.395-.068.824.01 1.216.05.261.26.52.462.713.2.193.473.415.725.431.617.037.87.873 1.566.658.399.427.245 1.177.864 1.474.022.944.607 1.306 1.429 1.59.412.141.835.595 1.01 1.011.373.877.903 1.741.653 2.79-.09.38-.03.761.316 1.088.96.91 1.79 1.983 2.848 2.752.64.467 1.402 1.047 2.374.883.453-.076.604-.169.386-.475-.833-1.172-1.12-2.679-2.352-3.62-.7-.533-.908-1.434-1.137-2.263-.227-.825-.83-2.109-1.253-2.533-1.797-1.8-3.597-3.599-5.47-5.47zm172.61-8.854c-.211 0-.416-.015-.617.006-.085.01-.233.097-.231.144.006.145.025.336.118.425.596.563 1.124 1.088.959 2.063-.21 1.238.002 2.405 1.193 3.157-.33.812.957 1.064.647 1.87.415.328.722.722.574 1.284-.25.953.267 1.581.95 2.04.719.483.808 1.32 1.288 1.92.439.55.246 1.187.183 1.743-.191 1.702.792 3.007 1.604 4.22.945 1.41 2.375 2.497 3.618 3.7.106.102.42.081.585.003.147-.069.285-.284.313-.455.05-.296.109-.65-.005-.905-.268-.603-.523-1.284-.988-1.71-.67-.612-1.031-1.26-.81-2.115.232-.889-.338-1.49-.635-2.19-.148-.346-.568-.65-.567-.972.003-.753-.171-1.327-.751-1.852-.424-.386-1.033-.676-1.114-1.359-.08-.669-.9-1.085-.63-1.89.045-.13-.091-.399-.223-.497-.911-.678-1.192-1.582-.974-2.653.148-.723-.301-1.114-.745-1.528-.15-.138-.437-.327-.41-.424.267-.976-.725-1.593-.676-2.48.032-.583-.115-.806-.763-.992-.626-.18-1.164-.683-1.892-.553zm39.289 8.854c0 .773-.22 1.671.06 2.365.283.695 1.066 1.186 1.628 1.766.072.073.136.155.217.214.448.326.42.83.579 1.29.352 1.025.71 2.012.578 3.12-.02.174.04.397.143.542.385.548 1.02.846 1.136 1.686.067.5 1.845.437 2.412-.027.658-.538.787-1.45.286-2.082-.305-.385-.715-.719-.903-1.153-.15-.342.048-.82-.05-1.202-.116-.446-.456-.834-.578-1.28-.42-1.544-.636-2.083-1.271-2.832-.25-.294-.631-.49-.58-.983.098-.93-.334-1.505-1.241-1.73-.625-.155-1.05-.564-1.178-1.175-.1-.47.066-.96-.398-1.374-.522-.462-.155-1.145-.218-1.726-.056-.503.194-1.195-.057-1.485-.444-.51-.543-.993-.597-1.614-.04-.439-.348-.867-.587-1.27-.2-.333-.446-.646-.717-.922-.331-.335-1.555-.316-1.618.034-.155.85-.906 1.445-.778 2.467.084.665.692.954.68 1.57-.012.71-.24 1.56.068 2.094.283.491.407 1.091.797 1.508.696.741 1.432 1.444 2.187 2.2zm-161.314 20.751c.004.012.002-.086-.048-.128-.607-.517-.977-1.172-1.325-1.89-.25-.52-.784-1.172-1.268-1.243-.715-.105-1.016-.567-1.464-.93-.494-.4-.884-.87-.672-1.546.278-.885-.76-1.365-.62-2.19-.502-.503-1.015-.997-1.506-1.512-.468-.49-.483-1.228-1.061-1.71-.82-.684-1.418-1.575-2.03-2.48-.64-.95-1.08-2.116-2.086-2.814-.015-.806-.642-1.359-.873-2.079-.055-.173-.267-.29-.374-.456-.047-.072-.027-.203-.005-.299.163-.693-.184-1.16-.69-1.544-.44-.336-.562-.76-.548-1.306.02-.797-.058-1.597-.094-2.395-1.211-1.603-1.508-3.784-3.225-5.075-.393-.295-.718-.886-1.248-.573-.542.32-.378.823.048 1.236.127.124.236.326.247.5.033.506.047 1.02.003 1.523-.074.851.017 1.607.83 2.103.394.24.463.63.398 1.052-.112.732.196 1.286.565 1.91.263.442-.117 1.207.547 1.595-.015.801.64 1.171 1.065 1.7.165.204.249.527.252.798.005.42.055.762.399 1.066.532.471.963 1.068 1.532 1.481.542.395.38 1.11.849 1.491.483.394.325.946.267 1.404-.13 1.015.29 1.706 1.01 2.348.348.31.71.603.885 1.152.269.845 1 1.367 1.799 1.821 1.277.726 2.207 1.811 3.052 3.127.366.57 1.009 1.04 1.164 1.646.203.797.848 1.088 1.28 1.607.455.545.98 1.034 1.513 1.505.115.103.457.112.576.016.31-.25.558-.582.856-.91zm13.48-68.688c.17 1.093-.278 1.963.504 2.587.053.79.093 1.581.172 2.37.016.172.124.39.26.49.813.594 1.05 1.38.964 2.356-.07.806.016 1.625-.023 2.435-.034.72.72 1.073.689 1.883-.025.67.582 1.353.93 2.021.128.246.243.56.206.82-.127.887.154 1.545.866 2.095.384.297.658.734.983 1.107-.406.98.823 1.55.62 2.491-.063.291.026.612-.018.911-.082.564.115 1.026.58 1.275.708.377.507 1.251 1.06 1.712.545.453.99 1.023 1.53 1.481.194.164.539.203.812.193.105-.003.274-.29.287-.46.038-.505.013-1.014.013-1.522 0-.609.005-1.218-.005-1.827-.001-.085-.058-.19-.123-.25-.583-.544-.746-1.328-1.046-2.007-.176-.394-.42-.656-.677-.933-.861-.93-1.104-2.197-1.774-3.238-.203-.315-.184-.96.279-1.377.183-.166.357-.66.267-.758-.515-.557-.698-1.174-.585-1.903-.555-.339-.537-.999-.827-1.486-.144-.242-.345-.489-.38-.752-.146-1.086-.58-2.014-1.338-2.803-.198-.206-.513-.495-.48-.696.225-1.34-.516-2.735.49-4.07.595-.788-.331-2.118-1.292-2.14-.9-.02-1.8-.005-2.943-.005zm-31.32 53.714c.392-.567.13-1.092.238-1.567.138-.61-.613-.855-.582-1.27.08-1.073-.521-1.88-1.03-2.628-.46-.678-.907-1.188-.88-2.105.028-.952.344-1.938-.325-2.905-.588-.85-.145-1.953-.243-2.938-.01-.1.04-.242-.01-.298-.272-.3-.542-.622-.876-.836-.071-.045-.472.291-.613.518-.348.56-.64 1.154-.942 1.742-.215.418-.57.846-.57 1.27 0 .424.368.846.567 1.272.325.694.838 1.316.623 2.188-.176.717.075 1.34.573 1.902.09.101-.093.632-.278.738-.184.104-.594 0-.791-.157-.297-.235-.697-.593-.7-.9-.007-1.018-1.525-1.126-1.258-2.239-.43-.432-.855-.868-1.29-1.294-.318-.309-.694-.319-1.04-.046-.455.357-.257.6-.217 1.297.039.7.738.935.715 1.555-.023.618.572.937.719 1.546.14.59 1.04.955 1.402 1.544.49.797 1.049 1.608.949 2.66-.045.474-.071 1.108.192 1.42.449.533.387 1.294 1.02 1.744.655.464 1.2 1.098 1.729 1.712.225.262-.013.908.465.962 1.168.131 1.524 1.226 2.316 1.79.383.272.429.661.362 1.066-.125.744.148 1.342.616 1.882-.24 1.036.815.595 1.145.994.322.39.688.751 1.076 1.078.415.35.658.927 1.276 1.04.318-.497.085-1.015.17-1.497.112-.619-.353-.907-.713-1.227-.933-.83-1.223-1.025-1.084-1.61.203-.844-.662-1.149-.715-1.886-.033-.444-.621-.874-1.297-1.039-.852-.207-1.213-.947-1.083-1.865.072-.515.006-.987-.476-1.329-.546-.387-.864-.974-1.68-1.13-.942-.18-.808-1.496-1.498-2.075-.05-.042-.005-.196-.005-.297 0-.813-.014-1.627.009-2.439.005-.174.14-.344.265-.624.507.508 1.155.91 1.413 1.484.244.548.456 1.055.909 1.452.489.428.87.99 1.447 1.345zm60.693 3.641c-.251.137-.551.215-.561.32-.057.601-.262 1.338 0 1.78.296.495.393 1.124.788 1.502.694.663 1.193 1.34.987 2.348-.154.745.232 1.296.595 1.892.39.64.628 1.37.996 2.023.293.522.287 1.385 1.247 1.263.44.644 1.334.934 1.439 1.845.039.333.207.536.583.511.617-.042 1.02.504 1.124.857.219.743.566 1.478.978 2.02.393.516 1.338.595 2.01.925.26.127.479.39.647.638.347.511.846.48 1.347.435.18-.016.472-.088.504-.197.077-.252.137-.63.003-.802-.356-.458-.741-.958-1.452-.889-.064.006-.211-.14-.204-.204.09-.985-.908-1.249-1.241-1.934-.091-.185.11-.747.23-.763.98-.135 1.995-.348 2.704.71.272.405.699.72 1.098 1.018.116.087.414.041.569-.048.972-.559 1.169-1.669.43-2.499-.393-.44-.731-.844-.904-1.465-.145-.518-.841-.864-1.061-1.385-.17-.404-.29-.555-.711-.734-.685-.289-1.464-.476-1.99-1.09-.323-.38-.878-.702-.957-1.12-.142-.76-1.033-1.267-.688-2.19.053-.144-.313-.464-.512-.677-.306-.328-1.29-.508-1.65-.324-.201.104-.478 1.191-.227 1.395.648.526.49 1.504 1.23 1.955.452.276.672.71.585 1.28-.181 1.175.07 2.186 1.134 2.894.106.07.112.384.066.56-.037.14-.223.24-.343.356-.665-.767-1.711-.802-2.505-1.308-.321-.206-.772-.589-.761-.876.066-1.707-1.755-2.882-1.28-4.687.03-.114-.218-.303-.34-.456-.355-.45-.285-1.113-.852-1.486-1.104-.724-1.304-2.204-2.382-2.968-.23-.162-.475-.3-.673-.425zM66.66 601.337c0 .277-.023.483.005.682.096.678-.187 1.37.207 2.05.44.761.844 1.52 1.518 2.12.682.605 1.403 1.211 1.92 1.95.614.871 1.747.882 2.38 1.69.377.48.824.844.7 1.553-.108.61.023 1.135.556 1.604.65.57 1.447 1.092 1.304 2.214-.036.276.446.601.647.93.394.641 1.162.683 1.68 1.092.634.5 1.225 1.085 1.72 1.721.477.61 1.109.56 1.642.423.632-.16.286-.844.387-1.297.039-.175.182-.458.287-.463.273-.01.582.05.816.186.255.15.47.393.649.636.37.508.897.362 1.378.35.167-.004.397-.132.478-.273.087-.154.125-.464.03-.574-.46-.536-.99-1.01-1.453-1.543-.178-.204-.35-.507-.344-.76.023-.93-.371-1.47-1.271-1.732-.857-.249-1.307-.819-1.202-1.778.053-.482.005-.915-.353-1.384-.502-.658-.47-1.76-1.701-1.744-.123.001-.217-.473-.383-.679-.524-.649-.711-1.368-.613-2.193.052-.43-.141-.604-.613-.799-1.28-.53-2.068-1.488-1.828-3.014.047-.298.01-.609.006-.914-.013-.846-.596-1.446-1.445-1.534-.57-.059-1.24.264-1.67-.37-.173-.255-.394-.295-.417-.04-.061.676-.25 1.475.024 2.016.385.758.819 1.483 1.079 2.304.048.151.277.36.408.351.748-.048.983.595 1.41.975-.267.78.977 1.07.612 1.882l.925 2.056c.7.8 1.812 1.336 1.563 2.733-.041.231.503.79.81.816.816.071 1.182.666 1.684 1.12.3.27.56.535.525 1.007-.045.607.01 1.221-.028 1.828-.01.15-.201.35-.354.408-.168.064-.461.068-.574-.036-.671-.62-1.316-1.272-1.944-1.936-.115-.122-.185-.37-.152-.534.144-.706-.261-1.118-.713-1.545-.665-.628-1.251-1.348-1.961-1.916-.516-.41-.276-1.124-.818-1.528-.218-.163-.197-.738-.172-1.118.059-.94-.354-1.498-1.236-1.754-.18-.052-.495-.134-.498-.216-.051-.916-.98-1.249-1.257-1.926-.19-.465-.32-.912-.708-1.229-.445-.362-.696-.927-1.452-.96-.337-.014-.808-.627-.923-1.049-.117-.428-.441-.649-.577-.986-.177-.436-.056-1.009-.275-1.407-.19-.346-.516-.609-.411-1.05.185-.77-.46-1.059-.855-1.474-.24-.249-.824-.052-.976.3-.112.258-.153.55-.277.8-.523 1.06-.512 1.384.182 2.082.643.648 1.306 1.275 1.922 1.876zm117.566-16.756c.498.507.995 1.013 1.49 1.52-.22.851.477 1.462.58 2.186.092.645.196 1.156.714 1.55.43.325.615.731.574 1.293-.053.708.12 1.456-.046 2.127-.228.918.914 1.294.668 2.202-.186.681.872 1.066.613 1.885-.061.195.17.544.355.744.549.6 1.178 1.127 1.7 1.747.298.351.378.888.682 1.228.318.355.352.735.274 1.106-.163.774.516 1.265.586 1.891.11.977 1.489 1.128 1.299 2.233-.021.115.265.284.409.427.359.36.69.757 1.09 1.063.209.16.783.202.779.225-.137.78.708 1.112.803 1.843.063.486 1.028.854 1.094 1.341.113.841.768 1.128 1.149 1.68.1.145.143.37.125.551-.051.54.082.97.525 1.318.318.251.537.646.879.838.537.302.283.927.637 1.276.072.071.148.14.215.216.467.533.902.68 1.252.347.775-.735.966-.824.675-1.462-.12-.259-.5-.485-.481-.703.067-.78-.211-1.342-.8-1.822-.626-.509-1.215-1.063-1.672-1.466 0-.686.007-1.093-.001-1.499-.013-.602.187-1.37-.107-1.769-.463-.625-.521-1.496-1.238-1.95-.353-.222-.346-.707-.53-.985-.525-.802-.786-1.782-1.62-2.402-.565-.42-1.041-.97-1.516-1.499-.71-.789-.884-1.89-1.522-2.72-.358-.468-.18-.978-.162-1.452.03-.732-.263-1.274-.575-1.91-.36-.734-.838-1.488-.703-2.47.175-1.282.243-2.65-1.138-3.476.28-1.344-.77-1.952-1.51-2.73-.07-.074-.173-.132-.21-.219-.072-.173-.166-.367-.15-.543.084-.95-.076-1.773-.92-2.383-.19-.137-.281-.505-.297-.774-.041-.69-.013-1.386-.013-2.253-.708 0-1.305.047-1.891-.01-.958-.094-1.573.34-1.746 1.221-.115.59-.532.88-.9 1.14-.513.364-.843-.336-1.25-.437-.518-.13-.903-.323-1.254-.685-.05-.05-.198-.017-.298-.006-.616.071-1.68 1.322-1.825 2.122-.05.28-.097.57-.21.828-.48 1.116-.573 2.217-.15 3.088.624 1.285 1.27 2.561 2.195 3.668.009.714.69.934 1.036 1.401 1.097 1.482 2.147 2.981 2.02 4.961-.014.203.025.412-.008.61-.093.563.12 1.01.578 1.281.752.444.554 1.465 1.239 1.956.075.054-.064.623-.246.753-.167.12-.544.015-.797-.077-.174-.062-.276-.3-.441-.41-.692-.464-.856-1.284-1.315-1.892-.545-.724-1.28-1.303-1.908-1.969-.115-.12-.16-.36-.148-.539.033-.527-.226-.892-.465-1.342-.487-.919-1.041-1.883-.773-3.036.23-.998-.23-1.735-.992-2.33-.407-.317-.118-.946-.622-1.295-.22-.153-.277-.758-.188-1.1.35-1.35-.576-2.025-1.341-2.82-.483-.5-1.196.127-1.672-.413-.172-.197-.481-.298-.748-.382-.184-.058-.404-.024-.606-.009-.517.04-1.001.015-1.353-.463-.013-.02-.44.204-.61.377-.153.155-.474.22-.19.655.617.944 1.26 1.938 1.548 3.004.187.692.3 1.285.836 1.808.474.462 1.274.806 1.049 1.685-.2.787.882 1.047.648 1.893-.286 1.028.397 1.927.96 2.612.51.62.739 1.373 1.255 1.936.342.373-.05 1.393.988 1.147 1.507 1.035 2.213 2.342 2.269 4.172.015.482-.11.965.344 1.39.783.733 1.803 1.374 1.522 2.718.406.268.587.763 1.154.908.626.16 1.197.535 1.792.817-.026.946.725 1.406 1.31 1.883.953.772 1.228 2.007 2.123 2.81.328.294.442.822.666 1.236.32.587.469 1.256 1.065 1.707.562.425 1.106.931 1.497 1.51.358.532.463 1.23.759 1.813.1.2.45.4.673.385.574-.036 1.215.275 1.749-.277 0-.987-.015-2 .018-3.012.005-.122.31-.36.414-.33.539.16 1.058.385 1.583.59.304.118.346.373.46.654.176.435.546.803.88 1.155.153.162 1.315-.005 1.419-.184.229-.393.117-.73-.213-1.042-.517-.487-1.007-1.004-1.51-1.508.122-.872-.665-1.163-1.086-1.683-.437-.538-.902-1.052-1.355-1.577.468-.916-.854-1.383-.59-2.18.285-.853-.992-1.077-.64-1.887-.575-.575-1.414-1.057-1.66-1.749-.33-.925-.962-1.482-1.584-2.087-1.027-.998-2.107-1.936-1.633-3.602.17-.6-.442-.826-.624-1.266-.36-.868-.8-1.703-1.207-2.55.23-1.397-1.123-1.776-1.683-2.664-.346-.547-.63-1.19-.724-1.822-.078-.527-.317-.882-.54-1.316-.215-.42-.425-.838-.651-1.257-.213-.394-.155-1.009-.046-1.488.22-.967-.905-1.542-.646-2.502.037-.14-.135-.34-.213-.51-.6-1.323-.6-1.323.547-2.536zm-47.762-20.655c-.371.684-.101 1.401-.194 2.084-.061.454.135.756.46 1.036.309.264.556.603.874.85.454.351.569.793.505 1.324-.011.1-.002.203-.002.305 0 .916-.17 1.875.05 2.734.202.791.479 1.661 1.16 2.264.052.045.012.195.01.296-.002.496-.078.98.417 1.365.373.291.266.854.63 1.268 1.234 1.407 1.378 1.968 1.397 3.681 0 .102.016.206-.003.305-.146.785.173 1.383.798 1.802.664.445.376 1.091.402 1.664.004.093-.288.25-.464.293-.478.115-.666-.357-1-.525-.205-.102-.762.007-.778.095-.166.85-.502 1.734.326 2.478.737.664 1.12 1.547 1.323 2.5.119.56-.185 1.165.387 1.687.402.367.3 1.111.878 1.46.456.276.683.72.575 1.281-.13.667.405 1.604-.322 1.964-.768.381-1.143-.593-1.66-1.014-.313-.256-.534-.654-.877-.84-.787-.427-.726-1.357-1.247-1.956-.261-.3-.222-.963-.151-1.436.192-1.26-.395-2.262-.973-3.269-.332-.578-.472-1.248-1.055-1.714-.6-.48-.558-1.419-1.293-1.913-.663-.446-1.182-1.112-1.74-1.706-.19-.204-.47-.517-.425-.717.234-1.055-1.078-1.724-.643-2.807.392-.977-.585-1.607-.663-2.47-1.165-1.519-1.476-3.564-2.997-4.863.279-.785-.933-1.054-.633-1.892.13-.36.048-.794-.548-.83-.751-.044-.914.033-1.264.755-.083.171-.183.346-.315.478-.454.451-.36.833.042 1.276.174.19.275.53.259.793-.05.846.099 1.511.81 2.131 1.056.915 1.193 1.371 1.653 2.963.078.27.192.531.317.783.29.592.62 1.167.895 1.767.316.694.9 1.321.616 2.186.608.304.477 1.05.867 1.47.546.586 1.122 1.06 1.024 2.051-.044.452.648.888.573 1.575-.091.84.796 1.083 1.209 1.622.32.42 1.097 1.8 1.186 2.556.053.45.193.8.539.995.683.385.564 1.227 1.068 1.708.516.494.16 1.15.244 1.725.043.3.053.618-.002.913-.11.596.245.933.62 1.275-.187 1.16 1.44 1.358 1.333 2.517-.02.194.398.43.614.644.936.936 1.872 1.87 2.806 2.807.267.268 1.95 3.09 1.944 3.46-.01.64.072 1.168.637 1.584.405.297.77.675 1.073 1.078.219.291.318.678.444 1.032.267.75.818 1.302 1.25 1.937.432.634.7 1.395 1.346 1.867 1.565 1.144 1.757 3.258 3.202 4.483.05.043 0 .196.007.298.074 1.11.616 1.986 1.308 2.82.424.511.795 1.088 1.066 1.691.153.34.097.795.059 1.191-.081.855.45 1.335 1.1 1.568 1.577.564 2.16 1.874 2.534 3.284.132.5.2.94.608 1.282.607.51 1.123 1.206 1.816 1.521.875.398 1.367 1.138 2.028 1.721.609.538 1.158 1.143 1.733 1.72.072.071.138.195.218.205.295.04.598.024.894.064.499.067.697-.34.967-.608.477-.472.42-.729.004-1.259-.691-.88-1.707-1.269-2.628-1.784-.88-.492-.85-.468-1.347-1.342-.423-.742-.657-1.588-1.34-2.207-.64-.58-.712-1.617-1.527-2.104-.145-.96-.898-1.493-1.511-2.12-.63-.64-1.405-1.206-1.097-2.293-.68-.362-.471-1.28-1.061-1.698-.755-.537-.98-1.436-1.333-2.197-.228-.489.024-1.2-.608-1.577.22-.707-.672-.949-.657-1.557.015-.624-.862-.87-.638-1.57-.46-.345-.695-1.06-1.461-.892-.594.131-.971-.21-1.26-.627-.207-.303-.21-.783-.462-1.012-.434-.396-.518-.836-.455-1.349.063-.502-.37-.67-.604-.973.255-.105.579-.366.753-.289.774.346 1.47.907 2.266 1.154.553.173.757.624 1.168.875.567.345 1.138.687 1.73.983.143.072.48.024.548-.083.142-.23.319-.65.214-.789-.303-.395-.506-.772-.665-1.265-.168-.52-.946-.855-1.083-1.37-.15-.554-.484-.848-.814-1.195-.63-.664-1.306-1.285-1.928-1.956-.182-.197-.288-.492-.36-.76-.28-1.036-.808-2.167-1.37-2.795-.19-.21-.405-.462-.45-.722-.08-.477.098-.997-.413-1.365-.411-.295-.066-1.022-.653-1.25-.126-.852-.97-1.454-.803-2.425.052-.307-.245-.409-.568-.52-1.427-.497-2.004-1.788-2.417-3.06-.18-.555-.461-1.075-.59-1.58-.166-.662-.31-1.265-.635-1.89-.244-.469.098-1.21-.561-1.595.084-.134.198-.394.245-.383.563.141 1.573-.52 1.508.813-.007.145.199.37.358.445.91.432.718 1.607 1.498 2.143.744.51.642 1.654 1.514 2.12.44.235.278.72.267 1.1-.02.623.005 1.183.594 1.595.495.345.93.772 1.275 1.062v3.25c.818.817 1.664 1.565 2.365 2.43.19.234.317.69.425 1.026.326 1.013 1.08 1.625 1.772 2.317.612-.085.98.106.907.8.814.68.573 1.62.617 2.493.014.284.009.708.178.822 1.205.811 1.628 2.217 2.55 3.245.878.98 2.223 1.291 3.035 2.334.086.112.547.002.79-.105.109-.048.21-.42.14-.515-.492-.663-.697-1.373-.614-2.203.025-.248-.136-.57-.313-.77-.47-.533-1.002-1.01-1.497-1.524-.417-.432-.816-.88-1.223-1.323.243-1.155-.96-.694-1.37-1.197-.783-.96-.905-.883-1.053-2.625-.042-.492-.526-.627-.603-.972-.108-.484.02-1.018-.047-1.518-.035-.259-.25-.509-.421-.733-.242-.315-.59-.565-.765-.908-.3-.583-.396-1.29-.768-1.809-.466-.653-1.083-1.222-1.713-1.73-.552-.446-.506-1-.627-1.59-.128-.623-.508-1.224-.888-1.756-.35-.49-.872-.852-1.271-1.313-.524-.607-.127-1.358-.251-2.03-.015-.085-.131-.146-.185-.229-.518-.794-.782-1.726-1.316-2.502-.245-.357-.41-.636-.241-1.057.112-.283.956.067 1.034.653.126.942.928 1.257 1.328 1.91.44.721 1.452.695 1.788 1.343.342.662.705 1.33 1.015 2.017.273.603.392 1.35 1.066 1.69.55.277.219.958.644 1.264.382.274.362.66.379 1.07.033.795.747 1.31.914 2.058.898.563 1.024 1.437.9 2.37-.125.938.277 1.558 1.095 1.887 1.328.534 2.169 1.348 1.969 2.902-.093.72.357.8.926.805.145.002.263.33.437.396.253.097.55.146.82.12.307-.032.444-.689.057-.998-.525-.419-.294-1.114-.812-1.537-.387-.316-.341-.49.057-.997.362-.459.487-.787.07-1.28-.511-.606-1.41-.946-1.525-1.797-.084-.614-.92-.862-.643-1.574-.576-.575-1.163-1.14-1.723-1.73-.267-.283-.734-.677-.676-.91.25-.994-.914-1.537-.675-2.51.112-.46.03-.919-.345-1.384-.41-.506-.6-1.163-1.078-1.694-.5-.554-.673-1.368-1.32-1.888-.63-.508-1.24-1.08-1.715-1.729-.438-.598-.97-1.343-.954-2.012.027-1.153-.394-1.909-1.221-2.577-.316-.254-.536-.65-.878-.84-.541-.3-.254-.928-.633-1.282-1.128-1.053-1.786-2.326-1.596-3.909.105-.866-.74-1.337-.783-2.123-.803.014-1.248-.907-2.133-.775-.516.078-.737.15-.756.66-.016.506.044 1.025-.057 1.511-.031.144-.605.358-.741.264-.492-.334-.912-.779-1.34-1.2-.131-.13-.315-.34-.29-.478.25-1.34-.566-2.782.504-4.078.29-.352.294-1.138-.285-1.626-.82-.692-1.488-1.503-2.532-1.993-.95-.446-1.01-1.883-1.971-2.494-.132-.084-.28-.145-.43-.222zm81.029 32.272c.102 0 .275-.034.294.006.164.337.239.734.457 1.025.302.403.742.7 1.055 1.097.42.534 1.187.782 1.268 1.613.026.252.402.461.448.72.103.581.25 1.221.108 1.767-.218.84.622 1.17.7 1.885.057.496.717.786 1.236 1.104.905.552 1.758 1.354 2.314 2.25.358.58.975 1.233.7 2.16-.167.561.01 1.215-.043 1.821-.05.562.158.95.568 1.3.372.322.817.632.666 1.246.75.42.5 1.513 1.28 1.91.606.308.424 1.067.859 1.477.445.418.877.85 1.29 1.298.12.13.255.362.219.506-.265 1.048 1.079 1.726.626 2.802l.887 2.073c.503.504 1.072.958 1.495 1.522.7.934 1.615 1.09 2.667.953.294-.038.54-.379.447-.649-.521-1.513-1.845-2.685-1.857-4.428-.002-.228-.333-.472-.544-.677-.434-.424-.89-.826-1.237-1.144 0-1.179-.004-2.193.009-3.206 0-.073.135-.144.328-.337.196.562.995.675.848 1.417-.175.883.636 1.36.81 2.122.116.508.793.748 1.404.928.355.105.804.52.879 1.123.055.443.417.84.568 1.281.109.315.22.555.588.51.366-.044.509.161.653.45.39.781 1.2 1.036 1.742.545.452-.408.867-.858 1.324-1.315-.292-.279-.586-.555-.874-.838-.291-.284-.534-.646-.873-.847-.67-.397-.553-1.244-1.072-1.703-.464-.41-.21-.945-.243-1.422-.044-.607-.011-1.219-.011-1.829-.057-.078-.107-.164-.174-.232-.646-.649-1.305-1.285-1.937-1.947-.338-.355-.63-.754-.941-1.133.485-.922-.694-1.356-.634-2.19.039-.559.23-1.178-.356-1.682-.53-.456-.111-1.15-.237-1.723-.04-.18-.086-.413-.215-.514-1.348-1.06-1.82-2.883-3.247-3.827-.76-.502-.752-1.35-1.227-1.97-.303-.396-.157-1.144-.188-1.735-.037-.702.19-1.548-.124-2.076-.634-1.063-1.13-2.192-1.663-3.29-.283-.586-.678-.997-1.107-1.356-.936-.78-1.601-1.783-1.928-2.868-.204-.678-.314-1.278-.848-1.799-1.064-1.04-1.447-1.885-1.64-3.579-.051-.45-.323-.686-.5-1.022-.221-.415-.402-.852-.62-1.272-.251-.48.032-1.218-.156-1.763-.23-.666-1.274-.41-1.588-1.118-.265-.6-.663-1.173-.79-1.8-.137-.685-.123-1.434-.006-2.127.13-.788-.941-1.058-.65-1.89.359-1.024-.85-1.762-.597-2.795-.666-.827-.855-2.015-1.842-2.58-.694-.399-.506-1.235-1.032-1.745-.268-.26-.161-.937-.172-1.427-.022-.915-.03-1.83.002-2.746.018-.529-.252-.89-.47-1.337-.577-1.185-1.262-2.327-1.741-3.547-.563-1.433-.162-2.982-.224-4.478-.02-.437-.095-.765-.441-1.048-.315-.256-.59-.56-.868-.858-.422-.453-.955-.159-1.433-.207-.094-.01-.283.271-.313.438-.052.296-.143.727.008.892.604.653.679 1.413.577 2.207-.101.791.198 1.36.804 1.807.36.267.485.601.434 1.046-.097.86.317 1.84-.616 2.492.108.76-.136 1.492.405 2.29.493.728 1.104 1.627.822 2.697-.123.468.212.786.54.982.749.446.516 1.513 1.286 1.92 0 .914-.158 1.867.044 2.735.209.894.86 1.677 1.157 2.562.46 1.377.734 2.12 1.39 2.78.642.644 1.358 1.235 1.073 2.303 1.03.387.455 1.416.83 2.101 1.04 1.9 1.02 1.934.984 3.547-.018.766.139 1.38.774 1.822.92.641 1.263 1.501 1.086 2.608-.063.397-.01.812-.01 1.22-.963-.449-1.931-.867-2.654-1.712-.285-.333-.467-.629-.402-1.06.015-.1-.001-.204.003-.306.03-.665.018-.665-1.056-1.948-.052-.782-.872-1.257-.792-2.119.074-.806-.112-1.65.048-2.43.206-1.014-.703-1.58-.76-2.45-1.037-.673-1.141-2.058-2.141-2.784-.37-.269-.764-.574-.827-1.179-.057-.539-.726-.88-.603-1.584.08-.454.177-.986-.298-1.39-.551-.469-.3-1.143-.262-1.704.052-.793-.22-1.358-.822-1.804-.362-.268-.437-.607-.442-1.045-.01-.703-.037-1.378.589-1.866-1.034-.883-.393-2.075-.58-3.115-.05-.273-.154-.547-.283-.794-.484-.925-1.02-1.828-1.071-2.91-.864-.399-.14-1.38-.657-1.855-.738-.678-.341-1.512-.41-2.272-.07-.807-.014-1.625-.014-2.438-.86-.545-.543-1.413-.63-2.183-.03-.256-.258-.51-.443-.723-.33-.382-.695-.732-1.046-1.096-.53.53-1.06 1.008-1.52 1.548-.165.195-.108.564-.238.808-.548 1.04-.617 1.421.075 2.067.67.628.944 1.457 1.318 2.213.247.502.08 1.16-.5 1.604-.153.12-.066.57-.067.867-.006 1.321.034 2.644-.02 3.962-.023.58.184.98.613 1.274.577.396.739.938.619 1.573-.131.687.182 1.13.658 1.567.434.4.79.886 1.18 1.334-.412.981.847 1.532.63 2.495-.11.484.072 1.033-.041 1.515-.167.72.718 1.025.6 1.575-.172.815.695 1.244.61 1.883-.135 1.02.634 1.388 1.103 2.006.277.366.288.865.627 1.273.404.486-.134 1.423.68 1.838.022.5.112 1.006.05 1.495-.097.793.208 1.358.81 1.805.363.267.463.603.438 1.045-.04.71-.01 1.422-.01 2.133-.103 0-.243.043-.301-.008-.45-.39-.294-1.114-.86-1.484-.403-.264-.601-.677-.736-1.22-.126-.508-.767-.908-1.223-1.309-.41-.36-.601-.75-.556-1.307.05-.607-.071-1.235.03-1.828.178-1.042-.894-1.768-.63-2.803-.332-.37-.655-.75-1-1.11-.421-.443-1.084-.8-1.238-1.315-.22-.734-.937-1.236-.834-2.114.093-.803-.135-1.665.059-2.43.239-.94-.642-1.41-.655-2.199-.011-.68.206-1.442-.566-1.9.183-.845-.284-1.499-.655-2.17-.412-.746-.873-1.507-1.151-2.27-.294-.809-.066-1.807-.066-2.723v-1.832c0-.814.066-1.636-.023-2.44-.06-.549-.552-.93-.645-1.573-.135-.932-.771-1.772-.57-2.812.062-.32-.646-.563-.953-.346-.082.058-.134.16-.218.212-.59.371-.75.918-.641 1.566.082.493-.605.623-.533.944.073.331.588.502.547.995-.012.154.186.321.274.49.427.812.479.831-.02 1.862-.463.96-.312 1.91-.121 2.88.94.424.169 1.466.813 2.133.539.56.733 1.502 1.13 2.251.458.862.46.861-.164 1.475-.623.613-1.065.623-1.278-.136-.187-.667-.737-.917-1.057-1.4-.424-.639.096-1.515-.274-2.004-.367-.487-.503-1.035-.793-1.525-.518-.878-.527-1.003-.033-1.847.219-.374.475-.762.139-1.029-.451-.36-.31-.949-.641-1.27-.548-.53-.626-.958-.027-1.497.438-.395.314-1.043.134-1.404-.21-.42-.562-.753-.636-1.278-.017-.118-.578-.316-.761-.224-.422.214-.777.484-1.262.653-.59.206-1.127.836-.946 1.694.062.292-.12.751.03.89.797.726.527 1.651.594 2.518.067.863-.34 1.846.608 2.495-.01.811-.018 1.622-.026 2.432-1.332.766-.033 1.505.037 2.252.045.476.777.676.597 1.273-.326 1.084.608 1.795.8 2.727.055.264.39.487.403.738.049 1.016.03 2.035.01 3.052-.002.176-.13.35-.2.526-.645-.307-1.11-.713-1.022-1.53.04-.39.113-1.035-.081-1.153-1.245-.762-1.048-2.035-1.286-3.163-.035-.167-.397-.293-.394-.435.009-.564-.425-.859-.627-1.279-.2-.413-.001-1-.052-1.505-.097-.953.413-2.044-.603-2.8 0-.815.01-1.629-.002-2.443-.017-1.279.319-2.66-1.096-3.533-.156-.096-.14-.56-.111-.845.047-.483-.255-.745-.56-.989-.217-.172-.49-.3-.757-.372-.34-.09-.523.224-.525.86-.004 1.017.033 2.037-.012 3.052-.038.862.338 1.826-.58 2.523-.116.088-.023.515.176.813.415.623.68 1.341 1.028 2.011.52 1.006.923 2.115 1.63 2.971.556.674.863 1.246.83 2.125-.068 1.83.003 3.663-.031 5.495-.014.722-.016 1.397.622 1.884-.36.886.505 1.44.595 2.191.074.602.139 1.253-.014 1.822-.226.835.82 1.174.626 1.89-.266.974.322 1.738.682 2.47.316.638.662 1.184.552 1.911-.13.865.07 1.576.83 2.111.205.143.373.488.375.742.016 1.723 0 3.446-.054 5.168-.008.267-.306.304-.406.071-.248-.582-1.033-.206-1.238-.656-.197-.437-.313-.874-.641-1.274-.202-.248-.248-.95-.056-1.142 1.034-1.04.395-2.3.568-3.442.024-.163-.09-.373-.192-.523-.654-.938-.806-2.185-1.734-2.938-.436-.353-.415-.857-.646-1.266-.29-.509-1.045-.694-1.066-1.387-.01-.375-.166-.575-.485-.614-.443-.053-.757.08-.761.64-.004.592-.642.882-.723 1.544-.075.598-.91 1.118-.947 1.702-.034.541.477 1.174.87 1.67.314.391.202.774.183 1.144-.032.653.087 1.174.653 1.577.327.232.615.541.86.861.167.217.343.526.316.771-.111.988.199 1.743.976 2.367.183.146.238.52.255.794.036.608.01 1.22.01 2.001.505.47 1.344.918 1.628 1.598.325.781.196 1.767.19 2.663-.003.467.225.734.52 1.014.368.35.664.82 1.093 1.056.966.532.629 1.604 1.094 2.304.237.358.435.664.356 1.077-.257 1.347.34 2.302 1.338 3.118.47.385.875.851 1.3 1.29.333.341 1.033 2.024 1.02 2.624-.023 1.088 1.043 1.933.653 3.116-.053.16.313.458.488.69.232.311.548.588.688.936.605 1.501 1.667 2.151 3.273 1.907.285-.044.574-.058 1.016-.1 0-.936-.03-1.834.01-2.729.023-.463-.208-.726-.491-1.026-.474-.503-.903-1.047-1.351-1.574.24-1.11-.636-1.612-1.262-2.215-.252-.243-.763-.222-1.006-.469-.321-.325-.346-.849-.614-1.272-.3-.473-.404-1.114-.926-1.426-.59-.353-.515-1.03-.798-1.52-.36-.625-1.04-1.22-.88-2.063.178-.926-.223-1.543-.902-2.077-.586-.462-.232-1.126-.331-1.693-.118-.667.188-1.333-.28-2.03-.428-.64-.703-1.378-1.331-1.885-.236-.19-.441-.422-.65-.645-.276-.296-.258-.645.075-1.038.198-.232.429-.435.643-.649.567.417.808 1.024 1.13 1.63.364.688 1.158 1.133 1.662 1.766.469.59.992 1.25 1.14 1.952.153.71.36 1.613-.473 2.231-.112.083-.065.641.089.78.599.54.507 1.436 1.248 1.966.98.701 1.67 1.805 2.647 2.512.734.53.675 1.408 1.257 1.956.336.317.249.716-.098 1.03-.45.41-.517.85-.028 1.253.55.454.756 1.115 1.13 1.657.297.428.185 1.03.6 1.281.834.504.854 1.53 1.499 2.142.664.631 1.298 1.292 1.955 1.947 0 .805.005 1.618-.01 2.431-.001.074-.13.146-.21.232-.138-.082-.298-.145-.416-.253-.3-.276-.58-.572-.867-.86-.551.34-.295.885-.32 1.344-.037.696-.01 1.396-.01 1.991l2.672 2.671c.93-.21.733-1.262 1.317-1.735.504.503 1.04.98 1.502 1.52.466.541 1.075.784 1.678 1.11.6.324 1.019.978 1.536 1.468.472.45.865.998 1.432 1.342.59-.784-.137-1.705.576-2.437 1.019 1.518 2.899 2.01 3.995 3.443.308.404.737.221 1.118.245.482.032.818-.354.65-.726-.115-.259-.465-.46-.485-.707-.066-.787-.404-1.45-.673-2.169-.314-.84-1.032-1.2-1.528-1.804-.286-.348-.327-.677-.37-1.08-.072-.676.322-1.42-.26-2.025-.474-.492-.408-1.307-1.07-1.707-.221-.135-.466-.466-.46-.7.017-.645-.905-.872-.637-1.58l-1.502-1.515c-.431-.433-.874-.854-1.292-1.299-.33-.35-.388-1.75-.07-2.25.076-.115.399-.188.535-.125.538.251.84.684 1.15 1.227.528.924.52 2.407 2.11 2.46.103.003.253.298.278.472.067.477-.103.971.358 1.391.419.381.257 1.171.878 1.456.73.336.557 1.2 1.033 1.733.345.387.485.997.89 1.45.833.927 1.134 2.172 1.738 3.241-.161.68.175 1.124.647 1.57 1.035.978 2.01 2.018 3.042 3.001.187.18.512.251.786.291.287.041.515-.506.406-.975-.064-.274-.176-.537-.262-.806-.232-.723-.93-1.287-.923-2.047.007-.917-1.1-1.502-.643-2.495-.774-.57-.558-1.412-.63-2.188-.022-.258-.23-.519-.401-.74-.243-.316-.765-.604-.756-.89.023-.769-.926-1.076-.75-1.848-.79-.204-1.401-.677-1.901-1.299-.176-.22-.464-.52-.42-.723.235-1.055-1.064-1.72-.661-2.814.079-.214-.09-.562-.225-.804-1.026-1.843-1.674-3.909-3.422-5.32-.558-.452-.818-1.27-1.215-1.919.222-1.21-.164-2.169-1.18-2.876-.052-.037-.047-.187-.04-.282.066-.632-.241-1.076-.546-1.616-.303-.542-.066-1.388-.066-2.1zm-50.074 4.885c.306 0 .724-.129.895.022.759.67 1.446 1.42 2.159 2.141-.302.791.924 1.046.626 1.887-.324.91.27 1.496.889 2.065.356.327.826.727.879 1.14.078.622.915.867.658 1.57.485.29 1.012.527 1.444.881.994.816 1.337 2.127 2.22 3.037.03.7.538 1.092 1.073 1.277 1.012.351 1.548 1.033 2.02 1.96.342.67.949 1.44 1.607 1.66.859.285 1.218.987 1.849 1.434.163.116.29.283.434.427.115-.129.333-.262.327-.386-.02-.476.222-1.032-.284-1.397-.551-.398-.856-1.012-1.604-1.284-.89-.325-1.688-1.012-1.805-2.132-.63-.376-.702-1.017-.538-1.589.24-.83-.77-1.16-.624-1.886.03-.154.288-.41.31-.398.577.334 1.138.698 1.699 1.06.043.027 1.043 1.946 1.029 2.01-.165.694.364 1.053.658 1.564.464.805 1.327.818 1.965 1.233 1.527.993 1.593.907 2.259 2.698.3.805.97 1.315 1.603 1.715.43.272 1.18.05 1.785.011.053-.003.168-.356.12-.398-.318-.285-.402-.62-.49-1.034-.07-.335-.555-.563-.778-.89-.263-.388-.356-.932-.686-1.217-.244-.209-.767-.074-1.013-.464l-1.255-1.256c-.485-.319-.553-.792-.507-1.318.01-.119-.946-1.949-1-2.022-.704-.933-1.98-1.42-2.157-2.765-.862-.863-1.708-1.743-2.595-2.578-.341-.32-.397-.679-.344-1.08.155-1.18-.06-2.22-1.16-2.87-.75-.444-.518-1.508-1.286-1.912.079-.855-.47-1.317-1.152-1.503-.927-.252-1.317-.767-1.308-1.7.003-.26-.16-.547-.313-.777-.317-.476-.925-.7-.941-1.46-.01-.389-.735-.669-.562-1.274-.601-.37-.596-.95-.645-1.573-.027-.329-.376-.674-.653-.932-.668-.625-1.043-1.484-1.085-2.279-.05-.992-.342-1.683-1.047-2.34-.892-.83-1.381-2.104-1.454-3.352-.048-.812-.05-.844-.88-.814-.686.025-1.4-.194-2.174.23 0 .643-.028 1.34.014 2.032.017.268.123.608.31.771.54.467.812 1.054 1.095 1.691.265.595 1.169.832 1.047 1.701.504.503 1.029.986 1.498 1.52.174.198.32.53.29.778-.098.861.745 1.338.798 2.12.919.432.01 1.584.842 2.11.259.164.213.772.466.993.738.641 1.139 1.361.97 2.356-.126.752.098 1.371.732 1.832.337.244.562.555.492 1.016-.063.411.014.767.366 1.071.587.51 1.036 1.206 1.91 1.285.367 1.466 1.706 2.146 2.586 3.197-.233.7.687.946.62 1.568-.02.177-.103.405-.234.498-.141.1-.415.145-.56.072-.257-.129-.474-.35-.684-.558-.795-.784-1.583-1.578-2.373-2.369-1.982-.293-2.078-2.472-3.412-3.412-.075-.862-1.016-1.476-.678-2.472.137-.405-.026-.78-.394-1.05-.163-.119-.277-.3-.437-.424-.774-.594-1.231-1.353-.974-2.332.263-1.003-.688-1.576-.745-2.446-1.041-.67-1.126-2.079-2.152-2.77-.628-.426-.761-1.046-.834-1.802-.058-.606-.45-1.322-.92-1.714-.822-.682-.893-1.486-.873-2.41.008-.379.18-.81-.294-1.26-.47 0-1.078.076-1.66-.018-.868-.14-1.222.452-1.655.976.215.215.425.436.648.645.942.887 1.642 1.894 1.768 3.237.024.26.213.533.392.744.455.533.947 1.034 1.424 1.547-.238 1.121.94 1.944.625 3.105-.202.743.11 1.374.744 1.815.92.641 1.274 1.504 1.079 2.606-.034.197-.005.406 12.134 19.318-.091-.144-.158-.308-.272-.423-2.01-2.019-4.02-4.039-6.043-6.044-.852-.844-1.461-1.796-1.55-3.023l-1.037-2.013c-1.195-.827-1.668-1.954-1.405-3.386.088-.477-.275-.705-.532-1.003-.252-.292-.49-.604-.682-.937-.234-.407-.596-.852-.58-1.268.033-.79-.746-.776-1.002-1.253-.252-.467-.736-.596-1.243-.676-.102-.016-.194-.313-.23-.493-.175-.873-.79-2.35-1.293-2.818-.396-.369-.636-.75-.547-1.307.123-.755-.165-1.309-.725-1.844-1.12-1.067-1.237-1.342-1.7-3.252-.14-.572-.876-.853-.688-1.549-.347-.144-.792-.199-1.022-.45-.486-.532-1.334-.365-1.748-1.002-.052-.079-.478-.055-.551.048-.156.22-.354.638-.255.775.62.864.903 1.971 1.866 2.601.322.21.676.515.544.982-.352 1.246.97 2.165.642 3.42-.055.21.172.537.34.753.25.318.854.653.804.86-.205.838 1 1.077.698 1.88.504.503 1.047.974 1.497 1.522.292.357.462.82.655 1.25.116.255.24.537.245.81.017 1.321.035 1.32 1.232 3.156-.238.697.702.92.627 1.58-.035.318.296.377.559.53 1.406.818 1.553 1.202 2.527 2.7.467.72.58 1.716 1.469 2.148.169.75.8 1.275.94 2.057.157.871.814 2.112 1.218 2.544.602.642 1.445 1.131 1.24 2.252-.037.195.332.452.484.698.556.897 1.569 1.171 2.414 1.553.572.26.736.446.79.994.012.121.598.355.739.262.397-.26.852-.61 1-1.027.188-.529-.132-1.23-11.564-20.316zm-47.017 19.572c.525 1.17 1.089 2.301 2.208 3.01.134.084.402.026.577-.043.272-.105.246-.242.104-.427-.355-.46-.94-.693-1.081-1.379-.284-1.369-.774-1.952-1.818-2.403-.171-.073-.402-.014-.603.003-.01.001-.041.216.006.287.21.317.683.468-11.907-16.21.453.787 1.61 1.024 1.518 2.158.787.791 1.578 1.58 2.36 2.375.594.604 1.235 2.182 1.31 3.115.024.281.037.667.213.812.868.716 1.148 1.753 1.632 2.687.217.42.59.997.959 1.05 1.053.151 1.385 1.081 2.076 1.603-.11.87.677 1.158 1.103 1.673.179.215.483.65.683.4.15-.188.218-.753-.157-1.105-.195-.183-.376-.483-.39-.739-.047-.908-.018-1.819-.018-2.699-.533-.533-1.062-1.013-1.531-1.545-.441-.5-.436-1.286-1.08-1.689-.607-.38-.418-1.265-1.065-1.702-.578-.39-1.027-.976-1.52-1.49-.128-.134-.253-.309-.29-.484-.078-.38.01-.839-.173-1.145-.201-.337-.543-.583-.446-1.038.123-.58-.305-.88-.565-1.298-.184-.292-.073-.79-.04-1.19.038-.437-.198-.71-.394-1.065-.454-.82-.716-1.745-1.311-2.503-.107-.135-.09-.365-.135-.55-.102-.424.95-.538.278-1.14-.43-.383-.252-1.165-.87-1.462.232-.7-.734-.956-.613-1.565.17-.86-.374-1.294-.92-1.797l-2.15 2.302c0 .506.116 1.238-.028 1.916-.173.815.579 1.221.632 1.887.06.775-.163 1.593.597 2.21.149.121.029.584.019.888-.011.372-.588.761-.835.542-.362-.32-.915-.688-.941-1.068-.053-.75-.18-1.373-.812-1.814-.92-.64-1.267-1.5-1.081-2.605.05-.296.057-.62-.014-.907-.034-.134-.29-.273-.461-.303-1.41-.246-2.31.904-1.915 1.9.289.73.697 1.375.569 2.202-.153.99.974 1.137 1.26 1.916.408 1.104.644 1.066.528 2.502-.07.888.8 1.356.674 2.18 1.546 1.145 2.113 3.132 3.664 4.27.978.717 1.427 1.628 1.206 2.858-.173.961.247 1.651.902 2.384.608.681.71 1.83 1.943 1.866.474.515 1.144.96 1.362 1.565.184.514.507.814.786 1.203.565.786 1.755 1.11 1.729 2.33.718.718 1.442 1.431 2.149 2.16.128.131.264.323.27.491.034 1.033.81.64 1.323.682.373.031.753-.6.502-.843-.477-.46-.695-.95-.593-1.595.06-.382-.18-.505-.49-.605-1.582-.509-2.214-1.84-2.531-3.265-.374-1.673-.66-2.542-1.685-3.574-1.218-1.224-2.394-2.496-3.681-3.644-.76-.678-.772-1.822-1.698-2.364-.705-.412.086-1.39-.637-1.877-.182-.124-.25-.516-.254-.787-.005-.419-.011-.815-.407-1.054-.643-.389-.736-1.115-1.082-1.686-.136-.224-.405-.32-.097-.668.298-.336.437-.813 13.177 15.9zm31.75 6.686c-.654-.114-1.077-.564-1.195-1.145-.138-.676-.57-1.154-1.093-1.25-.698-.13-.968-.623-1.376-1.025.226-.765-.888-1.045-.634-1.883.215-.708-.064-1.338-.682-1.837-.55-.444-1.048-.963-1.505-1.502-.365-.43-.261-1.158-.87-1.46-.587-.295-1.152-.659-1.77-.86-.304-.1-.631-.164-.627-.466.014-.872-1.035-1.054-1.132-1.654-.148-.929-.83-1.323-1.352-1.88-.35-.374-.484-.804-.687-1.24-.192-.417-.422-.83-.624-1.263-.201-.432-.664-.754-1.046-1.087-.478-.417-.81-.855-.682-1.55.113-.62-.053-1.13-.583-1.589-.843-.726-1.592-1.56-2.461-2.43 0-.617-.007-1.316.003-2.015.006-.462-.143-.675-.662-.756-.737-.115-1.055-.863-1.574-1.312-.125-.109-.182-.337-.201-.517-.032-.3-.007-.607-.01-.91-.007-1.876-.008-1.876-1.22-3.753.115-1.024-.627-.805-1.192-.802-.176 0-.498.103-.506.185-.125 1.164-.446 2.387.208 3.453.304.497.344.976.24 1.41-.234.978.34 1.724.675 2.475 1.126 2.523 1.183 2.497 1.185 4.376 0 .101 0 .202 8.996 23.374-.08.018-.191.074-.217.047-.49-.505-1.227-.952-1.382-1.55-.177-.679-.626-.993-1.005-1.42-.471-.533-1-1.015-1.502-1.518.353-.81-.931-1.038-.633-1.888.31-.888-.432-1.407-.816-2.097-.493-.885-1.103-1.604-1.786-2.303-1.231-.147-1.968-1.117-2.491-1.979-.683-1.127-1.546-2.029-2.433-2.947-.145-.15-.897-1.935-1.01-2.328-.076-.27-.116-.604-.297-.783-.59-.579-1.135-1.109-.943-2.073.09-.46.105-1.13-.16-1.427-.528-.595-.425-1.525-1.241-1.967-.513-.278-.902-.813-1.298-1.275-.173-.204-.34-.526-.31-.77.116-.992-.226-1.723-.98-2.365-.352-.3-.837-.539-.89-1.15-.055-.658-.8-1.084-.637-1.893.05-.255-.397-.63-.648-.923-.402-.47-.951-.182-1.428-.21-.262-.017-.563.996-.303 1.344.52.694.692 1.575 1.367 2.2.646.596 1.48 3.138 1.683 4.175.183.935.868 1.757.613 2.805-.03.124.182.33.314.467.422.44.864.861 1.289 1.3.303.311.294.478-.013 1.04-.563 1.03-.511 1.381.075 2.092.49.594 1.364.91 1.387 1.87.003.134.252.383.375.376 1.436-.086 1.215 1.365 1.877 1.99.713.671 1.456 1.328 1.73 2.331.076.272.287.547.256.8-.103.874.456 1.424 1.089 1.568.968.22 1.08.887 1.468 1.595.828 1.515 1.425 3.25 2.979 4.255.572.37.437 1.092.867 1.473.465.415.338.917.32 1.395-.02.536.064.988.53 1.312.475.331.688 1.03 1.413 1.008.983.8 2.15 1.44 2.434 2.837.613.3.356 1.123.866 1.468.61.415.769 1.092 1.102 1.68.224.396.579.79 1.202.75.677-.043 1.439-.21 1.896.558.482-.017.99.216 1.437-.145.269-.218.14-.655-.397-1.257-.324-.36-.828-.619-.7-1.236-.641-.58-1.02-1.435-2.03-1.645-.393-.082-.767-.607-1.004-1.014-.427-.73-.552-1.605-1.16-2.278-.206-.228-.14-.79-.046-1.164.043-.174.53-.429.669-.359 1.034.53 2.222.946 2.806 2.008.404.732.625 1.632 1.15 2.25.645.758 1.06 1.608 1.414 2.481.21.517.579.983.937 1.086.507.146.943.294 1.235.71.67.953 1.624.538 2.484.533.089 0 .244-.309.25-.48.017-.484.155-1.018-.37-1.367-.56-.37-.79-1.103-1.657-1.199-.471-.053-1.04-.58-1.014-1.303-.687-.557-.408-1.493-.785-2.107-.447-.729-.814-1.515-1.411-2.196-.51-.582-.77-1.486-1.15-2.242-.13-.256-.43-.619-.636-.61-.875.038-1.122-.767-1.695-1.109-.59-.353-.291-1.116-.828-1.522-.222-.168-.192-.726-.201-1.108-.012-.508-.021-.943-.456-1.352-.702-.662-1.71-1.207-1.387-2.466-.477-.514-.871-1.3-1.452-1.48-.948-.293-1.457-.986-2.096-1.577-.597-.552-1.092-1.235-1.748-1.698-.785-.554-.691-1.642-1.49-2.148-.467-.296-.631-.752-.542-1.298.125-.763-.12-1.379-.756-1.82-.921-.642-1.28-1.506-1.078-2.608.018-.099.003-.203.002-.305-.003-.7-.094-.843-.952-1.564-.296-.248-.541-.489-.974-.609-.844-.233-1.25-.893-1.133-1.824.06-.5.063-.99-.437-1.348-.326-.234-.542-.633-.88-.838-.581-.354-.364-1.109-.85-1.492-.49-.384-.236-.936-.258-1.412-.04-.812.007-1.628-.03-2.44-.005-.132-.247-.35-.392-.36-.393-.03-.961-.128-1.156.083-.527.567-1.525.902-1.44 1.804.059.61.519 1.207.888 1.75.28.412.738.701 1.056 1.094.66.818.909 1.868 1.494 2.74.194.29.189.76.167 1.14-.056.946.485 1.742.989 2.317.665.761.922 1.475.864 2.417-.03.483-.136.998.368 1.374.583.435.8.994.91 1.772.12.85.9 1.538 1.784 1.778.566.154 1.05.594 1.095.91.1.688.46 1.136.939 1.442.818.524.956 1.463 1.449 2.174.312.45.449 1.038.904 1.447.67.605 1.386 1.214 1.09 2.29.375.34.629.696.68 1.257.027.315.577.488.555.983-.038.802.78.351 1.105.7.755.802 1.24 1.724 1.308 2.813.035.58.169 1.198-9.143-21.313.616-.022.8.555 1.148.88.175.163.08.6.247.791.533.61 1.169 1.13 1.695 1.744.436.51 1.013.838 1.254 1.614.214.69.982 1.228 1.562 1.774.534.503.869.992.854 1.801-.012.586.527 1.012 1.153 1.166.906.222 1.113.842 1.306 1.711.196.885.474 2.061 1.393 2.405.912.341 1.626.884 2.04 1.595.459.785 1.01 1.65.806 2.715-.077.403.905 1.66 1.289 1.96.992.78 1.95 1.51 2.495 2.796.439 1.04 1.075 1.99 1.223 3.146.648.377.4 1.274 1.063 1.704 1.232.8 1.794 2.393 3.405 2.828.39.105.822.424 1.253.627.43.204.732.684 1.092 1.042.43.43.843.88 1.305 1.272.117.1.49.095.574-.005.17-.206.352-.542.293-.763-.092-.35-.535-.643-.55-.973-.048-.986-1.48-1.127-1.287-2.23.02-.116-.265-.284-.41-.427-.572-.574-1.31-1.06-1.675-1.745-.388-.725-1.084-1.384-.937-2.348.096-.629-.04-1.16-.584-1.6-.15-.12-.022-.58-.022-.886.988.368 1.535 1.257 2.225 1.956.632.641 1.376 1.057 2.122 1.512.232.141.394.276.428-.018.15-1.27.48-2.576-.855-3.536-.441-.318-.27-1.143-.868-1.453.08-.86-.484-1.26-1.158-1.503-.893-.322-1.49-.969-1.87-1.76-.322-.672-.894-1.275-.658-2.179.215-.822.007-1.597-.802-2.092-.393-.24-.441-.629-.401-1.052.017-.196.06-.468-.043-.583-.474-.525-.996-1.008-1.501-1.505-1.188.336-.774-.893-1.22-1.302-.472-.432-.495-1.222-1.092-1.672-.562-.424-1.018-.988-1.52-1.49-.287-.288-.591-.562-.857-.867-.186-.215-.46-.477-.454-.712.017-.642-.904-.868-.637-1.576-.5-.504-.976-1.033-1.505-1.503-.357-.318-.368-.696-.32-1.089.092-.757-.146-1.33-.736-1.838-.691-.595-1.284-1.302-1.957-1.918-.342-.313-.453-.67-.358-1.07.227-.943-.323-1.48-.915-2.07-1.2-1.194-1.523-2.037-1.536-3.623-.004-.508.2-1.182-.048-1.485-.39-.476-.487-1.039-.785-1.522-.147-.24-.32-.489-.374-.755-.07-.343-.208-.562-.56-.539-.587.04-1.197-.153-1.898.23 0 .923.045 1.924-.012 2.92-.056.956.086 1.784.943 2.357.412.276.267.712.29 1.097.048.794-.126 1.694.195 2.353.365.748.616 1.667 1.44 2.16.125.074.143.337.196.517.18.61.566 1.056 1.187 1.162.338.058.548.154.642.465.056.182.019.407.109.563.336.575.688 1.144 1.073 1.688.443.626 1.222.942 1.339 1.9.073.597.612 1.174 1.036 1.682.519.621 1.297 1.074 1.664 1.76.344.643.88 1.227.948 2.052.026.31.52.807.822.824 1.089.06 1.413 1.04 2.114 1.551.518.38.57.935.733 1.531.239.884.529 2.08 1.439 2.393 1.538.528 2.159 1.523 2.312 2.998.938.424.118 1.495.827 2.118.649.57.095 1.536.244 2.312zm78.776-40.303c-.878-.164-1.2-1.002-1.788-1.51-.678-.586-1.424-1.2-1.82-1.967-.288-.558.156-1.476-.102-2.07-.486-1.118-.703-2.329-1.28-3.405-.044-.083-.138-.197-.212-.199-1.313-.04-1.67-1.316-2.521-1.95-1.117-.835-1.733-2.029-2.16-3.337-.036-.114-.326-.147-.771-.218.09 0 .217.036.262-.01.046-.045.047-.197.004-.257-.142-.2-.316-.452-.531-.085-.03.05.17.232.538.352 0 .712.029 1.426-.011 2.136-.025.444.093.761.435 1.05.386.327.77.678 1.072 1.082.277.372.392.868.673 1.238.416.551.458 1.188.1 1.641-.7.891-.6 1.588.168 2.328.273.262.504.528.653.948.423 1.203 1.159 2.235 2.15 3.08.536.456 1.1.948 1.43 1.545.174.31.397.682.484 1.008.342 1.286 1.595 2.225 1.395 3.7.618.407.42 1.32 1.02 1.707.809.521.876 1.268.818 2.112-.07 1.007-.133 2.015.889 2.695.194.128.336.52.306.764-.125.996.234 1.724.99 2.355.539.448 1.099.946 1.427 1.544.172.314.412.687.482 1.006.165.743.626 1.203 1.12 1.68.476.457.278.82-.082 1.271-.398.501-.355.722-.057 1.027.498.51.97 1.05 1.518 1.501.605.498.848 1.088.726 1.841-.09.557.15.942.553 1.303.529.474.979 1.041 1.525 1.493.755.626 1.159 1.355.978 2.348-.196 1.071.52 1.856.999 2.63.55.895 1.744 1.416 1.465 2.758.419.216.84.427 1.256.651.086.046.146.14.218.212.525-.573 1.29-.93 1.554-1.736.03-.092.048-.242-.003-.297-.477-.52-1.028-.984-1.441-1.548-.452-.617-.631-1.397-1.297-1.91-.638-.495-1.18-1.12-1.731-1.718-.187-.2-.418-.512-.386-.738.149-1.029-1.035-1.73-.645-2.806.059-.165.037-.44-.067-.57-.784-.977-1.152-2.178-1.706-3.269-.24-.473-.55-.812-.884-1.147-.32-.32-.414-.644-.393-1.07.029-.609.032-1.222-.004-1.83-.016-.275-.096-.583-.25-.805-.28-.405-.7-.719-.942-1.14-.28-.484-.41-1.049-.633-1.567-.186-.432-.776-.67-.607-1.275-.665-.478-.694-1.168-.605-1.883.056-.443-.086-.76-.428-1.05-.387-.327-.67-.88-1.1-1.027-.488-.165-.8-.152-.977-.81-.167-.625-.643-1.149-.573-1.9.063-.673.214-1.44-.555-1.897-.055-.679.116-1.435-.646-1.869 0-.712 0-1.424 1.205-4.327.034-.564.169-1.297-.574-1.757-.006-.81-.01-1.619-.022-2.429-.007-.467-.912-2.173-1.26-2.53-.43-.445-.948-.216-1.423-.235-.303-.013-.48.771-.377 1.316.093.487.642.672.65 1.27.015.97-.316 1.974.28 2.922.5.794.878 1.665 1.304 2.505.085.166.154.343.215.52.086.256-.274 1.027.529.403.635-.493.776-1.118-.527.206zm-185.03 15.877c-.173-.072-.408-.095-.51-.224-.45-.559-1.297-.389-1.724-1.056-.373-.583-1.138-.963-1.376-1.57-.243-.618-.021-1.407-.063-2.116-.042-.717-1.433-1.447-2.127-1.12-.144.066-.29.308-.29.471-.004.48-.178 1.014.33 1.384.98.718 1.566 1.765 2.065 2.81.458.955.784 1.952 1.592 2.705.18.168.252.523.256.794.007.42.049.767.397 1.068.46.398.84.892 1.31 1.278.595.49.857 1.065.768 1.834-.015.14.194.431.312.438.605.041 1.217.022 1.823-.013.057-.003.17-.374.137-.398-.497-.34-.503-.837-.455-1.347.06-.633-.038-1.167-.59-1.607-.15-.119-.023-.583-.023-.888.845.407 1.73.75 2.526 1.238.913.56 1.832 1.111 1.8 2.486-.012.578.5 1.203.864 1.744.278.413.653.803 1.07 1.068.578.366.279 1.156.845 1.493.248.147.447.391.706.502.143.061.41-.007.538-.116.123-.106.244-.399.183-.505-.386-.677-.76-1.345-.651-2.167-.408-.259-.552-.9-1.165-.85-.387.03-.567-.173-.6-.49-.04-.403-.004-.812-.012-1.217-.002-.13-.923-1.953-1.003-1.958-1.051-.059-1.366-1.088-2.092-1.568-.606-.4-.612-.983-.564-1.594.072-.93-.334-1.553-1.245-1.712-.586-.102-.751-.626-1.157-.89.242-.713-.66-.942-.655-1.555.005-.71-.02-1.42.022-2.128.007-.119.347-.35.428-.31.989.474 2.097.617 2.666 1.902.526 1.185.9 2.537 1.955 3.45.705.608 1.253 1.277 1.07 2.294.43.308.513.774.676 1.243.165.47.977.09 1.226.653.122.278.352.28.415-.018.316-1.49.01-3.019-.91-4.105-.46-.542-1.021-.963-.845-1.795.03-.149-.096-.378-.218-.505-.557-.589-1.044-1.362-1.736-1.677-.945-.43-1.5-.962-1.924-1.927-.426-.965-1.065-1.02-2.227-.389-.388.21-.477.047-.66-.13-.282-.272-.605-.508-.566-.99.013-.148-.158-.372-.305-.459-.61-.36-2.073.424-2.111 1.14-.037.707-.028 1.42.01 2.127.008.136.237.35.386.37.4.053.748.01.843.588.074.444.519.838.557 1.275.088 1.006.028 2.025.028 3.04zm40.914 9.771c-.792.314-1.196-.578-1.868-.604-.591-.023-.422-.512-.606-.802-.368-.578-.918-1.04-1.402-1.544-.031-.033-.154-.018-.205.017-.078.054-.173.138-.185.22-.027.198-.006.403-.01.605-.013.88.935 1.487.689 2.464-.038.151.364.468.616.621.313.193.727.236 1.016.452.4.3.687.752 1.09 1.044.612.44 1.274.813 1.93 1.184.324.183.757-.173.765-.614.008-.404.002-.807.002-1.21.606 0 1.212.021 1.816-.008.6-.028 1.456-.993 1.224-1.404-.464-.817-1-1.58-1.25-2.518-.057-.219-.723-.215-.955-.46-.588-.625-1.203-1.173-1.572-2.064-.64-1.55-1.964-2.76-2.515-4.408-.085-.257-.387-.466-.632-.636-.142-.099-.382-.133-.556-.095-.548.12-.645.748-.604 1.392.078 1.19.675 2 1.523 2.711.077.065.176.13.209.216.1.261.232.53.247.801.037.685-.142 1.422.605 1.873.007.688-.085 1.383.607 1.887.144.105.02.577.02.88zm-59.048-14.659c.713.046.449-.47.4-.592-.28-.704-.833-1.32-.62-2.173.005-.014-.327-.183-.398-.132-.242.173-.494.38-.642.631-.574.977.209 2.242 1.685 2.262 0 .511-.205 1.202.046 1.477.423.463.49 1.031.787 1.512.245.396.394.854.655 1.236.275.403.735.702.932 1.13.352.76.77 1.52.779 2.407 0 .063.332.177.504.168.172-.009.443-.109.485-.232.09-.27.127-.59.075-.87-.137-.738-.934-1.286-.62-2.176.032-.094-.2-.36-.36-.43-.844-.364-.705-1.36-1.267-1.908-.34-.33-.12-.953-.637-1.253-.497-.289-.715-.965-1.804-1.057zm240.414 12.063c3.257 6.87 2.845 6.912 2.445 6.862-.94-.116-1.485.346-1.837 1.15-.112.258-.21.537-.382.753-.243.306-.506.606-.988.56-.284-.028-.756-.04-.841.11-.462.82-1.438.162-1.865.655-.434.503-1.088.35-1.53.81-.403.415-.598.402-.994.012-.504-.497-1.292-.384-1.73-1.042-.787-1.183-2.198-1.503-3.36-2.159-.83-.468-1.765-.19-2.65-.198-.214-.002-.488.362-.637.615-.333.567-.724 1.144-.862 1.768-.13.582-.554 1.052-.884 1.114-.78.144-1.18.673-1.676 1.134-.515.48-.98 1.03-1.552 1.422-.453.31-1.057.39-1.557.643-.523.264-.934.613-1.11 1.27-.227.844-.86 1.17-1.793 1.21-.605.027-1.244.444-1.77.823-.857.62-2.003.671-2.754 1.48-.103.11-.372.082-.565.088-.385.011-.56-.997-1.115-.224-.302.42-.976.093-1.282.633-.095.167-.528.19-.808.197-1.016.021-2.033-.008-3.05.02-.273.006-.67.06-.795.241-.936 1.354-2.262.99-3.54.875-.383-.599-.73-.428-1.084.038-.043.056-.191.02-.275.06-.428.195-.885.62-1.266.557-.624-.1-1.24-.452-1.78-.815-.556-.375-.89-1.09-1.7-1.06-.481-.968-1.832-.078-2.298-1.077-.501-.018-1.002-.046-1.503-.05-.915-.008-1.923.241-2.72-.065-.943-.362-1.876-.884-2.763-1.412-.768-.458-2.03-.499-1.92-1.879l-2.443-2.427c0-.749.24-1.66-.062-2.327-.355-.779-1.172-1.35-1.806-1.997-.404-.413-.762-.37-1.254.096-.73.692-1.354 1.623-2.221 2.003-.898.395-1.343 1.153-2.057 1.66-.151.106-.358.254-.506.224-.83-.17-1.34.286-1.786.858-.601.77-1.332 1.111-2.34 1.01-.904-.093-1.826-.02-2.741-.02-.904.867-2.04.538-3.101.62-.554.042-1.033-.085-1.285-.565-.374-.709-1.233-.529-1.717-1.056-.467-.507-1.15-.189-1.73-.206-1.522-.044-3.047-.015-4.573-.015-.664.714-1.531 1.277-1.723 2.338-.87.453-.025 1.53-.825 2.13-.455.341-.815 1.196-.743 1.76.105.837-.68 1.16-.728 1.886-.025.392-.623.733-.93 1.122-.342.435-.76.578-1.307.555-.256-.01-.607.124-.764.316-.458.558-1.073.79-1.691 1.091-.59.287-.832 1.172-1.702 1.051l-1.51 1.51-1.502 1.507c-.616 0-1.282-.15-1.82.05-.415.152-.712.601-1.272.626-.234.011-.438.493-.681.52-.704.074-1.45-.098-2.123.062-.63.15-1.126.637-1.891.603-1.545-.068-1.548 0-3.564.936-.681.316-1.527.363-2.257.073-.173-.069-.276-.377-.438-.404-.877-.14-1.907.328-2.623-.266-.773-.639-1.545-.272-2.305-.347-.906-.089-1.832-.075-2.74.007-.337.031-.622.48-.973.565-1.238.297-2.363-.208-3.237-.946-.613-.517-1.3-.828-1.94-1.249-.476-.313-1.047-.393-1.522-.794-.296-.25-.977-.037-1.484-.048-1.134-.026-3.104-1.172-3.618-2.198-.207-.413.189-.994-.268-1.414-.447-.41-.87-.847-1.304-1.272-1.187.05-1.344-.907-1.69-1.7-.112-.256-.52-.355-.421-.742.3 0 .77-.123.874.02.59.814 1.414.556 4.164 2.117.817.36-.026-.485-.872-1.329-.07-.069-.141-.183-.218-.188-.297-.023-.6-.026-.891.017-.028.004.01.373-.006.571-.051.617.885.837.613 1.54.492.45.854 1.105 1.713.928.367-.075.763-.012-.34-1.539-1.897-2.032-2.546-2.133-2.567-2.493-.027-.444-.29-.697-.457-1.04-.248-.508-.661-1.01-.737-1.504-.107-.695-.964-1.056-.692-1.878.064-.197-.15-.556-.331-.75-.483-.516-1.018-.983-1.483-1.423v-2.522l-1.73-1.73c-.175-1.343-1.45-1.828-2.15-2.762-.98.143-.917-.763-1.245-1.259-.257-.39-.39-.867-.667-1.239-.3-.403-.718-.714-1.056-1.092-.188-.21-.413-.46-.45-.718-.072-.497.163-1.13-.07-1.487-.273-.424-.913-.603-1.378-.913-.161-.108-.416-.344-.384-.428.417-1.086-.864-1.748-.65-2.803.186-.919-.324-1.49-1.205-1.747-.18-.052-.461-.102-.501-.219-.278-.807-.734-1.524-1.097-2.287-.041-.086-.2-.143-.201-.217-.023-.707-.025-1.414-.031-2.12-.002-.306 0-.61 0-1.06-.37-.34-.868-.706-1.25-1.169-.418-.51-.655-1.183-1.108-1.653-.43-.445-.67-.926-.86-1.484-.035-.103-.346-.17-.518-.153-.174.017-.472.153-.478.252-.045.682-.285 1.42.124 2.034.74 1.11.996 2.515 2.129 3.39.479.368.869.85 1.35 1.331 0 .956.148 1.993-.04 2.963-.197 1.008.649 1.616.65 2.495.543.392.714.93.61 1.573l1.08 1.987 1.975 1.973c0 .466.024.97-.007 1.47-.04.63.02 1.181.603 1.587.328.23.628.531.856.86.267.381.452.822.653 1.247.16.34.21.771.455 1.016.245.245.739.231 1.003.466.68.603 1.535 1.18 1.866 1.958.344.81.693 1.227 1.52 1.52.605.212 1.17.78.994 1.65-.155.76.156 1.34.75 1.82.395.315.732.7 1.078 1.037v2.773c-.306 0-.742.131-.895-.02-.98-.977-2.47-1.033-3.447-2.095-.59-.64-1.573-.46-2.444.015-1.736.95-3.584 1.685-5.288 2.705-.402.241-.83.527-1.273.59-.698.1-1.48.194-2.115-.026-.525-.18-.934-.674-1.598-.565-.627.103-.847-.797-1.583-.63-.581.131-1.215.026-1.825.026h-1.806c-.89-.799-1.57-1.827-2.79-2.17-.178-.05-.322-.224-.5-.266-1.288-.305-1.33-.262-2.608-1.653-.498-.542-1.177-.663-1.701-1.073-.476-.373-.877-.846-1.301-1.285-.206-.212-.586-.489-.55-.667.262-1.267-.735-1.778-1.396-2.494-.593-.643-.732-1.576-1.495-2.142-.721-.537-1.492-.718-2.076-.063-.49.55-1.208.65-1.686 1.087-.46.418-1.14.256-1.521.821-.336.497-.87.854-1.268 1.315-.424.492-.88.774-1.568.663-.612-.099-.847.79-1.582.625-.581-.13-1.223.035-1.824-.04-.84-.105-1.237.947-2.203.668-.751-.216-1.616-.045-2.43-.04-.093 0-.245.01-.27.063-.445.916-1.43.417-2.12.814-1.254.72-2.698.37-4.066.19-.256-.035-.476-.426-.722-.437-.978-.046-1.133-1.483-2.228-1.272-.482-.723-1.538-1.01-1.542-2.12 0-.218-.363-.518-.622-.636-2.186-.987-3.365-3.1-5.223-4.544-.424 0-.937.044-1.44-.01-.654-.07-1.078.37-1.602.56-.784.283-1.491.99-2.476.684-.725-.225-1.27.393-1.893.545-.863.211-1.82.021-2.733.065-.55.027-.951-.13-1.31-.547-.398-.46-.898-.836-1.273-1.313-.287-.364-.402-.859-.675-1.237-.222-.306-.483-.607-.972-.59-1.118.037-2.24.037-3.357 0-.47-.017-.69.366-1.024.483-.425.15-1.137.226-1.385-.016-.541-.528-.765-.259-1.132.113-.104.104-.432-.04-.578.053-1.918 1.235-2.096 1.276-3.774 1.226-.454-.014-.707-.369-1.033-.456-1.287-.34-2.227-1.592-3.702-1.392-.39-.473-1.053-.48-1.484-.822-.838-.667-1.51-1.49-2.543-1.977-.631-.298-1.348-.904-1.32-1.85-.448-.363-.705-.969-1.484-.872-.557.07-1.24.26-1.643-.423-.886-.037-1.771-.078-2.658-.099-.07-.002-.158.124-.213.208-.65.984-1.613 1.035-2.662.965-.674-.045-1.441-.229-1.904.543l-4.251.053c-.883-.748-2.086-.944-2.96-1.686-.453-.385-.873-.703-1.473-.888-.615-.19-1.283-.57-1.664-1.07-.475-.62-1.218-.572-1.756-1.016-.481-.397-1.34-.377-1.088-1.358.034-.133-1.533-3.175-1.654-3.274-1.016-.833-1.128-1.895-.445-2.89.46-.672-.094-1.676.828-2.108.019-.602.048-1.204.058-1.806.02-1.09.122-1.048.576-2.203.325-.827 1.078-1.163 1.523-1.812.843.18 1.488-.58 2.172-.58.874-.002 1.355-.823 2.176-.715.447-.649 1.29-.943 1.509-1.819.218-.87.806-1.318 1.766-1.21.503.054 1.037-.08 1.52.028.876.196 1.499-.306 2.194-.63.427-.2.849-.566 1.273-.566.425 0 .85.362 1.274.566.424.203.882.36 1.265.622.58.397 1.148.753 1.892.6.567-.118.917.208 1.309.551.13.115.616.017.785-.144.319-.305.62-.458 1.064-.419.279.025.568.084.833-.199.764-.818 1.63-1.544 2.349-2.397.728-.865 1.739-1.193 2.68-1.66.592-.292 1.102-.79 1.883-.633.952.191 1.778-.087 2.355-.93.283-.413.782-.38 1.093-.249.812.344 1.583.686 2.507.6.807-.077 1.627-.017 2.44-.017.408 0 .835.08 1.218-.016.963-.24 1.53.811 2.502.657.892-.14 1.825-.028 2.739-.01.073.002.13.168.218.202 1.479.568 1.48.558 2.692-.09 1.15.138 1.374-1.433 2.492-1.353.655-.629 1.333-1.236 1.958-1.893.37-.39.744-.594 1.305-.564.913.05 1.83.014 2.746.014.898-.896 2.043-.53 3.103-.62.56-.047.894.381 1.314.512.807.253 1.47 1.095 2.455.718.425.745 1.484.514 1.923 1.272.27.467.73.652 1.287.565.199-.03.406.003.609-.006.599-.027 1.347.153 1.759-.14.63-.448 1.528-.508 1.933-1.249.33-.606 1.116-.294 1.5-.847.342-.493.93-.82 1.258-1.32.558-.856 1.369-.745 2.158-.707 1.146.054 1.919.035 2.664-.453.593-.388 1.477.228 1.898-.619.01-.023.304.04.409.127.815.683 2.015.661 2.738 1.504 1.216.014 2.43.03 3.645.041.306.003.617-.038.915.008.937.145 1.633-.263 1.86-1.103.235-.873.913-1.306 1.474-1.819.483-.44.31-1.1.799-1.545.272-.247.197-.93.19-1.415-.01-.669-.507-1.243-1.505-2.073-.545-.453-1.013-1-1.528-1.516v-2.386c.616-.684 1.313-1.296 1.779-2.05.186-.302.383-.65.546-.987.286-.587-.12-1.433.67-1.857-.093-.715.4-1.145.88-1.449.545-.346 1.22-.713 1.824-.69 1.02.038 1.778-.279 2.316-1.07.54-.792 1.298-1 2.108-.784.915.243 1.483-.4 2.189-.658.679-.247 1.28-1.134 1.969-.04l1.806.062h1.63c1.358.604 1.36.662 2.494.595 1.315-.078 2.506.185 3.59.927.722.492 1.493.347 2.263.181.075-.016.17-.14.178-.222.017-.197.053-.434-.034-.59-.37-.665-.95-1.262-1.133-1.967-.201-.762-.007-1.619-.057-2.43-.046-.729.926-1.072.63-1.887-.276-.757.444-1.246.583-1.885.145-.668.594-.982 1.113-1.27.987-.548.97-.553 1.355-1.32.38-.762.867-1.474 1.2-2.252.41-.955 1.078-1.48 2-1.982 1.077-.586 2.316-.907 3.239-1.776.882.003 1.504-.944 2.5-.626.714.228 1.269-.337 1.896-.538.673-.215 1.46-1.424 2.243-.103.603.016 1.329-.175 1.784.093.746.438 1.02-1.127 1.75-.247.455.55 1.454-.197 1.855.66.692.05 1.382.103 2.074.15.398.027 1.037-.103 1.154.09.526.864 1.569.196 2.129.834.389.444 1.179.253 1.467.868.339.726 1.157.694 1.724 1.023.682.397 1.345.76 1.875 1.35.135.148.412.31.396.434-.234 1.74 1.694 2.872 1.273 4.693-.143.625-.284 1.436.487 1.915-.178.772.999 1.155.656 1.822-.257.5-.448 1.062-.785 1.502-.263.344-.416.635-.4 1.068.033.813.003 1.628.012 2.442.009.821.522 1.423 1.477 1.47.58.028.916.275 1.276.64.418.422.288 1.118.846 1.494.498.335.9.812 1.273 1.16v2.55c-.587.586-1.222 1.116-1.71 1.76-.2.263-.14.775-.093 1.162.036.312.327.378.648.45.448.101.855.555 1.279.553 1.22-.007 1.644.98 2.33 1.65-.34 1.12.483 1.69 1.157 2.255.629.526.759 1.136.674 1.87-.048.42.008.796.39 1.06.264.183.33.53.89.242.734-.376 1.383-.963 2.352-.997.707-.025 1.326-.628 2.193-.6.959.028 1.782-.608 2.51-1.259.217-.193.449-.47.7-.502.789-.102 1.59-.106 2.388-.147.488-.786 1.27-.436 1.935-.475.812-.048 1.63.03 2.44-.024.65-.042.858.803 1.586.648.584-.124 1.256-.155 1.812.018.422.13.694.706 1.28.586.549.875 1.429.536 2.197.585.344.022.41-.256.556-.54.54-1.064.707-2.48 2.279-2.67.597-.982 1.918-1.01 2.553-1.942.27-.399.687-.377 1.08-.329.623.075.977-.377 1.184-.769.207-.393.176-.945.128-1.414-.012-.114-.511-.277-.766-.249-.921.098-1.504-1.085-2.497-.629-.361-.356-.724-.71-1.083-1.069-.865-.862-1.727-1.726-2.596-2.595-.91 0-1.826.031-2.738-.019-.253-.014-.513-.24-.736-.412-.298-.23-.463-.376-.166-.883.51-.875.573-1.88-.342-2.672-.23-.199-.417-.449-.653-.64-.42-.34-.691-.75-.55-1.298.355-1.35-.777-2.387-.74-3.665-.67-.392-.418-1.053-.497-1.629-.08-.582.199-.95.602-1.282-.548-.39-.655-.936-.6-1.572.043-.505.042-1.019-.002-1.524-.038-.452.157-.734.439-1.054.153-.172.213-.705.108-.78-.735-.517-.508-1.254-.535-1.934-.016-.416-.015-.856-.614-.78-.44.055-1.166-.302-1.187.48-.017.656-.848.88-.65 1.58.16.568-.352.872-.54 1.298-.166.374-.302 1.011.145 1.406.338.298.268.862.455 1.012.803.643.48 1.473.558 2.237-1.028 1.326-.487 2.873-.606 4.326-.033.405.025.817-.013 1.22-.05.542.098.956.526 1.318.464.393.87.855 1.302 1.287-.25.705.633.944.646 1.573.005.245.258.503.437.724.975 1.208.97 1.195.019 2.13-.426.416-.937.641-1.443.92-.528.291-.765.42-1.114-.086-1.15.123-2.012-.56-2.897-1.102-.407-.25-.804-.232-1.145-.153-.893.205-1.367-.73-2.175-.709-.081.002-.245-.315-.241-.482.014-.62-.487-1.022-.851-1.144-1.533-.513-2.254-1.924-3.403-2.847.195-.69-.486-1.013-.686-1.549-.293-.784-.565-1.635-1.254-2.227-.691-.595-1.013-1.46-1.097-2.276-.085-.823-.446-1.846.53-2.5.036-.685-.11-1.432.64-1.872-.296-.802.93-1.07.654-1.866.445-.302.434-.864.684-1.234.446-.662 1.115-1.175 1.69-1.75l.942-.943c1.028 0 2.143-.064 3.245.018 1.242.092 2.25-.397 3.256-1.007.234-.142.73-.293.789-.21.594.825 1.44.571 2.218.584.708.012 1.416-.015 2.124-.025.552-.884 1.437-.55 2.202-.57 1.362-.035 2.102.286 3.402 1.352.157.128.282.4.435.411.806.054 1.615.045 2.424.058.373-.668 1.23-.5 1.719-1.028.966-1.045 2.092-1.952 2.984-3.053.902-1.115 2.388-1.423 3.226-2.57.798.025 1.279-.927 2.165-.689.284.077.623-.05.909.024.868.23 1.476-.354 2.198-.605.62-.217 1.088-.889 1.883-.646.129.04.388-.112.488-.248.597-.807 1.377-1.023 2.359-.975 1.522.074 3.053.07 4.577 0 .832-.038 1.492.22 2.205.601.654.351 1.284.93 2.179.66.373-.114.849.091 1.207-.04 1.012-.376 1.594.732 2.499.64.32.406.793.5 1.233.701.417.193.958.356 1.244.633.52.504 1.06.541 1.65.477.92-.098 1.49 1.005 2.51.67.189-.063.716.431.85.764.583 1.441 1.572 2.387 2.994 3.01.494.215.967.718.817 1.47-.145.736.058 1.37.702 1.846.324.24.606.547.864.86.428.517.35 1.083.077 1.648-.546 1.13-.443 1.085-.035 2.1.347.863 1.023 1.612.88 2.717-.074.572.323 1.291.693 1.812.465.653 1.12 1.171 1.695 1.747-.121.873.708 1.134 1.077 1.693.437.663 1.084.37 1.656.437.459-.726 1.178-.62 1.884-.617.875.004 1.765.16 2.524-.573.21-.204.783-.03 1.19-.03.713 0 1.436.077 2.134-.024.652-.094 1.043.321 1.54.535.48-.777 1.26-.419 1.924-.519.784-.118 1.363.18 1.813.79.263.358.596.523 1.04.438.342.708 1.278.461 1.699 1.067.382.551 1.192.825 1.073 1.694.952.62 1.132 1.823 1.939 2.556.584.53 1.054 1.356 1.939.313.183-.215.754-.124 1.146-.129 1.119-.014 2.239-.005 3.358-.006.092 0 1.984-.926 1.976-.99-.12-1.012.597-.863 1.18-.833.634.033 1.209-.012 1.579-.619.605.174.855-.399 1.282-.59.567-.253.858.584 1.26.552 1.156-.092 2.342.388 3.492-.417.575-.402 1.484-.3 2.239.154.797.48 1.636.491 2.476-.05.813-.523 1.756-.184 2.639-.24.14-.008.344.22.436.383.566 1.003 1.529.86 2.413.802.96-.062 1.39.415 1.8 1.207.638 1.234 1.85 2.367 3.099 3.074.625.355 1.233.664 1.152 1.526.759.413.568 1.427 1.27 1.931.653.468 1.143 1.156 1.75 1.696.49.434.722.887.672 1.572-.035.482.708 1.225 1.114 1.21.767-.028 1.647.3 2.197-.577.584.115.882-.527 1.273-.576.702-.09 1.379-.058 1.876-.665.76.132.954-.649 1.46-.9.842-.419 1.61-.974 2.666-.954 3.255.061 6.51-.015 9.766.043 1.048.02 2.24-.487 3.113.572 1.045-.128 2.22.48 3.123-.57.077-.09.607.051.774.23.31.33.762.243 1.036.446.259.192.252.708.473.996.23.302.675.767.887.703 1.01-.309 1.542.918 2.51.671.498-.127.574.26.708.693.259.845.927 1.338 1.829 1.101.825-.215 1.226.51 1.882.666.686.163 1.058.688 1.2 1.491.11.608.605 1.197 1.05 1.681.446.487.809 1.095 1.667 1.153.382.026.673.747 1.096 1.001.529.32.218.973.637 1.276.628.454.372 1.11.363 1.676-.012.737.073 1.344.699 1.866.679.565 1.484 1.145 1.15 2.26.39.424.645 1.037 1.37.996.677-.038 1.44.231 1.916-.535.769.184 1.087-.857 1.852-.685.928-.834 1.897-1.007 2.927-.18.076.061.15.17.23.172.809.025 1.619.031 2.427.043.553.887 1.44.525 2.204.566.812.043 1.628.01 2.647.01.387.386.865.888 1.369 1.362.438.411.614.981.919 1.438.402.604.948 1.2 1.767 1.527.735.295 1.423.785 2.202.531.94-.306 1.492.431 2.179.687 1.654.615 1.597.675 3.19-.015.343-.149.69-.25 1.04-.444.985-.544 2.042-.958 3.07-1.422.84.634 1.809 1.018 2.772 1.415.26.108.48.336.746.407 1.356.362 2.242.694 2.8 1.326.736.83 1.639 1.481 2.658 1.681.909.18.405 1.035.945 1.303.407.203.098.411-.048.645-.145.233-.247.53-.255.803-.03 1.017-.016 2.034-.01 3.052.004.698.138 1.433-.611 1.884.062.714.063 1.41-.612 1.883-.044 1.186-1.21 1.523-1.756 2.327-.363.535-1.11.293-1.517.831-.162.214-.742.144-1.132.146-2.34.011-4.68.006-7.02.006-.595 0-1.108-.026-1.658-.47-.377-.304-1.156-.154-1.751-.123-.31.016-.472.288-.44.646.034.36-.18.544-.53.556-.687.022-1.074.893-1.891.641-.188-.058-.516.214-.73.393-.591.495-2.046 1.377-2.776 1.376-.602 0-.784.61-1.274.635-.711.037-1.424.01-2.136.01-.712 0-1.425.014-2.136-.006-.391-.01-1.015.052-1.127-.147-.511-.905-1.584-.068-2.152-.82-.326-.432-1.108-.294-1.46-.876-.268-.446-.693-.687-1.271-.6-.873.131-1.905-.353-2.601.316-.596.574-1.408-.064-1.913.604-.365.482-.911.828-1.266 1.316-.442.605-1.12.743-1.705 1.068-.58.322-1.124.822-1.741.931-.684.121-.662.457-.827.957-.127.386-.68.692-1.107.906-.91.455-1.598.997-1.928 2.058-.19.608-.757 1.194-1.634 1.02-.174-.034-.482-.003-.547.106-.771 1.282-2.005 1.22-3.216 1.087-.822-.09-1.33.276-1.8.842-.125.151-.355.41-.434.376-1.007-.422-1.587.77-2.504.634-.757-.113-1.645.356-2.232-.507-.596-.035-1.202-.013-1.785-.118-1.044-.187-2.242.524-3.136-.528l-4.49.075c-.641.854-1.174.456-1.691-.145-1.177-.104-1.987-1.097-3.126-1.297-.282-.482-.846-.43-1.243-.67-.423-.257-.811-.648-1.076-1.068-.464-.735-1.43-.574-1.956-1.259-.391-.509-.756-1.148-1.613-1.228-1.234-.116-2.453.116-3.3.85-.755.653-1.681.976-2.407 1.645-.547.504-1.283.804-1.935 1.195-1.347-.19-1.895.844-2.575 1.677.068.742-.63.965-.971 1.43-.321.436-.734.616-1.295.57-.606-.053-1.222.021-1.83-.024-.475-.035-.76.22-1.001.536-.75.98-1.725.776-2.696.521-.265-.069-.474-.364-.737-.42-.655-.14-1.375.218-1.977-.416-.466-.49-1.155-.108-1.735-.21l-1.987-1.099c-.542-.32-.433-.849-4.091-8.214-3.515-6.72-3.371-6.577-3.228-6.433l1.94 1.94c-.27 1.044.81 1.747.7 2.771-.025.233.179.593.386.73.795.526.925 1.27.808 2.115-.063.456.355.714.43 1.036.202.845.776 1.354 1.343 1.885.462.434.828.862.679 1.556-.106.496.373.662.607.965.248.321.252.318.913.305.806-.016 1.09-.338.91-1.089-.065-.269-.265-.508-.322-.778-.18-.838-.996-1.392-.922-2.378.059-.786-.798-1.09-1.255-1.592-.357-.392-.567-.747-.565-1.305.003-1.062.32-2.207-.592-3.1.29-.976-.414-1.472-.98-2.034l-.852-2.086c-.075-.274-.067-.625-.238-.809-.81-.87-1.67-1.697-2.515-2.543-.432.507-1.002.79-.93 1.545.079.804.019 1.623 3.683 9.3z" transform="translate(0 -1343) translate(-49 814)"/>
            </g>
        </g>
    </g>
</svg>
