<?xml version="1.0" encoding="utf-8"?>
<!-- Generator: Adobe Illustrator 23.0.1, SVG Export Plug-In . SVG Version: 6.00 Build 0)  -->
<svg version="1.1" id="Layer_1" xmlns="http://www.w3.org/2000/svg" xmlns:xlink="http://www.w3.org/1999/xlink" x="0px" y="0px"
	 viewBox="0 0 43 43" style="enable-background:new 0 0 43 43;" xml:space="preserve">
<style type="text/css">
	.st0{fill-rule:evenodd;clip-rule:evenodd;fill:#018101;}
</style>
<g>
	<g>
		<g>
			<path class="st0" d="M21.2,0c11.7,0,21.2,9.5,21.2,21.2s-9.5,21.2-21.2,21.2C9.5,42.4,0,32.9,0,21.2S9.5,0,21.2,0z M21.2,2.9
				c-10.1,0-18.3,8.2-18.3,18.3s8.2,18.3,18.3,18.3c10.1,0,18.3-8.2,18.3-18.3S31.2,2.9,21.2,2.9z M25.7,12.1l-0.4,2.9
				c0,0-3.1-0.9-3.1,0.9V18h3.1l-0.2,2.9h-2.8v9.8h-3.7v-9.8h-1.9V18h1.9v-2.8c0,0-0.1-3.2,3.7-3.4C24.1,11.7,25.7,12.1,25.7,12.1
				L25.7,12.1z"/>
		</g>
	</g>
</g>
</svg>
