<svg xmlns="http://www.w3.org/2000/svg" width="321" height="386" viewBox="0 0 321 386">
    <g fill="none" fill-rule="evenodd">
        <g fill-rule="nonzero">
            <g>
                <g>
                    <path fill="#000" d="M.88 52.09c-.07 1.24.79 1.91 1.6 2.7.4.4 1 .53 1.53.35 1.77-.58 3.55-1.12 5.44-1.64 2.1-.58 4.72-1.79 7-1.49 1.47.2 2.54 2.37 3.93 2.53 1.06.12 2.17-.5 3.26-.52.99-.02 1.74.52 2.7.68 1.33.22 2.83.19 4.33.42 5 .76 9.99 3.38 16.16 1.32 2.97.95-.13 3.44-1.42 5.05-1.17 1.46-2 2.52-2.95 3.62-2.15 2.49-4.74 5.49-7.12 6.51-.85.37-2.62.63-3.23.7 3.75 2.25 8.42 3.25 14.16 2.75-.84 1.18-2.22 1.31-3.39 2.02-2.46 1.5-4.06 3.83-8.22 4.28 1.58 1.55 3.96 2.17 6.21 2.9 3.42 1.11 7.17 1.58 12.34.63.18 1.21-1.34 1.81-2.19 2.58-2.2 1.97-6.04 4.12-10.21 4.6-.95.11-1.66-.25-2.41.01.79 1.55 2.62 2.16 4.17 2.86 5.3 2.41 11.45 4.32 19.62 2.06-.35 1.42-1.59 2.28-2.43 3.36-2.37 3.01-4.72 6.52-8.85 8.46 2.13 1.56 5.1 1.96 8.36 1.95h.32c-.39.93-.72 2.11-.75 3.7-.02 1.14-.32 2.11-.1 3.16.07.34.53 3.39 1 4.4 2.98 6.39 9.84 7.12 10.81 7.41 1.39.42 2.79.52 4.25.52 1.71 0 13.36-1.71 15.36-2.48 1.04-.4 2.02-.92 3.05-1.32 1.19-.46 2.42-.83 3.53-1.45.75-.42 4.17-1.27 7.6-2.05 2.03 3.18 5.17 11.57 5.86 13.19 3.11 7.32 5.59 18.31 3.58 25.95 4.11.2 5.75-2.68 7.77-4.52.09 1.25-.02 4.83-.08 5.74-.41 5.51-1.03 9.75-2.89 13.81 3.22.44 5.55-2.08 6.91-5.02.48 1.6.55 3.31.84 5.25.29 1.94.43 4.62.32 6.82-.15 2.88-.27 4.18-1.1 6.52-.36 1.03-1.05 3.03-1.36 4.18 3.09 1.6 8.26-4.18 9.09-5.59.47.7.86 5.55.25 9.83-.56 3.88-1.64 7.4-3.48 11.31-.8 1.7 4.81 2.51 6.82 2.15-.41 1.25-1.02 2.39-1.71 3.49-1.07.7-1.55 1.88-2.25 2.86-.89 1.25-1.41 2.76-2.55 3.86-.37.36-.51.94-.8 1.4-.4.62-.76 1.3-1.28 1.81-1.18 1.16-1.88 2.62-2.79 3.95-.83 1.21-1.59 2.48-2.66 3.53-.41.4-.71.9-1.08 1.34-.35.41-.76.76-1.1 1.18-.42.52-.8 1.07-1.17 1.63-.33.5-.62 1.03-.94 1.54-.96 1.54-1.94 3.07-2.9 4.6-.43.68-.84 1.38-1.26 2.07-.61 1-1.29 1.97-1.8 3.02-.46.94-1.17 1.63-1.88 2.35-.3.3-.54.67-.8 1.02-.14.19-.24.43-.42.56-1.34.98-2.09 2.45-3.13 3.69-.32.39-.58.83-.9 1.22-.72.9-1.26 1.89-1.77 2.93-.67 1.36-1.55 2.61-2.34 3.9-.56.92-1.14 1.84-1.7 2.76-.14.23-.23.5-.4.7-1.28 1.53-1.44 3.45-1.84 5.28-.18.82-.39 1.64-.58 2.45-.22.93-.25 1.86-.12 2.81.23 1.6.32 3.23.62 4.82.14.76.55 1.51.99 2.18.43.67 1.04 1.23 1.57 1.83.49.56.96 1.13 1.46 1.67.41.44.85.87 1.29 1.28.41.39.92.69 1.26 1.13.76.98 1.97 1.26 2.88 1.99.24.19.56.27.77.48.92.93 2.11 1.12 3.31 1.29.33.05.69.08.98.23 1.55.81 3.28 1.01 4.92 1.54 1.15.37 2.35.58 3.51.9.37.1.68.08 1.06-.02.81-.21 1.66-.25 2.48-.42 1.02-.22 2.03-.46 3.03-.76 2.06-.63 4.11-1.29 6.15-1.99 1.56-.53 3.06-1.19 4.52-1.99 1.73-.95 3.55-1.72 5.3-2.63 1.08-.55 2.11-1.2 3.15-1.81 2.03-1.18 4.05-2.39 6.1-3.55 1.2-.68 2.44-1.28 3.67-1.91.27-.14.58-.26.83-.34.95-.29 1.34-.4 1.95-.81.51-.35 1.15-.54 1.76-.71.94-.27 1.89-.58 2.85-.65 1.48-.12 2.8-.64 4.1-1.27.76-.37 1.5-.76 2.26-1.13.16-.08.88-.36 1.62-.6-.37 4.1-3.62 9.48-6.04 12.82-1.24 1.7-5.2 6.89-7.6 8.42-1.84 1.44-2.95 1.68-2.19 4.51.43 1.59 1.11 2.51 2.33 3.22 4.81 2.81 13.11 2.88 17.98-1.2 5.14-4.29 5.8-11.84 8.56-18.43 2.21-5.27 4.12-9.17 7.35-13.23 1-1.26 2.21-2.59 2.89-3.99.85-1.76.91-7.42 0-9.27-.88-1.79-4.88-4.02-7.44-3.63-1.83.27-3.41 1.4-5.43 1.98-4.3 1.23-8.43 1.53-11.95 1.05-.01-.01-.02-.02-.02-.03-.44-.02-.89-.04-1.34-.1-1.13-.15-2.29-.09-3.43-.17-.42-.03-.83-.16-1.45-.3 1.18-1.13 1.61-2.59 2.92-3.39.5-.3 4.59-4.54 6.63-5.66 1.71-.94 5.36-4.2 5.79-4.52 1.43-1.11 7.41-5.88 8.52-7.34.09-.12.25-.2.48-.37.25.37.47.69.67 1.02.38.64.75 1.28 1.09 1.93.98 1.92 1.99 3.83 2.9 5.78 1.31 2.81 2.54 5.65 3.8 8.49.26.58.43 1.21.68 1.8.67 1.62 1.37 3.22 2.04 4.84.19.47.32.96.5 1.43.73 1.84 1.52 3.67 2.21 5.53.44 1.17.76 2.38 1.14 3.57.58 1.79 1.11 3.6 1.77 5.37.6 1.61 1.38 3.14 2 4.74 1.55 3.99 3.01 8.01 4.21 12.12.15.52.26 1.05.41 1.57.14.48-.01.79-.47.96-.66.25-1.33.48-1.99.73-1.66.65-3.33 1.29-4.98 1.97-1.4.58-2.78 1.19-4.16 1.82-.58.26-1.15.56-1.69.89-1.12.69-2.23 1.39-3.31 2.13-1.62 1.09-3.29 2.12-4.79 3.35-1.98 1.61-4.02 3.16-5.84 4.98-2.03 2.03-4.41 3.64-6.84 5.18-2.2 1.4-4.1 3.16-5.94 5.01-1.69 1.69-3.56 3.21-5.34 4.8-.38.34-.76.67-1.12 1.02-2 1.99-4.24 3.64-6.77 4.9-1.57.78-3.12 1.59-4.72 2.3-1.1.49-2.28.83-3.41 1.25-.96.15-1.97.71-2.92.98-1.04.31-2.07.65-3.08 1.03-.66.25-1.29.57-1.94.84-.54.23-4 3.11-3.99 5.93.03 8.45 8.26 12.06 12.62 17.96 1.49 2.02 2.66 4.21 3.91 6.36.69 1.18 1.1 2.53 1.62 3.81.52 1.28 1 2.57 1.54 3.84.58 1.35 1.58 2.42 2.53 3.51.35.41.74.78 1.13 1.15.22.2.47.39.75.5 2.07.79 4.13 1.64 6.42 1.52.19-.01.4.05.59.12 1.87.69 3.86.57 5.78.85.45.07.95-.03 1.4-.17 1.7-.52 3.4-1.07 5.08-1.65.46-.16.89-.45 1.3-.73.74-.53 1.48-1.04 2.41-1.21.23-.04.5-.22.62-.42.7-1.12.59-2.39.58-3.63 0-.09-.08-.19-.15-.26-.86-.84-1.53-1.89-2.57-2.53-.54-.33-1.14-.57-1.75-.74-.58-.16-1.19-.23-1.8-.25-1.56-.07-2.89-.86-4.34-1.28-.77-.23-1.55-.46-2.31-.71-.67-.22-1.11-.65-1.46-1.29-.98-1.8-2-3.59-3.08-5.34-1.03-1.66-1.58-3.5-2.13-5.34-.14-.45-.26-.91-.44-1.34-.78-1.81-1.32-3.68-1.71-5.6-.08-.39-.21-.77-.35-1.29l1.77-.87c.27-.13.55-.25.81-.4 1.25-.72 2.45-1.56 3.76-2.15 1.27-.58 2.4-1.36 3.58-2.06.55-.33 1.12-.63 1.68-.93 1.71-.94 3.4-1.92 5.14-2.81 1.49-.77 3.03-1.46 4.55-2.18l6.3-2.97c.15-.07.29-.24.43-.25 1.16-.02 1.99-.76 2.87-1.33 1.61-1.06 3.32-1.93 5.06-2.72 2.67-1.21 5.35-2.38 8.02-3.57 1.38-.62 2.73-1.34 4.15-1.85 1.79-.64 3.3-1.8 5-2.58.63-.29 1.32-.48 1.94-.8.77-.39 1.52-.85 2.26-1.32 1.14-.72 2.29-1.42 3.38-2.2 1.21-.85 2.35-1.79 3.54-2.67.86-.64 1.74-1.24 2.61-1.86.14-.1.26-.21.39-.3.46-.33.9-.71 1.39-.99 1.64-.91 3.26-1.89 4.97-2.65 1.81-.81 3.43-1.91 5.11-2.92.28-.17.63-.23.94-.35.35-.13.74-.19 1.03-.4 1.46-1 3.15-1.5 4.77-2.16 1.97-.8 3.73-1.88 5.14-3.48.31-.35.54-.77.8-1.16.47-.72.71-1.56 1.23-2.29.42-.59.47-1.54.47-2.34-.01-2.49.05-4.99-.37-7.47-.2-1.2-.22-2.42-.38-3.63-.24-1.87-.55-3.73-.8-5.6-.34-2.54-.62-5.09-.99-7.62-.28-1.93-.67-3.85-.97-5.78-.1-.63-.07-1.28-.07-1.92 0-1.22-.34-2.39-.61-3.57-.14-.62-.13-1.27-.19-1.9-.02-.23-.04-.47-.09-.7-.51-2.44-1.02-4.87-1.54-7.31-.5-2.37-.98-4.76-1.53-7.12-.56-2.43-1.12-4.86-1.83-7.25-.38-1.26-.64-2.52-.88-3.81-.23-1.25-.78-2.43-1.15-3.65-.47-1.58-.88-3.18-1.35-4.76-.33-1.1-.64-2.18-.59-3.36.02-.54-.34-1.08-.47-1.64-.35-1.48-.67-2.96-1-4.44-.01-.06 0-.12.02-.19-.49-1.14-.97-2.28-1.46-3.41.16.02.26.02.26.02 2.93.59 5.54 2.11 7.83 3.76 2.31 1.66 4.5 3.76 6.34 6.04 3.86 4.77 6.24 11.12 7.85 18.96 1.07 5.23 1.85 9.79 3.91 14.03 1.38 2.84 2.85 5.66 4.71 7.41 1.76 1.66 5.01 3.15 7.38 4.39 7.18 3.76 15.98 6.79 27.37 4.16-.93-1.51-2.77-1.42-4.2-1.93-3.04-1.08-5.49-2.12-8.38-3.67-2.66-1.43-3.89-2.65-5.68-5.4-1.36-2.08-3.2-5.03-3.49-9.09-.09-1.3.23-2.89-.54-4.55 1.6.35 2.96 1.5 4.44 2.26 4.3 2.2 9.27 4.27 15.73 3.24 2.73-.44 5.82-1.42 8.06-2.96 1.01-.69 1.84-1.86 2.7-2.84 2.34-2.67 4.94-6.07 5.43-10.14-2.37.71-6.08 2.79-9.9 3.06-1.83.13-5-.63-6.52-1.37-1.21-.59-2.7-1.82-3.98-2.89-1.29-1.08-2.67-2.28-3.53-3.52-2.06-2.98-3.35-6.48-5.2-9.37 6.34 1.06 12.14-1.78 14.85-5.71.78-1.13 1.18-3.17 2.28-5.14.44-.78.73-1.64.98-2.5 1.24-4.31 1.99-8.91.41-14.65-.55-1.99-1.86-3.75-2.76-5.68-.99 3.82-1.13 8.27-4.2 10.87-3.17 2.68-9.19 3.04-13.5 1.41-.69-.26-1.93-.79-2.43-1.28-1.11-1.09-1.2-2.81-1.8-5.46-.24-1.05-.44-1.79-.64-2.71-.12-.52-.33-1.26-.44-1.76-.83-3.58-2.6-7.08-4.26-10.45-2.18-4.42-4.79-7.38-8.09-10.02-4.02-3.22-10.51-4.95-16.68-4.57-1.64.1-3.36.43-4.85.96-8.19 2.91-12.43 9.1-19.04 14.35-2.57-.73-3.41-3.83-4.56-6.51 2.52-.21 6.26-.86 8.15-2.41-.48-1.37-2.03-1.18-3.06-1.74-1.94-1.06-4.23-3.21-5.84-5.19-1.61-1.99-2.8-4.51-4.01-7.71 1.26-.27 2.76.73 4.75.73 3.18-.01 6.94-1.2 9.65-2.28-.2-.59-.87-.95-1.32-1.27-1.36-.99-2.93-2.05-4.4-3.19-5.57-4.32-10.11-10.12-13.43-17.89 2.37-.19 4.3 1.47 6.64 2.09 5.48 1.46 11.64 1.55 19.15.28-1.64-.86-3.13-1.69-4.86-2.56-4.94-2.5-8.59-7.64-12.02-12.55 1.97-.29 3.84.83 5.8 1.49 1.93.64 4.05 1.08 6.32 1.22 4.52.27 9.4.42 14.4-.44-8.35-3.19-15.11-8.58-20.37-16.04 1.64-.41 2.86.63 4.42.96 5.24 1.12 11.49-.51 17.09-2.17-3.8-1.5-7.11-3.31-10.05-6-2.86-2.63-5.59-5.57-7.77-9.15 1.48-.34 2.86.57 4.57.75 5.02.55 11.57-.88 16.85-2.5-1.19-.82-2.46-1.37-3.66-2.01-1.19-.64-2.4-1.19-3.48-2.04-4.21-3.32-7.8-7.76-11.84-11.46-1.99-1.83-4.24-3.26-6.35-4.92 4.2-.34 9.35-.08 14.1-1.14 4.17-.93 7.87-2.92 11.44-3.87-6.32-1.51-11.39-3.97-16.21-7.43-4.74-3.39-9.32-7.02-15.6-8.27 1.6-1.12 3.76-.5 6.03-.59 1.79-.07 3.93-.8 5.91-1.31 2.01-.52 4.12-.86 5.52-1.44.53-.22.88-.66 1.33-.95.48-.31 1.35-.23 1.33-.95-3.69-.31-6.87-1.62-9.97-3.23-2.18-1.14-4.37-2.13-6.45-3.24-4.96-2.63-9.27-5.97-15.55-6.79 7-2.13 11.49-7.43 14.6-11.97-3.22.37-7.16 1.16-10.4 1.1-1.68-.03-3.2-.59-4.78-.91-.81-.17-1.63-.16-2.47-.35-.71-.16-1.41-.61-2.16-.77-3.54-.76-7.45-.67-11.53-.2.53-1.99 2.48-2.91 3.76-4.31 2.4-2.63 3.96-5.85 4.95-9.69-4.04 1.35-6.56 2.78-11.53 3.32-6.83.74-13.53-1.84-20.05-1.25-6.86.62-12.88 2.45-16.54 5.61-.86.74-1.41 1.83-2.27 2.03-1.8.42-4.03-.92-6.16-1.43-1.31-.31-3.28-.91-4.99-1.06-2.92-.25-7.83.5-11.15 1.04-2.1.34-4.39 1.27-6.7 2.18-2.02.8-4.29 1.88-6.49 2.33-1.47.3-3.12.66-4.67.98-2.21-.16-3.66.01-4.86.9-.68.51-1.88.54-2.51.66-5.18 1-10.77.49-15.12 1.11-1.28 1.74.5 3.65 1.82 4.99 2.4 1.25 8.16.55 11.57.41-.51 1.64-5.51 6.04-7.02 8.17.24 1.6-.13 2.17 1.24 2.74.84.35 1.54.5 2.7.21 2.98-.75 4.68-2.51 5.35-3.07 1.74-1.45 2.95-3.3 3.68-4.54-.11 3.49-2.68 5.2-4.22 7.66-.28.45-.22 1.06.17 1.42 1.53 1.42 4.67 1.11 6.12.42 3.29-1.56 4.39-6.99 6.06-9.68 2.55-.06 4.89.17 6.22 1.79-1.05 2.3-2.86 4.29-3.87 7.11-.93 2.58-1.3 3.65-.1 6.32.56 1.26.54 2.21 1.85 2.3 2.49.17 3.26-2.97 4.22-4.94.91-1.87 2.11-4.39 3.62-5.21 2.32-1.27 5.31-.97 7.24-2.27.61-.41.99-1.17 1.58-1.74.58-.55 1.37-.91 1.82-1.4 1.15-1.27 1.85-2.91 2.89-3.99 1-.21 1.17.74 2.13.59-.54 6.14 4.59 8.07 8.6 9.76 5.72 2.4 11.86 3.34 17.66 6.08 7.91 3.74 14.26 7.76 20.51 12.31 4.67 7.23 6.33 20.43 6.51 30.31-2.34 1.66-5.14 2.98-8.18 4.14.62-1.02.97-2.13 1.21-3.31.35-1.68.79-3.34 1.14-5.02.2-.99.46-1.97.63-2.96.17-.96.02-1.94-.15-2.89-.09-.5-.01-.99-.14-1.49-.24-.92-.54-1.77-1.05-2.6-.62-1.01-.85-2.22-1.36-3.31-.24-.51-.54-.94-.94-1.27-.94-.76-1.36-1.81-1.71-2.89-.46-1.41-1.16-2.71-1.84-4.01-.16-.3-.43-.4-.74-.48-2.6-.69-5.19-1.4-7.78-2.08-.39-.1-.8-.14-1.2-.15-1.25-.04-2.16-.62-2.83-1.65-.64-.98-1.52-1.68-2.45-2.38-1.29-.98-2.76-1.68-4.04-2.66-1.46-1.11-3.16-1.65-4.84-2.19-.79-.25-1.62-.42-2.42-.66-.17-.05-.33-.05-.49 0-1.36.41-2.75.49-4.15.51-.36 0-.72.16-1.07.28-.66.23-1.17.07-1.63-.45-1-1.14-2.04-2.24-3.17-3.25-.25-.22-.48-.48-.72-.7-.2-.18-.42-.31-.72-.28-1.69.18-3.39.21-5.09.34-1.77.13-3.5.44-5.25.64-.77.09-1.49.33-2.19.58-.62.22-1.08.76-1.61 1.15-1.57 1.15-3.14 2.32-4.47 3.77-.09.1-.19.2-.3.27-2.3 1.46-4.36 3.24-6.46 4.95-.7.56-1.42.68-2.26.57-.9-.12-1.81-.18-2.71-.33-.51-.09-.93.02-1.34.29-.08.06-.18.1-.25.16-1.24 1.05-2.71 1.68-4.13 2.44-1.69.9-3.35 1.85-5.12 2.55-.95.37-1.75.94-2.62 1.43-1.23.69-2.6.91-3.96.23-.9-.45-1.86-.66-2.84-.51-.69.11-1.34.43-2.03.58-1.29.27-2.49.74-3.61 1.47-.58.38-1.08.86-1.67 1.23-.79.5-1.62.66-2.45.83-1.59.32-3.16.25-4.69-.53-.24-.12-.49-.21-.73-.29-.08-.02-.16-.03-.24-.05-.17-.04-.35-.06-.53-.07-.09 0-.19 0-.28.01-.17.01-.34.04-.51.08-.09.02-.19.05-.29.08-.25.09-.49.19-.73.35-.97.64-2.1 1.01-3.07 1.68-.33.23-.77.25-1.25.09-.92-.3-1.89-.45-2.84-.67-.29-.07-.61-.11-.87-.24-1.37-.69-2.66-.4-4.03.11-1.34.5-2.77.77-4.17 1.13-1.09.28-2.23.34-3.27.91-.65.36-1.5.35-2.27.31-1.26-.05-2.41.27-3.59.73-.59.23-1.24.41-1.84.66-.59.25-1.24.35-1.77.79-1.02.85-1.17 1.95-.87 3.08.33 1.27.25 2.57.56 3.84.21.88.54 1.69.99 2.45.06.1.11.2.16.3-.49-.37-.98-.82-1.45-1.2-1.46-1.17-2.9-4.84-2.56-7.54.12-.97 1.53-3.17 2.65-3.78 2.61-1.43 6.12-.49 9.85-1.95 1.02-.4 4.03-1.06 5.05-1.54 1.21-.57 3.25-1.22 3.89-1.36 1.81-.41 6.07 1.89 7.28 2.04 2.01-.89 1.35-2.81-.22-4.66-.36-.76-1.03-1.08-1.56-1.61-.47-.48-.94-1.03-1.37-1.64-1.89-2.67-1.97-5.28-4.62-6.87-3.06-1.83-7.19-2.56-12.4-.99-3.2-5.38-6.44-10.07-11.75-12.03-2.99-1.11-6.91-.2-10.1-1.73-3.41-1.62-5.57-5.47-8.28-7.73-.55-.45-1.33-.49-1.9-.06-1.52 1.15-2.15 2.75-2.02 4.55.1 1.51.88 4.04 1.77 5.28 1.16 1.62 3.93 2.21 3.46 4.27-.27 1.21-1.98 1.83-3.5 1.3-.74-2.24-1.81-3.77-3.46-5.38-.98-.96-2.12-2.06-2.96-2.31-1.37-.4-3.5-.14-4.83 1.36-.39.44-.42 1.1-.11 1.6.88 1.44 1.47 1.94 2.5 3.64.62 1.02 1.22 2.37 1.86 3.7-.94.11-1.75-.81-2.64-1.43-1.63-1.15-3.29-1.9-6-2.75-1.14-.36-2.47-.69-3.37-.8-2.28-.27-3.72.69-5.51 1.74-.78.89-1.27 2.31-.71 3.45 1.12 2.25 6.18.7 7.76 2.77-1.47 1.2-7.74 3.4-7.89 5.73m235.03 140.68c.22-.36.45-.71.7-1.05.34-.47.68-.94 1-1.41 1.53-2.21 3.38-4.21 5.37-6.11 1.19-1.14 2.43-2.25 3.7-3.31 1.52-1.27 3.58-2.81 5.62-3.3.29-.07.58-.12.88-.14 1.78-.15 3.36.52 4.65 1.62.92.79 1.7 1.8 2.29 2.9.48.88.84 1.81 1.08 2.73-.43-.09-.84-.19-1.26-.29-1.23-.31-2.39-.67-3.59-.92-.8-.16-1.61-.28-2.46-.29-.85-.01-1.75.08-2.71.31-3.66.9-6.59 3.54-9.28 5.75-1.11.91-2.1 1.9-3.04 2.88-.22.23-.45.45-.66.68-.14.15-.3.29-.45.44-.45.44-.92.87-1.31 1.32-.06.07-.12.15-.17.24-.11.17-.21.37-.31.56-.15.29-.32.56-.54.74-.15.12-.33.19-.56.2-.12-1.29.37-2.45 1.05-3.55m6.93 9.56c-.46-.16-.92-.34-1.36-.59.26-.39.65-.7 1.11-.96.78-.43 1.77-.7 2.82-.86.56-.09 1.13-.14 1.68-.18 5.37-.38 10.41 1.61 13.58 3.77 2.75 2.46 4.65 6.09 6.41 9.92-1.38-1.01-2.53-2.45-3.71-3.49-3.91-3.44-8.86-5.72-14.41-6.6-.61-.1-1.24-.17-1.88-.23-1.42-.16-2.87-.31-4.24-.78" transform="translate(-1124 -2115) translate(-18 1623) translate(1142 492)"/>
                    <path fill="#F3D072" d="M156.56 227.83c.24.58.36 1.21.55 1.81.16.5.8 3.24 1.26 4.7-1.74.32-3.38-.16-4.88-.55-1.29-2.22-1.26-4.64-1.82-7.01.16-.03.26-.06.35-.05 1.16.14 2.72.4 3.87.58.25.05.58.29.67.52M235.61 229.07c.26.7-.28 1.07-.5 1.53-.6 1.24-1.69 2.32-2.37 3.51-.51.88-4.78-.46-5.97-.92.38-.47.71-.85 1-1.26.61-.89 1.22-1.78 1.79-2.7.34-.54.71-.82 1.39-.71.79.14 1.6.16 2.4.26.77.08 1.53.19 2.26.29M214.17 263.27s4.83 1.9 6.72 2.71c-.65.55-3.07 2.7-3.07 2.7l-6.05-3.2 2.4-2.21zM225.03 267.11s2.99 1.19 4.81 1.5c.64.11 1.27.3 2.14.52-1.04.88-2.49 2.07-3.39 2.83-.31-.17-4.27-.94-6.9-2.09.56-.72 3.34-2.76 3.34-2.76M222.08 214.72c-.63-.26-1.6-.84-2.25-1.1 1.06-.76 3.53-1.43 4-1.78.09.81-.63 1.92-1.75 2.88M215.91 274.9s2.46-2.03 2.52-2.1c2.01.84 4.61 1.36 6.7 2.41-.69.65-1.94 1.54-2.55 2.1-1.34-.34-6.67-2.41-6.67-2.41M226 278.07c1.61-1.43 2.69-2 2.69-2s5.52 1.87 7.94 2.14c.32.04.62.18 1 .3-.75 1.14-1.54 2.13-2.53 2.93-.75.6-8.47-2.74-9.1-3.37M224.66 261.8c-3.44-1.06-6.69-2.16-7.67-2.9-.04-.03 2.23-2.11 3.08-2.91 2.69.48 5.22 1 8.73 1.76-.95 1.05-3.23 3.05-4.14 4.05M213.05 216.24c.57-.91.68-.96 1.72-.66 1.72.49 3.3 1.27 4.77 2.42-.7.95-1.16 2.1-2.35 2.82-1.43-.66-2.9-1.32-4.35-2.01-.73-.35-.85-.72-.49-1.46.19-.39.47-.74.7-1.11M215.97 229.73c.23-.31.44-.6.67-.88.4-.49.86-.95 1.22-1.47.78-1.12 1.01-1.24 2.33-.87.29.08 5.04 1.02 5.96 1.29-.66 1.83-1.98 2.99-3.08 4.15-2.59-.18-4.75-1.32-7.1-2.22M207.27 225.03c.18-.52.4-.95.48-1.4.09-.53.43-.8.75-1.06 2.18 1 4.3 1.96 6.41 2.93-.4.4-2.09 2.43-2.09 2.43s-3.66-1.9-4.53-2.34c-.34-.17-.68-.37-1.02-.56M234.54 250.73c-.71.89-2.55 2.8-2.77 3-2.96-.46-5.27-1.1-7.75-1.9 1.41-1.53 3.27-3.14 4.71-4.4.34-.29.73-.38 1.21-.37 1.27.03 2.54-.02 3.82-.05.9-.02 1.8-.05 2.88-.08-.51 1.56-1.24 2.72-2.1 3.8M239.02 237.37c.89-.03 1.78.02 2.87.04-.4 1.09-.66 2.03-1.07 2.89-.54 1.15-1.22 2.23-1.79 3.36-.28.55-.63.81-1.25.82-1.92.05-3.83.15-5.75.2-.31.01-.63-.11-1.08-.2.42-.65.77-1.18 1.11-1.71.67-1.05 1.38-2.07 1.97-3.15.94-1.71 1.13-1.87 3.1-2.04.63-.05 1.26-.19 1.89-.21M209.18 246.4s-2.87-1.37-3.35-2.11c.1-.18 1.15-1.2 1.24-1.34.86-1.32.81-1.38 2.21-.74.12.05.26.07.38.12.6.26 1.82.46 2.45.74-.31.56-2.93 3.33-2.93 3.33M214.11 246.76c.22-.2 2.72-2.42 2.72-2.42l3.78.87 3.78.97s-2.02 2.35-5.04 4.16c-2.14-.55-3.81-1.04-6.43-2.41.12-.14 1.07-1.06 1.19-1.17M231.02 237.66c-.22.48-.33.84-.53 1.14-.92 1.41-1.85 2.81-2.8 4.2-.49.72-.53.61-1.42.4-2.61-.62-4.99-1.59-6.11-2.07 1.01-1.19 2.14-2.84 3.09-3.96.3-.36.66-.33 1.09-.28 1.84.18 3.68.3 5.52.44.36.03.71.08 1.16.13M145.11 224.04c.34-.61.58-1.1.87-1.49.37-.04.73-.12 1.1-.18.03.64.09 1.42.08 1.75-.68.17-1.06.42-2.05-.08M144.55 226.97c1.83.05 1.3.14 2.64.38.41 2.23 1.42 6.03 1.42 6.03s-2.79-.35-4.29-.74c-.47-.12.32-5.1.23-5.67M249.42 275.2c-.5.09-.99.2-1.48.31-1.08.23-1.77.25-2.41.06 1.31-2.08 2.6-4.14 3.92-6.25.1.14.17.19.18.24.2 1.43.22 2.87.77 4.25.29.7-.18 1.24-.98 1.39M158.21 15.1c.03.07.05.15.08.22-.07.03-.13.07-.19.1.03-.12.07-.22.11-.32M151.6 243.76c-1.72-.06-3.44-.13-5.15-.24-.9-.05-1.01-.17-1.14-1.08-.18-1.34-.32-2.68-.49-4.02-.1-.76-.24-1.52-.37-2.36 1.61.27 3.1.49 4.58.78.22.04.44.37.57.61.66 1.32 1.28 2.67 1.94 4 .34.68.74 1.34 1.18 2.14-.47.08-.8.18-1.12.17M151.9 222.13c-.05-.47-.09-.95-.05-1.41.95-.5 1.88-1.03 2.85-1.48.02.05.05.1.06.16.21 1.21.61 2.96.81 4.24-1-.08-2.7.1-3.38-.42-.16-.12-.27-.92-.29-1.09M160.5 238.88c.23.59.56 1.15.82 1.73.38.85.74 1.7 1.16 2.67-.42.07-.71.13-.99.16-.8.07-1.6.14-2.41.19-.8.05-1.6.1-2.41.09-.88-.02-1.33-.41-1.32-1.27.01-.78-.21-1.44-.57-2.1-.11-.2-.17-.44-.2-.66-.08-.63-.12-1.26-.19-2.02.52.07.97.18 1.43.2 1.1.06 2.21.12 3.32.11.69-.02 1.11.25 1.36.9M245.33 255.38c.24-.4 1.2-2.23 1.5-2.74.21.68.46 2.36.65 3.15-.74-.18-1.78-.23-2.15-.41M236.67 213.64c.44 1.42.86 2.82 1.34 4.36-1.04-.05-1.9-.09-2.82-.13.03-.91 1.03-3.67 1.48-4.23M224.99 188.56c-.77.81-8 .49-11.24-.38-3.72-.99-7.52-2.03-10.21-4.38 3.45 1.33 7.25 2.18 11.14 2.9-.86-.73-1.73-1.45-2.81-1.89-1.69-.98-2.28-1.94-1.88-2.37 1.06.01 1.84 1.22 2.81 1.89.99.69 2.06 1.45 3.27 1.65-.4-.5-.8-1.01-1.37-1.28-.43-1.31-1.65-2.16-2.53-3.27-2.13-2.71-3.55-6.98-5.71-9.61-.46-.55-1.26-.79-1.26-1.63 4.68 3.53 6.72 11.68 11.31 14.39-2.87-4.25-5.2-9.24-7.74-13.96-1.65-1.1-2.68-3.06-4.33-4.15l.49-.08c1.04.36 1.6 1.29 2.48 1.94.8.59 1.88 1.01 2.62 1.75.87.88 1.77 2.3 2.58 3.59 1.8 2.86 2.7 6.32 4.44 8.97 2.19 1.73 8.4 5.42 7.94 5.92M220.19 235.84c-.38.33-2.14 2.91-3.25 3.61-.45.28-4.61-.93-6.6-2.03.87-1.03 2.25-3.07 3.29-3.87 2.12.75 4.24 1.48 6.56 2.29M201.24 199.55c-.62-.93-1.17-1.83-1.8-2.88-.38-.64-1.23-1.26-.83-2.04.94 1.31 2.3 2.47 3.44 3.79.99 1.14 1.83 2.55 2.86 3.35.13.1.25.23.39.31-.07-.09-.12-.2-.19-.3-1.83-2.7-3.32-6.06-4.82-9.09-.49-.99-1.62-2.15-1.03-3.34 2 3.87 4.15 7.75 6.43 10.99.36.51.72 1.03 1.1 1.53.46.59.96 1.14 1.56 1.55-.2-.51-.44-1-.7-1.49-1.14-2.16-2.71-4.21-3.61-6.66-.85-2.34-1.5-4.75-2.77-6.9.02-.13-.05-.32.11-.35 1.61 2.15 3.22 4.29 4.18 7.35.93 1.3 1.59 2.3 2.53 3.27-.44-3.18-1.78-5.9-2.19-8.5.65.09.96.97 1.24 1.47.33.6.73 1.36.99 2.01.98 2.46 1.26 5.53 2 8.49.03.12.05.24.08.36.74 2.8 2.29 5.31 3.04 7.53-2.38-.72-3.99-2.12-6.02-3.21-2.62-1.41-5.05-2.93-7.26-4.68-.22-.18-.46-.37-.71-.57-.91-.76-1.86-1.69-1.98-2.67 1.27.89 2.76 1.94 4.17 2.75.68.39 1.33.72 1.93.95-.3-.27-.55-.58-.79-.89-.47-.68-.86-1.4-1.35-2.13M239.32 222.15c-.51 1.05-1 2.1-1.62 3.11-.46.74-.93.84-1.61.79-1.24-.1-2.47-.2-3.7-.31-.19-.02-.37-.11-.59-.18.04-.18.06-.31.11-.43.45-1.08.91-2.16 1.36-3.25.47-1.13.68-1.3 1.89-1.22 1.44.1 2.87.26 4.4.41-.08.38-.09.76-.24 1.08M245.19 243.77l-2.55.41c-.04-.07-.09-.15-.13-.22.3-.6.61-1.19.89-1.79.29-.61.57-1.23.85-1.84l.2.03c.09.59.16 1.18.29 1.76.12.56.3 1.12.45 1.65M227.29 224.83c-.46-.11-.92-.2-1.38-.31-1.57-.38-3.04-1.01-4.48-1.81.1-.19.15-.31.22-.42.29-.45.6-.89.88-1.36.26-.45.37-1.07.75-1.36.42-.32 1.06-.35 1.61-.5.1-.03.19-.07.29-.08.26-.02.54-.08.78-.01 1.45.43 2.88.88 4.45 1.37-.69 1.41-1.31 2.72-1.97 4-.3.6-.5.64-1.15.48M164.1 224.46c0 .01 0 .02-.01.03-.75.06-2.8-.17-3.79-.08.68-.92 1.55-1.88 2.08-2.61.73.76.82 1.26 1.72 2.66M136.1 167.92c-.23-.86.18-1.4.81-1.81.94.38.09 2.35-.81 1.81M138.32 162.35c-.03.43.15 2.09-1.19 2.28-.24-.52.11-1.76.67-2.29.21-.07.36-.03.52.01M137.76 160.6c-.07-.74-.13-1.47.24-1.98.08.18.3.09.52.01.28.72.43 1.36.23 1.83-.44.27-.54-.12-.99.14M152.09 185.33c-.02-.15-.11-.53.26-.32 1.37 3.53 1.66 6.65 1.47 9.58 1.72-2.11 1.62-4.93 2.78-7.26 1.15.95.34 2.61.08 3.78-1.15 5.21-3.64 10.03-8.38 13.57-.72-.81-.23-2.07-.43-3.22-.36-2.08-1.38-4.4-2.43-6.34-.66-1.22-2.24-2.63-1.31-3.83.7 1.44 2.3 2.54 3.26 4.16.93 1.57 1.16 3.65 2.67 4.63 1.65-1.9 2.03-4.44 2.35-6.87.31-2.41.27-5.17-.32-7.88M178.64 158.97c1.01 2.5 1.22 5.2 1.78 7.69 1.2 5.33 3.2 9.49 5.73 12.63.87 1.08 2.29 1.85 2.39 3.33-.93.79-2.26.07-3.34-.02-.51-.05-1.03.15-1.48.05-1.54-.34-3.19-1.52-4.83-2.38-2.29-1.2-4.18-2.57-6-3.87-2.59-1.85-4.81-4.27-6.82-6.7-.57-.69-2.29-2.11-1.06-3.17 2.58 3.44 5.56 6.58 8.82 8.79 1.12.76 2.34 1.6 3.66 2.01-1.37-1.4-2.86-2.61-4.19-4.15-.53-.61-1.17-1.34-1.61-1.97-.95-1.35-2.41-3.22-1.71-4.92 2.38 4.24 5.87 8.27 9.11 10.6-2.06-3.15-5.04-6.71-6.55-10.82-.79-2.16-1.99-5.22-1.1-6.87 1.17 5.45 3.88 9.87 6.2 13.29.87 1.28 1.53 2.71 2.75 3.27-3.26-4.33-5.32-10.31-6.35-17.72.02-.15.12-.23.33-.24.32-.02.34.11.42.3 1.21 6.86 3.3 12.51 6.54 16.58-1.29-2.82-2.19-6.84-2.61-10.53-.2-1.78-.89-3.71-.08-5.18M160.66 132.59c2.03 4.91 2.92 11.37 5.29 15.35.74 1.25 1.77 2.27 2.39 3.46-.55.29-.91.55-2.55-.26-1.13-1-2.44-1.4-3.67-2.09-1.21-.68-2.31-1.56-3.53-2.27-2.44-1.43-5.01-2.81-7.07-4.55-2.51-2.12-5.35-4.89-6.53-8.47-.01-.2-.01-.39.27-.38 2.58 5.23 7.72 8.22 11.93 10.95.47.3.98.61 1.48.93.42.27.94 1.2 1.59.58-.55-1.24-1.35-2.43-2.09-3.67-.69-1.17-1.96-2.34-1.6-3.75 1.64 2.17 2.83 4.96 5.02 6.38-.77-1.43-1.7-3.15-2.46-4.95-.69-1.64-2.04-3.81-1.35-5.29.67 2.12 1.66 4.29 2.67 6.25.99 1.94 1.9 4.03 3.3 4.98-1.64-2.45-2.57-7.3-3.37-10.65-.21-.96-1.21-2.17.28-2.55M179.27 125.58c-1.26-1.15-3.11-2.1-3.63-3.93 2.72 1.95 5.37 3.98 7.98 6.07-1.64-3.36-3.9-5.88-6.18-8.36.79-.28 1.29.49 1.81.88 1.72 1.29 3.12 2.73 4.52 4.29-.55-2.12-1.86-3.84-2.84-5.22-.26-.36-1.25-.85-.72-1.39 2.7 1.71 4.03 5.3 5.82 8.25-.24-1.15-.27-2.14-.49-3.09-.62-2.58-3.03-5.23-2.23-6.65 2.18 3.18 4.64 7.12 4.6 12.12-.02 2.62-.69 5.41.08 7.83-.76-.08-4.75-4.18-6.9-5.58-1.65-1.07-3.43-1.92-4.78-2.74-1.28-.78-3.47-2.14-3.77-3.74.57-.34.88.38 1.27.63 3.24 2.04 7.46 3.52 10.07 5.57-.42-1.13-1.03-1.83-1.72-2.4-1.02-.85-1.96-1.69-2.89-2.54M201.7 232.35c-.46-.49 1.56-2.44 1.56-2.44s4.51 1.95 6.54 2.78c0 .08-2.47 2.7-2.95 2.96-.79-.69-4.49-2.59-5.15-3.3M187.49 106.51c-.26-.29-2.15-1.62-1.78-2.24.67-.08 1.66 1.05 2.19 1.48.21.31.12.9-.41.76M176.86 88.5c1.1-.94 2.31-1.7 3.58-2.4.26-.15 1.15-.16 1.23.03.15.37 0 .68-.26.99-.64.77-1.5 1.33-2.12 2.13-.09.12-.29.16-.42.25-.57.38-1.21.6-1.84.82-1.45.49-2.94.54-4.43.29-.01-.07-.02-.15-.04-.22.54-.25 1.09-.49 1.63-.76.85-.44 1.9-.48 2.67-1.13M194.75 137.94c.07.07.16.14.23.21-.09-.02-.19-.11-.23-.21M230.24 214.49c.76-.05 1.52-.09 2.48-.15-.41 1.19-.74 2.16-1.08 3.16-1.94-.44-3.8-.62-5.48-1.53 1.3-.49 2.54-.96 3.77-1.42.11-.05.21-.05.31-.06M141.8 106.93c2.21.27 4.28-.1 6.18-1.27 2.23-1.37 4.37-2.89 6.39-4.56.14-.11.23-.35.56-.2-.16.48-.2 1.07-.51 1.45-.84 1.01-1.71 2.01-2.78 2.77-1.2.85-2.41 1.7-3.66 2.49-1.54.97-3.12 1.27-4.9.84-1.43-.34-2.89-.54-4.4-.56.89-.79 1.95-1.1 3.12-.96" transform="translate(-1124 -2115) translate(-18 1623) translate(1142 492)"/>
                    <path fill="#F3D072" d="M203.83 129.98c3.38 3.46 5.37 9.14 8.8 12.28.51.46 1.35.65 1.56 1.42-.39 1.06-1.66.56-2.42.55-6.4-.1-13.18-2.35-16.8-6.08.06.01.11 0 .12-.1-.16-.19-.61-.13-.89-.36-.4-.34-1.57-1.91-1.13-1.82 4.1 3.02 8.29 5.91 14.21 6.41-3.84-1.45-6.5-4.54-9.63-6.98-.4-1.44-2.35-1.78-2.47-2.94 2.15 1.66 4.42 3.23 6.72 4.44.79.42 1.61.95 2.51 1.1-3.09-2.75-5.61-6.29-8.5-9.33 1.03.03 1.49.86 2.35 1.13 2.28 3.15 5.51 4.98 7.8 8.1.62.07 1.39.98 1.65.91-1.76-2.67-4.25-5.39-5.06-8.71.14.35.82-.06 1.18-.02M189.64 101.91c3.04 6.09 4.29 5.58 6.37 8.02-4.28.86-9.11-.41-10.14-.7-1.41-.39-1.54-.02-3.55-1.01s-.2-1.15-.18-1.15c.26-.03 2.97.44 3.23.44 1.64.5 3.85 1.2 5.42 1.22-.74-2.52-2.28-6.54-2.6-8.86-.08-.61.38-.79 1.45 2.04M244.91 283c-.32.43-.76.87-1.42.86-1.38-.01-2.76.03-4.13 0-.56-.01-1.11-.14-1.84-.23.19-.3.25-.43.33-.52.65-.68 1.31-1.35 1.96-2.02.61-.62 1.19-1.28 1.85-1.85.31-.26.76-.44 1.17-.5 1.53-.22 3.08-.38 4.62-.56.25-.03.5-.05.75-.07 0 .16.03.24 0 .29-1.08 1.54-2.15 3.1-3.29 4.6M251.94 285.91c-1.81 2.95-3.04 5.68-5.71 7.85-2.53-.82-4.44-.9-6.17-1.81.55-.55 1.73-1.57 2.24-2.05 1.07-1.02 2.19-1.99 3.22-3.04.52-.53 1.11-.72 1.79-.78 1.47-.11 2.95-.21 4.42-.31.06.01.11.07.21.14M238.54 299.89c-.92-.48-1.78-1.06-2.66-1.61-.67-.42-1.03-1.03-1.02-1.83 1.03-.71 1.1-.72 2.23-.46.36.08.73.13 1.09.18 1.56.21 3.11.42 4.86.66-1.15 1.22-2.2 2.24-3.47 3-.27.15-.76.2-1.03.06M241.26 227.87c.45 1.25 1.68 6.13 1.54 6.76-1.98-.02-3.86.66-5.88.44.49-1.13.91-2.15 1.38-3.15.39-.85.82-1.69 1.27-2.51.32-.62.97-1.81 1.69-1.54M245.57 269.37c-.05.19-.05.29-.1.37-1.15 1.86-2.26 3.73-3.91 5.24-.97.89-1.57.85-3.14.39-1.36-.4-4.95-1.6-6.15-2.13 1-.88 2.3-2.1 3.08-2.93.55-.58 1.14-.73 1.88-.67 2.6.22 5.18.03 7.75-.3.19-.01.37.02.59.03M234.35 285.78c.51-.4 1.92.06 3.74.36.75.12 1.97.45 2.85.47-1.12 1.16-2.49 2.89-3.63 4.06-2.37-.74-4.79-1.04-6.59-1.94.49-.31 3.24-2.65 3.63-2.95M240.73 257.89c-1.44 2.4-3.58 5.78-5.44 7.81-3.72-.73-5.33-1.14-7.68-2.01-.13-.48 2.09-1.94 2.41-2.29.91-.99 1.86-1.95 2.69-3 .52-.66 1.12-.82 1.85-.69 1.47.25 2.94.28 4.43.15.52-.05 1.05.01 1.74.03M221.01 292.69c-1.41-.22-5-1.04-5.89-1.9.74-.9 2.23-1.57 2.11-1.86.95.43 5.04.86 6.42 1.52-.99.95-2.06 2.33-2.64 2.24M219.18 280.63c-.18.7-2.45 2.28-2.69 2.49-.68-.51-3.41-3.12-3.69-4.07.84.45 5.58 1.15 6.38 1.58M224.95 293.78c.36-.1 2.38-.96 2.48-.93 2.13.79 4.74 1.36 4.76 1.44-.89.46-2.18.85-3.08 1.28-.59.28-2.86-1.42-4.16-1.79M205.96 260.77c.6.3 4.54.95 4.54.95l-2.45 1.82c0-.01-1.38-1.66-2.09-2.77M210.93 271.83c-.6-.9-1.29-1.66-1.46-2.38 1.15.36 3.25 1.18 4.54 1.58-.86.66-1.54 1.2-2.32 1.8-.27-.35-.54-.67-.76-1M223.19 281.82c2.49.82 7.69 2.52 7.69 2.52s-3.16 2.75-3.61 3.03c-.45.28-6.51-2.11-7.85-2.53 1.21-1.02 2.85-2.38 3.77-3.02M209.53 252.14c2.46.85 4.75 1.65 7.26 2.52-.96.84-2.21 2.04-2.95 2.69-1.92-.67-5.12-1.68-6.86-3.03l2.55-2.18zM198.41 204.97c1.12.03.8 1.27 1.07 2.05.44 1.27 1.14 2.83 1.24 4.25 1.35-1.1.78-3.59 2.02-4.77 1.12 4.41-1.15 7.68-1.91 11.25-.52 1.2-.84 1.53-1.31 2.25-.88-.95-.93-2.15-1.45-3.29-1.05-2.28-3.2-4.51-4.68-6.12-.56-.6-1.39-1.18-1.43-2 2.39-.47 3.83 2.19 5.4 3.59-.38-2.93-1.35-5.06-2.27-7.24.02-.15.12-.23.33-.24 1.31 2.17 2.69 4.23 3.53 7.04.46-1.78-.75-4.79-.54-6.77M107.6 279.6s.19 3.5.72 4.75c-.13.07-.2.13-.25.12-1.28-.4-2.57-.76-3.82-1.24-.33-.13-.71-.62-.74-.97-.09-1.1-.02-2.2-.01-3.31 2.76-.02 4.1.65 4.1.65M190.21 327c.55.15 1.09.36 1.64.47 1.28.25 2.57.48 3.87.66.83.11 1.39.43 1.51 1.41-1.02.75-2.13 1.4-3.35 1.89-.18.07-.4.09-.59.09-.91-.02-1.82-.03-2.72-.09-.24-.02-.59-.11-.7-.29-.87-1.35-1.48-2.78-1.34-4.59.6.15 1.14.29 1.68.45M108.76 290.49c-1.66.23-2.74-1.66-3.82-3.2.58-.03 3.24.6 3.37.79.42.6.07 1.78.45 2.41M201.46 321.63c1.44.29 2.92.35 4.28.88.27.98.54 1.91.83 2.96-.49.19-.94.48-1.4.51-1.94.14-3.89.21-5.84.31-.47.03-.78-.15-.92-.6-.21-.67-.39-1.36-.65-2.01-.4-.98-.59-1.98-.55-3.16 1.47.4 2.85.84 4.25 1.11M194.22 320.14c.2.85.48 1.69.7 2.53.22.84.42 1.68.67 2.71-1.17-.15-2.14-.35-3.07-.74-.15-.06-2.84-.82-3.17-1.04-1.07-.71-2.04-6.25-1.59-6.93.69.42 1.31.9 2.01 1.21 1.2.54 2.43.99 3.66 1.44.42.16.68.36.79.82M193.9 310.17c.67.67.5.47.26 1.41-.18.74-.47 2.13-.67 2.94-.7-.32-3.28-.99-3.23-1.6.04-.45 2.98-2.46 3.64-2.75M202.43 319.04c-.82-.18-3.42-.67-4.23-.86-.78-.18-.7-.84-.58-1.56.32-1.93.48-2.91 1.19-4.51 1.71.17 3 .68 4.42 1.17.49 1.58 1.03 3.54 1.46 5.03.1.34.05.72.07 1.16-.88-.17-1.61-.27-2.33-.43M203.42 305.93c.18.77-.45 2.68-.78 3.29-.25-.09-2.72-.93-2.89-1.03.13-.89 2.89-2.38 3.67-2.26M78.15 74.96c-.03.12-.11.29-.26.27-.6-.1-1.25.34-1.87-.25.58-.62 1.2-.63 1.87-.39.15.05.3.19.26.37M103.83 269.98L106.58 270.39 107 275.58 103.58 275.05zM73.7 66.44c.52-.26 1.08-.35 1.66-.37.42-.02.76.17 1.04.47.26.28.2.54-.13.74-.33.19-.71.1-1.06.2-1.08.3-2.3.11-3.26.95.29-.74 1.17-1.71 1.75-1.99M84.21 76.97c.74.1 1.45.26 2.11.73-.4.42-.85.44-1.29.39-.85-.11-1.68.11-2.53.09-.43-.01-.84.17-1.15.46-.37.35-.7.39-1.1.05-.29-.25-.78-.4-.7-.86.08-.48.59-.54.99-.67 1.2-.36 2.43-.35 3.67-.19M106.13 263.69l.03 2.21-1.34-.21c.43-.66.87-1.33 1.31-2M55.94 71.37c-.03-.85.88-.88.88-1.71 3.49-.77 6.02 2.43 4.47 5.16-.53-2.5-2.84-4.34-5.35-3.45M74.54 80.55c-.61-1.13-1.4-2.06-1.87-3.35-1.57-1.27-3.23-2.45-5.79-2.59-.79.34-.52 1.62-1.19 2.06-.31-.53-.65-1.02-.62-1.94.51-.64.89-1.39 1.53-1.92 2.41-.38 4.54.51 5.9 1.76.42.38 1.2 1.2 1.44 1.72.22.49.15 1.41.3 2.13.14.7.79 1.42.3 2.13M172.62 332.38c-.03-1.58.26-3.67.42-4.26 1.1.67 2.28 1.47 3.23 2.08.14.09.21.33.27.51.38 1.15.74 2.3 1.14 3.45.31.91.67 1.81 1.06 2.89-1.99-.4-4.32-1.13-6.03-1.81-.18-.94-.06-1.29-.09-2.86" transform="translate(-1124 -2115) translate(-18 1623) translate(1142 492)"/>
                    <path fill="#F3D072" d="M52.59 65.55c2.61-1.43 6.12-.49 9.85-1.95 1.02-.4 4.03-1.06 5.05-1.54 1.21-.57 3.25-1.22 3.89-1.36 1.81-.41 6.07 1.89 7.28 2.04 2.01-.89 1.35-2.81-.22-4.66 1.57 1.85 4.03 4.59 4.22 4.51.05-.02.1-.03.16-.04-.24.09-.49.19-.73.35-.97.64-2.1 1.01-3.07 1.68-.33.23-.77.25-1.25.09-.92-.3-1.89-.45-2.84-.67-.29-.07-.61-.11-.87-.24-1.37-.69-2.66-.4-4.03.11-1.34.5-2.77.77-4.17 1.13-1.09.28-2.23.34-3.27.91-.65.36-1.5.35-2.27.31-1.26-.05-2.41.27-3.59.73-.59.23-1.24.41-1.84.66-.59.25-1.23.35-1.77.79-1.02.85-1.17 1.95-.87 3.08.33 1.27.25 2.57.56 3.84.21.88.54 1.69.99 2.45.06.1.11.2.16.3-.49-.37-.98-.82-1.45-1.2-1.46-1.17-2.9-4.84-2.56-7.54.11-.98 1.53-3.17 2.64-3.78M184.38 336.81c-.47.26-.97.47-1.46.7-.44.2-.76.1-1.01-.34-.9-1.62-1.25-3.26-1.6-5.24.39.08 7.01 2.14 7.5 2.3-.31.25-2.25 1.94-3.43 2.58M154.47 258.49c-.47-.54-.9-1.03-1.33-1.53.03-.08.06-.17.09-.25l3.93-.36c-.82.84-1.38 1.98-2.69 2.14M126.47 37.78c-.01.03-.01.07-.02.1-.06.27-.11.57-.18.87-.18.76-.5 1.54-1.38 1.88-1.32-.8-1.35-1.65-.91-3.38.38-1.49.75-2.33 1.32-3.26.26-.41.55-.85.91-1.37.6-.87 1.3-1.94 1.72-2.4.03-.03.07-.09.1-.12.11-.1.23-.2.36-.3.4-.29.86-.53 1.26-.78.52-.33.94-.69.98-1.19-.52-1.09-1.31-1.8-2.19-2.39.74-.1 1.45-.18 2.26-.05 1.13.19 2.23.53 3.37.64 2.13.21 4.62.01 6.7-.58-.76.8-1.28 1.15-2.25 1.85-1.27.91-2.58 1.88-4.44 2.38-.32.08-.59.17-.85.25l.02-.02c-.87.24-2.18.93-4.4 1.2.42.37.75.64 1.06.86-.22.22-.45.45-.73.72-.15.14-.29.27-.44.4-.64.56-1.27 1.01-1.5 1.39-.56.97-.52 2.21-.77 3.3M108.14 27.33c-.01.01-.01.02-.02.02l-.01.01c-1.34 1.47-3.02 3.62-4.72 3.58-.58-.01-1.16-.28-1.73-.91.85-.69 1.6-1.42 2.28-2.15 1.53-1.65 2.72-3.38 3.88-5.09 1.31-2.43 1.65-3.03 2.12-4.2.01-.02.02-.04.03-.07.03-.08.07-.17.1-.25.13-.34.27-.71.45-1.2 1.12-1.24 2.65-1.11 3.52-.62.05.03.1.05.15.08-1.02 3.35-3.63 8.15-6.05 10.8M180.27 328.43c-.78-2.38-.01-6.03-.01-6.03.32.29 1.92 1.36 2.76 1.86.43.26.91.43 1.38.61.52.2.79.55.91 1.1.27 1.25.6 2.49.9 3.73.04.17.01.36.02.61-1.77-.29-4.54-1.17-5.96-1.88M174.08 324.35c.12-.26 2.3-1.99 2.51-2.29-.1 1.17-.21 3.27-.21 3.27s-2.34-.9-2.3-.98M184.7 320.42c-.04.03-2.76-1.16-2.76-1.23.03-.42 1.69-1.93 2.16-2.34.21.41.37.76.34 1.12-.01.15.43 2.35.26 2.45M145.13 343.19c.89.81 1.27 4.28 4.31 7.83-.45-2.03-2.05-7.13-.81-8.56.68 1.92 2.53 9.36 6.24 13.16-.63-1.95-3.31-9.75-2.62-13.95.84 1.54 1.89 3.15 3.54 5.27-.18-2.22-.34-3.44.16-5.33.33-1.24.69-2.56.91-3.22 1.17-.46 2.28-1.06 3.32-1.75 1.39-.93 2.65-2.07 3.93-3.17.25-.22.51-.44.77-.65.07-.06.15-.11.23-.17.14-.1.29-.2.47-.33.1.28.19.45.22.64.37 2.04 1.64 3.6 2.84 5.18.22.29.49.55.77.8.34.31.7.61 1.06.89.03.02.06.05.09.07.54.43 1.12.82 1.72 1.24l.57.39c-.56.52-1.11 1-1.68 1.44-.57.43-1.15.82-1.77 1.17-.34.19-.67.39-1.01.59-1.01.57-2.01 1.14-3 1.75-.31.19-.59.43-.87.67-.18.16-.36.32-.56.45-.55.37-1.12.73-1.69 1.09-.4.25-.79.51-1.19.77-.25.16-.39.29-.43.45-.04.16.01.35.14.63.15.33.31.68.38 1.03.42 2.11.71 4.25 1.63 6.23.05.1.08.2.11.31.03.1.07.2.1.3.03.12.07.24.11.36.17.53.33 1.07.5 1.61.12.4.27.79.4 1.18.16.48.31.95.5 1.42 1.11 2.64 2.31 5.25 3.9 7.64.08.13.17.26.26.38.13.2.27.4.41.59.55.77 1.17 1.5 1.99 2.01.74.46 1.54.83 2.32 1.24 1.35.73 2.74 1.3 4.33 1.15.27-.03.54-.01.81.01.13.01.27.02.4.05.5.09.98.23 1.45.4.75.27 1.46.62 2.15 1.03-.08.21-.1.3-.15.39-.05.08-.11.15-.16.22-.03.04-.05.08-.08.11-.4.36-.79.72-1.18 1.08-.4.36-.8.7-1.21 1.03-.84.65-1.74 1.21-2.82 1.57-.31.1-.62.18-.93.26-.1.03-.21.06-.31.08-1.23.27-2.45.31-3.72.03-.31-.07-.63-.1-.95-.15-.28-.04-.56-.1-.85-.13-2.24-.3-4.47-.64-6.56-1.59-.72-.32-1.33-.74-1.85-1.24-.51-.49-.9-1.08-1.18-1.78-.08-.19-.17-.36-.23-.56-.04-.16-.08-.33-.16-.48-1.2-2.09-1.82-4.41-2.61-6.67-.08-.23-.18-.45-.28-.67-.18-.39-.36-.78-.57-1.15-.64-1.18-1.32-2.34-1.98-3.51-.1-.18-.19-.35-.3-.53-.35-.6-.71-1.19-1.06-1.79-.28-.47-.55-.94-.84-1.41-.26-.43-.48-.91-.82-1.26-1.49-1.5-3.01-2.97-4.55-4.42-.15-.14-.3-.26-.45-.39-.49-.43-1-.84-1.5-1.26-2.72-4.36-1.43-8.81-.11-10.07M82.01 69.59c1.23-.43 2.41.06 3.54.63-.66.48-1.29.95-2.09 1.06-.97.13-1.94.23-2.65 1.01-.04.04-.1.07-.16.09-.35.13-.66-.08-.57-.43.27-1.09.89-2 1.93-2.36" transform="translate(-1124 -2115) translate(-18 1623) translate(1142 492)"/>
                    <path fill="#F3D072" d="M152.7 15.05c-.35.46-.7.98-1.04 1.52-.2.32-.41.65-.61.97-.35.57-.67 1.25-1.09 1.89-.55.85-1.25 1.63-2.36 1.97-.28.09-.58.14-.91.17-2.25-1.83.61-3.53.37-5.81-2.76 1.1-5.53 3.81-9.3 4.45-1.17.2-2.5.17-3.88.06-1.38-.11-2.81-.31-4.16-.44-2.99-.3-6.07.32-8.22-.36-.32-.1-.6-.31-.87-.53-.13-.11-.26-.22-.39-.32-.19-.15-.38-.28-.59-.36-.13-.05-.26-.09-.41-.09-.11.8-.26 1.53-.43 2.24-.25 1.08-.56 2.1-.93 3.18-.35.99-.75 2.26-1.2 3.52-.3.85-.61 1.69-.93 2.47-.23.55-.47 1.05-.7 1.5-.26.5-.52.94-.78 1.24-.1.11-.21.23-.34.34-.26.23-.57.46-.91.65-.17.09-.35.18-.53.25-.18.07-.37.12-.55.15-.56.1-1.12.01-1.59-.39 1.13-1.57 1.68-1.81 2.31-2.97.75-1.4.99-5.04 1.39-6.22 1.02-2.97 1.64-4.22 2.1-6.73.1-.53.19-1.09.28-1.75 1.16-.07 2.22-.19 3.25-.33 1.59.09 5.16-.35 7.94.33-.55-.81-1.36-1.25-2.18-1.55.25-.07.48-.12.73-.19 1.69-.48 3.32-1.13 4.92-1.7.35-.13.7-.25 1.05-.37.58-.19 1.22-.34 1.89-.47.42-.08.84-.16 1.28-.22.91-.13 1.83-.22 2.72-.29.07-.01.14-.01.21-.02.73-.06 1.42-.1 2.06-.15.12-.01.26-.02.37-.03 1.27-.09 2.47-.05 3.65.07 3.53.36 6.75 1.48 10.25 2.16-.49.86-1.27 1.39-1.87 2.16M174.5 339.13c.87.14 1.56.41 3.06.71-.36.05-1.91.79-1.91.79s-.87-.98-1.15-1.5M106.16 19.97c-3.4.58-6.88.85-8.63-.17-.54-.42-.81-.59-.68-1.36 1.36-.13 2.55-.12 4.65-.22 1.33-.06 5.05-.44 6.04-.48-.2.97-.46 1.74-1.38 2.23M166.84 112.96c2.91 5.26 2.42 13.42 2.88 19.2.06.79.7 1.53-.02 2.23-1.03-1.45-2.17-2.74-3.56-3.7-1.35-2.19-3.19-3.69-5.24-4.91-.74-.81-1.67-1.6-2.6-2.37-.93-.76-2.08-1.41-2.42-2.4 3.27 1.66 6.6 4.31 9.14 6.15-.87-2.78-3.11-3.65-4.14-6.2 1.74 1.06 3.17 3.72 4.61 4.46-.72-1.44-1.15-2.87-1.96-4.14-.72-1.13-2.35-1.97-2.05-3.57 1.7 2.51 3.62 4.72 5.25 7.32-.25-3.99-2.56-6.32-2.98-9.35 1.23 1.46 2.08 3.45 3.22 5.05.65-2.76-1.21-5.61-.13-7.77M136.5 130.87c-.29-.68-.01-1.22.18-1.78.3.18.72-.16.95.33-.14.5-.24 1.01-.57 1.47-.15-.13-.33-.16-.56-.02" transform="translate(-1124 -2115) translate(-18 1623) translate(1142 492)"/>
                    <path fill="#F3D072" d="M139.18 131c.85-1.54 1.03-3.44 2.22-4.67-.18 2.92-1.51 5.29-2.83 7.66-1.51 1.2-2.89 3.17-4.55 3.84-.41-1.06-.17-2.28-.29-3.41-.1-.92-.45-1.7-.55-2.58-.06-.59.21-1.24.07-1.88-.25-1.18-.63-1.73-.1-2.37 1.2 1.96 1.76 4.15 2.05 6.3.35-.07.48.33.83.26 1.61-.77 2.49-1.96 3.15-3.15M185.97 70.77c.5.51.85 1.06.98 1.72.2.95.64 1.77 1.11 2.59.12.2.31.37.29.63-.06.85.24 1.66.33 2.49.07.68.01 1.34-.32 1.95-.86 1.54-1.89 2.95-3.45 4.09.09-.59.4-.93.47-1.37.18-1.06.45-2.1.75-3.14.28-.99.29-2.01-.29-2.93-.22-.35-.35-.73-.44-1.13-.56-2.35-2.05-4.04-3.86-5.52-.26-.22-.56-.42-.68-.73-.27-.67-.84-.82-1.45-.91-.2-.03-.41 0-.59-.07-1-.39-2.03-.34-3.07-.22-.67.07-1.29.29-1.94.49.96-.99 1.94-1.92 3.49-1.79.33.03.67-.04 1-.07.46-.04 1.03-.21 1.36.08.43.36.9.4 1.37.57.89.31 1.77.62 2.59 1.12.95.54 1.6 1.38 2.35 2.15M145.77 267.96c-.48-.7-.87-1.44-1.35-2.21 1.5-.17 2.86-.68 4.44-.71-.48 1.19-.71 1.59-3.09 2.92M155.58 248.32c.51.71 1.11 1.35 1.57 2.08.45.72 1.01 1.41 1.2 2.37-.96.19-1.87.45-2.8.55-1.33.14-2.67.14-4 .23-.53.04-.91-.15-1.18-.6-.48-.8-.98-1.6-1.44-2.41-.62-1.08-1.21-2.17-1.9-3.41.6-.03 1.03-.08 1.45-.06 1.64.05 3.29.24 4.91.14 1.06-.05 1.64.36 2.19 1.11M141.38 258.4c-.19-.59-.63-1.15-.36-1.96.26.04.48.07.71.1 1.4.17 2.12.35 3.52.43 1.13.07 2.28-.03 3.42-.09.39-.02.64.11.83.42.69 1.1 1.39 2.2 2.15 3.4-2.79.61-5.83.71-8.65 1.13-1.18-2.03-1.19-2.1-1.62-3.43M119.33 147.33c-.56.11-.6.6-1.25.65-.2-1.01.05-3.1.05-3.97 1.45-.54 1.22 2.51 1.2 3.32M118.07 142.21c0-.44-.6-2.61.28-2.75.49.03.47 1.87.61 2.63-.35.12-.5-.07-.89.12M92.81 65.33c-.38.09-.78.2-1.01.54-.35.51-.89.82-1.25 1.31-.24.32-.63.35-.96.48-.21.08-.33-.05-.4-.25-.2-.55.2-1.5.82-1.85 1.22-.69 2.51-.91 3.86-.38-.37-.01-.72.06-1.06.15M117.32 113.54c.51-.01 1.01-.07 1.49-.23 1.92-.62 3.85-1.23 5.58-2.3 1.48-.92 3.08-1.25 4.82-1.17-.01.27-.14.32-.26.36-1.62.49-3.1 1.25-4.46 2.27-.61.46-1.35.73-2.05 1.06-1.02.49-2.13.59-3.17.98-1.8.67-3.6.68-5.43.16-.18-.05-.42-.04-.38-.37 1.31-.18 2.53-.74 3.86-.76M141.48 161.27c.23-.9.19-2.73.33-3.9.01-.06.03-.6.39-.66.36-.06.35.94.34.77.12 1.6-.2 3.24-.49 4.48-.88 3.71-2.47 7.22-5.02 9.87-1.28 1.34-2.93 3.2-5.16 2.83-.05-2.22.38-4.4.07-6.93-.11-.87-.5-1.68-.64-2.56-.22-1.45-.28-2.88-.66-4.29-.46-1.71-1.29-3.23-.66-4.29.6 3.14 2.41 6.18 3.12 9.39.59 2.65.38 5.02 1.03 7.11 2.09-1.01 3.1-3.52 4.32-5.5.62-1.02 1.13-1.95 1.62-3.1.46-1.1 1.14-2.21 1.41-3.22M119.54 62.02c.77-.18 1.55-.15 2.33 0 .2.04.48.1.46.35-.03.3-.32.36-.56.32-.51-.09-.93.1-1.38.3-.38.17-.81.23-1.22.34-1.1.07-2 .46-2.46 1.54-.06.13-.16.26-.26.36-.18.18-.35.1-.41-.1-.36-1.15-.19-2.12 1.14-2.48.79-.22 1.57-.44 2.36-.63M109.04 61.66c-.05.08-.21.13-.31 0-.12-.14-.07-.27.01-.41.47-.81 1.29-1.15 2.1-1.42.56-.19 1.19-.41 1.8-.12.02.18-.05.27-.15.35-.52.42-1.09.73-1.76.85-.61.12-1.29.12-1.69.75M111.91 69.62c-1.2.11-2.42.17-3.22 1.28-.11.15-.26.12-.39.01-.2-.16-.08-.33.01-.48.64-1.13 1.81-1.66 3.11-1.4.33.07.75-.03.97.42-.09.07-.11.09-.13.1-.12.03-.23.06-.35.07M102.61 67.88c-1.25-.09-2.33.23-3.26 1.12-.53-.48-.41-.97-.15-1.32.39-.54.68-1.24 1.53-1.27 1.27-.04 2.3.48 3.29 1.25-.5.24-.98.26-1.41.22M93.92 73.81c-.95 1.6-2.38 2.08-3.95 2.23-.42.04-.73.06-.95.45-.09.16-.25.28-.45.14-.23-.16-.17-.36-.05-.55.12-.21.33-.4.36-.62.09-.6.5-.88.99-1.06 1.27-.48 2.6-.65 4.05-.59M130.36 65.54c-.38.05-.83-.02-1.09.34-.74 1.05-1.91 1.74-2.42 2.98-.08.19-.24.27-.44.24-.22-.03-.3-.21-.3-.39 0-.54.01-1.08.06-1.62.03-.35.24-.63.55-.79.56-.29 1.11-.61 1.64-.95.37-.24.84-.31 1.31-.46.2.01.44.02.69.03.2.01.36.1.37.31.01.26-.19.29-.37.31M128.93 56.16c-.8.2-1.38.68-1.95 1.21-.18.17-.26.56-.61.38-.3-.15-.52-.44-.55-.78-.04-.43.06-.82.44-1.13.61-.49 1.28-.78 2.05-.86.24-.02.48-.06.72-.07.45-.02.68.19.67.61-.01.5-.47.56-.77.64M148.56 46.9c-.43.69-.43.68-1.1.91-.37.13-.77.22-1.07.43-.97.68-2.06.93-3.34 1.08 2.2-2.09 4.25-2.88 5.51-2.42M140.22 51.97c.08.23-.32.78-.61.8-.25.02-.46-.12-.53-.37-.08-.26.26-.66.58-.72.2.04.46.01.56.29M160.79 56.95c.18-.75.22-.74 1-.9.85-.17 1.66-.01 2.5.06-1.49-1.23-3.11-2.02-5.08-1.9-.53.03-1.07-.08-1.61-.12-1.56-.12-2.93.45-4.17 1.29-.74.51-1.54.95-2.16 1.65-1.17 1.32-1.94 2.81-2.16 4.57-.06.46-.21.91-.33 1.43.55-.09.93-.47 1.19-.83.42-.59.84-.59 1.47-.4 1.61.49 3.26.77 4.96.64 1.07-.08 1.88-.69 2.6-1.4.96-.93 1.29-2.19 1.64-3.42.08-.2.09-.44.15-.67m-2.96 1.19c.27.67.14 1.34-.13 1.96-.57 1.31-2.02 1.75-3.26 1.05-.66-.38-1.13-.94-1.62-1.49-.22-.25-.23-.54-.23-.85-.01-.76.52-1.2.93-1.72.68-.86 2.1-1.11 3.12-.49-.05.35-.46.35-.6.63-.18.36-.27.74.01 1.03.32.33.68.16.96-.14.05-.05.08-.11.13-.16.31-.28.55-.18.69.18M133.24 66.34c-.17-.02-.34-.16-.37-.43-.04-.4.52-1.01.93-1.05.33-.03.51.16.57.44.11.41-.47.96-1.13 1.04M134.53 55.71c.31-.12.71-.08.93-.35.44-.54 1.15-.32 1.66-.64.15-.09.28.06.35.19.09.16.03.3-.11.38-.26.16-.51.35-.79.45-.79.28-1.44.75-2.07 1.27-.43.36-.85.76-1.4 1-.11-1.55.03-1.75 1.43-2.3M133.3 62.32c.64-1.28 1.52-2.14 2.51-2.32-.45.65-.84 1.15-1.17 1.68-.32.5-.74.71-1.34.64M243.42 253.92c-.13.27-.36.48-.52.74-.24.38-.55.5-1.01.51-1.45.02-2.89.15-4.33.17-.67.01-1.4.1-2.02-.42.1-.17.15-.29.23-.39 1.62-1.81 3.11-3.71 4.13-5.94.57-1.25 1.35-2.16 2.88-2.03.07.01.13-.03.2-.04.85-.2 2.07-.24 2.93-.44-.09 1.28-1.73 6.28-2.49 7.84M109.88 266.26c-.34-.18-.07-2.07-.07-3.39 0-.32.12-1.01.33-1.64l.93.12c.2 1.72.61 3.67.99 5.28-.55-.01-1.79-.15-2.18-.37M122.6 291.22c-.75.41-2.23-1.22-2.51-1.7 2.17-.24 2.71-.29 4.23-.23-.32.2-1.46 1.79-1.72 1.93M230.01 305.39c.68.32.68.4.5 1.38-1.81.27-3.63-.02-5.61-.03.1-.89.04-2.04.14-2.92.96.35 2.92.78 3.01.81.65.25 1.33.46 1.96.76M117.3 292.72c-1.53.65-4.06-1.66-4.68-3.59.58-.03 3.48.3 3.61.49.42.61.76 2.42 1.07 3.1M243.39 300.78c1.08-1 2.07-1.96 3.1-2.85.21-.19.61-.21.92-.23.53-.04 1.08-.04 1.61-.01 1.24.07 2.48.16 3.9.26-.21.38-.29.6-.43.77-.77.89-1.57 1.75-2.34 2.64-.44.52-.94.69-1.61.55-1.51-.32-3.03-.6-4.55-.9-.17-.04-.34-.13-.6-.23M236.39 308.75c-.73.45-1.46.9-2.29 1.42-.18-.43-.33-.78-.56-1.34 1.08-.09 1.94-.17 2.81-.24.01.05.02.1.04.16M233.14 305.5c.28-.24.44-.61.7-.98 2.31-.64 2.89-.9 4.89-2.32.44-.31.82-.33 1.31-.14.78.3 1.58.58 2.39.78 1.04.26 2.1.43 3.24.65-.83 1.33-1.21 1.59-2.54 1.85-.26.05-.52.15-.78.22-.71.18-1.42.41-2.15.51-1.63.22-3.27.37-4.91.54-.57.06-1.14.11-1.71.09-.23-.01-.55-.14-.65-.32-.17-.3-.11-.61.21-.88M226.59 300.63c.77-.44 3.73-2.74 4.38-2.38 1.12.62 2.28 1.16 3.42 1.72.5.25 1.01.48 1.57.75-.43.55-1.03.73-1.59.9-1.22.37-2.46.69-3.7 1-.31.08-.7.12-.97 0-.52-.23-2.91-.95-3.11-1.99M211.62 322.57c-.92.5-1.83.99-2.91 1.58l-.28-1.73c1.1-.02 2.11-.03 3.12-.05l.07.2zM221.65 306.62s-5.31-.81-5.44-1.54c-.26-1.5-.46-3.34.26-4.23 1.23.65 5.48 1.82 6.78 2.51-.2 1.13-.39 2.18-.59 3.27-.37-.01-1.01-.01-1.01-.01M216 309.31c-.01-.19.01-.38.02-.71 2.23.2 4.4.38 6.64.58.25 1.7 1.2 3.16 1.33 4.85-1.29.38-5.81.43-7.01.06-.24-.07-.51-.34-.59-.58-.28-.8-.4-1.62-.31-2.49.05-.57-.05-1.14-.08-1.71M223.66 317.15c-1.16.61-2.31 1.24-3.49 1.81-.38.18-.85.23-1.28.26-.19.01-.49-.11-.58-.27-.43-.75-.85-1.5-1.01-2.42 2.27.1 4.47.19 6.76.29-.16.14-.27.26-.4.33M231.95 311.07c.15.44 0 .71-.35.94-.59.39-1.23.72-1.75 1.2-.94.86-2.03.96-3.33.76-.54-1.51-1.38-2.9-1.49-4.66 2.1-.33 4.18-.15 6.31-.37.21.78.38 1.46.61 2.13M216.82 297.82c.74-.9 4.08-1.62 3.96-1.91.95.43 3.87.56 5.25 1.22-.98.94-2.91 2.17-3.49 2.08-1.41-.21-4.82-.52-5.72-1.39M127.97 282.78c-.79 1.06-1.75 1.55-2.66 2.1-.28.17-.59.18-.8-.13-.46-.69-.92-1.38-1.51-2.25 1.74.1 3.26.18 4.97.28M116.47 252.88s.68 1.83 1.35 3.97c-.31-.05-2.74-.48-2.74-.48l1.39-3.49zM271.86 234.76c-.09-.7-.26-1.39-.4-2-1.09-4.75-3.48-8.34-5.13-11.61-.24-.47-.46-.93-.65-1.38 1.15 1.24 2.2 2.67 3.18 4.2 1.62 2.56 3.03 5.4 4.36 8.14.33.68.78 1.24 1.04 1.87.4.96.14 2.46 1.39 2.93.36 1.57.6 2.96.9 4.49.51 3.3.8 6.81 1.23 10.2.43 3.39 1.01 6.66 2.1 9.48-1.06-1.39-1.89-3.16-2.6-5.12-.17-.48-.34-.98-.49-1.48-.99-3.12-1.72-6.57-2.48-9.78-.01-.05-.02-.11-.04-.16l-.03-.09c-.06-.21-.13-.44-.21-.67-.06-.17-.11-.33-.15-.48-.03-.15-.05-.35-.07-.55-.05-.57-.09-1.25-.37-1.66-.09-.13-.19-.24-.33-.3-.11-.05-.24-.08-.39-.08-.34-1.16-.64-2.63-1-3.92.1-.32.16-.65.17-1 .04-.34.02-.69-.03-1.03M121.3 270.2l-.19.23c-1.14-.22-2.29-.41-3.43-.68-1.02-.24-1.21-1.02-1.54-2.01-.37-1.12-1.02-6.34-.92-6.72.07.01 3.21.51 3.35 1.03.52 1.97 1.26 4.17 1.91 6.11.25.7.55 1.37.82 2.04M123.03 242.98l.67 5.74c-.9-.2-2.07-.36-2.74-.83.12-.31 1.44-4.67 2.07-4.91M123.97 275.11c.86 1.25 1.83 2.42 2.75 3.63.12.15.24.31.4.52-.2.08-.27.14-.33.13-1.88-.12-3.77-.22-5.64-.41-.67-.07-1.26-.4-1.62-1.08-.74-1.4-1.53-2.76-2.29-4.15-.13-.24-.21-.51-.33-.82.24-.04.35-.08.43-.06 1.54.34 3.08.68 4.62 1.03.79.19 1.5.47 2.01 1.21M120.1 283.02c.41.65.87 1.27 1.3 1.91.18.26.34.53.57.89-.78.04-1.42.09-2.05.1-1.35.02-2.7-.11-4.03.04s-2.51-.28-3.69-.48c-.11-1.94-.2-3.71-.31-5.62.78.18 1.46.3 2.13.49 1.3.36 2.56.87 3.88 1.11 1.05.18 1.68.73 2.2 1.56M248.5 260.12c.22.99.46 2 .14 2.99-.33.99-.78 1.93-1.2 2.88-.19.44-.6.63-1.05.69-1.6.19-3.19.42-4.8.53-.95.07-1.92-.06-2.88-.1l-.04-.28c.78-1.01 1.61-1.98 2.33-3.03 1-1.47 3.2-5.77 3.2-5.77l3.58-.06s.3.6.56 1.58c.04.19.12.38.16.57M251.58 279.24c.62 1.27.37 2.48.64 3.86-1.17.07-2.17.13-3.41.2 1.01-1.46 1.86-2.71 2.77-4.06M113.16 271.47c.35 1.06 1.19 2.87 1.75 3.83.4.69.79 1.38 1.24 2.15-1.57-.39-3.07-.77-4.7-1.18-.14-1.87-.95-3.62-1.1-5.6.67.3 2.69.45 2.81.8M252.81 290.52c.28 1.65 1.11 2.92.83 4.49-1.3.2-2.56.24-3.91-.19 1.01-1.42 1.97-2.76 3.08-4.3M241.47 206.19c-.02.01-.04.01-.06.02v-.06c.02.01.05.02.06.04M264.95 198.93c-3.42-2.07-7.66-4.68-11.28-5.62-.35-.09-.74-.16-1.15-.21-1.51-.2-3.36-.15-5.11.21-.32.06-.63.14-.94.22-.1.03-.22.07-.33.13-.34.16-.72.4-1.07.58-.23.12-.45.22-.63.24-.19.02-.34-.02-.44-.18 1.04-1.19 2.46-1.59 4.05-1.83.33-.05.67-.09 1.01-.14.65-.08 1.32-.16 2.01-.28 2.06-.35 4.03-.7 5.94-.54.22.02.44.01.66.05.77.12 1.49.33 2.18.57 2.38.83 4.37 2.22 6.36 3.26.86.45 1.72.83 2.62 1.07.83.56 3.66 3.02 7.39 5.36 4.9 4.52 12.88 8.83 21.27 8.05 2.54-.23 5.46-1.15 7.15-2.81-.07.48-.31.88-.63 1.23-.05.06-.11.11-.17.17-.14.13-.29.25-.45.37-.5.36-1.08.65-1.65.93-.53.26-1.09.51-1.67.75-.41.17-.83.34-1.26.5-.48.18-.97.35-1.48.49-.81.23-1.64.43-2.51.55-.87.13-1.77.19-2.7.16-.4-.01-.77-.08-1.12-.18-1.07-.31-2.01-.93-3.2-1.36-1.13-.4-2.43-.63-3.59-1.03-.17-.06-.34-.11-.5-.17-.43-.18-.85-.36-1.28-.56-2.41-1.1-4.85-2.42-7.09-3.26-.54-.2-1.08-.39-1.59-.53-.5-.29-1.4-.64-2.01-.98-1.55-2.27-4.45-3.8-6.79-5.21M249.07 209.81c.67.25 1.34.54 1.99.86.65.32 1.29.67 1.91 1.05.62.38 1.23.79 1.82 1.22 1.4 1.03 2.69 2.24 3.87 3.56 1.29 1.46 2.44 3.05 3.37 4.79 1.08 2.03 2.24 4.26 3.27 6.53.28.61.5 1.23.7 1.87.6 1.91.97 3.92 1.83 5.89.06.33.74 1.95 1.15 3.71-.25.34-.38.71-.44 1.1-.03.2-.03.4-.02.6.03.71.24 1.48.45 2.25.09.34.18.68.25 1.02.33 1.58.47 3.31.73 4.94.09.54.19 1.07.31 1.57.46 1.89 1.21 3.44 1.77 4.83.33.84.6 1.62.68 2.38-2.89-3.52-4.58-8.41-5.73-13.64-.38-1.74-.71-3.53-1-5.32-.15-.94-.23-1.86-.32-2.76-.09-.91-.18-1.8-.37-2.69-.25-1.21-.55-2.39-.89-3.54-.2-.67-.41-1.34-.64-1.99-.41-1.17-.86-2.29-1.36-3.37-.99-2.16-2.15-4.14-3.45-5.89-.53-.72-1.08-1.39-1.66-2.03-.86-.96-1.75-1.84-2.7-2.62-1.13-.94-2.32-1.74-3.56-2.4-1.13-.63-2.69-1.51-1.96-1.92M163.4 261.37c1.27.06 2.5.19 3.72.33.19.02.38.12.54.23.81.57 1.38 1.35 1.87 2.21.36.63.28 1.2-.12 1.86-1.78-1.89-3.7-3.51-6.01-4.63M168.19 274.26c.34-.9.68-1.81 1.09-2.89.33.6.56 1.01.79 1.42.03.06.07.11.11.17.17.32.23.63-.05.93-.42.46-1.24.64-1.94.37" transform="translate(-1124 -2115) translate(-18 1623) translate(1142 492)"/>
                    <path fill="#F3D072" d="M170.16 304.46c-.86.44-5.44.13-5.96-.04-.51-.17-1.45-.34-1.76-.49-.43-.21-4.15-.22-2.69-4.33.57-.55 2.83-2.26 4.48-3.43 5.77-4.88 8.02-12.53 10.92-19.49 1.62-1.01 5.11-1.34 8.05-1.84 1.03-.86 1.61-2.2 1.62-3.78 0-.51.37-1.71-.5-1.96-.34 1.51-.72 3-2.19 3.69-.48-.83.03-4.47-1.47-4.59-.21 1.66-.14 3.52-1.54 4.33 0-1.63-.69-3.91-1.66-4.56-.04 1.64.11 3.47-.6 4.36-.24-1.37-.63-3.82-1.53-4.95-.13 1.53-.64 2.74-1.05 3.88-.15.4-.09 1.09-.45 1.34.09-1.27.11-2.22.17-2.3.03-.79-.01-1.56-.09-2.31.06-.85.04-1.71-.19-2.57-.28-1.08-1.12-1.77-1.21-2.96 1-.78 2.04-.16 2.95-.1.75.05 1.5.01 2.25-.07 1.59.41 3.48 1.22 4.57 2.86.39-1.46-.46-2.72-1.51-3.52 1.46-.47 2.76-1.11 3.73-1.83 2.27-1.68 5.73-.15 6.52 1.37 2.04 6.16-1 8.89-3.46 12.05-1.23 1.57-1.75 3.42-3.16 4.58-.41 1.26-1.11 2.84-1.72 4.35-.47 1.17-.94 2.7-1.44 3.75-.13.27-1.73 4.89-2.73 7.3-1.94 4.77-3.58 8.85-8.35 11.26M166.25 230.25c.29 1.23.62 2.45.97 3.81-1.46.15-2.81.32-4.17.42-1.09.08-1.09.04-1.37-.97-.04-.16-.08-.33-.16-.48-.74-1.52-.98-5.13-.96-5.35.31-.01 3.14.11 5.13.28.33.47.44 1.77.56 2.29M163.52 249.43c-.68.84-1.42 1.6-2.47 2.07-1.1-1.35-2.3-2.57-3.06-4.14l4.23-.67c.48.7.89 1.32 1.31 1.92.2.28.21.54-.01.82M163.32 237.97c1.65-.26 3.1-.51 4.55-.72.69-.1 1.15.26 1.43.88.63 1.37.76 1.68 1.4 3.05-.54.62-1.62 1.19-4.95 1.68-.76-1.55-1.56-3.15-2.43-4.89M207.05 314.58c2.31.44 4.61.89 6.91 1.36.18.04.41.16.48.3.49 1.06.93 2.14 1.48 3.41-.51.08-.87.17-1.23.19-1.51.1-3.02.19-4.53.26-.64.03-1.28.01-1.91-.02-.49-.03-.73-.3-.85-.82-.28-1.24-.67-2.46-1-3.69-.08-.31-.11-.63-.17-1.01.36 0 .6-.03.82.02M161.51 274.52c-.11-.85-.03-1.19.52-2.04 1.04.68 2.28.81 3.19 1.71-1.25.27-2.46.58-3.71.33M152.46 277.8c.2-.82.34-1.5.97-1.97.78.4 1.5.77 2.24 1.16-.45.49-.69.62-1.98.89-.36.08-.76-.04-1.23-.08M157.48 274.51c-.78-.31-1.53-.68-2.38-1.05.41-1.56.8-3.04 1.2-4.57.24.12.41.17.55.28.75.61 1.52 1.21 2.22 1.88.23.22.42.66.37.95-.11.68-.32 1.36-.6 1.99-.25.56-.78.74-1.36.52M147.83 270.89c1.34-1.28 4.07-2.97 4.99-3.66.07-.05.29.32.83.24-.15 1.8-.52 3.41-1.13 5.09-.83-.4-1.54-.82-2.3-1.09-.77-.27-1.59-.39-2.39-.58M167.99 247.16c-.36.28-.9-1.62-.9-1.62s4.07-.66 4.12-.59c-.29.25-2.66 1.76-3.22 2.21M133.64 277.3c-.52.47-1.11.73-1.79.87-.4.08-.8.16-1.18.29-.44.15-.78.07-1.07-.3-.14-.19-.36-.32-.48-.52-.38-.65-1.09-1.08-1.31-1.96 2.55.05 5.03.09 7.75.15-.77.58-1.38.99-1.92 1.47M155.87 265.19c.49-.36.85-.62 1.21-.89.7-.52 1.42-1.03 2.1-1.57.51-.4.81-.36.96.28.43 1.91.83 3.82.68 5.85-1.13-1.83-2.92-2.76-4.95-3.67M165.68 270.09c-.21-.1-.43-.2-.64-.31-.46-.24-.93-.49-1.56-.83-.19-1.67-.41-3.51-.63-5.45 3.95 2.71 3.87 3.2 5.15 6.08-.96 1.16-.98 1.16-2.32.51M201.54 249.83s3.36.75 4.21 1.17c-.69.94-1.28 1.27-2.05 1.87-.05-.15-2.16-3.04-2.16-3.04M197.64 230.33c-.55-.41-2.73-3.72-2.73-3.72s-.6-1.31-1.03-1.75l.09-.08 5.7 3.23c-.63.59-1.42 1.74-2.03 2.32M149.2 277.8c-1.65-.49-3.28-.98-4.97-1.49.32-1.01.59-1.9.89-2.79.22-.67.53-.91 1.21-.74.65.17 1.32.42 1.89.77.85.53 1.56 1.24 1.98 2.24-.34.63-.36 1.44-1 2.01M202.96 240.18c-.92.71-1.16 1.34-2.03 2.02-.3-.79-4.08-4.36-4.05-5.09 1.9.86 3.9 2.32 6.08 3.07M206.65 310.92c-.05-.79.33-3.69.75-4.53 1.76.62 4.03 1.29 5.8 1.92.18.86.14 3.38.18 3.71.03.33.1.65.17 1.07-2.18-.17-5.37-.98-6.9-2.17M213.92 300.2c-.18 1.14-.11 2.61-.29 3.72-1-.07-3.41-1.39-4.24-1.68.51-1.1 3.26-1.98 4.53-2.04M175.65 238.63c-1.02.65-1.8.74-2.13 1.08-.48-.9-1.25-2.06-1.68-2.86 1.09-.73 2.23-.6 3.37-.81.01.72.42 1.9.44 2.59M159.32 203.59c-.06-.16-.12-.33-.18-.49-.37-.95-1.39-2.52-.49-3.07.74.76 1.4 1.95 2 3.32.97 2.19 1.81 4.86 2.62 7.07.32.88.44 1.89 1.28 2.21.73-2.06 1.58-4.23 2.18-6.1.21-.64.07-1.6.8-1.98-.02 3.93-1.71 7.51-2.42 10.4 2.15-1.92 2.82-4.49 3.66-7.26.55-1.8.92-3.75 1.36-5.41.02-.09.04-.2.06-.31.07-.49.13-1.12.62-1.28-.01.43-.07.82-.09 1.23-.25 3.97-1.23 7.41-2.46 10.68 2.8-3.05 4.6-6.82 5.84-11 .79-2.66 1.37-5.49 1.82-8.4-.01-.11-.01-.22.15-.21.21 2.96.06 5.84-.41 8.52-.5 2.87-1.37 5.5-2.56 7.72-2.2 4.1-4.72 8.11-9.05 10.05-1.63-4.87-2.99-11.03-4.73-15.69M172.25 223.39c.85-.73 1.71-1.46 2.66-2.27.28.8.16 2.19.13 3.04-1.06.07-2.4.04-3.42.1-.01-.07.66-.79.63-.87M168.88 227.89c2.16-.11 4.32.02 6.36-.08.05.63.16 3.32.03 3.87-.18.75-3.88 1.41-4.98 1.38-.87-1.74-1.34-3.11-1.41-5.17M178.39 235.2c.52-.2 3.32-.76 3.75-.93.03.05.06.09.08.14-.32.41-2.49 2-2.91 2.55-.18-.41-.79-1.44-.92-1.76M128.61 289.52c.53.55.98 1.02 1.45 1.5-.97.98-2.04.89-3.18.72-.09-1.24.99-1.48 1.73-2.22M178.57 228.23c2.22.26 2.07.22 4.82.88.01.03-1.08.97-1.09.98-.93 1.11-2.49 1.56-3.89 1.87-.15.04.05-2.54.16-3.73M141.11 277.7c.9.34 1.16.89.86 1.79-.21.64-.36 1.3-.62 1.92-.32.73-.68 1.46-1.14 2.11-.4.57-.82.54-1.38.16-.69-.47-1.4-.89-2.2-1.4 1.18-1.56 2.4-3.18 3.63-4.81.34.09.61.14.85.23M135.6 234.51c.63.08 4.23.94 4.32 1.25.24.88 1.15 5.43 1.54 6.37-.34-.04-1.37-.23-1.77-.33-1.24-.29-1.88-.1-2.9-.65-.68-.36-.86-3.7-.93-3.96-.2-.68-.21-1.84-.26-2.68M121.92 148.73c.71-1.57 5.26-5.14 5.64-5.35.47-.19.87-.41.3.69-.95 1.84-5.46 5.85-9.51 7.82-.5-2.27 2.22-2.22 3.57-3.16M134.76 251.19c-1.2-.25-3.92-.41-5.23-.69.01-.33-.73-2.7-.76-4.19-.01-.33-.6-2.7-.43-2.95 1.13.31 3.28.86 4.26 1.13.41 1.41 1.94 5.32 2.16 6.7M136.11 265.6c1.5.08 3.01.05 4.52.08.35.01.75-.12.97.34.54 1.18 1.11 2.35 1.33 3.73-2.4.57-4.41.96-6.71 1.5-2.33-1.98-2.81-4.06-3.38-5.79 1.44.16 1.84.06 3.27.14M143.79 282.73c.18-1.08.78-1.75.99-3.03 1.01.83 1.77.39 2.13 1.35-.69.78-2.17 2-3.12 1.68M134.78 284.68c.87.24 1.56.72 1.94 1.58-.56.65-1.08 1.25-1.9 1.38-1.03.16-2.07.26-3.1.38-.3.03-.62.11-.79-.36 1.08-.96 2.17-1.94 3.28-2.9.14-.1.4-.12.57-.08M204.28 19.65c-1.69.05-3.4.45-5.17 1.16 1.64.2 3.09.01 4.54.11 1.53.11 2.69.56 4.15.84 2.56.49 5.35-.2 7.69-.06-5.07 1.72-9.68.11-14.36 1.29 4.55.26 8.82 1.63 13.83.64-3.72 2.04-9.31 1.33-13.68 2.35-5.4 1.26-9.87 3-12.92 6.08.43-1.85 2.23-2.9 3.72-3.94 1.8-1.26 3.68-2.44 6-3.3-2.46.03-4.97.94-7.21.98-.16-1.39 4.43-2.13 4.39-2.88-2.71.59-4.69.83-6.91 1.77.51-1.84 3.09-2.19 4.67-3.26-8.35 1.17-12.9 5.09-15.59 10.35.07-2.74 1.84-4.54 3.38-6.06.52-.51 1.02-1.23 1.42-1.57 1.03-.84 2.86-1.55 4.47-2.39 4.24-2.2 10.61-3.99 15.98-3.72 3.29.17 6.72 1.51 9.66 1.81 1.52.15 3.51-.16 4.54.11-.03-.02-1.39.39-2.1.5-3.46.55-6.99-.92-10.5-.81M224.62 166.75c.25.24 1.04.8.67 1.06-6.36 1.68-10.76-.85-14.97-2.79 2.41.05 4.24.9 6.52 1.13-.42-.36-1-.88-1.56-1.42-.41-.4-1.56-1.29-1.07-1.5.37-.28.83.31 1.08.5 1.21.9 2.37 2.15 3.89 2.38-3.89-3.64-7.23-9.09-10.43-13.03.82.99 1.86 1.53 2.72 2.4 2.56 2.59 4.97 6.9 7.67 8.29-2.82-2.73-3.64-7.32-6.04-10.64.29-.52 1.18-.51 2.15.91 1.45 3.76 3.62 6.52 5.68 9.44 1 1.11 2.64 2.29 3.69 3.27M20.78 40.76c-.18-.29-.95-1.82-2.55-3.61-.4-.45-.85-.91-1.37-1.38.19-.16.39-.26.59-.37.89-.48 1.79-.5 2.28-.03.17.15.35.34.54.55.89.99 1.85 2.54 2.65 4.32.31.69.91 2.03 1.4 3.37.45 1.22.81 2.44.75 3.14-.05.55-.39 1.16-.66 1.72-.16.33-.31.66-.35.95 1.76-1.14 4.05-2.42 6.52-2.15.06 1.01-.14.82 0 1.69.02.15.06.33.11.56.41-.42.7-.76.95-1.05.5-.59.83-1 1.44-1.5.8-.65 1.72-1.2 2.62-1.75.93-.35 2.13-.59 3.57-.37 1.3.2 1.37.41 3.77 1.32-.4-1.72-1.3-2.77-.91-2.71 1.58.25 2.81 1.12 4.52 2.15-.38-1.11-.83-1.87-1.64-2.51.84.05 1.64.19 2.36.48.77.31 1.28.94 1.88 1.25.28.15.58.23.94.15-.22-.41-.5-.75-.78-1.07-.48-.53-1.01-1-1.49-1.53-1.7-1.32-3.88-1.87-6.15-1.81-1.07.03-2.17.19-3.24.48-1.11.3-2.2.74-3.23 1.3-.22.12-.43.27-.63.42-.15.1-.3.2-.44.31l-.57.45c-.56.44-1.11.85-1.71 1.03-.19.06-.4.1-.61.14-1.51.26-3.48.07-4.05-.32-.33-.22-.53-.31-.51-.7 0-.05-.01-.09 0-.15 3.33-.36 6.49-1.64 7.71-4.01-.44-1.33-1.28-1.78-2.16-2.29-.3-.17-.6-.34-.89-.56-2.12-1.56-3.61-3.08-4.58-6.06-.06-.2-.13-.38-.19-.6-.14-.47-.22-1.22.97-1.83 3.29 3.08 5.83 7.99 10.72 8.87 2.07.37 4.07-.22 5.78.19.45.11 1 .39 1.56.7.43.24.86.49 1.26.7.48.25.9.5 1.27.74.24.15.46.3.67.46.18.13.35.27.52.41.67.56 1.26 1.17 2 1.95 1.55 1.63 2.9 2.95 4.07 4.88.29.48.58.99.85 1.57-.72.4-1.39.95-2.01 1.56-.21.2-.41.41-.61.63-.8.85-1.52 1.75-2.19 2.48-.34.36-.8 1.31-1.13 1.26-.06-.01-.12-.04-.17-.13-.7-2.01 1.39-2.62 1.58-3.79.03-.17.02-.34-.05-.54-.37.21-.73.39-1.08.56-.53.25-1.05.48-1.59.7-.53.23-1.08.46-1.65.73-1.34.63-2.03 1.18-3.95 1.38-.03 0-.06.01-.09.01-.72.07-1.5.13-2.31.18-.3.02-.61.04-.92.05-2.16.1-4.38.08-5.86-.26-.56-.13-1.09-.31-1.6-.5-.26-.1-.51-.2-.76-.3-.67-.27-1.32-.54-1.96-.74-.32-.1-.65-.18-.97-.23-.24-.03-.49-.05-.74-.05-.36.01-.71.06-1.04.13-.67.15-1.28.37-1.88.46-.22.03-.43.04-.64.03-.08 0-.16 0-.24-.02-.29-.33-.82-.55-1.27-.86-.27-.18-.52-.39-.65-.69-.33-.76-.31-1.56-.21-2.29.05-.36.12-.71.18-1.01.03-.15.06-.3.08-.43.02-.13.03-.25.03-.36.02-1.87-.82-3.98-1.6-5.38-.09-.18-.18-.34-.26-.47M130.41 233.93s.94 3.67 1.12 4.97c-.47-.13-2.96-.57-3.3-.7.07-.43 2.18-4.27 2.18-4.27M130.13 255.21c1.19.1 4.57.42 5.67.56.92.11 1.36.61 1.67 1.37.25.62.53 1.24.78 1.86.43 1.04.86 2.08 1.33 3.23-2.49.21-5.42.11-7.74-.33-1.11-2.91-1.53-4.59-1.71-6.69M144.09 247.62c.16.47.43.91.68 1.36.76 1.41 1.54 2.82 2.38 4.36-.54.06-1.04.2-1.51.16-1.98-.16-3.99-.61-5.96-.82-.38-.04-.42-.32-.63-.67-.93-1.56-1.49-4.19-2.04-6.53 2.03.46 4.23.72 6.03 1.15.5.13.87.44 1.05.99M273.52 187.54c-1.77-3.47-3.58-7.01-5.99-9.74-.4-.45-.82-.89-1.26-1.29-.44-.4-.89-.78-1.37-1.13-.03-.02-.06-.04-.08-.05-.9-.64-2.03-1.29-3.15-1.89-.43-.23-.85-.46-1.26-.67-1.55-.82-3.49-1.52-5.35-1-2.15-.29-3.95-.49-5.92.28.82-.51 1.74-.82 2.62-1.24 1.23-.59 2.57-1.13 3.21-2 .52-.1 1.53.06 2.08.23 1.51.66 3.03 1.04 4.53 1.69 1.44.62 2.74 1.57 4.23 2.11 1.17 1.17 2.07 2.23 3.17 3.58.5.61 1.26 1.22 1.58 1.79.8 1.39 1.27 2.99 1.83 4.6.53 1.53 1.4 3.04 1.13 4.73zM2.65 42.69c-.17-.67.2-1.28.86-1.65.46-.26 1.07-.4 1.76-.35 1.62.13 4.87.34 6.97 1.24h.01c.26.11.53.26.8.42.75.46 1.53 1.05 2.29 1.49 2.29 1.33 4.12 2.22 5.15 4.37-.43 1.02.04 2.69-.96 3.31-.31-.11-.59-.27-.84-.45-.77-.56-1.36-1.4-1.97-2.07l-.02-.02c-2.51-2.72-6.15-4.72-9.76-5.66-1.42-.36-2.96-.01-4.29-.63M223.19 128.4c1.95.37 3.83 1.89 5.64 1.78-3.15-1.58-5.47-4.29-7.92-6.6-.53-.5-1.02-.86-1.54-1.26-.45-.34-1.29-.77-1.24-1.48 1.49.79 2.95 1.47 4.25 2.5 1.31 1.04 2.16 2.49 3.56 3.45-2.64-4.53-5.91-8.17-10.47-10.05-.01-.2-.01-.39.27-.38 5.69 1.48 8.98 6.01 12.37 10.41 1.14 1.48 2.57 3.05 3.97 3.89.11.07.63.33.73.39.87.49 1.82.39 2.52 1.1-4.85-.13-9.15-1.04-12.14-3.75M61.12 111.62c.07-.27.15-.55.23-.84.27-.93.63-1.87 1.28-2.42.34 1.06.87 1.89 1.64 2.43.53.38 1.18.62 1.96.69-.11-.24-.2-.54-.27-.88-.2-1.01-.2-2.31-.13-3.11.97.29 1.85.7 2.81 1.01.32.1.64.19.98.27.44-1.46-.24-2.32-.18-3.64 1.65.49 2.89 1.48 4.74 1.73-.5-1.34-.34-3.21-.43-4.35 1.57.31 2.69 1.19 4.35 1.4-.01-2.01.27-3.42.04-5.13 2.34.46 2.87 3.13 5.94 2.71.59-1.12-.34-3.49.48-4.44 1.63.32 1.7 2.52 3.55 2.58.06-1.19-.53-2.09-.29-2.9 1.35.04 2.35.51 3.55.75-.01-.79.01-1.9.37-2.38 1.08.31 1.54 1.78 2.69 1.9-.07-.95.22-1.59.58-2.13.76.83 1.03 1.12 1.88 1.87.35-.32 1.18-.85 1.54-1.64.38.56 1.17 1.06 1.34 2.29-2.35 1.35-4.69 2.56-7.34 3.47-2.78.95-5.52 1.75-8.12 3-5.05 2.43-9.95 4.74-14.26 7.44-.74.98-2.64 2.92-4.3 2.8-1.14-.08-1.35-1.06-2.19-1.8-1.81 1.09-3.39 5.61-.79 6.85-.13-.96-.08-3.95.86-4.29.06 2.88 1.75 6.31 3.61 6.96-.62-1.47-1.23-5.14-.25-6.2.49 2.92 2.45 5.13 4.07 6-.11-.64-.34-1.25-.38-1.97-.05-1.15.2-2.73.77-3.37.55 1.71.37 5.35 2.13 4.91.19-2.18 0-4.66 1.24-5.98.81 2.2 1.9 4.04 3.62 5.13.01-.21.27-.23.53-.24.06-1.58-.63-4.48.68-6.1 1.01-.28.76.96 1.07 1.54.8.65 1.03 1.99 2.55 1.76.2-1.33-.54-3.44.91-3.75.52 1.74 1.94 3.45 3.44 3.32-.27-1.83-.07-3.27.67-4.27.63 1.41.93 4.26 2.57 3.77-.24-.98.36-2.62.51-4.07.09-.9-.47-2.18.67-2.44.73 2.15 1.79 3.91 3.42 4.97.81-1.44.78-3.58.91-5.58.65.09.77.83 1.05 1.36 1.1.48 1.75 1.52 3.1 1.71 1.38-1.31.21-3.65.35-5.7 1.87.38 2.29 3.01 4.13 2.89 2-.13 1.91-3.2 2.4-5.36 1.91-.13 2.12 2.79 3.57 2.76.05 0 .09-.03.15-.04v-.03c.21-.01.4-.07.56-.15 1.15-.7 1.2-3.06 1.84-4.6.02-.04.03-.09.05-.13.01-.02.02-.05.03-.08 1.09.71 1.66 2.06 2.66 2.9.08.06.17.13.26.19.02.01.04.03.06.04.17.1.36.19.56.25.29-1.06.6-2.4.82-3.63.11-.59-.19-1.51.5-1.82 1.35.16 1.44 1.91 2.72 2.16.13-1-.27-2.43.75-2.74.96.59 1.52 1.68 2.7 1.99.13-1.58.11-3.29.91-4.35 1.59.86 2.29 2.84 4.26 3.22.28-1.21-.72-2.54-.46-4.01 1.75.52 2.34 2.51 4.22 2.87.43-.98-.49-3.03.47-3.59.78.35 2.27 2.6 3.31 2.62-.1-1.85.1-2.81-.37-4.73 1.57.82 2.47 2.47 4.54 2.66-.54-1.42-.24-3-.63-3.99 1.43-.04 1.97 2 3.03 1.77-.05-1.2.1-1.93.05-3.04 1.74.64 2.14 2.08 4.12 2.39.96-.61-.04-2.56.3-3.67 1.05.61 1.23 1.5 2.7 2.09-.17-1.43-.18-2.02-.15-2.91 1.32.46 1.83 1.66 3.23 2.03.08-1.05.23-1.82.2-2.95 1.23.6 1.93 2.58 3.27 2.38.57-1.69-.27-2.73-.25-3.89 1.35.46 2.06 1.47 3.55 1.92-.04-.95.38-2.56.12-3.65 1.23.79 1.4 1.66 2.68 1.92.35-1.02.58-2.19.28-3.41 1.48.05 1.89.71 3.11 1.31.36-1.39.89-2.36.76-3.64.66.26 1.05.83 1.77 1.03.29-.66.4-1.45.04-2.23 1.15.06 1.39 1.1 2.17 1.56 0-.03 0-1.66-.47-2.42-.54-.8-1.52-1.89-2.38-1.94.05.72.38 1.23.19 1.87-.82-.18-.81-1.25-1.58-1.47-.18.44-.17 1.24-.25 1.89-.04-.07-.06-.14-.09-.21-.77-.51-.94-1.61-2.51-1.56.15 2.33.5 2.63.68 4.29-.91-1.11-1.97-2.52-3.27-2.48.15 1.06.68 1.54.46 2.53-1.24-.17-1.31-1.52-2.49-1.76-.35 1.07.56 2.44-.23 3.32-1.07-.92-1.72-1.79-2.87-2.61-.26 1.27.33 2.79-.68 3.47-.96-.58-1.04-1.69-2.01-2.27-.42 1.41-.48 2.47-1.01 3.79-.78-1.15-1.03-2.09-2.07-2.9-.71.7-.58 2.1-.78 3.21-1.52-.28-1.35-2.13-2.69-2.63-.63 1.3-.33 2.23-.68 3.68-1.29-.91-1.27-2.28-2.46-3.32-.21 1.26-.64 2.34-.82 3.63-1.37-.6-1.25-3.08-2.55-3.77-.49 1.68.44 3.09-.04 4.56-1.75-.73-1.32-3.31-3.23-3.83-.31 1.13.36 2.61.05 3.74-1.42-.8-1.66-2.51-3.33-3.01-.73.84-.37 2.56-.43 3.94-1.5-.24-1.79-2-2.8-2.86-.59 1.33.11 3.68-.1 5.31-1.53-.73-1.93-2.58-3.78-2.92-.88 1.57-.85 2.36-1.38 4.58-1.58-.54-2.24-1.8-3.6-2.61-.76 1.03-.97 3.47-1.79 4.46-.69-.87-1.07-2.11-1.6-3.17-1.33.9-1.05 2.49-2.56 3.25-.66-.48-.55-.73-.84-1.43-.19-.46-.73-2.58-1.45-2.6-.59 1.17-1.09 2.89-1.51 4.2-1.49-.58-1.87-2.83-2.85-4.06-.45 1.95-.8 2.88-1.09 4.24-.76-.09-1.73-1.38-2.47-2.6-.26.36-.55.73-.83 1.08-.35.43-.68.82-.94 1.1-.28.29-.48.46-.52.39-.56-.87-.86-1.85-1.13-2.64-.1-.3-.2-.58-.3-.81-.25.28-.55.67-.87 1.05-.39.47-.82.93-1.27 1.2-.27-.25-.54-.6-.82-.96-.27-.35-.55-.69-.83-.98-.14-.15-.29-.29-.43-.38-.7.55-1.46 1.62-2.31 2.02-.35-.91-.86-2.96-.86-2.96s-.96 1.46-2.14 2.09c-.4-.67-.62-1.82-1.06-2.63-.27.22-.51.42-.73.62-.38.35-.71.68-1.08 1.02-.27.24-.55.49-.9.75-.75-1.41-.25-2.8-1.17-4.01-1.25.88-1.66 2.24-2.84 3.18-.85-1.34-.9-3.2-1.82-4.05-1.62.97-2.4 2.6-3.33 4.09-.83-.54-1.78-2.57-2.22-3.59-2.07.38-2.54 2.29-3.85 3.3-1.18-.67-.92-3.11-1.75-4.21-1.98.4-2.75 1.79-4.32 2.52-1.05-.76-1.02-2.57-1.37-3.61-1.65.84-1.97.96-3.12 2.21-.58-1.25-1.53-2.85-1.57-4.11-.2.08-.37.16-.54.24-.77.4-1.19.85-1.74 1.32-.08.07-.17.14-.26.21-.18.14-.38.29-.62.43-1.3-1.59-2.22-3.4-3.12-5.47.05 0 .2.09.44.2.04.02.07.03.12.05.57.26 1.56.64 3 .7 1.14.05 2.26.35 3.38.57.79.16 2.7.5 3.55 1.11.37.26.75.48 1.12.67.07.03.13.07.19.1 1.29.61 2.45.8 2.73.87 1.09.24 2.18.36 3.29.21 1.67-.23 3.1-.3 4.74-.65.33-.07.65-.13.99-.14 1.68-.02 3.36.07 5.03.06 1.55 0 2.98.36 4.43.84 1.37.46 2.68 1.06 4.09 1.43.61.16 1.24.29 1.82.58 2.11 1.04 4.37.99 6.61.68 1.22-.17 2.39-.53 3.54-.96.96-.35 1.9-.74 2.85-1.14.39-.17.8-.29 1.21-.4 1.48-.38 3.03-.39 4.53-.08 1.33.27 2.55.58 3.88.78 1.86.29 3.75-.04 5.59-.48.46-.11.92-.21 1.32-.49 1.25-.89 2.68-1.15 4.18-1.32 2.4-.26 4.67-.96 6.73-2.26.97-.61 1.88-1.3 2.81-1.95 1.96-1.36 4.23-1.42 6.5-1.27 1.23.08 2.46.31 3.69.4 2.19.17 4.35-.06 6.47-.66.62-.17 1.2-.42 1.76-.73.7-.39 1.43-.73 2.25-.84.8-.11 1.35-.67 2-1.08 1.13-.72 2.32-1.35 3.52-1.97.74-.39 1.5-.82 2.3-1 .99-.23 2.04-.28 3.06-.29 1.34-.01 2.7.05 3.83.92.48.37.91.8 1.4 1.16 2.33 1.7 3.2 3.97 2.72 6.8-.1.56-.51 2.49-2.39 3.07-1.63.5-3.24.76-4.89.98-.59.08-1.09.23-1.59.5-1.01.53-1.75 1.33-2.32 2.31-.29.49-.7.86-1.23 1.16-.77.43-1.6.69-2.37 1.07-1.94.96-3.97 1.17-6.06 1.21-1.2.03-2.27.48-3.29 1.04-1.28.71-2.17 1.89-3.21 2.88-.39.37-.81.72-1.13 1.15-.66.89-1.47 1.56-2.52 1.94-.34.12-.66.32-.93.59-.75.74-1.66 1.24-2.62 1.65-.83.36-1.65.71-2.48 1.07-1.26.55-2.53 1.05-3.87 1.35-1.96.45-3.87-.14-5.81-.17-.83-.01-1.73-.33-2.48.03-1.09.53-2.27.82-3.34 1.38-.32.17-.69.28-1.05.34-.49.08-.88.32-1.24.63-1.33 1.13-2.85 1.9-4.51 2.37-2.21.63-4.45 1.17-6.66 1.79v-.02c-.41.11-.82.22-1.22.34-1.18.35-2.38.69-3.45 1.36-2.45 1.53-4.9 3.05-7.16 4.86-2.09 1.67-4.42 2.9-7.03 3.58-.13.03-.26.08-.37.14-1.04.57-2.16.72-3.33.55-.34-.05-.66-.06-1-.02-1.35.13-2.7.26-4.04.33-1.84.11-3.54.73-5.27 1.21-.92.25-1.81.68-2.77.88-.53.11-1.07.21-1.55.45-1.35.66-2.82.6-4.23.67-1.43.06-2.88-.06-4.32-.13-.39-.02-.76-.12-1.02-.37-.84-.81-1.88-1.3-2.84-1.92-.18-.12-.37-.23-.48-.42-.51.08-.85-3.02-.97-3.35-.63-1.62.02-3.07.31-4.24.13-.66.2-1.35.34-1.91M125.4 256.09c.39 2.01.59 2.23 1.25 4.34-.41-.08-1.02 0-1.29-.09-.54-.18-1.07-.39-1.61-.58-.86-.29-1.08-.25-1.37-1.1-.58-1.7-1.22-5.64-1.22-5.64l3.66.81s.43 1.52.58 2.26M225.4 54.4c.03.16.16.17.21.3 2.25.86 4.67 1.24 6.7 2.11.64.27 1.17.82 1.87 1.21 2.61 1.45 5.64 1.84 8.24 3.37-1.54.59-2.65-.55-3.85-1.06-2.55-1.08-5.29-1.49-8.03-2.07-1.31-.28-2.65-.96-4.15-.84 3.21 1.95 7.22 2.78 10.87 4.12-.81.65-1.66-.1-2.55-.26-6.33-1.16-14.44-.51-21.83 1.64-.01-.53.56-.82.99-1.16 2.06-1.64 5.42-2.26 8.72-3.06-2.67-.83-6.58.05-9.59-.31.84-.12 1.38-1 2.29-1.37 1.77-.72 4.12-.5 5.8-1.43-2.62-1.09-6.74-.13-10.08-.23 1.38-1.64 4.05-2.36 6.52-3.22-4.38-1.02-9.81 1.29-12.47 3.66-.01-1.35 1.05-1.66 1.67-2.11.96-.7 1.98-1.83 2.98-2.32 3.82-1.86 7.77-1.2 10.53-1.18 1.67.01 3.16-.09 4.56.28 2.09.55 4.6 1.55 6.26 2.52.25.14.46.51.78.71 2.19 1.35 4.37 2.65 6.63 3.8 2.37 1.21 4.79 2.14 7.32 2.85-1.88.32-3.59-.54-5.18-1.01-5.18-1.52-9.16-4.88-15.21-4.94M7.68 48.84c.15.08.44.26.65.4.22.15.44.32.64.49.24.21.5.49.74.78-2.05.6-3.84 1.54-5.13 2.65-.44-.5-1.09-.71-1.34-1.46.58-.95 2.49-2.06 4.44-2.86M138.02 226.2c.67.04 1.54.4 1.54.4l.24 4.42c-.62.03-4.09-1.31-4.09-1.31s1.97-2.62 2.31-3.51M276.28 210.74c-.35-.25-.71-.48-1.06-.73.04.01.07.03.1.05.31.24.64.45.96.68M227.2 94.74c.54.38.92.99 1.4 1.45 2.41 2.29 5.09 3.94 8.06 5.41-.66.53-1.47-.1-2.06-.34-2.21-.91-4.03-2.1-6.15-2.87-1.57-.57-3.35-1-4.8-1.75-1.2-.62-2.1-1.42-3.3-1.82-.98-.32-3.13-.45-4.15-.84-.14-.05-1.14-.36-.62-.74 2.83-.18 5.55.43 8.2 1.03-1.02-1.01-2.62-1.13-3.96-1.71-.6-.26-1.01-.73-1.65-.91-.8-.22-1.8.14-2.44-.61 3.81-1.07 6.36.65 8.83.77-1.55-1.21-4-2.12-5.82-2.92-.55-.24-1.82-.69-1.35-1.12 2.7-.01 4.92.65 7.22 1.19-2.25-1.91-5.22-3.15-8.15-3.89-.99-.25-2.38-.14-3.15-.84 2.45-.32 4.75-.62 6.82-.25 1.62.28 3.5 1.4 5.04 2.21 1.69.88 3.44 1.85 4.63 2.78 3.1 2.41 4.69 6.4 7.35 9.37 1.47.76 2.72 1.82 4.11 2.69-7.01-1.15-8.55-9.84-15.77-10.71.44.83 1.34.74 2.03 1.18 2.66 1.7 4.14 4.87 6.61 6.81-3.11-1.16-5.24-4.72-8.64-4.82.25.9 1.09.82 1.71 1.25M125.02 271.09c-.04-.33-.77-2.85-1.08-4-.31-1.14-.72-2.42-.9-3.78 1.27.4 3.26.66 4.94 1.05 1.16 2.25 3.23 5.42 4.85 7.37.11.14.19.31.3.48-.16.09-.25.16-.34.17-2.37.25-3.35.46-5.63-.22-.8-.23-2.04-.26-2.14-1.07M280.16 213.31c-.02-.01-.04-.02-.06-.04.01.01.03.01.04.02.01.01.01.02.02.02M280.8 213.69c-.21-.12-.43-.25-.64-.38.21.13.42.26.64.38M279.58 212.97c.17.1.34.2.52.31-.17-.11-.34-.2-.52-.31M170.12 58.51c-.56-.14-1.15-.25-1.71-.07-.24.08-.48.16-.73.23-.73.23-1.48.46-2.18.81-.04.02-.08.04-.12.07-.19.11-.51.31-.73-.05-.2-.32.07-.5.22-.62.06-.04.11-.08.15-.12.07-.07.16-.14.28-.19 1.41-.64 2.73-.93 4.03-.89.87.03 1.5.22 1.99.62l.06.05-.14.42-.5-.12c-.19-.03-.4-.08-.62-.14M167.95 55.78c-.08.05-.17.07-.27.05-.1-.02-.19-.09-.24-.19-.13-.25.03-.42.16-.56.71-.73 2.75-1.05 3.65-.56.19.1.4.26.38.57v.06l-.05.03c-.01.01-.03.02-.04.03-.04.03-.09.07-.15.08h-.05c-1.04-.2-2.27-.29-3.39.49M145.33 61.48l.15-.76c.19-1.02.39-2.07.81-3.05.12-.28.27-.64.67-.7.29-.05.47-.23.68-.42.08-.08.17-.16.25-.23.07-.06.15-.12.22-.17.53-.43 1.07-.87 1.89-.94l.15-.01-.04.15c-.01.05-.02.09-.03.12-.01.06-.02.1-.05.13-.06.06-.12.1-.18.14-1.74 1.06-2.7 2.3-2.99 3.93-.07.36-.18.71-.3 1.05-.11.32-.22.64-.28.97-.04.21-.15.4-.27.58-.06.1-.2.14-.29.15-.02 0-.04.01-.05.01-.09.01-.25-.02-.29-.3-.01-.04-.01-.08-.02-.13-.04-.18-.07-.35-.03-.52M164.23 63.24c.3-.2.62-.39.92-.58.32-.19.64-.39.95-.6.27-.18.54-.31.85-.39.47-.12.95-.25 1.42-.38.5-.14 1-.27 1.5-.4l.14-.04c.4-.1.82-.21 1.29-.19l.11.01-.01.11c-.03.33-.09.73-.33.92-.12.1-.26.13-.43.12-.41-.04-.8.06-1.18.16-.15.04-.3.08-.45.11l-.28.06c-.82.16-1.68.33-2.4.86-.45.33-.92.58-1.43.85-.55.29-1.12.59-1.67 1.01l-.27.2.1-.32c.25-.81.71-1.2 1.17-1.51M151.24 64.05c.15.06.28.13.38.22 1.34 1.14 2.9 1 4.1.77 1.14-.23 2.47-.6 3.69-1.56l.18-.14v.23c0 .74-.37 1.04-.74 1.23-.51.26-1.07.53-1.69.71-.67.19-1.35.31-2.02.41l-.39.06c-.26.04-.52.08-.77.12h-.01c-.83.13-2.79-.68-3.24-1.35-.15-.22-.11-.38-.04-.49.12-.22.33-.3.55-.21" transform="translate(-1124 -2115) translate(-18 1623) translate(1142 492)"/>
                    <path fill="#FF674C" d="M168.17 49.87c-.57.31-1.07.32-1.62.18-.91-.23-1.81-.48-2.78-.4-1.51.12-3.02.17-4.53.23-1.7.08-3.43.03-4.95 1-1.06.07-1.96.7-3 .87-2.03.33-3.84 1.23-5.65 2.13-.41.2-.74.46-.93.88-.08.18-.17.39-.33.5-.81.57-1.41 1.33-1.97 2.12-.94 1.32-2.11 2.45-3.17 3.66-.64.73-1.41 1.37-2.12 2.06.8-1.57 1.85-2.99 2.69-4.51.65-1.17 1.06-2.49 2.38-3.14 1.2-1.64 3-2.58 4.52-3.84.28-.23.62-.38.98-.51 2.11-.79 4.28-1.42 6.46-1.97 1.92-.49 3.84-.87 5.86-.89 2.57-.03 4.97.74 7.43 1.25.24.06.45.24.73.38M148.72 44.48c-1.22.25-2.45.4-3.68.44-1.22.04-2.31.33-3.22 1.16-.3.28-.64.48-1.03.61-1.06.35-1.46 1.52-2.4 2.03-.02.01-.03.06-.04.09-.24.86-.8 1.55-1.28 2.27-.86 1.29-1.86 2.45-3.68 2.24-.36-.04-.73.07-1.1.1-.18.02-.4.16-.5-.12.49-.53.5-.51 1.61-.88 1.04-.34 2-.81 2.61-1.79.37-.6.75-1.21 1.03-1.85.77-1.77 2.14-2.76 3.91-3.39 1.71-.62 3.47-1.08 5.22-1.55 1.17-.32 2.23-.07 3.29.54-.3.03-.52.05-.74.1M130.8 59.91c-1.29.47-2.35 1.3-3.41 2.15-.41.33-.63.71-.85 1.13-.1.18-.26.27-.45.16-.15-.08-.18-.23-.11-.39.1-.25.26-.5.15-.78-.26-.63.05-.98.5-1.37.34-.29.62-.66.98-.93.45-.35.92-.71 1.53-.63.53-.16 1.04-.1 1.55-.05.22.02.45.08.5.31.06.29-.2.33-.39.4M118.31 66.35c.9-.3 1.83-.37 2.75-.49.59-.08 1.18.14 1.73.71-.89.43-1.72.6-2.56.66-.54.04-1.05.17-1.38.58-.32.4-.83.61-1.07 1.08-.08.15-.23.29-.45.15-.18-.11-.26-.29-.16-.46.27-.46.28-.98.4-1.48.09-.39.3-.6.74-.75M120.08 58.43c-.6.09-1.17.26-1.71.56-.52.29-1 .68-1.63.73-.16.01-.26.13-.35.26-.1.15-.21.3-.33.42-.1.1-.22.24-.38.08-.09-.09-.07-.22-.01-.33.17-.29.38-.56.49-.87.29-.83.95-1.28 1.69-1.56.59-.22 1.23-.34 1.87-.32.65.02 1.33.02 1.89.69-.58.22-1.06.27-1.53.34M109.63 64.25c.06-.06.15-.1.24-.12.4-.12.81-.27 1.22-.34.7-.12 1.36-.05 1.96.64-.35.13-.68.14-.77.3-.46.75-1.32.77-1.97 1.16-.6.36-1.46.28-1.78 1.1-.06.14-.23.2-.39.1-.15-.09-.21-.27-.14-.39.51-.84.91-1.75 1.63-2.45M98.58 73.39c-.12.13-.28.34-.45.26-.49-.25-.76.16-1.1.32-.31-.3-.21-.62-.06-.86.3-.47.24-1.11.82-1.45 1.08-.63 2.24-1.02 3.46-1.24 1.19-.21 1.98.36 2.69 1.27-.48.3-.91.44-1.41.4-1.5-.13-2.88.12-3.95 1.3M112.3 72.8c.11-.09.28-.1.42-.16 1.91-.83 3.98-.88 5.98-1.3.44-.09 1.02.18 1 .43-.02.43-.41.61-.73.72-1.84.59-3.66 1.23-5.74 1.7-.04.01-.28.07-.52.08-.41.02-.95-.41-1.05-.86-.1-.51.42-.42.64-.61M98.4 64.87c.05-.75.53-1.26.88-1.83.04-.07.15-.09.24-.12 1.41-.54 2.78-.52 4.09.33.17.11.44.17.32.46-.09.22-.17.48-.5.43-.7-.11-1.38.11-2.07.14-1 .03-2 .08-2.96.59M83.14 73.76c.8-.15 1.45.08 2.12-.04.21-.04.52.14.49.42-.04.35-.33.25-.56.18-.38-.11-.77-.17-1.13.08-.39.27-.84.32-1.29.38-.44.06-.92.04-1.23.46-.12.17-.31.21-.47.07-.22-.2-.05-.36.07-.55.51-.76 1.41-.73 2-1M89.05 70.04c.88-.62 1.82-1.2 2.92-1.27.39-.04.76-.08 1.12-.11.29-.03.52.09.72.3.22.23.22.45-.06.58-.32.15-.64.32-1 .41-1.42.36-2.71.98-3.8 1.98-.11.1-.2.25-.38.15-.17-.09-.28-.25-.26-.44.05-.62.25-1.26.74-1.6M94.74 77.14c.97-.36 1.97-.34 2.95-.24 1.34.13 2.64.05 3.93-.29.39-.1.76-.13 1.12.18-.06.22-.25.34-.42.42-.51.25-1.03.49-1.59.66-1.1.34-2.24.28-3.36.39-.89.09-1.78.12-2.63.5-.68.31-1.42.47-2.1.8-.04-.04-.08-.09-.13-.13.41-.51.83-1.02 1.23-1.55.27-.36.58-.59 1-.74M82.66 67.4c-.49-.12-.79-.11-1.07.32-.13.2-.35.42-.6.25-.3-.2-.02-.42.08-.61.08-.16.23-.29.3-.46.23-.6.68-.89 1.31-.95.18-.02.35-.1.7-.2.03 0 .24-.06.45-.07.52-.03 1.03 0 1.5.24.27.14.35.34.07.55-.82.62-1.68 1.18-2.74.93M77.04 70.43c.23.13.38.29.31.55-.06.25-.27.22-.48.2-1.02-.08-2.01-.06-2.64.95-.05.08-.15.13-.24.17-.19.08-.32 0-.38-.2-.04-.34.21-.55.35-.81.47-.88 2.11-1.42 3.08-.86M66.47 67.45c.47-.13.89-.44 1.44-.3.39.1.58.28.63.66.08.6-.1 1-.56 1.12-.36.1-.74.05-1.08-.06-.46-.14-.46-.61-.57-.99-.05-.17-.06-.38.14-.43M180.4 8.34c3.1 2.16 7.7 2.25 12.54 2.02-3.38 1.13-7.87 1.03-10.53 1.18 1.49 1.48 4.68 1.13 7.19 1.03.36-.01 1.15-.49 1.36.12-2.49 3.27-9.98 2.36-12.09 2.93-4.5 1.22-7.84 3.63-10.37 6.34-.44.51.16-.98.31-1.22.92-1.52 2.95-3.06 4.81-4.45 1.94-1.45 4.32-2.23 6.33-3.35-4.62.36-7.47 1.99-10.3 3.65.89-2 3.22-3.34 5.54-4.07.81-.25 1.85-.25 2.53-.91-4.48-.22-8.54 2.11-11.03 4.27.46-3.04 3.58-4.14 6.32-5.53-4.99.33-7.1 2.75-9.98 4.61.57-2.43 2.58-3.81 4.33-5.38-2.44.68-3.65 1.46-5.62 2.57-1 1.01-2.35 2.62-3.47 3.16-.03-.07-.06-.15-.08-.22.66-1.9 1.96-2.85 3.86-4.17 1.36-.95 2.68-2.04 3.77-2.61 4.33-2.26 10.27-1.97 14.71-1.18 3.92.7 7.67 1.21 11.71.98.78-.05 1.32-.5 2.17-.01-4.66 2.05-9.64.48-14.01.24M179.7 18.97c1.89-.86 4.1-1.72 5.81-1.1-3.21 1.53-6.27 3.43-10.07 4.25.64-1.16 2.52-2.36 4.26-3.15M226.86 38.72c-1.57-.93-3.51-1.55-5.37-2.16-1.82-.6-3.79-1.49-5.72-1.26 4.39 1.98 8.56 4.25 13.44 5.56-3.6-.11-6.4-1.18-9.2-2.05-.69-.21-1.52-.6-2.23-.31 1.17.99 2.73 1.68 4.22 2.34 1.95.86 4.25 1.47 6.18 2.03-2.26-.3-4.64-.32-7.25-.35-2.62-.03-6.17 0-8.89.92-2.44.82-4.57 2.48-6.41 2.86.23-1.02 1.45-1.68 2.32-2.21 2.04-1.23 4.73-2.06 7.22-2.99-1.67-.05-4.76.2-6.44.53-.9.17-1.78.86-2.45.39 1.64-1.53 5.4-2.21 7.95-2.61-2.1-1.21-7.02-.13-9.27.64-.36-.41.9-.89.93-1.49 1.04-.23 2.21-.94 3.49-1.23.79-.18 1.82.02 2.26-.53-2.57-.57-5.88.49-8.87 1.08-.09-2 3.35-2.66 5.84-3.28-1.38-.92-4.01-.34-5.68.07-3.4.84-6 3.31-9.05 4.12 2.48-4.93 9.32-6.5 15.84-6.71 4.56-.15 7.64.63 10.86 1.95 1.9.78 3.48 2.15 5.36 3.16 1.63.88 3.57 1.15 5.18 2.02-.26.26-2.72-.84-4.26-.49M240.04 78.32c-2.43-1.76-5.21-3.78-7.27-5.7-.46-.43-.77-1.1-1.24-1.48-.96-.77-2.6-1.59-3.87-2.23-1.44-.72-2.9-1.58-4.17-2.01-.67-.23-2.07-.1-2.14-.83 2.35.58 4.47.55 6.43 1.48 1.12.54 2.55 1.86 3.57 2.44 1.1.63 1.93 1.19 2.95 1.71.85 1.28 1.93 2.25 3.16 3.01 1.39 2.53 4 3.37 5.72 5.45-1.16-.32-2.15-1.13-3.14-1.84M237.47 86.28c-2.86-.19-4.69-1.64-6.67-2.91-1.11-.71-2.28-1.41-3.5-1.99-3.57-1.7-7.53-3.57-13.1-2.36.61-.91 1.47-1.31 2.8-1.4 1.53-.1 3.55 0 5.14.29 1.74.33 3.23.97 4.43.88-2.49-2.24-6.69-2.13-10.05-3.17.91-.69 2.21-.37 3.31-.21 2.43.35 4.72.87 6.73 1.31-2.34-1.16-4.97-2.78-7.8-3.05-1.02-.1-2.21.34-3.23-.28 3.9-1.49 7.93-.17 11.07.62-3.52-2.78-8.25-3.87-14.46-2.94 1.73-1.97 5.93-1.91 8.35-1.49 1.4.24 2.51.56 3.63.85.72.18 1.45.14 1.96.32 1.24.45 2.16 1.43 3.03 2.06.46.33.98.4 1.39.73 2.13 1.7 3.81 4.07 5.74 6.08 1.98 2.06 4.34 3.29 6.65 4.82-.9.11-1.61-.52-2.37-.89-.75-.37-1.71-.6-2.39-1.05-.76-.49-1.28-1.31-2.05-1.9-.74-.56-1.71-.96-2.47-1.51-1.79-1.3-3.36-3.2-5.81-3.52 3.43 2.58 6.76 6.36 10.29 8.69.35.23 1.42.46 1.13 1.09-3.3-1.12-5.63-3.66-8.33-5.35-.9-.56-1.9-1.37-3.09-1.42 3.09 2.77 5.96 5.81 9.67 7.7M212.17 110.34c.11.03-1.08-.01-.4-.44 6.63-.19 11.34 2.28 15.59 5.38-3.62-1.52-7.77-3.38-11.9-4.29-.99-.22-2.3-.35-3.29-.65M220.62 109.83c-.76-.39-1.31-1.08-2.08-1.51-1.85-1.02-3.82-1.61-5.91-2.41 1.9-.22 3.55.29 5.13.69 1.63.41 3.13 1.16 4.69 1.09-1.98-2.52-5.12-3.43-7.82-4.94 1.14-1.09 2.86-.3 4.21.16 1.45.5 2.84 1.25 3.77 1.57-.44-1.75-2.45-2.48-3.54-3.29-.46-.34-.77-.88-1.19-1.15-.36-.24-1.34-.07-1.13-.82 4.31.38 6.83 3.44 9.36 6.21 2.58 2.82 5.29 5.67 7.58 8.67 1.21.72 2.15 1.81 3.41 2.47-2.79-.16-4.28-2.21-5.82-3.93-2.26-2.52-4.6-5.06-7.54-6.33.36.71 1.06 1.21 1.62 1.75 1.65 1.59 2.98 3.35 4.5 5.14.98 1.15 2.04 1.99 2.83 3.06-.78-.74-1.88-.87-2.76-1.57-1.35-1.07-2.35-2.92-3.67-4.1-1.06-.95-2.39-1.95-3.63-1.76.8.96 2.47 1.77 2.64 2.93-1.42-.96-3.15-1.16-4.65-1.93M199.28 91.75c1.18 2.32 3.96 5.22 6.61 10.1-4.46 1.21-12.57-.5-14.43-5.74 2.97 2.15 6.33 3.99 7.67 4.35-1.15-1.16-2-2.27-3.11-3.42-1.21-1.75.22-.76.13-.91-.07-.12 3.34 3.54 5.7 3.99-.77-.89-1.95-2.11-2.21-2.62-.29-.58-1.06-2.19-1.03-2.31.03.02.22-.36.88.56 1 1.39 2.29 2.62 3.23 3.37-1.32-3.36-3.63-5.11-3.44-7.37M187.89 114.14c.94.27 1.04 1.22 1.64 1.85 1.4 1.5 3.54 2.66 5.42 3.7 2 1.1 4.2 1.94 6.48 2.45-2.85-1.99-5.86-3.79-8.28-6.28 1.6.83 3.03 1.79 4.52 2.78 1.95 1.28 3.8 3.06 6.38 3.29-.73-1.11-2.07-1.53-3-2.4-1.13-1.07-1.97-2.44-3.1-3.55-.78-.77-1.83-1.2-2.49-2.11 5.17 2.08 7.08 7.99 13.28 8.85-1.31-1.24-3.41-1.88-4.74-3.42-.86-.99-1.41-2.45-2.11-3.63-.58-.97-1.26-1.85-1.85-2.5-.01-.01-.45-.26-.43-.46.01-.05.06-.1.14-.14.02-.01.04-.03.07-.04 3.63 1.91 4.91 7.54 8.64 8.73-2.84-2.96-4.4-7.42-7.43-10.15 1.1.02 1.98 1.28 2.83 2.25.92 1.05 1.57 2.44 2.39 2.95-1.28-3.59-3.31-6.3-5.2-9.17 0-.1.01-.2.15-.18 2.92 1.78 4.71 4.77 6.12 8.27 1.42 3.49 3.14 6.64 5.52 8.98.96.26 1.44 1.06 2.12 1.65-.81-.05-2.18-.25-2.81.06-4.22-1.18-8.89-1.46-12.98-3.09-4.46-1.78-9.28-4.38-11.28-8.69M187.63 155.73c1.17 2.2 2.48 3.71 3.57 5.61-2.35-.64-4.2-2.2-6.24-3.51-1.03-.66-2.12-1.16-3.13-1.84-1-.67-1.9-1.49-2.86-2.21-2.87-2.15-5.61-4.63-7.86-7.43-.72-.9-2.01-1.81-1.85-3.21 3.57 4.34 7.68 7.94 12.25 10.9-.03-.16-.16-.17-.21-.3-.95-1.51-2.58-2.81-3.71-4.42-.55-.78-.91-1.75-1.42-2.61-.43-.74-1.38-1.56-.9-2.53 1.46 1.82 2.73 4.52 4.18 6.34.4.5 1.1 1.49 1.86 1.21-1.78-2.27-3.28-5.46-4.39-8.65-.39-1.14-1.2-2.26-.82-3.04 1.45 3.42 3.06 6.73 4.84 9.41.64.96 1.19 2.04 2.1 2.67-2.69-4.93-3.24-11.59-5.68-16.79.71.46 1.2 1.44 1.53 2.26 1.56 3.86 2.51 9.04 4.63 12.28-.55-4.72-.9-9.32-1.97-13.37 1.17.71 1.64 2.6 1.98 4.02.69 2.88.54 5.89 1.21 8.65.63 2.56 1.84 4.59 2.89 6.56M148.5 125.99c-.56-1.14-1.33-1.99-1.81-3.23 2.23-.28 1.99 2.85 3.68 3.31-.23-4.97.63-9.14 3.27-12.02.02-.15.12-.23.33-.24-1.5 4.19-3.13 8.29-1.34 14.87.47.65 1.36 1.72 1.16 2.6-1.61-.13-2.21-1.66-3.81-1.8-3.33-3.28-7.63-5.21-9.47-10.54 1.15-.21 1.5 1.15 1.94 1.73 1.76 2.28 3.79 3.96 6.05 5.32M136.29 145.02c-.24-.83.28-1.12.04-1.95.64-.06.7.13 1.2-.19.01 1.01.23 2.18-1.24 2.14" transform="translate(-1124 -2115) translate(-18 1623) translate(1142 492)"/>
                    <path fill="#FF674C" d="M143.46 139.69l.52-.08c-.76 7.21-5.2 11.76-10.77 15.48-.48-3.86-.17-9.36-1.63-13.51.76-.04.73 1.07.96 1.61.87 2.05 1.32 6.7 2.14 8.56 1.61-.99 2.71-2 3.82-3.11.23-.23 1.53-1.75 1.67-1.91 1.66-1.94 2.37-4.51 3.29-7.04" transform="translate(-1124 -2115) translate(-18 1623) translate(1142 492)"/>
                    <path fill="#FF674C" d="M136.73 147.77c-.63.1-.98-.19-1.31-.5.41-.21.33-.78.52-1.14.42-.09.83-.16 1.06.01.47.45-.33 1-.27 1.63M187.52 174.45c2.85 1.16 5.31 2.87 8.57 3.47-2.24-1.38-4.25-3.53-6.17-5.19-.63-.54-1.8-1.04-1.67-2.07 4.05 2.82 7.78 7.15 12.52 8.35-2.3-1.62-4.64-3.4-6.57-5.63-1.92-2.21-4.39-4.28-5.18-7.35.6.31.88.95 1.24 1.47 2.7 3.9 6.03 7.35 9.88 9.61-2.29-2.6-5.03-5.63-5.05-10.71.86 2.64 1.69 4.69 3.02 6.36.73.92 1.61 1.9 2.37 2.29-1.57-2.84-2.23-6.75-2.66-10.43-.05-.37-.39-1.12.12-1.35 1.18.8 1.04 3.15 1.43 4.78 1.04 4.34 3.17 8.26 5.26 11.01.81.47 1.83.65 2.4 1.45-.79.84-1.77 1.09-2.99 1.14-2.6.12-5.46-.74-8.33-2.01-2.9-1.26-6.66-2.41-8.19-5.19M191.04 154.17c2.32.97 4.85 1.66 7.25 2.52-.02-.16-.16-.17-.21-.3-1.49-.74-3.06-1.69-4.45-2.8-1.24-.99-3.07-2.36-3.01-4.19 1.21 1.53 2.75 2.71 4.28 3.82 1.54 1.12 3.04 2.58 4.97 2.88-.37-1.15-1.57-1.57-2.37-2.29-.82-.74-1.64-1.64-2.4-2.46-1.54-1.66-2.99-3.53-4.38-5.48.6-.33.85.57 1.13.82 3.8 3.34 7.46 8.35 11.77 9.97-3.57-2.35-5.87-6.78-8.33-10.36-.72-1.05-1.59-2.08-1.82-3.05 4.61 3.71 6.71 10.87 12.16 13.42-2.96-3.27-5.78-7.78-6.77-13.11 2.35 4.26 4.46 8.67 7.26 12.03.99 1.18 2.19 2.07 3.04 3.35-.42.8-1.99.77-3.18 1.01-5.47-1.23-11.09-2.29-14.94-5.78M155.78 177.91c3.33 3.94 6.42 8.23 8.55 13.83-.09-1.58-.08-3.49-.51-5.26-.36-1.52-1.6-3.16-.49-4.1.99 2.27 1.73 4.9 2.52 7.44.16-2.63-.25-6.23-.4-8.78-.05-.85-.35-2.06.1-2.52 1.23 4.16 1.25 9.44 1.38 12.8 1.24-3.13 1.15-7.99 1.33-11.56.03-.6-.36-1.58.36-1.89.24 1.36.41 2.99.56 4.58.35 3.51-.35 6.68-.9 8.99 2.14-3.53 2.87-8.09 4.99-11.65.13 2.93-.49 5.73-1.36 8.23-.8 2.3-2.05 5.18-3.22 7.02-.52.82-1.54 1.66-2.1 2.56-.14.23-1.6 1.71-2.14 2.29-.9-2.1-.77-4.36-1.36-6.46-1.65-5.88-5.15-10.24-7.46-15.34.01-.09.01-.19.15-.18M151.23 160.03c-.47-.21-.53-1.02-.66-1.73.31-.02.33-.25.62-.28.4.75 1.17 1.64.04 2.01" transform="translate(-1124 -2115) translate(-18 1623) translate(1142 492)"/>
                    <path fill="#FF674C" d="M146.58 153.98c1.19 3.67 2.54 6.48 4.48 8.77 1.18 1.39 2.54 2.67 3.87 3.66-.27-2.4-3.48-3.61-2.22-5.65.9.83 1.33 2.34 2.66 2.54-.87-2.32-3.48-5.32-2.45-7.8.37 1.48 1.14 2.8 1.76 4.05.66 1.35 1.15 2.73 2.05 3.83-.31-3.45-2.37-8.46-1.73-12.14.01-.13.1-.21.3-.22.11.22.25.24.09.49.16 2.79 1.09 6.59 1.94 8.73.18.45.21 1.23.76 1.38-.81-2.91-.03-5.87.1-8.6.53-1.67.03-3.08 1.56-2.48-.12 3.1-.95 7.33-.37 11.68.61 4.62 2.17 7.82 3.99 10.71-4.46-1.06-7.79-3.87-10.71-6.95-2.45-2.59-4.76-5.52-5.99-9.67-.18-.61-.86-1.72-.09-2.33M177.49 191.55c.5-.14.28-.29 1.14-.18.77.19 1.11.2 2.13.83 1.07 1.18 2.73 1.68 3.96 2.87 1.2 1.16 2.09 2.85 3.25 3.65-.66-2.24-1.93-4.57-2.83-6.23-.26-.48-1.21-1.38-.45-1.76 1.59.92 2.9 3.94 4 6.21.37-3.72-2.45-6.23-2.08-8.85 1.42 2.14 2.41 4.88 3.66 7.26.04-2.71-1.19-5.07-1.41-7.79.55.05.62.77.86 1.2.7 1.24 1.26 2.43 1.65 4.08.72-2.69.41-6.41-.2-9.65l.49-.08.08.49c.87 1.78 1.22 4.61 1.39 6.62.36 4.26-.37 8.02-1.8 11.08-.62 1.33-1.35 2.54-2.21 3.58-.67-1.2-1.26-2.41-1.86-3.56-.86-1.66-1.74-3.21-2.94-4.52-2-2.2-4.44-3.61-6.83-5.25M219.38 202.7c1.51.3 2.99 1.1 4.33.98-2.94-2.35-7.52-4.16-9-7.24 1.3.57 1.99 1.85 3.1 2.68.9.67 2.31 1.37 3.13 1.84.41.23.82.25 1.24.47 2.53 1.31 4.86 2.94 7.86 3.25-3.65-2.07-7.67-4.47-10.54-7.5-.47-.49-.95-1.11-1.43-1.61-.97-1.03-2.26-1.99-2.55-3.43 4.77 5.07 9.85 9.71 16.75 11.85-2.47-2.42-5.92-3.73-8.33-6.18-1.41-1.43-2.84-2.58-2.92-4.71 1.78 2.51 4.35 4.99 6.92 5.74-.79-.69-1.12-2.11-1.55-3.42-.23-.7-1.14-1.6-.34-2.12.83-.22.68.91 1.05 1.34 3.06 3.84 6.08 7.3 10.18 9.39 1.36.7 2.98 1.02 4.13 2.13v.06c-1.8.62-3.7.96-5.58 1.09-3.14.21-6.23-.17-8.67-.82-1.56-.42-3.13-.82-4.54-1.28-1.45-.47-2.92-1.14-4.27-1.66-.78-.3-1.6-.53-2.3-.87-.66-.31-1.22-.72-1.56-1.35 1.37-.2 2.65 1.06 4.24 1.49.2.04.46-.16.65-.12M301.18 206.54c-1.36.49-3.07.8-4.28.83-.53.01-1.34-.08-1.81-.11-1.07-.07-1.7-.03-2.67-.1-.6-.05-1.23-.12-1.87-.22-1.92-.3-3.93-.81-5.62-1.36-.79-.26-1.53-.59-2.26-.94-2.18-1.07-4.16-2.4-6.51-2.85.02.01.03.03.05.04-3.73-2.35-6.56-4.8-7.39-5.36-.34-.66-.84-1.09-1.21-1.7-.09-.15-.18-.3-.25-.48-2.34-1.36-5.11-3.03-8.22-4.15-1.13-.4-2.3-.73-3.51-.94-1.21-.21-2.47-.3-3.76-.23-.42.02-.82.07-1.19.14-1.1.19-1.99.54-2.8.91-.34.15-.67.31-1 .46-.71.32-1.43.62-2.25.77.43-.47.89-.9 1.39-1.29 1.48-1.17 3.23-1.98 5.05-2.52.57-.17 1.11-.3 1.63-.39 3.6-.65 6.18.39 9.03 1.43l.09.03c5.34 1.94 9.9 5.32 14.31 8.45.01.01.02.01.03.02 1.49 1.06 2.97 2.16 4.49 3.22.76.53 1.52 1.04 2.29 1.54.77.49 1.56.96 2.36 1.39 3.85 2.07 7.96 3.67 13.04 3.12.73-.08 1.47-.2 2.24-.37.18-.04.36-.11.54-.19.18-.08.36-.18.54-.27.6-.3 1.17-.57 1.6-.15-.08.15-.21.3-.38.43-.4.3-1.01.59-1.7.84" transform="translate(-1124 -2115) translate(-18 1623) translate(1142 492)"/>
                    <path fill="#FF674C" d="M251.91 196.19c2.24.29 4.35.85 6.39 1.55 1.43.49 2.82 1.04 4.17 1.66 1.96.89 3.84 1.88 5.66 2.85 1.22.65 2.42 1.3 3.6 1.9.61.34 1.51.69 2.01.98.23.59.67 1.03 1.2 1.4.02.02.05.03.07.04.34.23.71.43 1.09.63.41.21.83.41 1.24.63.2.11.4.22.6.34.38.24.77.48 1.16.73 1.11.7 2.22 1.41 3.37 2.07 1.48.85 3.12 1.48 4.8 2.2 1.32.57 2.64 1.23 3.9 1.64.42.14.83.25 1.23.32.16.03.32.03.48.05 4.56.63 9.02-1.14 11.5-4.01.38.05.33.23.18.41-.05.06-.11.12-.17.17-.12.11-.24.19-.25.2-.2.28-.41.55-.62.82-.64.78-1.36 1.47-2.26 2.06-.45.29-.99.59-1.58.89-.8.41-1.68.79-2.53 1.08-.33.11-.66.21-.98.29-.29.07-.57.13-.83.17-.85.12-1.87-.21-2.83-.29-3.65-.31-6.44-.89-9.08-2-.01 0-.02-.01-.03-.01-.87-.36-1.72-.78-2.59-1.27-.41-.23-.81-.48-1.22-.72-.01 0-.01-.01-.01-.01-1.12-.69-2.21-1.42-3.27-2.2-.01 0-.01-.01-.02-.01-.32-.23-.65-.44-.96-.69-.04-.01-.07-.03-.1-.05-1.91-1.34-3.82-2.7-5.79-4-1.68-1.12-3.48-2.29-5.33-3.39-1.48-.89-2.99-1.73-4.51-2.46-.23-.11-.46-.22-.68-.33-2.97-1.41-6.13-2.87-9.34-3.17-.49-.05-.99-.06-1.48-.05-.44.01-.84.05-1.23.09l-.73.09c-.72.09-1.43.16-2.26.12.4-.18.79-.33 1.18-.46 2.42-.79 4.67-.54 6.85-.26M267.11 218.26c-1-1.22-1.98-2.37-2.92-3.52-.25-.31-.51-.61-.75-.92.1.07.19.16.29.24 3.77 2.82 7.28 6.55 10.05 11.1 1.8 2.97 3.55 6.42 4.9 10.17.44 1.23.85 2.49 1.2 3.79.23.85.44 1.72.62 2.59 1.24 6.03.73 14.46 3.42 19.11.06.1.14.22.22.34.73 1.06 2.23 2.59 2.8 3.11.05.04.11.1.14.13.38.32 1.13.72 1.17 1.13.01.06 0 .12-.03.17-.78.26-2.07-.95-2.82-1.69-.72-.72-1.45-1.49-2.09-2.35-.5-.67-.95-1.47-1.35-2.35-.06-.13-.12-.27-.18-.41-.23-.54-.45-1.1-.66-1.69-.15-.42-.29-.84-.42-1.27-1.14-3.75-1.85-8.11-2.54-11.44-.14-.67-.17-1.68-.59-2.36-.22-.35-.52-.62-1.01-.72-.3-1.53-.54-2.92-.9-4.49-.2-2.76-1.04-5.11-2.03-7.46-.05-.12-.09-.23-.14-.35-.22-.53-.45-1.02-.67-1.53-.27-.61-.54-1.22-.81-1.81-.41-.88-.84-1.73-1.31-2.52-1.09-1.83-2.33-3.46-3.59-5M263.43 219.57c1.37 1.69 2.59 3.6 3.68 5.68 1.82 3.46 3.31 7.39 4.63 11.54.35 1.29.66 2.76 1 3.92.35 4.42 1.08 9.65 2.34 14.45.42 1.6.9 3.15 1.44 4.61-2.5-4.27-4.23-9.61-5.89-15.05-.55-1.81-1.09-3.64-1.65-5.45-.41-1.76-1.09-3.38-1.15-3.71.33-.51.35-1.06.25-1.62-.09-.56-.29-1.13-.41-1.69-.53-2.5-.97-4.29-1.79-6.58-.5-1.38-.86-2.95-1.39-4.05-.04-.07-.08-.14-.13-.21-.01-.02-.02-.03-.03-.05-.02-.02-.04-.04-.05-.06-.11-.14-.24-.28-.36-.41-.07-.08-.14-.15-.21-.23-.25-.32-.43-.65-.28-1.09zM242.66 173.81c.38-.34.74-.68 1.07-.99 1.23-1.18 2.53-2.61 3.93-3.63.37-.27.74-.51 1.13-.71.52-.26 1.16-.51 1.86-.73.7-.22 1.47-.41 2.26-.57.39-.08.79-.15 1.19-.21 1.18-.18 2.35-.27 3.32-.24.57.02 1.14.09 1.71.17.52.07 1.03.16 1.53.28.79.18 1.57.4 2.34.67.92.32 1.81.7 2.67 1.14 2.99 1.51 5.61 3.61 7.49 5.8.61.72 1.17 1.53 1.68 2.38.85 1.41 1.53 2.94 1.83 4.48-.56-1.09-1.2-2.09-1.87-3.04-1.13-1.61-2.39-3.06-3.8-4.29-.56-.49-1.15-.95-1.75-1.38-.82-.59-1.7-1.1-2.6-1.57-.72-.38-1.47-.72-2.23-1.03-.37-.15-.74-.31-1.13-.45-1.81-.62-4.01-1.15-6.1-.87-.05.01-.11 0-.16.01-.55-.16-1.56-.33-2.08-.23-2.9-.04-5.11.78-7.01 1.98-.63.4-1.23.84-1.81 1.31-1.16.93-2.23 1.95-3.33 2.92-.83.73-1.67 1.42-2.58 2.03-.3.2-.61.39-.93.57.07-.8 1.83-2.39 3.37-3.8" transform="translate(-1124 -2115) translate(-18 1623) translate(1142 492)"/>
                    <path fill="#FF674C" d="M266.05 183.73c-.77-1.55-1.56-2.89-2.43-4.09-.74-1.03-1.54-1.94-2.4-2.79-.14-.14-.27-.3-.42-.44-1.23-.56-2.44-1.34-3.77-1.96-.33-.15-.67-.3-1.02-.43-1.05-.39-2.19-.63-3.46-.56-.54.03-1.04.11-1.52.22-.1.02-.19.05-.28.07-.33.09-.64.2-.95.32-.29.11-.58.24-.85.38-.07.04-.15.08-.22.11-.38.2-.74.42-1.09.65-.21.14-.43.28-.64.43-.94.69-1.82 1.46-2.76 2.15-.4.56-1.27 1.51-1.92 1.37.03-1.15 2.61-3.29 4.04-4.85.46-.5 1.46-1.21 1.96-1.68.25-.23.51-.43.78-.6 0 0 .01 0 .01-.01 1.98-.78 3.78-.57 5.92-.28.38.11.74.27 1.11.4 5.55 2 9.42 6.31 11.14 13.59-.88-.23-.9-1.35-1.23-2M142.39 199.41c.52.13.66.74.86 1.2.52 1.18.9 3.19 1.19 4.32.21.8.27 1.56.29 2.31.05 2.93-1.03 5.5-.63 8.1 1.8-.37 2.59-1.46 3.46-2.39.93-1 1.51-1.72 2.24-2.7.41-.55.85-1.05 1.09-1.51.39-.75.41-1.76 1.13-2.35.67.05.41 1.27-.65 3.28-.81.88-1.84 2.55-1.65 3.27 0 0 .13-.1.3-.21 2.63-1.55 3.98-4.33 5.47-6.55.03-.05.47-.94.76-.46.31 1.17-.67 2.3-1.3 3.38-2.05 3.53-5.23 6.63-10.27 7.82-.94.22-2.02.49-2.84-.05.54-2.81 1.2-5.53 1.41-8.58.18-2.63.03-5.49-.86-8.88M217.38 173.34c2.8 2.69 5.76 6.23 8.92 7.76-1.84-2.21-3.88-5.18-4.17-8.35 1.59 1.02 1.91 3.04 2.92 4.71.51.85 1.16 1.56 1.72 2.4 1.12 1.68 2.13 3.42 3.6 4.77.8.73 2.11.81 2.04 2.34-.83.19-1.62-.16-2.38-.29-.82-.14-1.81-.03-2.55-.26-.68-.22-1.22-.91-2.08-1.51-1.53-1.05-2.62-1.93-3.99-3.04-1.35-1.1-2.6-1.64-2.85-3.22 2.83 2.31 5.98 4.19 9.42 5.67-3.54-3.51-8.22-6.52-10.6-10.98zM122.65 133.05c.79-.85 1.71-1.37 2.66-2.04 1.04-.73 3.83-4.64 4.65-6.98l.52-.09c.11.23.26.25.09.52-.91 3.19-2.47 5.67-4.68 7.86-1.04 1.03-2.33 2.37-4.18 2.48-.27-.77.49-1.27.94-1.75M121.11 130.47c-.15-.66.03-2.38.13-2.87.43 0 .32-.38.83-.32.32.31.28 2.61.07 3.01l-1.03.18zM172.14 104.87c-.11-.42-.23-.84-.05-1.24 1.59 1.38 1.79 3.49 2.73 5.37.33-.35 1.16-3.4 1.46-4.48.1-.35.37-.5.82-.26-.04.43-.1.89-.12 1.34-.01.38-.55 5.1-.42 6.41.08.77.04 1.72-.08 2.19s-.83-.21-.95-.34c-1.34-1.43-2.18-2.16-4.02-4.21-.13-.14-1.69-2.5-2.01-2.9-.11-.13-.1-.93.54-.29.85.72 2.32 2.72 2.38 2.76.41.24.69.16.68-.31 0-.28-.1-.55-.17-.83-.25-1.08-.52-2.14-.79-3.21M143.75 178.25c-.09-.67.22-1.1.19-1.74l.87-.21c-.11.63-.02 1.39-.3 1.92-.1-.37-.62-.22-.76.03M144.79 174.92l-.73.18c-.05-.65-.12-1.31.01-1.85l.58-.14c-.06.54.27 1.31.14 1.81" transform="translate(-1124 -2115) translate(-18 1623) translate(1142 492)"/>
                    <path fill="#FF674C" d="M143.04 188.63c-.93.62-2.83 1.81-3.83 1.93-.06-1.75 1.06-3.02 1.15-4.99.15-3.15-1.01-6.98-1.41-10.21 1.58 2.89 2.11 7.52 2.42 11.08.39-.99.8-2.12.93-2.65.03-.13.13-.54.49-.74.05-.02.09-.05.14-.06.02 0 .05-.01.07-.01.02 0 .33-.1.29.29-.09.49-.19.95-.29 1.38-.12.53-.27 1.06-.42 1.59 3.64-3.94 4.63-10.28 5.8-15.62.41 5.69-1.46 10.31-3.23 14.62 1.6-2.4 3.5-5.04 4.81-7.66.81-1.61.57-3.61 1.91-5.01-.59 6.41-3.56 12.56-8.83 16.06" transform="translate(-1124 -2115) translate(-18 1623) translate(1142 492)"/>
                    <path fill="#FF674C" d="M143.12 181.32c.16-.73-.06-1.68.92-1.92.06.73-.03 1.64-.92 1.92M212.73 147.55c2.08.44 4.52 1.83 6.25 1.51-1.05-.2-1.69-.97-2.43-1.62 1.95.68 3.22 2.31 5.57 2.45-.62-1.13-2.05-1.14-2.56-2.43 2.39-.38 3.51 2.69 6.24 2.51-5.33-2.64-7.87-9.14-11.04-14.76-1.29-.8-2-2.41-2.93-3.71 2.66.6 3.52 3.08 4.92 5.72 1.54 2.92 3.39 5.6 5.26 7.84.9 1.08 1.85 2.33 2.66 3.08 1.47 1.37 3.55 1.9 4.18 3.17-6.55.56-11.23-1.46-16.05-3.28.03-.28-.3-.37-.07-.48M178.38 216.04c.44-1.55.44-3.78.09-5.74-.14-.74-.95-1.52-.25-2.21 1.3 2.56 1.9 6.64 2.6 9.16-.15-3.3.52-7.33-.26-10.97-.28-1.29-1.44-2.92-.35-3.9 1.7 5.05 2.03 10.13 2.67 14.09.59-4.41 1.16-10.39-1.06-15.12-.02-.04-.02-.06-.04-.1-.74-1.63.13-.76.57-.05.01.01.01.03.02.04 2.25 3.64 1.96 9.84 2.12 14.2 1.16-1.84 1.23-4.43 1.8-6.41.21-.73.06-1.77 1.19-1.86.3 1.72-.14 3.49-.41 5.26-.25 1.67-.56 3.58-1.22 5.11-.9 2.1-1.98 3.92-2.74 5.95-.83.33-4.35-4.39-5.82-6.57-.43-.64-1.41-1.37-1-2.19 1.13-.33 1.09 1.41 2.09 1.31M59.58 54.96c-2.49.34-4.68 3.1-7.04 3.53 1.65-2.14 3.4-6.49 6.95-7.6.27-.08.65.09.93.04 2.64-.52 6.18-1.29 8.07.57-2.7-.04-6.08.37-7.03 2.42 1.68.18 3.56-.82 5.61-.89.85.59 2.33.31 3.12.99-2.45-.02-5.24.68-6.13 2.28 2.03.66 5.74-1 7.44.11-2.77.03-5.15 1.27-6.82 2.57-1.16-.16-2.25 1.01-3.08 1.6-.73-.24-1.98.32-2.38.19.67-1.27 2.36-1.81 2.82-3.23-2.13.43-4.24 1.72-6 1.89.92-1.67 2.97-2.53 3.54-4.47" transform="translate(-1124 -2115) translate(-18 1623) translate(1142 492)"/>
                </g>
            </g>
        </g>
    </g>
</svg>
