<svg xmlns="http://www.w3.org/2000/svg" width="322" height="299" viewBox="0 0 322 299">
    <g fill="none" fill-rule="evenodd">
        <g fill="#675543">
            <g>
                <path d="M236.911 720.18c-.399-.535-.28-1.014-.191-1.533.167-.067.33-.038.492-.058.404.058.811.133 1.216.181.162.02.32.073.481.102-.702.64-1.271 1.048-1.998 1.308zm-2.22 1.277c-.894.3-1.72.016-2.61-.178-.377-1.093-.264-2.23-.418-3.567.501.16.972.182 1.42.221l.811.138c.198.055.391.124.58.244-.064 1.017.454 2.02.217 3.142zm-3.628-9.815c.291-.002.531.053.8.07-.202.56-.456 1.102-.712 1.64-.098-.55-.167-1.11-.088-1.71zm-3.211 15.205c-.121-.102-.236-.152-.24-.21-.059-.984-.378-1.964-.065-3.099.864-.004 1.619.038 2.398.262l.367 1.221c-.81.648-1.542 1.378-2.46 1.826zm-.845-6.596c-.093-.91-.165-1.823-.246-2.752.866-.682 1.686.06 2.582-.06.277 1.188.673 2.298.262 3.561-.715-.066-1.394-.116-2.069-.196-.303-.036-.498-.252-.529-.553zm-.777-6.79c-.11-.755-.087-1.53-.125-2.314.93-.43 1.725.153 2.508.08.404.937.55 2.43.336 3.592-.52-.058-.965-.149-1.41-.15-.875-.004-1.143-.08-1.309-1.208zm-.896 13.21c-.702-.075-1.332-.125-1.956-.213-.395-.056-.731-.304-.758-.695-.063-.897-.266-1.798-.086-2.779.448-.017.857-.09 1.248-.037 1.434.195 1.605.173 1.579 1.636-.007.411.071.822.074 1.233.003.261-.059.523-.101.854zm-2.035 3.838c-.106-.23-.211-.378-.238-.539-.036-.21-.007-.43-.007-.68.512-.22.961-.149 1.456.05-.19.688-.768.792-1.211 1.17zm-1.368-13.922l2.35.325c.581 1.068.477 2.172.618 3.262-.977.39-1.846.093-2.714-.064-.288-.86-.421-2.464-.254-3.523zm-3.425 15.462c-.201-1.155-.557-2.236-.289-3.477.879-.09 1.71-.02 2.659.405l.225 3.113c-.867.446-1.688-.084-2.595-.04zm-1.121-9.55c.171-.088.301-.216.404-.196.8.153 1.662-.036 2.467.453.157 1.007.308 2.032.087 3.252l-2.324-.195c-.638-1.028-.403-2.208-.634-3.314zm-.589-6.215c.436-.425.839-.307 1.245-.24 1.584.26 1.585.255 1.693 1.82.035.498.073.997.097 1.497.003.08-.066.163-.106.256-.365.29-.763.155-1.168.084-.357-.062-.722-.08-1.154-.125-.101-.165-.294-.342-.32-.542-.123-.937-.201-1.88-.287-2.75zm-.245 19.947c-.46.47-.884.953-1.365 1.374-.391.345-.916.171-1.121-.316-.053-.125-.107-.258-.121-.39-.082-.772-.156-1.545-.22-2.317-.007-.08.066-.166.119-.286.857-.347 1.671.123 2.523.135.339.623.2 1.218.185 1.8zm-3.317-8.104c.276-.049.578-.164.871-.142.544.041 1.082.163 1.699.264.072.286.193.582.213.885.043.637.002 1.274.206 1.902.121.374-.148.71-.489.64-.749-.15-1.568.012-2.318-.514.115-.972-.472-1.915-.182-3.035zm-.596-6.263c.842-.395 1.622.014 2.411.08.59 1.055.197 2.21.554 3.23-.708.375-1.629.301-2.774-.209-.15-1.003-.462-2.019-.191-3.1zm-.89 18.921c-.553.531-1.126 1.041-1.691 1.558-.683-.715-.751-1.283-.292-2.548l2.376.377c-.177.282-.254.48-.393.613zm-2.907-7.056c1.266-.197 1.545-.173 2.661.242.196 1.044.458 2.104.271 3.408l-2.42-.345c-.532-1.123-.349-2.238-.512-3.305zm-.717-6.385c1.004-.024 1.886.008 2.875.432-.216 1.117.511 2.088.2 3.144-1.281.184-1.281.184-2.583-.199-.481-1.034-.293-2.179-.492-3.377zm-.556-5.457c-.025-.258.046-.526.077-.845.796-.086 1.505.055 2.192.242.218.06.487.344.527.562.143.802.21 1.618.281 2.431.026.286-.2.464-.534.503-.746.086-1.426-.21-2.221-.253-.117-.943-.237-1.79-.322-2.64zm-2.527 20.838c-.5-.53-.294-1.164-.375-1.737-.076-.538-.286-1.072-.036-1.692.733-.233 1.487.008 2.225.143.199.036.456.371.488.596.123.896.167 1.803.247 2.783-.988.366-1.766-.069-2.549-.093zm.413 4.092c-.284-.433-.568-.835-.254-1.198.404-.464.818-.035 1.226.128-.307.577-.298.586-.972 1.07zm-1.467-13.72c.871-.358 1.584.251 2.354.008.362.79.525 1.348.516 1.96-.005.314.074.63.12.945.083.56-.204.853-.785.767-.583-.087-1.163-.2-1.852-.32-.2-1.093-.716-2.182-.353-3.36zm-.479-3.454c-.096-.905-.187-1.81-.288-2.81 1.012-.292 1.784.124 2.62.086.308 1.153.566 2.24.304 3.45-.739.22-1.442-.033-2.142-.139-.29-.044-.462-.285-.494-.587zm-1.686 18.892c-.471.02-.92-.05-1.34-.417-.145-.99-.295-2.026-.202-3.13.951-.325 1.671.23 2.498.127.352 1.136.525 2.242.388 3.372-.465.411-.909.031-1.344.048zm-2.281-9.744c.943-.317 1.839-.029 2.798.23-.02 1.09.515 2.128.179 3.332-.872-.168-1.744.146-2.661-.469l-.316-3.093zm-.448-3.785c.094-.86-.413-1.709-.078-2.564 1.419-.087 1.419-.087 2.673.364.096.846.21 1.744.289 2.645.019.213-.079.437-.137.728l-2.464-.347c-.117-.323-.31-.586-.283-.826zm-.981 19.228c-.27-.014-.537-.089-.806-.13-1.299-.199-1.295-.198-1.345-1.528-.016-.41-.085-.817-.094-1.226-.007-.263.051-.527.092-.898.841.12 1.514.203 2.18.32.168.028.318.16.562.291.047.833.113 1.691.135 2.55.011.42-.275.646-.724.621zm-2.62-6.87c-.049-.992-.358-1.978-.065-3.139.697.093 1.279.163 1.859.252.456.07.772.371.837.798.126.845.215 1.701.1 2.623-.895.148-1.679-.098-2.467-.249-.106-.02-.259-.183-.264-.286zm-.74-9.292c.714-.15 1.379.074 2.045.111.28.016.493.241.558.54.209.938.325 1.886.288 2.918-.956.256-1.795-.17-2.704-.218-.178-1.143-.487-2.2-.187-3.35zm-.869-6.366c1.132.038 2.028-.009 2.888.484-.02 1.048.468 2.057.084 3.18-.819.042-1.613.04-2.353-.258-.626-1.044-.292-2.178-.619-3.406zm-1.794 27.881c-.111-.055-.234-.187-.256-.302-.115-.58-.228-1.167-.281-1.756-.037-.399.025-.807.045-1.253.885-.32 1.651.124 2.504.13.329.75.369 1.392.32 2.031-.103 1.35-1.354 1.642-2.332 1.15zm-1.093-9.532c.966-.233 1.745.126 2.502.054.441 1.302.482 2.376.156 3.528-.729-.234-1.551.072-2.279-.442-.51-.95-.406-2.003-.379-3.14zm-.816-5.99c.361-.495.749-.424 1.103-.386 1.841.194 1.829.2 1.975 2.021.043.546.111 1.084-.05 1.791l-2.317-.414c-.83-1.019-.3-2.156-.711-3.012zm-1.197 21.384l-1.243-.178c-.117-.206-.228-.355-.29-.523-.062-.17-.092-.356-.106-.537-.065-.759-.12-1.518-.178-2.29.955-.238 1.776.122 2.695.18.28 1.933.28 1.933-.878 3.348zm.512 12.181c-.925.276-1.736.51-2.702.485-.004-.358-.012-.709-.014-1.06-.002-.412-.027-.827.011-1.236.034-.352.142-.698.243-1.16l2.46-.359c.522 1.173-.308 2.212.002 3.33zm.685 21.845c.041-.306.231-.526.512-.57.666-.105 1.34-.157 2.093-.24.115 1.178.182 2.242-.093 3.268-1.137.426-1.64.515-2.659.462-.034-.334-.119-.687-.094-1.033.046-.63.156-1.259.241-1.887zm.335-6.272c.015-.302.213-.514.511-.563.716-.117 1.428-.325 2.246-.116.076 1.061-.009 2.13-.036 3.267l-2.822.465c.036-1.158.057-2.106.101-3.053zm.659-6.686l2.455-.504c.512 1.204-.197 2.277-.078 3.39-.827.344-1.643.371-2.53.496-.105-1.152-.244-2.257.153-3.382zm.352-6.318l2.412-.374c.33 1.207.202 2.312-.114 3.472l-2.472.416c-.317-1.203-.056-2.272.174-3.514zm3.146 30.627c.653-.159 1.327-.242 2.125-.375.193 1.031.146 1.851.088 2.666-.038.511-.346.847-.857.94-.579.104-1.163.174-1.69.251-.421-.392-.322-.829-.295-1.222.04-.589.129-1.179.249-1.757.041-.192.217-.464.38-.503zm-.079-5.648c.032-.47.201-.7.646-.753.674-.08 1.337-.359 2.128-.125.063 1.062-.139 2.127-.117 3.285-.887.176-1.558.326-2.235.44-.434.072-.75-.234-.619-.657.229-.725.148-1.459.197-2.19zm.69-6.99l2.37-.314c.068.234.184.44.175.64-.042.915-.12 1.827-.185 2.745-.882.322-1.739.368-2.683.427-.027-1.192-.274-2.328.323-3.499zm.328-6.22l2.466-.424c.396 1.233.115 2.332-.158 3.457-.425.104-.82.225-1.222.291-.362.06-.732.058-1.242.094-.167-1.208-.113-2.286.156-3.419zm.392-6.227c.852-.3 1.707-.5 2.58-.418 0 .894.021 1.706-.006 2.515-.025.747-.182.895-.973 1.037-.403.072-.809.128-1.215.176-.172.021-.349.004-.729.004l.343-3.314zm2.975 30.603l2.426-.505c.448.635.002 1.21.039 1.782.034.538-.023 1.083-.039 1.583-.798.42-1.572.468-2.341.533-.315.027-.55-.206-.525-.489.08-.859.165-1.716.258-2.574.009-.08.084-.156.182-.33zm.415-6.328l2.383-.37c.308 1.275-.107 2.327-.157 3.4-.811.385-1.642.362-2.55.495-.026-1.19-.298-2.349.324-3.525zm.251-6.28l2.455-.316c.374 1.144.088 2.213-.016 3.342-.798.32-1.637.402-2.545.418-.512-1.146.031-2.225.106-3.445zm.315-6.13c.894-.332 1.759-.52 2.641-.507.064.158.126.24.125.32-.005.736-.021 1.472-.035 2.208-.002.091-.004.184-.017.275-.061.4-.256.688-.683.752-.668.1-1.329.386-2.088.064-.214-1.016.029-2.047.057-3.113zm.421-6.419c.981-.16 1.787-.294 2.669-.44.072.35.225.635.159.852-.211.678-.166 1.365-.203 2.051-.027.49-.182.665-.653.733-.673.096-1.351.164-2.065.248-.291-.624.16-1.13.079-1.672-.079-.533.001-1.09.014-1.772zm5.548 30.133c.332 1.291-.186 2.35-.076 3.421-.84.43-1.65.506-2.567.453-.213-1.06-.184-2.124.022-3.152.783-.68 1.71-.445 2.621-.722zm-2.143-5.66c.681-.567 1.52-.444 2.397-.58.091.3.209.538.232.785.08.87-.034 1.725-.322 2.727l-2.435.4c-.427-1.18.046-2.233.128-3.333zm.13-4.692c.125-.477.095-.995.14-1.583.896-.402 1.752-.405 2.671-.506.039 1.203.257 2.331-.229 3.512l-2.407.243c-.362-.592-.323-1.103-.175-1.666zm.408-7.717c.844-.675 1.783-.636 2.896-.627l-.151 3.24c-.986.462-1.67.556-2.745.381v-2.994zm3.258 30.287l2.378-.33c.423 1.203-.184 2.298-.064 3.542l-2.584.325c-.248-1.698-.197-2.41.27-3.537zm.317-6.134c.225-.087.471-.218.732-.273.529-.11 1.066-.18 1.659-.277.395 1.216.199 2.351-.123 3.531-.54.115-1.067.246-1.6.334-.259.043-.533.007-.786.007-.278-1.258-.259-1.769.118-3.322zm.244-6.188c.862-.533 1.671-.543 2.572-.537.237 1.161.259 2.261-.136 3.433l-2.457.431c-.541-1.202.314-2.273.021-3.327zm.364-6.353c.913-.413 1.807-.417 2.841-.519-.055 1.148-.089 2.1-.154 3.048-.02.291-.2.527-.511.562-.721.083-1.447.141-2.263.217-.019-1.148.089-2.217.087-3.308zm.49-5.895c.054-.204.205-.482.374-.538.718-.24 1.442-.548 2.295-.295.289 1.103-.115 2.04-.122 2.996-.001.134-.206.365-.34.384-.709.1-1.378.543-2.192.275-.256-.94-.259-1.883-.015-2.822zm5.33 29.726c.083.245.191.443.208.648.031.411.044.83.007 1.24-.048.536-.151 1.068-.238 1.648l-2.523.297c-.377-1.124-.085-2.188.131-3.416.82-.142 1.573-.27 2.415-.417zm-2.115-5.645c.82-.504 1.707-.55 2.595-.627.228 1.81.187 2.471-.234 3.525-.838.135-1.572.468-2.407.265-.354-1.054.097-2.088.046-3.163zm.443-6.374c.826-.529 1.722-.484 2.729-.42.002 1.136-.066 2.206-.215 3.33-.886.208-1.723.415-2.739.358l.225-3.268zm.691-6.473c.762-.058 1.477-.46 2.374-.249.039.354.124.71.107 1.06-.027.594-.126 1.187-.183 1.781-.037.377-.27.631-.599.664-.63.063-1.259.332-2.064.026-.066-1.127-.307-2.219.365-3.282zm.181-5.925c.017-.149.205-.39.326-.399.718-.042 1.395-.512 2.196-.213.329.982.189 1.974-.056 2.954-.047.187-.266.443-.435.47-.667.105-1.306.474-2.124.248-.368-1.079-.022-2.068.093-3.06zm5.568 29.86c-.168 1.335.162 2.481-.36 3.637l-2.425.28c-.242-1.153-.223-1.504.198-3.492l2.587-.425zm-2.485-5.183c0-.357.14-.666.5-.733.753-.14 1.496-.417 2.275-.284.177.763.089 2.53-.179 3.45-.81.137-1.612.544-2.597.258l.001-2.69zm.456-6.185c.047-.504.357-.855.868-.923.58-.077 1.166-.088 1.845-.135.286 1.263-.064 2.263-.192 3.258-1.508.512-1.508.512-2.465.35-.193-.833-.136-1.695-.056-2.55zm.586-7.018c.838-.053 1.577-.466 2.448-.269.351 1.056.177 2.078-.093 3.09-.039.147-.224.288-.376.368-.368.194-1.46.214-2.192.063-.302-1.145.142-2.138.213-3.252zm2.754 30.838c.871-.544 1.704-.467 2.539-.583.328.724.185 1.416.179 2.082-.004.441-.151.88-.246 1.378l-2.485.458c-.485-1.218.207-2.304.013-3.335zm.511-6.43c.708-.347 1.507-.266 2.261-.41.227-.043.478.127.459.394-.074.991-.181 1.98-.288 3.08-.918.241-1.736.248-2.579.282-.423-.56.048-1.136-.007-1.705-.05-.532-.101-1.095.154-1.64zm.282-5.652c.061-.475.362-.869.911-.87.58-.003 1.13-.473 1.783-.075.324 1.008-.067 2.035-.082 3.161-.86.396-1.631.591-2.508.495-.325-.904-.218-1.815-.104-2.71zm.387-5.648c.242-1.483.238-1.486 1.752-1.637.225-.022.454-.023.679-.01.082.005.158.08.307.16.27 1.046.074 2.096-.22 3.205-.825.103-1.566.513-2.433.291-.287-.666-.195-1.335-.085-2.009zm5.436 28.852c.262 1.24.361 2.347-.095 3.531-.388.087-.821.207-1.261.275-.397.061-.801.065-1.241.097-.388-1.15.204-2.205.031-3.336.922-.38 1.72-.448 2.566-.567zm-2.228-5.503c.863-.805 1.848-.456 2.768-.694 0 1.09.019 1.907-.004 2.724-.017.575-.151.755-.71.807-.672.062-1.303.48-2.054.221v-3.058zm.756-6.617c.838-.114 1.558-.482 2.343-.24.317 1.001.314 1.056-.161 3.317-.886.333-1.342.373-2.423.203-.184-1.065-.289-2.13.241-3.28zm.28-5.969c.026-.143.233-.34.376-.358.668-.079 1.299-.478 2.173-.196.092.9.116 1.751-.037 2.615-.094.522-.342.883-.865.89-.581.008-1.127.463-1.789.096-.354-1.006-.044-2.028.142-3.047zm.293-6.132c.036-.372.242-.596.609-.633.678-.068 1.357-.114 2.112-.175 0 .983.037 1.764-.011 2.54-.045.741-.291.947-1.018 1.057-.361.055-.717.145-1.081.182-.213.021-.433-.033-.708-.059-.038-.323-.108-.592-.092-.856.042-.686.124-1.37.189-2.056zm2.851 30.344c.851-.487 1.738-.517 2.661-.513.234.538.052 1.044.082 1.533.028.456-.001.916-.022 1.374-.014.3-.18.582-.459.62-.751.098-1.498.412-2.238.198-.07-.156-.14-.238-.137-.317.031-.957.072-1.913.113-2.895zm.539-6.173c.023-.144.218-.346.36-.369.71-.116 1.407-.419 2.143-.23.466.523.144 1.043.068 1.572-.078.54-.064 1.091-.096 1.784-.884.116-1.588.493-2.44.345-.401-1.045-.206-2.078-.035-3.102zm.344-6.235c.003-.135.2-.349.342-.385.698-.176 1.401-.405 2.163-.262.478 1.155-.05 2.193-.131 3.293-.794.364-1.575.505-2.457.344-.366-1.1.067-2.037.083-2.99zm.59-6.64c.772 0 1.52-.493 2.416-.235 0 .876.008 1.74-.003 2.603-.005.477-.289.803-.719.905-.616.145-1.253.202-1.958.308-.232-1.102-.124-2.447.264-3.582zm2.575 32.355c.03-.542-.047-1.09.078-1.584 1.183-.6 1.965-.717 2.744-.429l-.255 3.268c-.513.108-.948.22-1.391.288-.393.062-.796.077-1.294.122.045-.616.09-1.14.118-1.665zm.773-7.965c.739-.203 1.462-.502 2.257-.296.384.642.113 1.29.097 1.914-.032 1.27-.055 1.251-1.343 1.544-.415.095-.806.168-1.362-.027-.141-1.095-.251-2.129.351-3.135zm.1-6.033c.84-.594 1.707-.619 2.667-.53.354 1.224-.081 2.221-.185 3.288-.801.245-1.558.52-2.404.384-.499-1.067.064-2.096-.078-3.142zm.416-4.864c.014-.543-.059-1.1.172-1.693.782-.155 1.549-.425 2.448-.216.173 1.122.226 2.191-.33 3.335-.746.253-1.464.32-2.198.295-.512-.566-.106-1.156-.092-1.72zm2.778 30.618c.01-.545.034-1.089.054-1.67.844-.495 1.65-.407 2.392-.58.228-.053.455.171.441.421-.052.951-.141 1.9-.22 2.85-.003.04-.049.074-.144.21-.728.247-1.567.355-2.525.377 0-.565-.008-1.087.002-1.608zm.581-7.735c.101-.357.346-.558.676-.609.585-.089 1.175-.124 1.807-.186.525 1.212-.25 2.285-.087 3.431-.831.222-1.556.52-2.516.272-.151-1.016-.151-1.962.12-2.908zm.364-6.2c.045-.302.229-.528.511-.577.62-.109 1.249-.165 1.916-.247.414 1.154.137 2.22.037 3.316-.809.39-1.63.521-2.643.474-.027-.5-.087-.86-.057-1.215.049-.586.152-1.168.236-1.752zm.341-6.13c.011-.183.239-.499.378-.504.722-.029 1.421-.435 2.235-.133.221 1.064.358 2.127-.276 3.11-1.317.385-1.317.385-2.311.238-.028-.037-.081-.074-.081-.11.009-.867.002-1.736.055-2.6zm1.1 27.013c-.028.387-.292.65-.72.705-.632.084-1.263.188-2.04.306-.182-1.239.018-2.31.089-3.424.853-.339 1.68-.496 2.619-.443.196.966.116 1.915.052 2.856zm-4.506-11.177l-2.321.377c-.328-.68-.048-1.209-.012-1.746.033-.502.044-1.005.066-1.542.787-.493 1.635-.475 2.561-.509.152 1.192.278 2.305-.294 3.42zm-.319 6.231c-.752.202-1.53.411-2.395.397-.333-1.186.027-2.292.079-3.464.505-.106.944-.216 1.391-.286.357-.056.721-.063 1.07-.09.343 1.017.343 1.017-.145 3.443zm-.179 6.028c-.933.386-1.747.03-2.615-.12-.177-.947-.267-1.834.294-2.712l2.324-.45c.081.28.196.487.186.688-.043.861-.123 1.721-.189 2.594zm-3.452-24.007l-2.502.398c-.257-1.15.259-2.155.072-3.344l2.506-.439c.271 1.178.251 2.243-.076 3.385zm-.361 6.118c-.799.51-1.64.35-2.476.467-.396-1.148.155-2.21.071-3.269.795-.555 1.65-.387 2.485-.558.527 1.19-.094 2.28-.08 3.36zm-.29 6.234c-.783.451-1.593.511-2.491.594-.401-1.138-.184-2.246.006-3.42.398-.117.781-.258 1.176-.335.402-.078.815-.094 1.419-.157.258 1.18-.265 2.236-.11 3.318zm-.362 6.247c-.91.527-1.794.402-2.706.578-.11-1.065-.063-2.057.016-3.043.014-.166.266-.406.448-.449.706-.17 1.428-.276 2.229-.42.156 1.147.066 2.22.013 3.334zm-2.94 4.94c-.046-.284-.106-.54-.123-.8-.014-.223.023-.447.043-.757.85-.186 1.651-.45 2.527-.212.132.65.131 1.267.117 1.882-.939.347-1.709 0-2.564-.113zm-.376-29.036c-.856.434-1.735.323-2.579.5-.475-1.176.134-2.226.074-3.496l2.464-.397c.069.303.179.553.172.801-.021.867-.084 1.732-.131 2.592zm-.382 6.087c-.896.424-1.714.39-2.569.536-.18-1.115-.264-2.144.191-3.248.336-.1.716-.247 1.11-.324.399-.077.81-.086 1.292-.132.398 1.106-.36 2.14-.024 3.168zm-.35 6.267c-.96.452-1.816.505-2.671.552-.138-.736-.047-2.564.165-3.418.782-.383 1.648-.364 2.51-.445.388.577-.119 1.087-.025 1.627.093.53.021 1.09.021 1.684zm-.739 6.427c-.693.327-1.451.394-2.299.404-.472-1.142.141-2.253-.134-3.382.95-.27 1.783-.41 2.772-.433.101 1.26.214 2.341-.339 3.411zm-.072 4.57c-.012.5-.084 1-.133 1.54-.775.581-1.675.484-2.564.565-.462-1.18.076-2.227.132-3.446.861-.155 1.589-.422 2.398-.273.306.52.181 1.077.167 1.613zm-.392 5.465c-.864.242-1.648.17-2.398-.232-.104-.316.075-.452.309-.493.495-.087.994-.157 1.495-.196.166-.013.35.074.511.147.064.03.122.146.124.225.007.173-.024.348-.041.55zm-4.678-43.34c.733-.607 1.622-.338 2.47-.674.083.303.183.545.211.794.098.922-.244 1.793-.219 2.737-.897.18-1.66.5-2.582.32-.318-1.164.067-2.178.12-3.177zm2.051 9.014c-.826.423-1.67.31-2.532.46-.228-1.157-.251-2.268.194-3.42.776-.127 1.536-.25 2.463-.403.153 1.231-.066 2.298-.125 3.363zm-.276 4.523c-.02.548-.019 1.097-.028 1.692-.932.381-1.806.68-2.779.475l.168-3.238c.811-.509 1.74-.427 2.74-.59-.038.608-.08 1.134-.101 1.661zm-.671 7.893c-.769.411-1.558.474-2.581.441.114-1.196.21-2.224.314-3.306l2.423-.345c.308 1.134.293 2.176-.156 3.21zm-.263 6.251c-.61.334-1.182.536-1.847.12l-.645-2.874c.226-.115.445-.292.687-.337.621-.116 1.253-.173 1.908-.257.459 1.193-.122 2.24-.103 3.348zm-.338 5.996c-.654-.898-.543-1.803-.769-2.61-.022-.079.202-.3.338-.329.139-.03.391.05.452.16.101.183.128.431.12.648-.024.633-.081 1.265-.141 2.131zm-4.619-42.185c-.41-1.197-.125-2.29.09-3.367 1.212-.54 1.82-.604 2.587-.278.229 1.06-.049 2.072-.297 3.195l-2.38.45zm2.135 5.705c-1.368.556-1.368.556-2.617.421-.095-1.078-.251-2.163.217-3.316l2.479-.5c.366 1.27-.132 2.334-.079 3.395zm-.369 6c-.029.297-.233.492-.531.547-.313.058-.635.145-.946.121-.43-.032-.938.524-1.245-.008-.169-.292.005-.779.015-1.178.015-.547.007-1.096.038-1.642.016-.3.205-.525.5-.574.714-.117 1.433-.203 2.229-.313.027 1.07.037 2.06-.06 3.047zm-.592 6.567c-.709.617-1.516.314-2.132.603-.422-.26-.548-.605-.515-.988.073-.82.181-1.637.278-2.494.816-.18 1.581-.535 2.418-.27.268 1.125.257 1.78-.049 3.15zm-.346 6.162c-.011.087-.185.153-.341.274-.626-.984-.628-2.096-1.107-3.238.472-.109.686-.178.905-.203.215-.025.435-.006.714-.006.033.34.099.61.078.872-.061.77-.147 1.536-.249 2.301zm-2.781-30.508c-.368.125-.657.263-.96.32-.531.096-1.071.143-1.674.22-.025-1.173-.216-2.299.233-3.403.827-.33 1.638-.549 2.567-.393.315 1.144-.277 2.176-.166 3.256zm-.356 6.293c-.855.407-1.734.543-2.634.461-.07-.119-.16-.199-.156-.274.051-1.004.114-2.008.176-3.017.844-.402 1.735-.347 2.575-.604.097.154.229.265.225.371-.047 1.005-.118 2.01-.186 3.063zm-.437 5.962c-.075.348-.313.573-.67.598-.403.028-.81.006-1.245.006-.432-1.056-.936-2.039-.556-3.332l2.467-.26c.232 1.03.214 2.007.004 2.988zm-.35 4.972c-.198-.143-.362-.203-.427-.319-.2-.36-.289-.753-.195-1.223l.53-.084c.257.518.162 1.004.092 1.626zm-3.363-22.758c-.79.513-1.717.435-2.564.67-.55-.6-.087-1.189-.115-1.745-.029-.58-.099-1.18.137-1.795.838-.194 1.653-.466 2.551-.378.066.128.18.245.175.356-.047.951-.118 1.901-.184 2.892zm-.585 6.414l-1.461.395c-.364-1.197-1.164-2.075-.898-3.304.807-.413 1.673-.457 2.631-.549.119 1.16.322 2.308-.272 3.458zm-.295 3.685c-.069-.148-.177-.29-.194-.445-.011-.086.13-.189.202-.284l.391.387-.399.342zm-3.185-21.692c-.882.133-1.645.251-2.409.356-.074.01-.16-.066-.339-.144.004-1.079.011-2.196.19-3.376l2.555-.349c.085.118.187.193.184.263-.05 1.04-.113 2.08-.181 3.25zm-.568 6.16c-.681.29-1.245.453-1.896.248-.752-.974-.692-2.073-.45-3.244.837-.118 1.601-.499 2.507-.235.154 1.073.259 2.142-.161 3.231zm-.424 4.156c-.108-.28-.236-.555-.309-.844-.018-.069.136-.237.237-.264.086-.023.291.08.301.147.047.298.041.604.055.907l-.284.054zm-3.554-15.958c-.873.311-1.67.421-2.519.455-.438-1.074.031-2.096-.006-3.18.949-.494 1.152-.528 2.551-.446.295 1.058.206 2.112-.026 3.171zm-.259 5.003c-.011.147-.173.282-.335.53-.285-.58-.533-1.056-.751-1.544-.091-.203-.118-.435-.165-.616.174-.405.476-.452.813-.414.249.028.457.154.465.413.017.543.012 1.09-.027 1.631zm-4.28-10.474l-.763.214c-.761-.87-1.126-1.892-1.542-3.063.84-.37 1.573-.498 2.383-.327.424 1.06.114 2.074-.078 3.176zm-4.157-11.816c-.788.492-1.584.353-2.378.515-.463-1.19-.163-2.27.144-3.442l1.198-.219c.351-.063.701-.122 1.095-.19.475 1.167.188 2.22-.059 3.336zm-.182 4.474c-.17-.105-.36-.156-.428-.277-.176-.309-.298-.649-.483-1.073l.863-.086c.281.474.255.901.048 1.436zm-2.9-30.419c.059.532-.01 1.08-.022 1.652-.89.32-1.728.45-2.534.465-.114-.104-.2-.154-.241-.228-.043-.076-.067-.177-.058-.264.08-.946.168-1.892.267-2.972.969-.112 1.784-.45 2.698-.24.293.55-.168 1.05-.11 1.587zm-.293 7.28c-.023.458-.294.768-.764.85-.629.108-1.26.203-1.938.311-.062-.276-.154-.494-.154-.712.001-.737.033-1.473.055-2.21.011-.3.133-.59.427-.64.717-.119 1.446-.173 2.305-.268.158 1.021.11 1.847.069 2.67zm-.567 6.796c-.824.522-1.692.447-2.529.534-.375-.597-.231-1.2-.206-1.777.018-.403.12-.81.245-1.197.062-.192.237-.457.4-.49.69-.137 1.378-.48 2.18-.162.03.316.098.627.084.934-.038.724-.115 1.446-.174 2.158zm-.3 4.743c-.093.49-.097.994-.147 1.568l-1.108.472-1.522-2.792c.219-.246.368-.572.578-.618.692-.153 1.395-.322 2.137-.277.248.576.166 1.102.062 1.647zm-3.116-29.039c-.734.411-1.513.472-2.282.544-.258.024-.432-.189-.408-.45.092-.95.208-1.9.329-2.98.835-.168 1.559-.51 2.415-.24.263 1.06.087 2.091-.054 3.126zm-.411 6.297c-.781.438-1.581.494-2.445.487-.435-1.167.065-2.252.122-3.505.922-.006 1.657-.334 2.453-.137.392 1.117-.28 2.106-.13 3.155zm-.349 6.24c-.685.637-1.569.23-2.327.684-.124-.317-.277-.549-.301-.793-.081-.875.044-1.738.227-2.646.854-.262 1.674-.686 2.589-.268l-.188 3.023zm-.31 5.762c-.058.516-.391.952-.998.945-.535-.006-1.058.36-1.748-.023 0-.794-.027-1.569.008-2.342.03-.615.304-.97.883-1.049.565-.077 1.133-.433 1.776-.069.228.822.177 1.69.079 2.538zm-.573 6.27c-.766-.759-1.127-1.508-1.527-2.39.577-.112 1.044-.202 1.56-.3.385.873.218 1.654-.033 2.69zm.121-47.725c.193.024.458.348.499.57.146.802.218 1.62.299 2.432.013.12-.068.25-.141.491-.642-.049-1.187-.07-1.726-.138-.782-.099-1.034-.378-1.09-1.14-.055-.765-.102-1.529-.154-2.32.837-.41 1.576.014 2.313.105zm1.034 6.558c.057.984.552 1.938.197 3.137l-2.208-.184c-.396-.316-.507-.744-.536-1.21-.045-.676-.094-1.35-.149-2.126.166-.05.367-.162.568-.158.5.008 1.007.032 1.496.127.238.047.623.26.632.414zm.53 6.075c.263 1.067.49 2.081.316 3.222-.234.032-.491.112-.74.091-.538-.045-1.071-.143-1.603-.218-.064-.168-.157-.294-.15-.414.023-.449.169-.91.101-1.339-.07-.43-.348-.827-.516-1.246-.047-.118-.026-.264-.041-.455.936-.165 1.785.056 2.633.36zm1.813-18.458c.44.001.878.168 1.323.264.23 1.118.412 2.142.17 3.257-.936.293-1.634-.314-2.36-.095-.52-1.18-.412-2.289-.46-3.418.443-.295.897-.009 1.327-.008zm2.386 9.705c-.933.485-1.758-.042-2.677-.007-.188-1.166-.566-2.275-.331-3.52.917.077 1.777.036 2.567.416.431 1.032.109 2.11.441 3.111zm.362 4.68c-.007.54.438 1.043.07 1.673-.909.2-1.688-.095-2.467-.273-.422-.509-.158-1.1-.296-1.617-.143-.534-.306-1.053-.069-1.639.868-.23 1.696-.04 2.532.257.376.494.235 1.068.23 1.6zm2.826-19.858c.456 1.118.373 2.241.396 3.46-.95-.1-1.799-.192-2.701-.288-.145-1.108-.252-2.132-.288-3.166.911-.578 1.725-.04 2.593-.006zm49.407 165.488c.034-.358.242-.617.585-.68.663-.12 1.336-.194 2.02-.289.588 1.215-.22 2.285-.017 3.338-1.14.47-1.525.514-2.563.313-.151-.873-.115-1.777-.025-2.682zm.286-4.736c.041-.547.153-1.087.221-1.632.038-.309.2-.555.482-.606.66-.12 1.32-.396 2.045-.168.308 1.15.002 2.212-.191 3.352-.792.191-1.556.481-2.366.293-.315-.412-.221-.84-.191-1.239zm.582-8.33c.788-.343 1.558-.514 2.467-.326.152 1.085.18 2.12-.066 3.193-.858.365-1.703.623-2.685.33l.284-3.198zm-62.136-123.482c-.841.376-1.667.544-2.599.483-.33-1.164.272-2.2.171-3.327.842-.253 1.603-.51 2.501-.32.225 1.088-.004 2.118-.073 3.164zm-.45 6.325c-.77.46-1.58.38-2.418.438-.381-1.149-.092-2.197.14-3.378.893-.15 1.651-.53 2.506-.194-.078 1.055-.152 2.082-.228 3.134zm-.348 5.75c-.049.271-.315.674-.538.715-.646.12-1.289.457-2.056.223-.043-.874-.046-1.737.017-2.598.04-.55.304-.83.849-.92.531-.089 1.071-.117 1.643-.175.311.956.244 1.863.085 2.754zm-.514 6.78c-.76.52-1.571.522-2.601.5l.149-3.249c.854-.339 1.652-.462 2.512-.498.568 1.13-.015 2.175-.06 3.247zm-.355 3.944c-.126-.092-.251-.15-.327-.248-.13-.168-.279-.364-.047-.563.059-.049.166-.073.242-.06.285.048.309.28.29.5-.009.12-.096.232-.158.371zm-.296-41.118c.46 1.025.543 1.572.532 3.302-.813.486-1.58-.092-2.416-.105-.48-1.12-.432-2.278-.443-3.495l2.327.298zm-2.394 12.72c-.766.705-1.682.463-2.532.71-.39-1.12-.264-2.154-.019-3.18.034-.144.244-.325.394-.349.667-.103 1.307-.469 2.157-.235v3.054zm-.556 6.062c-.028.188-.229.442-.405.498-.641.205-1.295.411-2.145.25 0-.854-.027-1.585.006-2.313.036-.782.254-.996 1.079-1.145.444-.08.894-.123 1.378-.188.327 1.01.233 1.958.087 2.898zm-.507 6.63c-.697.391-1.399.344-2.056.477-.286.058-.539-.209-.516-.499.069-.904.158-1.806.24-2.706.719-.58 1.584-.357 2.371-.633.604 1.228-.026 2.293-.039 3.36zm-.289 6.022c-.033.308-.231.497-.529.55-.403.072-.812.118-1.235.178-.684-.433-1.043-.97-.8-1.834.121-.43.094-.904.143-1.459.874-.314 1.65-.516 2.526-.433.051.208.143.382.131.548-.063.818-.147 1.634-.236 2.45zm-4.364 8.317c-.156-.709-.395-1.335-.276-2.16.812.48 1.078 1.2 1.585 2.074-.556.036-.898.06-1.309.086zm-1.649-13.28l-1.077-1.53.243-1.425c.387-.319.825-.409 1.292-.446.398-.03.792-.114 1.163-.17.075.145.157.226.152.303-.048.822-.107 1.644-.169 2.466-.042.564-.186.73-.745.797-.27.032-.546.005-.859.005zm-.319 19.085c-.448-.025-.848-.022-1.24-.075-.401-.055-.796-.163-1.273-.265-.071-1.084-.354-2.126-.209-3.232.887-.307 1.659.116 2.516.097.196 1.16.498 2.25.206 3.475zm-1.888 3.94c-.108-.165-.246-.299-.292-.459-.196-.7.02-.899.999-.82-.08.572-.259.965-.707 1.278zm-1.35-13.81c.814-.306 1.473.006 2.139.136.17.033.42.302.421.465.006.954.377 1.892.164 2.945-.888.078-1.715-.029-2.588-.388-.061-1.033-.452-2.04-.136-3.159zm-.611-5.878c.134-.007.269-.049.299-.01.715.917 1.539 1.763 2.008 2.876-.88.241-.88.241-2.082-.084-.213-.905-.417-1.827-.225-2.782zm-1.165-10.176c-.349-.387-.361-.85-.212-1.289.077-.225.314-.492.532-.555.607-.177 1.243-.257 2.017-.403.247 1.261.295 2.376-.077 3.441-.616.283-1.068.136-1.45-.26-.285-.297-.534-.628-.81-.934zm-1.632 31.297c-.537-1.086-.381-2.187-.438-3.343.836-.155 1.623-.032 2.531.276.377 1.047.277 2.081.325 3.146-.888.324-1.663.054-2.418-.079zm.534 5.878c-.342-.983-.5-1.875-.292-2.879.652-.122 1.261-.305 1.81.314-.429.858-.756 1.76-1.518 2.565zm-1.71-15.677c1.015.136 1.776.24 2.514.338.614 1.04.358 2.131.549 3.086-.241.426-.591.391-.896.363-.501-.045-.997-.152-1.537-.24-.682-1.033-.274-2.23-.63-3.547zm-.352-4.199c-.023-.364-.133-.724-.144-1.087-.009-.304.066-.61.116-1.014.859.271 1.733-.074 2.507.565.149.974.437 1.99.175 3.13-.28.037-.536.1-.791.096-.177-.002-.35-.11-.528-.144-1.258-.24-1.252-.238-1.335-1.546zm-.239 24.528c-.213.402-.471.78-.7 1.174-.22.382-.571.422-.948.367-.388-.055-.607-.286-.662-.746-.086-.722-.155-1.447-.196-2.172-.012-.209.095-.424.16-.689.833.21 1.687-.002 2.406.464.281.57.209 1.098-.06 1.602zm-3.089-8.255c.224-.029.437-.08.649-.075.178.004.355.091.536.113 1.591.192 1.621.212 1.716 1.833.032.547.005 1.098.005 1.621-.099.08-.159.153-.236.185-.082.034-.183.053-.268.038-.671-.11-1.34-.23-2.012-.349-.421-1.178-.402-2.227-.39-3.366zm-.514-3.865c-.08-.763-.094-1.533-.14-2.362.286-.052.574-.196.795-.127.64.2 1.397-.05 1.996.532.051.99.376 2.004.085 3.192-.617-.042-1.115-.059-1.61-.11-.735-.078-1.047-.369-1.126-1.125zm-.338 19.483c-.537-.03-1.035-.04-1.526-.096-.267-.03-.525-.138-.801-.215-.569-1.02-.38-2.148-.695-3.295 1.089-.248 1.909.102 2.822.156.101 1.171.602 2.242.2 3.45zm-1.891 3.94l-.231-.069-.067-1.268.877.053-.579 1.283zm-1.483-11.892c.015-.63-.383-1.249-.022-1.959.85-.306 1.661.138 2.485.194.402.595.167 1.218.264 1.792.09.525.404 1.044-.005 1.653-.412-.025-.87.003-1.301-.09-1.199-.263-1.452-.32-1.421-1.59zm-.419-5c-.078-1.04-.497-2.074-.197-3.225.936-.256 1.675.036 2.49.173.09.354.221.697.26 1.05.082.752.119 1.51.177 2.328-.957-.037-1.817.015-2.73-.327zm-3.096 18.21c-.026-1.038-.44-2.083-.171-3.198.835-.202 1.582-.005 2.334.176.506.451.435 1.06.467 1.653.028.534.113 1.066.174 1.596-1.281.195-1.338.19-2.804-.227zm1.643 5.9c-.114.251-.298.476-.622.45-.333-.026-.482-.29-.492-.563-.032-.895-.268-1.78-.176-2.78.875-.029 1.593-.014 2.273.218.021.127.076.23.048.298-.336.796-.674 1.591-1.031 2.377zm-2.25-12.074c-.177-1.16-.424-2.264-.267-3.469.92.104 1.802-.016 2.559.47.251 1.058.462 2.08.321 3.174-.89.296-1.709-.084-2.613-.175zm-.516 18.307c-.253.053-.512.167-.757.145-.586-.054-1.167-.173-1.818-.276-.162-1.124-.441-2.219-.09-3.494.876.191 1.684-.043 2.391.508.41.963.464 1.985.274 3.117zm-1.932 4.576c-.443-.788-.371-1.302-.267-1.822.668.001.817.096.726.485-.09.382-.253.746-.459 1.337zm-1.616-14.186c.176-.096.308-.232.403-.21.783.182 1.67-.07 2.413.574.085.828.209 1.687.251 2.55.026.526-.276.727-.808.638-.58-.097-1.159-.206-1.766-.315-.474-1.053-.234-2.18-.493-3.237zm-.451-3.744c-.087-.856-.109-1.718-.171-2.779.905.094 1.631.144 2.345.263.181.03.47.287.467.431-.034.963.502 1.873.258 2.925-.253.051-.508.15-.763.145-.411-.005-.824-.069-1.233-.123-.564-.073-.846-.302-.903-.862zm-.938 25.29c-.329 0-.606.042-.863-.013-.268-.057-.452-.238-.547-.544-.287-.935-.271-1.878-.209-2.912.977-.235 1.768.03 2.633.14.038.238.159.483.093.658-.338.891-.724 1.763-1.107 2.67zm-2.149-7.249c-.086-.816-.097-1.64-.145-2.543 1.058-.272 1.867.17 2.776.22.141 1.175.276 2.293.117 3.474-.664-.057-1.212-.085-1.753-.156-.57-.076-.935-.438-.995-.995zm-.657-8.707c.863-.283 1.642-.097 2.427.181.318.351.472.785.417 1.248-.085.705.334 1.442-.118 2.134-.877-.037-1.753.08-2.606-.474-.024-.977-.242-1.998-.12-3.089zm-2.925 21.305c-.014-1.03-.474-2.06-.273-3.153 1.08-.178 1.339-.15 2.659.284.213 1.051.293 2.156.425 3.346-1.061-.038-1.924-.004-2.811-.477zm1.549 6.097c-.046.117-.169.257-.28.282-.156.036-.397.034-.49-.06-.149-.154-.269-.39-.295-.603-.097-.855-.153-1.714-.231-2.656.793-.08 1.533-.177 2.243.488-.312.85-.621 1.703-.947 2.55zm-2.29-15.74c.842.255 1.746-.052 2.603.56l.294 3.101c-.932.351-1.793-.05-2.756-.133.002-1.192-.55-2.276-.141-3.529zm-2.956 21.81c-.021-1.209-.557-2.33-.114-3.548.541.063 1.033.122 1.524.176.777.085.932.17 1.079.972.147.794.185 1.608.27 2.431-.944.513-1.8-.02-2.759-.032zm1.302 5.995c-.059.12-.273.206-.425.223-.083.01-.256-.149-.27-.249-.126-.896-.231-1.795-.326-2.695-.013-.12.07-.252.156-.536l1.775.23c-.217 1.1-.445 2.097-.91 3.027zm-2.12-15.872c.768.088 1.403.134 2.028.243.33.058.55.291.602.664.051.36.189.711.213 1.071.037.548.01 1.1.01 1.734-.229.043-.491.15-.739.126-.589-.057-1.169-.176-1.775-.273-.379-1.127-.43-2.248-.339-3.565zm-.798-6.034c.979-.37 1.838-.028 2.771.098.024 1.122.52 2.155.249 3.336-.243.047-.504.156-.754.136-.54-.043-1.076-.15-1.636-.236-.636-1.034-.281-2.225-.63-3.334zm-.378 28.11c-1.811-.265-1.818-.267-1.895-2.085-.02-.497.009-.996.015-1.574.878-.213 1.538.034 2.2.143.16.026.334.295.402.488.121.34.212.704.235 1.063.037.592.009 1.19.009 1.846-.24.282-.612.171-.966.12zm-.143 5.708c-.042.14-.24.33-.362.325-.2-.006-.395-.149-.588-.242-.034-.017-.071-.072-.073-.112-.072-1.033-.363-2.068.006-3.199l1.829.334c-.292 1.053-.535 1.978-.812 2.894zm-2.207-12.266l-.316-3.298c.886-.353 1.681-.048 2.475.095.108.02.265.182.271.285.052 1 .508 1.97.217 3.056-.846.298-1.665-.014-2.647-.138zm-.452 22.43c-.104.532-.27 1.054-.406 1.573h-1.497c-.563-1.164-.424-2.304-.436-3.366.432-.375.774-.14 1.117-.059.473.112 1.091-.159 1.394.383.268.483-.079.982-.172 1.468zm-1.66 5.9c-.179-.45-.133-.894-.066-1.329.013-.083.199-.2.295-.192.089.01.225.16.235.257.053.47-.013.911-.464 1.263zm-1.275-13.462c.866 0 1.504-.028 2.137.01.454.026.669.256.698.692.05.721.065 1.445.095 2.194-.86.493-1.628-.133-2.379 0-.757-.916-.392-1.889-.551-2.896zm-.456-3.828c-.083-.772-.081-1.554-.116-2.349.865-.467 1.638-.076 2.436.11.283.305.429.674.436 1.107.004.367.004.737.044 1.102.046.408.175.814-.138 1.235-.52-.037-1.066-.048-1.605-.12-.627-.085-.987-.429-1.057-1.085zm-.941 18.88c-.362 0-.726-.058-1.088-.088-.934-.078-1.052-.216-1.116-1.169-.032-.45-.135-.895-.176-1.344-.027-.309-.005-.622-.005-.966.566-.25.963-.207 1.369-.107.394.096.794.164 1.236.253.422 1.025.204 2.14.444 3.266-.252.062-.458.153-.664.154zm-2.874-9.79c.85-.658 1.667-.007 2.549-.002.241 1.153.329 2.274.263 3.646-.928-.348-1.852-.063-2.639-.695.024-.97-.513-1.924-.173-2.949zm-.455-6.02c.71.08 1.382.15 2.052.24.129.016.246.114.436.208.102.895.396 1.81.098 2.922l-2.437-.387c-.182-1.017-.632-1.952-.149-2.984zm-.342-2.749c-.434-1.208-.565-2.314-.45-3.446.934-.117 1.85.003 2.743.373.026 1.032.367 2.09.097 3.17-.892.367-1.639-.18-2.39-.097zm-.603-6.315c-.638-1.066-.371-2.22-.482-3.375.797-.33 1.513-.029 2.212.076.384.057.578.471.611.842.072.82.085 1.645.124 2.527-.261.068-.474.183-.678.166-.59-.049-1.176-.152-1.787-.236zm-3.079 17.703c-.135-.028-.313-.244-.329-.389-.101-.899-.167-1.803-.232-2.706-.004-.075.076-.157.19-.378.832.067 1.655-.018 2.403.378.443 1.032.189 2.1.444 3.112-.896.42-1.691.146-2.476-.017zm-1.05-9.13c.891-.396 1.649.213 2.586.094.096.555.197.953.225 1.356.035.495.009.995.009 1.531-.947.383-1.742-.098-2.661-.106.093-1.017-.385-1.913-.159-2.876zm-.631-6.255c.908-.38 1.685.036 2.506.07.452 1.132.173 2.302.431 3.4-.751.177-1.664.068-2.704-.339-.007-.99-.493-1.975-.233-3.13zm-.288-3.015c-.221-1.162-.497-2.22-.313-3.326 1.393-.113 1.483-.102 2.687.325.083 1.065.286 2.143.062 3.393l-2.436-.392zm-.671 18.031c-.76-.01-1.557.031-2.288-.284-.669-1.027-.302-2.169-.598-3.235.932-.377 1.764-.067 2.605.068.396.553.207 1.174.292 1.75.077.532.296 1.063-.011 1.701zm-3.281-7.155c-.1-.754-.14-1.517-.219-2.455 1.007.18 1.897-.005 2.734.578.058.868.31 1.77.284 2.808-.755-.062-1.424-.085-2.083-.185-.384-.058-.664-.362-.716-.746zm-.545-5.759c-.119-.81-.188-1.627-.258-2.443-.011-.12.076-.249.137-.433.683-.145 1.353.05 2.018.132.395.05.628.364.662.774.074.857.137 1.714.207 2.605-.834.43-1.62.056-2.398-.107-.158-.033-.339-.33-.368-.528zm-.717-9.173c.913-.08 1.77.026 2.636.454l.225 3.023c-.718.293-.718.293-2.665-.1.02-1.142-.535-2.176-.196-3.377zm-.386 21.3c-.264.046-.568.162-.862.141-.499-.034-.993-.155-1.555-.25-.353-1.135-.492-2.286-.394-3.537.762.096 1.436.175 2.105.272.132.02.252.11.466.207.162 1.068.54 2.036.24 3.166zm-3.312-9.185c.752-.217.752-.217 2.485.11-.003.905.483 1.782.244 2.812-.901.31-1.635.018-2.41-.154-.478-.887-.456-1.823-.319-2.768zm-.355-3.306c-.122-.342-.213-.705-.253-1.067-.071-.63-.093-1.266-.138-1.927.869-.406 1.697 0 2.659.055.131 1.051.25 1.95.348 2.851.018.171-.046.352-.08.585-.75.167-1.456-.035-2.16-.139-.144-.02-.322-.208-.376-.358zm3.498-15.014c.705-.195 1.427.004 2.14.068.17.015.439.277.453.443.082.99.372 1.984.019 2.976-.013.04-.06.068-.171.185l-2.228-.293c-.116-1.157-.555-2.199-.213-3.379zm3.782-12.029c.827.172 1.671-.042 2.399.426.54 1.001.332 2.067.423 3.23-1.025.185-1.862-.008-2.777-.208-.01-1.133-.417-2.238-.045-3.448zm3.32 7.622c.027.726.006 1.453.006 2.226-.839.284-1.631.04-2.415-.174-.14-.038-.323-.25-.333-.392-.062-.91-.085-1.826-.108-2.74-.002-.068.105-.138.187-.24.519.037 1.067.041 1.604.123.748.114 1.032.442 1.059 1.197zm.586 8.571c-1.426.085-1.426.085-2.452-.287-.596-1.002-.268-2.128-.476-3.272.987-.2 1.842-.004 2.814.377.083 1.12.218 2.148.114 3.182zm-.358-28.077c.797-.08 1.523-.024 2.21.24.221.086.496.34.53.553.153.931.226 1.875.336 2.894-1.042.114-1.949-.04-2.901-.449-.026-1.074-.398-2.125-.175-3.238zm1.008 9.641c-.528-1.037-.126-2.195-.509-3.293 1.08-.178 1.907.048 2.842.238-.083 1.137.594 2.2.147 3.42-.84-.039-1.656.038-2.48-.365zm2.825 3.197c.198 1.07.5 2.151.314 3.445-.833-.08-1.514-.139-2.192-.217-.128-.015-.249-.109-.424-.189-.279-.993-.261-2.04-.307-3.067.3-.356.688-.268 1.038-.233.499.05.991.161 1.571.261zm.521 6.181c.568 1.15.348 2.261.46 3.343-.181.086-.312.207-.416.188-.754-.14-1.566-.007-2.338-.472-.093-1.013-.372-2.034-.131-3.186.295-.042.599-.139.896-.116.499.038.991.153 1.529.243zm2.585-24.49c.052 1.026.4 1.94.31 2.913-.05.55-.269.73-.814.63-.579-.105-1.153-.229-1.76-.352-.395-1.169-.387-2.214-.394-3.319.927-.308 1.741.164 2.658.128zm-1.612 34.225c-.31.032-.568.086-.823.078-.225-.006-.445-.098-.67-.126-1.272-.159-1.296-.156-1.311-1.48-.006-.67-.303-1.346.03-2.118.867-.207 1.577.25 2.335.19.524 1.125.47 2.245.439 3.456zm2.679-24.615c-.125.08-.24.213-.344.206-.769-.054-1.538-.135-2.396-.216-.128-1.246-.455-2.27-.209-3.422.244-.045.506-.15.753-.124.545.06 1.083.185 1.592.278.589 1.052.359 2.194.604 3.278zm.13-21.876c.478.06.836.118 1.196.15 1.349.118 1.42.23 1.564 1.748.054.587.008 1.184.008 1.833-.823.363-1.643-.169-2.533-.11-.266-1.175-.508-2.28-.235-3.62zm3.278 7.39c.095.726.172 1.454.233 2.183.02.247-.116.44-.385.486-.792.136-1.536-.092-2.417-.24-.03-1.209-.452-2.226-.187-3.376.762-.107 1.516-.025 2.253.183.354.1.46.441.503.764zm.825 9c-.535 0-.99.055-1.427-.01-1.23-.187-1.293-.284-1.453-1.562-.05-.409-.17-.812-.199-1.22-.021-.303.05-.612.087-.99.921.22 1.828-.03 2.7.565.022.997.435 2.032.292 3.217zm2.833-21.478c.101 1.056.354 2.12.152 3.224-.812.086-1.541.031-2.23-.256-.19-.078-.442-.292-.456-.46-.075-.948-.308-1.89-.212-2.94.959-.076 1.844-.059 2.746.432zm.709 9.54c-.864.073-1.648-.045-2.421-.336-.577-1.07-.287-2.224-.495-3.364.977-.116 1.803.126 2.779.304.117 1.164.388 2.23.137 3.396zm.457 2.954c.118 1.052.24 2.136.358 3.201-.437.512-.87.025-1.292.041-.444.017-.893-.085-1.355-.137-.365-1.129-.52-2.186-.325-3.269 1.011-.279 1.011-.279 2.614.164zm.507-18.415c.871-.287.871-.287 2.579.125.212 1.098.455 2.208.209 3.434-.872-.12-1.731-.073-2.53-.42-.287-1.066-.42-2.097-.258-3.139zm.604 30.805c.088.223.187.384.213.555.097.677.174 1.357.252 2.038.015.135.004.275-.004.412-.021.314-.234.54-.524.515-.546-.047-1.092-.11-1.637-.179-.361-.046-.61-.288-.655-.619-.118-.897-.18-1.8-.264-2.699.929-.509 1.755.104 2.619-.023zm-2.896-3.188c.022-1.03-.477-2.02-.23-3.115.889-.443 1.696.058 2.525.092.572 1.077.006 2.243.712 3.413-1.232.143-2.105.053-3.007-.39zm-1.43 21.238c1.405.27 1.395.27 1.493 1.69.029.406.168.803.193 1.208.016.254-.088.515-.151.843-.733-.077-1.409-.12-2.074-.23-.331-.053-.597-.308-.62-.656-.061-.9-.237-1.796-.232-2.649.496-.394.943-.292 1.391-.206zm-1.86-6.262c.835-.245 1.568.077 2.347.172.306.475.426.987.451 1.546.023.497.133.99.187 1.485.033.294-.214.58-.489.52-.75-.165-1.561-.064-2.31-.538-.052-1.03-.486-2.077-.186-3.185zm-.342-3.035c-.29-.997-.382-2.033-.296-3.207.905-.133 1.709-.133 2.479.2.483 1.088.359 2.226.473 3.453-.943-.15-1.817.016-2.656-.446zm-2.784 21.246c.839-.152 1.586.056 2.387.254.571 1.07.465 2.25.526 3.491-.975.01-1.809-.22-2.819-.389-.013-1.17-.317-2.239-.094-3.356zm-.572-6.298c.846.031 1.658-.059 2.501.35.097 1.077.549 2.158.198 3.397l-2.563-.322c-.1-1.165-.378-2.236-.136-3.425zm2.223-24.64c1.083.204 1.965.053 2.833.547.038 1.038.507 2.074.227 3.23-.84.255-1.61-.064-2.399-.194-.575-1.097-.306-2.276-.661-3.584zm-.248 18.75c.048 1.002.501 1.994.228 3.033-.953.322-.953.322-2.697-.123l-.29-3.4c.981.064 1.878-.038 2.759.49zm-3.539-9.453c-.266-1.126-.341-2.24-.386-3.398.837-.26 1.55.005 2.257.074.396.04.557.471.601.838.093.767.134 1.541.192 2.313.002.04-.033.084-.069.17-.822.5-1.665.003-2.595.003zm.37 2.7c.857.055 1.713-.003 2.587.404l.356 3.141c-.384.076-.683.2-.974.18-.54-.037-1.074-.158-1.595-.24-.349-.333-.408-.763-.368-1.156.078-.756-.447-1.508-.006-2.33zm14.069-32.209c-.26.091-.429.206-.591.196-.591-.035-1.185-.083-1.766-.19-.186-.036-.475-.269-.478-.417-.022-.993-.445-1.968-.154-3.05.206-.05.423-.16.627-.137.628.07 1.252.19 1.831.283.527 1.106.281 2.226.531 3.315zm.271-21.825l2.229.297c.331.51.48 1.023.479 1.585v1.713c-.029.018-.143.15-.247.143-.68-.045-1.403.004-2.026-.218-.842-.299-.388-1.214-.595-1.832-.166-.499-.165-1.08.16-1.688zm3.138 7.11c.185.888.218 1.796.285 2.765-1.031.28-1.895.087-2.812-.212-.11-1.105-.21-2.18-.287-3.306.885-.16 1.598.003 2.291.174.214.054.475.352.523.58zm-1.85 30.496l.174 3.001c-1.054.257-1.054.257-2.566-.133-.332-1.049-.444-2.124-.383-3.216.675-.18 1.648-.073 2.775.348zm-3.798-9.939c-.088-.986-.39-1.965-.213-3.022.81-.215 1.564.013 2.309.15.175.032.41.292.44.475.151.94.179 1.89.207 3.055-.91-.088-1.594-.127-2.266-.237-.184-.03-.464-.262-.477-.42zm1.075 3.135c.502.032 1.006.086 1.498.181.321.061.631.236.671.606.066.64.104 1.282.123 1.925.008.31-.057.622-.108 1.141l-2.338-.328c-.718-1.036-.337-2.215-.531-3.397.269-.054.481-.142.685-.128zm5.282-14.469c-.504-.022-.91-.013-1.308-.065-.358-.046-.706-.16-1.164-.268-.092-.33-.301-.719-.284-1.097.036-.76-.311-1.519-.031-2.364.898.166 1.827-.063 2.689.537-.029 1.01.381 2.018.098 3.257zm2.981-21.507c-.009 1.024.422 2.021.266 3.058-1.082.245-1.082.245-2.543-.112-.588-.96-.263-2.092-.523-3.206 1.07-.289 1.889.017 2.8.26zm-4.86 27.48c-.425-1.115-.352-2.247-.398-3.46.912.016 1.747.126 2.624.392.306 1.083.497 2.173.257 3.3-.925.197-1.709.003-2.483-.233zm.361 2.926c.864-.105 1.657.061 2.491.287.401 1.104.512 2.245.337 3.492l-2.663-.388c-.022-1.167-.595-2.233-.165-3.39zm5.274-20.874c-.845.044-1.648.023-2.461-.31-.555-.998-.304-2.135-.499-3.3.969-.21 1.755.123 2.635.171.256 1.113.557 2.198.325 3.44zm.737 6.236c-.739.122-1.869-.035-2.758-.375-.053-1.004-.468-2.015-.134-3.175.897-.19 1.631.156 2.361.154.603 1.13.366 2.29.531 3.396zm.414 3.762c0 .85.255 1.694.106 2.74-.988-.255-1.892-.022-2.724-.634-.037-.964-.368-1.97-.177-3.112.274-.04.533-.128.78-.103.541.056 1.075.171 1.674.271.115.268.341.553.341.838zm-.232-25.357c.778-.22 1.154-.209 2.458.08.551 1.046.274 2.205.425 3.41-.954.045-1.773-.16-2.619-.345-.251-1.065-.486-2.088-.264-3.145zm3.242 6.798c.054.174.096.354.12.535.077.587.142 1.176.213 1.764.054.445-.204.766-.638.652-.662-.174-1.44.105-1.992-.387-.538-.477-.21-1.225-.376-1.837-.116-.424-.059-.894-.085-1.433.882-.249 1.534.068 2.203.148.286.034.47.277.555.558zm.634 5.984c-.103 1.02.378 2.024.17 3.118-.883.298-1.669-.068-2.507-.109-.493-1.113-.302-2.259-.59-3.59 1.171.248 2.074.05 2.927.581zm.581-18.683c.64.084 1.352.167 2.062.277.293.045.51.24.536.543.066.816.114 1.633.147 2.451.005.116-.111.236-.21.43l-1.885-.104c-.373-.02-.639-.258-.665-.58-.075-.942-.271-1.88-.159-2.83.005-.038.06-.068.174-.187zm.107 28.133c-.254.034-.519.122-.769.091-.541-.069-1.073-.199-1.664-.314-.489-1.044-.329-2.192-.47-3.298.949-.157 1.76-.044 2.741.372.042 1.003.54 2.002.162 3.15zm3.145-18.365c-.822.515-1.583-.049-2.35-.093-.752-.98-.225-2.142-.693-3.199 1.119-.24 2.032-.225 2.928.257.036 1.022.359 2.002.115 3.035zm.373 3.132c.085.414.211.81.234 1.212.038.675.01 1.354.01 2.068-.834.272-1.608-.125-2.458-.153-.444-1.114-.446-2.232-.38-3.422.901-.129 1.723.08 2.594.295zm1.42-18.478c.546.045 1.083.174 1.688.28.32 1.063.4 2.14.345 3.318-.881.244-1.698-.064-2.698-.305l-.308-3.133c.376-.068.681-.185.973-.16zm-.472-30.469c-.46-1.106.28-2.102.022-3.295l2.463-.433c.425.944.421 1.888-.02 3.416-.784.164-1.574.533-2.465.312zm2.146 5.831c-.823.47-1.658.344-2.527.44-.152-1.142-.194-2.226.212-3.427l2.411-.388c.444 1.2-.032 2.293-.096 3.375zm-.221 6.308l-1.445.341c-.935-.852-1.769-1.724-1.237-3.158 1.078-.46 1.478-.514 2.686-.34.244 1.022-.279 2.034-.004 3.157zm1.092 25.784c.069.73.092 1.462.121 2.194.003.076-.086.155-.169.294-.809-.203-1.699-.039-2.564-.452-.066-.978-.433-1.944-.188-3.056.282-.049.584-.153.883-.142.502.017 1.001.107 1.654.185.103.367.234.667.263.977zm.618 6.998c.043.54.253 1.08-.06 1.773-.895-.064-1.765-.038-2.627-.577l-.268-2.843c.355-.427.723-.368 1.091-.318 1.723.233 1.724.233 1.864 1.965zm.302-30.266l2.354-.402c.465 1.19-.042 2.277-.059 3.431-.631.202-1.17.283-1.579-.349-.073-.113-.17-.217-.275-.302-.769-.63-.999-1.374-.441-2.378zm.281-6.283l2.543-.376c.107 1.191.253 2.272-.241 3.424l-2.484.462c-.188-1.298.023-2.37.182-3.51zm.389-6.17c.869-.36 1.728-.402 2.597-.48.062.17.169.31.143.417-.239.978.007 2.015-.272 3.002-.92.218-1.744.474-2.584.33-.082-.145-.169-.226-.163-.298.086-.993.185-1.985.279-2.97zm-.273 26.027c-.28-1.185-.438-2.247-.364-3.342.499-.008.6.351.792.58.649.773 1.281 1.561 1.915 2.348.055.068.075.166.11.251.086.208-.106.506-.337.477-.673-.086-1.344-.197-2.116-.314zm.333 3.026c.014-.04.058-.07.137-.166.766-.02 1.557.087 2.397.371.036 1.03.485 2.025.16 3.132-.787.246-1.536-.026-2.285-.082-.097-.008-.259-.185-.259-.284-.005-.994-.467-1.965-.15-2.97zm4.102-17.18c1.246-.558 1.246-.558 2.534-.405.023.037.066.075.064.111-.049 1.004-.101 2.007-.158 3.08-.81.242-1.589.442-2.483.425-.45-1.124-.08-2.18.043-3.212zm.437-6.357c.803-.35 1.611-.394 2.463-.55.067.373.167.636.151.892-.045.725-.135 1.448-.216 2.171-.035.3-.205.54-.503.571-.663.071-1.335.26-2.052.03-.26-1.087.02-2.096.157-3.114zm.276-4.919c.032-.408.005-.82.005-1.223.817-.668 1.651-.395 2.448-.692.101.272.227.47.24.673.024.41.075.851-.042 1.23-.161.516.134 1.247-.406 1.53-.543.284-1.221.326-1.847.427-.359.057-.624-.24-.583-.59.053-.454.149-.902.185-1.355zm3.767 16.797c.897-.49 1.666-.51 2.454-.519.443.571.148 1.161.113 1.73-.034.538.073 1.098-.225 1.672-.781.044-1.525.541-2.403.217-.404-1.068.178-2.079.061-3.1zm.319-6.342c.803-.49 1.663-.257 2.483-.607.094.397.203.651.2.902-.008.498-.052 1-.13 1.492-.204 1.291-.214 1.297-1.533 1.398-.349.027-.702-.01-1.189-.02l.169-3.165zm.377-5.732c.019-.344.211-.666.526-.738.644-.148 1.293-.427 2.008-.202.254.871.198 1.73.065 2.585-.076.493-.37.823-.893.9-.532.077-1.061.157-1.699.251-.012-.538-.029-.982-.031-1.427-.002-.456-.004-.914.024-1.369zm5.129.62c.279-.072.491.201.506.7-.011.075.013.237-.055.335-.09.128-.255.286-.383.282-.137-.005-.299-.16-.393-.292-.067-.097-.058-.26-.056-.394.006-.279.052-.549.381-.632zm4.518 6.828c-.041-.009-.091-.008-.119-.032-.021-.017-.012-.068-.016-.105l.112-.036.023.173zm1.151-2.948c-.158.036-.243.074-.325.07-.272-.013-.544-.042-.825-.065-.321-.32-.638-.644-.961-.959-.887-.866-.939-1.05-.646-2.408 1.004-.22 1.004-.22 2.431.242.119 1.017.414 2.053.326 3.12zM104.068 890.73c-.41-.01-.818-.094-1.226-.146-.618-.078-.874-.262-.861-.85.021-.868-.415-1.715-.096-2.624.821-.526 1.567.232 2.517-.015l.426 3.467c-.271.064-.518.174-.76.168zm48.929-150.775c-.813.412-1.645.54-2.578.422-.286-1.103-.195-2.17.207-3.303.741-.283 1.554-.355 2.409-.43.296 1.111.086 2.194-.038 3.311zm-.487 6.468c-.897.12-1.717.328-2.617.303.038-.67.067-1.25.103-1.827.034-.534-.111-1.095.22-1.626.8-.19 1.607-.289 2.429-.265.275.732.245 1.665-.135 3.415zm-.216 5.89c-.427.39-.939.45-1.419.544-.767.15-1.333-.348-1.355-1.135-.001-.045.008-.09.019-.136.143-.613-.255-1.45.312-1.82.696-.453 1.581-.629 2.556-.436-.04 1.084-.077 2.04-.113 2.983zm-3.84-17.809c-.918.244-1.767.59-2.697.32l.151-3.286c.688-.134 1.221-.257 1.761-.334.303-.043.616-.008.935-.008.05.18.126.312.117.437-.08.951-.175 1.901-.267 2.871zm-.261 4.603c-.029.542-.022 1.086-.035 1.743l-2.688.421c-.064-.345-.177-.643-.159-.932.045-.725.146-1.447.238-2.168.016-.129.094-.25.175-.453.817-.119 1.651-.276 2.62-.253-.056.595-.122 1.117-.151 1.642zm-.387 7.378c-.075.474-.399.73-.823.815-.574.116-1.162.165-1.769.246-.483-1.076.046-2.119-.12-3.189.847-.44 1.715-.614 2.658-.558.271.882.195 1.782.054 2.686zm-4.515-11.076c-.719.037-1.431.445-2.215.252-.33-.428-.229-.905-.2-1.348.036-.543.157-1.08.243-1.62.049-.31.266-.535.531-.56.628-.06 1.255-.292 1.884-.102.373 1.223.311 2.153-.243 3.378zm.105 4.491c-.005.09-.039.182-.081.262-.255.485.156 1.281-.428 1.507-.648.25-1.377.496-2.25.278-.165-.906-.13-1.729-.053-2.547.064-.684.263-.944.925-.975.581-.028 1.133-.455 1.785-.113.229.495.129 1.045.102 1.588zm-.571 5.572c-.24-.109-.39-.133-.466-.22-.135-.154-.33-.36-.306-.518.036-.257.332-.246.547-.217.257.034.379.221.365.472-.009.125-.07.247-.14.483zm-3.847-15.584c-.807.02-1.525.407-2.379.231-.292-.986-.255-1.96.08-2.937.098-.292.294-.493.573-.532.623-.086 1.254-.265 1.976-.04.238 1.18-.075 2.19-.25 3.278zm-.251 5.827c-.02.184-.236.471-.391.493-.753.105-1.481.5-2.348.244-.199-.53.202-1.036.132-1.575-.07-.534.001-1.087.011-1.607.899-.502 1.782-.567 2.644-.577.088.153.176.232.171.306-.059.906-.113 1.815-.219 2.716zm-.391 5.781c-1.017-.556-1.751-1.246-2.524-2.146l2.647-.452c-.032.975.067 1.73-.123 2.598zm-3.792-17.147c-.835.273-1.704.47-2.651.33l.158-3.19c.809-.622 1.73-.463 2.612-.484.227.788.194 1.63-.119 3.344zm-.217 5.612c-.028.543-.189.745-.727.833-.66.108-1.311.457-2.082.117-.249-1.029.332-2.033.171-3.135 1.401-.557 2.031-.645 2.717-.429-.024.877-.035 1.746-.079 2.614zm-.737 7.055c-1.186.242-1.588-.822-2.358-1.213-.139-.648-.03-1.225.075-1.8.771-.492 1.632-.33 2.486-.613.423 1.311.267 2.473-.203 3.626zm-4.035-11.903c-1.244.417-1.244.417-2.409.295-.396-1.048.121-2.058.147-3.13.769-.579 1.595-.389 2.321-.609.437.95.413 2.035-.059 3.444zm-.247 6.31c-.815.262-1.615.347-2.481.42-.22-1.186-.224-2.305.055-3.363.161-.097.234-.172.316-.184.722-.109 1.443-.207 2.203-.313.501 1.176-.16 2.27-.093 3.44zm-3.931-13.563c-.059.54-.175 1.072-.268 1.618-1.112.533-1.112.533-2.419.438-.257-1.344-.222-2.122.179-3.316l2.323-.504c.388.6.246 1.193.185 1.764zm-.472 7.648c-.006.13-.073.257-.14.478-.866.067-1.71.44-2.709.246.286-1.142-.082-2.296.296-3.434.871-.12 1.676-.233 2.562-.356.076.264.256.541.198.752-.211.766-.163 1.541-.207 2.314zm-.447 5.148c-.86-.275-1.44-.813-2.177-1.373.819-.41 1.479-.598 2.306-.418.011.571.097 1.136-.129 1.791zm-4.023-11.17c-.029.722-.282.994-.965 1.111-.538.092-1.082.142-1.76.228-.353-1.272.13-2.363.126-3.49.885-.346 1.756-.174 2.608-.4 0 .917.026 1.735-.009 2.551zm-.618 7c-.29.316-.663.498-1.092.402-.546-.123-1.002-.443-1.366-.87-.082-.097-.145-.258-.132-.379.07-.63.049-1.306.289-1.868.214-.5.917-.254 1.383-.439.306-.12.7-.023 1.079-.023.342 1.118.058 2.135-.161 3.177zm-4.143-11.659c-.717.345-1.518.401-2.372.417-.394-1.17-.109-2.257.19-3.43l2.354-.31c.39 1.152.099 2.204-.172 3.323zm-.026 4.39c-.036.45-.13.896-.188 1.345-.069.53-.234.733-.747.812-.572.088-1.147.145-1.756.22-.181-.428-.222-.843-.223-1.252.158-.22.319-.437.43-.719-.108-.363-.16-.75-.248-1.125.143-.32.435-.437 1.16-.603.757-.174.752-.189 1.579.042 0 .468.026.876-.007 1.28zm-.689 5.238l-.249-.28c.04-.024.087-.073.119-.065.105.028.206.077.332.127-.099.105-.15.162-.202.218zm222.295-2.723c-.747-2.507-1.701-4.923-2.832-7.252-5.465-11.259-15.743-19.047-27.036-24.44-6.178-2.95-23.285-4.566-23.285-4.566 6.122-3.274 14.522-.02 14.522-.02-.505-2.932-8.03-4.463-8.03-4.463 6.489-2.854 12.476 3.495 12.476 3.495.14-3.104-7.07-6.827-7.07-6.827 8.41-.079 11.467 7.244 11.467 7.244.828-5.668-4.433-9.314-4.433-9.314 6.915 2.42 9.252 11.721 9.252 11.721 1.424-6.354-4.746-13.166-4.746-13.166 7.021 1.87 8.721 14.331 8.721 14.331 2.394-5.916-3.695-14.375-3.695-14.375 8.542 4.51 7.825 16.958 7.825 16.958 2.221-5.625.111-11.26.111-11.26 3.815 5.3 2.497 13.706 2.497 13.706 1.953-3.345 2.455-7.183 2.455-7.183.903 2.272 1.232 8.006 1.232 8.006 4.092-14.33-2.199-23.69-11.845-25.946-22.329-5.222-35.295 12.305-35.295 12.305s6.18-30.788-14.778-54.052c-6.612-7.45-14.281-12.597-20.015-14.27-6.214-1.813-11.614-2.237-17.374-.785-2.763.696-6.6 1.737-9.089 3.124-4.434 2.471-8.693 5.474-15.084 11.942 14.899-8.885 26.688-11.44 26.688-11.44-6.44 3.147-11.761 6.31-19.146 12.108 15.522-6.458 22.527-9.932 27.491-11.227-2.819 1.853-18.805 8.698-19.664 11.837 9.078-4.832 26.431-9.849 26.431-9.849-4.013 2.596-18.346 8.913-21.186 12.534 11.962-4.86 28.759-8.17 28.759-8.17-9.773 3.956-19.283 7.697-25.069 11.548 7.596-2.89 30.384-7.098 30.384-7.098l-19.354 7.335c-.594.297-4.558 2.121-5.101 2.52 6.586-1.406 21.288-4.634 27.947-4.846-6.491 3.493-17.223 6.433-22.023 8.255 0 0 11.776.7 26.983-3.188 0 0-4.565 4.38-21.061 7.987 6.691 1.127 14.03.92 24.822-1.525-5.007 3.227-14.811 5.475-20.238 6.586 5.807 1.111 16.703.57 23.139-.34-4.476 3.692-10.364 4.444-19.177 5.093 5.004 2.113 20.705 1.637 20.705 1.637-2.885 1.827-9.038 2.876-16.171 3.178 3.125.612 14.325 3.595 17.407 4.081-5.409.05-9.933-.027-15.169.735 6.085 1.902 12.365 4.138 14.314 6.98-4.944-2.484-10.411-2.25-12.266-1.94 2.339 1.021 8.142 1.997 9.353 7.138-2.141-1.484-6.395-2.753-8.409-2.63 0 0 3.654 3.083 3.717 6.494 0 0-1.928-2.297-3.502-2.858 0 0 2.542 5.45.748 7.455 0 0-11.606-40.092-45.937-47.7 0 0-16.497-3.776-34.646 8.665 0 0-16.361 11.175-21.861 12.155 6.611-1.304 20.847-7.913 27.788-12.407-1.882 2.478-13.066 10.525-18.656 12.915 13.789-2.706 26.87-15.464 26.87-15.464-1.613 3.743-12.215 13.755-18.003 16.618 4.196-.652 22.245-14.445 27.778-17.662 0 0-17.332 16.374-18.737 17.467 5.429-2.965 20.721-15.243 26.574-17.418-4.533 5.504-16.987 14.575-20.929 18.355 2.97-1.61 5.522-3.543 8.253-5.024 2.684-1.457 16.102-10.46 19.337-10.897 0 0-16.571 12.118-19.373 16.66 3.201-1.93 6.522-4.565 9.577-6.245 2.958-1.627 11.763-6.749 15.972-7.19-5.305 4.677-13.904 9.426-18.466 13.76 2.841-1.313 21.258-9.78 24.395-11.086-.595 1.066-13.242 10.265-15.71 11.796 6.896-1.448 16.238-5.337 21.821-6.952-1.255 1.015-9.499 7.544-13.239 8.653 7.226-.797 13.074-2.698 18.019-4.313-1.839 2.653-9.613 6.386-9.613 6.386 6.395-.389 14.43-.787 14.43-.787l-9.043 3.737c2.533.154 12.448 1.182 12.448 1.182-2.728.61-7.179 2.165-7.179 2.165 7.455-.082 9.175 4.134 9.175 4.134-3.112-1.749-6.746-1.176-7.443-1.022 2.128 1.224 4.528 2.483 5.861 4.472 1.358 2.023 1.728 4.552 1.267 7.27-4.963-9.21-15.704-17.394-25.412-19.506-1.611-.35-3.225-.639-4.84-.869-9.216-1.31-18.579-.186-27.309 2.922-4.103 1.461-7.959 3.541-11.667 5.824l-11.078 6.82s19.511-10.02 25.677-10.94c-4.598 3.193-18.557 11.25-21.217 13.703 16.154-8.864 30.681-13.769 30.681-13.769-5.191 3.198-15.28 10.993-18.925 14.664 5.87-3.166 20.749-12.968 27.386-14.41l-17.142 13.072c6.553-2.852 19.937-10.886 26.192-11.803-2.327 1.3-15.858 11.098-17.883 13.004 5.579-2.96 18.086-9.12 24.437-10.214-5.013 1.843-17.271 12.714-17.271 12.714l22.132-10.353-16.139 11.996c3.668-.91 17.747-8.734 21.336-9.08-3.412 1.932-12.468 9.706-13.71 11.263 3.114-.907 12.167-6.55 18.205-6.575-2.253 1.427-10.13 5.705-11.963 7.258 1.762-.36 3.041-.669 4.339-.873 7.326-1.478 6.361 4.344 6.361 4.344-.428 2.098-1.128 3.344-2.327 4.491l-2.099-3.839c-1.071 2.267-.317 4.553-2.026 5.922l-2.574-3.09s-.163 3.177-1.659 5.171l-1.139.484c-.721-.764-1.402-1.487-2.049-2.17-.372 2-.696 3.831-1.08 5.63-.534.01-.982-.1-1.803-.408l-.255-.86c-1.046.243-5.445 2.283-6.468 2.987l.209 3.267c-1.022.185-1.884-.01-2.697-.322-.208-.517.01-1.1-.515-1.488-.577.317-1.262.471-1.737 1.028-.132.154-.376.227-.582.298-1.405.486-2.612 1.321-3.832 2.072-.275 1.203.295 2.353-.082 3.513-.832-.036-1.657-.006-2.406-.408-.299-.34-.125-.939-.722-1.187-1.283.821-2.599 1.66-3.91 2.505-.503.324-.992.673-1.494 1-.6.388-.929.834-.622 1.611.181.46.154.983-.106 1.531-.477-.04-.93-.044-1.368-.127-.483-.092-.95-.258-1.519-.419-.906.714-1.974 1.337-2.925 2.278l1.228.55c.46 1.051.402 2.18.409 3.367-.998-.025-1.903-.014-2.695-.43-.296-.744.128-1.572-.534-2.197-.797.464-1.561.954-1.798 1.95-.669.053-1.177.286-1.629.737-.683.681-1.428 1.304-2.178 1.913-.324.263-.447.566-.448.953v1.927c-.668.128-1.245.062-1.839-.044-.289-.05-.685-.007-.907.16-.765.571-1.566 1.124-2.072 1.957.609.802.294 1.731.491 2.568.079.34.089.741-.32 1.117l-2.134-.189-.581-1.015c-.604.21-.876.664-1.244 1-.34.312-.673.635-.976.981-.311.353-.804.59-.895 1.222l1.44.181c.072.204.164.37.186.542.109.863.203 1.728.292 2.592.021.2-.257.45-.464.414-.758-.129-1.515-.273-2.238-.405-.356-.729.015-1.573-.585-2.122-.137.068-.236.091-.297.152-1.636 1.623-3.278 3.24-4.894 4.884-.553.563-1.001 1.204-.93 2.072.01.11-.115.231-.211.405-.52-.048-1.069-.222-1.538.182-.296-.26-.571-.445-.767-.69-.528-.667-1.175-.99-2.034-.85-.067.01-.15-.088-.278-.168-.027-.135-.101-.315-.087-.487.054-.652-.199-1.142-.682-1.57-.892-.798-1.767-1.615-2.629-2.446-.588-.568-1.255-1.046-1.763-1.712-.312-.407-.645-.894-1.216-.986-.715.678-.048 1.692-.719 2.406-.78-.078-1.538.437-2.415.207 0-.819-.016-1.597.005-2.375.021-.717.092-.784.859-1.036.325-.107.653-.2 1.211-.37-1.312-.972-2.21-2.086-3.408-2.868-.059-.039-.168-.005-.246-.005l-.293.926c-.905.04-1.714.523-2.694.181.044-.6.097-1.184.127-1.769.032-.622-.113-1.266.342-1.846-.715-.608-1.385-1.164-2.041-1.738-.35-.309-.747-.326-1.168-.247-.533.101-1.064.214-1.617.326-.457-.859-.093-1.666-.012-2.518-1.03-.848-2.073-1.67-3.071-2.546-.431-.379-.9-.57-1.423-.536-.341-1.089-1.111-1.545-2.045-1.877-.288.784.047 1.567-.309 2.221-1.205.488-1.753.53-2.729.191l.278-3.14.962-.204c.184-.039.357-.093.32-.416l-3.008-2.06c-.937.57-1.892.712-2.869.481-.366-.833.016-1.596.027-2.4-.755-.489-1.486-.966-2.221-1.434-.699-.445-1.37-.942-2.108-1.306-.759-.374-1.361-1.09-2.279-1.16l-.346 1.37-2.517.433c-.533-1.207.476-2.4-.111-3.58-.485-.29-.981-.63-1.514-.895-.779-.386-1.569-.758-2.385-1.046-.254-.09-.449-.114-.661-.342-.501-.537-1.163-.82-1.926-.912l-.212 1.541c-.937.224-1.788.6-2.802.226.328-1.076.296-2.119.168-3.247-1.026-.506-2.085-.947-3.146-1.377-1.092-.443-2.126-1.047-3.37-1.283-.073.293-.085.53-.19.716-.103.182-.288.43-.456.445-.052.004-.106.02-.159.026-.339-1.206-.765-2.437-1.645-3.757-.169.497-.367.92-.57 1.32l-.807-.324-1.378 1.948c-1.081-1.876-.728-3.903-2.083-5.698-.929 1.681-1.151 2.381-1.872 3.688-.741-1.558-1.66-3.535-2.415-5.126-.869 1.751-.869 1.751-1.732 3.44-1.308-1.456-1.881-3.264-1.853-5.106.032-2.129 1.437-2.598 4.026-2.88-.811-.935-1.483-1.708-2.316-2.67 4.202-1.09 7.732-.348 11.559 1.558-1.207-1.416-6.77-4.51-7.931-5.873 0 0 5.389.068 15.366 5.578-1.218-1.63-10.461-7.835-12.759-9.662 3.087.625 17.076 7.815 19.232 8.74-.659-.729-13.437-10.136-14.446-10.827 0 0 11.75 3.551 20.597 9.387 0 0-13.429-10.659-15.881-11.64 4.88.534 18.561 6.928 23.497 10.185-4.923-5.615-19.041-12.128-19.041-12.128 8.09-.613 27.916 10.754 27.916 10.754-5.874-4.625-16.135-11.63-20.818-13.849 0 0 14.566 1.282 27.477 13.611 0 0-9.419-12.69-23.601-16.445-26.083-6.907-40.704 20.427-40.704 20.427-1.38-2.108-2.51-5.54-2.179-7.067.341-1.573 1.605-4.314 5.025-5.783l-10.98.72c2.093-1.35 8.697-3.227 10.325-3.68 1.576-.438 3.225-1.014 4.867-1.219-2.884-.575-11.437.33-14.864-.353 3.071-1.926 11.685-3.326 14.462-3.588 2.714-.257 3.874-.482 7.152-.415-5.29-2.037-14.421-1.919-19.276-2.648 8.76-1.987 24.246-.759 24.246-.759-5.729-2.764-19.529-6.144-19.529-6.144 5.35-.084 19.412.528 25.148 1.9-2.263-2.46-17.935-5.71-22.377-7.56 3.165-.587 24.093 3.047 28.401 5.34-1.733-1.82-18.448-8.419-21.399-9.705 3.381 1.02 25.617 6.303 28.899 7.292-3.693-2.287-19.402-10.67-24.054-11.5 8.336.796 24.757 8.2 33.207 8.672l-28.191-13.086c5.427 1.15 28.121 9.227 36.034 12.055-4.186-3.526-28.062-15.4-28.062-15.4 8.025 1.87 27.884 11.866 34.333 13.71-1.543-1.098-23.707-14.609-25.251-15.706 5.839 1.978 29.313 14.1 34.693 13.94-4.246-1.956-22.753-12.424-25.761-15.085 1.157.014 18.022 8.262 19.02 8.404 9.115 3.348 11.623 3.528 16.791 4.346-4.513-1.632-22.997-10.119-27.899-12.926 8.905 1.614 27.278 9.836 36.448 8.925-9.246-2.249-17.138-6.064-20.289-7.349-5.21-2.126-10.478-3.832-14.613-5.282-2.645-.928-5.432-1.485-8.124-1.798-10.397-1.21-20.522 2.072-29.957 6.6-23.742 11.395-28.085 35.835-28.085 35.835-.564 3.333-.703 8.611.253 14.141-3.677-5.129-2.006-14.89-2.006-14.89l-4.279 9.035c-.051-2.4-.595-5.798 2.492-14.708-2.82 1.828-5.47 4.874-6.56 6.954-.972-5.306 4.675-10.775 7.665-13.132-3.218.88-8.81 2.924-12.905 4.645 1.077-4.579 7.803-7.332 13.137-8.373-2.219-.849-13.014-2.363-15.448-2.93 3.148-1.623 15.196-.587 18.737-.637-3.004-1.804-13.543-4.575-17.379-5.26 3.644-2.072 17.068.773 21.145.914l-19.156-8.068c6.217-.757 17.218 4.777 21.74 5.254-2.338-2.99-14.731-9.512-17.725-11.13 3.212.594 16.172 4.188 18.486 4.315 3.396.581 5.721.182 6.925-.314-4.322-.526-18.455-5.55-21.475-8.272 6.773.903 20.422 6.6 26.263 4.362-5.12-1.484-17.78-5.159-23.093-7.905 1.397-.18 16.431 3.318 17.69 3.71 0 0 8.841 2.208 12.392.494-5.683-1.253-24.745-9.085-24.745-9.085 3.506.233 16.282 2.843 19.657 3.568 3.296.708 7.715 2.321 10.971 3.215-1.642-3.609-21.598-9.597-23.703-11.178 4.256.647 23.987 6.464 29.309 7.888-1.427-1.34-6.21-3.3-7.833-4.288-2.629-1.6-9.701-4.405-12.318-6.023 5.455 1.081 21.941 6.397 21.941 6.397 2.78 1.034 6.029 2.172 8.837 3.122-2.225-2.05-17.84-10.343-20.182-11.65l33.628 10.742s-19.172-8.983-22.297-10.683c4.175-.5 22.048 5.9 32.679 9.561-8.299-3.186-18.895-9.569-28.231-12.18-10.419-3.025-22.956-3.605-33.799-.37-6.79 2.024-12.049 6.084-16.861 10.494-1.928 1.767-3.686 3.681-5.287 5.715-7.743 9.832-11.005 22.506-10.181 34.994.092 1.384.178 2.218.178 2.218s.953 10.297 3.277 16.868c-1.997-.944-19.805-9.52-35.295-1.988C5.235 689.274.242 713.928 0 715.217c-.01.053 6.726-10.428 12.258-15.517.076-.069.153-.126.227-.193-1.424 3.221-2.899 7.62-2.887 12.91 3.176-8.332 8.004-14.96 13.449-19.817.835-.387 1.373-.604 1.409-.614.227.25.126.49.016.71-.654 1.3-1.286 2.608-1.865 3.943-.481 1.111-.804 2.265-1.08 3.437-.021.09-.006.214.045.284.047.064.165.077.299.132.11-.147.241-.295.344-.46.443-.727.883-1.456 1.316-2.189 1.046-1.77 2.243-3.442 3.382-5.152.196-.292.368-.607.603-.863.777-.85 1.592-1.664 2.36-2.524.361-.404.807-.746 1.367-.958l.199.403c-.294.595-.58 1.18-.871 1.761-1.145 2.3-2.048 4.686-2.544 7.214-.012.064.083.15.13.226.302-.02.389-.294.532-.479 1.074-1.388 2.127-2.79 3.2-4.179.857-1.11 1.775-2.17 2.762-3.17.846-.856 1.766-1.634 2.64-2.459.823-.78 1.799-1.237 2.741-1.76.108.102.175.168.26.25-.07.122-.123.266-.217.375-.522.61-1.073 1.194-1.58 1.815-.894 1.09-1.554 2.331-2.285 3.528-.631 1.034-1.09 2.14-1.577 3.233-.264.593-.433 1.228-.628 1.85-.023.071.06.176.094.266.091-.03.213-.036.267-.099.657-.756 1.318-1.51 1.949-2.287 1.303-1.6 2.742-3.058 4.399-4.296.321-.24.652-.47.958-.732 1.354-1.157 2.937-1.908 4.57-2.568.323-.13.667-.223 1.009-.287.102-.02.232.114.344.175-.032.09-.035.153-.068.181-.341.294-.669.607-1.035.865-1.031.726-1.912 1.602-2.767 2.526 0 0 6.627-2.859 9.629-2.319 0 0-2.041.96-2.88 1.921 0 0 5.701-1.2 9.244.18 0 0-31.207 9.914-42.983 38.928-3.815 9.201-5.096 18.348-4.097 24.237 1.082 6.381 3.059 11.426 6.879 15.973 1.834 2.181 4.445 5.178 6.78 6.812 4.159 2.91 8.719 5.43 17.33 8.355-14.5-9.524-21.945-19.014-21.945-19.014 5.643 4.42 10.812 7.826 19.251 11.938-12.586-11.144-18.77-15.929-22.104-19.829 2.898 1.727 16.037 13.118 19.236 12.521-8.311-6.057-20.402-19.478-20.402-19.478 4.088 2.476 16.029 12.613 20.527 13.587-9.595-8.639-19.909-22.304-19.909-22.304 7.828 7.064 15.346 13.985 21.338 17.51-5.919-5.573-19.654-24.236-19.654-24.236l15.05 14.21c.525.403 3.898 3.172 4.492 3.488-4.139-5.312-13.462-17.128-16.561-23.026 5.977 4.314 13.308 12.684 17.043 16.207 0 0-4.513-10.898-14.65-22.882 0 0 5.933 2.193 16.382 15.458-1.909-6.51-5.3-13.022-12.212-21.664 5.09 3.096 11.393 10.934 14.762 15.331-1.535-5.708-6.781-15.275-10.41-20.667 5.277 2.414 8.525 7.383 12.956 15.028-.284-5.425-7.568-19.342-7.568-19.342 2.903 1.798 6.534 6.875 9.921 13.16-.815-3.078-3.022-14.457-3.931-17.442 2.407 4.844 4.315 8.95 7.285 13.325-.945-6.304-1.677-12.93.03-15.925-.076 5.534 2.521 10.35 3.61 11.883-.102-2.55-1.758-8.197 2.338-11.53-.4 2.573.315 6.953 1.306 8.712 0 0 1.177-4.634 4.218-6.18 0 0-1.223 2.738-1.042 4.397 0 0 3.793-4.666 6.38-3.927 0 0-30.999 27.948-22.852 62.156 0 0 3.807 16.49 22.924 27.383 0 0 17.199 9.84 20.481 14.36-4.06-5.378-16.222-15.299-23.295-19.582 3.05.612 15.173 7.16 19.766 11.145-8.456-11.223-25.646-17.42-25.646-17.42 4.072-.184 17.708 4.982 22.812 8.94-2.42-3.492-22.71-13.706-28.02-17.279 0 0 22.298 8.443 23.896 9.23-5.04-3.59-22.762-11.986-27.275-16.302 6.931 1.675 20.531 8.92 25.653 10.815-2.748-1.97-5.599-3.422-8.124-5.23-2.482-1.78-16.442-9.92-18.248-12.639 0 0 18.138 9.616 23.449 10.153-3.135-2.037-6.955-3.874-9.801-5.888-2.756-1.95-11.209-7.637-13.444-11.23 6.525 2.731 14.552 8.392 20.443 10.605-2.421-1.984-18.08-14.855-20.625-17.106 1.218.07 15.017 7.431 17.472 8.981-4.314-5.57-11.892-12.277-15.783-16.594 1.461.686 10.934 5.251 13.566 8.131-3.872-6.152-8.137-10.583-11.748-14.326 3.189.496 9.942 5.858 9.942 5.858-3.142-5.582-7.011-12.637-7.011-12.637l7.312 6.504c-.967-2.347-4.372-11.715-4.372-11.715 1.739 2.188 5.082 5.514 5.082 5.514-3.329-6.672-.287-10.06-.287-10.06-.214 3.563 1.888 6.582 2.331 7.142.172-2.449.257-5.158 1.464-7.226 1.227-2.104 3.34-3.542 5.986-4.313-6.118 8.486-8.79 21.722-6.45 31.378.388 1.603.832 3.18 1.331 4.734 2.846 8.862 7.945 16.795 14.554 23.291 3.106 3.053 6.661 5.614 10.334 7.953l10.972 6.988s-17.534-13.178-21.054-18.322c4.88 2.741 18.223 11.781 21.592 13.103C91.664 769.927 80.907 759 80.907 759c5.145 3.274 16.563 8.947 21.457 10.622-5.412-3.899-20.727-13.003-24.923-18.344l19.246 9.713c-5.427-4.649-18.5-13.182-22.055-18.409 2.185 1.526 16.908 9.42 19.508 10.41-5.101-3.727-16.104-12.287-19.861-17.525 3.847 3.705 18.98 9.987 18.98 9.987l-18.979-15.39 17.84 9.281c-2.422-2.903-15.607-12.153-17.487-15.23 3.229 2.226 14.177 6.977 16.121 7.416-2.176-2.406-11.206-8.086-13.866-13.507 2.268 1.404 9.556 6.621 11.754 7.593-1.094-1.427-1.93-2.445-2.68-3.522-4.529-5.946 1.13-7.62 1.13-7.62 2.076-.53 3.502-.444 5.057.132l-2.537 3.566c2.507-.027 4.234-1.704 6.212-.765l-1.657 3.666s2.193-.933 4.369-.877c.64.328 1.276.66 1.916.99l-1.033 2.725c1.431-.394 2.772-.788 4.087-1.147l.12.063c1.059.554 2.119 1.11 3.15 1.713 3.373 1.978 6.648 4.113 9.897 6.287 2.909 1.947 5.696 4.06 8.481 6.18 3.261 2.481 6.427 5.067 9.448 7.83.816.746 1.627 1.495 2.446 2.237 1.464 1.33 2.976 2.61 4.388 3.993 2.241 2.194 4.412 4.455 6.614 6.688.097.098.201.191.293.294.914 1.034 1.811 2.083 2.743 3.1 1.869 2.034 3.668 4.127 5.386 6.29.309.39.81.652.886 1.204.089.656-.635.87-.825 1.525.037.467.054 1.066.139 1.656.092.635.213 1.26-.035 1.81-.993.312-1.866-.38-2.773-.117-.322.385-.627.728-.908 1.091-.31.398-.598.813-.872 1.191.031.203.054.337.074.471.127.864.269 1.726.374 2.593.044.364-.225.593-.608.566-.181-.014-.359-.076-.54-.092-.588-.054-1.178-.096-1.745-.14-.284.365-.502.657-.729.942-.723.906-1.093 1.876-.813 3.078.129.555.17 1.188-.168 1.821l-2.261-.11c-.628.605-1.032 1.443-1.571 2.181-.287.391-.435.804-.383 1.283.055.5.13.996.179 1.495.022.217.003.438.003.73h-2.149c-.361.584-.643 1.177-1.051 1.664-.935 1.117-1.373 2.362-1.216 3.815.007.062-.093.137-.188.265h-1.188c-.669 1.086-1.307 2.15-1.975 3.195-.474.742-.937 1.481-.941 2.356-1.05.586-1.411 1.546-1.817 2.58l2.265.32c-.229 1.174.511 2.264-.062 3.462-.836-.108-1.675.006-2.403-.465-.075-.25-.16-.466-.202-.69-.051-.27-.055-.549-.1-.82-.032-.199.096-.464-.192-.578-.083.056-.184.086-.223.153-.76 1.316-1.514 2.635-2.261 3.96-.033.058.021.165.039.282l.891.442c.405 1.02.268 2.104.296 3.273-.465 0-.828.018-1.19-.005-.32-.02-.648-.05-.956-.139-.32-.09-.619-.256-.951-.399-.157.3-.268.61-.459.86-.843 1.097-1.072 2.304-.806 3.655.102.53.109 1.097-.06 1.568-.62.532-1.21-.153-1.898.144-.451.903-.934 1.893-1.438 2.873-.443.86-.913 1.705-.824 2.67-.286.204-.613.317-.708.532-.288.65-.742 1.246-.82 2.047l1.831.487c.042.582.034 1.135.134 1.666.11.581.352 1.145-.111 1.731-.322-.027-.643-.099-.953-.073-1.081.09-1.637-.415-1.77-1.46-.007-.052-.123-.09-.189-.134-.194.273-.561.972-.895 1.67-.336.698-.635 1.395-.694 1.665-.037.167-.052.368.007.521.352.92.314 1.897.446 2.848.027.2-.051.415-.076.587h-2.05c-.769 1.26-1.239 2.663-1.741 4.031-.496 1.352-1.31 2.606-1.5 4.073l1.323.52c.194 1.102.526 2.116.25 3.235-1.011.3-1.947-.079-2.928-.315-.064.103-.155.205-.199.325-.3.82-.541 1.664-.896 2.457-.257.575-.323 1.145-.295 1.748.016.368.049.735.046 1.102-.001.13-.083.257-.124.375l-.911.294c-.117.77-.596 1.385-.589 2.23.437.086.832.221 1.23.232.619.018.858.355.877.841.027.69.078 1.38.091 2.071.004.217-.082.437-.146.75l-2.312-.306-.513-1.299c-.081.053-.142.07-.154.104-.427 1.212-.864 2.42-1.26 3.642-.096.295-.077.638-.065.957.032.814.089 1.627.14 2.513h-1.13c-.142.814-.642 1.465-.626 2.331.659.17 1.316.337 2.056.526.116 1.001.239 1.995.339 2.992.012.114-.106.241-.191.417-.265-.027-.53-.054-.793-.079-1.583-.149-1.647-.07-2.003-1.902-.19.414-.377.73-.481 1.07-.227.746-.427 1.502-.611 2.261-.236.973-.595 1.926-.332 2.97.084.335-.029.72-.05 1.038-.289.186-.634.282-.719.485-.294.702-.684 1.405-.513 2.207l1.47.441c.41.966.456 1.907.334 2.918-.939.192-1.807-.278-2.765-.27-.673 2.567-1.264 5.097-1.751 7.68 1.224.717 2.526 1.04 3.802 1.39.787.218 1.593.268 2.288.81.338.264.859.3 1.3.426.081.023.179-.014.269-.024.12-.183.241-.366.356-.544.819.084 1.62-.03 2.322.403.461 1.531.842 1.833 2.404 1.874.027-.497.056-.995.085-1.506.88-.323 1.659.138 2.517.098l.444 2.59c.613.345 1.22.508 1.818.572.512-.95-.252-1.916.152-2.92.842.317 1.782-.023 2.608.694l.374 3.357c.2.092.397.204.609.276.871.297 1.753.56 2.616.88.379.14.786.321 1.066.598 1.114 1.101 2.182 2.248 3.27 3.374.153.16.297.36.638.208.044-.125.117-.288.155-.458.259-1.166.491-2.336.767-3.497.469-1.966.948-3.929 1.45-5.886.686-2.67 1.388-5.336 2.099-7.999.392-1.464.81-2.92 1.225-4.379.451-1.592.886-3.187 1.372-4.768.633-2.066 1.298-4.123 1.968-6.178 1.243-3.804 2.451-7.62 3.761-11.402 1.039-2.998 2.182-5.963 3.333-8.92 1.319-3.388 2.66-6.769 4.064-10.122 1.153-2.76 2.395-5.484 3.629-8.21 1.082-2.39 2.162-4.783 3.322-7.135 1.406-2.848 2.88-5.664 4.356-8.476 1.264-2.406 2.536-4.809 3.871-7.175 2.172-3.85 4.308-7.722 6.67-11.46 1.083-1.714 2.179-3.42 3.28-5.123.166-.257.392-.474.634-.76.194.186.352.287.438.431 1.951 3.23 3.936 6.44 5.824 9.707 1.45 2.508 2.775 5.087 4.156 7.635.329.607.676 1.207.984 1.824.881 1.772 1.756 3.548 2.62 5.33.782 1.617 1.537 3.248 2.318 4.866.501 1.038 1.07 2.043 1.535 3.095 1.097 2.485 2.18 4.978 3.213 7.49 1.208 2.937 2.384 5.89 3.528 8.853.926 2.404 1.744 4.851 2.682 7.251 1.46 3.734 2.742 7.53 3.919 11.358 1.432 4.664 2.783 9.354 4.128 14.044.862 3.008 1.693 6.027 2.456 9.062.673 2.672 1.242 5.37 1.838 8.061.663 3.005 1.313 6.013 1.949 9.023.294 1.392.535 2.795.81 4.191.219 1.12.451 2.235.694 3.434.456.015.858.042 1.262.038 1.153-.013 2.318-.158 3.455-.035 2.213.24 4.424.103 6.634.154.276.007.553-.002.831.003.23.005.478-.034.687.038.766.263 1.551.183 2.332.188 1.706.011 3.414-.009 5.122.012 2.212.028 4.423.085 6.636.125.459.006.909.015 1.221-.46.094-.147.4-.183.617-.216.542-.084 1.088-.137 1.633-.2.371-.044.696-.026 1.016.266.406.37.894.308 1.415.047-.474-1.258-.369-2.606-.998-3.678-.268.213-.508.552-.803.608-.693.132-1.399.516-2.167.11-.015-.296-.061-.569-.037-.836.052-.592.146-1.18.21-1.773.059-.539.207-.749.732-.847.491-.09 1.018-.053 1.419-.519l-.604-2.225h-1.226c0-.838-.008-1.614.005-2.389.002-.228.009-.477.099-.678.248-.547.16-1.078.009-1.617-.611-2.168-1.22-4.337-1.839-6.503-.06-.21-.19-.403-.296-.62h-2.124c-.027-.93-.029-1.799.014-2.666.016-.336.186-.612.506-.77l.641-.319c-.775-2.748-1.471-5.445-2.431-8.094-.533.086-.984.187-1.44.224-.433.036-.885.291-1.42-.096.324-1.062-.227-2.245.386-3.249.24-.12.502-.12.735-.157.235-.037.441-.11.573-.375.007-.09.049-.196.017-.267-.329-.73-.256-1.662-1.1-2.142-.107-.06-.115-.334-.129-.512-.035-.459.038-.943-.086-1.374-.366-1.282-.801-2.545-1.222-3.81-.065-.2-.202-.376-.274-.506-.934.794-1.928.823-2.929.743 0-.964-.023-1.832.009-2.698.02-.545.188-.687.733-.843.34-.097.677-.206 1.038-.317-.005-.759-.386-1.31-.579-1.914-.047-.147-.234-.297-.39-.35-.386-.134-.484-.426-.452-.76.116-1.199-.305-2.277-.763-3.333-.268-.618-.325-1.336-.729-1.818-1.078-.047-2.022.51-3.046.224.039-.996.066-1.909.118-2.82.025-.446.18-.588.708-.683.312-.056.659-.002.853-.399-.038-.145-.079-.322-.133-.495-.241-.79-.58-1.534-1.056-2.212.024-.865-.419-1.598-.692-2.374-.289-.825-.649-1.625-.989-2.432-.084-.198-.212-.378-.311-.553-.662.09-1.248.193-1.837.233-.243.017-.495-.104-.716-.156.052-1.103.102-2.108.151-3.113l1.026-.55c-.771-1.709-1.498-3.35-2.259-4.975-.145-.308-.421-.554-.646-.824-.002.006-.007.007-.009.012.055.111.135.222.136.333.007.91 0 1.821-.019 2.731-.008.402-.307.766-.757.862-.665.143-1.344.158-2.096.143-.246-1.175.21-2.21.164-3.349.734-.14 1.394-.28 2.06-.388.235-.038.421-.1.512-.332-.007-.014-.011-.029-.018-.044l.033.026c.036-.084.133-.182.112-.235-.264-.67-.499-1.359-.866-1.89-.598-.27-1.149.45-1.632-.108.068-3.696.372-3.325-1.494-6.453-.232.57-.639.86-1.235.905-.317.024-.626.145-.944.17-.251.02-.509-.039-.87-.073.01-1.088.153-2.085.244-3.08.029-.285.308-.439.617-.458.322-.019.66-.007.875-.466-1.362-2.566-2.474-5.337-4.087-7.833h-1.573c-.149-.526-.069-.973-.045-1.432.034-.636.111-1.338-.108-1.906-.356-.93-.935-1.774-1.404-2.625-.562.168-1.022.35-1.498.437-.475.087-.978.365-1.463-.065-.202-.904 0-1.819.037-2.735.013-.3.174-.51.451-.64.157-.072.302-.17.449-.254-.88-1.87-1.785-3.316-2.467-3.96-.545.506-.129 1.257-.476 1.876-.743.276-1.517.478-2.419.304-.137-.917-.101-1.783-.04-2.65.034-.473.306-.752.765-.855.423-.094.901-.018 1.296-.388-.191-.355-.361-.677-.536-.996-.5-.91-1.19-1.688-1.651-2.642-.557-1.152-1.346-2.194-2.047-3.275-.198-.304-.443-.577-.615-.797l-1.321-.257c-.017-.53-.01-.989-.054-1.442-.025-.266-.07-.563-.211-.78-.722-1.116-1.476-2.21-2.17-3.239-.803-.209-1.457.363-2.17.022-.008-.113-.053-.254-.02-.372.385-1.333.187-2.543-.715-3.622-.207-.246-.413-.498-.58-.772-.381-.622-.88-.869-1.627-.732-.481.088-.99.016-1.522.016-.161-.46-.102-.89.003-1.35.259-1.12.211-2.177-.687-3.07-.478-.475-.859-1.046-1.338-1.64 1.535-1.859 3.066-3.752 4.642-5.608 1.37-1.613 2.78-3.19 4.187-4.77 1.59-1.786 3.11-3.644 4.816-5.313 2.205-2.158 4.213-4.506 6.516-6.57 1.749-1.566 3.304-3.34 5.084-4.883 1.565-1.356 3.03-2.827 4.592-4.187 1.838-1.6 3.733-3.133 5.599-4.702 4.196-3.527 8.588-6.799 13.068-9.95 2.322-1.635 5.122-3.697 7.526-5.204l-2.166-3.655c2.525-.538 4.312.99 6.756.505-1.105-1.57-1.639-2.074-2.5-3.295 1.725.014 3.905.051 5.666.066-1.196-1.546-1.196-1.546-2.337-3.058 1.879-.542 3.755-.269 5.401.561 1.901.96 1.71 2.428.834 4.88l3.413-.919c-.855 4.257-3.063 7.108-6.451 9.72 1.802-.468 7.015-4.122 8.748-4.57 0 0-2.415 4.817-11.728 11.387 2-.384 11.617-5.99 14.263-7.26-1.91 2.505-14.487 11.95-16.258 13.486.941-.275 14.983-7.663 16.047-8.268 0 0-8.326 9.02-17.44 14.43 0 0 15.453-7.427 17.406-9.205-2.611 4.157-14.337 13.673-19.422 16.692 7.201-1.977 19.225-11.834 19.225-11.834-2.641 4.708-11.259 12.998-13.35 15.077-2.115 2.102-5.258 4.524-9.259 8.001 6.725-3.265 18.254-12.097 22.294-15.34 0 0-15.224 14.131-17.25 23.51 4.66-10.467 13.904-15.614 19.178-21.805 17.5-20.537-1.674-42.519-1.674-42.519 2.499-.32 6.081.161 7.309 1.125 1.267.994 3.18 3.33 3.008 7.046l4.149-10.193c.298 2.474-.897 9.234-1.2 10.896-.294 1.61-.495 3.345-1.028 4.911 1.776-2.343 4.696-10.432 6.808-13.218.392 3.604-2.111 11.965-3.086 14.577-.954 2.554-1.259 3.695-2.75 6.615 4.141-3.869 8.023-12.134 10.799-16.184-2.039 8.748-9.905 22.143-9.905 22.143 4.988-3.946 14.055-14.885 14.055-14.885-2.261 4.851-8.951 17.233-12.691 21.794 3.203-.962 12.969-13.64 16.574-16.83-.856 3.104-13.263 20.345-17.207 23.22 2.393-.766 15.63-12.92 18.075-15.014-2.394 2.596-16.857 20.293-19.18 22.814 3.67-2.325 18.072-12.796 20.85-16.619-4.357 7.152-18.189 18.692-22.302 26.087l24.082-19.646c-3.404 4.38-20.58 21.27-26.58 27.152 5-2.226 26.109-18.52 26.109-18.52-5.187 6.404-22.85 19.903-27.326 24.9 1.66-.908 23.494-14.949 25.155-15.857-4.329 4.39-25.484 20.214-27.689 25.122 3.612-2.965 21.111-15.043 24.819-16.588-.518 1.036-15.302 12.606-15.867 13.442-6.991 6.738-8.248 8.915-11.241 13.208 3.438-3.348 19.145-16.27 23.811-19.455-5.34 7.307-20.76 20.245-23.944 28.893 6.06-7.336 12.938-12.77 15.471-15.044 4.187-3.758 8.022-7.753 11.133-10.84 1.989-1.974 3.707-4.238 5.165-6.523 5.628-8.824 7.097-19.366 7.143-29.833.116-26.334-19.972-40.914-19.972-40.914-2.753-1.962-7.442-4.39-12.834-5.946 6.221-1.069 14.273 4.697 14.273 4.697l-6.261-7.795c2.182 1.002 5.476 1.996 12.143 8.665-.412-3.335-1.996-7.05-3.391-8.939 5.198 1.443 7.653 8.912 8.468 12.63.613-3.279 1.215-9.202 1.456-13.638 1.417 3.542 3.189 10.223 1.796 15.476 1.732-1.627 7.809-10.677 9.382-12.618.085 3.54-6.11 13.926-7.611 17.134 2.936-1.915 10.032-10.187 12.323-13.338.271 4.183-8.15 15.016-10.058 18.623l15.624-13.71c-2.033 5.923-11.815 13.403-14.22 17.264 3.711-.798 14.991-9.099 17.753-11.086-1.936 2.63-10.829 12.72-11.954 14.746-2.006 2.802-2.662 5.067-2.741 6.367 2.359-3.658 13.052-14.179 16.818-15.707-3.768 5.7-14.855 15.491-15.391 21.722 3.57-3.958 12.404-13.742 17.195-17.323-.448 1.336-10.16 13.333-11.063 14.295 0 0-5.846 6.99-5.855 10.932 3.608-4.566 18.98-18.294 18.98-18.294-1.743 3.052-9.669 13.405-11.796 16.125-2.076 2.657-5.456 5.927-7.682 8.466 3.964.1 18.065-15.239 20.407-16.443-2.442 3.547-16.291 18.757-19.895 22.924 1.829-.699 5.679-4.146 7.277-5.175 2.588-1.666 8.199-6.803 10.797-8.452-3.354 4.436-15.336 16.946-15.336 16.946-2.143 2.05-4.586 4.474-6.667 6.587 2.817-1.107 17.095-11.533 19.295-13.069l-24.35 25.562s16.453-13.326 19.348-15.395c-1.373 3.976-14.936 17.26-22.871 25.224 6.49-6.074 16.859-12.82 23.285-20.079 7.271-8.052 13.268-19.077 15.093-30.245 1.142-6.99-.213-13.495-2.079-19.75z" transform="translate(0 -2233) translate(-18 1623)"/>
            </g>
        </g>
    </g>
</svg>
