<?xml version="1.0" encoding="utf-8"?>
<!-- Generator: Adobe Illustrator 23.0.1, SVG Export Plug-In . SVG Version: 6.00 Build 0)  -->
<svg version="1.1" id="Layer_1" xmlns="http://www.w3.org/2000/svg" xmlns:xlink="http://www.w3.org/1999/xlink" x="0px" y="0px"
	 viewBox="0 0 82 85" style="enable-background:new 0 0 82 85;" xml:space="preserve">
<style type="text/css">
	.st0{fill:#F9B63D;}
	.st1{fill:#FAFAFA;}
	.st2{fill:#FFFFFF;}
	.st3{fill:#018101;}
</style>
<rect x="-371" y="-190" class="st0" width="71" height="114"/>
<rect x="-349" y="-9.4" class="st1" width="71" height="114"/>
<path class="st2" d="M127.5,175.9c1.5,2.9,2.9,5.8,4.6,9c1.7-3.2,3.2-6.1,4.8-9c0.5,0.2,1.1,0.4,1.6,0.6c0,4,0,8,0,11.9
	c-0.4,0-0.8,0.1-1.2,0.1c-0.1-2.4-0.3-4.9-0.5-8.6c-1.7,3.6-2.9,6.2-4.7,10c-1.7-3.7-3-6.4-4.9-10.6c0,4,0,6.6,0,9.2
	c-0.4,0-0.9,0-1.3,0c0-4,0-7.9,0-11.9C126.4,176.4,126.9,176.2,127.5,175.9z"/>
<path class="st2" d="M91.8,188.4c0-3.9,0-7.9,0-11.8c0.5-0.2,1-0.4,1.5-0.6c1.7,2.6,3.3,5.2,5.4,8.5c0.3-3,0.4-5.3,0.6-7.7
	c0.4,0,0.8,0.1,1.2,0.1c0,3.9,0,7.9,0,11.8c-0.4,0.2-0.8,0.3-1.2,0.5c-1.8-2.7-3.5-5.5-6.1-9.5c0,3.9,0,6.4,0,8.8
	C92.7,188.5,92.2,188.4,91.8,188.4z"/>
<path class="st2" d="M8,188.4c0-3.9,0-7.7,0-11.5c6.4-1.1,6.9-0.5,6.2,5.6c-0.2,1.9,1,4,0.8,6.5c-1.3-1.9-2.7-3.8-4.7-6.6
	c-0.6,2.9-1,4.6-1.4,6.2C8.7,188.5,8.3,188.4,8,188.4z"/>
<path class="st2" d="M56.2,188.3c1.5-4,2.9-8,4.4-12c0.6-0.1,1.1-0.1,1.7-0.2c1.6,4.1,3.2,8.2,4.7,12.2
	C62.2,184.7,60.9,184.7,56.2,188.3z"/>
<path class="st2" d="M35.2,189.6c-1.7-2.7-2.8-4.5-4.6-7.4c-0.8,2.9-1.3,4.6-1.7,6.3c-0.4,0-0.8-0.1-1.2-0.1c0-3.3-0.2-6.7,0.1-10
	c0.1-0.8,2.2-2.3,3-2c1.6,0.5,3.9,1.8,4.2,3.1C35.6,182.4,35.2,185.5,35.2,189.6z"/>
<path class="st2" d="M-17.1,182.6c-0.4,3.5-1.6,6.5-5.9,6.5c-4.1,0-5.4-2.8-5.4-6.3c0-3.8,1.6-6.6,5.8-6.6
	C-18.6,176.1-17.4,179-17.1,182.6z M-17.6,182.3c-2.5-2-3.9-3.2-5.3-4.3c-1.2,1.6-3.2,3.2-3.3,4.9c-0.1,1.3,2.1,2.9,3.3,4.3
	C-21.4,185.8-19.9,184.5-17.6,182.3z"/>
<path class="st2" d="M107.7,188.1c1.5-4,3-8,4.5-12c0.5,0,1.1,0,1.6,0c1.5,4.1,3.1,8.1,4.6,12.2
	C113.3,184.7,112.6,184.5,107.7,188.1z"/>
<path class="st2" d="M-7.9,176.8c0,2.4-0.3,4.8,0.1,7.1c0.2,1.2,1.7,2.2,2.7,3.3c1-1.1,2.5-2.1,2.7-3.4c0.5-2.2,0.1-4.5,0.9-6.8
	c1.2,3.5,2.2,7.3-0.3,10.4c-0.9,1.2-4.4,1.8-5.6,1c-4.7-2.9-1.9-7.6-2.6-11.4C-9.3,176.9-8.6,176.8-7.9,176.8z"/>
<path class="st2" d="M49.6,177.7c-1.4,0.2-2.9,0.4-4.3,0.6c-0.2,0.4-0.4,0.8-0.7,1.1c1.4,1,2.8,2.1,3.7,2.8c-1.1,1-2.4,2.2-4.5,4
	c3,0.8,4.4,1.2,5.9,1.5c0,0.3-0.1,0.6-0.1,0.8c-2,0-3.9,0-6.5,0c0-3.4-0.5-6.7,0.1-9.9C44,174.4,47.2,176.6,49.6,177.7z"/>
<path class="st2" d="M154.5,188.7c-2.9,0-4.8,0-6.7,0c-2.8-10.4-1.3-13.5,6.8-11.5c-2.5,0.5-3.9,0.9-6.9,1.5
	c2.2,1.7,3.5,2.7,4.5,3.5c-0.9,0.8-2,2-3.2,3.1C150.4,186.3,151.9,187.2,154.5,188.7z"/>
<path class="st2" d="M299.6,273.8c-1.8,1.9-2.7,3.3-4,4c-0.5,0.2-2.8-1.7-2.7-2.3c0.4-2.2,1.6-4.3,2.4-6.4
	C296.5,270.3,297.7,271.6,299.6,273.8z"/>
<path class="st2" d="M277.7,274.8c1.7-2.4,2.8-4.1,4-5.8c0.9,2,2.2,3.9,2.5,6c0.1,0.8-1.7,2.6-2.8,2.8
	C280.5,277.9,279.4,276.2,277.7,274.8z"/>
<path class="st2" d="M284.7,273.6c1.9-2.1,3-3.3,4.1-4.6c0.9,2,2.1,4,2.4,6.1c0.1,0.8-1.9,1.9-3,2.8
	C287.3,276.8,286.4,275.6,284.7,273.6z"/>
<path class="st2" d="M271.4,277.3c2.1-0.9,3.1-1.3,4.3-1.9c-0.3-0.6-0.5-1-0.7-1.2c-1-1.1-2.1-2.2-3.2-3.2c0.8-0.7,2.2-2,2.4-1.9
	c1.3,1,3.1,2.2,3.2,3.6C277.7,275.8,276.9,278.7,271.4,277.3z"/>
<path class="st2" d="M-34.4,176.7c-1.3,3.9-2.7,7.8-4,11.8c-1.4-3.9-2.7-7.9-4.1-11.8c0.3-0.1,0.6-0.3,0.9-0.4c1,1.6,2,3.2,3.2,5
	c1.1-1.7,2.2-3.3,3.3-4.9C-34.9,176.4-34.7,176.6-34.4,176.7z"/>
<path class="st2" d="M236.3,274.8c1.4-2,2.7-4.1,4.1-6.1c0.4,0.2,0.9,0.3,1.3,0.5c0.2,2.8,0.4,5.6,0.6,9.6c-2.8-1.9-4.3-3-5.9-4
	H236.3z"/>
<path class="st2" d="M249.9,275.3c1.6-2.5,3-4.5,4.4-6.6c0.4,0.1,0.9,0.2,1.3,0.3c0.3,2.8,0.5,5.6,0.9,9
	C253.8,277,252.1,276.3,249.9,275.3z"/>
<path class="st2" d="M79.7,188.7c-1.7,0.1-3.4,0.2-5.5,0.3c0-4.3,0-8.2,0-12.7C78.2,179.5,72.1,186.9,79.7,188.7z"/>
<path class="st2" d="M236.4,274.7c-1,0.8-2,1.6-3.1,2.4c-0.2-0.3-0.5-1-0.9-1.7c-0.6,0.7-1.2,1.3-2.3,2.5c0.2-2.9,0-5.1,0.7-7.1
	c0.3-0.8,2.4-1,3.6-1.5c0.3,0.9,0.5,1.9,0.8,2.8S235.9,273.9,236.4,274.7C236.3,274.8,236.4,274.7,236.4,274.7z"/>
<path class="st2" d="M259.2,269.2c0.8,0.2,3.1,0.2,3.3,0.9c0.6,2,0.8,4.4,0.3,6.5c-0.2,0.8-2.7,1-4.2,1.5c-0.1-0.4-0.3-0.9-0.4-1.3
	c1-0.3,1.9-0.5,3-0.8C260.6,273.9,260,272,259.2,269.2z"/>
<path d="M-17.6,182.3c-2.4,2.2-3.8,3.5-5.3,4.8c-1.2-1.4-3.4-2.9-3.3-4.3c0.1-1.7,2.1-3.3,3.3-4.9C-21.4,179.2-20,180.3-17.6,182.3z
	"/>
<path class="st3" d="M27.8,5.1c3,0.9,6.1-0.6,9.2-2.3c3.5-2,7.2-1.9,10.6,0.3c2.9,1.9,5.8,2.8,9.2,2.8c4.4-0.1,7.8,2.1,9.7,6
	c1.4,2.9,3.4,4.9,6.2,6.4c3.9,2.1,5.9,5.6,5.5,10c-0.2,3.4,0.6,6.3,2.3,9.2c2.1,3.6,2,7.5-0.3,11c-1.8,2.8-2.7,5.6-2.6,9
	c0.1,4.4-2.1,7.7-5.9,9.8c-0.2,0.1-0.3,0.2-0.5,0.3c-2.6,1-4.4,2.9-5.7,5.4c-2.3,4.3-6,6.4-10.8,6c-3-0.2-5.6,0.5-8.2,2.1
	c-3.9,2.4-8,2.3-11.8-0.2c-2.6-1.7-5.3-2.5-8.4-2.4c-4.6,0.1-8.1-2-10.1-6.2c-1.4-2.9-3.5-4.9-6.2-6.5c-3.8-2.2-5.9-5.6-5.5-10
	c0.3-3.3-0.6-6.1-2.2-8.9c-2.2-3.7-2.1-7.6,0.2-11.1c1.8-2.7,2.7-5.5,2.6-8.8c-0.1-4.5,2-8,6.1-10c2.9-1.4,4.9-3.4,6.4-6.2
	C19.6,7,23,5.2,27.8,5.1z M76.1,39.9C75,20.8,58.5,6.2,39.2,7.3C20.1,8.5,5.5,24.9,6.6,44c1.1,19.3,17.5,33.9,36.8,32.8
	C62.5,75.8,77.4,59.3,76.1,39.9z"/>
<path class="st3" d="M20,21.8c3.8,0,7.5-0.2,11.1,0c5.1,0.2,8.1,3.4,8.2,9c0.2,7.6,0.2,15.2,0.1,22.8c0,2.8-0.6,5.7-3.3,7.3
	c-1.6,0.9-3.5,1.6-5.3,1.8c-3.5,0.3-7.1,0.1-10.7,0.1C20.2,49.1,20.1,35.5,20,21.8z M26.6,57c1.3,0,2.4,0.1,3.5,0
	c1.4-0.1,2.5-0.7,2.7-2.2c0.1-0.6,0.2-1.2,0.2-1.8c0-7.1-0.1-14.3-0.1-21.4c0-0.7,0-1.5-0.3-1.9c-0.6-0.8-1.4-1.6-2.2-1.8
	c-1.2-0.3-2.6-0.1-4-0.1C26.5,37.4,26.6,47.1,26.6,57z"/>
<path class="st3" d="M62.8,34.7c-2.4,0-4.2,0-6.3,0c0-1.5,0.1-3,0-4.5c-0.2-2.4-1.6-3.6-3.8-3.4c-1.4,0.2-2.3,0.9-2.6,2.2
	c-0.2,0.7-0.2,1.5-0.2,2.3c0,7.2,0.1,14.3,0.1,21.5c0,0.6,0,1.2,0.1,1.8c0.4,2,1.3,2.7,3.3,2.7c1.8,0,3.1-0.9,3.2-2.9
	c0.1-3,0-6,0-9.1c-1,0-2-0.1-3-0.1c0-1.9,0-3.7,0-5.7c3,0,6,0,9.2,0c0,0.6,0,1.2,0,1.7c0,4.2,0.1,8.3,0,12.5c-0.1,3.7-1.2,7-4.9,8.5
	c-3.9,1.6-7.9,1.5-11.3-1.3c-1.8-1.4-2.3-3.6-2.6-5.8c-0.2-1.4-0.3-2.9-0.3-4.3c-0.1-6.3-0.1-12.6-0.1-18.8c0-0.5,0-1,0-1.5
	c0.4-7.4,5.7-11.1,12.9-9.2c3,0.8,5,2.7,5.7,5.7C62.5,29.5,62.5,32,62.8,34.7z"/>
</svg>
