<svg xmlns="http://www.w3.org/2000/svg" width="195" height="7" viewBox="0 0 195 7">
    <defs>
        <filter id="s0d0z896na">
            <feColorMatrix in="SourceGraphic" values="0 0 0 0 1.000000 0 0 0 0 1.000000 0 0 0 0 1.000000 0 0 0 1.000000 0"/>
        </filter>
    </defs>
    <g fill="none" fill-rule="evenodd">
        <g filter="url(#s0d0z896na)" transform="translate(-83 -1924)">
            <g>
                <g fill="#016479">
                    <path d="M31.067 0l-.442.648-.532.559-.56.528-.581.508-.566.522-.03.813.568.522.573.518.584.504.462.628.583.505.375.203.365-.213.6-.49.443-.648.594-.495.5-.589.677-.41-.05-.863-.595-.495-.481-.609-.513-.576-.572-.517-.557-.53L31.067 0zm-.113 4.672l-.401-.569-.524-.445-.444-.502.521-.426.458-.512.472-.498.464-.445.548.366.498.472.469.5.456.543-.516.486-.515.456-.461.507-.478.521-.547-.454zM10.997 2.938l.675.176.77-.051.74.209.771-.055.759.051.752.118.756.07.75.15.764-.002.75.15.75-.067.602-.258.645-.227.627-.265-.62-.277-.59-.348-.651-.214-.755.089-.75.133-.762.014-.753.108-.749.148-.76.05-.77-.07-.756.077-.742.231-.76.046-.693.014zm8.438 1.995l-.763-.247-.777.05-.75-.21-.775.055-.766-.052-.759-.119-.764-.071-.756-.15-.77.001-.757-.15-.778.067-.762-.093-.757-.136-.761-.093-.764-.075-.756-.152-.77-.005-.765-.065-.769-.02-.758-.14-.766-.044-.77-.006-.763-.104-.75-.222L.4 2.936l.692-.17.765-.046.781.088.757-.139.764-.058.762-.095.757-.136.773.015.762-.091.747-.238.766-.05.781.104.763-.088.748-.213.757-.144.763-.076.778.07.755-.17.763-.082.761-.101.777.057.753-.181.774.02.772-.011.736-.091.701.285.779.17.63.5.747.243.683.384.798.245-.73.394-.778.171-.676.398-.732.277-.696.358-.698.398zM43.764 2.156l-.626.229-.654.205-.64.348.704.202.548.442.672.106.746.042.754-.087.76-.037.756-.08.742-.223.757-.066.76-.038.766.018.747-.173.761-.034.735-.073-.723-.167-.77.059-.745-.175-.76-.035-.754-.104-.756-.09-.76-.044-.75-.137-.77.072-.757-.055-.743-.105zm-4.514.781l.766-.327.745-.246.7-.343.657-.444.786-.158.659-.495.775.194.764.067.76.116.762.073.778-.07.763.088.758.115.755.172.773-.02.758.12.766.057.752.191.777-.057.753.175.767.035.76.106.762.09.767.045.758.138.778-.072.766.056.745.255.783-.106.762.103.696.143-.702.062h-.77l-.745.268-.774-.036-.77.01-.764.066-.746.251-.78-.1-.753.187-.757.135-.763.089-.775-.038-.766.042-.765.06-.75.202-.758.133-.777-.05-.75.214-.773-.024-.77.009-.769.033-.758.133-.758.14-.772-.01-.77.219-.661-.476-.795-.135-.692-.363-.717-.309-.715-.312-.736-.4z" transform="translate(83 1924) translate(65.65)"/>
                </g>
                <path stroke="#016479" stroke-width=".65" d="M134.034 2.926L194.301 2.926M0 2.926L60.267 2.926" transform="translate(83 1924)"/>
            </g>
        </g>
    </g>
</svg>
