<svg xmlns="http://www.w3.org/2000/svg" width="82" height="85" viewBox="0 0 82 85">
    <g fill="none" fill-rule="evenodd">
        <g fill="#CEA55A">
            <path d="M142.637 108.074l5.825-1.51 2.01-2.239-3.082.167-4.753 3.582zm35.36 9.045l-.172 3 3.052 5.188-.83-5.887-2.05-2.3zm-41.61 10.015l8.482-6.89 1.213-2.834-2.795 1.134-6.9 8.59zm32.429-5.459l1.137 16.422 1.19-16.448-1.277-2.795-1.05 2.821zm3.82-28.15c-2.3-1.334-5.36-2.664-6.461-4.7-.281-.52-.435-1.135-.435-1.54-.13-2.896 1.948-5.102 4.832-4.854 2.398.216 4.19 2.144 5.072 3.818.31.608.285 1.41 1.1 1.7.753-1.55-.492-3.465-.293-5.067.076-.59.49-.902.374-1.48-.61-.255-.913.228-1.553.3-1.125.138-1.93-.176-2.78-.3-5.686-.733-10.488 1.33-10.645 6.321-.04 1.02.134 2.06.517 2.864 2.059 4.504 9.844 5.703 11.887 9.91 1.079 2.22.22 5.521-1.248 6.763-3.38 2.877-8.184-.66-9.33-3.517-.237-.618-.077-1.422-.878-1.618-.965 1.726.614 3.844.372 5.717-.082.601-.646 1.004-.228 1.621.863.128 1.075-.474 1.919-.51 1.09-.058 2.072.481 3.004.647 5.707 1.092 11.008-2.31 11.159-7.475.163-4.782-3.341-6.815-6.384-8.6zm14.269 17.844l1.225 2.746 12.304 10.946-10.65-12.59-2.88-1.102zm-15.523-10.035c.183 0 .379.04.614.114.01.007.017.01.037.01h.002c.063 0 .105-.055.105-.11 0-.037-.02-.073-.05-.092-.447-.425-1.064-.67-1.692-.67-1.344 0-2.432 1.094-2.432 2.438 0 1.343 1.088 2.432 2.432 2.432.637 0 1.252-.255 1.703-.703.039-.033.043-.095.01-.137-.017-.043-.076-.059-.128-.036-.183.078-.382.118-.601.118-.922 0-1.671-.752-1.671-1.674 0-.932.749-1.69 1.67-1.69zm-2.517-15.314c-.651 1.144-.19 2.674 1.203 2.86 1.144.154 2.203-.61 2.176-1.814-.005-.797-.927-1.935-1.742-1.987-.646-.046-1.32.39-1.637.941zM180.184 109c-3.635 4.55-10.136 7.697-17.187 5.174-1.257-.432-2.703-1.21-3.196-2.315-.785-1.706-.74-5.177-.775-7.93-.115-7.083-.285-13.91.225-20.946.092-1.327.07-2.96.436-3.86.852-2.105 3.846-2.762 6.393-2.974 5.873-.484 10.862 1.768 13.778 4.847 2.785 2.95 4.592 7.714 4.736 13.788.13 5.612-1.53 10.606-4.41 14.215zm4.966-29.426c-5.074-4.648-14.638-6.547-23.921-4.743-1.85.353-3.628.978-5.292 1.1-1.978.136-3.167-.459-4.74-.776-1-.193-2.382-.804-3.418.108.339.546 1.79.546 2.533.994 2.68 1.627 2.67 6.06 2.873 10.368.262 5.727.225 12.731 0 18.393-.167 4.236-.255 8.188-2.54 9.708-.644.431-2.014.487-2.308 1.108 3.054 1.06 4.73-1.02 7.708-.77 2.036.16 3.85 1.048 5.737 1.42 6.573 1.314 13.182.514 18.076-2.082 5.923-3.144 10.848-8.707 11.463-17.2.529-7.58-2.194-13.999-6.171-17.628zm-30.367 45.854l3.586-4.75.176-3.086-2.242 2.014-1.52 5.822zm44.909-61.217l-12.588 10.653-1.105 2.88 2.752-1.232 10.94-12.3zm-7.31 20.636l3.005-.11 4.896-3.505-5.794 1.36-2.106 2.255zm3.77 7.97l-2.808 1.287 2.83 1.04 16.419-1.138-16.441-1.19zm-4.43 11.508l2.008 2.24 5.83 1.51-4.755-3.583-3.082-.167zm-8.906-38.254l-3.494 4.812-.122 3.082 2.204-2.049 1.412-5.845zm-36.277 18.77l3.079.12-2.045-2.206-5.848-1.419 4.814 3.504zm3.71 8.95l-2.824-1.04L131 93.89l16.445 1.18 2.804-1.28zm20.558-24.366L169.669 53l-1.193 16.448 1.288 2.795 1.043-2.818zm-22.336 2.896l-1.258-2.733-10.855-9.273 9.22 10.934 2.893 1.072zm13.735.36l.112-3.004-3.135-5.132.925 5.874 2.098 2.262z" transform="translate(-131 -53)"/>
        </g>
    </g>
</svg>
