<svg xmlns="http://www.w3.org/2000/svg" width="1440" height="734" viewBox="0 0 1440 734">
    <g fill="none" fill-rule="evenodd">
        <g fill="#FF674C">
            <g>
                <path d="M1440 733.767H0V13.991c22.34 4.47 43.811 8.93 64.029 13.14 42.011 8.75 83.191 19.66 128.141 22.72 75.51 5.15 148.79-12.34 220.91-24.91C504.24 9.051 600.33.601 696.62.031c34.53-.22 69.53.62 102.48 5.91 33.02 5.29 62.81 14.88 95.19 21.13 64.13 12.37 135.01 11.08 203.17 7.46 68.16-3.63 136.74-9.44 204.83-5.53 49.55 2.84 99.84 11.74 137.71 27.8v676.966z" transform="translate(0 -4945) translate(0 4945)"/>
            </g>
        </g>
    </g>
</svg>
