<?xml version="1.0" encoding="utf-8"?>
<!-- Generator: Adobe Illustrator 23.0.1, SVG Export Plug-In . SVG Version: 6.00 Build 0)  -->
<svg version="1.1" id="Layer_1" xmlns="http://www.w3.org/2000/svg" xmlns:xlink="http://www.w3.org/1999/xlink" x="0px" y="0px"
	 viewBox="0 0 43 43" style="enable-background:new 0 0 43 43;" xml:space="preserve">
<style type="text/css">
	.st0{fill-rule:evenodd;clip-rule:evenodd;fill:#018101;}
</style>
<g>
	<g>
		<g>
			<path class="st0" d="M21.3,39.4C11.2,39.4,3,31.2,3,21.2S11.2,2.9,21.3,2.9c10.1,0,18.3,8.2,18.3,18.3S31.4,39.4,21.3,39.4
				 M21.3,0C9.6,0,0.1,9.5,0.1,21.2c0,11.7,9.5,21.2,21.2,21.2c11.7,0,21.2-9.5,21.2-21.2S33,0,21.3,0 M27.6,16
				c0,0.6-0.5,1.2-1.2,1.2c-0.6,0-1.2-0.5-1.2-1.2c0-0.6,0.5-1.2,1.2-1.2C27.1,14.8,27.6,15.4,27.6,16 M21.3,24.4
				c-1.8,0-3.2-1.4-3.2-3.2s1.4-3.2,3.2-3.2c1.8,0,3.2,1.4,3.2,3.2S23.1,24.4,21.3,24.4 M21.3,16.2c-2.8,0-5,2.2-5,5s2.2,5,5,5
				c2.8,0,5-2.2,5-5C26.3,18.4,24,16.2,21.3,16.2 M29.2,25.1c0,0.9-0.2,1.5-0.3,1.8c-0.2,0.5-0.4,0.8-0.7,1.1
				c-0.3,0.3-0.7,0.6-1.1,0.7c-0.3,0.1-0.9,0.3-1.8,0.3c-1,0-1.3,0.1-3.9,0.1s-2.9,0-3.9-0.1c-0.9,0-1.5-0.2-1.8-0.3
				c-0.5-0.2-0.8-0.4-1.1-0.7c-0.3-0.3-0.6-0.7-0.7-1.1c-0.1-0.3-0.3-0.9-0.3-1.8c0-1-0.1-1.3-0.1-3.9c0-2.6,0-2.9,0.1-3.9
				c0-0.9,0.2-1.5,0.3-1.8c0.2-0.5,0.4-0.8,0.7-1.1c0.3-0.3,0.7-0.6,1.1-0.7c0.3-0.1,0.9-0.3,1.8-0.3c1,0,1.3-0.1,3.9-0.1
				c2.6,0,2.9,0,3.9,0.1c0.9,0,1.5,0.2,1.8,0.3c0.5,0.2,0.8,0.4,1.1,0.7c0.3,0.3,0.6,0.7,0.7,1.1c0.1,0.3,0.3,0.9,0.3,1.8
				c0,1,0.1,1.3,0.1,3.9C29.2,23.8,29.2,24.1,29.2,25.1 M30.5,14.8c-0.2-0.6-0.6-1.2-1.1-1.7c-0.5-0.5-1.1-0.9-1.7-1.1
				c-0.6-0.2-1.3-0.4-2.4-0.4c-1,0-1.4-0.1-4-0.1s-3,0-4,0.1c-1,0-1.7,0.2-2.4,0.4c-0.6,0.2-1.2,0.6-1.7,1.1
				c-0.5,0.5-0.9,1.1-1.1,1.7c-0.2,0.6-0.4,1.3-0.5,2.4c0,1-0.1,1.4-0.1,4s0,3,0.1,4c0,1,0.2,1.7,0.5,2.4c0.2,0.6,0.6,1.2,1.1,1.7
				c0.5,0.5,1.1,0.9,1.7,1.1c0.6,0.2,1.3,0.4,2.4,0.5c1,0,1.4,0.1,4,0.1s3,0,4-0.1c1,0,1.7-0.2,2.4-0.4c0.6-0.2,1.2-0.6,1.7-1.1
				c0.5-0.5,0.9-1.1,1.1-1.7c0.2-0.6,0.4-1.3,0.5-2.4c0-1,0.1-1.4,0.1-4s0-3-0.1-4C30.9,16.1,30.7,15.4,30.5,14.8"/>
		</g>
	</g>
</g>
</svg>
