<?xml version="1.0" encoding="UTF-8"?>
<svg width="574px" height="557px" viewBox="0 0 574 557" version="1.1" xmlns="http://www.w3.org/2000/svg" xmlns:xlink="http://www.w3.org/1999/xlink">
    <title>Full Sun </title>
    <defs>
        <filter id="filter-1">
            <feColorMatrix in="SourceGraphic" type="matrix" values="0 0 0 0 0.808000 0 0 0 0 0.647000 0 0 0 0 0.353000 0 0 0 1.000000 0"></feColorMatrix>
        </filter>
    </defs>
    <g id="Desktop" stroke="none" stroke-width="1" fill="none" fill-rule="evenodd">
        <g id="Full-Sun-" transform="translate(-588.000000, -1819.000000)" filter="url(#filter-1)">
            <g transform="translate(588.000000, 1819.000000)">
                <path d="M196.1205,309.5585 C186.6715,277.0035 191.5715,240.1095 216.0435,215.0945 C222.4505,208.5515 230.2635,202.3655 238.1645,197.7155 C265.8805,181.4285 300.1185,180.7475 329.1985,193.7515 C366.4745,210.4265 391.4955,252.7505 384.5405,293.3095 C376.6185,339.4705 338.3615,376.9505 290.5015,376.4605 C248.8055,376.0295 208.8405,351.8775 196.5145,310.8855 C196.3775,310.4485 196.2405,310.0025 196.1205,309.5585" id="Fill-1" fill="#E4B476"></path>
                <polygon id="Fill-3" fill="#E4B476" points="288.2231 183.9051 289.9621 177.0511 287.8781 0.0001 284.2171 176.9871 285.8471 183.9681"></polygon>
                <polygon id="Fill-5" fill="#E4B476" points="278.7641 184.2919 279.8311 177.3049 261.9521 29.6309 274.1041 177.8069 276.4131 184.5979"></polygon>
                <polygon id="Fill-7" fill="#E4B476" points="269.3949 185.6132 269.7629 178.5502 234.3419 0.0002 264.1159 179.6162 267.0819 186.1402"></polygon>
                <polygon id="Fill-9" fill="#E4B476" points="260.1938 187.8368 259.8738 180.7738 214.8138 39.7318 254.3588 182.3868 257.9458 188.5918"></polygon>
                <polygon id="Fill-11" fill="#E4B476" points="251.2563 190.9559 250.2423 183.9619 183.1643 24.2429 244.9133 186.1019 249.0933 191.9279"></polygon>
                <polygon id="Fill-13" fill="#E4B476" points="242.6703 194.9315 240.9773 188.0715 170.7063 60.0225 235.8863 190.7335 240.6123 196.1135"></polygon>
                <polygon id="Fill-15" fill="#E4B476" points="234.5082 199.7342 232.1572 193.0702 133.3322 46.8902 227.3492 196.2152 232.5802 201.1132"></polygon>
                <polygon id="Fill-17" fill="#E4B476" points="226.8695 205.3114 223.8675 198.9084 121.2105 75.1734 219.3905 202.5094 225.0755 206.8744"></polygon>
                <polygon id="Fill-19" fill="#E4B476" points="219.8022 211.6132 216.1882 205.5342 88.2142 78.7892 212.0912 209.5552 218.1702 213.3342"></polygon>
                <polygon id="Fill-21" fill="#E4B476" points="213.3871 218.5751 209.1951 212.8781 89.8971 117.5981 205.5101 217.2791 211.9321 220.4491"></polygon>
                <polygon id="Fill-23" fill="#E4B476" points="207.6859 226.1278 202.9569 220.8678 58.5849 125.9268 199.7159 225.6138 206.4249 228.1358"></polygon>
                <polygon id="Fill-25" fill="#E4B476" points="202.7533 234.202 197.5313 229.437 63.6353 159.012 194.7753 234.468 201.6923 236.329"></polygon>
                <polygon id="Fill-27" fill="#E4B476" points="198.6303 242.7264 192.9713 238.4894 17.1713 167.0934 190.7193 243.7684 197.7883 244.9374"></polygon>
                <polygon id="Fill-29" fill="#E4B476" points="195.3686 251.6073 189.3186 247.9473 54.5456 207.4963 187.5946 253.4233 194.7426 253.8993"></polygon>
                <polygon id="Fill-31" fill="#E4B476" points="192.9828 260.7665 186.6058 257.7165 3.0298 223.6585 185.4248 263.3395 192.5888 263.1045"></polygon>
                <polygon id="Fill-33" fill="#E4B476" points="191.517 270.1171 184.869 267.7031 48.484 254.9711 184.25 273.4141 191.351 272.4871"></polygon>
                <polygon id="Fill-35" fill="#E4B476" points="190.9633 279.5692 184.1163 277.8162 0.0003 282.2442 184.0523 283.5582 191.0363 281.9382"></polygon>
                <polygon id="Fill-37" fill="#E4B476" points="191.3451 289.0272 184.3581 287.9542 45.4531 303.4562 184.8591 293.6772 191.6461 291.3782"></polygon>
                <polygon id="Fill-39" fill="#E4B476" points="192.6508 298.3973 185.5898 298.0153 16.1618 332.7503 186.6508 303.6633 193.1798 300.7103"></polygon>
                <polygon id="Fill-41" fill="#E4B476" points="194.8666 307.6014 187.8016 307.9134 51.5146 350.9314 189.4066 313.4264 195.6196 309.8494"></polygon>
                <polygon id="Fill-43" fill="#E4B476" points="197.9731 316.5458 190.9761 317.5428 29.2911 384.8488 193.1111 322.8728 198.9431 318.7048"></polygon>
                <polygon id="Fill-45" fill="#E4B476" points="201.9428 325.1336 195.0738 326.8176 86.8678 389.3156 197.7248 331.9116 203.1158 327.1916"></polygon>
                <polygon id="Fill-47" fill="#E4B476" points="206.726 333.2958 200.06 335.6468 61.616 431.3138 203.192 340.4548 208.102 335.2278"></polygon>
                <polygon id="Fill-49" fill="#E4B476" points="212.2943 340.9501 205.8923 343.9371 116.1613 422.6481 209.4803 348.4211 213.8563 342.7411"></polygon>
                <polygon id="Fill-51" fill="#E4B476" points="218.5893 348.0272 212.5003 351.6302 89.8983 475.7572 216.5133 355.7392 220.3113 349.6532"></polygon>
                <polygon id="Fill-53" fill="#E4B476" points="225.5395 354.4491 219.8345 358.6301 149.4945 446.8901 224.2305 362.3261 227.4125 355.9041"></polygon>
                <polygon id="Fill-55" fill="#E4B476" points="233.0844 360.1669 227.8184 364.8799 134.3424 508.5069 232.5484 368.1329 235.0934 361.4249"></polygon>
                <polygon id="Fill-57" fill="#E4B476" points="241.1527 365.1083 236.3757 370.3183 183.8377 472.1433 241.4067 373.0873 243.2737 366.1633"></polygon>
                <polygon id="Fill-59" fill="#E4B476" points="249.6713 369.243 245.4243 374.89 181.8173 530.729 250.6993 377.152 251.8853 370.082"></polygon>
                <polygon id="Fill-61" fill="#E4B476" points="258.5482 372.5213 254.8732 378.5563 222.2222 488.3043 260.3532 380.2963 260.8312 373.1433"></polygon>
                <polygon id="Fill-63" fill="#E4B476" points="267.7045 374.91 264.6425 381.275 234.3425 545.88 270.2625 382.475 270.0425 375.309"></polygon>
                <polygon id="Fill-65" fill="#E4B476" points="277.0551 376.3963 274.6291 383.0343 265.6561 512.5463 280.3401 383.6683 279.4191 376.5613"></polygon>
                <polygon id="Fill-67" fill="#E4B476" points="286.5043 376.9559 284.7413 383.7979 286.8673 556.9919 290.4843 383.8729 288.8703 376.8929"></polygon>
                <polygon id="Fill-69" fill="#E4B476" points="295.9594 376.5868 294.8794 383.5678 308.0794 493.3558 300.5964 383.0848 298.3104 376.2948"></polygon>
                <polygon id="Fill-71" fill="#E4B476" points="305.3354 375.2967 304.9384 382.3547 340.4024 555.9817 310.5884 381.3057 307.6484 374.7757"></polygon>
                <polygon id="Fill-73" fill="#E4B476" points="314.5395 373.0936 314.8385 380.1556 356.5645 513.5576 320.3585 378.5626 316.7875 372.3506"></polygon>
                <polygon id="Fill-75" fill="#E4B476" points="323.4838 369.9999 324.4708 376.9999 390.9088 539.8199 329.8108 374.8729 325.6498 369.0399"></polygon>
                <polygon id="Fill-77" fill="#E4B476" points="332.0854 366.0428 333.7484 372.9148 398.9894 493.3558 338.8564 370.2718 334.1474 364.8728"></polygon>
                <polygon id="Fill-79" fill="#E4B476" points="340.2543 361.2655 342.5813 367.9415 435.3533 504.4665 347.4053 364.8095 342.1913 359.9005"></polygon>
                <polygon id="Fill-81" fill="#E4B476" points="347.9213 355.7127 350.8903 362.1227 435.3533 461.0317 355.3783 358.5397 349.7063 354.1637"></polygon>
                <polygon id="Fill-83" fill="#E4B476" points="355.0033 349.4305 358.5853 355.5225 474.7463 470.1215 362.6983 351.5215 356.6303 347.7165"></polygon>
                <polygon id="Fill-85" fill="#E4B476" points="361.432 342.4881 365.599 348.1991 464.646 433.7591 369.306 343.8081 362.886 340.6211"></polygon>
                <polygon id="Fill-87" fill="#E4B476" points="367.1557 334.954 371.8597 340.226 496.9687 423.659 375.1157 335.494 368.4197 332.947"></polygon>
                <polygon id="Fill-89" fill="#E4B476" points="372.1166 326.8866 377.3066 331.6766 486.8676 389.3146 380.0896 326.6456 373.1756 324.7726"></polygon>
                <polygon id="Fill-91" fill="#E4B476" points="376.2582 318.3817 381.8992 322.6367 533.3322 386.2847 384.1702 317.3587 377.1072 316.1647"></polygon>
                <polygon id="Fill-93" fill="#E4B476" points="379.5453 309.5008 385.5773 313.1858 508.0793 349.9208 387.3243 307.7098 380.1783 307.2198"></polygon>
                <polygon id="Fill-95" fill="#E4B476" points="381.9535 300.3475 388.3145 303.4285 562.6245 339.8195 389.5155 297.8075 382.3525 298.0165"></polygon>
                <polygon id="Fill-97" fill="#E4B476" points="383.4467 291.0028 390.0807 293.4428 513.1317 303.4558 390.7217 287.7318 383.6217 288.6408"></polygon>
                <polygon id="Fill-99" fill="#E4B476" points="384.0209 281.5575 390.8619 283.3355 567.6759 282.2445 390.9459 277.5875 383.9629 279.1885"></polygon>
                <polygon id="Fill-101" fill="#E4B476" points="383.6713 272.0985 390.6463 273.1915 522.2213 258.0015 390.1703 267.4675 383.3803 269.7485"></polygon>
                <polygon id="Fill-103" fill="#E4B476" points="382.391 262.7235 389.446 263.1285 573.736 225.5895 388.41 257.4755 381.873 260.4045"></polygon>
                <polygon id="Fill-105" fill="#E4B476" points="380.2035 253.5126 387.2635 253.2266 517.1715 211.5366 385.6755 247.7066 379.4605 251.2636"></polygon>
                <polygon id="Fill-107" fill="#E4B476" points="377.1195 244.5614 384.1165 243.5904 551.5145 171.7164 381.9975 238.2474 376.1565 242.3964"></polygon>
                <polygon id="Fill-109" fill="#E4B476" points="373.1781 235.9608 380.0441 234.3028 488.8881 173.1528 377.4071 229.1958 372.0051 233.8978"></polygon>
                <polygon id="Fill-111" fill="#E4B476" points="368.4135 227.7792 375.0835 225.4612 531.3125 118.6082 371.9575 220.6332 367.0415 225.8422"></polygon>
                <polygon id="Fill-113" fill="#E4B476" points="362.8617 220.1122 369.2837 217.1462 486.1937 117.8452 365.7007 212.6472 361.3177 218.3142"></polygon>
                <polygon id="Fill-115" fill="#E4B476" points="356.5922 213.0233 362.6902 209.4403 486.8672 84.8483 358.6882 205.3183 354.8772 211.3843"></polygon>
                <polygon id="Fill-117" fill="#E4B476" points="349.6645 206.576 355.3775 202.422 443.4345 92.346 350.9885 198.706 347.7935 205.121"></polygon>
                <polygon id="Fill-119" fill="#E4B476" points="342.1283 200.8456 347.4133 196.1456 444.4423 49.1586 342.6813 192.8796 340.1303 199.5746"></polygon>
                <polygon id="Fill-121" fill="#E4B476" points="334.0766 195.8788 338.8696 190.6828 404.0396 69.1128 333.8456 187.9008 331.9586 194.8118"></polygon>
                <polygon id="Fill-123" fill="#E4B476" points="325.5707 191.7245 329.8367 186.0835 396.6327 22.2225 324.5597 183.8025 323.3597 190.8665"></polygon>
                <polygon id="Fill-125" fill="#E4B476" points="316.6967 188.4208 320.3907 182.3868 362.9627 41.7508 314.9157 180.6388 314.4137 187.7858"></polygon>
                <polygon id="Fill-127" fill="#E4B476" points="307.5492 186.0009 310.6362 179.6369 344.1082 6.7349 305.0122 178.4349 305.2152 185.5939"></polygon>
                <polygon id="Fill-129" fill="#E4B476" points="298.2045 184.4882 300.6505 177.8572 313.1295 34.7692 294.9435 177.2092 295.8455 184.3102"></polygon>
            </g>
        </g>
    </g>
</svg>