<svg xmlns="http://www.w3.org/2000/svg" width="356" height="479" viewBox="0 0 356 479">
    <g fill="none" fill-rule="evenodd">
        <g fill-rule="nonzero">
            <g>
                <path fill="#000" d="M113.2 378.097c-1.8-.1-11.3 2.3-15.1 3-3.8.7-15 8.6-17.1 9.4-2.1.8-5.7 7.4-5.7 7.4s-6.7 6.8-9 13.6c-1.6 4.8-.6 8.8.3 12-1.6-3.1-3.3-6.6-3.6-8-.4-2.8-.6-5.7-.6-8.6 0-2.6-.5-5.5-.4-7.7.1-2.2-.6-8.6-1.3-10.6-1.1-2.4-2.5-4.6-4.2-6.7-1.7-2.3-4.5-3.6-7.4-5.7-3-2.1-5.1-4.4-7.5-6.1-2.4-1.7-6.4-4.6-8.4-6.4-2.2-1.7-4.4-3.2-6.8-4.5l-7.9-3.4-.1 4.4s9.2 10.6 11.3 13.3c2.1 2.7 8.7 13.3 9 15 .3 1.7.5 10.7.5 10.7s-1.5 11.9-1.2 13.6c.3 1.7 2.8 8.6 4.3 12.7.8 1.7 1.9 3.3 3.2 4.7l-5.4-.4s-9.3.4-12.7-2.5c-3.4-3-5.5-4.9-8.3-7.4-1.8-1.7-3.5-3.6-5-5.6l-.7 6.6c.7 2.1 1.6 4.1 2.8 6 1.5 2.1 1.3 4.5 4.1 6.9 2.8 2.5 2.3 6.5 5.9 7.1 3.6.6 4.8 3 7.3 3.8 2.5.8 9.3 3.1 9.3 3.1l10.1 2.2 5.7 6.1 3.4 6.5h11.9l8.8.9 1.6-6.7 3.8-6.9 5.3-8.1s5.7-3.8 7.8-5c2.5-1.5 5.1-2.8 7.8-4 3.2-1.4 3.1-2.5 5-5.3 1.9-2.9 1.2-5 2.1-7.3.6-2 1-4 1.1-6.1l-2.1-5.8c-.9 2.2-2 4.3-3.3 6.3-1.9 2.9-3.4 5.2-5.8 8.7-2.4 3.5-11 5.3-11 5.3s-9 3-10.6 3.6c-.8.4-2.8 2.4-4.8 4.5l-.1-4 1.7-8.1c.7-5.1.4-11.5 3.3-15.8.5-.7 12-11.9 10.8-11.9 4.2.1 8-5.8 13-6.7 1.7-1.3 3.6-2.5 5.5-3.5 1.6-.7 5.5-.9 8-1.3l5-.8 6.8-3.3-12.1-2.3c0-.2-6.5-.8-8.3-.9z" transform="translate(-1202 -1051) translate(1202.1 1051)"/>
                <path fill="#EBD078" d="M19 426.097c.7 1 1.5 2.3 2.5 3.5l1.8 1.8.9.9 1.1.8c.8.6 1.6 1.1 2.4 1.6l2.7 1.3c2 .7 4 1.3 6 1.7 2 .4 4.1.7 6.1 1.1 1 .2 2 .3 3 .6 1 .2 2 .4 2.9.7.9.3 1.9.5 2.8.9l2.6 1.1c.9.4 1.6 1 2.4 1.4.8.4 1.5.9 2.2 1.5 1.3 1 2.6 2 3.8 3.2l3 3c.8 1 1.5 1.8 2.1 2.5l1.8 2.2-1.5-2.4c-.5-.8-1.1-1.7-1.8-2.8-.7-1.1-1.7-2.2-2.7-3.4-1.1-1.3-2.4-2.5-3.7-3.6-.7-.6-1.4-1.2-2.2-1.7-.8-.6-1.7-1.1-2.5-1.6l-2.8-1.3c-1-.4-2-.7-3-1-1-.3-2-.6-3.1-.8-1-.3-2.1-.5-3.1-.6-2.1-.4-4.1-.6-6.1-1-1.9-.3-3.8-.8-5.7-1.4l-2.5-1.1c-.8-.4-1.6-.8-2.3-1.3l-1.1-.7-.9-.8-1.8-1.5c-1-1.1-1.9-2.2-2.8-3.1-.7-.9-1.3-1.8-1.9-2.7l-1.6-2.4s.5.9 1.2 2.6c.7.9 1.3 1.9 1.8 2.8zM111.5 419.797c-.6.8-1.3 1.8-2 2.9-.7 1-1.8 2-2.8 3.1-1.1 1-2.3 2-3.5 2.9-1.3 1-2.7 1.9-4.1 2.7-1.5.8-3 1.7-4.5 2.5s-3.1 1.7-4.6 2.6c-.7.5-1.5.9-2.2 1.5l-2 1.6c-1.2 1.1-2.3 2.4-3.1 3.8-.8 1.2-1.4 2.6-1.8 4-.3 1.2-.5 2.4-.7 3.6-.1.4-.1.7-.1 1.1l.7-.4c0-.2.1-.4.2-.6.3-1 .6-2.2 1.1-3.3.5-1.3 1.2-2.4 2-3.5.9-1.2 1.9-2.3 3-3.3l1.9-1.4 2.1-1.3c1.4-.8 3-1.6 4.5-2.5 1.5-.8 3.1-1.7 4.6-2.6 1.5-.9 2.9-1.9 4.2-3 1.3-1 2.4-2.1 3.5-3.3 1-1.2 1.8-2.4 2.6-3.5s1.2-2.3 1.7-3.2c.5-.9.7-1.9 1-2.6.5-1.5.8-2.3.8-2.3l-1.2 2.1c-.3.7-.7 1.5-1.3 2.4zM76.2 453.497s-.2-1.5-.7-4.1c-.4-2.6-1-6.3-1.4-10.8-.6-5.1-.8-10.2-.6-15.3 0-2.7.6-5.4 1.8-7.9 1.3-2.7 2.5-5.4 3.8-8.1 1.2-2.6 2.7-5.1 4.4-7.4 1.7-2.2 3.7-4.1 5.9-5.7 2.2-1.6 4.6-2.8 6.8-4.2 2.2-1.3 4.3-2.5 6.3-3.5 1.8-.9 3.7-1.6 5.7-2.2 1.7-.5 3.3-1 4.6-1.2 2.6-.6 4.1-.8 4.1-.8-1.4-.1-2.8 0-4.2.1-1.3.1-2.9.3-4.8.6-2.1.3-4.2.8-6.1 1.6-2.3.9-4.6 1.9-6.8 3-2.5 1.2-5 2.5-7.3 4-2.6 1.7-4.9 3.7-6.8 6.2-1.9 2.5-3.5 5.2-4.8 8-1.2 2.9-2.5 5.3-3.7 8.3-.6 1.5-1 3-1.3 4.5-.1.4-.1.8-.2 1.2l-.1 1.1c0 .7-.1 1.5-.1 2.2.1 5.2.7 10.5 1.7 15.6.9 5.1 2.2 10 3.8 14.8zM42.5 382.597c1.4 2 2.6 4 3.7 6.1 1.2 2.4 2.3 4.8 3.2 7.3l.4.9.3 1c.2.7.3 1.3.4 2 .2 1.4.3 2.8.5 4.3.1 1.5.4 3.1.7 4.6.3 1.5.7 2.9 1.2 4.4.5 1.5 1 2.9 1.3 4.3l.5 2.1c.2.8.4 1.5.6 2.2 1 2.8 2.3 5.5 3.6 8.1.3.6.6 1.2.9 1.9l.4.9.3 1c.4 1.2.7 2.4 1.1 3.7.4 1.3.8 2.5 1.4 3.7.6 1.1 1.3 2.1 2 3.1 1.3 1.8 2.5 3.6 3.7 5 1 1.2 2.1 2.4 3.3 3.5.7.7 1.5 1.4 2.3 2l.1.1.1-.1-.1-.1c-.5-.5-1.2-1.3-2-2.3-1-1.2-1.9-2.5-2.8-3.8-1-1.5-2-3.3-3.1-5.3-.6-1-1.2-2-1.6-3-.4-1.1-.8-2.2-1-3.4-.3-1.2-.5-2.6-.9-4l-.3-1-.4-1c-.3-.7-.5-1.3-.8-2-1.1-2.6-2.5-5.2-3.3-7.8l-.6-2.1-.5-2.2c-.3-1.5-.9-3-1.3-4.4-.5-1.4-.9-2.8-1.2-4.2-.3-1.4-.5-2.8-.7-4.2-.2-1.5-.3-3-.7-4.5-.2-.7-.4-1.6-.6-2.2l-.3-1-.4-1.1c-1-2.6-2.3-5-3.7-7.4-1.3-2.1-2.7-4.1-4.2-6.1-1.3-1.6-2.7-3.2-4.1-4.7-1.3-1.3-2.5-2.4-3.5-3.3-1-.9-1.8-1.5-2.3-2l-.8-.7 2.8 3.1c2.2 2.7 4.4 5.6 6.4 8.6z" transform="translate(-1202 -1051) translate(1202.1 1051)"/>
                <path fill="#404040" d="M264.2 67.297c20 1.5 30.4.1 56.1 23.5 0 0-60-7.9-125.3 38.6v-9.2l14.1-22.2s35.1-32.2 55.1-30.7z" transform="translate(-1202 -1051) translate(1202.1 1051)"/>
                <path fill="#000" d="M193.5 413.897l1-2.6s-28.8 22-32.5 25.9c0 0 13.5-16.2 22.2-24.2 1.1-1-.9-.3.1-1.2 0 0-14.3 9.8-23.2 18.9 2.7-3.6 6-7.7 9-11 1.5-1.7 3-3 .1-1.5 0 0-5.1 4.3-10.7 9.4l.7-.9 6.5-8.1 9.4-8.4 5.6-7.7 5.5-9.2 3.4-9.2 2.5-6.8 1-4.5 2.1-7.6 1.6-6.4 2.3-8.2-3.6 4.2-4.8 7.3s-4.7 5.2-6 6.9c-1.3 1.6-6.2 5.4-8.3 7.4-2.1 2-4.6 3.2-7.4 4.9-2.8 1.8-8.1 6.8-11.3 9.8-3.2 3 0 0-2.7 1.8s-7.2 12-8.1 14.5c-.9 2.5-5.5 9.2-5.5 9.2l-8.2 11.5.6 14.9 11.7 4.3 1.6-3.5 17.6 8.7s23.5-24.7 37.5-34.8c0 0-29.5 15.4-35.2 21 0 .1 24.9-23 25.5-24.8z" transform="translate(-1202 -1051) translate(1202.1 1051)"/>
                <path fill="#EBD078" d="M151.3 431.197c.8-1.7 4.3-11.7 5-13.3.8-1.9 2-3.7 3.5-5.3.8-.7 1.6-1.4 2.5-2 1-.7 2-1.4 3.1-2.3.5-.4 1.1-.9 1.6-1.4l1.4-1.3c1-.9 1.8-1.5 2.7-2.3.9-.8 1.9-1.6 2.9-2.6.3-.2.4-.4.8-.7l.6-.7c.4-.5.9-1.1 1.2-1.6 1.5-2.1 2.6-4 3.8-5.6l.1-.2.1-.1.1-.2.2-.3c.2-.3.4-.7.5-1.1.2-.6.4-1.1.5-1.7.1-.8.4-1.7.7-2.5.8-1.5 1.7-3 2.4-4.3.7-1.2 1.3-2.4 1.8-3.7.3-.8.6-1.7.7-2.5l.1-.9-.5.8c-.4.7-.9 1.4-1.4 2.1-.7.8-1.5 1.8-2.6 2.9-1.3 1.3-2.4 2.6-3.5 4-1.3 2-1.7 4.2-2.7 5-1.6 1.7-3 3.6-4.4 5.2l-1.1 1.1-.6.6-.6.5c-.8.7-1.8 1.4-2.7 2.1-1 .7-2.2 1.7-3.1 2.5l-1.4 1.3c-.4.3-.8.7-1.3 1.1-.9.7-1.9 1.4-2.9 2.2-1.2.9-2.2 1.8-3.2 2.9-1.8 2.1-3.1 4.4-4 7-.5 1.4-5.1 13.5-5.5 14.8 1.2 1 3.9-.5 5.2.5z" transform="translate(-1202 -1051) translate(1202.1 1051)"/>
                <path fill="#000" d="M151.3 431.197l.7.3c.2-.5.6-1.4 1-2.6.7-1.8 1.5-4.2 2.3-6.3.4-1 .7-2 1-2.8.3-.8.5-1.4.6-1.6.8-1.9 1.9-3.6 3.3-5.1l-.5-.5.5.5c.8-.7 1.6-1.3 2.4-2l-.4-.6.4.6c1-.7 2-1.5 3.1-2.3.5-.4 1.1-.9 1.6-1.4l-.5-.5.5.5 1.4-1.3c1-.9 1.7-1.5 2.6-2.3.9-.8 1.9-1.6 3-2.6l-.5-.5.5.5c.2-.2.5-.4.8-.8l.6-.7c.4-.5.9-1.1 1.3-1.6l-.6-.4.6.4c1.6-2.1 2.6-4.1 3.8-5.6l-.6-.4.6.4.1-.2.1-.1.1-.2.2-.4c.2-.3.4-.7.5-1.1l.6-1.8c.1-.8.4-1.6.6-2.3l-.7-.2.6.3c.7-1.5 1.7-2.9 2.4-4.3l-.6-.3.6.4c.7-1.2 1.3-2.5 1.8-3.8.3-.9.6-1.8.7-2.7l.1-.9-1.3-.5-.5.8c-.4.7-.8 1.4-1.3 2-.6.8-1.5 1.8-2.5 2.9l.5.5-.5-.5c-1.3 1.3-2.5 2.6-3.6 4.1-.7 1.1-1.2 2.2-1.6 3.1-.2.4-.4.8-.5 1.1-.2.3-.3.5-.5.6-1.6 1.7-3 3.6-4.5 5.2-.4.4-.6.7-1.1 1.1l.5.5-.5-.5-.6.6-.5.5c-.8.7-1.7 1.4-2.7 2.1-1 .7-2.2 1.7-3.1 2.5l.5.5-.5-.5-1.4 1.3c-.3.3-.8.7-1.2 1l.5.6-.4-.6c-.9.7-1.9 1.4-2.9 2.2-1.2.9-2.3 1.9-3.3 2.9-1.8 2.1-3.2 4.6-4.1 7.2l.7.2-.7-.3c-.3.7-1.5 4.1-2.8 7.4-.6 1.7-1.3 3.4-1.8 4.7-.2.7-.5 1.3-.6 1.7-.2.5-.3.8-.3 1l-.1.5.4.3c.6.4 1.2.5 1.8.5.9 0 1.9-.2 2.6-.2.4 0 .7.1.9.2l.7.5.4-.8-.7-.1.4-.6c-.5-.4-1.2-.5-1.8-.5-.9 0-1.9.2-2.6.2-.4 0-.8-.1-.9-.2l-.4.6.7.2c0-.1.1-.4.3-.9 1.1-3.2 4.7-12.6 5.2-13.8.8-2.5 2.2-4.8 3.9-6.8l-.5-.5.5.5c1-1 2-1.9 3.1-2.8 1-.8 2-1.5 2.9-2.2.4-.4.9-.7 1.3-1.1l-.5-.5.5.5 1.4-1.3c.8-.8 2-1.7 3-2.4s1.9-1.5 2.7-2.2l-.5-.5.5.6.6-.5.7-.7c.4-.4.7-.7 1.1-1.2l-.5-.5.5.5c1.5-1.6 2.9-3.5 4.4-5.1l-.5-.5.5.6c.3-.3.6-.6.8-1 .3-.6.6-1.2.9-2 .3-.7.7-1.4 1.1-2.1l-.6-.4.6.4c1.1-1.4 2.2-2.7 3.5-3.9 1-1.1 1.9-2.1 2.6-3 .5-.7 1-1.4 1.5-2.2l-.6-.4.6.4.5-.8-.6-.4-.7-.1-.1.9.7.1-.7-.1c-.1.8-.4 1.6-.7 2.4-.5 1.2-1.1 2.4-1.7 3.6-.7 1.3-1.7 2.8-2.5 4.4-.3.8-.5 1.7-.7 2.6l.7.1-.7-.2c-.1.5-.3 1.1-.5 1.6l.7.3-.7-.3c-.2.3-.3.7-.5 1l.6.3-.6-.4-.2.3-.1.1-.1.2c-1.2 1.7-2.3 3.6-3.8 5.6-.3.5-.8 1.1-1.2 1.5l-.6.7.5.5-.5-.5c-.3.3-.5.4-.7.7-1 .9-2 1.7-2.9 2.5-.9.8-1.6 1.4-2.7 2.3l-1.4 1.3c-.5.5-1 .9-1.5 1.3-1.1.8-2 1.6-3 2.2-.9.6-1.7 1.3-2.5 2-1.5 1.6-2.7 3.5-3.6 5.5-.2.4-.5 1.4-1 2.6-.7 1.8-1.5 4.2-2.3 6.3-.4 1-.7 2-1 2.8-.3.8-.5 1.4-.7 1.7l.4.7.4-.6-.4.6z" transform="translate(-1202 -1051) translate(1202.1 1051)"/>
                <path fill="#404040" d="M74.3 406.597s-5.4-8.6-1.9-11.8c3.6-3.1 8.5-12.1 8.5-12.1l3.5-6.8 2-6.7 1.2-8.2 1.8 11 .2 5.2c1.6 2.9 1.7 7.4 1.8 10.3l.3 11.1c.1 3.7-2.7 6.8-1.9 10.4.8 3.7-1.1 10.4-1.1 10.4l-4.2 11.9-8.1-1.5v-1.1c.7-2.2-2.1-22.1-2.1-22.1zm-68-7.6s11.9 18.7 14.5 22c3.6 1 5 2.4 9.6 4 8.8 2.9 10.2-5 19.4-3.4 2.7.4 5.4 1.1 7.9 2l-5.5-12.3-7-6.7-9.9-3.6s-10.5-7-15.3-10.1c-4.8-3.1-13.5-10.8-14.9-14.3-1.4-3.6-3.3-9.8-3.3-9.8l-1.8 9.2 2.3 11.4 4 11.6z" transform="translate(-1202 -1051) translate(1202.1 1051)"/>
                <path fill="#000" d="M85.3 410.697c-1.2 3.8-3.4 8.2-3.8 12.1 1-13.5 3.8-26.8 5-40.5-3 13.8-5.8 27.3-7.5 41.3-1.5-7.4 1.3-17.1 2-24.7-3.9 12.6-4 27.3-5 40.6l3.5-1.7c1.5-8 4.7-15.3 6.1-23.3 1-5.5 1.8-10.8 2.2-16.5-1.2 4.1-1.2 8.6-2.5 12.7zM24.2 401.297c.2 3.6 4 4.7 6.3 6.7 2.1 1.9 3.2 4.5 5.4 6.1-5.5-3.3-11.9-6.2-16-11-3.2-3.7-5.3-7.5-8.9-11 4.3 7.2 8.7 15 15.4 20.8 4.2 3.7 9.7 5.2 14.9 6.7 2.9.9 12 6.4 12.3 1.5l.4-.7c-4.8-4.1-12.9-5.5-18.4-9.6-3.7-2.7-7.7-6.2-11.4-9.5z" transform="translate(-1202 -1051) translate(1202.1 1051)"/>
                <path fill="#000" d="M69.4 388.897c-2.4-4.5-6.5-12.1-8.9-15-2.4-3-4.8-5.2-6.4-8.2-1.6-3-5.7-9-6.5-11.3-.8-2.3-4.2-9.8-4.2-9.8l-2.6-9.9-2.5-6.1-.4 10-.5 7.7-.5 9.2-.6 5.4.3 8.4.4 11.5 2.7 12.2 3.4 10.6 7.3 12.8 4.2 11.4 5 12.1 1.7 6.1 1.1 9.9 14.6-.5 1.6-22.3-.3-10s-2.6-9.1-2.7-12.2c-.2-3.1-3.7-17.5-6.2-22z" transform="translate(-1202 -1051) translate(1202.1 1051)"/>
                <path fill="#EBD078" d="M45.6 378.197c-1-3.2-1.5-6.5-1.6-9.8-.1-.9-.1-1.8 0-2.8v-1s.1.3.2 1 .3 1.5.5 2.7c.7 3.2 1.6 6.2 2.9 9.2.4.9.8 2 1.3 2.8.5.9 1.1 1.8 1.8 2.5 1.7 1.8 3.3 3.7 4.8 5.8 1.4 2.4 2.4 4.9 3.3 7.5.4 1.2.9 2.4 1.4 3.5l.9 1.7c.4.6.7 1.3 1 2l.7 1.9c.2.6.5 1.2.7 1.8l1.8 3.6c1.2 2.4 2.3 4.8 3.2 7.4.8 2.4 1.4 4.8 1.7 7.3.2 1.1.3 2.1.4 3.2-1-.3-1.8-.5-2.6-.8-.1-.6-.2-1.2-.4-1.9-.5-2.3-1.2-4.6-2.1-6.8-.9-2.2-2.1-4.5-3.3-6.9l-1.8-3.6c-.3-.5-.6-1.3-.9-2l-.7-1.9c-.2-.5-.5-1.1-.7-1.6l-1-1.8c-.6-1.3-1.1-2.6-1.6-4-.7-2.4-1.6-4.8-2.7-7-1.1-2-2.8-3.8-4.2-5.8-.7-1-1.3-2-1.9-3.1-.6-1.1-.8-2-1.1-3.1z" transform="translate(-1202 -1051) translate(1202.1 1051)"/>
                <path fill="#000" d="M185.9 137.297h-45.3c35.6 223-94.2 325.8-94.2 325.8l57.3 11.2c109.2-120.5 93.1-284.2 88-334.8l-5.8-2.2" transform="translate(-1202 -1051) translate(1202.1 1051)"/>
                <path fill="#EBD078" d="M106.7 465.897l5.9-2.8.4.9c4-4.8 7.9-9.8 11.6-14.7l-1.9-4 5.9-2.8.4.8c2.2-3.1 4.3-6.3 6.4-9.5l-4.4 2.1-2.7-5.6 5.9-2.9 2.3 4.8c1.1-1.7 2.1-3.3 3.1-5l-.9-1.9 3-1.4c1.7-2.9 3.4-5.8 5.1-8.8l-2.5-5.1 5.9-2.8.4.9c1.5-2.8 2.9-5.7 4.3-8.6l-2.4 1.1-2.7-5.6 5.9-2.8 1.4 2.9c1.8-3.8 3.5-7.6 5.1-11.4l-4.1 2-2.7-5.6 5.9-2.8 2 4.1c.9-2.1 1.7-4.1 2.6-6.2.8-2 1.6-4.1 2.4-6.1l-4.4 2.1-2.7-5.7 5.9-2.8 2.1 4.3c1.6-4.3 3.1-8.5 4.5-12.8l-4.1 2-2.7-5.6 5.9-2.8 1.9 3.9c1.3-4 2.5-7.9 3.6-11.9l-3.1 1.5-2.7-5.6 5.9-2.9 1.2 2.5c.9-3.2 1.8-6.5 2.6-9.7l-1.4.7-2.7-5.6 5.9-2.9.1.2c.6-2.6 1.2-5.3 1.7-7.9l-2.1-4.4 3.3-1.6c.9-4.5 1.7-8.9 2.4-13.3l-.1-.3.2-.1c.3-1.9.6-3.8.9-5.6l-3.2 1.6-2.7-5.6 5.9-2.8.8 1.7c.4-3.1.8-6.1 1.2-9.1l-2.3-4.7 3-1.5c.2-1.9.4-3.8.6-5.6l-5.7 2.7-2.7-5.6 5.9-2.8 2.5 5.3c.4-4.2.7-8.3 1-12.3l-1.2.6-2.7-5.6 4.3-2.1c.4-6.3.6-12.4.7-18.4l-1.6.8-2.7-5.6 4.5-2.2c.1-6.1 0-12-.1-17.6l-.9.4-2.7-5.7 3.4-1.6c-.1-1.8-.1-3.5-.2-5.3l-5.3 2.6-2.7-5.7 5.9-2.8 2 4.2c-.2-4.6-.5-9-.8-13.1l-1.6-3.3 1.3-.6c-.1-1.8-.3-3.5-.4-5.2l-3 1.4-2.7-5.7 5-2.4c-.5-5.6-1.1-10.4-1.6-14.5-.3-2.1-3-4-7.1-5.7l2.6 5.5-5.9 2.9-2.7-5.7 5.7-2.8c-1.9-.8-4.1-1.5-6.5-2.2l-1.3.6-.5-1.1c-2-.5-4.1-1.1-6.3-1.5l2.3 4.8-5.9 2.8-2.7-5.6 4.9-2.3c-4.4-.9-8.9-1.7-12.8-2.4l1.4 2.8-5.9 2.8-2.7-5.6 1.8-.9c-3.9-.5-6.4-.8-6.4-.8.4 2 .8 4 1.1 6l1.7 3.5-1 .5c.3 1.6.5 3.1.8 4.7l2.3-1.1 2.7 5.6-4 1.9c.3 1.7.5 3.3.7 5l5.3-2.6 2.7 5.6-5.9 2.8-1.9-4c.7 5.2 1.3 10.3 1.8 15.4l.4.8-.3.1c.2 1.8.4 3.7.5 5.5l2-.9 2.7 5.6-4.1 2c.1 1.7.2 3.4.4 5.1l5.8-2.8 2.7 5.6-5.9 2.8-2.7-5.6c.3 4.4.5 8.7.6 13l2.3 4.8-2.2 1c0 1.8.1 3.6.1 5.3l4.2-2 2.7 5.6-5.9 2.8-1-2.1c0 3.8-.1 7.5-.2 11.2l1.5 3-1.6.8c-.1 1.8-.1 3.7-.2 5.5l3.9-1.9 2.7 5.6-5.9 2.8-1-2.1c-.2 3.4-.4 6.7-.7 10l2 4.3-2.5 1.2-.6 5.7 5.2-2.5 2.7 5.6-5.9 2.9-2.2-4.7c-.5 4-1 7.9-1.6 11.8l1.4-.7 2.7 5.6-5.3 2.6c-.5 3.2-1.1 6.3-1.7 9.4l1.4 3-2.2 1.1c-.4 2-.8 4-1.3 6l5.6-2.7 2.7 5.6-5.9 2.8-2.5-5.3c-1 4.6-2.1 9.1-3.3 13.5l3.4-1.6 2.7 5.6-5.9 2.8-1.3-2.8c-.9 3.5-1.9 6.8-2.9 10.2l1.9-.9 2.7 5.7-5.9 2.8-.7-1.4c-.9 2.8-1.9 5.6-2.8 8.3l1-.5 2.7 5.6-5.9 2.8-.5-.9c-1 2.7-2.1 5.4-3.1 8l1.2-.6 2.7 5.7-5.9 2.8-.7-1.5c-1.3 3.1-2.6 6.1-4 9.1l2.3-1.1 2.7 5.7-5.9 2.8-1.3-2.7c-1.9 3.9-3.8 7.8-5.7 11.5l4.6-2.2 2.7 5.7-5.9 2.8-2.3-4.7c-1 1.8-1.9 3.7-2.9 5.4l.7 1.4-2 1c-1.9 3.3-3.7 6.6-5.6 9.7l1.9 4-5.9 2.8-.1-.3c-1.8 2.9-3.6 5.6-5.4 8.3l3.2-1.5 2.7 5.6-5.9 2.8-2-4.1c-1.1 1.6-2.2 3.2-3.3 4.7l.7 1.6-2.9 1.4c-2.2 3-4.4 5.8-6.4 8.5l1-.5 2.7 5.7-5.9 2.8-1.6-3.4c-1.2 1.5-2.4 2.9-3.5 4.2l.6 1.3-3.1 1.5c-3.8 4.3-7.1 7.8-9.6 10.3l4.4-2.1 2.7 5.7-5.9 2.8-2.5-5.1c-1.7 1.7-3 2.9-3.8 3.6l.5 1.1 13.2 2.2.5-.2.2.4 6 1-1.7-3.5 5.9-2.8 2.7 5.6-2.8 1.4 9.4 1.5 5.9-2.8 2 4.2 6.5 1.1c1.3-1.4 2.6-2.8 3.9-4.3l-5.2 2.5-2.7-5.7 5.9-2.8 2.6 5.4c1.2-1.3 2.4-2.7 3.6-4l-1.3-3.8zm8.4-10l-2.7-5.6 5.9-2.8 2.7 5.6-5.9 2.8zm-9.7-20.4l-2.7-5.7 5.9-2.8 2.7 5.7-5.9 2.8zm.3 12.5l-5.8 2.8-2.8-5.6 5.9-2.8 2.7 5.6zm67.3-285.9l2.7 5.6-5.9 2.9-2.7-5.6 5.9-2.9zm-8-1.5l-2.7-5.6 5.9-2.8 2.7 5.7-5.9 2.7zm12.8 11.5l2.7 5.6-5.9 2.9-2.7-5.6 5.9-2.9zm-.3-12.2l5.9-2.9 2.7 5.6-5.9 2.8-2.7-5.5zm-40.2 235.6l-2.7-5.6 5.9-2.8 2.7 5.6-5.9 2.8zm.3 12.2l-5.9 2.8-2.7-5.6 5.9-2.8 2.7 5.6zm5.4-26.8l-2.7-5.7 5.9-2.8 2.7 5.7-5.9 2.8zm5.6-15l-2.7-5.6 5.9-2.8 2.7 5.6-5.9 2.8zm5.5-15l-2.7-5.6 5.9-2.8 2.7 5.6-5.9 2.8zm5.6-15l-2.7-5.6 5.9-2.8 2.7 5.7-5.9 2.7zm5.5-15l-2.7-5.6 5.9-2.9 2.7 5.7-5.9 2.8zm5.6-15l-2.7-5.6 5.9-2.8 2.7 5.6-5.9 2.8zm-4.8-10l-2.7-5.6 5.9-2.8 2.7 5.6-5.9 2.8zm10.4-5l-2.7-5.6 5.9-2.9 2.7 5.6-5.9 2.9zm-4.8-10l-2.7-5.6 5.9-2.9 2.7 5.6-5.9 2.9zm5.6-15l-2.7-5.6 5.9-2.9 2.7 5.7-5.9 2.8zm-4.8-10l-2.7-5.6 5.9-2.8 2.7 5.6-5.9 2.8zm5.6-15l-2.7-5.6 5.9-2.9 2.7 5.6-5.9 2.9zm-4.8-10l-2.7-5.6 5.9-2.8 2.7 5.6-5.9 2.8zm10.4-5l-2.7-5.6 5.9-2.9 2.7 5.6-5.9 2.9zm-4.8-10l-2.7-5.6 5.9-2.9 2.7 5.6-5.9 2.9zm-4.8-10l-2.7-5.6 5.9-2.8 2.7 5.7-5.9 2.7zm5.4-15.3l-2.7-5.6 5.9-2.8 2.7 5.7-5.9 2.7zm-11.9-13.2l2.7 5.6-5.9 2.8-2.7-5.6 5.9-2.8zm4.8 10l2.7 5.6-5.9 2.9-2.7-5.6 5.9-2.9zm-5.6 15l2.7 5.6-5.9 2.8-2.7-5.6 5.9-2.8zm4.8 10l2.7 5.6-5.9 2.8-2.7-5.6 5.9-2.8zm-5.6 15l2.7 5.6-5.9 2.8-2.7-5.6 5.9-2.8zm4.9 9.9l2.7 5.6-5.9 2.9-2.7-5.7 5.9-2.8zm-5.7 15.1l2.7 5.6-5.9 2.8-2.7-5.6 5.9-2.8zm4.8 10l2.7 5.6-5.9 2.8-2.7-5.6 5.9-2.8zm-5.5 15l2.7 5.6-5.9 2.8-2.7-5.6 5.9-2.8zm-5.6 15l2.7 5.6-5.9 2.8-2.7-5.6 5.9-2.8zm4.8 10l2.7 5.7-5.9 2.8-2.7-5.6 5.9-2.9zm-5.6 15l2.7 5.7-5.9 2.8-2.7-5.6 5.9-2.9zm-5.6 15l2.7 5.6-5.9 2.8-2.7-5.6 5.9-2.8zm-5.5 15l2.7 5.7-5.9 2.8-2.7-5.6 5.9-2.9zm-5.6 15l2.7 5.6-5.9 2.8-2.7-5.6 5.9-2.8zm-5.5 15l2.7 5.6-5.9 2.9-2.7-5.7 5.9-2.8zm-5.7 14.6l2.7 5.6-5.9 2.9-2.7-5.7 5.9-2.8zm-5.6 15l2.7 5.7-5.9 2.8-2.7-5.6 5.9-2.9zm-5.6 15l2.7 5.7-5.9 2.8-2.7-5.7 5.9-2.8zm-7.9-1.5l-2.7-5.6 5.9-2.8 2.7 5.6-5.9 2.8zm2.4 16.9l2.7 5.7-5.9 2.8-2.7-5.6 5.9-2.9zm7.2 3.5l-2.7-5.6 5.9-2.8 2.7 5.7-5.9 2.7zm5.6-15.4l-2.7-5.7 5.9-2.8 2.7 5.7-5.9 2.8zm10.4-5l-2.7-5.7 5.9-2.8 2.7 5.7-5.9 2.8zm5.5-15l-2.7-5.6 5.9-2.9 2.7 5.7-5.9 2.8zm5.6-15l-2.7-5.7 5.9-2.8 2.7 5.6-5.9 2.9zm5.7-14.6l-2.7-5.6 5.9-2.8 2.7 5.6-5.9 2.8zm5.5-15.1l-2.7-5.5 5.9-2.8 2.7 5.6-5.9 2.7zm5.6-14.9l-2.7-5.6 5.9-2.8 2.7 5.7-5.9 2.7zm5.5-15l-2.7-5.6 5.9-2.8 2.7 5.6-5.9 2.8zm5.6-15l-2.7-5.6 5.9-2.8 2.7 5.7-5.9 2.7zm8.8-23.5l2.7 5.6-5.9 2.9-2.7-5.7 5.9-2.8zm.7-25l2.7 5.6-5.9 2.8-2.7-5.6 5.9-2.8zm-2.3-16.5l-2.7-5.6 5.9-2.9 2.7 5.6-5.9 2.9zm8.7-23.5l2.7 5.7-5.9 2.8-2.7-5.6 5.9-2.9zm.7-25.3l2.7 5.7-5.9 2.8-2.7-5.6 5.9-2.9zm-4.8-10l2.7 5.7-5.9 2.8-2.7-5.6 5.9-2.9zm.8-25l2.7 5.6-5.9 2.8-2.7-5.6 5.9-2.8zm.8-25l2.7 5.6-5.9 2.8-2.7-5.7 5.9-2.7zm-10.4 4.9l2.7 5.6-5.9 2.9-2.7-5.7 5.9-2.8zm-4.8-9.9l2.7 5.6-5.9 2.8-2.7-5.7 5.9-2.7zm-10.4 5l2.7 5.6-5.9 2.9-2.7-5.6 5.9-2.9zm-8-1.5l-2.7-5.6 5.9-2.8 2.7 5.6-5.9 2.8zm-.7 25l-2.7-5.6 5.9-2.8 2.7 5.7-5.9 2.7zm4.8 10.3l-2.7-5.6 5.9-2.9 2.7 5.7-5.9 2.8zm-.7 25l-2.7-5.6 5.9-2.8 2.7 5.6-5.9 2.8zm-.9 25l-2.7-5.6 5.9-2.9 2.7 5.6-5.9 2.9zm-.7 25l-2.7-5.6 5.9-2.9 2.7 5.6-5.9 2.9zm2.4 16.5l2.7 5.6-5.9 2.8-2.7-5.6 5.9-2.8zm-8.8 23.5l-2.7-5.6 5.9-2.9 2.7 5.6-5.9 2.9zm2.4 16.5l2.7 5.6-5.9 2.8-2.7-5.6 5.9-2.8zm-5.6 15l2.7 5.6-5.9 2.8-2.7-5.6 5.9-2.8zm-5.5 15l2.7 5.7-5.9 2.8-2.7-5.6 5.9-2.9zm-5.6 15l2.7 5.7-5.9 2.8-2.7-5.6 5.9-2.9zm-5.5 15l2.7 5.6-5.9 2.8-2.7-5.6 5.9-2.8zm-5.6 15l2.7 5.7-5.9 2.8-2.7-5.7 5.9-2.8zm-5.7 14.6l2.7 5.6-5.9 2.8-2.7-5.6 5.9-2.8zm-10.4 5l2.7 5.6-5.9 2.9-2.7-5.7 5.9-2.8zm-5.5 15l2.7 5.7-5.9 2.8-2.7-5.6 5.9-2.9zm-5.6 15l2.7 5.7-5.9 2.8-2.7-5.7 5.9-2.8zm-2.9 21l-5.9 2.8-2.7-5.6 5.9-2.9 2.7 5.7zm-7.5-16l2.7 5.7-5.9 2.8-2.7-5.7 5.9-2.8zm-19.1 28.8l-2.7-5.6 5.9-2.9 2.7 5.7-5.9 2.8zm10.4-4.9l-2.7-5.6 5.9-2.8 2.7 5.7-5.9 2.7zm4.8 10l-2.7-5.6 5.9-2.8 2.7 5.6-5.9 2.8zm10.4-5.1l-2.7-5.6 5.9-2.8 2.7 5.6-5.9 2.8zm7.7-10.6l5.9-2.8 2.7 5.7-5.9 2.8-2.7-5.7z" transform="translate(-1202 -1051) translate(1202.1 1051)"/>
                <path fill="#404040" d="M184.8 37.397c14.5-13.9 13.1-19.1 47.7-22.5 0 0-38.7 35.9-47.8 115.5l-6.8-6.2-12.7-29.2c-.1 0 5.1-43.7 19.6-57.6zM74 135.297c-18.1 12.4-27.9 14.6-37.7 56.9 0 0 46.4-39 138.9-34.7l-5.9-9.7-27.8-13.7s-47.9-12.2-67.5 1.2z" transform="translate(-1202 -1051) translate(1202.1 1051)"/>
                <path fill="#000" d="M158 118.197c-11.4-14.1-21.8-25.5-36.2-36.3-11.1-8.4-26-11.7-39.4-15.6-18.9-5.5-41.6-1-59.2 8.8-3.5 1.9-6.8 4.2-9.8 6.8 3-1 20.1 5.7 26.4 10.5l7.6 3.7c14.6 7 12.1-1.3 25.9 7.2l10.1 3c5.6 2.6 5.7 0 13.4 3.3 4.2 1.8 12.6 8 13 8.1 7.7 3.4 15.2 8 21 14.9.1.2 24.1 21.5 24.2 21.6m-26.3 25.5h.4c2.1-4.4 6.1-8 8.1-12.4.2 3.5.5 7.4.1 10.5 4.1-1.7 8.6-3.2 12.6-4.9-1.1 2.7-2 5.1-2.9 7.4l19-14.4c0-.2 1.3-1.5 1.5-1.9.1.3 8-7.6 8.1-7.6l9.8 6.6 2.5 2.1s7.3 11.5 14.8 17.8c-.1 2.8 5.7 15.9 6.4 17.7 3.4 8.8 20.4 29.3 23.8 38 .9 4.1 1.4 8.3 1.7 12.4.4 9-4.2 14.6 1.6 20.4 4.4 4.4 3.3 8.7 3.3 14.9.1 26.2 5.6 12 13 .6 2.9-4.5 5.5-9.3 7.5-14.2 4.2-10.3 8-20.7 12-31.1 1.5-3.7 4.1-13.6 3.7-16.9v-.9c-5.3-14.5-11.1-28.7-17.7-42.7-5.3-11.2-11-13.7-20.2-19.6.8-.1-28.1-17.2-27.3-17.3l-10.7-18.6c4.7-6.6 13.4-20.7 18-25.8 10-11 37-31.3 37-31.3 1.4-1.2 7.3-5.7 7.7-6.1 9.5-8.7 6.7-7.1 16.1-15.8 5.9-4.1 12.1-7.9 18.5-11.2 3.5-1.7 22.1-9 26-10.1-14.9-11.8-57.1-12-68.3-8.1-13 4.5-23.3 12.6-31.9 23.2-9.4 11.6-17.6 24-24.7 37.1-5 9.1-9.6 18.4-14.3 27.7-3 6-4.9 4.3-7.9 10.5-.4-4.4-.7-8.6-1-12.9-1.8-20.5-5.8-33.1-12.8-52.6-3-8.9-7.4-17.3-13.1-24.8-5-6.5-11.5-11-18.5-14.7-9.7-5.1-20.2-8.4-31-9.7-8.7-1.1-17.4-1.5-26-.1-5.6.9-11.1 2.1-16.6 3.4-1.8.6-3.5 1.4-5.1 2.3 0 0 46.9 20.4 53 32.2 6.1 11.8 24.6 25.7 28.4 32 9.5 15.4 11.8 31.4 15.3 42.9" transform="translate(-1202 -1051) translate(1202.1 1051)"/>
                <path fill="#EBD078" d="M182.9 141.697s26.3 16.5 31.3 21.1c9 8.4 11.4 16.7 12.1 17.5 1.2 1.4 9.7 17.6 9.7 17.6s5.1 11.9 5.6 13c.5 1.1 6.8 14.8 6.8 14.8l1.7 18.9s-.9 30.1-3.4 38.6c0 0 8.7-39.2 8.4-43.3-.2-2-1.5-11.5-2.9-18.4-.7-3.1-2-6.1-4-8.6-2.1-2.8-3.5-6-4.2-9.5l-.8-3.7s-7.3-10.7-8.9-13.3c-1.5-2.5-4.5-14.7-6.6-16.1-2.1-1.3-10.2-9.8-11.4-10.8-1.2-1-33.4-17.8-33.4-17.8z" transform="translate(-1202 -1051) translate(1202.1 1051)"/>
                <path fill="#000" d="M309.1 113.197c23.8 19 27.5 4.5 45.2 78.1 0 0-58.6-69-167.6-47.4l5.6-13.2 30.7-19.9s62.4-16.6 86.1 2.4z" transform="translate(-1202 -1051) translate(1202.1 1051)"/>
                <path fill="#EBD078" d="M191.2 134.797s32.1-9.7 38.2-11.1c11.1-2.6 18.7-.1 19.7-.2 1.7-.2 18.5 1.7 18.5 1.7s11.7 2.2 12.8 2.4c1.1.2 14.8 2.4 14.8 2.4l15.4 8.5s22.5 16.3 27.8 22.6c0 0-25.5-26.9-28.8-28.8-1.6-.9-9.5-4.8-15.6-7.3-2.7-1.1-5.7-1.6-8.7-1.4-3.2.1-6.4-.4-9.4-1.7l-3.2-1.3s-12 .1-14.7-.1c-2.7-.1-13.6-4.2-15.7-3.2-2.1 1-12.7 2.7-14.1 3.1-1.5.3-37 14.4-37 14.4zM74.9 6.397s24 8.6 30.1 11.6c11.2 5.3 15.1 11.7 16 12.3 1.6 1 12 9.4 12 9.4s8.5 9.8 9.3 10.6c.8.8 8.6 14.3 8.6 14.3l7.4 17.5s9.5 37.8 9.8 46.7c0 0-4.9-48.8-6.5-52.6-.8-1.9-4.8-10.5-8.3-16.7-1.8-3.2-1.9-7.8-4-9.3-2.8-2-5.2-4.7-6.9-7.7l-1.9-3.3s-13.2-9.7-15.4-11.6c-2.2-1.9-8.2-8.7-10.6-9.3-2.4-.6-12.6-6.2-14.1-6.9-1.5-.7-25.5-5-25.5-5zM37 80.897s12 2 18.5 2c11.1 0 19.4 3 20.4 2.8 1.8-.2 12.6 5.4 12.6 5.4s12.6 5.7 13.8 5.9c1.2.2 17.9 9.2 17.9 9.2l8.5 5.6s26.5 19.4 31.2 23.1c0 0-29.8-25.8-33.2-27.8-1.7-1-4.9-4.7-11.1-7.3-3.3-1.4-5.9-4-8.7-4.7-3.3-.7-8.5-5-11.6-6.3l-6.6-2.2s-8.2-3.5-11-3.6c-2.8-.2-7.5-2.1-9.9-2.1-4.2-.1-7.1-.6-8.6-.3-1.3.2-22.2.3-22.2.3zM186.1 118.397s10.8-15.2 13.5-21.4c5-11.3 12-16.3 12.6-17.2.9-1.6 13.5-15 13.5-15s9.5-8.7 10.4-9.6c.9-.9 11.7-11.3 11.7-11.3l16.4-11.5s22.6-8 31.5-8.4c0 0-23.7 1.5-27.4 3.2-1.8.8-19.5 10.9-25.7 14.5-2.7 1.7-5.1 3.9-6.8 6.6-2 2.9-4.5 5.3-7.6 7.1l-3.2 2s-7.7 10.4-9.6 12.7c-1.9 2.3-8.7 7.9-9.2 10.3-.5 2.4-8 13-8.6 14.4-.6 1.5-11.5 23.6-11.5 23.6z" transform="translate(-1202 -1051) translate(1202.1 1051)"/>
                <path fill="#000" d="M130.9 219.397c-3.9 9.1-7.8 18.1-11.6 27.2-2.4 5.9-4.7 11.9-8.9 16.7-1.1 1.2-3.8 10.5-5.2 11.4 0 0-2.8-8.5-3.5-10.1-.8-1.8-1.3-3.7-1.8-5.7-.9-4.7-1.9-9.5-2.4-14.3-1-9.3-1.6-18.6-2.4-27.8l.4-14.7c.3-.8.4-1.2.6-1.5 7.3-13.2 14.6-26.3 22.9-39 5.4-8.3 12.5-14.1 22.3-16.1 4-.8 4.4-.6 8.7-1.3l15.8-4.5-2.1 22.4c-1.3 5.6-5.2 4.4-6.2 9.9-1.2 3.3-2.6 6.5-4.2 9.6-4.9 8.6-5.1 10.5-10 19-.9 1.5-12.5 16.9-12.4 18.8" transform="translate(-1202 -1051) translate(1202.1 1051)"/>
                <path fill="#EBD078" d="M168.4 145.697s-17 11.9-21.5 15.4c-6 4.8-5.4 6.9-7.8 8.8-1.2 1-10.7 13-10.7 13s-6 9-6.6 9.8c-.6.8-7.9 11.1-7.9 11.1l-4.3 15.3s-3.9 24.9-3.1 32.3c0 0-.3-31.9.6-35.2 1.3-5.3 3-10.5 4.9-15.5 1.2-2.9 2.5-5.9 4.1-7.4 2.1-2 3.8-4.4 4.9-7.1l2.4-2.7s6.5-8 8.2-9.8c1.7-1.8 4.6-5.2 7-7.6 1.5-1.5 5.8-5.9 7-6.6 1.1-.6 22.8-13.8 22.8-13.8z" transform="translate(-1202 -1051) translate(1202.1 1051)"/>
                <path fill="#000" d="M156 144.597s-12.5-1.3-17.7-2c-5.5-.7-11-.5-16.4.7-1.5-.1-15.3 1.9-15.3 1.9s-9.6 2-10.5 2.1c-.9.2-12.2 2.3-12.2 2.3l-12.1 6.4s-17.4 12.1-21.2 16.6c0 0 18.9-19.5 21.5-20.9 1.3-.7 7.5-3.7 12.4-5.7 2.3-.9 4.7-1.3 7.1-1.3 2.6 0 5.3-.5 7.7-1.5l2.6-1s10-.5 12.3-.7c2.3-.2 11-3.4 12.8-2.9 1.8.5 10.9 1.3 12.1 1.5 1.2.2 16.9 4.5 16.9 4.5zM190.4 127.797s19.3-18.8 23.1-22.1c4-3.5 8.6-6.2 13.5-8.1 1.1-.8 13.2-6.5 13.2-6.5s8.7-3.4 9.5-3.8c.8-.3 10.9-4.6 10.9-4.6l13.1-1.2s20.2.5 25.7 2.2c0 0-25.4-5.6-28.2-5.4-1.4.1-8 1-12.9 2-2.3.5-4.4 1.4-6.4 2.7-2.1 1.4-4.5 2.3-7 2.8l-2.6.5s-8.3 4.9-10.2 5.9c-1.9 1-10.6 3-11.8 4.5-1.2 1.5-8 6.8-8.8 7.6-.8.8-21.1 23.5-21.1 23.5zM179.5 135.497s-2.2-26.8-2.3-31.8c-.1-5.3.7-10.5 2.4-15.5.1-1.4 3.4-14.3 3.4-14.3s2.9-8.9 3.1-9.7c.2-.8 3.4-11.3 3.4-11.3l7.4-10.8s13.3-15.2 18-18.4c0 0-20.4 15.9-22.1 18.2-.8 1.1-4.3 6.7-6.7 11.1-1.1 2.1-1.8 4.3-2 6.6-.3 2.5-1.1 4.9-2.2 7.2l-1.3 2.4s-1.5 9.4-1.9 11.6c-.4 2.1-5.1 11.5-4.8 13.3.3 1.8-.3 10.9-.2 12 .2 1.1 5.8 29.4 5.8 29.4z" transform="translate(-1202 -1051) translate(1202.1 1051)"/>
            </g>
        </g>
    </g>
</svg>
