<svg xmlns="http://www.w3.org/2000/svg" xmlns:xlink="http://www.w3.org/1999/xlink" width="93" height="78" viewBox="0 0 93 78">
    <defs>
        <path id="1afeavhrza" d="M0.617 0.917L91.331 0.917 91.331 77 0.617 77z"/>
    </defs>
    <g fill="none" fill-rule="evenodd">
        <g>
            <g>
                <g>
                    <g>
                        <g transform="translate(-239 -656) translate(0 -157) translate(77.073 660) translate(0 91.421) translate(162 62)">
                            <mask id="hblcxdi9lb" fill="#fff">
                                <use xlink:href="#1afeavhrza"/>
                            </mask>
                            <path fill="#000" d="M35.56 49.433l.003.024c.15 4.61.025.838-.003-.024m25.48 18.954l14.629-7.91s1.38-1.039 2.409-.693c1.03.343 3.447 1.038 3.96 1.38.518.341 2.065 1.546 2.585 1.546.513 0 1.032-.174 2.409.177 1.378.337 4.299-.35 4.299-.35s-.17-1.032-.687-.858c-.516.17-.688-.346-2.753-1.033-2.064-.688-4.307-2.24-4.822-2.753-.513-.52-7.06-2.24-7.06-2.24s-3.097.688-4.641 1.207c-1.55.513-4.995 1.546-5.856 2.067-.857.511-3.784 2.752-4.133 3.268-.34.515-1.89 2.237-1.89 2.237s-.344-1.896.172-2.237c.518-.346 4.132-3.445 4.994-3.789.857-.346 2.237-1.89 3.439-2.408 1.208-.52 1.724-3.099 4.65-2.927 2.925.172 5.334-.172 7.227.862 1.898 1.031 3.965 2.237 3.965 2.237l-1.38-3.786s-2.585-1.208-3.788-1.208c-1.203 0-5.51-1.375-6.888-1.2-1.375.168-4.988-.175-5.85.858-.865 1.034-4.474 2.583-5.338 3.617-.86 1.026-2.235 2.065-2.235 2.065l6.54-6.372s2.753-3.96 3.786-4.819c1.035-.857 3.097-5.507 3.097-5.507s1.208-4.13 1.552-4.65c.347-.514 1.547-6.02 1.547-6.02l.175-5.682s-6.54 23.926-20.828 30.295c0 0 16.007-11.879 12.047-31.842 0 0-6.541 23.75-13.424 26.85 0 0 5.683-27.714.345-38.39 0 0-4.131 30.472-7.922 40.11 0 0 2.413-38.558-7.23-49.572 0 0 4.133 43.551 4.133 47.337 0 0-2.068-28.407-19.622-40.453 0 0 13.766 26.166 13.599 30.121 0 0-8.782-15.834-18.94-17.385 0 0 16.727 21.98 18.155 28.254.038.165.048.301.062.444-.245-.26-17.937-18.863-27.335-15.958 0 0 23.928 12.738 24.27 20.484 0 0-15.662-7.577-31.847-.344 0 0 29.952-.687 33.396 11.361 0 0-17.211 7.915-25.474-.688 0 0 8.604 10.325 25.474 6.192L61.04 77s12.048-11.014 29.088-6.37l.516-1.035S70.16 65.121 61.04 68.387" mask="url(#hblcxdi9lb)"/>
                        </g>
                    </g>
                </g>
            </g>
        </g>
    </g>
</svg>
