<svg xmlns="http://www.w3.org/2000/svg" width="173" height="44" viewBox="0 0 173 44">
    <g fill="none" fill-rule="evenodd">
        <g fill="#FFF">
            <g>
                <g>
                    <path d="M129.981 10.978c10.414 0 18.344 6.054 18.344 16.527 0 10.413-7.93 16.468-18.344 16.468-10.413 0-18.343-6.055-18.343-16.468 0-10.473 7.93-16.527 18.343-16.527zM16.479 0l7.637 23.076L31.72 0h16.494v43.268H37.41V18.923l-8.548 24.345h-9.526l-8.431-24.345v24.345H-.002V0h16.48zm46.506 11.704v31.542H52.087V11.704h10.898zm23.227-.726c1.271 0 2.833.206 3.923.388l-1.238 9.069c-1.211-.364-1.959-.376-3.23-.376-5.086 0-7.931 3.693-7.931 9.869v13.318H66.839V11.704h9.929v5.812h.121c1.877-3.995 4.601-6.538 9.323-6.538zm24.155 0c1.272 0 2.603.18 3.693.363l-1.285 9.097c-1.253-.338-1.969-.392-3.24-.401-4.77-.032-7.644 3.715-7.644 9.89v13.319H90.994V11.704h9.929v5.812h.121c1.877-3.995 4.6-6.538 9.323-6.538zm58.659 0c1.272 0 2.604.18 3.693.363l-1.244 9.094c-1.21-.364-1.722-.376-2.995-.376-5.084 0-7.946 3.687-7.946 9.862l.017 13.325h-10.898V11.704h9.928v5.812h.122c1.876-3.995 4.601-6.538 9.323-6.538zm-39.045 7.628c-5.023 0-7.083 4.178-7.083 8.899 0 4.662 2.06 8.839 7.083 8.839 5.025 0 7.083-4.177 7.083-8.84 0-4.72-2.058-8.898-7.083-8.898zM62.893.005v8.598H52.087V.005h10.806z" transform="translate(-234 -5194) translate(0 4945) translate(234 249.001)"/>
                </g>
            </g>
        </g>
    </g>
</svg>
