<svg xmlns="http://www.w3.org/2000/svg" xmlns:xlink="http://www.w3.org/1999/xlink" width="175" height="134" viewBox="0 0 175 134">
    <defs>
        <path id="18p06x6cwa" d="M0 0.249L104.571 0.249 104.571 132.444 0 132.444z"/>
    </defs>
    <g fill="none" fill-rule="evenodd">
        <g>
            <g>
                <g>
                    <g>
                        <path fill="#000" d="M171.47 108.67c.026-.356.054-.67.08-1.042.122-1.637.227-3.032.327-3.886 2.46-21.016 1.345-38.815-3.413-54.413v-.003c-.991-3.23-2.14-6.568-3.407-9.924-.798-2.117-1.564-3.954-2.343-5.622-.393-.847-1.512-2.511-2.995-2.956-2.546-1.076-13.028-2.677-29.071-.782-12.57 1.09-20.734 3.283-24.22 4.217l-.92.247c-1.227.244-2.876 1.298-3.504 2.643-2.462 5.253-3.606 11.236-4.571 16.924-1.067 6.618-1.612 13.383-1.626 20.098-.102 13.308 3.326 25.898 6.615 35.806l.977 2.927.468 1.396c3.914 11.693 4.404 12.223 5.653 12.409.972.15 2.184.138 3.353.124.582-.006 1.137-.012 1.594.007l1.542.063c7.644.315 15.519.64 23.293.003.854-.07 1.705-.151 2.556-.245 5.846-.648 11.565-1.582 16.386-2.41 1.969-.336 3.936-.683 5.909-1.05.15-.026.448-.051.805-.086 2.31-.222 3.382-.412 4.03-1.003 1.144-1.034 1.687-4.077 2.235-10.401l.247-3.041z" transform="translate(-77 -594) translate(0 -157) translate(77.073 660) translate(0 91.421)"/>
                        <path fill="#CCAF67" d="M144.77 119.583l-.356-7.832-.902 7.897c.419-.02.839-.041 1.258-.065M152.175 35.637l.041-.677c-.368.094-.742.168-1.113.249l3.322 8.842-2.25-8.414z" transform="translate(-77 -594) translate(0 -157) translate(77.073 660) translate(0 91.421)"/>
                        <path fill="#CCAF67" d="M164.953 51.786c-.474-1.786-1.07-3.483-2.008-4.502-.239-.26-.55-.416-.898-.478-2.134-.378-5.564-.226-7.637-.23-4.554-.012-9.437.415-13.972.827-.614-4.043-1.733-8.009-3.323-11.777l2.538 11.78c-10.399 1.013-20.76 2.436-31.048 4.264l1.703-10.525-1.314.401-1.949 10.436-6.112 1.284c-.239 1.543-.392 3.098-.554 4.651 5.554-1.174 21.31-4.343 36.115-5.815 12.441-1.236 24.257-2.159 28.46-.316M110.792 107.078l4.01 14.399c.984.08 1.968.16 2.952.242-1.78-4.86-3.563-9.72-5.344-14.58l-1.618-.061zM162.132 88.582l-3.451-26.722c-.178-.015-.371-.027-.558-.04l2.42 27.019s-4.756.656-7.915 1.088c-2.097.287-7.117.812-7.117.812l-2.701-29.06c-.298.01-.601.02-.902.032l2.203 29.11c-12.062 1.716-23.597 2.283-34.919 2.124-1.231-6.821-1.399-19.563-1.38-27.058l.004-.817c.013-3.092.056-5.112.056-5.112l-1.503.356c-.139 1.749-.234 3.427-.309 5.072-.017.345-.029.684-.042 1.025-.491 12.613.75 21.922 1.579 26.5-1.779-.036-3.568-.04-5.337-.112.198 1.36.472 2.678.721 4.007 7.158-.138 14.317-.191 21.469-.51 7.376-.327 14.651-1.334 21.978-2.201 6.062-.716 17.16-2.475 20.833-3.938-.11-.652-.242-1.453-.405-2.462l-4.724.887z" transform="translate(-77 -594) translate(0 -157) translate(77.073 660) translate(0 91.421)"/>
                        <path fill="#CCAF67" d="M126.127 37.06c-.324.063-.649.115-.975.164l-.482 5.498.672 2.967.785-8.628zM122.814 63.159L124.841 85.686 124.32 62.978 124.306 62.405 124.298 62.065 122.727 62.191 122.766 62.623zM127.58 106.524l-.466-2.155-.697.131.345 2.065.345 2.075 2.041 12.24c.28-.036 1.224-.068 1.5-.104l-2.62-12.167-.449-2.085z" transform="translate(-77 -594) translate(0 -157) translate(77.073 660) translate(0 91.421)"/>
                        <g transform="translate(-77 -594) translate(0 -157) translate(77.073 660) translate(0 91.421)">
                            <mask id="xtjvw6hlbb" fill="#fff">
                                <use xlink:href="#18p06x6cwa"/>
                            </mask>
                            <path fill="#000" d="M13.39 122.394c3.013 8.57 3.69 9.107 4.92 9.286 1.292.2 2.925.184 4.5.169.79-.01 1.543-.018 2.16.008l2.045.086c10.346.427 21.006.87 31.523.007 1.154-.095 2.306-.207 3.457-.332 7.94-.885 15.659-2.144 22.162-3.261 2.664-.455 5.326-.924 8.004-1.418.212-.042.63-.076 1.137-.124 3.038-.298 4.437-.538 5.262-1.287 1.26-1.154 1.394-3.296 1.442-5.973.006-.438.01-.814.065-1.423.239-2.714.468-5.278.86-7.886.24-1.57.456-3.086.67-4.602l.572-4.217c1.648-12.597 2.428-23.408 2.402-33.442-.046-12.591-2.277-25.886-6.812-40.654-1.314-4.293-2.867-8.806-4.607-13.412-1.071-2.836-2.106-5.32-3.161-7.594-.52-1.108-1.98-3.282-3.885-3.842-3.377-1.448-17.463-3.608-39.22-1.041-16.988 1.477-28.02 4.436-32.73 5.702l-1.26.336c-1.552.305-3.726 1.693-4.534 3.407-3.314 7.072-4.862 15.149-6.164 22.83C.756 42.674.018 51.815.003 60.872c-.15 19.396 5.26 37.724 9.992 51.527l.89 2.652c.482 1.436.91 2.708 1.319 3.905l1.187 3.439z" mask="url(#xtjvw6hlbb)"/>
                        </g>
                        <path fill="#CCAF67" d="M93.367 30.66c-.435-1.184-.946-2.385-1.613-3.924-.378-.869-.949-1.707-3.159-2.537-2.047-.177-4.287-.27-6.58-.308l-3.294-12.636 1.794 11.834-.16.786c-9.893-.05-20.187.841-20.187.841L57.034 8.477c-.33-.025-.646.152-.977.128l1.811 16.205s-13.914 1.557-20.803 2.568c-3.45.506-9.217 1.48-14.11 2.324-.487-3.636-.07-10.639.676-18.068-1.432.205-1.413.275-1.99.545-1.166 9.541-1.105 15.575-1.009 17.926-3.753.653-6.558 1.153-6.558 1.153l1.244-17.839c-.277.001-.995-.066-1.667.59-1.43 1.395-2.913 4.343-3.149 6.22l-1.5 11.925-3.186.721-.776 6.3c11.965-2.334 75.891-14.405 88.327-8.516M84.805 44.286c-.24-.019-.5-.036-.75-.053l2.363 36.826-19.423 2.315-4.35-39.308c-.57.019-1.15.043-1.725.065l3.579 39.372c-.018.269-10.69 1.023-11.751 1.124-4.188.4-8.371.882-12.568 1.19-4.994.366-10.082.621-15.153.689-2.227-9.349-3.04-30.65-3.261-38.144-.01-.304-.018-.582-.024-.838-.033-1.162-.047-1.839-.047-1.839l-1.725.476c-.024.565-.03 1.107-.05 1.665l-.027.949c-.495 18.01 2.01 31.936 3.299 37.754-2.382.007-4.756-.026-7.112-.134-2.261-6.131-3.503-24.321-4.07-35.443l-.087-1.804c-.207-4.318-.298-7.201-.298-7.201l-2.77.56c-.394 2.27-.61 4.807-.714 7.463-.033.839-.068 1.677-.077 2.539-.15 13.893 2.629 30.225 3.217 33.519l-2.838-.229c.255 1.843.557 3.791.9 5.781 7.169-.144 24.756-.508 28.805-.681 12.317-.528 27.178-2.203 35.64-3.644 3.799-.647 20.69-3.833 23.449-5.281-.052-1.078-.111-2.145-.175-3.158l-8.563 1.838-3.694-36.368z" transform="translate(-77 -594) translate(0 -157) translate(77.073 660) translate(0 91.421)"/>
                        <path fill="#CCAF67" d="M37.21 10.925c-.43.124-1.148.106-1.58.213l.315 11.988 1.296-.177-.032-12.024zM36.158 44.736l.058.645.06.665 2.742 30.49-.705-30.715.043-.025-.044.005-.028-1.236-2.126.171zM67.787 107.743c-.115-1.903-.233-3.702-.346-5.34-.31-4.53-.57-7.744-.57-7.744l-.205 7.838-.134 5.143-.489 18.807c.805-.093 1.61-.192 2.423-.298.036-5.09-.302-12.2-.679-18.406M89.215 120.338l-1.096-14.796-.29 15.73c.414-.252.888-.573 1.386-.934zM47.59 127.745l-4.277-20.184-.459-2.164-.757-3.574-.945.177.613 3.474.375 2.128 3.558 20.186c.088-.001.773-.012 1.891-.043M30.816 106.958l-.558-1.93c-1.338-4.645-2.355-8.293-2.688-9.654-1.047.06-1.68.522-1.68.522.245 2.378.885 5.53 1.747 9.034.116.475.232.945.356 1.432 1.687 6.59 4.07 14.226 6.187 20.51.865.11 1.757.212 2.677.31-1.985-6.414-4.235-13.99-6.041-20.224M20.7 105.514l-.283-.924c-1.727-5.635-2.796-9.661-2.796-9.661-.734-.032-3.36-.408-4.096-.405 0 0 .654 3.508 2.4 9.649.106.378.222.776.338 1.174 1.476 5.069 3.65 11.732 6.723 19.592 1.292.29 2.991.64 5.015 1-2.84-6.652-5.422-14.355-7.3-20.425" transform="translate(-77 -594) translate(0 -157) translate(77.073 660) translate(0 91.421)"/>
                    </g>
                </g>
            </g>
        </g>
    </g>
</svg>
