<svg xmlns="http://www.w3.org/2000/svg" width="334" height="451" viewBox="0 0 334 451">
    <g fill="none" fill-rule="evenodd">
        <g fill-rule="nonzero">
            <g>
                <path fill="#404040" d="M84.8 63.406c-18.9 1.4-28.6.1-52.8 22.2 0 0 56.5-7.4 117.9 36.3v-8.7l-13.2-21s-33-30.2-51.9-28.8z" transform="translate(70 -1134) translate(-70 1134.09)"/>
                <path fill="#000" d="M151.3 389.606l-.9-2.4s27.1 20.7 30.6 24.4c0 0-12.7-15.2-20.9-22.8-1-.9.8-.3-.1-1.1 0 0 13.5 9.2 21.8 17.8-2.6-3.4-5.6-7.3-8.4-10.4-1.4-1.6-2.8-2.8-.1-1.4 0 0 4.8 4 10 8.8l-.7-.8-6.1-7.6-8.8-7.9-5.3-7.2-5.1-8.6-3.2-8.7-2.3-6.4-.9-4.3-2-7.1-1.5-6-2.2-7.7 3.4 4 4.5 6.9s4.4 4.9 5.6 6.5c1.2 1.5 5.8 5.1 7.8 7 2 1.9 4.4 3 7 4.7 2.6 1.7 7.6 6.4 10.6 9.2 3 2.8 0 0 2.6 1.7s6.8 11.3 7.6 13.6c.8 2.3 5.1 8.6 5.1 8.6l7.7 10.9-.6 14-11 4-1.5-3.3-16.5 8.2s-22.2-23.2-35.3-32.7c0 0 27.8 14.5 33.1 19.7 0-.2-23.4-21.9-24-23.6z" transform="translate(70 -1134) translate(-70 1134.09)"/>
                <path fill="#EBD078" d="M191.1 405.906c-.7-1.6-4.1-11-4.8-12.5-.8-1.8-1.9-3.5-3.2-5-.6-.5-1.4-1.2-2.3-1.8-.9-.7-1.9-1.4-2.9-2.1-.5-.4-1-.8-1.5-1.3l-1.3-1.2c-.9-.8-1.6-1.4-2.5-2.1-.9-.7-1.8-1.5-2.8-2.4l-.7-.7-.6-.6c-.4-.4-.8-1-1.2-1.5-1.4-1.9-2.4-3.8-3.5-5.3l-.1-.2v-.1l-.1-.2-.2-.3c-.2-.3-.4-.7-.5-1-.2-.5-.4-1.1-.5-1.6-.1-.8-.3-1.6-.6-2.3-.7-1.4-1.6-2.8-2.3-4.1-.6-1.1-1.2-2.3-1.7-3.5-.3-.8-.5-1.6-.7-2.4l-.1-.8.4.7c.4.7.8 1.4 1.3 2 .6.8 1.4 1.7 2.4 2.7 1.2 1.2 2.3 2.4 3.3 3.7 1.3 1.9 1.6 3.9 2.5 4.7 1.5 1.6 2.9 3.3 4.2 4.9l1 1.1.6.6.5.5c.7.6 1.6 1.3 2.5 2 .9.7 2.1 1.6 2.9 2.3l1.3 1.2c.3.3.8.7 1.2 1 .9.7 1.8 1.3 2.8 2.1 1.1.8 2.1 1.7 3 2.7 1.6 1.9 2.9 4.2 3.7 6.6.5 1.3 4.8 12.8 5.2 13.9-1 .7-3.5-.6-4.7.3z" transform="translate(70 -1134) translate(-70 1134.09)"/>
                <path fill="#000" d="M191.1 405.906l.6-.3c-.2-.3-.5-1.2-.9-2.4-.6-1.7-1.5-3.9-2.2-5.9-.4-1-.7-1.9-1-2.6-.3-.7-.5-1.3-.6-1.6l-.6.3.6-.3c-.8-1.9-2-3.7-3.4-5.2-.6-.5-1.4-1.2-2.4-1.9-.9-.7-1.9-1.4-2.9-2.1l-1.5-1.2-1.3-1.2-.5.5.5-.5c-.9-.9-1.7-1.4-2.5-2.2-.9-.8-1.8-1.5-2.7-2.4l-.7-.7-.5.5.5-.4-.6-.6c-.4-.4-.8-1-1.1-1.4-1.4-1.9-2.4-3.7-3.5-5.3l-.5.4.5-.4-.1-.2-.5.4h.7V368.906l-.2-.3-.2-.3-.6.3.6-.3c-.2-.3-.3-.6-.5-.9l-.6.3.6-.2c-.2-.5-.3-1-.5-1.5l-.7.2.7-.1c-.1-.8-.4-1.7-.7-2.4-.7-1.4-1.6-2.9-2.3-4.1-.6-1.1-1.2-2.2-1.6-3.4-.3-.7-.5-1.5-.6-2.2l-.1-.8-.7.1-.6.3.4.7.6-.3-.6.3c.4.7.9 1.4 1.4 2.1.6.8 1.5 1.7 2.5 2.8 1.2 1.1 2.3 2.4 3.3 3.7l.5-.4-.6.4c.6.9 1 1.8 1.3 2.7l.6 1.2c.2.4.4.7.8 1l.4-.5-.5.5c1.5 1.5 2.8 3.3 4.2 4.8l1 1.1.6.6.6.5.4-.5-.4.5c.8.6 1.7 1.3 2.6 2 .9.7 2.1 1.6 2.8 2.3l1.3 1.2.4-.5-.5.5c.4.4.8.7 1.2 1 .9.7 1.8 1.4 2.8 2.1 1 .8 2 1.7 2.9 2.6l.5-.5-.5.4c1.6 1.9 2.8 4 3.6 6.4.2.7 1.4 3.8 2.6 7 .6 1.6 1.2 3.2 1.7 4.4.5 1.2.8 2.2.9 2.4l.6-.2-.4-.5c-.1.1-.4.2-.8.2-.7 0-1.6-.2-2.5-.2-.5 0-1.1.1-1.6.5h.5l.6-.3-.6.3.4.5c.2-.1.4-.2.8-.2.7 0 1.6.2 2.5.2.5 0 1.1-.1 1.6-.4l.4-.3-.1-.5c-.1-.3-.4-1.3-.9-2.5-1.4-3.8-3.9-10.5-4.3-11.4l-.6.2.6-.2c-.8-2.5-2.1-4.8-3.8-6.8-.9-1-2-1.9-3.1-2.8-1-.8-1.9-1.4-2.7-2.1l-.4.5.4-.5c-.4-.3-.8-.7-1.1-1l-1.3-1.2-.4.5.5-.5c-.8-.8-2.1-1.7-2.9-2.4-.9-.7-1.8-1.4-2.5-2l-.5-.4-.6-.6-1-1.1-.5.5.5-.4c-1.3-1.5-2.7-3.3-4.2-4.9-.1-.1-.3-.3-.4-.6-.5-.8-.9-2.4-2-3.9-1-1.3-2.2-2.6-3.4-3.8l-.5.5.5-.5c-1-1-1.8-1.9-2.4-2.7-.5-.6-.9-1.2-1.3-1.9l-.4-.8-1.2.5.1.8c.1.9.4 1.7.7 2.5.5 1.2 1.1 2.4 1.7 3.6l.6-.3-.6.3c.7 1.3 1.6 2.7 2.3 4.1l.6-.3-.6.2c.3.7.5 1.5.6 2.2.1.6.3 1.1.5 1.7.2.3.3.7.5 1.1l.2.3.1.2.6-.4h-.7V369.206l.2.3c1.1 1.5 2.1 3.3 3.5 5.3.4.5.8 1.1 1.2 1.5l.6.6.7.7c1 1 2 1.7 2.8 2.4.9.8 1.6 1.3 2.5 2.1l1.3 1.2c.5.5 1 .9 1.6 1.3 1 .8 2 1.5 2.9 2.2.9.7 1.7 1.3 2.3 1.8l.4-.5-.5.5c1.3 1.4 2.4 3 3.1 4.8.2.3.5 1.2.9 2.4.6 1.7 1.5 3.9 2.2 5.9.4 1 .7 1.9 1 2.6.3.7.5 1.3.7 1.6l.3.8.7-.5-.7-.3z" transform="translate(70 -1134) translate(-70 1134.09)"/>
                <path fill="#404040" d="M261.5 403.506v1c-2.5.5-5 1-7.6 1.4l-3.9-11.2s-1.9-6.3-1.1-9.8c.8-3.5-1.9-6.3-1.8-9.8l.3-10.5c.1-2.8.2-6.9 1.7-9.7l.2-4.9 1.7-10.4 1.1 7.7 1.9 6.3 3.3 6.4s4.6 8.5 8 11.4c3.4 2.9-1.8 11.1-1.8 11.1s-2.6 18.9-2 21zm69.8-38.9l2.2-10.7-1.7-8.7s-1.8 5.8-3.1 9.2c-1.3 3.4-9.5 10.6-14 13.5-4.6 2.9-14.4 9.5-14.4 9.5l-9.3 3.3-6.6 6.3-5.2 11.6c2.4-.8 4.9-1.5 7.5-1.9 8.6-1.5 9.9 5.9 18.2 3.2 4.4-1.4 5.6-2.8 9.1-3.7 2.4-3.1 13.6-20.7 13.6-20.7l3.7-10.9z" transform="translate(70 -1134) translate(-70 1134.09)"/>
                <path fill="#000" d="M253.1 386.606c1.1 3.6 3.2 7.7 3.6 11.4-1-12.7-3.6-25.2-4.7-38.1 2.8 13 5.5 25.7 7.1 38.8 1.4-7-1.2-16.1-1.9-23.3 3.7 11.8 3.8 25.7 4.7 38.2l-3.3-1.6c-1.4-7.6-4.4-14.4-5.7-22-1-5.1-1.6-10.3-2.1-15.5 1.2 3.9 1.1 8.2 2.3 12.1zM310.6 377.706c-.2 3.4-3.8 4.4-5.9 6.3-2 1.8-3 4.2-5.1 5.8 5.1-3.1 11.1-5.9 15-10.3 3-3.5 5-7.1 8.4-10.3-4.1 6.8-8.1 14.1-14.4 19.6-4 3.5-9.1 4.9-14 6.3-2.8.8-11.3 6-11.6 1.4l-.4-.7c4.5-3.9 12.2-5.2 17.3-9 3.5-2.7 7.3-6 10.7-9.1z" transform="translate(70 -1134) translate(-70 1134.09)"/>
                <path fill="#000" d="M268.1 366.006c2.3-4.2 6.1-11.3 8.4-14.2 2.3-2.8 4.5-4.9 6-7.8 1.5-2.8 5.3-8.5 6.1-10.6.8-2.1 3.9-9.2 3.9-9.2l2.5-9.3 2.3-5.7.4 9.4.5 7.2.4 8.7.6 5.1-.2 7.9-.4 10.8-2.5 11.5-3.2 10-6.9 12-4 10.7-4.7 11.5-1.6 5.7-1 9.4-13.7-.4-1.5-21 .3-9.4s2.4-8.6 2.5-11.5c.2-2.9 3.5-16.5 5.8-20.8z" transform="translate(70 -1134) translate(-70 1134.09)"/>
                <path fill="#EBD078" d="M290.6 356.006c.9-3 1.4-6.1 1.5-9.3v-2.6-.9l-.1.9c-.1.6-.2 1.5-.5 2.5-.6 3-1.5 5.9-2.7 8.7-.3.8-.8 1.9-1.2 2.6-.5.8-1.1 1.6-1.7 2.4-1.6 1.7-3.1 3.5-4.5 5.4-1.3 2.2-2.3 4.6-3.1 7-.4 1.1-.8 2.2-1.3 3.3l-.9 1.6c-.4.6-.7 1.3-.9 1.9l-.7 1.8c-.2.6-.4 1-.7 1.7-.6 1.1-1.1 2.2-1.7 3.3-1.1 2.2-2.1 4.6-3 6.9-.8 2.2-1.3 4.5-1.6 6.9-.2 1-.3 2-.4 3 .9-.2 1.7-.5 2.5-.7.1-.6.2-1.2.4-1.8.5-2.2 1.2-4.3 2-6.4.8-2.1 2-4.2 3.1-6.5l1.8-3.4c.3-.5.6-1.2.8-1.9l.7-1.8c.2-.5.4-1 .7-1.5l.9-1.7c.6-1.2 1-2.5 1.5-3.7.7-2.3 1.5-4.5 2.6-6.6 1.1-1.9 2.6-3.6 4-5.4.7-.9 1.3-1.9 1.8-3 .1-.9.4-1.7.7-2.7z" transform="translate(70 -1134) translate(-70 1134.09)"/>
                <path fill="#000" d="M158.5 129.206h42.6c-33.5 209.9 88.7 306.6 88.7 306.6l-53.9 10.5c-102.8-113.3-87.7-267.5-82.8-315.1l5.4-2" transform="translate(70 -1134) translate(-70 1134.09)"/>
                <path fill="#EBD078" d="M261.2 446.506l-2.5-1.2 2.6-5.3 5.5 2.7-1.5 3.2 5.7-.9.1-.3.4.2 12.5-2.1.5-1.1c-.8-.7-2-1.8-3.6-3.4l-2.3 4.9-5.5-2.7 2.6-5.3 4.4 2.1c-2.3-2.3-5.3-5.4-8.7-9.2l-3.5-1.7.7-1.5c-1.1-1.3-2.2-2.6-3.3-4l-1.6 3.4-5.5-2.7 2.6-5.3 1.5.7c-2-2.5-4-5.2-6.1-8l-3.2-1.5.8-1.7c-1-1.4-2.1-2.9-3.1-4.4l-1.9 4.1-5.5-2.7 2.5-5.3 3.4 1.6c-1.8-2.6-3.6-5.4-5.4-8.3l-.2.5-5.5-2.7 1.9-4c-1.8-3-3.6-6-5.3-9.2l-1.8-.9.6-1.3-2.7-5.1-2.1 4.3-5.5-2.6 2.6-5.3 4.3 2.1c-1.8-3.5-3.6-7.1-5.4-10.8l-1.2 2.5-5.5-2.7 2.6-5.3 2.1 1c-1.3-2.8-2.5-5.6-3.7-8.5l-.6 1.3-5.5-2.7 2.6-5.3 1.1.5c-1-2.5-2-5-2.9-7.6l-.4.9-5.5-2.7 2.6-5.3 1 .5c-.9-2.6-1.8-5.2-2.7-7.9l-.6 1.3-5.5-2.7 2.5-5.3 1.8.9c-1-3.2-1.9-6.4-2.8-9.6l-1.2 2.6-5.5-2.7 2.5-5.3 3.2 1.6c-1.1-4.1-2.1-8.4-3.1-12.7l-2.4 5-5.5-2.7 2.6-5.3 5.3 2.6c-.4-1.9-.8-3.7-1.2-5.6l-2.1-1 1.4-2.8c-.6-2.9-1.1-5.9-1.6-8.9l-5-2.4 2.6-5.3 1.3.6-1.5-11.1-2.1 4.4-5.5-2.7 2.5-5.3 4.9 2.4c-.2-1.8-.4-3.5-.6-5.3l-2.4-1.2 1.9-4c-.3-3.1-.5-6.2-.7-9.3l-.9 1.8-5.5-2.7 2.6-5.3 3.6 1.8c-.1-1.7-.2-3.4-.2-5.1l-1.4-.7 1.3-2.7c-.1-3.5-.2-7-.2-10.6l-.9 1.9-5.5-2.7 2.6-5.3 3.9 1.9c0-1.7 0-3.3.1-5l-2-1 2.1-4.5c.1-4 .3-8 .6-12.1l-2.5 5.1-5.5-2.7 2.6-5.3 5.5 2.6c.1-1.6.2-3.3.3-4.9l-3.8-1.9 2.6-5.3 1.8.9c.1-1.6.3-3.1.4-4.7l-.3-.1.4-.8c.5-4.7 1.1-9.5 1.7-14.4l-1.8 3.8-5.5-2.7 2.6-5.3 5 2.4c.2-1.6.4-3.1.7-4.7l-3.7-1.8 2.6-5.3 2.1 1c.3-1.6.5-3.1.8-4.7l-1-.5 1.7-3.5c.3-1.8.7-3.7 1-5.5 0 0-2.4.3-6.1.8l1.7.8-2.6 5.3-5.5-2.7 1.3-2.7c-3.8.6-8.2 1.4-12.5 2.3l5.1 2.5-2.5 5.3-5.5-2.7 2.4-4.9c-2 .4-4 .9-6 1.4l-.7 1.4-1.5-.7c-6.9 2-12.3 4.5-12.7 7.5-.5 3.9-1 8.5-1.5 13.8l4.8 2.3-2.6 5.3-2.8-1.3c-.1 1.6-.3 3.2-.4 4.8l1.2.6-1.5 3c-.3 3.9-.5 8.1-.7 12.5l1.9-4 5.5 2.7-2.5 5.3-5-2.4c-.1 1.6-.1 3.3-.2 4.9l3.2 1.5-2.6 5.3-.8-.4c-.1 5.3-.2 10.8-.1 16.5l4.2 2-2.5 5.3-1.5-.7c.1 5.5.3 11.1.7 16.9l4.2 2-2.6 5.3-1.2-.6c.3 3.9.6 7.8 1 11.8l2.5-5.1 5.5 2.7-2.5 5.3-5.4-2.6c.2 1.8.3 3.5.5 5.3l2.9 1.4-2.2 4.6c.3 2.8.7 5.7 1.1 8.6l.8-1.7 5.5 2.7-2.6 5.3-3.1-1.5.9 5.4.3.1-.2.4c.7 4 1.4 8.1 2.2 12.1l3.3 1.6-2.1 4.3c.5 2.5 1.1 4.9 1.6 7.4l.1-.2 5.5 2.7-2.6 5.3-1.4-.7c.8 3.1 1.6 6.2 2.5 9.3l1.2-2.5 5.5 2.7-2.6 5.3-3-1.5c1.1 3.8 2.2 7.6 3.5 11.3l1.8-3.8 5.5 2.7-2.6 5.3-4-1.9c1.4 4.1 2.8 8.2 4.3 12.3l2-4.1 5.5 2.7-2.6 5.3-4.3-2.1c1.5 4 3.1 8 4.8 12l1.8-3.8 5.5 2.7-2.6 5.3-3.8-1.8c1.5 3.5 3.1 7.1 4.8 10.6l1.2-2.6 5.5 2.7-2.6 5.3-2-1c1.3 2.6 2.6 5.2 4 7.8l.4-.7 5.5 2.7-2.3 4.7c1.5 2.7 3 5.4 4.6 8l2.8 1.4-.9 1.8c1 1.6 1.9 3.2 3 4.7l2.2-4.5 5.5 2.7-2.6 5.3-4.2-2c2 3 4 6 6.1 9l.4-.8 5.6 2.6-1.9 3.9c3.4 4.6 7 9.1 10.7 13.6l.6-1.3 5.5 2.7-1.8 3.7c2.5 2.9 5.1 5.8 7.8 8.6l5.8-1 2.2-4.6 5.5 2.7-.3.7 8.2-1.1zm4.6-16l5.5 2.7-2.5 5.3-5.5-2.7 2.5-5.3zm-4.3-2l-2.6 5.3-5.5-2.7 2.6-5.3 5.5 2.7zm-10.7-16.9l5.5 2.7-2.5 5.4-5.6-2.7 2.6-5.4zm1 12.2l-2.6 5.3-5.5-2.7 2.6-5.3 5.5 2.7zm-5.3-14.2l-2.5 5.3-5.5-2.7 2.5-5.3 5.5 2.7zm-70.4-254.1l-2.6 5.3-5.5-2.7 2.6-5.3 5.5 2.7zm-3.6-6.7l2.6-5.3 5.5 2.7-2.6 5.3-5.5-2.7zm30.9 200.2l-5.5-2.7 2.6-5.3 5.5 2.7-2.6 5.3zm7.8 8.8l-2.6 5.3-5.5-2.7 2.6-5.3 5.5 2.7zm-13-22.9l-5.5-2.7 2.6-5.3 5.5 2.7-2.6 5.3zm-5.2-14.1l-5.5-2.7 2.6-5.3 5.5 2.7-2.6 5.3zm-5.3-14.2l-5.5-2.7 2.6-5.3 5.5 2.7-2.6 5.3zm-5.3-14.1l-5.5-2.7 2.6-5.3 5.5 2.7-2.6 5.3zm-10.7-16.8l2.5-5.3 5.5 2.7-2.6 5.3-5.4-2.7zm9.8 4.7l2.6-5.3 5.5 2.7-2.6 5.3-5.5-2.7zm.2-11.4l-5.5-2.7 2.6-5.3 5.5 2.7-2.6 5.3zm-5.2-14.1l-5.5-2.7 2.6-5.3 5.5 2.7-2.6 5.3zm-1-12.1l2.6-5.3 5.5 2.7-2.6 5.3-5.5-2.7zm.3-11.4l-5.5-2.7 2.6-5.3 5.5 2.7-2.6 5.3zm-10.8-16.8l2.6-5.3 5.5 2.7-2.6 5.3-5.5-2.7zm9.8 4.7l2.6-5.3 5.5 2.7-2.6 5.3-5.5-2.7zm.2-11.5l-5.5-2.7 2.6-5.3 5.5 2.7-2.6 5.3zm-1-12l2.6-5.3 5.5 2.7-2.6 5.3-5.5-2.7zm.3-11.5l-5.5-2.7 2.6-5.3 5.5 2.7-2.6 5.3zm-1-12.1l2.6-5.3 5.5 2.7-2.6 5.4-5.5-2.8zm-5-25.5l-5.5-2.7 2.5-5.3 5.5 2.7-2.5 5.3zm-2 4.1l-2.5 5.3-5.5-2.7 2.5-5.3 5.5 2.7zm-.2 11.4l5.5 2.7-2.6 5.3-5.5-2.7 2.6-5.3zm1 12.1l-2.6 5.3-5.5-2.7 2.6-5.3 5.5 2.7zm-.3 11.4l5.5 2.7-2.6 5.3-5.5-2.7 2.6-5.3zm1 12.1l-2.6 5.3-5.5-2.7 2.6-5.3 5.5 2.7zm-4.5 9.3l-2.6 5.3-5.5-2.7 2.6-5.3 5.5 2.7zm-.3 11.5l5.5 2.7-2.6 5.3-5.5-2.7 2.6-5.3zm5.3 14.2l5.5 2.7-2.5 5.3-5.5-2.7 2.5-5.3zm1 12l-2.5 5.3-5.5-2.7 2.6-5.3 5.4 2.7zm-.2 11.5l5.5 2.7-2.6 5.3-5.5-2.7 2.6-5.3zm1 12l-2.6 5.3-5.5-2.7 2.6-5.3 5.5 2.7zm-.4 11.5l5.5 2.7-2.6 5.3-5.5-2.7 2.6-5.3zm5.3 14.2l5.5 2.7-2.5 5.3-5.5-2.7 2.5-5.3zm5.2 14l5.5 2.7-2.6 5.3-5.5-2.7 2.6-5.3zm5.3 14.2l5.5 2.7-2.6 5.3-5.5-2.7 2.6-5.3zm5.2 14l5.5 2.7-2.6 5.3-5.5-2.7 2.6-5.3zm5.2 14.2l5.5 2.7-2.6 5.3-5.5-2.7 2.6-5.3zm5.4 14.1l5.5 2.7-2.6 5.3-5.5-2.7 2.6-5.3zm5.2 14.1l5.5 2.7-2.5 5.3-5.6-2.7 2.6-5.3zm2-4l2.6-5.3 5.5 2.7-2.6 5.3-5.5-2.7zm7.7 8.8l5.5 2.7-2.6 5.3-5.5-2.7 2.6-5.3zm5.3 14.1l5.5 2.7-2.6 5.3-5.5-2.7 2.6-5.3zm2-4.1l2.6-5.3 5.5 2.7-2.6 5.3-5.5-2.7zm3.2 18.2l5.5 2.7-2.6 5.3-5.5-2.7 2.6-5.3zm2-4.1l2.6-5.3 5.5 2.7-2.6 5.3-5.5-2.7zm7.8 8.8l5.5 2.7-2.6 5.3-5.5-2.7 2.6-5.3zm4.8-20.8l-2.6 5.3-5.5-2.7 2.6-5.3 5.5 2.7zm-10.8-16.8l5.5 2.7-2.6 5.3-5.5-2.7 2.6-5.3zm-4.2-2.1l-2.6 5.3-5.5-2.7 2.6-5.3 5.5 2.7zm-5.2-14.1l-2.6 5.3-5.5-2.7 2.6-5.3 5.5 2.7zm-5.3-14.1l-2.6 5.3-5.5-2.7 2.6-5.3 5.5 2.7zm-5.3-14.1l-2.5 5.3-5.6-2.7 2.6-5.3 5.5 2.7zm-5.2-14.1l-2.6 5.3-5.5-2.7 2.5-5.3 5.6 2.7zm-5.2-14.2l-2.6 5.3-5.5-2.7 2.6-5.3 5.5 2.7zm-5.3-14l-2.6 5.3-5.5-2.7 2.6-5.3 5.5 2.7zm-.7-23.6l-2.6 5.3-5.5-2.7 2.6-5.3 5.5 2.7zm-5.3-14.1l-2.6 5.3-5.5-2.7 2.6-5.3 5.5 2.7zm-.7-23.5l-2.6 5.3-5.5-2.7 2.6-5.3 5.5 2.7zm-.7-23.6l-2.6 5.3-5.5-2.7 2.6-5.3 5.5 2.7zm-.8-23.5l-2.6 5.3-5.5-2.7 2.6-5.3 5.5 2.7zm-3.3-18.2l-5.5-2.7 2.6-5.3 5.5 2.7-2.6 5.3zm7.1-14.6l-2.6 5.3-5.5-2.7 2.6-5.3 5.5 2.7zm-6.2-26.2l5.5 2.7-2.6 5.3-5.5-2.7 2.6-5.3zm-4.6 9.4l5.5 2.7-2.6 5.3-5.5-2.7 2.6-5.3zm-9.7-4.8l5.5 2.7-2.6 5.3-5.5-2.7 2.6-5.3zm-9.8-4.8l5.5 2.7-2.6 5.3-5.5-2.7 2.6-5.3zm-7.1 14.7l2.6-5.3 5.5 2.7-2.6 5.3-5.5-2.7zm.7 23.6l2.6-5.3 5.5 2.7-2.5 5.3-5.6-2.7zm3.3 18.2l5.5 2.7-2.5 5.3-5.5-2.6 2.5-5.4zm-7.1 14.7l2.6-5.3 5.5 2.7-2.6 5.3-5.5-2.7zm.8 23.5l2.6-5.3 5.5 2.7-2.6 5.3-5.5-2.7zm5.2 14.1l2.6-5.3 5.5 2.7-2.6 5.3-5.5-2.7zm.8 23.6l2.6-5.3 5.5 2.7-2.5 5.3-5.6-2.7zm.8 23.5l2.5-5.3 5.5 2.7-2.6 5.3-5.4-2.7zm5.2 14.1l2.5-5.3 5.5 2.7-2.6 5.3-5.4-2.7zm5.2 14.1l2.6-5.3 5.5 2.7-2.5 5.3-5.6-2.7zm5.3 14.1l2.6-5.3 5.5 2.7-2.6 5.3-5.5-2.7zm5.2 14.1l2.6-5.3 5.5 2.7-2.6 5.3-5.5-2.7zm5.2 14.2l2.5-5.3 5.5 2.7-2.6 5.3-5.4-2.7zm5.3 14.1l2.6-5.3 5.5 2.7-2.6 5.3-5.5-2.7zm5.2 14.2l2.6-5.3 5.5 2.7-2.6 5.3-5.5-2.7zm10.8 16.7l-5.5-2.7 2.6-5.3 5.5 2.7-2.6 5.3zm4.3 2.1l2.6-5.3 5.5 2.7-2.6 5.3-5.5-2.7zm5.2 14.1l2.6-5.3 5.5 2.7-2.6 5.3-5.5-2.7zm10.8 16.8l-5.5-2.7 2.6-5.3 5.5 2.7-2.6 5.3zm4.2 2.1l2.5-5.3 5.5 2.7-2.6 5.3-5.4-2.7zm10.8 16.8l-5.5-2.7 2.6-5.3 5.5 2.7-2.6 5.3zm4.5-9.4l-5.5-2.7 2.5-5.3 5.5 2.7-2.5 5.3zm4.3 2l2.6-5.3 5.5 2.7-2.6 5.3-5.5-2.7z" transform="translate(70 -1134) translate(-70 1134.09)"/>
                <path fill="#404040" d="M159.5 35.206c-13.7-13.1-12.3-18-44.9-21.2 0 0 36.4 33.8 45 108.7l6.4-5.9 12-27.5c.1.1-4.8-41-18.5-54.1zM263.8 127.306c17 11.6 26.3 13.8 35.5 53.6 0 0-43.7-36.7-130.7-32.7l5.6-9.1 26.1-12.9c-.1 0 45.1-11.5 63.5 1.1z" transform="translate(70 -1134) translate(-70 1134.09)"/>
                <path fill="#000" d="M187.4 145.206c.1-.1 22.6-20.1 22.8-20.3 5.5-6.5 12.5-10.9 19.8-14 .3-.1 8.3-5.9 12.2-7.6 7.3-3.1 7.4-.6 12.6-3.1l9.5-2.9c13-8.1 10.6-.2 24.4-6.8l7.1-3.5c6-4.5 22-10.8 24.9-9.9-2.8-2.5-5.9-4.6-9.2-6.4-16.6-9.2-37.9-13.5-55.7-8.3-12.5 3.7-26.6 6.8-37 14.6-13.5 10.2-23.4 20.9-34.1 34.2m9-4c-1.9-.8 2 .9 0 0 3.4-10.8 5.5-25.9 14.4-40.4 3.7-5.9 21-19 26.8-30.1 5.8-11.1 49.9-30.3 49.9-30.3-1.5-.9-3.1-1.6-4.8-2.2-5.2-1.3-10.4-2.4-15.7-3.3-8.2-1.4-16.4-1-24.5 0-10.2 1.3-20.1 4.4-29.2 9.1-6.7 3.5-12.8 7.8-17.4 13.9-5.3 7.1-9.4 15-12.3 23.3-6.6 18.4-10.3 30.2-12 49.5-.3 4-.6 7.9-1 12.1-2.8-5.9-4.6-4.3-7.5-9.9-4.4-8.7-8.8-17.4-13.4-26-6.7-12.3-14.5-24-23.3-34.9-8.1-9.9-17.8-17.6-30-21.8-10.6-3.6-50.3-3.4-64.4 7.7 3.6 1 21.2 7.9 24.5 9.5 6 3.1 11.9 6.7 17.4 10.6 8.9 8.2 6.3 6.7 15.2 14.9.4.4 6 4.7 7.3 5.8 0 0 25.4 19.1 34.8 29.5 4.4 4.8 12.5 18 17 24.3l-10.1 17.5c.8.1-26.4 16.2-25.7 16.2-8.7 5.6-14.1 7.9-19.1 18.5-6.2 13.2-11.7 26.6-16.6 40.2v.8c-.4 3.1 2.1 12.4 3.5 15.9 3.8 9.7 7.3 19.6 11.3 29.2 2 4.7 4.3 9.1 7.1 13.4 7 10.8 12.1 24.2 12.2-.5 0-5.8-1-9.9 3.1-14 5.5-5.4 1.1-10.7 1.5-19.2.3-3.9.8-7.8 1.6-11.7 3.2-8.2 19.2-27.6 22.4-35.8.7-1.7 6.1-14 6-16.7 7-5.9 13.9-16.7 13.9-16.7l2.3-2 9.2-6.2c.1 0 7.6 7.4 7.7 7.1.1.4 1.3 1.6 1.4 1.8l17.9 13.5c-.9-2.2-1.8-4.4-2.8-7 3.8 1.6 8 3 11.8 4.6-.3-3.3-.3-6.6.1-9.9 1.9 4.2 5.7 7.5 7.7 11.7l.3-.1" transform="translate(70 -1134) translate(-70 1134.09)"/>
                <path fill="#EBD078" d="M161.3 133.406s-24.8 15.5-29.5 19.8c-8.5 7.9-10.8 15.7-11.4 16.5-1.2 1.3-9.1 16.6-9.1 16.6s-4.8 11.2-5.3 12.2-6.4 13.9-6.4 13.9l-1.6 17.8s.9 28.3 3.2 36.4c0 0-8.2-36.9-7.9-40.7.1-1.9 1.4-10.8 2.7-17.3.6-2.9 1.9-5.7 3.8-8.1 2-2.6 3.3-5.7 4-8.9l.7-3.5s6.9-10.1 8.3-12.5c1.5-2.4 4.2-13.9 6.2-15.1 2-1.3 9.6-9.2 10.7-10.2 1.2-1.1 31.6-16.9 31.6-16.9z" transform="translate(70 -1134) translate(-70 1134.09)"/>
                <path fill="#000" d="M42.5 106.606c-22.4 17.9-25.9 4.2-42.5 73.5 0 0 55.1-64.9 157.8-44.6l-5.3-12.4-28.9-18.7c0-.1-58.7-15.7-81.1 2.2z" transform="translate(70 -1134) translate(-70 1134.09)"/>
                <path fill="#EBD078" d="M153.5 127.006s-30.2-9.1-36-10.5c-10.5-2.4-17.6-.1-18.5-.2-1.6-.2-17.4 1.6-17.4 1.6s-11 2.1-12.1 2.2c-1.1.1-14 2.3-14 2.3l-14.5 8s-21.2 15.3-26.2 21.3c0 0 24-25.3 27.1-27.1 1.5-.9 8.9-4.5 14.7-6.9 2.6-1 5.4-1.5 8.2-1.3 3 .1 6.1-.4 8.9-1.5l3.1-1.2s11.3 0 13.9-.1c2.6-.1 12.8-3.9 14.8-3 2 .9 12 2.6 13.3 2.9 1.2.2 34.7 13.5 34.7 13.5zM263 6.106s-22.6 8.1-28.4 10.9c-10.5 5-14.2 11-15.1 11.6-1.5.9-11.3 8.9-11.3 8.9s-8 9.2-8.8 10c-.8.8-8.1 13.5-8.1 13.5l-6.9 16.5s-9 35.6-9.2 44c0 0 4.6-45.9 6.1-49.5.7-1.8 4.6-9.9 7.8-15.7 1.7-3.1 1.8-7.4 3.8-8.8 2.7-1.9 4.9-4.4 6.5-7.3l1.8-3.1s12.4-9.1 14.5-11c2.1-1.9 7.7-8.2 10-8.8 2.3-.6 11.9-5.9 13.3-6.5 1.4-.6 24-4.7 24-4.7zM298.6 76.206s-11.3 1.9-17.4 1.9c-10.5 0-18.2 2.8-19.2 2.7-1.7-.2-11.9 5-11.9 5s-11.9 5.4-13 5.5c-1.1.2-16.8 8.7-16.8 8.7l-8 5.2s-25 18.2-29.4 21.7c0 0 28.1-24.3 31.3-26.1 1.6-.9 4.6-4.4 10.4-6.9 3.1-1.3 5.5-3.8 8.2-4.4 3.1-.7 8-4.7 10.9-5.9l6.2-2.1s7.7-3.3 10.3-3.4c2.6-.1 7-2 9.3-2 3.9-.1 6.7-.6 8.1-.3 1.4.3 21 .4 21 .4zM158.3 111.406s-10.2-14.3-12.8-20.1c-4.7-10.6-11.3-15.3-11.8-16.2-.9-1.5-12.6-14.1-12.6-14.1s-9-8.2-9.8-9c-.8-.8-11-10.6-11-10.6l-15.5-10.9s-21.3-7.5-29.7-7.9c0 0 22.3 1.4 25.8 3 1.8.8 18.4 10.3 24.1 13.7 2.6 1.6 4.8 3.7 6.4 6.2 1.9 2.7 4.3 5 7.1 6.7l3 1.9s7.3 9.8 9 12c1.7 2.2 8.1 7.4 8.7 9.7.6 2.3 7.7 12.2 8.2 13.6.5 1.4 10.9 22 10.9 22z" transform="translate(70 -1134) translate(-70 1134.09)"/>
                <path fill="#000" d="M210.3 206.506c3.6 8.5 7.3 17 10.9 25.6 2.3 5.6 4.5 11.2 8.4 15.7 1 1.1 3.6 9.9 4.9 10.7 0 0 2.7-8 3.3-9.5.7-1.7 1.3-3.5 1.6-5.3.9-4.5 1.8-9 2.2-13.5.9-8.7 1.5-17.5 2.3-26.2l-.4-13.8c-.3-.7-.4-1.1-.6-1.4-6.9-12.4-13.8-24.8-21.5-36.6-5.1-7.8-11.7-13.3-21-15.2-3.7-.8-4.2-.6-8.1-1.3l-14.9-4.2 2 21c1.2 5.3 4.9 4.1 5.9 9.3 1.2 3.1 2.5 6.1 4 9 4.6 8.1 4.8 9.9 9.4 17.9.8 1.5 11.7 15.9 11.6 17.8" transform="translate(70 -1134) translate(-70 1134.09)"/>
                <path fill="#EBD078" d="M175 137.206s16 11.2 20.2 14.5c5.7 4.6 5.1 6.5 7.4 8.3 1.1.9 10.1 12.2 10.1 12.2s5.7 8.4 6.2 9.2c.6.8 7.4 10.5 7.4 10.5l4.1 14.4s3.6 23.4 2.9 30.4c0 0 .3-30-.6-33.1-1.3-5-2.8-9.8-4.6-14.6-1.1-2.7-2.4-5.6-3.9-6.9-2-1.9-3.6-4.2-4.6-6.7l-2.2-2.5s-6.1-7.5-7.7-9.2c-1.6-1.7-4.4-4.9-6.6-7.2-1.4-1.4-5.5-5.6-6.6-6.2-1.1-.7-21.5-13.1-21.5-13.1z" transform="translate(70 -1134) translate(-70 1134.09)"/>
                <path fill="#000" d="M186.6 136.106s11.8-1.2 16.7-1.9c5.2-.7 10.4-.5 15.5.6 1.4-.1 14.4 1.8 14.4 1.8s9 1.9 9.9 2c.9.1 11.4 2.1 11.4 2.1l11.4 6.1s16.3 11.3 20 15.6c0 0-17.8-18.3-20.3-19.7-1.2-.7-7.1-3.5-11.6-5.3-2.1-.8-4.4-1.2-6.7-1.2-2.5 0-5-.5-7.3-1.4l-2.4-1s-9.4-.4-11.6-.6c-2.1-.2-10.3-3.2-12.1-2.7-1.7.5-10.2 1.3-11.4 1.5-1.1.2-15.9 4.1-15.9 4.1zM154.3 120.306s-18.2-17.7-21.8-20.8c-3.8-3.3-8.1-5.8-12.7-7.6-1-.8-12.4-6.1-12.4-6.1s-8.2-3.2-9-3.6c-.8-.4-10.3-4.3-10.3-4.3l-12.3-1.1s-19 .5-24.2 2c0 0 23.9-5.3 26.5-5.1 1.3.1 7.5.9 12.1 1.8 2.1.5 4.2 1.3 6 2.5 2 1.3 4.2 2.2 6.6 2.7l2.5.5s7.8 4.6 9.6 5.6c1.8 1 10 2.9 11.1 4.2 1.1 1.3 7.5 6.4 8.3 7.1.8.7 20 22.2 20 22.2zM164.5 127.506s2-25.2 2.1-29.9c.1-5-.6-9.9-2.2-14.6-.1-1.3-3.2-13.5-3.2-13.5s-2.7-8.4-3-9.1c-.3-.7-3.2-10.6-3.2-10.6l-6.9-10.2s-12.5-14.3-16.9-17.3c0 0 19.2 15 20.8 17.1.8 1.1 4 6.4 6.3 10.5 1 1.9 1.6 4 1.9 6.2.3 2.4 1 4.6 2.1 6.7l1.2 2.2s1.4 8.9 1.8 10.9c.4 2 4.8 10.8 4.5 12.5-.3 1.7.2 10.2.2 11.3 0 1.1-5.5 27.8-5.5 27.8z" transform="translate(70 -1134) translate(-70 1134.09)"/>
            </g>
        </g>
    </g>
</svg>
