<svg xmlns="http://www.w3.org/2000/svg" width="29" height="27" viewBox="0 0 29 27">
    <g fill="none" fill-rule="evenodd">
        <g fill="#CEA55A">
            <g>
                <path d="M1.746 4.562h24.135c.964 0 1.745-.781 1.745-1.745V1.745C27.626.781 26.845 0 25.881 0H1.746C.781 0 0 .781 0 1.745v1.072c0 .964.781 1.745 1.746 1.745M1.746 14.84h24.135c.964 0 1.745-.782 1.745-1.746v-1.072c0-.964-.781-1.745-1.745-1.745H1.746c-.965 0-1.746.781-1.746 1.745v1.072c0 .964.781 1.745 1.746 1.745M1.746 25.116h24.135c.964 0 1.745-.78 1.745-1.745V22.3c0-.964-.781-1.745-1.745-1.745H1.746C.781 20.554 0 21.335 0 22.3v1.072c0 .964.781 1.745 1.746 1.745" transform="translate(-1282 -84) translate(1282.68 84.9)"/>
            </g>
        </g>
    </g>
</svg>
