<?xml version="1.0" encoding="utf-8"?>
<!-- Generator: Adobe Illustrator 23.0.1, SVG Export Plug-In . SVG Version: 6.00 Build 0)  -->
<svg version="1.1" id="Layer_1" xmlns="http://www.w3.org/2000/svg" xmlns:xlink="http://www.w3.org/1999/xlink" x="0px" y="0px"
	 viewBox="0 0 33 33" style="enable-background:new 0 0 33 33;" xml:space="preserve">
<style type="text/css">
	.st0{fill-rule:evenodd;clip-rule:evenodd;fill:#018101;}
</style>
<g>
	<g>
		<g>
			<path class="st0" d="M16.1,29.9c-7.6,0-13.9-6.2-13.9-13.9S8.4,2.2,16.1,2.2c7.6,0,13.9,6.2,13.9,13.9S23.7,29.9,16.1,29.9
				 M16.1,0C7.2,0,0,7.2,0,16.1s7.2,16.1,16.1,16.1c8.9,0,16.1-7.2,16.1-16.1S24.9,0,16.1,0 M20.9,12.1c0,0.5-0.4,0.9-0.9,0.9
				c-0.5,0-0.9-0.4-0.9-0.9c0-0.5,0.4-0.9,0.9-0.9C20.5,11.3,20.9,11.7,20.9,12.1 M16.1,18.5c-1.4,0-2.5-1.1-2.5-2.5
				s1.1-2.5,2.5-2.5c1.4,0,2.5,1.1,2.5,2.5S17.4,18.5,16.1,18.5 M16.1,12.3c-2.1,0-3.8,1.7-3.8,3.8s1.7,3.8,3.8,3.8
				c2.1,0,3.8-1.7,3.8-3.8S18.2,12.3,16.1,12.3 M22.1,19c0,0.7-0.2,1.1-0.3,1.4c-0.1,0.3-0.3,0.6-0.6,0.8c-0.3,0.3-0.5,0.4-0.8,0.6
				c-0.3,0.1-0.6,0.2-1.4,0.3c-0.8,0-1,0-3,0c-2,0-2.2,0-3,0c-0.7,0-1.1-0.2-1.4-0.3c-0.3-0.1-0.6-0.3-0.8-0.6
				c-0.3-0.3-0.4-0.5-0.6-0.8c-0.1-0.3-0.2-0.7-0.3-1.4c0-0.8,0-1,0-3s0-2.2,0-3c0-0.7,0.2-1.1,0.3-1.4c0.1-0.3,0.3-0.6,0.6-0.8
				c0.3-0.3,0.5-0.4,0.8-0.6c0.3-0.1,0.7-0.2,1.4-0.3c0.8,0,1,0,3,0c2,0,2.2,0,3,0c0.7,0,1.1,0.2,1.4,0.3c0.3,0.1,0.6,0.3,0.8,0.6
				c0.3,0.3,0.4,0.5,0.6,0.8c0.1,0.3,0.2,0.7,0.3,1.4c0,0.8,0,1,0,3S22.1,18.3,22.1,19 M23,11.2c-0.2-0.5-0.4-0.9-0.8-1.3
				c-0.4-0.4-0.8-0.7-1.3-0.8c-0.5-0.2-1-0.3-1.8-0.3c-0.8,0-1,0-3,0s-2.3,0-3,0c-0.8,0-1.3,0.2-1.8,0.3c-0.5,0.2-0.9,0.4-1.3,0.8
				c-0.4,0.4-0.7,0.8-0.8,1.3c-0.2,0.5-0.3,1-0.3,1.8c0,0.8,0,1,0,3c0,2,0,2.3,0,3c0,0.8,0.2,1.3,0.3,1.8c0.2,0.5,0.4,0.9,0.8,1.3
				c0.4,0.4,0.8,0.7,1.3,0.9c0.5,0.2,1,0.3,1.8,0.3c0.8,0,1,0,3,0s2.3,0,3,0c0.8,0,1.3-0.2,1.8-0.3c0.5-0.2,0.9-0.4,1.3-0.9
				c0.4-0.4,0.7-0.8,0.8-1.3c0.2-0.5,0.3-1,0.3-1.8c0-0.8,0-1,0-3c0-2,0-2.3,0-3C23.4,12.3,23.2,11.7,23,11.2"/>
		</g>
	</g>
</g>
</svg>
