<?xml version="1.0" encoding="utf-8"?>
<!-- Generator: Adobe Illustrator 23.0.1, SVG Export Plug-In . SVG Version: 6.00 Build 0)  -->
<svg version="1.1" id="Layer_1" xmlns="http://www.w3.org/2000/svg" xmlns:xlink="http://www.w3.org/1999/xlink" x="0px" y="0px"
	 viewBox="0 0 62 58" style="enable-background:new 0 0 62 58;" xml:space="preserve">
<style type="text/css">
	.st0{filter:url(#Adobe_OpacityMaskFilter);}
	.st1{fill-rule:evenodd;clip-rule:evenodd;fill:#FFFFFF;}
	.st2{mask:url(#SVGID_1_);fill-rule:evenodd;clip-rule:evenodd;}
	.st3{fill-rule:evenodd;clip-rule:evenodd;fill:#018101;}
</style>
<g>
	<g>
		<g>
			<g>
				<g transform="translate(-1375 -2413) translate(-18 1623) translate(1393 790) translate(0 .38)">
					<defs>
						<filter id="Adobe_OpacityMaskFilter" filterUnits="userSpaceOnUse" x="0" y="0.6" width="61.9" height="56.4">
							<feColorMatrix  type="matrix" values="1 0 0 0 0  0 1 0 0 0  0 0 1 0 0  0 0 0 1 0"/>
						</filter>
					</defs>
					<mask maskUnits="userSpaceOnUse" x="0" y="0.6" width="61.9" height="56.4" id="SVGID_1_">
						<g class="st0">
							<path id="yrr1r4uxfa_1_" class="st1" d="M0,0.6h61.9V57H0V0.6z"/>
						</g>
					</mask>
					<path class="st2" d="M51.7,15.1c-0.9-0.1-5.8,0.8-7.7,1c-1.9,0.2-7.9,3.8-8.9,4.1c-1.1,0.3-3.1,3.6-3.1,3.6s-3.6,3.2-5,6.6
						c-1,2.4-0.6,4.4-0.2,6.1c-0.7-1.6-1.5-3.4-1.5-4.1c-0.1-1.3-0.1-3,0-4.3c0.1-1.3-0.1-2.8,0.1-3.9c0.1-1.1,0-4.3-0.3-5.4
						c-0.3-1-1.1-2.3-1.9-3.5c-0.8-1.2-2.1-2-3.6-3.1c-1.4-1.2-2.4-2.4-3.6-3.3c-1.2-1-3.1-2.5-4-3.5c-1-1-3.3-2.5-3.3-2.5l-3.9-2
						L4.6,2.8c0,0,4.2,5.7,5.2,7.1c1,1.4,3.9,7,4,7.8c0.1,0.9-0.1,5.4-0.1,5.4s-1.1,6-1.1,6.8c0.1,0.9,1.1,4.4,1.7,6.6
						c0.2,0.8,0.8,1.6,1.4,2.5c-1.4-0.2-2.7-0.4-2.7-0.4s-4.7-0.1-6.3-1.7c-1.6-1.6-2.6-2.7-3.9-4c-1.3-1.3-2.3-3-2.3-3L0,33.2
						c0,0,0.5,2,1.2,3.1c0.7,1.1,0.5,2.3,1.8,3.6c1.3,1.3,0.9,3.4,2.7,3.8c1.8,0.4,2.3,1.7,3.5,2.1c1.2,0.5,4.6,1.9,4.6,1.9l5,1.5
						l2.7,3.3l1.5,3.4l4.6-1.3l1,0.1l0,0l0,0l0.6,0.1c-0.1,0.9-0.1,1.6-0.1,1.6l4.4,0.7l1-3.3l2.1-3.3l3-3.9c0,0,3-1.7,4.1-2.3
						c1.1-0.6,2.5-1.1,4.1-1.7c1.6-0.6,1.6-1.1,2.7-2.5c1.1-1.4,0.8-2.5,1.3-3.6c0.5-1.1,0.8-3,0.8-3l-0.9-3c0,0-0.8,1.7-1.9,3.1
						c-1.1,1.4-1.9,2.5-3.2,4.2c-1.3,1.7-5.7,2.3-5.7,2.3s-4.6,1.2-5.5,1.5c-0.4,0.2-1.5,1.1-2.6,2.1l0.1-2l1.1-4
						c0.5-2.5,0.6-5.8,2.2-7.9c0.3-0.3,6.4-5.6,5.9-5.6c2.1,0.2,4.2-2.7,6.8-2.9c0,0,2-1.3,2.9-1.6c0.8-0.3,2.8-0.3,4.1-0.4l2.6-0.3
						l3.5-1.4l-6-1.6C55.9,15.8,52.6,15.2,51.7,15.1"/>
				</g>
				<path class="st3" d="M2.6,36.4C3,37,3.3,37.6,3.8,38.3l0.8,1l0.4,0.5c0.2,0.1,0.4,0.3,0.5,0.4c0.4,0.3,0.7,0.6,1.1,0.9
					c0.4,0.2,0.9,0.5,1.3,0.7C9,42.2,10,42.6,11,42.9c1,0.3,2.1,0.5,3.1,0.8c0.5,0.1,1,0.2,1.5,0.4c0.5,0.1,1,0.3,1.4,0.5
					c0.5,0.2,0.9,0.3,1.4,0.6c0.4,0.2,0.9,0.4,1.3,0.7c0.4,0.2,0.8,0.5,1.2,0.8c0.4,0.3,0.8,0.5,1.1,0.8c0.6,0.6,1.3,1.1,1.8,1.7
					c0.5,0.6,1,1.1,1.4,1.6l0.9,1.4l0.9,1.2l-0.7-1.3c-0.2-0.4-0.5-0.9-0.8-1.5c-0.4-0.5-0.8-1.1-1.3-1.8c-0.4-0.7-1.1-1.3-1.7-1.9
					c-0.3-0.4-0.7-0.6-1.1-0.9c-0.4-0.3-0.8-0.6-1.2-0.9l-1.4-0.8c-0.5-0.3-1-0.4-1.5-0.6c-0.5-0.2-1-0.4-1.5-0.5
					c-0.5-0.2-1-0.3-1.5-0.4c-1-0.3-2.1-0.5-3-0.7c-1-0.2-1.9-0.6-2.8-0.9l-1.2-0.6c-0.4-0.2-0.7-0.5-1.1-0.7
					c-0.2-0.1-0.4-0.3-0.5-0.4c-0.2-0.2-0.3-0.3-0.4-0.4c-0.3-0.3-0.6-0.6-0.9-0.8c-0.5-0.6-0.9-1.2-1.3-1.7c-0.4-0.5-0.6-1-0.9-1.4
					l-0.7-1.2c0,0,0.2,0.5,0.5,1.3C2.2,35.3,2.3,35.9,2.6,36.4 M49.5,36.5c-0.3,0.4-0.7,0.9-1.1,1.4c-0.5,0.5-1,0.9-1.5,1.5
					c-0.6,0.4-1.2,1-1.9,1.4c-0.7,0.4-1.4,0.8-2.2,1.2c-0.8,0.4-1.6,0.7-2.4,1.1c-0.8,0.4-1.6,0.7-2.4,1.1c-0.4,0.2-0.8,0.4-1.2,0.7
					l-1.1,0.8c-0.6,0.6-1.3,1.1-1.7,1.8c-0.5,0.6-0.7,1.3-1,2c-0.3,0.6-0.3,1.3-0.5,1.8c-0.1,0.2-0.1,0.4-0.1,0.5l0.4-0.2
					c0-0.1,0.1-0.2,0.1-0.3c0.2-0.5,0.4-1.1,0.6-1.6c0.3-0.5,0.6-1.2,1.1-1.7c0.4-0.6,1-1.1,1.6-1.6l1-0.7l1.1-0.6
					c0.8-0.4,1.6-0.7,2.4-1.1c0.8-0.4,1.6-0.7,2.4-1.1c0.8-0.4,1.5-0.9,2.2-1.4c0.7-0.4,1.3-1.1,1.9-1.6c0.5-0.6,1-1.1,1.4-1.7
					c0.4-0.6,0.7-1.1,1-1.6c0.3-0.5,0.4-0.9,0.6-1.3l0.5-1.1l-0.7,1C50,35.6,49.8,36,49.5,36.5 M30.5,52.2l-0.2-2.1
					c-0.1-1.3-0.3-3.2-0.3-5.5c-0.1-2.3-0.1-4.9,0.2-7.7c0.1-1.4,0.5-2.7,1.2-3.9l2.2-3.9c0.7-1.3,1.5-2.5,2.5-3.6
					c1-1.1,2-1.9,3.2-2.7c1.2-0.7,2.4-1.3,3.6-1.9c1.2-0.6,2.3-1.1,3.3-1.5c1-0.4,2-0.7,2.9-0.9c0.9-0.2,1.7-0.4,2.3-0.5
					c1.3-0.2,2.1-0.3,2.1-0.3s-0.8-0.1-2.1-0.1c-0.7,0-1.5,0.1-2.4,0.2c-0.9,0.1-2,0.2-3.1,0.6c-1.1,0.3-2.3,0.8-3.5,1.3
					c-1.2,0.5-2.5,1-3.8,1.7c-1.3,0.7-2.6,1.7-3.6,2.9c-1.1,1.2-2,2.5-2.7,3.9c-0.7,1.4-1.5,2.6-2.2,4c-0.3,0.7-0.6,1.5-0.8,2.2
					c0,0.2-0.1,0.4-0.1,0.6l-0.1,0.5c-0.1,0.4-0.1,0.8-0.1,1.1c-0.2,2.9,0,5.6,0.3,7.9C29.6,49.3,30.5,52.2,30.5,52.2 M16,15.3
					c0.6,1,1.1,2.1,1.7,3.2c0.5,1.2,0.9,2.4,1.4,3.8l0.1,0.5l0.1,0.5c0.1,0.4,0.1,0.7,0.2,1c0.1,0.7,0.1,1.4,0.1,2.2
					c0,0.8,0.1,1.5,0.2,2.3c0.1,0.7,0.3,1.5,0.5,2.3c0.2,0.8,0.4,1.5,0.5,2.2l0.2,1.1c0.1,0.4,0.1,0.7,0.2,1.1
					c0.4,1.6,1,2.9,1.5,4.2c0.1,0.3,0.3,0.7,0.4,1l0.2,0.5l0.1,0.5c0.1,0.6,0.3,1.3,0.4,1.9c0.2,0.7,0.3,1.3,0.6,1.9
					c0.3,0.6,0.6,1.1,0.9,1.6c0.6,1,1.1,1.9,1.7,2.7c0.6,0.8,1.1,1.4,1.5,1.9c0.4,0.5,0.8,0.9,1.1,1.1l0,0l0.1,0l-0.1-0.1
					c-0.2-0.3-0.5-0.7-0.9-1.2c-0.4-0.5-0.8-1.2-1.3-2c-0.4-0.8-0.9-1.7-1.4-2.8c-0.3-0.5-0.5-1-0.7-1.6c-0.2-0.5-0.3-1.1-0.4-1.8
					c-0.1-0.6-0.2-1.3-0.3-2l-0.1-0.5l-0.2-0.5c-0.1-0.3-0.2-0.7-0.3-1c-0.5-1.4-1.1-2.7-1.4-4.1c-0.1-0.3-0.1-0.7-0.2-1.1L22,33
					c-0.1-0.8-0.3-1.5-0.5-2.3c-0.2-0.7-0.3-1.4-0.5-2.2c-0.1-0.7-0.2-1.4-0.2-2.2c0-0.7-0.1-1.5-0.2-2.3c-0.1-0.4-0.1-0.8-0.2-1.2
					l-0.1-0.5L20.2,22c-0.4-1.4-1-2.7-1.6-3.9c-0.6-1.2-1.3-2.3-1.9-3.2c-0.6-1-1.3-1.8-1.9-2.5c-0.6-0.7-1.2-1.3-1.6-1.8
					c-0.4-0.5-0.9-0.8-1.1-1.1l-0.4-0.4c0,0,0.5,0.6,1.3,1.6C13.7,11.8,14.8,13.4,16,15.3"/>
			</g>
		</g>
	</g>
</g>
</svg>
