<?xml version="1.0" encoding="utf-8"?>
<!-- Generator: Adobe Illustrator 23.0.1, SVG Export Plug-In . SVG Version: 6.00 Build 0)  -->
<svg version="1.1" id="Layer_1" xmlns="http://www.w3.org/2000/svg" xmlns:xlink="http://www.w3.org/1999/xlink" x="0px" y="0px"
	 viewBox="0 0 285 128" style="enable-background:new 0 0 285 128;" xml:space="preserve">
<style type="text/css">
	.st0{fill:#F9B63D;}
	.st1{fill:#333538;}
	.st2{fill:#3C3E40;}
	.st3{fill:#353639;}
	.st4{fill:#363739;}
	.st5{fill:#36383A;}
	.st6{fill:#424547;}
	.st7{fill:#3E4043;}
	.st8{fill:#343638;}
	.st9{fill:#26282A;}
	.st10{fill:#5C5E60;}
	.st11{fill:#292B2D;}
	.st12{fill:#109110;}
</style>
<path class="st0" d="M0.9,120.8c-0.5-0.1-0.7-0.2-0.7-0.4l0.1-0.6c0.8-1.8,1.2-8.2,1.2-19.2c0-5.3-0.1-8.6-0.4-9.9
	c-0.3-1.3-0.5-2.2-0.7-2.5l-0.2-0.5C0.1,87.5,0,87.3,0,87c0-0.2,0.2-0.5,0.6-0.6c2.6-1,6-1.5,10.1-1.5c8.8,0,13.2,5.6,13.2,16.8
	c0,4.4-0.8,8.4-2.3,12c-0.6,1.4-1.4,2.6-2.2,3.6c-0.8,1-1.9,1.8-3.2,2.5c-1.3,0.7-2.8,1-4.4,1c-0.3,0-0.8-0.1-1.3-0.1
	c-0.5-0.1-1.3-0.3-2.3-0.7c-1-0.4-1.7-1-2.1-1.7C5,120,3.2,120.8,0.9,120.8z M10.3,88.2c-0.6,0-1.1,0.1-1.5,0.3
	c-0.4,0.2-0.6,0.4-0.6,0.7c-0.4,1.4-0.6,5.5-0.6,12.4c0,6.9,0,10.7-0.1,11.6c0.6,1,1.6,1.5,2.9,1.5c2.3,0,4.1-1.3,5.3-3.9
	c1.2-2.6,1.8-5.8,1.8-9.7c0-3.9-0.6-7-1.7-9.4C14.6,89.4,12.8,88.2,10.3,88.2z"/>
<path class="st0" d="M42.4,101.5c-0.4,0.1-0.5,0.2-0.5,0.3c0,0.1,0.4,0.3,1.2,0.6c0.8,0.3,1.5,0.8,2.3,1.4c0.7,0.6,1.2,1.4,1.5,2.3
	c0.5,1.4,0.7,2.8,0.7,4.4c0,1.6,0.1,2.8,0.3,3.8c0.2,1,0.5,1.8,0.8,2.3c0.7,1.1,1.3,1.8,1.8,2.1l0.3,0.2c0.2,0.1,0.3,0.3,0.3,0.5
	c0,0.5-0.8,0.9-2.4,1.3c-1.6,0.4-2.9,0.6-3.8,0.6c-1.7,0-2.9-0.7-3.3-2.1c-0.5-1.4-0.7-3.8-0.7-7.2v-2.7c0-2.9-0.9-4.7-2.6-5.5
	c-0.7-0.3-1.5-0.4-2.4-0.4h0c-0.3,0-0.4-0.3-0.4-0.9c0-0.6,0.2-1.2,0.5-1.8c0.3-0.6,0.6-0.9,0.9-0.9c1.1,0,2-0.2,2.8-0.6
	s1.4-0.9,1.7-1.5c0.8-1.3,1.2-2.3,1.2-3.2v-0.6c0-1.2-0.2-2.3-0.6-3.1c-0.4-0.8-0.9-1.4-1.5-1.8c-1-0.5-2-0.8-3-0.8
	c-1,0-1.9,0.1-2.5,0.2c-0.9,0.3-1.4,0.5-1.4,0.8c-0.3,4.3-0.4,8.5-0.4,12.5c0,4,0.1,7.1,0.2,9.2c0.1,2.1,0.2,3.8,0.3,5.1
	c0.1,1.3,0.2,2.1,0.2,2.3c0,0.4-0.1,0.7-0.3,0.9c-1.4,1.3-3.5,1.9-6.4,1.9c-0.5,0-0.7-0.2-0.7-0.5c0-0.1,0-0.3,0.1-0.7
	c0.3-0.8,0.6-3.2,0.7-7.2c0.1-4.1,0.2-7.8,0.2-11.1c0-3.3-0.1-6.1-0.2-8.1c-0.2-3.1-0.5-5-1-5.6c-0.4-0.5-0.5-0.8-0.5-1
	c0-0.2,0.2-0.4,0.5-0.6c2.1-1,5.9-1.5,11.5-1.5c4.5,0,7.8,1.3,10,3.8c1.2,1.4,1.8,3.1,1.8,5.2c0,1.3-0.2,2.4-0.7,3.4
	c-0.5,1-1.1,1.7-1.8,2.3c-1.4,1.1-2.7,1.7-3.9,1.9L42.4,101.5z"/>
<path class="st0" d="M60,98.3c0,10.2,0.2,16.9,0.7,20.1c0,0.8-0.8,1.4-2.3,2c-1.5,0.5-2.8,0.8-3.8,0.8c-1,0-1.5-0.1-1.5-0.4
	c0-0.2,0.1-0.4,0.1-0.7c0.6-1.4,0.9-7,0.9-16.7c0-9.2-0.4-14.4-1.2-15.4l-0.2-0.3c-0.2-0.2-0.3-0.4-0.3-0.6c0-0.2,0.2-0.5,0.5-0.6
	c0.5-0.3,1.4-0.6,2.6-0.9c1.3-0.3,2.4-0.4,3.4-0.4c1,0,1.5,0.2,1.5,0.7v0.1C60.3,89.3,60.1,93.4,60,98.3z"/>
<path class="st0" d="M82.9,104.8l0-5.9c0-5.8-0.2-9.7-0.6-11.6c-0.1-0.2-0.1-0.4-0.1-0.5c0-0.6,0.6-1,1.7-1.4c1.1-0.4,2-0.6,2.7-0.6
	c0.7,0,1,0.2,1,0.6c0,0,0,0.2-0.1,0.5c-0.8,4.1-1.1,10.5-1.1,19.3c0,6,0.3,10.4,1,13c0.1,0.4,0.2,0.7,0.2,0.7c0,0.7-0.8,1.3-2.3,1.7
	c-1.5,0.4-2.6,0.7-3.2,0.7c-1,0-1.7-0.2-2-0.7c-0.7-0.9-1.9-3.5-3.5-7.8c-1.6-4.3-3.1-8.3-4.3-11.9l-1.9-5.5
	c-0.1-0.2-0.1-0.2-0.2-0.2c-0.1,0-0.3,0.1-0.4,0.3c-0.2,3.1-0.2,6.1-0.2,9.2c0,3.1,0,5.4,0.1,7.1c0.1,1.6,0.1,2.9,0.2,3.8
	c0.1,0.9,0.1,1.5,0.2,2.1c0.1,0.5,0.1,0.9,0.2,1.1c0,0.2,0.1,0.4,0.1,0.5c0,0.6-0.5,1.1-1.6,1.5c-1.1,0.3-2.1,0.5-2.9,0.5
	c-0.9,0-1.3-0.2-1.3-0.6c0-0.2,0-0.4,0.1-0.7c0.1-0.3,0.2-0.7,0.3-1.1c0.3-1.2,0.6-3.3,0.7-6.3c0.1-3.1,0.2-6.5,0.2-10.4
	c0-3.9-0.1-6.8-0.1-8.5c-0.2-2.9-0.5-4.8-0.9-5.8c-0.1-0.1-0.1-0.2-0.1-0.4c0-0.5,0.9-1,2.6-1.5c1.7-0.5,3.1-0.7,4.1-0.7
	c1,0,1.5,0,1.7,0c0.5,0,0.7,0.2,0.8,0.8c1,3.5,2.3,7.5,4,12.2c1.7,4.7,3.3,8.3,4.6,10.7c0.2,0.2,0.3,0.2,0.4,0.2
	C82.8,108.8,82.9,107.5,82.9,104.8z"/>
<path class="st0" d="M104.1,90c0.9-1.1,1.7-2.1,2.6-3c0.9-0.9,1.6-1.5,2.2-1.8c0.6-0.2,1.7-0.3,3.4-0.3c1.7,0,2.6,0.2,2.6,0.6
	c0,0.2-0.2,0.3-0.5,0.5c-0.4,0.2-0.9,0.5-1.5,0.9c-0.6,0.4-1.9,1.6-3.9,3.5c-2,1.9-4,4.2-6,6.7c-0.1,0.1-0.1,0.2-0.1,0.3
	c0,0.1,0.1,0.2,0.3,0.2c0.2,0,0.4,0.1,0.8,0.1c0.3,0.1,0.9,0.3,1.8,0.8c0.9,0.4,1.7,1,2.3,1.7c0.7,0.7,1.4,1.7,2,3.1
	c0.6,1.4,1,2.7,1.1,4c0.1,1.2,0.2,2.3,0.3,3.3c0.1,1,0.4,2.4,0.8,4.3c0.4,1.8,0.9,3,1.5,3.3c0.2,0.1,0.2,0.3,0.2,0.5
	c0,0.5-0.7,1-2.2,1.5c-1.5,0.4-2.7,0.7-3.9,0.7c-1.1,0-1.8-0.5-2-1.4c-0.2-1-0.3-3.3-0.3-7.1v-2c0-3.5-0.5-6-1.5-7.5
	c-0.9-1.4-1.6-2.1-2.3-2.3c-0.5-0.2-0.8-0.2-0.8-0.2l-0.5,0.2c-0.8,0.9-1.4,1.8-1.9,2.7c-0.5,0.9-0.7,1.5-0.7,1.9l-0.1,0.6
	c0,4.7,0.2,8.6,0.6,11.9c0.1,0.4,0.1,0.6,0.1,0.7c0,0.7-0.8,1.4-2.3,1.9c-1.5,0.5-2.8,0.8-3.8,0.8c-1,0-1.5-0.1-1.5-0.4
	c0-0.2,0-0.4,0.1-0.7c0.3-0.7,0.6-3.1,0.7-7.2c0.1-4.1,0.2-7.8,0.2-11.1c0-3.3-0.1-6.1-0.2-8.1c-0.2-3.1-0.5-5-1-5.6
	c-0.4-0.5-0.5-0.8-0.5-0.9c0-0.5,0.8-0.9,2.5-1.3c1.7-0.4,3.1-0.6,4.1-0.6c1,0,1.6,0.2,1.6,0.7l0,0.6c-0.4,3.6-0.6,7.4-0.6,11.4
	c0,0.3,0.1,0.5,0.2,0.5c0.1,0,0.3-0.1,0.5-0.4c0.2-0.3,0.5-0.7,0.9-1.2c0.4-0.5,1.1-1.5,2.1-2.9C102.3,92.3,103.3,91.1,104.1,90z"/>
<path class="st0" d="M141,105.7c0-0.8-0.5-1.2-1.4-1.2h-3.5c-0.3,0-0.4-0.1-0.4-0.2c0.2-1,0.5-1.7,1-2.3c0.5-0.6,0.9-0.9,1.2-1
	c0.9-0.1,2.4-0.2,4.6-0.2c2.1,0,3.4,0,4,0c0.5,0,0.9,0.1,1,0.2c0.1,0.2,0.2,0.4,0.2,0.6c0,0.2-0.1,1.6-0.2,4.1
	c-0.1,2.5-0.2,4.8-0.2,6.8s0.1,3.2,0.2,3.8c0.1,0.5,0.2,0.8,0.2,1c0,0.5-0.5,1.1-1.4,1.7c-0.9,0.6-2.3,1.1-4.2,1.6
	c-1.9,0.5-3.9,0.7-6.2,0.7c-3,0-5.6-1-7.8-3.1c-1.7-1.6-2.9-3.4-3.5-5.4c-0.6-1.9-1-4.7-1-8.2c0-13.1,4.8-19.6,14.4-19.6
	c1.6,0,3.1,0.2,4.4,0.5c1.3,0.3,2.4,1,3.4,2c1,1,1.5,2.3,1.5,3.9c0,0.8-0.2,1.7-0.5,2.5c-0.6,1.7-1.9,2.6-4,2.6
	c-1.1,0-2-0.3-2.5-0.9c-0.6-0.6-0.9-1.4-0.9-2.4c0-0.4,0.2-0.6,0.6-0.7c0.6-0.4,0.9-1,0.9-1.9s-0.3-1.6-1-2
	c-0.7-0.5-1.4-0.7-2.1-0.7c-1.6,0-2.9,0.6-4,1.7c-1.1,1.1-1.9,2.6-2.4,4.5c-0.8,3.3-1.2,6.7-1.2,10.1c0,5.6,1.4,9.3,4.1,11.2
	c1,0.7,2.1,1.1,3.2,1.1c2.1,0,3.2-0.4,3.3-1.1c0.1-1,0.1-2.6,0.1-4.7L141,105.7z"/>
<path class="st0" d="M158.9,115.2l1.1-0.2c0.3,0,0.5,0.2,0.5,0.5c0,1.2-0.2,2.1-0.7,2.9c-0.5,0.8-1,1.4-1.7,1.7
	c-1.1,0.6-2.1,0.8-2.9,0.8c-1.5,0-2.7-0.6-3.4-1.7c-0.8-1.1-1.1-2.9-1.1-5.1c0-2.3,0.6-5.3,1.9-8.9h-2.9c-0.4,0-0.5-0.2-0.5-0.5
	c0-0.4,0.3-0.9,0.8-1.8c0.6-0.8,1.2-1.2,1.8-1.2h2.2c2.3-5.2,5.1-9.7,8.3-13.5c0.8-1,1.8-1.9,3-2.8c1.2-0.9,2.1-1.3,2.8-1.3
	c0.7,0,1.2,0.3,1.5,0.9c0.9,1.4,1.9,6.4,3,15.2c0.4,3.8,1.1,7.6,2.1,11.7c1,4,1.9,6.3,2.7,7c0.2,0.1,0.3,0.3,0.3,0.5
	c0,0.5-0.7,1-2.1,1.4c-1.4,0.4-2.5,0.6-3.2,0.6c-0.7,0-1.3-0.1-1.7-0.3c-0.4-0.2-0.6-0.4-0.7-0.6c-0.6-1.3-1.2-4.4-1.8-9.2l-0.3-2.3
	c-0.1-1.6-0.3-2.7-0.4-3.5l-0.3-0.2l-10.3,0c-0.4,1.7-0.6,3.2-0.6,4.4s0,2.2,0.1,2.7c0.1,0.6,0.4,1.2,0.8,1.9
	C157.5,114.9,158.1,115.2,158.9,115.2z M163.3,91.9c-2.6,3.3-4.5,6.5-5.6,9.8h0c4.6,0,7.2,0,7.9,0c0.7,0,1,0,1.1-0.1
	s0.1-0.1,0.1-0.2c-0.6-4.1-1-6.8-1.3-8.3c-0.3-1.5-0.7-2.2-1-2.2C164.2,90.9,163.8,91.2,163.3,91.9z"/>
<path class="st0" d="M192.5,120.2l-2.8-0.1c-0.4,0-0.8,0-1.2,0l-9,0.4c-0.5,0-0.7-0.2-0.7-0.5c0-0.1,0-0.3,0.1-0.7
	c0.3-0.8,0.6-3.2,0.7-7.2c0.1-4.1,0.2-7.8,0.2-11.1c0-3.3-0.1-6.1-0.2-8.1c-0.2-3.1-0.5-5-1-5.6c-0.4-0.5-0.5-0.8-0.5-0.9
	c0-0.5,0.9-1,2.7-1.4c1.8-0.4,3.1-0.6,3.8-0.6c0.8,0,1.3,0,1.5,0.1c0.2,0.1,0.3,0.3,0.3,0.5c0,0.3-0.1,1.1-0.2,2.5
	c-0.3,4.2-0.5,9.1-0.5,14.6s0.1,10,0.4,13.3c0,0.4,0.3,0.7,0.9,0.9c0.6,0.3,1.4,0.4,2.3,0.4c3.2,0,4.8-2.5,4.8-7.5
	c0-1.4-0.1-2.2-0.2-2.6c-0.1-0.3-0.2-0.5-0.2-0.6c0-0.3,0.2-0.5,0.7-0.5c0.4,0,0.8,0.2,1.5,0.5c0.6,0.4,1.1,0.8,1.5,1.4
	c0.4,0.5,0.8,1.4,1.1,2.6c0.3,1.2,0.5,2.5,0.5,4.1c0,3.9-0.5,5.9-1.4,5.9C195.9,120.2,194.2,120.2,192.5,120.2z"/>
<path class="st0" d="M209.3,115.2l1.1-0.2c0.3,0,0.5,0.2,0.5,0.5c0,1.2-0.2,2.1-0.7,2.9c-0.5,0.8-1,1.4-1.7,1.7
	c-1.1,0.6-2.1,0.8-2.9,0.8c-1.5,0-2.7-0.6-3.4-1.7c-0.8-1.1-1.1-2.9-1.1-5.1c0-2.3,0.6-5.3,1.9-8.9h-2.9c-0.4,0-0.5-0.2-0.5-0.5
	c0-0.4,0.3-0.9,0.8-1.8c0.6-0.8,1.2-1.2,1.8-1.2h2.2c2.3-5.2,5.1-9.7,8.3-13.5c0.8-1,1.8-1.9,3-2.8c1.2-0.9,2.1-1.3,2.8-1.3
	c0.7,0,1.2,0.3,1.5,0.9c0.9,1.4,1.9,6.4,3,15.2c0.4,3.8,1.1,7.6,2.1,11.7c1,4,1.9,6.3,2.7,7c0.2,0.1,0.3,0.3,0.3,0.5
	c0,0.5-0.7,1-2.1,1.4c-1.4,0.4-2.5,0.6-3.2,0.6s-1.3-0.1-1.7-0.3c-0.4-0.2-0.6-0.4-0.7-0.6c-0.6-1.3-1.2-4.4-1.8-9.2l-0.3-2.3
	c-0.1-1.6-0.3-2.7-0.4-3.5l-0.3-0.2l-10.3,0c-0.4,1.7-0.6,3.2-0.6,4.4s0,2.2,0.1,2.7c0.1,0.6,0.4,1.2,0.8,1.9
	C207.9,114.9,208.5,115.2,209.3,115.2z M213.7,91.9c-2.6,3.3-4.5,6.5-5.6,9.8h0.1c4.6,0,7.2,0,7.9,0c0.7,0,1,0,1.1-0.1
	c0.1-0.1,0.1-0.1,0.1-0.2c-0.6-4.1-1-6.8-1.3-8.3c-0.3-1.5-0.7-2.2-1-2.2S214.2,91.2,213.7,91.9z"/>
<path class="st0" d="M254.8,88c-0.7,0.8-1.5,1.7-2.2,2.6c-0.8,1-2.1,2.9-3.9,5.6c-1.8,2.8-2.7,4.4-2.7,4.9l0.1,0.3
	c4,9.2,7.5,14.6,10.4,16.1c0.4,0.1,0.5,0.3,0.5,0.6c0,0.6-0.9,1.2-2.7,1.9c-1.1,0.4-2,0.5-2.8,0.5c-0.8,0-1.4-0.1-1.8-0.2
	c-0.3-0.2-0.7-0.5-1.1-0.9c-0.4-0.4-0.7-0.9-1-1.3c-0.3-0.4-0.6-1.1-1.1-2.1c-0.4-0.9-0.8-1.8-1.2-2.5c-0.3-0.8-0.8-1.9-1.5-3.3
	c-0.6-1.4-1.2-2.7-1.7-3.9c-0.1-0.2-0.2-0.2-0.3-0.2c-0.1,0-0.3,0.1-0.4,0.3c-2.5,4.3-4.5,8.3-5.8,12.1c-0.2,0.7-0.9,1.3-2.2,1.9
	c-1.3,0.5-2.7,0.8-4.1,0.8c-1.5,0-2.2-0.2-2.2-0.6c0-0.2,0.1-0.3,0.3-0.5c0.2-0.2,0.5-0.4,0.7-0.6c0.3-0.2,0.8-0.9,1.7-1.8
	c0.8-1,1.7-2.1,2.6-3.3c2.3-3.3,4.7-7.3,7.1-12.2c0.1-0.2,0.1-0.4,0.1-0.5l-0.1-0.3c-2.6-6.3-4.9-10.5-6.9-12.7
	c-0.5-0.5-1-0.8-1.4-0.9c-0.3-0.2-0.5-0.4-0.5-0.7c0-0.6,0.8-1.1,2.5-1.6c1.7-0.4,3-0.7,3.9-0.7c0.9,0,1.6,0.3,2,0.9
	c0.4,0.6,0.8,1.4,1.2,2.4c0.4,1,0.8,2.1,1.3,3.3c1.2,2.9,1.8,4.6,2,4.9c0.2,0.4,0.4,0.5,0.5,0.5c0.1,0,0.2-0.1,0.3-0.2
	c2-3.6,3.7-6.9,5.1-10c0.2-0.6,0.9-1.1,2-1.3c1.1-0.2,2.3-0.3,3.6-0.3c1.3,0,2,0.2,2,0.5c0,0.2-0.1,0.4-0.3,0.6
	c-0.2,0.2-0.4,0.4-0.6,0.5C256,86.7,255.6,87.2,254.8,88z"/>
<path class="st0" d="M276.3,88.1l-0.2-1.8c0-0.6,0.8-1,2.3-1.3c1.5-0.2,3-0.4,4.5-0.4c1.5,0,2.2,0.2,2.2,0.7c0,0.2-0.2,0.5-0.5,0.8
	c-1.3,1.4-2.8,3.6-4.7,6.6c-1.8,3.1-3.3,5.8-4.5,8.2l-1.8,3.6c-0.6,1.3-0.9,2.6-0.9,4.1c0,1.5,0,3,0.1,4.5c0.1,1.5,0.2,2.7,0.3,3.7
	c0.1,1,0.1,1.6,0.1,1.8c0,0.8-0.8,1.5-2.3,2c-1.5,0.5-2.8,0.8-3.7,0.8c-1,0-1.5-0.2-1.5-0.5l0.1-0.6c0.6-3,0.8-6.6,0.8-10.7
	c0-1-0.2-2.3-0.5-3.8l-0.1-0.6c-2.1-5.7-4.1-9.9-5.9-12.6c-1.6-2.4-2.7-3.8-3.5-4.3l-0.4-0.3c-0.3-0.2-0.5-0.4-0.5-0.7
	c0-0.6,0.9-1.1,2.6-1.7c1.7-0.6,3-0.9,3.9-0.9c0.9,0,1.5,0.3,1.8,0.8c3,6.2,5.3,11.2,6.9,15c0.1,0.2,0.2,0.3,0.4,0.3
	c0.2,0,0.4-0.2,0.6-0.6c0.2-0.4,0.6-1,1.1-1.9c0.5-0.9,1.2-2.4,2-4.6C275.9,91.6,276.3,89.7,276.3,88.1z"/>
<path class="st1" d="M713.2,179.6c-0.3-0.6-0.3-1.2,0.5-1.4c0.3-0.1,0.8,0,0.6,0.4c-0.2,0.8,1.1,1.5,0,2.3c-0.3,0.2-0.7,0.2-1.1,0
	C712.7,180.5,713,180,713.2,179.6z"/>
<path class="st2" d="M705.7,179.8c0.3,0.5,0.3,0.9-0.3,1.3c-0.3-0.6-1.2-0.3-1.5-0.8c-0.2-0.3,1.1-2,1.3-2
	C705.5,178.2,705.5,178.2,705.7,179.8z"/>
<path class="st3" d="M700.9,181c-0.8-0.7-1.7-1.4-0.8-2.5c0,0,0.7,0.1,1.1-0.1C701.6,179.3,701.1,180.1,700.9,181z"/>
<path class="st4" d="M706.3,178.7c0.6-0.6,1.1-0.6,1.5-0.1c0.3,0.3,0.3,0.9,0,1.2c-0.6,0.6-0.2,0.9,0.5,1.3c-0.8,0-1.3,0-1.9,0
	c-0.1-0.8,0.8-0.9,1-1.5C707.7,178.5,706.8,178.9,706.3,178.7z"/>
<path class="st5" d="M712.9,181c-1,0.1-1.6,0.2-2.1,0c1.3-2.1,1.3-2.1,0-2.3c0.4-0.6,0.8-0.6,1.3-0.3c0.5,0.3,0.5,0.9,0.2,1.3
	C711.8,180.2,711.8,180.6,712.9,181z"/>
<path class="st6" d="M715.3,178.6c0.4-0.5,0.9-0.5,1.3-0.1c0.4,0.4,0.4,0.9,0.1,1.3c-0.7,0.7,0,0.9,0.3,1.3
	c-0.6,0.2-1.2,0.2-1.7,0.1C714.8,180.2,717.7,179.4,715.3,178.6z"/>
<path class="st7" d="M717.4,178.7c0.6-0.7,1.2-0.7,1.5-0.3c0.3,0.7,0.5,1.6,0.2,2.3c-0.3,0.6-1,0.4-1.6,0.1c0.3-0.7,1.1,0.1,1.2-0.6
	C717.6,180.1,719.2,178.3,717.4,178.7z"/>
<path class="st8" d="M701.8,178.7c0.7-0.6,1.2-0.6,1.6-0.1c0.3,0.3,0.2,0.8,0,1.2c-0.4,0.5-0.8,1,0.7,1.1c-0.9,0.4-1.5,0.3-2.1,0.2
	c0-0.8,0.8-0.9,1-1.5C703.2,178.5,702.4,178.8,701.8,178.7z"/>
<path class="st9" d="M721.4,181c-0.7,0-1.1,0-1.3,0c-0.4-0.1-0.4-0.2-0.3-0.2c0.8-0.4,0.5-1.2,0.4-1.8c0-0.3-0.4-0.7,0.2-0.8
	c0.6-0.1,0.4,0.4,0.5,0.8C721,179.7,720.8,180.4,721.4,181z"/>
<path class="st10" d="M708.6,178.9c0.2-0.5,0.5-0.7,1.1-0.7c0.1,0,0.3,0.1,0.4,0.2c-1.4,0.4,0.9,1.3-0.3,1.7
	C708.6,180.5,709,179.3,708.6,178.9z"/>
<path class="st11" d="M708.6,178.9c0.5,0.3,0.3,1.3,1.2,1.2c0,0.3,0.3,0.8-0.2,0.9c-0.4,0.1-0.8-0.1-1-0.5
	C708.4,180,708.5,179.4,708.6,178.9z"/>
<path class="st12" d="M133,2.9c5.8,1.7,9.8,4.7,12.2,9.7c0.7,1.6,1.3,3.8-0.2,4.8c-1.3,0.8-2.9-0.8-4.1-1.8
	c-0.9-0.8-1.4-1.9-2.2-3.1c0.3,3,2,4.7,4.3,6.1c-5.8-0.1-7.7-1.9-8.5-7.4C134.1,8.5,134.6,5.8,133,2.9z"/>
<g>
	<path class="st0" d="M131.2,49.2c0.2,0,0.5,0,0.7,0c5.2,0.3,8.2-1,12.1-2.9c0,0,0.1,0,0.1-0.1c2.4-1.1,4.8-2.4,7.3-3.6
		c0.1,0,0.2-0.1,0.3-0.1c1.8-0.8,3.8-1.6,6.2-2.4c-2.9-0.1-5.8,0.4-8.6,1c-0.3,0.1-0.5,0.1-0.7,0.2l0.2,0c-0.4,0.1-0.7,0.2-1.1,0.3
		c0,0,0,0,0,0c-0.1,0-0.1,0-0.2,0c-0.6,0.2-1.3,0.4-1.9,0.6c0,0,0,0,0,0c0,0,0,0,0.1,0c0.4-0.2,0.7-0.3,1.1-0.5
		c0.1,0,0.1-0.1,0.2-0.1c0,0,0,0,0,0c0.1-0.1,0.3-0.1,0.5-0.2c0.5-0.2,1-0.5,1.7-0.7c0,0,0.1,0,0.1,0c2.5-0.9,4.9-1.5,7.4-1.8
		c0,0,0.1,0,0.1,0c0.4,0,0.9-0.1,1.3-0.1c0.1,0,0.2,0,0.2,0c0.2,0,0.4,0,0.6,0c0.2,0,0.5,0,0.7,0c0.5,0,1.1,0,1.6,0.1
		c1.8,0.2,3.6,0.6,5.4,1.3c0.4,0.1,0.7,0.3,1.1,0.5c-0.2-0.6-0.3-0.9-0.5-1.2c-3.8-9-13.7-17.4-27.8-16c-2.3,0.2-4.4,0.7-6.5,1.8
		l2.8-0.7c-0.2,0-0.4,0.1-0.5,0.1c0.2,0,0.4-0.1,0.6-0.1l-0.1,0c0.1,0,0.3,0,0.4-0.1c0.1,0,0.2,0,0.2,0c0.3,0,0.6-0.1,1-0.1
		c0.1,0,0.1,0,0.2,0c3.5-0.3,8.8-0.2,14.6,2.3c3.3,1.7,6.3,4.1,8.7,7.3c-2.5-2.3-5.1-4.4-8.2-5.8c-4.4-2-8.7-2.9-12.9-2.8
		c-0.3,0-0.5,0-0.8,0c-0.2,0-0.4,0-0.7,0c-0.1,0-0.2,0-0.3,0c-12.5,1.2-15.9,6.6-16.8,9.4c0,0,0,0,0,0c-0.3,0.9-0.3,1.6-0.3,1.6l0,0
		c-0.1,0.7-0.1,1.4,0,2.1c0.2,2.1,1.3,3.7,2.7,5.2c-2.3-0.9-3.3-2.9-4.3-5.2c0,0,0,0.1,0,0.4c-0.1,1.1,0,4.3,2.5,6.9
		C123.1,47.4,126.1,48.9,131.2,49.2z"/>
	<path class="st0" d="M164.6,45.9c2.2,0.5,3.2,1.9,4.4,3.4c0.1-5.4-4-8.7-9.2-7.5c-3.4,0.7-6.4,2.4-9.3,4.1c-1,0.6-1.9,1.1-2.9,1.7
		c0,0,0,0,0,0c-12,6.7-22.8,3.3-24.3,2.8c-11.7-4.4-8.2-16.4-7.5-18.5c0,0,0,0,0-0.1c-1.1,1.9-1.8,3.7-2.1,5.4c0,0,0,0.1,0,0.1
		c-0.7,3.9,0.1,8.1,2.1,12.2c0,0,0,0,0,0c2.3,4.3,5.7,7.4,7.2,8.6c0,0,0,0,0.1,0c0.1,0,0.2,0.1,0.2,0.2l0.1,0
		c0.1,0.1,0.2,0.3,0.4,0.4c0,0,0,0,0,0c-4.2-1.1-7.5-4.2-7.5-4.2s1.2,7.3,8.9,13c0.3,0.3,0.6,0.5,0.9,0.7l0,0c0,0,0.3,0.2,0.9,0.6
		c0,0,0.1,0,0.1,0.1c0.2,0.1,0.4,0.3,0.6,0.4c1.6,1,3.2,1.7,5,2.2c0.1,0,0.1,0,0.2,0.1c0.1,0,0.2,0.1,0.3,0.1
		c0.2,0.1,0.4,0.1,0.5,0.2c0.1,0,0.3,0.1,0.4,0.1c0,0,0,0,0.1,0c0.7,0.2,1.3,0.4,1.9,0.4c0,0,0.1,0,0.1,0c0.1,0,0.1,0,0.2,0
		c3.7,0.7,8.2,0.6,13-1.2c0.1,0,0.2-0.1,0.2-0.1c0.1-0.1,0.3-0.1,0.4-0.2c0.1-0.1,0.3-0.1,0.4-0.2c0.1,0,0.2-0.1,0.2-0.1
		c0.4-0.2,0.9-0.4,1.3-0.6c0.1-0.1,0.2-0.1,0.3-0.2c0.1,0,0.1-0.1,0.2-0.1c0.2-0.1,0.4-0.2,0.6-0.3c0,0,0,0,0,0
		c0.1,0,0.1-0.1,0.2-0.1c2.2-1.3,4.5-3.1,6.8-5.3c0,0,0,0,0,0c-0.5,0.7-10.5,14-28.1,9.9c-0.2,0-0.3-0.1-0.5-0.1c0,0,0,0,0,0
		c0.2,0.1,2,1.2,4.9,1.9c0,0,0,0,0.1,0c3.7,0.9,9,1.4,15.2-1.1c2.5-0.9,4.8-2.2,6.9-3.9c0.1,0,0.1-0.1,0.2-0.1v0
		c1.4-1.1,2.7-2.4,3.8-3.8c2.2-2.2,3.9-4.6,4.9-7.4c0,0,0-0.1,0.1-0.1C171.3,50.3,164.6,45.9,164.6,45.9z"/>
</g>
<path class="st12" d="M171.8,12l-3.2,4l-8.4-5.6l-7.3,12.9c0,0-8-2.6-14.7-1.5c0,0,5.9-2.7,13.3-0.7l-2.2-2.6l1.6-3h0.8l-0.3-0.9
	l0.4-0.8h1.1l-0.5-1.3l0.5-0.9h0.8l-0.3-1l0.4-0.8h1.2l-0.5-1.3l1.7-3.3c0,0,1.1-2.5,5.6,0.1C166.4,7.8,171.8,12,171.8,12z"/>
</svg>
