<svg xmlns="http://www.w3.org/2000/svg" width="1440" height="128" viewBox="0 0 1440 128">
    <g fill="none" fill-rule="evenodd">
        <g fill-rule="nonzero">
            <g>
                <g>
                    <path fill="#026478" d="M1440 12h-3c1.22 0 2.2-.07 3-.1v-.37c-1.55-.06-3.9-.1-7.14-.13 14.8.53-24.17.66-19.71 1-28-.18 6.5-.67-1.79-1-13.83.41-31.14-.27-40.36.26 20.26.16-3.14.34-7.36.57-25.45 0 4.22-.23-13.79-.42-10.65.07-24.56.48-8.1.63-14.83-.11-31.56.39-48.22.07-6.82-.33 31.14-.15 21.5-.39-35.37 0-17.7.81-50.59.93 14.1.18.58.76-15.22 1-36.37-.14 15.8-.2 1.94-.62l-14.49.06c-20.22-.58 42.88-.95 23.62-1.42l-15.72.2c3.48-.17 8.52-.46 2-.62-4 .4-36.76.1-39.63.19-3.25.34 12.79-.09 10.23.17-16.73.09-24.17.66-49.93.44 14.14-.23-5.38-.46.43-.65-12.55-.15-3.92.4-21.93.21l2-.2c-67-.06-150.68 0-208.32.8-10.61-.34-32.15-.37-65.62-.61 14.76.12.62.36-7.74.4l-16-.4c-19.6-.22-45.09.15-63.14.37-1.707-.004-3.413-.1-5.11-.29-17.28-.26-18 .23-24.72.31L745.73 12l-2.44.28c-17.47.15-40.55.08-38.31-.36-6.81.08-13.55.17-4.84.3-17.39-.26-65-.26-96.3-.11 14.76.11 13.53.24 14.76.52-4.49.48-7.05-.09-19.59.19-.32-.17-14.45-.35.69-.48-41.72-.61-100.09-.12-152.54-.25-10.61.08-7.36.16-12.51.28-33.12-.48-73.71 0-109.43-.18 8 .19-3.25.75-23.16.76-21.66.39-8.68-.54-28.24-.78-9.76.18-28.08.23-35.83.21l.62-.07c-11.93.21-30.79.33-45 .15h2.25c-11.62 0-25.1-.28-37.27-.25-5.42.37-35.09.14-42.3.47-.823-.098-1.651-.148-2.48-.15l-1 .31-24.1-.18c5.23-.12 6.51-.25 13.26-.34-25.77-.21-8.72.29-22.28.46-18 .22-17-.08-25.72-.22 7.44-.15 13.24.08 17.7 0 10.27-.25-10.88-.1-11.23-.27-3.84 0-5.54.36-18.71.29-11.47 0-38.27.06-35-.28-2.15 0-4.4.07-6.66.09v.39c3.25 0 5.69.11 6.39.18L0 13v114.12h1440V12z" transform="translate(0 -1487) translate(-49 814) translate(49 673)"/>
                    <path fill="#AED7CF" d="M1090.44 18.1L1090.3 18.02 1089.95 18.23zM1088.16 18.56c.06 0 0 .1.1.14l1.34-.59c-.6-.34-1.05.68-1.44.45zM1087.76 18.5c-.306-.104-.644-.008-.85.24.18-.22.97.06.85-.24zM1042.06 18.64h.16c-.052-.02-.108-.02-.16 0z" transform="translate(0 -1487) translate(-49 814) translate(49 673)"/>
                    <path fill="#AED7CF" d="M1030.13 19.59l-.12.22c2.22-.4 4.73 0 7.08-.17l-.15.08c6 .09 11.47-.28 17.4-.45-.09 0-.13.09-.22.11.293-.118.604-.186.92-.2.08.05-.09.11-.19.13 1.25.36 3.67-.24 4.46.05.35 0 .5-.19.31-.31 4.63-.1 9.59-.17 14.32-.46.23.06.27.16.2.28 4.119-.432 8.267-.52 12.4-.26.16-.16-.42-.16 0-.33-1.33-.19-2.43.39-3.64.1l.16-.15c-.88-.09-.18.38-1.09.19-.36-.13.09-.2-.08-.21-1.858-.052-3.718.048-5.56.3-.43-.33-2 0-2.69-.33-.48.13-1 .1-1.15.31-6.51-.17-13.17.15-19.85.12-3.13.64-6.87-.12-10.58.1v-.07c-1.467.174-2.945.224-4.42.15l-1.22.27c-8.69-.55-17.56-.16-26.38-.39-10-.16-18.8-.62-28.57.22 0-.06-.06-.1.19-.12-2.82.12-5.38-.1-8 0v-.06c-6.58.52-13.7-.07-20 .49-7.73-.06-16.46 0-24.64.16v-.12c-6.54.26-12.87-.4-19.39-.21-6.72-.28-13.81.73-20.58.34-4.19-.61-9.69.71-13.63.07-8.08-1-15.93-.34-24 .24-7.45-.35-14.9.53-22.12-.17-3.42.45-7.2-.55-11-.42l.14.15c-1.37-.47-3 .66-3.9 0h.15c-.73-.36-1.69.84-2.13.41l-.11.18c-.88.05-.1-.2-.78-.27-.26 0-.1.32-.63.22-.11-.72-2.14.16-2.2-.65.47 0-.75-.32.32-.49-.31-.08-1.77 0-1.64.3-.13.37-.7.69.19 1l.18-.27c.3.27.23.14.34.34 1.16 0 1.32.42 2.15.58.581-.207 1.21-.238 1.81-.09l.19.15c.27.31 1.32-.6 1-.07 2.37-.13 5.08-.13 7.73-.13.38-.21 2 0 1.45-.37 1.076.404 2.222.584 3.37.53 0 0-.06.09-.18.08 1.43.57 1.69-.54 3 .17.21-.5 2.42.16 3.17-.43.16.11.22.21.16.3 2.39 0 5 .19 7.07.21 1.73-.43 4.19.2 5.68-.4 1.655.243 3.334.29 5 .14l-.17.07c1.913.042 3.826-.106 5.71-.44.57.57 1.41.46 2.25.64 1.3-.27 3.92-.19 5.9-.43.3.27 1.63-.11 1.73.27 6.096-.623 12.24-.596 18.33.08h-.08c.76-.21 1.65-.68 2.43-1 .08 0 .07.1-.1.1 1.09-.07 2.1.31 3.18.24 0 .06 0 .06-.18.12 1-.17 2.09.31 3.29 0l.06.1.77-.14c0 .13-.05.32-.46.28 9.29.12 18.88-.54 28.41-.44l-.35.12 1.85-.22c0 .07-.1.1-.19.13 2.36.21 4.8-.15 7.1-.09 0 .06-.36.18 0 .25 1.7-.35 2.73.46 3.58-.27.053.021.088.073.088.13 0 .057-.035.109-.088.13 4.73-.24 9.58-.23 14.35-.11 4-.66 8.39-.06 12.52-.59v.14c5.34-.46 11 0 16.53-.06 2.29 0 3.84-.11 6.15-.11l.06.16c3.88-.62 8.16.56 12.21-.13l-.28.22c.63-.34 2.45.13 2.21-.46l.72.17c2.75-.77 5 .36 8.38-.14l-.22.14c.86-.136 1.734-.16 2.6-.07-.1 0 0 .07-.26.1 2.8.55 5.93-.06 8.89 0l-.33.25c1.43-.3 4.06 0 5.94-.16l-.12.13 1-.18v.25c2.19-.03 4.5-.25 6.89-.27z" transform="translate(0 -1487) translate(-49 814) translate(49 673)"/>
                    <path fill="#AED7CF" d="M1054.85 19.31c-.1.01-.06.01 0 0zM810.61 20.57l-.3-.05c.03.05.21.04.3.05zM1036.82 29.02L1036.78 28.95 1036.69 29.16zM1036.23 29.48v.15l.34-.6c-.12-.33-.24.68-.34.45zM1036.13 29.43c-.13-.14-.19.13-.22.23.09-.22.25.07.22-.23zM1024.45 29.56s0-.01 0 0zM1021.4 30.51v.22c.56-.39 1.21 0 1.81-.17v.08c1.494-.021 2.982-.172 4.45-.45 0 0 0 .09-.06.12s.15-.22.24-.21c.09.01 0 .11 0 .13.32.37.94-.23 1.14.05.098-.07.132-.2.08-.31 1.23-.053 2.454-.204 3.66-.45.06.05.07.15.05.28 1-.43 2.113-.52 3.17-.26 0-.16-.11-.17 0-.33-.34-.2-.63.38-.93.1v-.16c-.23-.09 0 .39-.28.19s0-.19 0-.2c-.48.06-1-.08-1.42.29-.11-.33-.51 0-.69-.33-.12.13-.25.1-.29.32-1.67-.17-3.37.14-5.08.12-.8.63-1.76-.12-2.7.09-.01-.022-.01-.048 0-.07-.35.17-.747.223-1.13.15l-.42.29c-2.23-.55-4.49-.16-6.75-.39-2.56-.16-4.81-.61-7.3.22v-.12c-.72.13-1.38-.1-2.06 0v-.06c-1.68.52-3.5-.07-5.12.49-2.102-.052-4.204.005-6.3.17v-.13c-1.67.27-3.29-.4-4.95-.2-1.72-.29-3.53.72-5.27.34-1.07-.62-2.47.7-3.48.06-2.07-1-4.07-.34-6.14.24-1.9-.34-3.81.54-5.65-.16-.88.45-1.84-.56-2.82-.43v.16c-.35-.48-.78.66-1-.05-.19-.35-.43.84-.54.42v.17c-.23.06 0-.19-.2-.27-.2-.08 0 .33-.16.22 0-.72-.55.16-.57-.65.12 0-.19-.31.09-.48-.096-.06-.218-.055-.31.01-.091.066-.135.18-.11.29 0 .36-.18.68 0 1v-.26c.046.105.076.216.09.33.29 0 .33.42.55.58.14-.32.35-.13.46-.08l.05.15c.07.31.34-.61.25-.08.661-.107 1.33-.15 2-.13.1-.2.52 0 .37-.37.152.336.491.549.86.54v.07c.36.58.43-.53.77.17.05-.5.62.16.81-.42.028.098.028.202 0 .3.61 0 1.29.19 1.81.21.44-.44 1.07.2 1.45-.41.381.234.847.285 1.27.14v.07c.525.041 1.046-.116 1.46-.44.15.58.36.46.58.64.33-.26 1-.18 1.51-.43.07.27.41-.11.44.28 1.505-.634 3.207-.605 4.69.08.2-.21.43-.68.63-.95v.1c.28-.08.54.3.81.23.018.041.018.089 0 .13.26-.17.53.31.84 0v.1l.19-.14c0 .12 0 .32-.12.27 2.38.13 4.83-.53 7.27-.44l-.09.12.47-.21c.002.046-.016.09-.05.12.61.22 1.23-.14 1.82-.09 0 .06-.09.19 0 .26.43-.35.7.45.91-.27.035.08.035.17 0 .25 1.211-.216 2.448-.253 3.67-.11 1-.65 2.15-.06 3.2-.58v.13c1.36-.46 2.81 0 4.22-.06.525-.007 1.05-.044 1.57-.11v.16c1-.62 2.08.56 3.12-.12l-.07.22c.16-.34.63.12.56-.47l.19.18c.7-.78 1.28.36 2.14-.14l-.06.13c.23-.1.5-.19.67-.06 0 0 0 .06-.07.1.72.55 1.52-.06 2.28 0l-.09.26c.37-.31 1 0 1.52-.16v.12l.24-.17v.24c.65-.08 1.24-.29 1.85-.32zM1027.72 30.23s-.02.01 0 0z" transform="translate(0 -1487) translate(-49 814) translate(49 673)"/>
                    <path fill="#AED7CF" d="M965.27 31.49h-.07s.05-.01.07 0zM1016.82 55.8L1016.74 55.73 1016.54 55.94zM1015.51 56.26s0 .11.06.15l.77-.6c-.34-.33-.61.68-.83.45zM1015.28 56.21c-.3-.14-.42.13-.49.23.1-.22.55.07.49-.23zM988.9 56.34h.1c-.031-.016-.069-.016-.1 0z" transform="translate(0 -1487) translate(-49 814) translate(49 673)"/>
                    <path fill="#AED7CF" d="M982 57.29l-.08.22c1.29-.39 2.74 0 4.09-.17l-.09.08c3.45.09 6.63-.28 10-.45-.06 0-.07.09-.13.12.158-.11.34-.181.53-.21.05 0 0 .11-.11.13.72.37 2.12-.23 2.58.05.2 0 .29-.19.17-.31 2.68-.09 5.54-.16 8.27-.45.13.05.15.15.12.28 2.358-.437 4.767-.524 7.15-.26.1-.16-.24-.17 0-.33-.77-.2-1.41.38-2.1.1l.09-.16c-.51-.09-.11.39-.63.19-.21-.12.05-.19 0-.2-1.075-.06-2.153.037-3.2.29-.25-.33-1.16 0-1.56-.33-.27.14-.55.1-.66.32-3.76-.17-7.6.14-11.46.12-1.8.63-4-.12-6.1.09-.838.178-1.697.229-2.55.15l-.7.27c-5-.55-10.14-.16-15.23-.39-5.78-.16-10.85-.61-16.49.22 0-.06 0-.1.11-.12-1.62.13-3.11-.1-4.64 0v-.06c-3.8.52-7.91-.07-11.57.49-4.46 0-9.5 0-14.22.17V57c-3.78.27-7.43-.4-11.19-.2-3.88-.29-8 .72-11.88.34-2.42-.62-5.59.7-7.86.07-4.67-1-9.2-.35-13.86.23-4.3-.34-8.6.54-12.77-.16-2 .45-4.15-.56-6.35-.43l.08.16c-.79-.48-1.76.66-2.25 0h.08c-.42-.35-1 .84-1.22.42l-.07.17c-.51.06-.06-.19-.45-.27-.15 0-.06.33-.36.22-.07-.72-1.24.16-1.28-.65.28 0-.43-.31.19-.48-.18-.09-1-.05-1 .3s-.4.68.11 1l.11-.26c.17.26.13.13.19.33.67 0 .77.42 1.25.58.33-.32.79-.13 1.05-.08l.11.15c.16.31.76-.61.56-.08 1.37-.13 2.93-.12 4.46-.13.22-.2 1.17 0 .84-.37.567.394 1.25.584 1.94.54 0 0 0 .09-.1.07.82.58 1-.53 1.74.17.12-.5 1.4.16 1.83-.42.1.107.13.207.09.3 1.38 0 2.91.19 4.08.21 1-.44 2.42.2 3.28-.41.934.239 1.907.286 2.86.14l-.1.07c1.114.05 2.228-.098 3.29-.44.34.58.82.46 1.31.64.74-.26 2.26-.18 3.4-.43.17.27.94-.11 1 .28 3.5-.633 7.09-.606 10.58.08h-.05c.44-.21 1-.68 1.41-1 0 0 0 .1-.06.1.62-.08 1.21.3 1.83.23 0 .07 0 .07-.1.13.58-.17 1.2.31 1.9 0v.1l.44-.14c0 .12 0 .32-.26.27 5.36.13 10.9-.53 16.4-.44l-.2.12 1.06-.21c0 .06 0 .09-.1.12 1.364.055 2.73.025 4.09-.09 0 .06-.21.19 0 .26 1-.35 1.58.45 2.07-.27.067.07.067.18 0 .25 2.755-.217 5.52-.253 8.28-.11 2.29-.65 4.85-.06 7.23-.58v.13c3.07-.46 6.34 0 9.53-.06 1.32.05 2.22-.1 3.55-.11v.16c2.24-.62 4.71.56 7-.12l-.16.22c.37-.34 1.42.12 1.28-.47l.41.18c1.59-.78 2.89.36 4.84-.14l-.13.13c.493-.133 1.009-.153 1.51-.06-.06 0 0 .06-.16.1 1.62.55 3.43-.06 5.14 0l-.2.26c.83-.3 2.35 0 3.43-.16l-.06.12.55-.17v.24c1.55-.12 2.89-.33 4.25-.36zM996.28 57s-.03 0 0 0z" transform="translate(0 -1487) translate(-49 814) translate(49 673)"/>
                    <path fill="#AED7CF" d="M855.32 58.27l-.17-.05c.01.05.12.04.17.05zM861.71 48.91L861.69 48.83 861.63 49.04zM861.36 49.37v.14l.21-.6c-.08-.33-.15.68-.21.46zM861.3 49.31c-.08-.14-.11.14-.13.23.03-.21.15.07.13-.23zM854.33 49.45s0-.02 0 0zM852.51 50.39v.22c.34-.39.72 0 1.08-.16v.08c.904-.03 1.799-.184 2.66-.46v.12c0-.08.09-.22.14-.2.013.039.013.081 0 .12.19.37.56-.23.68 0 .04-.1.04-.21 0-.31.743-.055 1.476-.207 2.18-.45.025.092.025.188 0 .28.62-.6 1.26-.36 1.89-.26 0-.16-.06-.17 0-.33-.2-.2-.37.38-.55.1v-.15c-.13-.1 0 .38-.17.18s0-.19 0-.2c-.28.06-.58-.07-.85.29-.06-.33-.3 0-.41-.32-.07.13-.14.09-.17.31-1.002-.028-2.004.012-3 .12-.48.64-1.05-.12-1.61.09-.01-.019-.01-.041 0-.06-.188.16-.442.216-.68.15l-.18.27c-1.33-.56-2.68-.17-4-.4-1.53-.16-2.87-.61-4.36.23v-.13c-.43.13-.82-.1-1.22 0v-.07c-1 .53-2.09-.07-3.06.5-1.256-.055-2.514-.002-3.76.16v-.13c-1 .27-2-.4-3-.2-1-.28-2.1.72-3.13.34-.64-.62-1.48.71-2.08.07-1.24-1-2.43-.35-3.67.23-1.13-.34-2.27.54-3.37-.16-.52.45-1.1-.56-1.68-.43v.16c-.21-.47-.46.66-.59 0-.11-.35-.26.85-.33.42v.18c-.14 0 0-.2-.12-.27s0 .32-.1.22c0-.72-.33.15-.34-.66.08 0-.11-.31 0-.48 0-.08-.27 0-.25.3-.081.328-.081.672 0 1v-.27c.015.11.015.22 0 .33.18 0 .2.42.33.58.09-.32.21-.14.28-.09v.15c.05.31.21-.61.15-.07.383-.113.782-.16 1.18-.14.06-.2.31 0 .22-.37.11.45.41.56.52.54.11-.02 0 .09 0 .07.22.58.26-.53.46.18 0-.5.37.15.48-.43.019.1.019.2 0 .3.36 0 .77.19 1.08.21.26-.43.64.2.86-.4.19.13.5.37.76.13v.08c.349.012.678-.159.87-.45.09.58.22.46.35.65.2-.27.6-.19.9-.43 0 .26.25-.12.26.27.836-.636 2.002-.603 2.8.08.11-.22.25-.68.37-1v.1c.17-.07.32.31.49.23.015.042.015.088 0 .13.15-.17.32.31.5 0v.1l.12-.14c0 .13 0 .32-.07.28 1.42.12 2.88-.54 4.33-.45l-.05.13.28-.22c.013.039.013.081 0 .12.36.22.74-.14 1.09-.09 0 .07-.06.19 0 .26.26-.35.42.45.55-.27.02.082.02.168 0 .25.71-.211 1.462-.249 2.19-.11.6-.65 1.28-.06 1.91-.58v.13c.82-.45 1.68 0 2.53-.06.35.06.58-.1.93-.11v.17c.6-.62 1.25.55 1.87-.13l-.05.22c.1-.34.38.12.34-.47l.11.18c.42-.77.76.36 1.28-.14v.14c.14-.11.3-.2.4-.07.005.033.005.067 0 .1.43.55.91-.06 1.36 0v.26c.22-.3.62 0 .9-.16v.12l.14-.17v.24c.348-.052.692-.125 1.03-.22zM856.28 50.11s-.01.01 0 0zM819 51.38v-.06.06zM970.53 71.09L970.51 71.02 970.46 71.23zM970.18 71.55v.14l.2-.59c-.07-.34-.14.68-.2.45zM970.12 71.5c-.08-.14-.11.13-.13.23.01-.22.15.07.13-.23zM963.15 71.63s0-.01 0 0zM961.33 72.58v.22c.34-.39.72 0 1.08-.17v.08c.9-.022 1.793-.174 2.65-.45v.11c0 .02.09-.22.14-.2.017.042.017.088 0 .13.19.37.56-.23.68 0 .062-.09.08-.204.05-.31.743-.055 1.476-.207 2.18-.45.03.091.03.189 0 .28.62-.6 1.26-.36 1.89-.27 0-.15-.06-.16 0-.33-.2-.19-.37.39-.55.1v-.15c-.13-.09 0 .38-.16.19s0-.19 0-.2c-.28.06-.58-.08-.84.29-.07-.33-.31 0-.41-.33-.08.13-.15.1-.18.32-1.002-.033-2.004.007-3 .12-.48.63-1-.12-1.61.09-.01-.022-.01-.048 0-.07-.186.164-.443.22-.68.15l-.18.27c-1.33-.55-2.68-.16-4-.39-1.53-.16-2.87-.62-4.35.22v-.12c-.43.13-.82-.1-1.22 0v-.06c-1 .52-2.09-.07-3.06.49-1.256-.052-2.514.005-3.76.17v-.13c-1 .26-2-.4-2.95-.2-1-.29-2.11.72-3.14.34-.64-.62-1.48.7-2.08.06-1.24-1-2.43-.34-3.66.24-1.14-.35-2.28.54-3.38-.16-.52.45-1.1-.56-1.68-.43v.15c-.21-.47-.46.67-.59 0-.11-.35-.26.84-.32.42v.17c-.14.06 0-.2-.12-.27s0 .33-.1.22c0-.72-.32.16-.33-.65.07 0-.12-.31.05-.48-.05-.09-.27 0-.25.3-.088.327-.088.673 0 1v-.26c.032.107.049.218.05.33.18 0 .21.42.33.58.09-.32.21-.13.28-.08v.15c0 .3.2-.61.14-.08.388-.104.789-.148 1.19-.13.05-.2.3 0 .22-.37.1.44.4.55.51.54.11-.01 0 .09 0 .07.22.57.26-.53.46.17 0-.5.37.16.49-.42.014.096.014.194 0 .29.37 0 .77.19 1.08.22.26-.44.64.19.87-.41.18.13.49.38.75.14v.07c.347.014.676-.152.87-.44.08.57.21.46.34.64.2-.26.6-.18.9-.43.05.27.25-.11.26.28.835-.635 1.998-.606 2.8.07.11-.21.25-.68.37-1v.09c.17-.07.32.31.49.24.013.042.013.088 0 .13.16-.18.32.3.5 0v.11l.12-.15c0 .13 0 .32-.07.28 1.42.13 2.88-.54 4.33-.44v.12l.28-.22c.014.042.014.088 0 .13.36.22.74-.14 1.09-.09 0 .06-.06.19 0 .26.26-.35.42.45.55-.27.02.082.02.168 0 .25.71-.216 1.462-.254 2.19-.11.6-.65 1.28-.06 1.91-.58v.13c.81-.46 1.67 0 2.52-.06.316-.008.63-.044.94-.11v.16c.6-.62 1.25.56 1.87-.12v.22c.09-.34.37.12.33-.47l.11.18c.42-.78.77.36 1.28-.15v.14c.13-.1.29-.19.39-.06.1.13 0 .06 0 .1.43.55.91-.06 1.36 0v.26c.22-.31.62 0 .91-.16v.12l.14-.17v.24c.247-.069.49-.149.73-.24zM965.1 72.3s-.01.01 0 0zM927.84 73.56h-.05s.03-.01.05 0zM618.34 26.08L618.38 26.16 618.48 25.95zM619 25.62v-.14l-.39.6c.14.33.27-.68.39-.46zM619.11 25.68c.15.14.21-.14.25-.23-.06.21-.28-.07-.25.23zM632.3 25.54s-.01.02 0 0zM635.74 24.6v-.22c-.65.39-1.37 0-2 .16v-.08c-1.676.03-3.347.184-5 .46 0 0 0-.09.07-.12s-.18.22-.27.2c-.09-.02 0-.1.06-.12-.36-.37-1.06.23-1.29-.05-.11.061-.15.2-.09.31-1.386.052-2.766.202-4.13.45-.07-.05-.08-.15-.06-.28-1.142.434-2.387.524-3.58.26 0 .16.12.17 0 .33.38.2.7-.38 1-.1v.15c.25.1 0-.38.31-.18s0 .19 0 .2c.55.052 1.104-.048 1.6-.29.13.33.58 0 .78.32.14-.13.28-.09.33-.31 1.88.17 3.8-.15 5.73-.12.9-.64 2 .12 3-.09.01.019.01.041 0 .06.401-.166.84-.218 1.27-.15l.36-.27c2.5.56 5.06.17 7.61.4 2.89.16 5.42.61 8.24-.23v.13c.81-.13 1.55.1 2.32 0v.07c1.9-.53 4 .07 5.79-.5 2.23.06 4.75 0 7.11-.16v.13c1.89-.27 3.72.4 5.6.2 1.94.28 4-.72 5.94-.34 1.21.62 2.8-.71 3.93-.07 2.33 1 4.6.35 6.93-.23 2.15.34 4.3-.54 6.38.16 1-.45 2.08.56 3.18.43v-.16c.39.47.88-.66 1.12 0 .21.35.49-.85.62-.42v-.18c.25-.05 0 .2.22.27s0-.32.18-.22c0 .72.62-.15.64.66-.14 0 .22.31-.09.48.09.08.51 0 .47-.3-.04-.3.2-.68 0-1l-.06.27c-.045-.105-.075-.216-.09-.33-.34 0-.38-.42-.63-.58-.17.32-.4.14-.53.09v-.15c-.08-.31-.38.61-.28.07-.738.114-1.484.16-2.23.14-.11.2-.59 0-.42.37-.189-.37-.587-.585-1-.54v-.07c-.41-.58-.49.53-.87-.18-.06.5-.7-.15-.92.43-.028-.098-.028-.202 0-.3-.69 0-1.46-.19-2-.21-.5.43-1.21-.2-1.64.4-.44-.232-.955-.279-1.43-.13l.05-.08c-.584-.034-1.164.124-1.65.45-.16-.58-.41-.46-.65-.65-.37.27-1.13.19-1.7.43-.09-.26-.47.12-.5-.27-1.712.634-3.598.605-5.29-.08-.22.22-.47.68-.7 1v-.1c-.31.07-.61-.31-.92-.23 0-.07 0-.07.06-.13-.3.17-.61-.31-.95 0v-.1l-.22.14c0-.13 0-.32.13-.28-2.68-.12-5.45.54-8.2.45l.1-.13-.53.22c-.017-.038-.017-.082 0-.12-.68-.22-1.38.14-2 .09 0-.07.11-.19 0-.26-.49.35-.78-.45-1 .27v-.25c-1.37.212-2.76.249-4.14.11-1.14.65-2.42.06-3.61.58v-.13c-1.54.45-3.18 0-4.77.06-.595.002-1.19.039-1.78.11v-.17c-1.12.62-2.36-.55-3.53.13l.08-.22c-.18.34-.7-.12-.64.47l-.2-.18c-.8.77-1.45-.36-2.42.14l.06-.14c-.26.11-.56.2-.75.07 0 0 0-.06.08-.1-.81-.55-1.71.06-2.57 0l.1-.26c-.42.3-1.17 0-1.72.16v-.12l-.28.17v-.24c-.76.03-1.43.24-2.12.27z" transform="translate(0 -1487) translate(-49 814) translate(49 673)"/>
                    <path fill="#AED7CF" d="M699.09 23.61l.08.06c0-.06-.05-.04-.08-.06zM561.71 39.95L561.63 39.87 561.44 40.08zM560.4 40.41s0 .1.06.14l.77-.59c-.35-.34-.6.67-.83.45zM560.17 40.35c-.3-.14-.42.14-.49.23.1-.21.56.07.49-.23zM533.79 40.49h.09c-.028-.016-.062-.016-.09 0z" transform="translate(0 -1487) translate(-49 814) translate(49 673)"/>
                    <path fill="#AED7CF" d="M526.91 41.43l-.07.23c1.28-.4 2.73 0 4.09-.17l-.09.08c3.44.08 6.62-.29 10-.46 0 0-.07.09-.13.12.17-.08.35-.22.54-.2.19.02-.06.1-.12.12.73.37 2.13-.23 2.58.05.2 0 .29-.19.18-.31 2.67-.09 5.54-.16 8.26-.45.056.017.102.058.125.112.023.054.021.115-.005.168 2.361-.437 4.773-.524 7.16-.26.09-.16-.25-.17 0-.33-.77-.2-1.41.38-2.1.1l.09-.15c-.51-.1-.1.38-.63.18-.21-.12 0-.19 0-.2-1.078-.056-2.16.042-3.21.29-.25-.32-1.16 0-1.55-.32-.28.13-.56.09-.67.31-3.76-.17-7.6.15-11.46.12-1.8.64-4-.12-6.1.09v-.06c-.838.173-1.697.224-2.55.15l-.7.27c-5-.55-10.14-.17-15.23-.4-5.78-.15-10.85-.61-16.48.23 0-.07 0-.1.1-.12-1.62.12-3.1-.11-4.64 0v-.07c-3.8.53-7.91-.07-11.57.5-4.46-.06-9.5 0-14.22.16v-.13c-3.78.27-7.42-.4-11.19-.2-3.88-.28-8 .72-11.88.34-2.42-.62-5.59.71-7.86.07-4.67-1-9.2-.35-13.86.23-4.3-.34-8.6.54-12.77-.16-2 .45-4.15-.56-6.35-.43l.08.16c-.79-.47-1.76.66-2.25 0h.08c-.42-.36-1 .84-1.22.41l-.07.18c-.51 0-.06-.2-.45-.27-.15 0-.06.32-.36.22-.07-.72-1.24.15-1.27-.66.27 0-.44-.31.18-.48-.17-.08-1 0-.95.3.05.3-.4.69.12 1l.1-.27c.17.27.13.13.19.33.68 0 .77.42 1.25.58.33-.32.78-.14 1-.09l.11.15c.16.31.76-.6.56-.07 1.37-.14 2.93-.13 4.46-.14.22-.2 1.17 0 .84-.37.565.398 1.25.589 1.94.54 0 0 0 .09-.1.08.82.57 1-.54 1.74.17.12-.5 1.4.16 1.83-.43.1.107.13.207.09.3 1.39 0 2.91.19 4.08.21 1-.43 2.42.2 3.28-.4.935.235 1.908.28 2.86.13l-.1.08c1.118.042 2.234-.11 3.3-.45.33.58.81.46 1.3.65.75-.27 2.26-.19 3.4-.43.18.26.94-.12 1 .27 3.501-.628 7.089-.6 10.58.08h-.05c.44-.21 1-.68 1.41-1 0 0 0 .1-.06.1.63-.07 1.21.31 1.83.24 0 .06 0 .06-.1.12.58-.17 1.21.31 1.9 0v.1l.44-.14c0 .13 0 .32-.27.28 5.36.12 10.9-.54 16.4-.44l-.2.12 1.07-.22c-.014.056-.055.101-.11.12 1.364.055 2.73.025 4.09-.09 0 .07-.2.19 0 .26 1-.35 1.58.45 2.07-.27 0 0 .07.2 0 .25 2.755-.213 5.52-.247 8.28-.1 2.29-.66 4.85-.07 7.23-.59v.13c3.08-.45 6.34 0 9.53-.06 1.33.06 2.22-.1 3.55-.11v.17c2.24-.62 4.71.55 7.05-.13l-.17.22c.37-.34 1.42.12 1.28-.46l.41.17c1.59-.77 2.89.36 4.84-.14l-.13.14c.491-.14 1.008-.164 1.51-.07-.06 0 0 .06-.16.1 1.62.55 3.43-.06 5.14 0l-.2.26c.83-.3 2.35 0 3.43-.16l-.06.12.55-.17v.25c1.5-.04 2.83-.25 4.21-.28zM541.17 41.15s-.03.01 0 0z" transform="translate(0 -1487) translate(-49 814) translate(49 673)"/>
                    <path fill="#AED7CF" d="M400.21 42.42c-.059-.014-.116-.034-.17-.06.01.06.12.04.17.06zM538.59 28.43L538.56 28.36 538.47 28.56zM538 28.89v.14l.35-.59c-.14-.34-.25.68-.35.45zM537.89 28.83c-.14-.14-.19.14-.23.24.05-.22.26.06.23-.24zM525.83 29s.01 0 0 0z" transform="translate(0 -1487) translate(-49 814) translate(49 673)"/>
                    <path fill="#AED7CF" d="M522.69 29.92v.22c.59-.4 1.25 0 1.87-.17v.08c1.54-.02 3.075-.17 4.59-.45 0 0 0 .09-.06.11-.06.02.16-.22.25-.2.09.02 0 .11 0 .13.33.36 1-.24 1.17.05.105-.065.144-.199.09-.31 1.266-.06 2.526-.214 3.77-.46.059.08.08.182.06.28 1.036-.428 2.18-.52 3.27-.26 0-.16-.11-.16 0-.33-.35-.19-.64.39-1 .1v-.15c-.24-.09 0 .38-.29.19s0-.2 0-.21c-.49.07-1-.07-1.47.3-.11-.33-.53 0-.71-.33-.13.13-.25.1-.3.31-1.72-.17-3.48.15-5.24.12-.82.64-1.81-.12-2.79.1V29c-.361.17-.767.223-1.16.15l-.32.27c-2.29-.55-4.63-.16-7-.39-2.65-.16-5-.62-7.54.22v-.12c-.74.12-1.42-.1-2.12 0v-.06c-1.74.52-3.62-.07-5.29.49-2.168-.055-4.337-.002-6.5.16v-.12c-1.72.26-3.39-.4-5.11-.21-1.77-.28-3.64.73-5.43.34-1.1-.61-2.56.71-3.59.07-2.14-1-4.2-.34-6.34.24-2-.35-3.93.53-5.83-.17-.9.45-1.9-.55-2.9-.42v.15c-.36-.47-.8.66-1 0-.19-.36-.44.84-.56.41v.18c-.23.05 0-.2-.2-.27s0 .32-.17.22c0-.72-.57.16-.58-.65.12 0-.2-.32.08-.49-.098-.048-.214-.039-.303.024-.09.062-.138.168-.127.276 0 .37-.18.69.05 1l.05-.27c.045.109.075.223.09.34.31 0 .35.42.57.58.15-.32.36-.13.47-.09l.05.15c.08.31.35-.6.26-.07.66-.108 1.33-.151 2-.13.1-.21.53 0 .38-.37.175.329.518.533.89.53 0 .05 0 .09-.05.08.38.57.45-.54.8.17.05-.5.64.16.83-.43.044.093.061.197.05.3.63 0 1.33.19 1.86.21.46-.43 1.11.2 1.5-.4.395.235.874.286 1.31.14l-.05.07c.539.03 1.072-.125 1.51-.44.15.57.37.46.59.64.34-.27 1-.19 1.56-.43.08.27.43-.11.45.27 1.559-.623 3.303-.595 4.84.08.2-.21.43-.68.64-1v.1c.29-.07.56.31.84.24 0 .06 0 .06-.05.12.27-.17.55.31.87 0v.1l.2-.14c0 .13 0 .32-.12.28 2.45.12 5-.54 7.49-.44l-.09.12.49-.22c0 .048-.018.094-.05.13.62.21 1.26-.15 1.87-.09 0 .06-.09.18 0 .25.45-.35.72.46.94-.27.04.082.04.178 0 .26 1.252-.217 2.528-.254 3.79-.11 1-.66 2.21-.06 3.3-.59v.14c1.41-.46 2.9 0 4.36-.06.61.05 1-.11 1.63-.11v.16c1-.62 2.15.56 3.22-.13l-.07.22c.16-.34.64.13.58-.46l.19.17c.73-.77 1.32.36 2.21-.14l-.06.14c.205-.133.462-.16.69-.07 0 0 0 .07-.07.1.74.55 1.56-.06 2.35 0l-.09.25c.37-.3 1.07 0 1.56-.16v.13l.26-.18v.25c.65-.06 1.26-.28 1.89-.3zM529.21 29.64s-.02.01 0 0z" transform="translate(0 -1487) translate(-49 814) translate(49 673)"/>
                    <path fill="#AED7CF" d="M464.79 30.9h-.08s.05-.01.08 0zM483.3 19.57L483.26 19.49 483.16 19.7zM482.63 20v.14l.39-.59c-.15-.31-.28.7-.39.45zM482.51 20c-.16-.14-.22.14-.25.23.05-.23.28.04.25-.23zM465.44 21.05v.23c.66-.4 1.41 0 2.1-.17v.08c1.726-.03 3.447-.183 5.15-.46 0 0 0 .09-.07.12s.18-.22.28-.2c.1.02 0 .1-.06.12.37.37 1.09-.23 1.32.05.055-.027.096-.077.113-.135.017-.06.009-.122-.023-.175 1.422-.051 2.839-.202 4.24-.45.07.05.08.15.07.28 1.174-.434 2.447-.525 3.67-.26 0-.16-.13-.17 0-.33-.39-.2-.72.38-1.07.1v-.15c-.26-.1-.05.38-.32.18-.11-.12 0-.19 0-.2-.566-.053-1.136.047-1.65.29-.13-.33-.59 0-.8-.32-.14.13-.28.09-.34.31-1.93-.17-3.9.15-5.88.12-.92.64-2-.12-3.13.09v-.06c-.414.171-.868.223-1.31.15l-.36.27c-2.57-.56-5.2-.17-7.81-.4-3-.16-5.57-.61-8.46.23 0-.07 0-.1.06-.12-.84.12-1.6-.11-2.38 0v-.04c-1.95.53-4.06-.07-5.94.5-2.29-.06-4.87 0-7.29.16v-.13c-1.94.27-3.81-.4-5.74-.2-2-.28-4.09.72-6.1.34-1.24-.62-2.87.71-4 .07-2.4-1-4.72-.35-7.11.23-2.21-.34-4.42.54-6.55-.16-1 .45-2.14-.56-3.26-.43v.16c-.41-.47-.91.66-1.16 0-.21-.35-.49.85-.62.42v.18c-.26 0 0-.2-.23-.27s0 .32-.18.22c0-.72-.64.15-.66-.66.14 0-.22-.31.1-.48-.09-.08-.53 0-.49.3.04.3-.2.69.06 1l.05-.27c.09.27.07.13.1.33.35 0 .39.42.64.58.17-.32.4-.14.54-.09l.05.15c.08.31.39-.61.29-.07.758-.114 1.524-.16 2.29-.14.11-.2.6 0 .43-.37.204.355.591.564 1 .54 0 0 0 .09-.06.08.42.57.5-.54.9.17.06-.5.71.15.93-.43.049.092.066.197.05.3.71 0 1.5.19 2.1.21.51-.43 1.24.2 1.68-.4.456.156.953.142 1.4-.04v.08c.594.035 1.183-.123 1.68-.45.17.58.42.46.67.65.39-.27 1.16-.19 1.75-.43.09.26.48-.12.51.27 1.76-.634 3.69-.605 5.43.08.22-.21.49-.68.72-1v.1c.32-.07.62.31.94.23 0 .07 0 .07-.06.13.3-.17.62.31 1 0v.1l.22-.14c0 .13 0 .32-.13.28 2.75.12 5.59-.54 8.41-.44l-.1.12.55-.22c-.003.047-.024.09-.06.12.7.22 1.42-.14 2.1-.09 0 .07-.1.19 0 .26.51-.35.81.45 1.06-.27.04.079.04.171 0 .25 1.407-.212 2.834-.249 4.25-.11 1.17-.65 2.49-.06 3.71-.58v.13c1.58-.45 3.26 0 4.89-.06.612-.002 1.223-.039 1.83-.11v.17c1.15-.62 2.42.55 3.62-.13l-.08.22c.18-.34.72.12.65-.46l.21.17c.82-.77 1.49.36 2.49-.14l-.07.14c.27-.11.58-.2.77-.07 0 0 0 .06-.08.1.83.55 1.76-.06 2.64 0l-.1.26c.42-.3 1.2 0 1.76-.16v.12l.29-.17v.25c.58.09 1.26-.12 1.97-.15zM472.76 20.77s-.02.01 0 0z" transform="translate(0 -1487) translate(-49 814) translate(49 673)"/>
                    <path fill="#AED7CF" d="M400.43 22l-.09-.06c.01.06.06.06.09.06zM451.92 30.89L451.86 30.81 451.71 31.02zM450.91 31.35v.14l.59-.59c-.22-.34-.41.67-.59.45zM450.73 31.29c-.23-.14-.32.14-.38.24.09-.22.44.06.38-.24zM430.4 31.43h.07c-.02-.015-.05-.015-.07 0z" transform="translate(0 -1487) translate(-49 814) translate(49 673)"/>
                    <path fill="#AED7CF" d="M425.1 32.38l-.06.22c1-.4 2.11 0 3.15-.17l-.07.08c2.59-.023 5.176-.177 7.75-.46-.05 0-.06.09-.1.12.13-.08.27-.22.41-.2.14.02 0 .1-.09.13.56.36 1.64-.24 2 0 .067-.012.123-.057.15-.12.026-.062.018-.134-.02-.19 2.07-.1 4.27-.17 6.37-.46.11.06.12.15.1.28 1.804-.431 3.673-.52 5.51-.26.07-.16-.18-.17 0-.33-.59-.19-1.09.39-1.62.1l.07-.15c-.39-.1-.08.38-.49.18-.16-.12 0-.19 0-.2-.834-.055-1.671.043-2.47.29-.2-.32-.89 0-1.2-.32-.22.13-.43.1-.51.31-2.9-.17-5.86.15-8.83.12-1.39.64-3.06-.12-4.71.09-.01-.019-.01-.041 0-.06-.65.178-1.33.229-2 .15l-.54.27c-3.87-.55-7.82-.17-11.74-.39-4.46-.16-8.36-.62-12.71.22 0-.07 0-.1.09-.12-1.26.12-2.4-.1-3.58 0v-.06c-2.92.52-6.09-.07-8.91.49-3.44-.06-7.32 0-11 .16v-.13c-2.91.27-5.73-.4-8.63-.2-3-.28-6.14.72-9.15.34-1.87-.62-4.32.71-6.07.07-3.59-1-7.08-.34-10.68.23-3.31-.34-6.62.54-9.84-.16-1.52.45-3.2-.56-4.89-.43l.06.16c-.61-.47-1.36.66-1.74 0h.07c-.32-.36-.75.84-1 .41v.18c-.39.05 0-.2-.34-.27-.12 0-.05.32-.28.22-.06-.72-1 .15-1-.65.21 0-.34-.32.14-.49-.14-.08-.79 0-.73.3.06.3-.31.69.08 1l.08-.27c.14.27.11.14.15.33.52 0 .59.43 1 .58.26-.32.61-.13.81-.09l.08.15c.12.31.59-.6.43-.07 1.143-.11 2.292-.154 3.44-.13.17-.21.9 0 .65-.38.4.387.946.583 1.5.54 0 0 0 .09-.08.08.63.57.75-.54 1.34.17.09-.5 1.07.16 1.41-.43.068.084.094.195.07.3 1.07 0 2.24.19 3.14.21.77-.43 1.87.2 2.53-.4.709.238 1.467.286 2.2.14l-.07.07c.882.035 1.76-.13 2.57-.48.25.58.63.47 1 .65.58-.27 1.74-.19 2.62-.43.14.27.73-.11.78.27 2.684-.623 5.478-.595 8.15.08.378-.313.739-.647 1.08-1v.1c.48-.07.93.31 1.41.24 0 .06 0 .06-.08.12.45-.17.93.31 1.47 0v.1l.33-.14c0 .13 0 .32-.2.28 4.13.12 8.4-.54 12.64-.44l-.16.12.83-.22c-.008.055-.042.103-.09.13 1.054.045 2.11.015 3.16-.09 0 .06-.16.18 0 .25.76-.35 1.22.45 1.6-.27 0 0 .06.2 0 .26 2.12-.217 4.254-.254 6.38-.11 1.76-.66 3.74-.07 5.57-.59v.14c2.37-.46 4.89 0 7.35-.06 1 0 1.71-.11 2.74-.12v.17c1.73-.62 3.63.55 5.43-.13l-.12.22c.28-.34 1.09.12 1-.46l.32.17c1.23-.77 2.23.36 3.73-.14l-.1.14c.371-.138.775-.162 1.16-.07 0 0 0 .06-.12.1 1.25.55 2.64-.06 4 0l-.15.26c.64-.3 1.81 0 2.64-.16v.13l.43-.18v.25c.9.04 1.9-.17 3-.19zM436.09 32.1s-.02.01 0 0z" transform="translate(0 -1487) translate(-49 814) translate(49 673)"/>
                    <path fill="#AED7CF" d="M327.45 33.36l-.14-.06c.01.06.09.04.14.06zM374.07 21.76L374.04 21.68 373.95 21.89zM373.47 22.22v.14l.35-.59c-.13-.34-.24.67-.35.45zM373.37 22.16c-.14-.14-.2.14-.23.23.05-.21.26.07.23-.23zM361.31 22.3h.05s-.04-.02-.05 0z" transform="translate(0 -1487) translate(-49 814) translate(49 673)"/>
                    <path fill="#AED7CF" d="M358.17 23.24v.23c.59-.4 1.25 0 1.87-.17v.08c1.54-.028 3.075-.182 4.59-.46 0 0 0 .09-.06.12s.16-.22.25-.2c.09.02 0 .1-.05.12.33.37 1-.23 1.17.05.106-.065.141-.202.08-.31 1.27-.052 2.534-.202 3.78-.45.06.05.07.15.06.28 1.036-.428 2.18-.52 3.27-.26 0-.16-.11-.17 0-.33-.35-.2-.64.38-1 .1v-.15c-.23-.1 0 .38-.28.18s0-.19 0-.2c-.49.06-1-.07-1.47.29-.11-.32-.53 0-.71-.32-.13.13-.25.1-.3.31-1.72-.17-3.48.15-5.24.12-.82.64-1.81-.12-2.79.09v-.06c-.361.17-.767.223-1.16.15l-.32.27c-2.3-.56-4.64-.17-7-.4-2.65-.16-5-.61-7.54.23 0-.07 0-.1.05-.12-.74.12-1.42-.11-2.12 0v-.07c-1.73.53-3.61-.07-5.28.5-2.168-.055-4.337-.002-6.5.16v-.13c-1.72.27-3.39-.4-5.11-.2-1.77-.28-3.64.72-5.43.34-1.1-.62-2.56.71-3.59.07-2.14-1-4.2-.35-6.34.23-2-.34-3.93.54-5.83-.16-.9.45-1.9-.56-2.9-.43v.16c-.36-.47-.8.66-1 0-.19-.36-.44.84-.56.41v.18c-.23.05 0-.2-.2-.27s0 .32-.17.22c0-.72-.57.15-.58-.66.12 0-.2-.31.08-.48-.098-.048-.214-.039-.303.024-.09.062-.138.168-.127.276 0 .37-.18.69.05 1v-.27c.045.105.075.216.09.33.3 0 .35.42.57.58.15-.32.35-.14.47-.09v.15c.07.31.35-.61.26-.07.66-.111 1.33-.158 2-.14.1-.2.53 0 .38-.37.16.343.512.556.89.54v.08c.38.57.45-.54.8.17.05-.5.64.16.83-.43.044.093.061.197.05.3.63 0 1.33.19 1.86.21.46-.43 1.11.2 1.5-.4.393.231.869.279 1.3.13v.08c.54.032 1.075-.128 1.51-.45.15.58.37.46.59.65.34-.27 1-.19 1.56-.43.08.26.43-.12.45.27 1.557-.634 3.305-.605 4.84.08.2-.21.43-.68.64-1v.1c.29-.07.55.31.84.24 0 .06 0 .06-.05.12.27-.17.55.31.87 0v.1l.2-.14c0 .13 0 .32-.12.28 2.45.12 5-.54 7.49-.44l-.09.12.49-.22c-.005.044-.022.086-.05.12.62.22 1.26-.14 1.87-.09 0 .07-.1.19 0 .26.45-.35.72.45.94-.27v.25c1.252-.213 2.528-.247 3.79-.1 1-.66 2.21-.07 3.3-.59v.13c1.41-.45 2.9 0 4.36-.06.542-.001 1.083-.038 1.62-.11v.17c1-.62 2.15.55 3.22-.13l-.07.22c.16-.34.64.12.58-.46l.19.17c.72-.77 1.32.36 2.21-.14l-.06.14c.24-.11.51-.2.69-.07 0 0 0 .06-.07.1.74.55 1.56-.06 2.34 0l-.08.26c.37-.3 1.07 0 1.56-.16v.12l.25-.17v.25c.66-.04 1.27-.25 1.9-.28zM364.69 23s-.02 0 0 0z" transform="translate(0 -1487) translate(-49 814) translate(49 673)"/>
                    <path fill="#AED7CF" d="M300.27 24.23c-.03-.014-.058-.035-.08-.06 0 .06.05.04.08.06zM338.27 51.77L338.24 51.7 338.14 51.9zM337.67 52.23v.14l.35-.59c-.13-.34-.25.68-.35.45zM337.56 52.17c-.13-.14-.19.14-.22.24.05-.22.26.06.22-.24zM325.51 52.31s.01-.02 0 0zM322.36 53.26v.22c.59-.4 1.25 0 1.87-.17v.08c1.54-.02 3.075-.171 4.59-.45 0 0 0 .09-.06.11-.06.02.16-.22.24-.2.08.02 0 .11-.05.13.33.37 1-.24 1.18.05.098-.07.132-.2.08-.31 1.269-.063 2.532-.213 3.78-.45.06.076.08.177.05.27 1.037-.423 2.18-.514 3.27-.26.05-.15-.11-.16 0-.33-.35-.19-.64.39-1 .1v-.15c-.23-.09-.05.38-.29.19-.09-.13 0-.2 0-.21-.49.07-1-.07-1.46.3-.12-.33-.53 0-.71-.33-.13.13-.26.1-.3.31-1.72-.17-3.48.15-5.24.12-.83.64-1.81-.12-2.79.1-.01-.022-.01-.048 0-.07-.365.172-.774.224-1.17.15l-.32.27c-2.29-.55-4.63-.16-7-.39-2.64-.16-5-.62-7.53.22 0-.06 0-.1.05-.12-.74.13-1.42-.1-2.12 0v-.06c-1.74.52-3.61-.07-5.29.49-2 0-4.34 0-6.49.16v-.12c-1.73.26-3.39-.4-5.12-.2-1.77-.29-3.64.72-5.42.34-1.11-.62-2.56.7-3.6.06-2.13-1-4.2-.34-6.33.24-2-.35-3.93.54-5.83-.17-.91.45-1.9-.55-2.91-.42v.15c-.36-.47-.81.66-1 0-.19-.36-.45.84-.56.41v.18c-.23 0 0-.2-.21-.27s0 .32-.16.22c0-.72-.57.16-.59-.65.13 0-.19-.32.09-.49-.1-.05-.218-.04-.308.026-.09.065-.137.174-.122.284 0 .36-.19.68.05 1l.05-.27c.043.109.07.223.08.34.31 0 .35.42.57.58.15-.32.36-.13.48-.08l.05.14c.07.31.35-.6.25-.07.661-.107 1.33-.15 2-.13.09-.21.53 0 .38-.37.17.33.51.537.88.54v.07c.37.57.44-.53.79.17.06-.5.64.16.84-.43.028.098.028.202 0 .3.63 0 1.33.19 1.87.21.45-.43 1.1.2 1.5-.4.392.235.867.286 1.3.14v.07c.536.031 1.066-.124 1.5-.44.15.57.37.46.6.64.34-.27 1-.19 1.55-.43.08.27.43-.11.46.27 1.555-.624 3.296-.595 4.83.08.23-.322.444-.656.64-1v.1c.28-.07.55.31.84.24-.004.044-.021.086-.05.12.26-.17.55.31.87 0v.11l.2-.15c0 .13 0 .32-.12.28 2.45.13 5-.54 7.5-.44l-.09.12.48-.22c.004.049-.014.097-.05.13.63.21 1.27-.15 1.88-.09 0 .06-.1.18 0 .25.44-.35.72.46.94-.27.034.083.034.177 0 .26 1.248-.216 2.521-.253 3.78-.11 1.05-.66 2.22-.06 3.31-.58v.13c1.41-.46 2.9 0 4.36-.06.542-.007 1.082-.044 1.62-.11v.16c1-.62 2.15.56 3.22-.13l-.08.23c.17-.35.65.12.59-.47l.19.18c.72-.78 1.32.35 2.21-.15l-.06.14c.205-.137.465-.16.69-.06 0 0 0 .06-.08.09.75.55 1.57-.06 2.35 0l-.09.25c.38-.3 1.07 0 1.57-.16v.13l.25-.17v.24c.64-.04 1.25-.26 1.88-.28zM328.88 53s-.01 0 0 0z" transform="translate(0 -1487) translate(-49 814) translate(49 673)"/>
                    <path fill="#AED7CF" d="M264.46 54.24l-.08-.05c.01.05.06.04.08.05zM133.85 22.41L133.81 22.33 133.72 22.54zM133.25 22.86v.15l.35-.6c-.13-.33-.25.68-.35.45zM133.14 22.81c-.13-.14-.19.14-.22.23.08-.22.25.07.22-.23zM121.09 23s.01-.07 0 0zM117.94 23.89v.22c.59-.39 1.25 0 1.87-.16v.08c1.54-.029 3.075-.183 4.59-.46 0 0 0 .09-.06.12s.16-.22.24-.21c.021.05 0 .107-.05.13.33.37 1-.23 1.18.05.098-.07.132-.2.08-.31 1.27-.053 2.533-.203 3.78-.45.06.05.07.15.05.28 1.034-.433 2.18-.524 3.27-.26 0-.16-.11-.17 0-.33-.35-.2-.64.38-1 .1v-.15c-.23-.1-.05.38-.29.18s0-.19 0-.2c-.49.06-1-.08-1.46.29-.12-.33-.53 0-.71-.33-.13.14-.26.1-.31.32-1.71-.17-3.47.14-5.23.12-.83.64-1.81-.12-2.79.09-.01-.019-.01-.041 0-.06-.366.166-.774.219-1.17.15l-.32.27c-2.29-.56-4.63-.17-7-.4-2.64-.16-5-.61-7.53.22v-.12c-.74.13-1.42-.1-2.12 0V23c-1.74.52-3.61-.07-5.29.5-2-.06-4.34 0-6.5.16v-.13c-1.73.27-3.39-.4-5.12-.2-1.77-.29-3.64.72-5.42.34-1.11-.62-2.56.7-3.6.07-2.13-1-4.2-.35-6.33.23-2-.34-3.93.54-5.83-.16-.91.45-1.9-.56-2.91-.43v.16c-.36-.48-.81.66-1 0-.19-.35-.45.84-.56.42v.18c-.23 0 0-.2-.21-.28-.21-.08 0 .33-.16.23 0-.73-.57.15-.59-.66.13 0-.19-.31.09-.48-.097-.056-.218-.05-.31.014s-.139.175-.12.286c0 .36-.19.68 0 1v-.26c.046.105.076.216.09.33.31 0 .35.42.57.58.15-.31.36-.13.48-.08l.05.15c.07.31.35-.61.25-.08.662-.102 1.33-.146 2-.13.09-.2.53 0 .38-.37.16.34.505.552.88.54V25c.37.58.44-.53.79.17.06-.5.64.16.84-.42.028.098.028.202 0 .3.63 0 1.33.19 1.87.21.45-.44 1.1.2 1.5-.41.392.235.867.286 1.3.14v.07c.537.041 1.07-.115 1.5-.44.15.58.37.46.6.64.34-.26 1-.18 1.55-.43.08.27.43-.11.46.28 1.554-.633 3.298-.604 4.83.08.2-.21.44-.68.64-1v.1c.28-.08.55.3.84.23.014.042.014.088 0 .13.26-.17.55.31.87 0v.1l.2-.14c0 .12 0 .32-.12.27 2.45.13 5-.53 7.5-.44l-.09.12.48-.21c.017.038.017.082 0 .12.63.22 1.27-.14 1.88-.09 0 .06-.1.19 0 .26.44-.35.72.45.94-.27.035.08.035.17 0 .25 1.26-.225 2.546-.272 3.82-.14 1-.65 2.22-.06 3.31-.58v.1c1.41-.46 2.9 0 4.36-.06.542-.007 1.082-.044 1.62-.11v.16c1-.62 2.15.56 3.22-.12l-.08.22c.17-.34.65.12.59-.47l.19.18c.72-.77 1.32.36 2.21-.14l-.06.13c.23-.1.51-.19.68-.06 0 0 0 .06-.07.1.75.55 1.57-.06 2.35 0l-.09.26c.38-.3 1.07 0 1.57-.16v.12l.25-.17v.24c.65.01 1.26-.2 1.89-.23zM124.46 23.61s-.01.01 0 0zM60 24.87v-.05.05zM788.9 46.85L788.85 46.79 788.73 46.95zM788.11 47.2v.11l.46-.46c-.17-.26-.32.53-.46.35zM788 47.16c-.18-.11-.25.11-.29.18.03-.17.29.05.29-.18zM772.17 47.27h.05s-.04-.02-.05 0z" transform="translate(0 -1487) translate(-49 814) translate(49 673)"/>
                    <path fill="#AED7CF" d="M768 48v.17c.77-.31 1.64 0 2.45-.13l-.05.06c2.005-.017 4.007-.133 6-.35 0 0 0 .07-.07.09-.07.02.21-.17.32-.16.11.01 0 .09-.07.1.43.29 1.27-.18 1.54 0 .055-.004.104-.037.127-.087.023-.05.016-.109-.017-.153 1.6-.07 3.32-.13 5-.35.077.044.108.14.07.22 1.404-.34 2.86-.41 4.29-.21.06-.12-.14-.13 0-.25-.46-.15-.84.3-1.26.08l.05-.12c-.3-.07-.06.29-.37.14-.13-.09 0-.15 0-.15-.648-.048-1.3.027-1.92.22-.15-.25-.69 0-.93-.25-.17.1-.34.07-.4.24-2.25-.13-4.56.11-6.87.1-1.08.49-2.37-.1-3.65.07-.5.129-1.018.166-1.53.11l-.42.21c-3-.43-6.07-.13-9.13-.3-3.46-.13-6.5-.48-9.87.17 0-.05 0-.08.06-.1-1 .1-1.86-.07-2.78 0-2.27.41-4.73-.05-6.93.38-2.67 0-5.69 0-8.52.13v-.1c-2.26.21-4.45-.31-6.71-.16-2.32-.22-4.77.56-7.12.27-1.44-.48-3.35.54-4.71 0-2.79-.75-5.51-.27-8.3.18-2.58-.27-5.15.42-7.65-.13-1.18.35-2.49-.43-3.81-.33v.12c-.47-.36-1 .52-1.35 0-.25-.28-.58.65-.73.32v.14c-.31 0 0-.16-.27-.21-.27-.05 0 .25-.22.17 0-.56-.74.12-.76-.51.16 0-.26-.24.11-.37-.11-.07-.61 0-.57.23.04.23-.24.53.07.75l.06-.21c.1.21.08.1.12.26.4 0 .45.32.74.45.2-.25.47-.11.63-.07l.06.12c.1.24.46-.47.34-.06.887-.085 1.779-.118 2.67-.1.13-.16.7 0 .5-.29.317.293.74.445 1.17.42 0 0 0 .07-.06.05.49.45.58-.41 1 .14.07-.39.84.12 1.1-.33.032.073.032.157 0 .23.83 0 1.75.14 2.45.16.6-.33 1.45.15 2-.31.551.182 1.141.217 1.71.1v.06c.684.037 1.367-.08 2-.34.2.44.49.35.78.5.45-.21 1.35-.15 2-.34.1.21.56-.08.6.22 2.087-.49 4.262-.47 6.34.06.26-.17.57-.53.84-.74v.07c.37-.05.72.24 1.09.19l-.06.09c.35-.13.72.24 1.14 0v.08l.27-.11c0 .1 0 .25-.16.21 3.21.1 6.53-.41 9.82-.34l-.12.1.64-.17c0 .04-.024.074-.06.09.817.042 1.636.019 2.45-.07 0 0-.12.15 0 .2.59-.27.94.35 1.24-.21v.2c1.661-.169 3.334-.196 5-.08 1.37-.51 2.91-.05 4.33-.46v.11c1.85-.36 3.81 0 5.72 0 .79 0 1.33-.08 2.13-.09v.13c1.34-.48 2.82.43 4.22-.1l-.1.17c.22-.26.85.1.77-.36l.25.14c1-.6 1.73.28 2.89-.11l-.07.11c.288-.11.602-.127.9-.05l-.09.07c1 .43 2 0 3.07 0l-.11.2c.49-.23 1.4 0 2-.12v.09l.33-.13v.19c.78-.09 1.58-.27 2.36-.27z" transform="translate(0 -1487) translate(-49 814) translate(49 673)"/>
                    <path fill="#AED7CF" d="M692.13 48.76h-.11s.07-.01.11 0zM605.93 19.87L605.88 19.81 605.76 19.97zM605.14 20.23v.11l.47-.46c-.18-.26-.34.52-.47.35zM605 20.18c-.18-.11-.25.11-.29.18.06-.17.29.05.29-.18zM589.19 20.29h.06s-.05-.02-.06 0z" transform="translate(0 -1487) translate(-49 814) translate(49 673)"/>
                    <path fill="#AED7CF" d="M585.07 21v.17c.77-.3 1.64 0 2.45-.13l-.06.06c2.07.07 4-.22 6-.35 0 0 0 .07-.07.09-.07.02.2-.17.32-.16.12.01 0 .09-.07.1.43.29 1.27-.18 1.54 0 .055-.004.104-.037.127-.087.023-.05.016-.109-.017-.153 1.6-.07 3.32-.12 5-.35.08 0 .09.12.07.22 1.405-.336 2.86-.404 4.29-.2 0-.13-.15-.13 0-.26-.45-.15-.84.3-1.25.08v-.12c-.3-.07-.06.3-.38.14-.12-.09 0-.14 0-.15-.648-.044-1.299.03-1.92.22-.15-.25-.7 0-.93-.25-.17.1-.34.08-.4.24-2.26-.13-4.56.12-6.87.1-1.08.49-2.37-.1-3.66.07v-.05c-.495.134-1.011.171-1.52.11l-.42.21c-3-.43-6.08-.12-9.13-.3-3.46-.13-6.5-.48-9.88.17 0-.05 0-.08.07-.09-1 .09-1.86-.08-2.78 0v-.05c-2.27.41-4.74-.05-6.93.38-2.67 0-5.69 0-8.52.13v-.1c-2.27.21-4.45-.31-6.71-.15-2.32-.22-4.78.55-7.12.26-1.45-.48-3.35.54-4.71.05-2.8-.75-5.51-.27-8.3.18-2.58-.26-5.16.42-7.65-.12-1.19.34-2.49-.43-3.81-.33v.12c-.48-.37-1.06.51-1.35 0h.05c-.25-.28-.58.65-.73.32l-.05.14c-.3 0 0-.16-.26-.21-.26-.05 0 .25-.22.17 0-.56-.74.12-.76-.51.16 0-.26-.24.11-.37-.11-.07-.62 0-.57.23.05.23-.24.53.07.75l.06-.21c.1.21.08.11.12.26.4 0 .45.33.74.45.2-.25.47-.1.63-.07l.06.12c.1.24.46-.47.34-.06.887-.085 1.779-.118 2.67-.1.13-.16.7 0 .5-.29.23.35.91.43 1.17.42 0 0 0 .07-.06.06.49.44.58-.42 1 .13.07-.39.83.12 1.09-.33.056.063.078.148.06.23.83 0 1.74.15 2.44.16.6-.33 1.45.16 2-.31.551.181 1.14.219 1.71.11l-.06.05c.684.041 1.368-.075 2-.34.2.45.49.36.78.5.66-.143 1.328-.253 2-.33.1.2.56-.09.6.21 2.084-.49 4.256-.47 6.33.06.296-.232.58-.48.85-.74v.07c.38-.05.73.24 1.1.19 0 .05 0 .05-.06.09.35-.13.72.24 1.14 0v.08l.26-.11c0 .1 0 .25-.15.22 3.21.09 6.52-.42 9.82-.35l-.12.1.64-.17s0 .07-.06.1c.817.032 1.636.008 2.45-.07 0 0-.13.14 0 .19.58-.27.94.36 1.23-.2v.19c1.662-.164 3.334-.19 5-.08 1.37-.51 2.9-.05 4.33-.45v.1c1.85-.36 3.8 0 5.72-.05.79 0 1.33-.08 2.12-.08v.12c1.35-.48 2.83.43 4.23-.09l-.1.17c.22-.27.85.09.77-.36l.24.13c1-.6 1.74.28 2.9-.11l-.07.11c.294-.088.606-.088.9 0l-.1.07c1 .43 2.06 0 3.08 0l-.11.2c.49-.24 1.4 0 2-.13v.1l.33-.14v.19c.81-.02 1.6-.23 2.43-.23zM509.15 21.78h-.1s.07-.01.1 0zM1135.37 29.02L1135.34 28.95 1135.25 29.16zM1134.79 29.48v.15l.34-.6c-.13-.33-.24.68-.34.45zM1134.69 29.43c-.13-.14-.19.13-.22.23.05-.22.25.07.22-.23z" transform="translate(0 -1487) translate(-49 814) translate(49 673)"/>
                    <path fill="#AED7CF" d="M1120 30.51v.22c.57-.39 1.21 0 1.82-.17v.08c1.494-.021 2.982-.172 4.45-.45 0 0 0 .09-.06.12s.15-.22.24-.21c.09.01 0 .11 0 .13.32.37.94-.23 1.14.05.094-.073.124-.203.07-.31 1.233-.052 2.46-.203 3.67-.45.037.09.037.19 0 .28 1-.43 2.113-.52 3.17-.26 0-.16-.11-.17 0-.33-.34-.2-.63.38-.93.1v-.16c-.22-.09 0 .39-.27.19s0-.19 0-.2c-.48.06-1-.08-1.42.29-.11-.33-.52 0-.69-.33-.13.13-.25.1-.3.32-1.66-.17-3.36.14-5.07.12-.8.63-1.76-.12-2.71.09v-.07c-.347.171-.74.224-1.12.15l-.32.27c-2.22-.55-4.49-.16-6.74-.39-2.56-.16-4.81-.61-7.3.22v-.12c-.72.13-1.37-.1-2 0v-.06c-1.68.52-3.5-.07-5.12.49-2.102-.052-4.204.005-6.3.17v-.13c-1.67.27-3.29-.4-5-.2-1.71-.29-3.53.72-5.26.34-1.07-.62-2.47.7-3.48.06-2.07-1-4.07-.34-6.14.24-1.9-.34-3.81.54-5.65-.16-.88.45-1.85-.56-2.82-.43v.16c-.35-.48-.78.66-1-.05-.19-.35-.43.84-.55.42v.17c-.22.06 0-.19-.2-.27-.2-.08 0 .33-.16.22 0-.72-.54.16-.56-.65.12 0-.19-.31.08-.48-.097-.05-.213-.042-.302.022-.088.063-.134.17-.118.278 0 .36-.18.68 0 1v-.26c.048.104.076.216.08.33.3 0 .34.42.56.58.14-.32.34-.13.46-.08v.15c.07.31.33-.61.24-.08.661-.107 1.33-.15 2-.13.1-.2.52 0 .37-.37.152.336.491.549.86.54v.07c.36.58.43-.53.77.17 0-.5.62.16.81-.42.028.098.028.202 0 .3.61 0 1.29.19 1.81.21.44-.44 1.07.2 1.45-.41.381.234.847.285 1.27.14v.07c.525.041 1.046-.116 1.46-.44.15.58.36.46.58.64.33-.26 1-.18 1.51-.43.07.27.41-.11.44.28 1.505-.634 3.207-.605 4.69.08.2-.21.43-.68.63-.95v.1c.28-.08.54.3.81.23.018.041.018.089 0 .13.25-.17.53.31.84 0v.1l.2-.14c0 .12 0 .32-.12.27 2.38.13 4.83-.53 7.27-.44l-.09.12.47-.21c-.002.045-.02.087-.05.12.6.22 1.23-.14 1.82-.09 0 .06-.1.19 0 .26.43-.35.69.45.91-.27.035.08.035.17 0 .25 1.211-.216 2.448-.253 3.67-.11 1-.65 2.15-.06 3.2-.58v.13c1.37-.46 2.81 0 4.23-.06.525-.007 1.05-.044 1.57-.11v.16c1-.62 2.08.56 3.12-.12l-.07.22c.16-.34.62.12.56-.47l.19.18c.7-.78 1.28.36 2.14-.14l-.06.13c.23-.1.5-.19.67-.06 0 0 0 .06-.07.1.72.55 1.52-.06 2.27 0l-.08.26c.36-.31 1 0 1.52-.16v.12l.24-.17v.24c.56-.06 1.14-.27 1.8-.3zM1126.28 30.23s-.02.01 0 0z" transform="translate(0 -1487) translate(-49 814) translate(49 673)"/>
                    <path fill="#AED7CF" d="M1063.83 31.49c-.023.005-.047.005-.07 0 0 0 .05-.01.07 0zM769.78 32.2L769.74 32.13 769.65 32.33zM769.19 32.66v.14l.34-.59c-.12-.34-.24.68-.34.45zM769.09 32.6c-.13-.14-.18.14-.22.24.05-.22.25.06.22-.24zM757.41 32.74s0-.02 0 0zM754.36 33.69v.22c.57-.4 1.21 0 1.81-.17v.08c1.494-.021 2.982-.172 4.45-.45 0 0 0 .09-.06.11-.06.02.16-.22.24-.2.08.02 0 .11-.05.13.32.36.94-.24 1.14.05.098-.07.132-.2.08-.31 1.23-.063 2.452-.213 3.66-.45.06.076.08.177.05.27 1.002-.423 2.113-.514 3.17-.26 0-.15-.11-.16 0-.33-.34-.19-.62.39-.93.1v-.15c-.23-.09 0 .38-.28.19s0-.2 0-.21c-.48.07-1-.07-1.42.3-.11-.33-.51 0-.69-.33-.12.13-.25.1-.29.31-1.67-.17-3.37.15-5.08.12-.8.64-1.76-.12-2.7.1-.01-.022-.01-.048 0-.07-.35.17-.747.223-1.13.15l-.31.27c-2.22-.55-4.49-.16-6.75-.39-2.56-.16-4.81-.62-7.3.22 0-.06 0-.1.05-.12-.72.13-1.38-.1-2.06 0v-.06c-1.68.52-3.5-.07-5.12.49-2.101-.055-4.204-.002-6.3.16v-.12c-1.67.26-3.28-.4-5-.2-1.72-.29-3.53.72-5.26.34-1.08-.62-2.48.7-3.49.06-2.07-1-4.07-.34-6.14.24-1.9-.35-3.81.54-5.65-.17-.88.45-1.84-.55-2.82-.42v.15c-.35-.47-.78.66-1 0-.19-.36-.43.84-.54.41v.18c-.23 0 0-.2-.2-.27s0 .32-.16.22c0-.72-.55.16-.57-.65.12 0-.19-.32.09-.49-.098-.052-.218-.043-.307.023-.09.066-.133.178-.113.287 0 .36-.18.68 0 1v-.27c.045.109.075.223.09.34.29 0 .33.42.55.58.14-.32.35-.13.46-.08v.14c.07.31.34-.6.25-.07.66-.112 1.33-.156 2-.13.1-.21.52 0 .37-.37.156.333.492.544.86.54v.07c.36.57.43-.53.77.17 0-.5.62.16.81-.43.028.098.028.202 0 .3.61 0 1.29.19 1.81.21.44-.43 1.07.2 1.45-.4.381.234.847.285 1.27.14v.07c.52.03 1.034-.126 1.45-.44.15.57.36.46.58.64.33-.27 1-.19 1.51-.43.07.27.42-.11.44.27 1.507-.624 3.205-.595 4.69.08.19-.21.42-.68.62-1v.1c.28-.07.54.31.81.24.017.038.017.082 0 .12.26-.17.53.31.84 0v.11l.19-.15c0 .13 0 .32-.11.28 2.37.12 4.82-.54 7.26-.44l-.09.12.47-.22c.018.041.018.089 0 .13.61.21 1.23-.15 1.82-.09 0 .06-.09.18 0 .25.43-.35.7.46.91-.27.034.083.034.177 0 .26 1.211-.216 2.448-.253 3.67-.11 1-.66 2.15-.06 3.2-.58v.13c1.36-.46 2.81 0 4.22-.06.525-.007 1.05-.044 1.57-.11v.16c1-.62 2.09.56 3.12-.13l-.07.23c.16-.35.63.12.56-.47l.19.18c.7-.78 1.28.35 2.14-.15l-.06.14c.23-.11.5-.19.67-.06 0 0 0 .06-.07.09.72.55 1.52-.06 2.28 0l-.09.25c.37-.3 1 0 1.52-.16v.13l.24-.17v.24c.61-.04 1.2-.26 1.81-.28zM760.68 33.41s-.02.01 0 0z" transform="translate(0 -1487) translate(-49 814) translate(49 673)"/>
                    <path fill="#AED7CF" d="M698.24 34.67l-.08-.05c0 .05.05.04.08.05zM74.36 64.73L74.33 64.66 74.24 64.86zM73.78 65.19v.14l.35-.59c-.13-.34-.25.68-.35.45zM73.68 65.13c-.14-.14-.19.14-.22.24.04-.22.25.06.22-.24zM62 65.27s0-.02 0 0zM58.94 66.22v.22c.57-.4 1.21 0 1.81-.17v.08c1.494-.02 2.983-.17 4.45-.45 0 0 0 .09-.06.11-.06.02.16-.22.24-.2.026.04.026.09 0 .13.32.36.94-.24 1.14 0 .098-.07.132-.2.08-.31 1.23-.062 2.452-.213 3.66-.45.044.085.044.185 0 .27 1.002-.422 2.113-.513 3.17-.26 0-.15-.1-.16 0-.33-.34-.19-.62.39-.93.1v-.15c-.22-.09 0 .38-.28.19-.09-.13 0-.2 0-.21-.47.07-1-.07-1.42.3-.11-.33-.51 0-.69-.33-.12.13-.24.1-.29.31-1.67-.17-3.37.15-5.08.12-.79.64-1.75-.12-2.7.1-.01-.022-.01-.048 0-.07-.35.17-.747.223-1.13.15l-.31.27c-2.22-.55-4.49-.16-6.74-.39-2.57-.16-4.81-.62-7.31.22v-.12c-.72.12-1.38-.1-2 0v-.06c-1.69.52-3.51-.07-5.13.49-2.101-.055-4.204-.002-6.3.16v-.04c-1.67.26-3.29-.4-5-.2-1.72-.29-3.53.72-5.26.34-1.07-.62-2.48.7-3.48.06-2.07-1-4.08-.34-6.14.24-1.91-.35-3.81.54-5.66-.17-.87.45-1.84-.55-2.81-.42v.15c-.35-.47-.78.66-1 0-.18-.36-.43.84-.54.41v.18c-.22 0 0-.2-.2-.27s0 .32-.16.22c0-.72-.55.16-.56-.65.12 0-.2-.32.08-.49-.098-.052-.218-.043-.307.023-.09.066-.133.178-.113.287 0 .36-.18.68.05 1v-.27c.045.109.075.223.09.34.3 0 .34.42.55.58.15-.32.35-.13.46-.08v.14c.07.31.34-.6.25-.07.66-.112 1.33-.155 2-.13.09-.21.52 0 .37-.37.154.334.492.546.86.54v.07c.37.57.43-.53.77.17.06-.5.62.16.81-.43.027.098.027.202 0 .3.61 0 1.28.19 1.8.21.45-.43 1.08.2 1.46-.4.377.235.84.286 1.26.14v.07c.523.031 1.04-.125 1.46-.44.14.57.36.46.57.64.34-.27 1-.19 1.51-.43.08.27.42-.11.45.27 1.504-.623 3.199-.594 4.68.08.2-.21.42-.68.62-1v.1c.27-.07.53.31.81.24V67c.26-.17.54.31.84 0v.11l.2-.15c0 .13 0 .32-.12.28 2.37.12 4.82-.54 7.26-.44l-.09.12.48-.22c-.005.047-.022.092-.05.13.6.21 1.23-.15 1.81-.09 0 .06-.09.18 0 .25.44-.35.7.46.92-.27.03.084.03.176 0 .26 1.208-.216 2.441-.253 3.66-.11 1-.66 2.15-.06 3.21-.58v.13c1.36-.46 2.81 0 4.22-.06.528-.007 1.056-.044 1.58-.11v.16c1-.62 2.09.56 3.12-.13l-.07.22c.16-.34.63.13.57-.46l.18.18c.71-.78 1.28.35 2.14-.15v.14c.23-.11.49-.19.66-.06 0 0 0 .06-.06.09.71.55 1.51-.06 2.27 0l-.09.25c.37-.3 1 0 1.52-.16v.13l.25-.17v.24c.53-.07 1.12-.29 1.73-.31zM65.26 65.94s-.01.06 0 0z" transform="translate(0 -1487) translate(-49 814) translate(49 673)"/>
                    <path fill="#AED7CF" d="M2.82 67.2h-.08s.05-.01.08 0zM1156.77 19.45L1156.74 19.37 1156.7 19.58zM1156.44 19.91v.14l.19-.6c-.07-.33-.14.68-.19.46zM1156.38 19.85c-.07-.14-.11.14-.12.23.02-.21.14.07.12-.23zM1148.08 20.93v.22c.32-.39.68 0 1-.16v.08c.854-.032 1.7-.186 2.51-.46v.12c0 .03.09-.22.14-.21.014.042.014.088 0 .13.18.37.53-.23.64.05.04-.1.04-.21 0-.31.704-.056 1.397-.207 2.06-.45.025.092.025.188 0 .28.58-.6 1.19-.36 1.78-.26 0-.16-.06-.17 0-.33-.19-.2-.35.38-.52.1v-.15c-.13-.1 0 .38-.16.18s0-.19 0-.2c-.27.06-.55-.08-.8.29-.06-.33-.29 0-.38-.33-.07.14-.14.1-.17.32-.955-.035-1.911.006-2.86.12-.45.64-1-.12-1.52.09-.01-.019-.01-.041 0-.06-.172.158-.415.215-.64.15l-.17.27c-1.25-.56-2.53-.17-3.8-.4-1.45-.16-2.71-.61-4.12.22v-.12c-.41.13-.78-.1-1.16 0v-.07c-.94.53-2-.07-2.88.5-1.186-.055-2.374-.002-3.55.16v-.13c-.94.27-1.85-.4-2.79-.2-1-.28-2 .72-3 .34-.61-.62-1.4.7-2 .07-1.16-1-2.29-.35-3.45.23-1.08-.34-2.15.54-3.19-.16-.49.45-1-.56-1.58-.43v.16c-.19-.47-.43.66-.56 0-.1-.35-.24.84-.3.42v.18c-.12.05 0-.2-.11-.27s0 .32-.09.22c0-.72-.31.15-.32-.66.07 0-.11-.31 0-.48 0-.08-.26 0-.24.3-.081.328-.081.672 0 1v-.27c.01.11.01.22 0 .33.17 0 .19.42.31.58.09-.31.2-.13.27-.08V22c0 .31.19-.61.14-.08.364-.105.742-.15 1.12-.13 0-.2.29 0 .2-.37.1.45.38.56.49.54.11-.02 0 .09 0 .07.21.58.25-.53.44.18 0-.5.35.15.45-.43.019.1.019.2 0 .3.34 0 .72.19 1 .21.24-.43.6.2.81-.4.18.12.47.37.72.13v.07c.335.022.653-.149.82-.44.09.58.21.46.33.65.19-.27.56-.19.85-.43 0 .26.23-.12.25.27.775-.64 1.905-.607 2.64.08.11-.22.23-.68.35-1v.1c.16-.07.3.31.46.23.015.042.015.088 0 .13.15-.17.3.31.48 0v.1l.11-.14c0 .12 0 .32-.07.28 1.34.12 2.72-.54 4.09-.45v.12l.27-.21c.008.04.008.08 0 .12.34.22.69-.14 1-.09v.26c.24-.35.39.45.51-.27.015.083.015.167 0 .25.666-.21 1.375-.249 2.06-.11.57-.65 1.21-.06 1.81-.58v.13c.77-.45 1.59 0 2.38-.06.33.06.56-.1.89-.11v.17c.56-.62 1.17.55 1.75-.13v.22c.1-.34.36.12.32-.47l.11.18c.39-.77.72.36 1.2-.14v.14c.13-.11.28-.2.38-.07.1.13 0 .06 0 .1.4.55.85-.06 1.28 0v.26c.21-.3.59 0 .86-.16v.12l.14-.17v.24c.343-.069.68-.162 1.01-.28zM1151.64 20.65s-.01.01 0 0z" transform="translate(0 -1487) translate(-49 814) translate(49 673)"/>
                    <path fill="#AED7CF" d="M1116.47 21.91v-.05c-.04.05-.02.04 0 .05zM1212.81 20.92L1212.79 20.84 1212.74 21.05zM1212.48 21.38v.14l.19-.59c-.07-.34-.14.67-.19.45zM1212.42 21.32c-.07-.14-.11.14-.12.24.02-.22.14.06.12-.24zM1205.84 21.46s0-.02 0 0zM1204.12 22.4v.23c.32-.4.68 0 1-.17v.08c.855-.027 1.701-.182 2.51-.46-.005.04-.005.08 0 .12 0-.08.08-.22.13-.2.016.042.016.088 0 .13.18.36.53-.24.64.05.044-.099.044-.211 0-.31.704-.064 1.396-.219 2.06-.46.025.092.025.188 0 .28.58-.59 1.19-.36 1.78-.26 0-.16-.06-.17 0-.33-.19-.2-.35.39-.52.1v-.15c-.13-.1 0 .38-.16.18s0-.19 0-.2c-.26.06-.54-.07-.8.29-.06-.32-.29 0-.38-.32-.07.13-.14.1-.17.31-.955-.03-1.91.01-2.86.12-.45.64-1-.12-1.52.09-.01-.019-.01-.041 0-.06-.17.164-.415.222-.64.15l-.17.27c-1.25-.55-2.53-.17-3.8-.39-1.45-.16-2.71-.62-4.12.22v-.12c-.41.12-.77-.1-1.16 0v-.06c-.94.52-2-.07-2.88.49-1.186-.055-2.374-.001-3.55.16v-.13c-.94.27-1.85-.4-2.79-.2-1-.28-2 .72-3 .34-.61-.62-1.4.71-2 .07-1.16-1-2.29-.35-3.45.23-1.08-.34-2.15.54-3.19-.16-.49.45-1-.56-1.58-.43v.16c-.2-.47-.44.66-.57 0-.1-.36-.24.84-.3.41v.18c-.12.05 0-.2-.11-.27s0 .32-.09.22c0-.72-.31.15-.32-.66.07 0-.11-.31 0-.48 0-.08-.26 0-.24.3-.081.328-.081.672 0 1v-.27c.01.11.01.22 0 .33.17 0 .19.43.32.58.13.15 0 0 0 0 .09-.32.2-.13.27-.09v.15c0 .31.19-.6.14-.07.363-.11.742-.154 1.12-.13 0-.21.29 0 .2-.38.1.45.38.56.49.54.11-.02 0 .09 0 .08.21.57.25-.54.44.17 0-.5.35.16.45-.43.019.1.019.2 0 .3.34 0 .72.19 1 .21.24-.43.6.2.81-.4.18.13.47.38.72.14v.07c.335.013.65-.16.82-.45.09.58.21.47.33.65.19-.27.56-.19.85-.43 0 .26.23-.11.25.27.775-.64 1.905-.607 2.64.08.11-.21.23-.68.35-1v.1c.16-.07.3.31.46.24.014.039.014.081 0 .12.15-.17.3.31.48 0v.1l.11-.14c0 .13 0 .32-.07.28 1.34.12 2.72-.54 4.09-.44v.12l.27-.22c.01.043.01.087 0 .13.34.21.69-.15 1-.09v.25c.24-.35.39.45.51-.27.015.086.015.174 0 .26.665-.216 1.376-.254 2.06-.11.57-.66 1.21-.07 1.81-.59v.14c.77-.46 1.59 0 2.38-.06.33.05.56-.11.89-.12v.17c.56-.62 1.17.55 1.76-.13v.22c.09-.34.35.12.31-.46l.11.17c.39-.77.72.36 1.2-.14v.14c.13-.11.28-.2.38-.07.1.13 0 .06 0 .1.4.55.85-.06 1.28 0l-.05.26c.21-.3.59 0 .86-.16v.13l.14-.18v.25c.362-.071.72-.165 1.07-.28zM1207.68 22.13s-.01.01 0 0z" transform="translate(0 -1487) translate(-49 814) translate(49 673)"/>
                    <path fill="#AED7CF" d="M1172.51 23.39c-.005-.02-.005-.04 0-.06-.04.06-.02.04 0 .06zM807.45 33.03L807.52 33.19 807.69 32.77zM808.59 32.12c0-.08 0-.21-.05-.29l-.67 1.17c.3.69.52-1.34.72-.88zM808.79 32.23c.25.28.36-.28.42-.47-.09.44-.48-.13-.42.47zM831.64 32h-.08c.01.013.024.02.04.02s.03-.007.04-.02z" transform="translate(0 -1487) translate(-49 814) translate(49 673)"/>
                    <path fill="#AED7CF" d="M837.6 30.06l.06-.44c-1.11.79-2.36 0-3.54.33l.08-.16c-3-.17-5.74.57-8.7.91 0-.05.06-.18.11-.23-.15.16-.3.44-.46.41-.028-.097.008-.2.09-.26-.62-.73-1.84.47-2.23-.1-.192.144-.255.404-.15.62-2.407.113-4.801.418-7.16.91-.122-.16-.163-.366-.11-.56-2 1.19-4.13.72-6.19.52-.08.32.2.33 0 .66.67.39 1.22-.77 1.82-.2l-.08.3c.44.19.09-.76.55-.37.18.25-.05.39 0 .41.93-.13 1.9.15 2.77-.59.22.66 1 0 1.35.66.24-.27.48-.2.57-.63 3.26.34 6.59-.29 9.93-.24 1.56-1.28 3.44.24 5.29-.19.01.043.01.087 0 .13.685-.337 1.46-.442 2.21-.3l.61-.54c4.34 1.11 8.78.33 13.19.79 5 .32 9.4 1.23 14.28-.44 0 .12 0 .19-.09.24 1.4-.25 2.69.2 4-.06v.12c3.29-1 6.85.14 10-1 4.11.11 8.222.004 12.32-.32v.25c3.27-.53 6.43.8 9.7.41 3.36.57 6.9-1.45 10.29-.68 2.09 1.23 4.84-1.41 6.81-.14 4 1.93 8 .69 12-.47 3.73.69 7.45-1.07 11.07.33 1.71-.9 3.6 1.11 5.5.85l-.07-.31c.68.95 1.52-1.32 1.95.08l-.07.07c.36.71.84-1.68 1.06-.83l.06-.36c.43-.1 0 .4.39.55.12-.05 0-.65.31-.45.06 1.45 1.07-.31 1.1 1.31-.24 0 .38.63-.16 1 .19.105.426.09.602-.038.176-.129.26-.348.218-.562.06-.73.35-1.37-.09-1.93l-.09.53c-.089-.214-.146-.44-.17-.67-.59-.07-.66-.84-1.08-1.16v.06c-.28.63-.68.26-.91.17l-.09-.3c-.13-.62-.66 1.21-.48.15-1.278.215-2.575.302-3.87.26-.19.41-1 0-.73.74-.287-.668-.953-1.092-1.68-1.07 0-.09 0-.18.09-.15-.71-1.15-.84 1.07-1.51-.34-.1 1-1.21-.32-1.58.85-.083-.188-.11-.396-.08-.6-1.2 0-2.52-.38-3.54-.42-.86.87-2.09-.4-2.84.81-.737-.468-1.647-.571-2.47-.28l.08-.14c-1 .07-2.19.13-2.85.88-.29-1.15-.71-.92-1.13-1.28-.65.53-2 .37-2.95.86-.15-.54-.81.22-.87-.55-2.77 1.49-6.2 1-9.16-.16v-.05c-.38.42-.82 1.36-1.21 1.91v-.2c-.54.15-1-.61-1.58-.47 0-.13 0-.13.09-.25-.51.34-1.05-.62-1.65 0v-.2l-.38.28c0-.25 0-.64.23-.55-4.65-.25-9.44 1.07-14.21.88l.18-.24-.93.43c.004-.09.036-.178.09-.25-1.17-.43-2.4.29-3.54.18 0-.12.18-.37 0-.51-.85.7-1.37-.91-1.8.54-.054-.166-.054-.344 0-.51-2.366.428-4.782.502-7.17.22-2 1.31-4.2.12-6.26 1.17v-.27c-2.66.92-5.49-.06-8.26.12-1.027.019-2.051.092-3.07.22v-.32c-1.94 1.24-4.08-1.12-6.11.25l.14-.44c-.31.68-1.22-.25-1.1.93l-.36-.35c-1.38 1.54-2.51-.72-4.19.28l.11-.27c-.45.21-1 .38-1.3.13 0 0 0-.13.13-.2-1.41-1.1-3 .12-4.45.07l.17-.51c-.72.6-2 0-3 .32v-.25l-.47.35v-.49c-.98-.08-2.18.34-3.38.4zM825.24 30.62s.03-.02 0 0zM947.36 28.1l.15.1c-.01-.1-.1-.08-.15-.1zM1152.19 38.61L1152.08 38.46 1151.79 38.88zM1150.29 39.53c.06.08 0 .2.09.28l1.11-1.18c-.49-.63-.87 1.37-1.2.9zM1150 39.42c-.43-.28-.61.27-.71.46.11-.43.77.12.71-.46zM1111.94 39.69h.13c-.039-.028-.091-.028-.13 0z" transform="translate(0 -1487) translate(-49 814) translate(49 673)"/>
                    <path fill="#AED7CF" d="M1102 41.58l-.11.45c1.86-.79 3.94 0 5.9-.34l-.13.16c5 .17 9.55-.57 14.48-.91-.08.05-.11.18-.19.23.24-.15.51-.44.77-.4.07.1-.07.21-.16.25 1 .74 3.06-.46 3.71.11.13-.028.24-.119.292-.242.051-.124.04-.265-.032-.378 3.86-.19 8-.33 11.91-.91.19.1.23.3.17.56 3.36-1.19 6.88-.72 10.32-.53.13-.31-.35-.33 0-.66-1.11-.39-2 .77-3 .2l.13-.3c-.73-.19-.15.76-.9.37-.3-.25.07-.38-.07-.4-1.55.12-3.16-.15-4.62.58-.36-.65-1.67 0-2.24-.65-.4.26-.8.2-1 .63-5.42-.34-11 .29-16.52.24-2.59 1.27-5.71-.24-8.79.18-.026-.04-.026-.09 0-.13-1.19.345-2.439.447-3.67.3l-1 .54c-7.22-1.1-14.61-.33-21.94-.79-8.34-.31-15.65-1.23-23.77.45 0-.13 0-.2.16-.24-2.35.25-4.48-.21-6.69.06v-.13c-5.48 1-11.4-.14-16.68 1-6.43-.11-13.69 0-20.49.32v-.25c-5.44.53-10.7-.8-16.13-.4-5.59-.57-11.49 1.44-17.12.68-3.48-1.24-8.06 1.41-11.34.13-6.72-1.93-13.25-.69-20 .47-6.2-.69-12.39 1.08-18.4-.32-2.85.9-6-1.12-9.16-.86l.11.31c-1.13-.94-2.53 1.32-3.24-.08l.12-.06c-.6-.71-1.4 1.68-1.76.83l-.1.35c-.73.11-.09-.4-.65-.54-.21 0-.08.65-.52.44-.1-1.44-1.78.31-1.83-1.31.39 0-.63-.62.27-1-.26-.17-1.48-.09-1.37.6-.11.73-.58 1.37.16 1.93l.15-.53c.25.53.19.26.28.66 1 .07 1.1.85 1.79 1.16.48-.64 1.13-.26 1.51-.17l.15.3c.23.61 1.1-1.21.81-.15 2.136-.225 4.283-.315 6.43-.27.31-.4 1.69 0 1.21-.74.55.89 2.19 1.11 2.8 1.08 0 .08 0 .18-.14.15 1.18 1.14 1.39-1.07 2.5.34.17-1 2 .32 2.64-.85.128.168.175.384.13.59 2 0 4.19.38 5.88.43 1.44-.87 3.49.39 4.73-.81 1.321.472 2.748.565 4.12.27l-.14.15c1.61-.07 3.64-.13 4.74-.89.48 1.15 1.18.92 1.88 1.29 1.08-.53 3.26-.38 4.9-.86.26.53 1.36-.23 1.45.55 4.61-1.49 10.32-1 15.25.15l-.07.06c.63-.42 1.37-1.36 2-1.91.06.07.06.19-.08.19.9-.14 1.74.62 2.64.48 0 .12 0 .12-.15.25.84-.35 1.74.61 2.74 0v.21l.64-.29c0 .26 0 .64-.38.56 7.73.25 15.7-1.08 23.63-.88l-.29.24 1.54-.44c-.007.103-.063.196-.15.25 2 .43 4-.28 5.9-.17 0 .12-.3.37 0 .51 1.41-.7 2.27.9 3-.54.06.06.11.39 0 .5 3.962-.425 7.955-.495 11.93-.21 3.3-1.31 7-.13 10.42-1.17v.26c4.44-.91 9.15.07 13.75-.12 1.9.11 3.2-.2 5.12-.22v.33c3.23-1.24 6.79 1.11 10.16-.25l-.23.44c.52-.68 2 .24 1.84-.93l.59.35c2.29-1.55 4.17.72 7-.29l-.19.28c.691-.272 1.451-.317 2.17-.13-.08 0 0 .12-.22.2 2.33 1.1 4.93-.12 7.4-.08l-.28.52c1.19-.61 3.38 0 4.94-.32l-.09.24.79-.34v.49c2.09.02 3.98-.4 5.98-.46z" transform="translate(0 -1487) translate(-49 814) translate(49 673)"/>
                    <path fill="#AED7CF" d="M1122.58 41c-.08.05-.05 0 0 0zM919.4 43.55c-.088-.026-.171-.063-.25-.11.02.11.17.08.25.11zM251.45 35.36L251.33 35.21 251.05 35.62zM249.55 36.28c.06.08 0 .2.09.28l1.11-1.19c-.5-.67-.87 1.36-1.2.91zM249.22 36.16c-.43-.28-.61.28-.71.47.15-.43.81.13.71-.47zM211.2 36.44h.13c-.037-.032-.093-.032-.13 0z" transform="translate(0 -1487) translate(-49 814) translate(49 673)"/>
                    <path fill="#AED7CF" d="M201.28 38.33l-.11.44c1.86-.79 3.94 0 5.9-.33l-.13.16c5 .17 9.55-.57 14.48-.91-.08.05-.11.18-.19.23.24-.15.51-.44.77-.41.07.11-.07.22-.16.26 1 .73 3.06-.47 3.71.1.13-.028.24-.119.292-.242.051-.124.04-.265-.032-.378 3.86-.19 8-.33 11.91-.9.19.1.22.3.17.55 3.36-1.19 6.88-.71 10.32-.52.13-.31-.35-.33 0-.66-1.11-.39-2 .77-3 .2l.13-.3c-.73-.19-.15.76-.91.37-.29-.25.08-.39-.06-.41-1.55.13-3.17-.15-4.62.59-.36-.66-1.67 0-2.24-.66-.4.27-.81.2-1 .63-5.42-.34-11 .29-16.52.24-2.6 1.28-5.71-.24-8.79.19-.026-.04-.026-.09 0-.13-1.192.34-2.439.442-3.67.3l-1 .54c-7.23-1.11-14.61-.33-21.95-.79-8.33-.32-15.64-1.23-23.76.44 0-.12-.05-.19.16-.24-2.35.26-4.48-.2-6.69.07v-.13c-5.48 1-11.4-.14-16.68 1-6.43-.12-13.69 0-20.49.32v-.25c-5.44.53-10.7-.8-16.13-.4-5.59-.58-11.49 1.44-17.12.68-3.48-1.24-8.06 1.4-11.34.13-6.72-1.93-13.25-.69-20 .47-6.2-.69-12.39 1.08-18.4-.33-2.85.9-6-1.11-9.16-.85l.11.31c-1.13-.94-2.53 1.32-3.24-.08l.12-.07c-.6-.71-1.4 1.68-1.76.83l-.1.36c-.73.1-.09-.4-.65-.54-.21 0-.08.64-.52.44-.1-1.44-1.79.31-1.83-1.31.39 0-.63-.63.26-1-.25-.16-1.47-.08-1.36.61-.11.73-.58 1.36.16 1.93l.15-.54c.25.54.19.27.28.67 1 .07 1.1.84 1.79 1.16v-.06c.47-.63 1.13-.26 1.51-.16l.15.29c.23.62 1.1-1.21.81-.15 2.136-.216 4.283-.303 6.43-.26.31-.41 1.69 0 1.21-.74.55.89 2.19 1.11 2.8 1.08 0 .08-.05.17-.15.14 1.19 1.15 1.4-1.06 2.51.35.17-1 2 .31 2.64-.86.128.172.176.39.13.6 2 0 4.19.38 5.88.42 1.44-.86 3.49.4 4.73-.8 1.322.467 2.748.56 4.12.27l-.14.14c1.61-.07 3.63-.13 4.74-.88.48 1.15 1.18.92 1.88 1.29 1.08-.54 3.26-.38 4.9-.86.26.53 1.36-.23 1.45.54 4.61-1.49 10.32-1 15.25.16l-.08.06c.64-.43 1.38-1.36 2-1.92.06.08.06.2-.08.2.9-.14 1.74.62 2.64.47 0 .13 0 .13-.15.25.84-.34 1.74.62 2.74 0v.21l.64-.29c0 .25 0 .64-.38.56 7.72.24 15.7-1.08 23.63-.89l-.29.24 1.54-.43c-.01.105-.069.198-.16.25 2 .43 4-.29 5.91-.18 0 .12-.3.37 0 .51 1.42-.7 2.28.91 3-.54.109.153.109.357 0 .51 3.962-.428 7.955-.502 11.93-.22 3.3-1.31 7-.12 10.42-1.16v.26c4.44-.91 9.15.07 13.74-.12 1.91.11 3.21-.2 5.12-.22v.33c3.23-1.24 6.79 1.11 10.16-.26l-.23.45c.52-.69 2 .24 1.84-.94l.59.36c2.29-1.55 4.17.71 7-.29l-.19.28c.69-.277 1.452-.322 2.17-.13-.09 0-.05.12-.22.19 2.33 1.1 4.93-.12 7.4-.07l-.28.51c1.19-.6 3.38 0 4.94-.32l-.09.25.79-.34v.48c2.09.08 4.01-.35 6-.4z" transform="translate(0 -1487) translate(-49 814) translate(49 673)"/>
                    <path fill="#AED7CF" d="M221.84 37.77c-.08.03-.05.02 0 0zM18.66 40.29l-.25-.1c.02.1.17.08.25.1z" transform="translate(0 -1487) translate(-49 814) translate(49 673)"/>
                    <path fill="#000" d="M1133.33 12.55L1192.43 13.07 1183.54 5.23 1176.22 4.71 1175.69 2.61 1167.85 3.14 1163.66 4.18 1158.96 1.57 1152.16 0 1142.75 4.18 1133.33 4.18 1119.74 13.07z" transform="translate(0 -1487) translate(-49 814) translate(49 673)"/>
                </g>
            </g>
        </g>
    </g>
</svg>
