<svg xmlns="http://www.w3.org/2000/svg" width="101" height="100" viewBox="0 0 101 100">
    <g fill="none" fill-rule="evenodd">
        <g fill-rule="nonzero">
            <g>
                <g transform="translate(-1027 -639) translate(0 -157) translate(1027.073 796)">
                    <circle cx="49.69" cy="49.69" r="49.69" fill="#FFF"/>
                    <path fill="#FF674C" stroke="#FF674C" stroke-width=".58" d="M49.69 23.71c-14.36 0-26 11.64-26 26s11.64 26 26 26 26-11.64 26-26-11.64-26-26-26h0z"/>
                    <path fill="#016479" d="M78.54 35.45l10.38-4.19.9 2.23c.15.367.241.755.27 1.15.014.37-.065.738-.23 1.07-.165.361-.42.675-.74.91-.441.304-.918.553-1.42.74-.392.165-.797.299-1.21.4-.33.06-.67.06-1 0-.413-.062-.802-.231-1.13-.49-.37-.337-.65-.76-.82-1.23l-.31-.76-4 1.64-.69-1.47zm9.58-2.14l-3.53 1.46.29.71c.085.245.225.468.41.65.146.12.323.196.51.22.203.01.407-.017.6-.08.22-.08.46-.16.72-.27l.69-.29c.197-.086.374-.212.52-.37.128-.139.212-.313.24-.5.013-.248-.035-.495-.14-.72l-.31-.81zM80.66 41.02L91.66 38.73 91.99 40.3 82.61 42.3 83.26 45.41 81.69 45.73zM81.82 47.01l11.15 2.67v1.34l-11.23 2.32v-1.6l2.41-.43v-2.19l-2.39-.51.06-1.6zm3.85 4l4.07-.72-4-.85-.07 1.57zM81.41 54.63L86.06 55.47 92.81 54.47 92.5 56.14 87.9 56.61 87.9 56.61 92.05 58.67 91.75 60.34 85.75 57.03 81.1 56.19zM79.54 61.77l10 5-1.06 2.12c-.298.72-.886 1.28-1.62 1.54-.757.187-1.556.072-2.23-.32l-4.68-2.34c-.787-.314-1.412-.935-1.73-1.72-.2-.772-.086-1.593.32-2.28l1-2zm7.93 5.77l-7.3-3.66-.33.66c-.192.297-.24.664-.13 1 .18.331.47.59.82.73l4.81 2.5c.304.171.652.248 1 .22.354-.1.637-.364.76-.71l.37-.74zM82.07 78.55l-6.81-5.38c-.276-.21-.504-.476-.67-.78-.17-.309-.276-.649-.31-1-.034-.335-.006-.674.08-1 .086-.336.243-.65.46-.92.208-.272.475-.494.78-.65.31-.166.65-.268 1-.3.335-.042.674-.018 1 .07.335.088.649.244.92.46l6.81 5.38-1 1.25-6.69-5.27c-.23-.222-.541-.339-.86-.32-.262.024-.502.159-.66.37-.167.205-.246.467-.22.73.06.317.249.595.52.77l6.68 5.28-1.03 1.31zM72.37 72.54l7.26 8.52-1.83 1.56c-.299.257-.636.467-1 .62-.347.132-.722.174-1.09.12-.395-.044-.773-.185-1.1-.41-.426-.327-.812-.703-1.15-1.12-.281-.311-.536-.646-.76-1-.184-.306-.303-.646-.35-1-.07-.413-.032-.836.11-1.23.2-.457.51-.859.9-1.17l.63-.53-2.83-3.32 1.21-1.04zm5.06 8.41l-2.47-2.9-.58.5c-.208.156-.373.363-.48.6-.075.173-.093.366-.05.55.05.196.138.38.26.54.14.187.3.387.48.6l.5.56c.143.16.317.288.51.38.17.083.364.107.55.07.24-.065.46-.189.64-.36l.64-.54zM67.54 76.48l5.5 9.74-2.09 1.18c-.339.204-.711.346-1.1.42-.364.067-.74.04-1.09-.08-.378-.123-.721-.336-1-.62-.361-.396-.67-.836-.92-1.31-.213-.368-.397-.753-.55-1.15-.119-.32-.173-.66-.16-1 .008-.418.13-.825.35-1.18.27-.426.65-.771 1.1-1l.72-.4-2.15-3.8 1.39-.8zm3.37 9.21l-1.87-3.31-.67.38c-.233.113-.436.281-.59.49-.107.16-.16.349-.15.54.01.203.064.4.16.58.1.21.21.44.35.68.14.24.26.44.38.64.111.183.257.343.43.47.154.112.34.175.53.18.25-.023.49-.105.7-.24l.73-.41zM60.65 79.89L62.15 84.37 66.29 89.8 64.68 90.34 62.04 86.53 62.04 86.53 62.24 91.16 60.63 91.7 60.63 84.87 59.13 80.39zM48.6 89.85l1.6-.07v.37c.003.332.104.655.29.93.214.268.55.407.89.37.187 0 .37-.051.53-.15.128-.083.237-.192.32-.32.081-.149.132-.312.15-.48.016-.18.016-.36 0-.54v-.55c-.017-.137-.062-.27-.13-.39-.077-.112-.175-.207-.29-.28-.156-.098-.324-.175-.5-.23l-1.25-.44c-.315-.1-.612-.248-.88-.44-.222-.17-.408-.38-.55-.62-.127-.267-.218-.55-.27-.84-.057-.36-.09-.725-.1-1.09-.003-.44.04-.88.13-1.31.072-.358.215-.698.42-1 .21-.308.496-.556.83-.72.748-.354 1.604-.408 2.39-.15.325.118.623.298.88.53.253.233.46.51.61.82.15.313.239.653.26 1v.59l-1.6.07v-.51c-.01-.285-.111-.558-.29-.78-.224-.25-.558-.37-.89-.32-.219.002-.434.053-.63.15-.146.08-.265.202-.34.35-.082.165-.126.346-.13.53v.69c.006.241.026.481.06.72.024.156.071.308.14.45.08.11.183.201.3.27.158.083.321.153.49.21l1.17.43c.59.168 1.098.544 1.43 1.06.279.538.426 1.134.43 1.74.013.404-.03.808-.13 1.2-.09.36-.25.7-.47 1-.215.291-.496.527-.82.69-.372.187-.783.287-1.2.29-.375.022-.75-.036-1.1-.17-.324-.13-.622-.316-.88-.55-.485-.436-.773-1.049-.8-1.7l-.07-.81zM46.17 81.62L44.87 91.21 46.7 91.46 46.5 92.95 41.24 92.24 41.44 90.74 43.28 90.99 44.58 81.4zM39.84 89.23c-.116.395-.318.76-.59 1.07-.238.27-.531.485-.86.63-.316.137-.656.211-1 .22-.338.016-.677-.028-1-.13-.642-.206-1.188-.635-1.54-1.21-.175-.308-.287-.648-.33-1-.037-.409.011-.82.14-1.21l1.8-5.63c.117-.4.322-.77.6-1.08.232-.259.514-.466.83-.61.63-.282 1.344-.317 2-.1.315.101.61.257.87.46.268.207.493.465.66.76.19.302.306.645.34 1 .044.412-.004.829-.14 1.22l-1.78 5.61zm.27-6.11c.139-.291.139-.629 0-.92-.31-.483-.919-.676-1.45-.46-.288.143-.497.407-.57.72l-1.8 5.62c-.139.291-.139.629 0 .92.144.238.372.414.64.49.26.1.55.1.81 0 .288-.143.497-.407.57-.72l1.8-5.65zM36.23 78.97l-5.47 9.8-2.22-1.3c-1.65-.93-1.93-2.34-.86-4.25.264-.514.636-.964 1.09-1.32.43-.31.951-.465 1.48-.44l1-5.3 1.48.83-1 4.89.83.47 2.34-4.17 1.33.79zm-6.13 7.66l1.7-3.05-.79-.44c-.197-.124-.419-.203-.65-.23-.176-.012-.352.022-.51.1-.158.105-.297.237-.41.39-.155.198-.292.408-.41.63-.125.214-.232.438-.32.67-.077.183-.115.381-.11.58.08.424.37.778.77.94l.73.41zM29.69 74.84L26.69 78.47 24.22 84.83 22.92 83.74 24.79 79.5 24.79 79.5 20.95 82.08 19.64 80.99 25.48 77.46 28.48 73.83z"/>
                    <path fill="#FF674C" d="M20.63 63.52l-10.43 4-.87-2.25c-.146-.364-.234-.749-.26-1.14-.008-.372.078-.74.25-1.07.17-.359.427-.669.75-.9.447-.298.927-.543 1.43-.73.398-.154.805-.28 1.22-.38.33-.065.67-.065 1 0 .413.065.8.241 1.12.51.37.34.648.765.81 1.24l.29.76 4.07-1.58.62 1.54zm-9.6 2l3.55-1.38-.28-.71c-.083-.25-.223-.476-.41-.66-.143-.125-.321-.202-.51-.22-.2-.019-.4.005-.59.07-.22.07-.46.15-.73.26-.27.11-.47.18-.69.28-.2.082-.38.204-.53.36-.128.135-.212.306-.24.49-.018.25.027.501.13.73l.3.78zM18.67 58.22L7.67 60.46 7.35 58.89 16.74 56.97 16.11 53.86 17.68 53.54zM17.59 52.77L6.41 50.25v-1.33l11.19-2.48v1.6l-2.41.47v2.26l2.4.48v1.52zm-3.91-4l-4.05.78 4.05.8v-1.58zM17.91 45.17L13.24 44.4 6.51 45.5 6.79 43.83 11.39 43.29 11.39 43.29 7.22 41.29 7.5 39.61 13.5 42.85 18.17 43.62zM19.68 37.99L9.61 33.11l1-2.13c.286-.721.864-1.288 1.59-1.56.756-.199 1.56-.095 2.24.29l4.7 2.28c.792.3 1.428.91 1.76 1.69.212.774.111 1.6-.28 2.3l-.94 2.01zm-8-5.66l7.35 3.56.33-.67c.18-.302.22-.667.11-1-.19-.323-.482-.573-.83-.71l-4.85-2.35c-.305-.167-.653-.24-1-.21-.348.111-.625.377-.75.72l-.36.66zM16.9 21.29l6.89 5.27c.278.206.51.469.68.77.172.309.28.649.32 1 .04.334.02.673-.06 1-.084.338-.237.655-.45.93-.417.55-1.036.91-1.72 1-.33.065-.67.065-1 0-.338-.084-.655-.237-.93-.45l-6.88-5.28 1-1.27 6.75 5.18c.237.215.55.327.87.31.263-.037.5-.177.66-.39.166-.205.239-.47.2-.73-.062-.314-.25-.588-.52-.76l-6.76-5.18.95-1.4zM26.69 27.14l-7.36-8.37 1.81-1.58c.294-.266.633-.48 1-.63.345-.14.72-.188 1.09-.14.394.04.773.177 1.1.4.436.315.829.685 1.17 1.1.286.31.544.644.77 1 .188.305.311.645.36 1 .083.408.048.831-.1 1.22-.185.463-.489.87-.88 1.18l-.62.54 2.88 3.29-1.22.99zm-5.15-8.37l2.5 2.87.58-.51c.2-.161.362-.366.47-.6.064-.181.064-.379 0-.56-.051-.194-.143-.375-.27-.53-.153-.208-.317-.408-.49-.6-.17-.2-.34-.38-.5-.55-.144-.16-.322-.286-.52-.37-.172-.08-.365-.1-.55-.06-.239.066-.456.193-.63.37l-.59.54zM31.46 23.14l-5.63-9.66 2.08-1.21c.337-.205.705-.354 1.09-.44.367-.065.744-.041 1.1.07.38.116.723.326 1 .61.368.391.684.828.94 1.3.222.363.413.745.57 1.14.118.32.176.659.17 1-.008.415-.121.821-.33 1.18-.274.423-.653.767-1.1 1l-.7.41 2.2 3.78-1.39.82zm-3.48-9.17l1.91 3.29.67-.39c.23-.119.429-.29.58-.5.097-.163.146-.35.14-.54-.013-.2-.07-.395-.17-.57-.1-.21-.22-.44-.36-.68-.14-.24-.26-.44-.39-.64-.115-.18-.264-.337-.44-.46-.153-.114-.34-.174-.53-.17-.245.028-.48.11-.69.24l-.72.42zM38.31 19.64L36.75 15.18 32.54 9.77 34.14 9.21 36.83 12.98 36.83 12.98 36.57 8.36 38.17 7.8 38.24 14.62 39.8 19.08zM50.23 9.52l-1.6.08v-.36c-.013-.333-.12-.656-.31-.93-.22-.263-.56-.396-.9-.35-.344-.004-.662.18-.83.48-.081.145-.132.305-.15.47-.015.183-.015.367 0 .55v.55c.024.134.071.263.14.38.073.115.173.211.29.28.16.096.332.173.51.23l1.25.42c.318.093.62.238.89.43.224.163.41.37.55.61.14.262.235.546.28.84.063.36.107.725.13 1.09.024.438 0 .877-.07 1.31-.065.376-.2.735-.4 1.06-.21.31-.495.562-.83.73-.397.204-.834.317-1.28.33-.373.023-.747-.028-1.1-.15-.329-.11-.632-.288-.89-.52-.532-.469-.852-1.132-.89-1.84v-.59l1.6-.09v.5c.008.287.114.562.3.78.226.245.56.362.89.31.22-.005.435-.06.63-.16.141-.083.256-.204.33-.35.084-.167.125-.353.12-.54v-.68c0-.25 0-.53-.07-.72-.02-.159-.07-.312-.15-.45-.081-.112-.187-.205-.31-.27l-.49-.21-1.17-.4c-.594-.164-1.109-.537-1.45-1.05-.282-.534-.436-1.126-.45-1.73-.024-.403.013-.808.11-1.2.083-.361.24-.702.46-1 .214-.292.49-.53.81-.7.373-.19.782-.296 1.2-.31.374-.025.749.03 1.1.16.327.124.629.307.89.54.488.426.781 1.033.81 1.68l.05.79zM52.77 17.71L53.95 8.11 52.11 7.88 52.29 6.38 57.56 7.03 57.38 8.52 55.54 8.3 54.37 17.91zM59 10.02c.112-.396.306-.764.57-1.08.234-.272.524-.49.85-.64.316-.14.655-.218 1-.23.338-.025.678.016 1 .12.316.096.614.244.88.44.271.201.502.453.68.74.182.306.298.646.34 1 .049.408.004.822-.13 1.21l-1.72 5.65c-.108.403-.307.775-.58 1.09-.227.266-.51.478-.83.62-.314.147-.654.228-1 .24-.337.021-.676-.016-1-.11-.313-.101-.607-.253-.87-.45-.27-.203-.499-.458-.67-.75-.19-.303-.31-.645-.35-1-.056-.41-.014-.828.12-1.22L59 10.02zm-.19 6.11c-.124.298-.106.637.05.92.148.237.38.408.65.48.26.1.55.1.81 0 .292-.136.5-.404.56-.72l1.72-5.65c.131-.298.109-.641-.06-.92-.149-.231-.376-.402-.64-.48-.26-.101-.55-.101-.81 0-.292.136-.5.404-.56.72l-1.72 5.65zM62.75 20.23l5.33-9.83 2.27 1.23c1.653.9 1.96 2.31.92 4.23-.266.512-.633.965-1.08 1.33-.422.32-.94.485-1.47.47l-.92 5.31-1.49-.81 1-4.91-.84-.46-2.28 4.2-1.44-.76zm6-7.74l-1.66 3.06.8.44c.201.113.422.188.65.22.174.01.347-.028.5-.11.163-.104.302-.24.41-.4.151-.198.285-.409.4-.63.122-.22.228-.447.32-.68.065-.186.1-.382.1-.58-.094-.421-.39-.77-.79-.93l-.73-.39zM69.35 24.28L72.35 20.61 74.73 14.22 76.05 15.29 74.24 19.55 74.24 19.55 78.05 16.92 79.36 17.99 73.54 21.62 70.54 25.29z"/>
                    <path fill="#FFF" d="M58.84 51.12l-13.4 8.92c-.531.354-1.214.387-1.776.086-.563-.301-.914-.888-.914-1.526V40.77c0-.638.35-1.225.914-1.526.562-.301 1.245-.268 1.776.086l13.4 8.91c.477.324.763.863.763 1.44s-.286 1.116-.763 1.44z"/>
                </g>
            </g>
        </g>
    </g>
</svg>
