<?xml version="1.0" encoding="utf-8"?>
<!-- Generator: Adobe Illustrator 23.0.1, SVG Export Plug-In . SVG Version: 6.00 Build 0)  -->
<svg version="1.1" id="Layer_1" xmlns="http://www.w3.org/2000/svg" xmlns:xlink="http://www.w3.org/1999/xlink" x="0px" y="0px"
	 viewBox="0 0 101 100" style="enable-background:new 0 0 101 100;" xml:space="preserve">
<style type="text/css">
	.st0{fill:#FFFFFF;}
	.st1{fill:#F9B63D;}
	.st2{fill:none;}
</style>
<circle class="st0" cx="49.8" cy="49.7" r="49.7"/>
<path class="st1" d="M49.8,23.7c-14.4,0-26,11.6-26,26s11.6,26,26,26s26-11.6,26-26S64.1,23.7,49.8,23.7
	C49.8,23.7,49.8,23.7,49.8,23.7z"/>
<path class="st0" d="M58.9,51.1L45.5,60c-0.5,0.4-1.2,0.4-1.8,0.1c-0.6-0.3-0.9-0.9-0.9-1.5V40.8c0-0.6,0.3-1.2,0.9-1.5
	c0.6-0.3,1.2-0.3,1.8,0.1l13.4,8.9c0.5,0.3,0.8,0.9,0.8,1.4S59.4,50.8,58.9,51.1z"/>
<path id="SVGID_x5F_1_x5F_" class="st2" d="M82.3,50.2c0,18-14.6,32.6-32.6,32.6S17.2,68.2,17.2,50.2s14.6-32.6,32.6-32.6
	S82.3,32.2,82.3,50.2z"/>
<text><textPath  xlink:href="#SVGID_x5F_1_x5F_" startOffset="58.7891%">
<tspan  class="st1" style="font-family:'MyriadPro-Bold'; font-size:13px; letter-spacing:-100;">PLAY DRINK GALAXY</tspan></textPath>
</text>
<path id="SVGID_x5F_2_x5F__2_" class="st2" d="M17.2,50.2c0-18,14.6-32.6,32.6-32.6s32.6,14.6,32.6,32.6S67.8,82.7,49.8,82.7
	S17.2,68.2,17.2,50.2z"/>
<text><textPath  xlink:href="#SVGID_x5F_2_x5F__2_" startOffset="58.7891%">
<tspan  style="fill:#606060; font-family:'MyriadPro-Bold'; font-size:13px; letter-spacing:-100;">PLAY DRINK GALAXY</tspan></textPath>
</text>
</svg>
