<?xml version="1.0" encoding="utf-8"?>
<!-- Generator: Adobe Illustrator 23.0.1, SVG Export Plug-In . SVG Version: 6.00 Build 0)  -->
<svg version="1.1" id="Layer_1" xmlns="http://www.w3.org/2000/svg" xmlns:xlink="http://www.w3.org/1999/xlink" x="0px" y="0px"
	 viewBox="0 0 360 95" style="enable-background:new 0 0 360 95;" xml:space="preserve">
<style type="text/css">
	.st0{fill-rule:evenodd;clip-rule:evenodd;fill:#A6D2C9;}
</style>
<g>
	<g>
		<path class="st0" d="M360,95V2.2c-25.5-6.5-66.2,2.7-94.3,9.2c-8.1,1.9-16.1,4.2-24.7,4.9c-14.6,1.1-28.7-2.6-42.7-5.3
			c-17.6-3.4-36.2-5.2-54.8-5.3c-6.7,0-13.4,0.1-19.8,1.3c-6.4,1.1-12.1,3.2-18.4,4.5c-12.4,2.7-26.1,2.4-39.2,1.6
			c-13.2-0.8-26.4-2-39.6-1.2C17,12.5,7.3,14.4,0,17.8V95H360z"/>
	</g>
</g>
</svg>
