<?xml version="1.0" encoding="utf-8"?>
<!-- Generator: Adobe Illustrator 23.0.1, SVG Export Plug-In . SVG Version: 6.00 Build 0)  -->
<svg version="1.1" id="Layer_1" xmlns="http://www.w3.org/2000/svg" xmlns:xlink="http://www.w3.org/1999/xlink" x="0px" y="0px"
	 viewBox="0 0 1440 176" style="enable-background:new 0 0 1440 176;" xml:space="preserve">
<style type="text/css">
	.st0{fill-rule:evenodd;clip-rule:evenodd;fill:#BC9D67;}
</style>
<g>
	<g>
		<g>
			<path class="st0" d="M1447.1,176V10.4c-102.7-30.4-266,12.8-379,43.1c-32.6,8.7-64.6,19.7-99.5,22.7
				C910,81.3,853.1,63.8,797.2,51.3c-70.8-15.9-145.3-24.3-220.1-24.9c-26.8-0.2-54,0.6-79.5,5.9c-25.6,5.3-48.8,14.9-73.9,21.1
				c-49.8,12.4-104.8,11.1-157.7,7.5c-52.9-3.6-106.1-9.4-159-5.5C68.5,58.2,29.5,67.1,0.1,83.1V176H1447.1z"/>
		</g>
	</g>
</g>
</svg>
