<svg xmlns="http://www.w3.org/2000/svg" width="317" height="199" viewBox="0 0 317 199">
    <g fill="none" fill-rule="evenodd">
        <g fill-rule="nonzero">
            <g>
                <g>
                    <path fill="#000" stroke="#000" stroke-width=".29" d="M142.22 59.9c3.01.11 5.843-1.421 7.4-4 .896.306 1.846.422 2.79.34h.18l.61-.06h0c.922-.123 1.786-.52 2.48-1.14-.16.26-.265.549-.31.85 0 .28.23.37.46.41.444.057.893.073 1.34.05.396.046.791-.095 1.07-.38.184-.276.313-.585.38-.91.006-.083.006-.167 0-.25.14-.34.3-.74.54-1.25 2.14-4.46 4.87-6.48 5.55-6.48.34 0 .48.13.48.41-.18.701-.456 1.374-.82 2-.786 1.407-1.334 2.934-1.62 4.52 0 1.53 1.29 2.23 4 2.3h.71c1.632-.133 3.227-.556 4.71-1.25 1.417.93 3.098 1.376 4.79 1.27h.37l.54-1.71h-.2c-1.078.088-2.149-.234-3-.9 3-2.07 4.41-4.75 4.41-6.46.047-.828-.275-1.635-.878-2.204-.604-.569-1.428-.842-2.252-.746-3.47.025-6.298 2.791-6.4 6.26-.068 1.2.305 2.385 1.05 3.33-.977.39-2.01.623-3.06.69-1.08-.08-1.52-.27-1.52-.87.12-.818.37-1.611.74-2.35 1.16-2.66 2-4.37 2-5.3 0-.93-.66-1.6-1.85-1.6-2.39 0-4.73 2.06-7.49 6.13l4.61-10.53c.4-.72.7-1.49.89-2.29 0-.49-.6-.6-1.92-.6-2.16 0-1.7 1-3 4.47l-2.9 8.22c-1 3-2.11 4.55-4.19 4.67-.828.086-1.665.042-2.48-.13l.33-.69c1.16-2.613 2.827-7.947 5-16-2.707-.789-5.502-1.24-8.32-1.34-3.76 0-5.72 1.26-5.72 3-.017.522.32.99.82 1.14.58-.82 2.08-1.4 4.28-1.4 1.653.038 3.295.276 4.89.71-1.116 4.614-2.58 9.137-4.38 13.53-1.22 2.59-2.65 3.86-5.27 3.86-1.508.095-2.978-.496-4-1.61-.643.252-1.048.891-1 1.58-.02 1.62 1.8 2.71 5.16 2.71zm33.74-13.6c.307-.043.617.06.838.277.221.217.329.525.292.833 0 1.19-1.19 3.54-3.41 4.86-.466-.511-.704-1.19-.66-1.88 0-2.22 1.46-4.09 2.94-4.09h0z" transform="translate(-710 -1708) translate(-18 1623) translate(728 85)"/>
                    <path fill="#000" d="M15.65 68.77c-2.225-.192-4.465-.081-6.66.33-1.093.19-2.194.323-3.3.4H4.27c-1.036-.031-2.072.053-3.09.25l-1.13.26.31 1.12c2.95 10.49 2.71 26.68 1 37.25l-.14.92.87.3c3.904 1.405 8.003 2.195 12.15 2.34 1.37.016 2.737-.136 4.07-.45 2.347-.763 4.428-2.178 6-4.08 5.39-6.57 6.82-19.77 3.12-28.83-2.44-5.82-6.51-9.22-11.78-9.81zm3.7 30.71c-.76 2.2-2.27 4.89-5.09 5.3-1.19.243-2.426-.05-3.38-.8-.833-6.418-1.067-12.899-.7-19.36 0-.55 0-1.11.08-1.66 0-.94.08-1.91.15-2.85l.05-.69c0-.872.135-1.74.4-2.57.15-.37.73-.51.84-.53.652-.175 1.335-.206 2-.09 1.1.248 2.11.794 2.92 1.58 3.64 3.94 5.03 14.88 2.68 21.67h.05zM52.57 68.96c-.69 0-1.38 0-2.06-.05l-1.5-.07.39 1.46c1.55 5.77 2.25 16.23 1.55 24.77-.18 2.47-.48 5-1.83 6.87-.81 1.015-2.052 1.586-3.35 1.54-1.105.018-2.177-.382-3-1.12-1.65-1.54-2.08-4.7-2.28-7.29-.477-7.869.054-15.766 1.58-23.5l.24-1.36-1.38.06c-.67 0-1.37.05-2.05.05-1.763.046-3.524-.136-5.24-.54l-1.7-.46.32 1.73c.72 4 .51 9 .28 14.35-.36 8.41-.73 17.11 2.78 22.2 2.06 3 6 4.75 10.58 4.75.46 0 .91-.02 1.35-.06 3.52-.136 6.79-1.86 8.89-4.69 3.52-5.1 3.15-14.27 2.78-23.16-.22-5.56-.44-10.8.29-14.76l.31-1.73-1.69.46c-1.722.41-3.49.595-5.26.55zM108.24 68.57c-2.394-.143-4.796-.043-7.17.3-2.418.343-4.866.417-7.3.22l-1.52-.18.31 1.5c2.34 11.6 2.56 29 .51 40.49l-.23 1.36 1.38-.07c1.09 0 2.47 0 3.82-.06h.23c1.3 0 2.63 0 3.77-.06h1.16l-.23-2.91c-.35-4.1-.74-8.73 0-12.35.88-.69 2.59-.73 4.26-.78 1.084.013 2.167-.088 3.23-.3 5.42-1.31 9.68-6.37 10.38-12.31.567-3.535-.336-7.148-2.5-10-2.19-2.8-5.69-4.46-10.1-4.85zm-5.34 20.16c-.29-1.407-.395-2.846-.31-4.28V83.3c0-2.26.06-5.06.61-6 .17-.28.29-.36 1.19-.51 2.82-.47 4.94 0 6.13 1.33 1 1.13 1.38 3 1.08 5.28-.282 2.53-2.07 4.638-4.52 5.33-.856.202-1.73.31-2.61.32-.544.054-1.09-.058-1.57-.32zM77.98 68.57c-2.397-.14-4.803-.039-7.18.3-2.414.342-4.86.416-7.29.22l-1.52-.18.3 1.5c2.34 11.6 2.56 29 .52 40.48l-.24 1.37 1.38-.07c1.1 0 2.47 0 3.82-.06H68c1.3 0 2.64 0 3.77-.06h1.16l-.24-3c-.34-4.08-.73-8.69 0-12.3.89-.69 2.6-.73 4.27-.78 1.08.013 2.16-.088 3.22-.3 5.42-1.31 9.69-6.38 10.38-12.31.567-3.535-.336-7.148-2.5-10-2.18-2.76-5.68-4.42-10.08-4.81zm3.38 14.81c-.28 2.532-2.068 4.64-4.52 5.33-.858.205-1.737.313-2.62.32-.547.059-1.1-.042-1.59-.29-.277-1.412-.378-2.853-.3-4.29v-1.14c0-2.26.06-5.07.61-6 .17-.29.29-.36 1.19-.51 2.8-.47 4.94 0 6.14 1.33 1.01 1.1 1.38 2.94 1.09 5.25zM251.65 103.07l-.1-.31c-2.61-8-5.3-16.25-6.28-26.08l-1.06-8h-3.14c-2.08 0-4.08 0-6.56-.15l-1-.08-.13 1.05c-1.093 8.294-2.835 16.489-5.21 24.51-1.27 4.48-2.5 8.09-3.8 11.9l-.28.83c-.44 1.29-.88 2.59-1.32 3.93l-.53 1.63 1.7-.18c1.359-.137 2.724-.2 4.09-.19h5.59v-1.33c-.14-2.292-.026-4.593.34-6.86l1.14-.07c2.48-.2 4.97-.2 7.45 0 .28 2.322.377 4.663.29 7v1l1 .12c.8.08 1.79.12 3.13.12h6l1.58.09-.45-1.52c-.8-2.41-1.63-4.99-2.45-7.41zm-10.17-6.11c-2.15.11-4.65.11-6.68 0 .816-4.032 1.857-8.015 3.12-11.93.08-.28.16-.55.25-.83.28 1 .56 2 .85 2.95l.05.16c1.022 3.146 1.833 6.356 2.43 9.61l-.02.04zM283.39 108.51c-1.502-1.946-2.897-3.973-4.18-6.07l-.58-1c-1.407-2.21-2.59-4.555-3.53-7 1.853-.734 3.518-1.875 4.87-3.34 2.928-3.358 4.223-7.838 3.54-12.24-.856-4.605-4.344-8.273-8.9-9.36-2.67-.65-6.22-.52-9.9-.23-2.465.249-4.945.319-7.42.21l-1.45-.12.28 1.44c2.22 11.07 2.44 29 .51 40l-.24 1.36 1.38-.06c1.91-.08 5-.11 7.5-.12h1.13v-1.12c0-.94-.17-2.37-.3-3.62-.08-.82-.17-1.63-.21-2.28v-.31c-.07-1.15-.14-2.33-.17-3.5-.054-1.213.003-2.428.17-3.63.034-.345.122-.682.26-1 .168-.25.39-.458.65-.61.08 0 .57.29 1.87 2.39l.26.4c2.622 3.808 4.558 8.045 5.72 12.52l.2.77.79.06c1.14.047 2.282.03 3.42-.05v-.65l.22.64c1.456-.106 2.919-.08 4.37.08l2.65.41-1.58-2.16-1.33-1.81zm-9.31-23.34c-.79 1.584-2.203 2.768-3.9 3.27-.824.187-1.665.288-2.51.3-1.07 0-1.47-.21-1.53-.29-.68-.87-.27-5.45-.11-7.23l.15-1.86c.12-1.76.22-2.13.72-2.41 3.1-.63 5.48 0 6.72 1.69 1.13 1.53 1.29 3.85.46 6.53zM316.17 103.56h-1.4c-1.56 0-3.23.06-5 .12h-.32c-1.95.07-4 .15-5.93.15-2.1.028-4.2-.105-6.28-.4-.29-2.44-.35-5.25-.4-7.75v-1.4c5.064-.618 10.188-.571 15.24.14l1.14.16.12-1.14c.14-1.17.16-2.59.18-4 0-1 0-1.94.09-2.63l.11-1.41-1.39.23c-6.42 1-11.6 1.2-15.79.55 0-1 0-2-.09-3-.07-2-.13-3.92 0-5.73 2.59-.585 5.245-.844 7.9-.77 2.31 0 4.64.11 7 .23h.58c1 0 2 .1 3 .13h1.19l-.41-9-1.26.25c-4.888.835-9.842 1.226-14.8 1.17-4.232.016-8.462-.204-12.67-.66l-1.7-.19.52 1.63c3.45 10.68 3 26.62 2.26 40.73l-.06 1.38 1.35-.23c3.676-.52 7.387-.753 11.1-.7 4.735-.042 9.467.255 14.16.89l1.23.2v-1.24-2.53c-.04-1.318-.006-2.636.1-3.95l.23-1.23zM218.87 70.45l.07-1.27-1.27.11c-2 .17-3.69.2-5.45.22l-3.19.07.2 1.25c.14.84.28 1.66.42 2.51.89 4.561 1.417 9.186 1.58 13.83-1.27 0-2.62.09-4.22.18-1.6.09-3.35.18-4.9.18-1.111.023-2.222-.054-3.32-.23 0-1.23-.09-2.54-.17-3.86-.11-1.77-.21-3.61-.15-5.2.08-2.52.18-4.53.28-6.8l.17-3.3-1.4.29c-1.986.295-3.993.416-6 .36h-2.87l.65 2.58c.5 1.803.897 3.632 1.19 5.48 1.19 8.41.75 18.71.35 27.8-.09 2.14-.17 4.2-.24 6.14v1.14h1.05c1 0 2 0 3.09-.06 1.09-.06 2.19-.07 3.23-.07h2.31l-.27-1.36c-.814-4.92-1.325-9.887-1.53-14.87 4.226-.567 8.486-.835 12.75-.8-.15 2-.21 4.33-.28 6.74-.1 3.23-.19 6.57-.5 9.31l-.15 1.37 1.36-.15c2.474-.274 4.968-.314 7.45-.12l1.58.17-.38-1.54c-2.51-10.33-2.09-26.86-1.44-40.1zM176.65 88.64c-2.39-1-4.64-2-6-3.26-1.5-1.557-1.896-3.872-1-5.84.665-1.897 2.413-3.202 4.42-3.3.69.011 1.37.16 2 .44 2.19 1 3.42 4.85 2.64 8.29l-.36 1.56 2-.29c1.852-.359 3.748-.426 5.62-.2l1.38.36v-1.43c0-5.29-1.33-9.33-3.94-12-2.02-1.977-4.558-3.343-7.32-3.94-4.217-.907-8.606.393-11.65 3.45-3.15 3.2-5.51 10.94-2 15.79 1.9 2.67 5.35 3.89 8.68 5.07 2.75 1 5.34 1.9 6.74 3.48 1.095 1.427 1.374 3.317.74 5-.402 1.613-1.602 2.907-3.18 3.43-1.639.508-3.42-.068-4.45-1.44-1.248-1.964-1.532-4.39-.77-6.59l.51-1.72-1.76.31c-.449.08-.904.116-1.36.11-1.733-.048-3.448-.355-5.09-.91l-1.76-.59.32 1.83c.099.685.146 1.377.14 2.07-.002.855.071 1.708.22 2.55 1.104 6.505 6.762 11.249 13.36 11.2 3.6.007 7.053-1.435 9.58-4 1.831-1.917 2.92-4.423 3.07-7.07.61-7.48-5.71-10.19-10.78-12.36zM141.75 68.53l-1-.09-.19 1c-.17.86-.34 1.73-.5 2.59l-.09.46c-1 5.27-2 10.71-4 15.11-2-4.65-3.09-10.42-4.12-16l-.58-3.15-1 .12c-2.746.319-5.516.359-8.27.12l-1.73-.13.62 1.63c1.3 3.4 3.07 7.92 5.25 12.67.59 1.27 1.17 2.66 1.74 4l.15.37c.72 1.72 1.46 3.49 2.22 5.1.2.42.43.83.66 1.25.325.507.58 1.055.76 1.63.9 4.2.19 9.13-.38 13.16-.13 1-.26 1.86-.36 2.7l-.14 1.19 1.19.05H141.4l-.34-1.39c-.713-3.46-1.115-6.978-1.2-10.51l-.06-1.11c-.152-1.416-.152-2.844 0-4.26.188-.622.443-1.223.76-1.79.19-.36.37-.73.54-1.08 3.17-7.1 6.45-14.7 9.5-22l.74-1.77-1.9.25c-2.56.218-5.137.178-7.69-.12z" transform="translate(-710 -1708) translate(-18 1623) translate(728 85)"/>
                    <path fill="#CEA55A" d="M52.65 50.93h-2.63v-1h6.39v1h-2.62v4.88h-1.14v-4.88zm7.15-1h3.53c1.38 0 2.38.32 2.38 1.76.019.446-.144.88-.45 1.205-.308.324-.733.51-1.18.515l1.8 2.39h-1.42l-1.7-2.3h-1.82v2.3H59.8v-5.87zm3.36 2.61c.93 0 1.41-.14 1.41-.83s-.48-.82-1.41-.82h-2.22v1.65h2.22zm8.78-2.61h1.3l2.85 5.87h-1.21l-.61-1.35h-3.38l-.62 1.35h-1.22l2.89-5.87zm1.88 3.54l-1.17-2.61-1.23 2.62 2.4-.01zm5.61-3.54h2.82c1.86 0 3.34.79 3.34 2.9s-1.35 3-3.29 3h-2.87v-5.9zm2.31 4.89c1.95 0 2.71-.6 2.71-2s-.79-1.93-2.71-1.93h-1.09v3.9l1.09.03zm7.47-4.89h5.26v1h-4.12v1.36h3.54v1h-3.54v1.55h4.3v1h-5.4l-.04-5.91zm133.83 1.43v4.44h-1v-5.87h1.54l1.83 4.36 1.87-4.36h1.51v5.87h-1v-4.43l-1.88 4.44H225l-1.96-4.45zm11.92-1.43h1.31l2.85 5.87h-1.17l-.61-1.35h-3.39l-.62 1.35h-1.22l2.85-5.87zm1.88 3.54l-1.19-2.61-1.23 2.62 2.42-.01zm5.61-3.54h3.53c1.39 0 2.39.32 2.39 1.76.019.448-.145.884-.454 1.209-.31.324-.738.509-1.186.511l1.8 2.39h-1.41l-1.7-2.3h-1.77v2.3h-1.15l-.05-5.87zm3.36 2.61c.94 0 1.41-.14 1.41-.83s-.47-.82-1.41-.82h-2.16v1.65h2.16zm6.32-2.61h1.14v2.74l3.25-2.74h1.63l-2.8 2.33 3.09 3.54h-1.5l-2.42-2.86-1.25 1v1.82h-1.14v-5.83zM158.3.99l-2 20.12 2 4.5 2-4.5-2-20.12zm-12 9.95l1.08 11.87 3.13 3.82.79-4.87-5-10.82zm0 0l1.08 11.87 3.13 3.82.79-4.87-5-10.82zm-32.65 32.75l10.82 5 4.87-.8-3.82-3.12-11.87-1.08zm12-20.68l6.9 9.73 4.62 1.74-1.76-4.62-9.76-6.85zm65.41-.07l-9.7 6.92-1.73 4.62 4.61-1.77 6.82-9.77zm12 20.74l-11.87 1.09-3.82 3.12 4.87.8 10.82-5.01zm-32.73-32.73l-5 10.82.79 4.87 3.12-3.81 1.09-11.88zm42.7 44.75l-20.12-2-4.5 2 4.5 2 20.12-2zm-89.25 2l4.5-2-4.5-2-20.11 2 20.11 2zm3.67-17.56l4.91.49-2.88-4-18.43-8.31 16.4 11.82zm11.9-13.33l4 2.88-.5-4.91-11.83-16.4 8.33 18.43zm34.48-2l-.48 4.92 4-2.9 8.23-18.47-11.75 16.45zm13.35 11.81l-2.86 4 4.91-.53 16.34-11.92-18.39 8.45z" transform="translate(-710 -1708) translate(-18 1623) translate(728 85)"/>
                    <path fill="#000" d="M115.91 123.74H92.4l1.77 4.43v39.08l-1.69 4.24 3.1 4h15.3l-1.59-4v-7.86h8.87l7.9-7.9v-19.48l-2.07-4.43-8.08-8.08zm-5 15.59v8.31l-.43.43h-1.22v-8.74h1.65zM162.87 123.74L154.75 131.86 154.75 164.8 165.44 175.49 184.66 175.49 184.66 163.16 182.53 158.17 178.21 159.9 169.87 159.9 169.87 139.97 170.52 139.32 180.69 139.32 184.66 140.91 184.66 128.48 182.56 123.74zM213.79 159.9L206.43 159.9 206.43 157.74 211.67 157.74 215.64 158.95 215.64 145.41 213.51 140.42 209.18 142.15 206.43 142.15 206.43 139.32 215.61 139.32 219.59 140.91 219.59 128.48 217.48 123.74 189.55 123.74 191.32 128.16 191.32 167.25 189.62 171.49 192.73 175.49 220.24 175.49 220.24 163.16 218.11 158.17zM85.78 151.22L74.7 140.13 74.7 139.97 75.35 139.32 83.88 139.32 87.85 140.91 87.85 128.48 85.75 123.74 67.7 123.74 59.58 131.86 59.58 144.75 72.73 157.9 72.73 159.47 72.31 159.9 64.01 159.9 59.58 158.13 59.58 171.53 62.48 175.49 79.95 175.49 87.85 167.59 87.85 155.65zM148 132.28L149.5 128.53 147.56 123.74 131.11 123.74 132.88 128.16 132.88 167.25 131.18 171.49 134.29 175.49 149.59 175.49 148 171.51zM258.65 136.25l-2.07-4.43-8.08-8.08h-23.85l1.77 4.43v39.08l-1.7 4.24 3.11 4h22.9l7.9-7.9.02-31.34zm-15.12 23.23l-.43.42h-1.55v-20.57h2l-.02 20.15z" transform="translate(-710 -1708) translate(-18 1623) translate(728 85)"/>
                    <path fill="#FF674C" d="M61.34 132.58L61.34 142.77 74.49 155.92 74.49 160.2 73.03 161.66 63.67 161.66 61.34 160.72 61.34 169.92 76.97 169.92 84.07 162.83 84.07 151.98 70.92 138.83 70.92 135.21 72.37 133.76 81.73 133.76 84.07 134.69 84.07 125.49 68.43 125.49zM115.18 125.49H94.99l.94 2.34v39.76l-.94 2.33h11.45l-.93-2.33v-9.52h9.67l7.1-7.1v-18.4l-7-7-.1-.08zm-9.67 24.33v-16.06h5.73l1.45 1.45v13.16l-1.45 1.45h-5.73zM145.15 125.49L133.7 125.49 134.63 127.83 134.63 167.59 133.7 169.92 145.15 169.92 144.22 167.59 144.22 127.83zM156.51 132.58L156.5 162.83 163.47 169.79 163.6 169.92 180.88 169.92 180.88 160.72 178.55 161.66 167.54 161.66 166.09 160.2 166.09 135.21 167.54 133.76 178.55 133.76 180.88 134.69 180.88 125.49 163.6 125.49zM202.65 161.66L202.65 152.17 209.52 152.17 211.86 153.1 211.86 142.97 209.52 143.9 202.65 143.9 202.65 133.76 213.47 133.76 215.8 134.69 215.8 125.49 192.14 125.49 193.07 127.83 193.07 167.59 192.13 169.92 216.46 169.92 216.46 160.72 214.13 161.66zM247.89 125.63l-.14-.14h-20.52l.94 2.34v39.76l-.94 2.33h20.52l7.1-7.09v-30.24l-6.96-6.96zm-10.14 36v-27.9h6.06l1.45 1.45v25l-1.45 1.46-6.06-.01z" transform="translate(-710 -1708) translate(-18 1623) translate(728 85)"/>
                    <path fill="#000" d="M81.81 198.44c-.197-.061-.403-.092-.61-.09-.895.127-1.796.207-2.7.24-3.24 0-5.85-2.22-5.85-6.18-.106-1.612.465-3.195 1.575-4.368 1.11-1.173 2.66-1.83 4.275-1.812 1.07 0 2.43.21 2.7.21.208.002.414-.032.61-.1l.66 3.49-.51.16c-.34-1.09-1.79-1.28-2.76-1.28-1.77 0-3.4 1.09-3.4 3.72-.102.956.223 1.908.888 2.602s1.603 1.06 2.562.998c1.44 0 2.39-.32 2.77-1.48l.52.15-.73 3.74zM93.03 198.37V198c.44 0 .66-.19.66-.51-.02-.146-.054-.29-.1-.43l-.09-.28c-.598.19-1.222.288-1.85.29-.61-.004-1.216-.095-1.8-.27l-.12.32c-.056.134-.09.275-.1.42 0 .34.22.48.58.48v.37h-4.4v-.37c.43 0 .56-.07.8-.77l3.14-9.3c.068-.208.115-.422.14-.64 0-.27-.14-.43-.39-.43v-.37h4.49v.37c-.25 0-.4.14-.4.44.023.282.09.559.2.82l3 9.08c.24.7.39.8.8.8v.37l-4.56-.02zm-1.38-8.55l-1.22 4.65c.427.12.867.187 1.31.2.4.007.796-.06 1.17-.2l-1.26-4.65zM107.98 198.37c-.54-1.152-.943-2.364-1.2-3.61h-1.67v2.31c0 .72.22.94.68.94v.37h-4.41v-.37c.42 0 .68-.22.68-.94v-9.35c0-.51-.24-.85-.68-.85v-.37c.78 0 2.51-.15 4.24-.15 3.5 0 6.25.62 6.25 4.12-.014 1.567-.975 2.97-2.43 3.55.373 1.252.929 2.441 1.65 3.53.168.307.5.487.85.46v.37l-3.96-.01zm-1.95-9.59h-.92v3.6c.333.02.667.02 1 0 1.8 0 2.64-.57 2.64-1.88s-.84-1.72-2.72-1.72zM115.94 198.37V198c.44 0 .68-.26.68-1v-9.32c0-.51-.29-.85-.68-.85v-.37h4.41v.37c-.4 0-.68.22-.68.94v9.3c0 .7.23 1 .68 1v.37l-4.41-.07zM128.47 198.54c-1.48 0-3.28-.1-4-.17V198c.46 0 .68-.22.68-.94v-9.33c0-.61-.25-.87-.68-.87v-.37c.8-.07 2.65-.17 4.11-.17 3.5 0 5.53.68 5.53 3.14-.028 1.09-.742 2.045-1.78 2.38 1.401.285 2.365 1.576 2.24 3 .02 2.44-2.01 3.7-6.1 3.7zm.52-9.78h-.76v2.15c.316.022.634.022.95 0 1.48 0 2-.34 2-1.15.02-.52-.32-1-2.19-1zm.43 4.55c-.396-.026-.794-.026-1.19 0v2.76h.71c2.12 0 2.63-.44 2.63-1.42 0-.64-.3-1.34-2.15-1.34zM142.65 198.54c-1.47 0-3.27-.1-4-.17V198c.46 0 .68-.22.68-.94v-9.33c0-.61-.25-.87-.68-.87v-.37c.8-.07 2.65-.17 4.11-.17 3.5 0 5.53.68 5.53 3.14-.034 1.089-.745 2.04-1.78 2.38 1.401.285 2.365 1.576 2.24 3-.02 2.44-2.1 3.7-6.1 3.7zm.53-9.78h-.76v2.15c.316.022.634.022.95 0 1.47 0 2-.34 2-1.15-.03-.52-.37-1-2.24-1h.05zm.42 4.55c-.393-.026-.787-.026-1.18 0v2.76h.71c2.12 0 2.63-.44 2.63-1.42-.05-.64-.36-1.34-2.21-1.34h.05zM161.2 198.56c-.362-.116-.74-.18-1.12-.19h-7.31V198c.46 0 .68-.31.68-.89v-9.38c0-.51-.29-.88-.68-.88v-.36h7.43c.336-.017.67-.057 1-.12l.59 3-.35.12c-.167-.433-.61-.694-1.07-.63h-3.84v2.06h3.5c.37 0 .58-.14.58-.51h.39v3.44h-.39c0-.35-.21-.49-.58-.49h-3.5v2.55h3.89c.63 0 .83-.17 1.1-.75l.41.14-.73 3.26zM172.51 198.37V198c.44 0 .66-.19.66-.51-.02-.146-.054-.29-.1-.43l-.09-.28c-.593.182-1.21.273-1.83.27-.61-.004-1.216-.095-1.8-.27l-.12.32c-.06.132-.095.275-.1.42 0 .34.22.48.58.48v.37h-4.4V198c.43 0 .56-.07.8-.77l3.14-9.3c.065-.208.109-.423.13-.64 0-.27-.13-.43-.39-.43v-.37h4.5v.37c-.117-.01-.233.033-.313.12-.08.085-.116.204-.097.32.028.282.1.559.21.82l3 9.08c.23.7.39.8.79.8v.37h-4.57zm-1.36-8.55l-1.22 4.65c.427.12.867.188 1.31.2.399.006.796-.061 1.17-.2l-1.26-4.65zM191.47 187.8v10.57h-2.67c-.052-.38-.185-.745-.39-1.07l-4.11-6.55h-.07v6.32c0 .7.21 1 .67 1v.37h-4v-.37c.45 0 .68-.26.68-1v-9.32c0-.51-.29-.85-.68-.85v-.37h4.32c.089.39.251.76.48 1.09l3 4.87h.07v-4.72c0-.65-.2-.87-.68-.87v-.37h4.06v.37c-.5-.04-.68.17-.68.9zM209.52 198.37c-.54-1.152-.943-2.364-1.2-3.61h-1.67v2.31c0 .72.22.94.68.94v.37h-4.41v-.37c.42 0 .68-.22.68-.94v-9.35c0-.51-.24-.85-.68-.85v-.37c.78 0 2.51-.15 4.24-.15 3.5 0 6.25.62 6.25 4.12-.014 1.567-.975 2.97-2.43 3.55.373 1.252.929 2.441 1.65 3.53.168.307.5.487.85.46v.37l-3.96-.01zm-2-9.59h-.92v3.6c.333.02.667.02 1 0 1.79 0 2.63-.57 2.63-1.88s-.78-1.72-2.66-1.72h-.05zM227.94 187.81v6.93c-.042.561.026 1.125.2 1.66-1.159 1.55-3.006 2.433-4.94 2.36-2.032.08-3.984-.793-5.28-2.36.196-.53.268-1.098.21-1.66v-7c0-.71-.26-.9-.68-.9v-.37h4.41v.37c-.46 0-.68.19-.68.9v6.76c0 1.24.9 1.73 2.07 1.73.47.044.936-.118 1.278-.444.341-.326.524-.784.502-1.256v-6.79c0-.71-.2-.9-.66-.9v-.37h4.28v.37c-.51.02-.71.23-.71.97zM242.16 198.37V198c.46 0 .66-.26.66-1v-5.28l-2.7 5.36h-1.33l-2.52-5.36h-.06v5.35c0 .73.21 1 .68 1v.37h-4.16v-.37c.46 0 .68-.22.68-1v-9.37c0-.58-.23-.8-.68-.8v-.37h4.18c.027.29.112.573.25.83l2.48 5.16 2.58-5.16c.156-.252.254-.536.29-.83h3.8v.37c-.39 0-.66.22-.66.73v9.44c0 .75.2 1 .66 1v.37l-4.15-.07z" transform="translate(-710 -1708) translate(-18 1623) translate(728 85)"/>
                    <path fill="#FFD862" d="M61.33 132.59v10.18l13.15 13.16v4.27l-1.45 1.46h-9.38l-2.34-.94v9.2h15.64l7.1-7.09v-10.85L70.9 138.83v-3.62l1.45-1.45h9.36l2.34.93v-9.2H68.43l-7.1 7.1zm21.17-5.52v5.13H71.72l-2.37 2.38v4.91l13.15 13.15v9.55l-6.18 6.18H62.9v-5.14h10.75l2.37-2.37v-5.57l-13.15-13.15v-8.9l6.18-6.17H82.5zM103.94 132.19v19.2h7.95l2.37-2.38v-14.44l-2.37-2.38h-7.95zm8.71 16.18l-1.45 1.45h-5.73v-16.06h5.73l1.45 1.45v13.16z" transform="translate(-710 -1708) translate(-18 1623) translate(728 85)"/>
                    <path fill="#FFD862" d="M115.18 125.49H94.99l.94 2.34v39.76l-.94 2.33h11.45l-.93-2.33v-9.52h9.67l7.1-7.1v-18.4l-7-7-.1-.08zm5.53 24.86l-6.18 6.17h-10.59v11.84h-6.45v-41.29h17l6.18 6.17.04 17.11zM145.15 125.49H133.7l.93 2.34v39.76l-.93 2.33h11.45l-.94-2.33v-39.76l.94-2.34zm-2.5 42.87h-6.46v-41.29h6.46v41.29zM156.5 132.59v30.24l7 7 .14.13h17.28v-9.2l-2.34.94h-11l-1.46-1.46v-25l1.46-1.45h11l2.34.93v-9.2h-17.27l-7.15 7.07zm22.82-5.52v5.13h-12.43l-2.37 2.38v26.28l2.37 2.37h12.43v5.14h-15.08l-6.17-6.18v-29l6.18-6.12h15.07zM202.65 161.66v-9.49h6.87l2.33.93v-10.13l-2.33.93h-6.87v-10.14h10.81l2.34.93v-9.2h-23.67l.94 2.34v39.76l-.94 2.33h24.33v-9.2l-2.34.94h-11.47zm12.24 6.7h-20.24v-41.29h19.61v5.13h-13.17v13.27h9.2v5.14h-9.2v12.61h13.8v5.14zM247.89 125.63l-.14-.14h-20.52l.94 2.34v39.76l-.94 2.33h20.52l7.1-7.09v-30.24l-6.96-6.96zm5.39 36.55l-6.18 6.18h-17.37v-41.29h17.38l6.17 6.17v28.94z" transform="translate(-710 -1708) translate(-18 1623) translate(728 85)"/>
                    <path fill="#FFD862" d="M236.19 132.19v31h8.27l2.37-2.37v-26.25l-2.37-2.38h-8.27zm9.07 28l-1.45 1.46h-6.06v-27.9h6.06l1.45 1.45v24.99z" transform="translate(-710 -1708) translate(-18 1623) translate(728 85)"/>
                </g>
            </g>
        </g>
    </g>
</svg>
