<svg xmlns="http://www.w3.org/2000/svg" xmlns:xlink="http://www.w3.org/1999/xlink" width="241" height="36" viewBox="0 0 241 36">
    <defs>
        <path id="f13k47jlfa" d="M0.482 0.21L110.311 0.21 110.311 35 0.482 35z"/>
        <path id="0dd1qqxrrc" d="M0 0.084L146.151 0.084 146.151 34.878 0 34.878z"/>
    </defs>
    <g fill="none" fill-rule="evenodd">
        <g>
            <g>
                <g>
                    <path fill="#005AA9" d="M103.475 12.472h.08c.137-.326.268-.646.39-.963.022-.058.045-.122.063-.176l-.533 1.139z" transform="translate(-600 -5198) translate(0 4945) translate(600 253.001)"/>
                    <g transform="translate(-600 -5198) translate(0 4945) translate(600 253.001) translate(130 .916)">
                        <mask id="eca6p6tetb" fill="#fff">
                            <use xlink:href="#f13k47jlfa"/>
                        </mask>
                        <path fill="#FFF" d="M82.346 11.555l-5.754 6.088 3.697 10.437h-5.333l-2.22-6.355-6.01 6.355H55.783L58.4 10.592 43.809 28.08H30.905l6.455-14.87s.65-1.655-1.126-1.655h-1.962l-7.39 16.525h-6.27l6.55-15.15s.375-1.375-1.215-1.375H23.7L16.406 28.08H10.14l9.352-21.135h23.1s3.839.153 1.873 4.61l-7.2 16.525L55.13 6.945h8.507L61.3 23.031h3.087l6.505-6.58-3.327-9.506h5.239l1.975 5.573 5.509-5.573h22.26l-1.87 4.61H82.346zM16.152.21L.482 35h95.117L110.31.21H16.15z" mask="url(#eca6p6tetb)"/>
                    </g>
                    <g transform="translate(-600 -5198) translate(0 4945) translate(600 253.001) translate(0 .916)">
                        <mask id="3fv25ieu2d" fill="#fff">
                            <use xlink:href="#0dd1qqxrrc"/>
                        </mask>
                        <path fill="#FFF" d="M129.663 14.986c1.871.28 6.174 1.87 3.928 7.11-2.242 5.239-4.489 5.984-9.257 5.984h-21.609l7.298-16.525h-6.467c-1.067 2.613-2.328 5.207-2.328 5.207s-.56 2.06-2.522 2.06c0 0 1.216 1.308.186 3.554l-2.527 5.704h-6.36l2.806-6.545s1.402-2.712-2.616-2.712l-4.118 9.257h-6.454L89.07 6.945h13.19s2.68.714 1.754 3.458l1.613-3.458h34.14l-1.967 4.61h-8.23s-2.338.159-2.803 1.469c-.47 1.307 1.026 1.682 2.897 1.962zM75.365 28.08h-13.09c-.596 0-.854-.48-.583-1.075L70.43 8.02c.275-.597.975-1.076 1.572-1.076h13.09c.596 0 .86.479.583 1.076l-8.733 18.984c-.275.596-.98 1.075-1.577 1.075zm-23.707-7.67l-3.553 7.67h-6.359l9.446-21.135h13c4.023 0 2.432 3.083 2.432 3.083s-2.057 4.863-3.367 7.58c-1.312 2.71-4.49 2.802-4.49 2.802h-7.109zm-17.397 7.67H8.818l2.432-5.05h23.105c1.027 0 2.057.376 2.808-1.31.745-1.681-1.5-2.526-1.5-2.526s-1.822-.881-3.459-1.401c-2.056-.656-3.023-3.128-2.15-5.894 1.68-5.33 7.76-4.954 7.76-4.954h11.693l-2.057 4.61h-8.51s-1.696-.122-2.152 1.094c-.624 1.65 2.644 2.463 5.36 3.774 3.368 1.619 1.247 5.36 1.247 5.36-3.023 7.138-9.134 6.297-9.134 6.297zM14.712.084L0 34.878h130.481L146.151.084H14.712z" mask="url(#3fv25ieu2d)"/>
                    </g>
                    <path fill="#FFF" d="M58.487 14.876c-1.03 2.522-2.712 2.432-2.712 2.432l-2.526.185 2.151-5.022h2.242s1.871-.122.845 2.405M77.919 13.059l-4.7 10.301c-.146.325-.362.588-.48.588h-2.594c-.118 0-.095-.263.054-.588l4.7-10.301c.145-.325.362-.587.48-.587h2.594c.118 0 .095.262-.054.587M103.475 12.472h.08c.137-.326.268-.646.39-.963.022-.058.045-.122.063-.176l-.533 1.139zM96.274 14.592c-.846 1.966-2.712 1.59-2.712 1.59h-1.87l1.585-3.71h2.342s1.496.158.655 2.12" transform="translate(-600 -5198) translate(0 4945) translate(600 253.001)"/>
                    <path fill="#FFF" d="M103.475 12.472h.08c.137-.326.268-.646.39-.963.022-.058.045-.122.063-.176l-.533 1.139zM127.512 21.887c-.655 2.436-3.928 2.06-3.928 2.06H111.33l5.054-11.475h4.769s-.657 0-1.216 2.31c-.561 2.305 2.15 3.927 5.424 4.768 3.272.84 2.15 2.337 2.15 2.337" transform="translate(-600 -5198) translate(0 4945) translate(600 253.001)"/>
                </g>
            </g>
        </g>
    </g>
</svg>
