<svg xmlns="http://www.w3.org/2000/svg" xmlns:xlink="http://www.w3.org/1999/xlink" width="1324" height="813" viewBox="0 0 1324 813">
    <defs>
        <path id="8v3u0iysaa" d="M0.614 0.485L9.47 0.485 9.47 9.336 0.614 9.336z"/>
        <path id="gqi5pi3uec" d="M0 0.467L6.368 0.467 6.368 8 0 8z"/>
    </defs>
    <g fill="none" fill-rule="evenodd">
        <g>
            <g>
                <g>
                    <path fill="#E4B476" d="M14.688 153.34c.968 1.459 1.19 3.952 1.19 3.952s.213-2.168 1.03-3.647l2.25 2.7-2.033-3.052c.4-.57.897-.994 1.574-.994v-.064c-.657 0-1.157-.391-1.548-.94l2.975-2.477-3.185 2.12c-.85-1.474-1.064-3.69-1.064-3.69s-.168 2.002-.894 3.465l-2.39-2.86 2.157 3.24c-.399.653-.919 1.142-1.654 1.142v.064c.564 0 1.006.298 1.368.72l-2.83 2.358 3.054-2.037zM279.491 238.128c-.642-1.103-.798-2.77-.798-2.77s-.126 1.505-.669 2.603l-1.792-2.148 1.613 2.43c-.298.49-.687.858-1.237.858v.048c.42 0 .751.222 1.025.539l-2.125 1.77 2.292-1.53c.726 1.097.893 2.963.893 2.963s.156-1.621.772-2.734l1.688 2.03-1.528-2.29c.303-.432.678-.748 1.184-.748v-.048c-.49 0-.866-.292-1.164-.708l2.231-1.855-2.385 1.59zM455.951 2.768c-.643-1.103-.799-2.767-.799-2.767s-.125 1.502-.668 2.602L452.692.455l1.613 2.428c-.298.492-.687.858-1.237.858v.047c.42 0 .751.223 1.025.539l-2.125 1.772 2.292-1.531c.726 1.097.892 2.963.892 2.963s.156-1.621.773-2.732l1.688 2.028-1.528-2.29c.303-.432.678-.75 1.184-.75v-.046c-.49 0-.866-.292-1.164-.708l2.233-1.856-2.387 1.59zM397.103 362.596c.726 1.097.892 2.963.892 2.963s.156-1.62.772-2.734l1.69 2.03-1.53-2.29c.302-.432.68-.749 1.185-.749v-.047c-.492 0-.865-.292-1.163-.708l2.23-1.856-2.385 1.591c-.642-1.103-.798-2.77-.798-2.77s-.125 1.504-.67 2.603l-1.792-2.148 1.613 2.43c-.298.49-.688.858-1.236.858v.047c.42 0 .752.222 1.024.54l-2.125 1.771 2.293-1.53zM81.815 322.09c-.85-1.475-1.063-3.69-1.063-3.69s-.17 2.001-.889 3.466l-2.39-2.862 2.151 3.24c-.399.653-.917 1.144-1.652 1.144v.064c.56 0 1.004.296 1.368.718l-2.834 2.358 3.054-2.037c.97 1.461 1.192 3.953 1.192 3.953s.213-2.169 1.033-3.648l2.246 2.703L82 324.444c.398-.57.9-.992 1.571-.992v-.064c-.65 0-1.15-.39-1.545-.942l2.976-2.477-3.186 2.121zM550.573 35.17c.97 1.46 1.191 3.95 1.191 3.95s.214-2.166 1.031-3.648l2.25 2.702-2.034-3.053c.397-.57.901-.992 1.574-.992v-.064c-.655 0-1.157-.393-1.545-.942l2.972-2.475-3.184 2.121c-.85-1.477-1.064-3.69-1.064-3.69s-.17 2-.889 3.464l-2.39-2.86 2.151 3.238c-.399.655-.917 1.144-1.654 1.144v.064c.562 0 1.006.296 1.37.72l-2.833 2.358 3.054-2.037zM281.813 43.495c-.852-1.477-1.063-3.695-1.063-3.695s-.171 2.002-.892 3.469l-2.39-2.864 2.154 3.24c-.403.652-.92 1.148-1.656 1.148v.062c.563 0 1.005.292 1.368.716l-2.83 2.362 3.051-2.041c.971 1.459 1.195 3.952 1.195 3.952s.21-2.164 1.031-3.643l2.245 2.7-2.033-3.052c.4-.574.904-.994 1.577-.994v-.062c-.654 0-1.156-.397-1.548-.946l2.976-2.477-3.185 2.125zM638.901 71.57c.971 1.46 1.193 3.951 1.193 3.951s.214-2.164 1.03-3.643l2.251 2.703-2.036-3.055c.402-.572.902-.992 1.577-.992v-.064c-.66 0-1.157-.395-1.545-.944l2.97-2.477-3.183 2.123c-.85-1.475-1.064-3.695-1.064-3.695s-.17 2.004-.892 3.471l-2.392-2.864 2.157 3.24c-.399.651-.92 1.146-1.654 1.146v.064c.562 0 1.006.292 1.37.716l-2.833 2.362 3.051-2.043zM511.208 116.94c-.851-1.477-1.064-3.691-1.064-3.691s-.169 2.002-.889 3.465l-2.391-2.86 2.153 3.24c-.398.653-.916 1.144-1.655 1.144v.061c.564 0 1.008.296 1.37.72l-2.833 2.358 3.055-2.036c.968 1.459 1.19 3.953 1.19 3.953s.213-2.17 1.033-3.648l2.249 2.7-2.035-3.053c.399-.57.903-.994 1.574-.994v-.062c-.653 0-1.156-.392-1.548-.941l2.976-2.478-3.185 2.121zM405.937 71.833c-.639-1.107-.8-2.77-.8-2.77s-.125 1.505-.668 2.6l-1.793-2.145 1.618 2.43c-.3.49-.693.858-1.243.858v.048c.427 0 .756.222 1.03.54l-2.124 1.766 2.29-1.527c.724 1.097.89 2.963.89 2.963s.161-1.626.774-2.732l1.685 2.024-1.522-2.29c.296-.428.673-.744 1.178-.744v-.048c-.488 0-.863-.292-1.16-.708l2.232-1.856-2.387 1.591zM166.694 5.21c-.85-1.477-1.063-3.691-1.063-3.691s-.169 2-.89 3.465l-2.39-2.86 2.152 3.238c-.402.655-.92 1.144-1.655 1.144v.064c.562 0 1.004.296 1.37.72l-2.833 2.358 3.054-2.037c.97 1.459 1.192 3.95 1.192 3.95s.213-2.166 1.032-3.647l2.247 2.7-2.033-3.05c.397-.57.901-.994 1.574-.994v-.064c-.654 0-1.156-.393-1.547-.942l2.975-2.475-3.185 2.12zM132.723 107.118c-.307-1.459.125-3.362.125-3.362s-.688 1.617-1.688 2.64l-1.207-3.03.908 3.28c-.513.433-1.082.698-1.692.501l-.016.051c.467.154.754.52.942.973l-3.004 1.183 3.099-.858c.409 1.478-.09 3.611-.09 3.611s.77-1.74 1.855-2.75l1.128 2.861-.854-3.094c.49-.368 1.02-.578 1.58-.395l.017-.05c-.545-.18-.85-.644-1.025-1.209l3.15-1.245-3.228.893zM122 200.08c-.85-1.474-1.063-3.69-1.063-3.69s-.171 2.002-.89 3.467l-2.391-2.862 2.153 3.24c-.4.653-.918 1.144-1.653 1.144v.064c.56 0 1.004.296 1.368.718l-2.833 2.358 3.054-2.037c.969 1.46 1.192 3.953 1.192 3.953s.213-2.17 1.032-3.648l2.247 2.703-2.033-3.055c.399-.57.901-.992 1.572-.992v-.064c-.651 0-1.152-.391-1.545-.942l2.975-2.477-3.185 2.12zM274.825 344.268c-.303-1.459.125-3.362.125-3.362s-.687 1.617-1.689 2.638l-1.202-3.029.902 3.278c-.507.436-1.076.701-1.686.504l-.02.051c.466.155.755.52.942.973l-3 1.184 3.1-.86c.402 1.481-.096 3.613-.096 3.613s.771-1.74 1.856-2.75l1.13 2.858-.854-3.092c.487-.368 1.02-.578 1.578-.395l.02-.05c-.544-.18-.853-.643-1.028-1.209l3.15-1.245-3.228.893zM265.908 128.055c-.852-1.475-1.065-3.693-1.065-3.693s-.169 2.002-.895 3.47l-2.39-2.865 2.157 3.24c-.399.652-.92 1.146-1.654 1.146v.064c.564 0 1.006.292 1.368.716l-2.829 2.362 3.053-2.043c.97 1.461 1.19 3.952 1.19 3.952s.213-2.162 1.028-3.643l2.251 2.703-2.034-3.055c.401-.572.898-.992 1.576-.992v-.064c-.657 0-1.154-.395-1.548-.944l2.976-2.477-3.184 2.123zM186.084 279.453c-.302-1.46.126-3.362.126-3.362s-.688 1.617-1.69 2.638l-1.201-3.03.9 3.279c-.505.436-1.074.7-1.684.504l-.02.05c.466.156.755.52.942.974l-3 1.184 3.099-.861c.403 1.482-.095 3.614-.095 3.614s.77-1.741 1.855-2.75l1.13 2.858-.853-3.092c.487-.368 1.02-.578 1.578-.395l.02-.051c-.545-.18-.854-.642-1.03-1.208l3.152-1.245-3.23.893zM1148.847 229.914c.967 1.459 1.188 3.952 1.188 3.952s.214-2.168 1.03-3.647l2.25 2.7-2.032-3.052c.399-.57.897-.994 1.574-.994v-.064c-.656 0-1.156-.391-1.547-.94l2.974-2.477-3.184 2.12c-.851-1.474-1.065-3.69-1.065-3.69s-.167 2.002-.894 3.465l-2.39-2.86 2.158 3.24c-.4.653-.92 1.142-1.655 1.142v.064c.564 0 1.006.298 1.368.72l-2.831 2.358 3.056-2.037zM1215.974 398.664c-.851-1.475-1.064-3.69-1.064-3.69s-.171 2.001-.89 3.466l-2.39-2.862 2.153 3.24c-.4.653-.918 1.144-1.653 1.144v.064c.56 0 1.004.296 1.368.718l-2.833 2.358 3.053-2.037c.97 1.461 1.192 3.953 1.192 3.953s.213-2.169 1.033-3.648l2.247 2.703-2.033-3.055c.399-.57.9-.992 1.572-.992v-.064c-.651 0-1.152-.39-1.546-.942l2.976-2.477-3.185 2.121zM1300.852 81.784c-.85-1.477-1.063-3.691-1.063-3.691s-.17 2-.891 3.465l-2.39-2.86 2.154 3.238c-.402.655-.92 1.144-1.655 1.144v.064c.562 0 1.004.296 1.37.72l-2.833 2.358 3.053-2.037c.969 1.459 1.192 3.95 1.192 3.95s.213-2.166 1.033-3.647l2.246 2.7-2.032-3.05c.396-.57.9-.994 1.573-.994v-.064c-.653 0-1.155-.393-1.547-.942l2.976-2.475-3.186 2.12zM1266.88 183.692c-.307-1.459.126-3.362.126-3.362s-.69 1.617-1.69 2.64l-1.206-3.03.908 3.28c-.512.433-1.082.698-1.691.501l-.016.051c.466.155.753.52.942.973l-3.004 1.184 3.099-.859c.409 1.478-.091 3.611-.091 3.611s.77-1.74 1.855-2.75l1.128 2.861-.854-3.094c.49-.368 1.02-.578 1.58-.395l.017-.05c-.545-.18-.85-.644-1.025-1.209l3.15-1.245-3.228.893zM1256.157 276.654c-.85-1.474-1.063-3.69-1.063-3.69s-.17 2.002-.889 3.466l-2.392-2.862 2.153 3.24c-.399.654-.917 1.144-1.653 1.144v.065c.561 0 1.005.296 1.37.718l-2.835 2.357 3.054-2.036c.97 1.46 1.192 3.953 1.192 3.953s.213-2.17 1.032-3.649l2.247 2.703-2.032-3.054c.398-.57.9-.993 1.571-.993v-.064c-.65 0-1.152-.39-1.545-.942l2.975-2.476-3.185 2.12z" transform="translate(-55 -1699) translate(-18 1623) translate(73 76)"/>
                    <g transform="translate(-55 -1699) translate(-18 1623) translate(73 76) translate(1314 351.789)">
                        <mask id="9selk2siyb" fill="#fff">
                            <use xlink:href="#8v3u0iysaa"/>
                        </mask>
                        <path fill="#E4B476" d="M6.242 4.238C5.94 2.78 6.367.876 6.367.876S5.68 2.493 4.678 3.514L3.476.485l.902 3.278c-.507.436-1.076.701-1.686.504l-.02.051c.466.154.755.52.942.973l-3 1.183 3.1-.86c.402 1.482-.096 3.613-.096 3.613s.771-1.74 1.856-2.749l1.13 2.858-.854-3.092c.487-.369 1.02-.578 1.578-.395l.02-.052c-.544-.179-.853-.642-1.028-1.207l3.15-1.245-3.228.893z" mask="url(#9selk2siyb)"/>
                    </g>
                    <path fill="#E4B476" d="M61.14 449.998c-.641-1.103-.797-2.767-.797-2.767s-.126 1.502-.67 2.602l-1.791-2.148 1.613 2.428c-.298.492-.687.858-1.236.858v.048c.419 0 .75.222 1.025.539l-2.126 1.77 2.292-1.53c.726 1.097.893 2.963.893 2.963s.156-1.621.772-2.732l1.689 2.029-1.53-2.29c.304-.433.679-.75 1.186-.75v-.047c-.492 0-.866-.292-1.165-.707l2.233-1.857-2.387 1.59z" transform="translate(-55 -1699) translate(-18 1623) translate(73 76)"/>
                    <g transform="translate(-55 -1699) translate(-18 1623) translate(73 76) translate(0 804.789)">
                        <mask id="zoso6oaxxd" fill="#fff">
                            <use xlink:href="#gqi5pi3uec"/>
                        </mask>
                        <path fill="#E4B476" d="M2.292 5.037C3.019 6.134 3.186 8 3.186 8s.156-1.62.77-2.734l1.69 2.03-1.53-2.29c.304-.432.68-.749 1.186-.749V4.21c-.491 0-.866-.292-1.164-.708l2.23-1.856-2.385 1.591c-.641-1.103-.797-2.77-.797-2.77s-.126 1.504-.67 2.603L.726.922l1.612 2.43c-.298.49-.687.858-1.236.858v.047c.42 0 .75.222 1.024.54L0 6.567l2.292-1.53z" mask="url(#zoso6oaxxd)"/>
                    </g>
                    <path fill="#E4B476" d="M155.763 482.4c.969 1.46 1.19 3.95 1.19 3.95s.215-2.166 1.033-3.648l2.248 2.702-2.033-3.053c.397-.57.9-.992 1.574-.992v-.064c-.655 0-1.157-.393-1.545-.942l2.972-2.475-3.184 2.121c-.85-1.477-1.064-3.69-1.064-3.69s-.17 2-.888 3.464l-2.392-2.86 2.153 3.238c-.4.655-.918 1.144-1.654 1.144v.064c.562 0 1.006.296 1.37.72l-2.833 2.358 3.053-2.037zM244.092 518.799c.97 1.46 1.192 3.953 1.192 3.953s.214-2.165 1.03-3.644l2.25 2.703-2.034-3.055c.4-.572.9-.992 1.576-.992v-.064c-.66 0-1.157-.395-1.545-.944l2.97-2.477-3.182 2.123c-.851-1.475-1.065-3.695-1.065-3.695s-.17 2.004-.892 3.47L242 513.315l2.156 3.24c-.4.65-.921 1.146-1.654 1.146v.064c.562 0 1.006.292 1.37.716l-2.833 2.362 3.052-2.043zM116.397 564.17c-.85-1.478-1.064-3.692-1.064-3.692s-.168 2.002-.889 3.465l-2.39-2.86 2.152 3.24c-.398.653-.916 1.144-1.655 1.144v.062c.564 0 1.008.296 1.37.72l-2.833 2.358 3.056-2.037c.967 1.46 1.19 3.953 1.19 3.953s.213-2.169 1.032-3.648l2.25 2.701-2.036-3.053c.4-.57.903-.994 1.574-.994v-.062c-.653 0-1.156-.392-1.547-.942l2.975-2.477-3.185 2.121zM11.126 519.063c-.638-1.107-.798-2.77-.798-2.77s-.126 1.505-.67 2.599l-1.791-2.144 1.617 2.43c-.3.49-.693.858-1.243.858v.048c.426 0 .755.222 1.03.539l-2.124 1.767 2.29-1.527c.724 1.097.89 2.963.89 2.963s.16-1.625.775-2.732l1.684 2.024-1.522-2.29c.296-.428.673-.744 1.178-.744v-.048c-.49 0-.864-.292-1.16-.708l2.23-1.855-2.386 1.59zM169.144 353.962v-.06c-.632 0-1.119-.38-1.498-.912l2.88-2.398-3.083 2.054c-.822-1.43-1.029-3.573-1.029-3.573s-.163 1.938-.86 3.354l-2.315-2.768 2.083 3.136c-.383.631-.886 1.107-1.6 1.107v.06c.544 0 .975.287 1.326.697l-2.743 2.282 2.957-1.97c.938 1.411 1.153 3.824 1.153 3.824s.207-2.099.999-3.53l2.175 2.614-1.968-2.955c.385-.552.874-.962 1.523-.962M26.07 244.172v-.06c-.63 0-1.119-.38-1.497-.912l2.88-2.398-3.083 2.054c-.823-1.43-1.03-3.573-1.03-3.573s-.164 1.938-.86 3.354l-2.314-2.768 2.083 3.136c-.385.63-.887 1.107-1.602 1.107v.06c.546 0 .977.287 1.326.697l-2.742 2.282 2.958-1.971c.936 1.412 1.151 3.825 1.151 3.825s.207-2.1 1-3.531l2.176 2.615-1.969-2.955c.386-.552.874-.962 1.523-.962M186.987 279.282v-.06c-.63 0-1.119-.38-1.498-.912l2.88-2.398-3.083 2.054c-.822-1.43-1.029-3.573-1.029-3.573s-.164 1.938-.86 3.354l-2.314-2.769 2.083 3.137c-.385.631-.887 1.107-1.602 1.107v.06c.546 0 .976.287 1.326.697l-2.742 2.282 2.957-1.97c.937 1.411 1.152 3.824 1.152 3.824s.207-2.099 1-3.53l2.176 2.614-1.969-2.955c.386-.552.874-.962 1.523-.962M309.452 222.568v-.06c-.632 0-1.119-.38-1.498-.912l2.88-2.398-3.083 2.054c-.822-1.43-1.029-3.573-1.029-3.573s-.164 1.938-.86 3.354l-2.315-2.77 2.083 3.138c-.384.63-.886 1.107-1.6 1.107v.06c.545 0 .975.287 1.325.697l-2.742 2.282 2.957-1.971c.937 1.412 1.152 3.825 1.152 3.825s.207-2.1 1-3.531l2.176 2.615-1.969-2.955c.385-.552.874-.962 1.523-.962M19.864 62.596v-.062c-.633 0-1.119-.38-1.497-.912l2.88-2.395-3.083 2.053c-.823-1.43-1.03-3.573-1.03-3.573s-.164 1.936-.863 3.354l-2.31-2.768 2.082 3.134c-.389.633-.89 1.107-1.602 1.107v.062c.544 0 .972.287 1.326.697l-2.742 2.282 2.956-1.97c.938 1.411 1.153 3.822 1.153 3.822s.207-2.097 1-3.53l2.174 2.614-1.967-2.953c.384-.552.872-.962 1.523-.962M226.702 56.065v-.062c-.638 0-1.119-.382-1.496-.914l2.876-2.398-3.08 2.056c-.823-1.428-1.03-3.577-1.03-3.577s-.166 1.94-.865 3.36l-2.314-2.773 2.087 3.137c-.386.629-.892 1.109-1.6 1.109v.062c.542 0 .973.283 1.325.693l-2.742 2.286 2.953-1.977c.94 1.414 1.156 3.825 1.156 3.825s.207-2.095.995-3.526l2.178 2.616-1.968-2.957c.387-.554.872-.96 1.525-.96M118.247 129.23v-.063c-.637 0-1.119-.382-1.495-.914l2.876-2.398-3.081 2.055c-.822-1.427-1.029-3.576-1.029-3.576s-.167 1.94-.866 3.36l-2.313-2.773 2.087 3.137c-.387.63-.893 1.11-1.602 1.11v.061c.544 0 .975.283 1.327.693l-2.742 2.286 2.953-1.977c.94 1.414 1.156 3.825 1.156 3.825s.207-2.095.995-3.527l2.178 2.617-1.969-2.957c.388-.554.872-.96 1.525-.96" transform="translate(-55 -1699) translate(-18 1623) translate(73 76)"/>
                </g>
            </g>
        </g>
    </g>
</svg>
