<?xml version="1.0" encoding="utf-8"?>
<!-- Generator: Adobe Illustrator 16.0.0, SVG Export Plug-In . SVG Version: 6.00 Build 0)  -->
<!DOCTYPE svg PUBLIC "-//W3C//DTD SVG 1.1//EN" "http://www.w3.org/Graphics/SVG/1.1/DTD/svg11.dtd">
<svg version="1.1" id="Layer_1" xmlns="http://www.w3.org/2000/svg" xmlns:xlink="http://www.w3.org/1999/xlink" x="0px" y="0px"
	 width="625.241px" height="398.769px" viewBox="0 1.231 625.241 398.769" enable-background="new 0 1.231 625.241 398.769"
	 xml:space="preserve">
<polygon fill="#ECD078" points="324.979,-11.438 327.643,-18.666 341.242,-174.608 321.422,-19.372 322.406,-11.632 
	324.979,-11.438 "/>
<polygon fill="#ECD078" points="332.617,-10.233 335.16,-9.79 338.525,-16.727 375.002,-205.162 332.395,-18.036 "/>
<polygon fill="#ECD078" points="342.641,-7.845 345.131,-7.153 349.156,-13.73 395.553,-166.999 343.188,-15.634 342.641,-7.845 "/>
<polygon fill="#ECD078" points="352.391,-4.487 354.801,-3.553 359.449,-9.7 432.246,-188.282 353.699,-12.186 352.391,-4.487 "/>
<polygon fill="#ECD078" points="361.762,-0.188 364.07,0.975 369.295,-4.689 440.32,-137.179 363.818,-7.72 361.762,-0.188 "/>
<polygon fill="#ECD078" points="370.67,5.004 372.846,6.388 378.605,1.265 484.354,-158.926 373.447,-2.293 370.668,5.004 "/>
<path fill="#ECD078" d="M425.957,96.289l192.699-1.19l-192.609-5.075l-5.73,1.314c-0.021-2.342-0.143-4.677-0.344-7.006l5.75,0.901
	l143.396-16.554L425.205,78.996l-5.59,1.877c-0.287-2.327-0.645-4.645-1.102-6.946l5.9,0.341l200.848-40.913L423.285,68.106
	l-5.504,2.466c-0.541-2.304-1.176-4.587-1.879-6.849l6.135-0.249L563.615,18.04L420.305,57.458l-5.439,3.115
	c-0.787-2.267-1.645-4.511-2.588-6.722l6.328-0.878l182.438-78.33L416.297,47.15l-5.318,3.777c-1.021-2.206-2.129-4.374-3.301-6.508
	l6.49-1.568l118.623-66.643L411.295,37.285l-5.133,4.466c-1.248-2.128-2.561-4.218-3.951-6.259l6.551-2.277L579.027-83.238
	L405.355,27.953l-4.838,5.125c-1.461-2.025-3-3.994-4.596-5.914l6.52-3.012l127.414-108.22L398.535,19.251l-4.453,5.759
	c-1.666-1.899-3.391-3.744-5.184-5.521l6.357-3.734L530.59-120.03L390.895,11.262l-3.971,6.319
	c-1.855-1.747-3.775-3.422-5.752-5.031l6.115-4.445l95.967-119.965L382.504,4.055l-3.41,6.844c-6.275-4.853-13.088-9-20.338-12.243
	c-31.693-14.171-69.008-13.43-99.213,4.32c-7.02,4.131-13.961,9.382-20.074,15.043l-3.875-6.522L96.123-126.635L231.127,15.88
	l6.395,3.976c-0.703,0.684-1.41,1.369-2.086,2.061c-1.096,1.119-2.143,2.268-3.164,3.429l-4.301-5.846L97.957-84.338L223.955,24.298
	l6.475,3.195c-1.605,1.941-3.109,3.939-4.525,5.981l-4.732-5.265L63.83-75.262L217.641,33.381l6.645,2.498
	c-1.361,2.102-2.621,4.254-3.793,6.445l-5.234-4.776L69.334-39.204l142.92,82.235l6.91,1.859c-1.121,2.253-2.135,4.547-3.064,6.874
	l-5.811-4.35L18.696-30.397l189.138,83.563l7.264,1.201c-0.875,2.388-1.65,4.81-2.336,7.257l-6.453-3.902L59.427,13.636
	L204.43,63.689l7.639,0.509c-4.961,19.653-4.086,40.895,1.652,60.67c0.133,0.484,0.279,0.968,0.43,1.447
	c13.432,44.673,56.988,70.994,102.432,71.464c5.514,0.057,10.91-0.354,16.162-1.186l-0.428,7.609l38.65,189.225l-32.492-190.367
	l-3.115-6.914c2.514-0.469,4.992-1.037,7.436-1.697l0.309,7.359l45.477,145.383L349.121,200.07l-3.67-6.383
	c2.422-0.73,4.805-1.553,7.145-2.463l1.008,7.143l72.406,177.447l-66.588-179.767l-4.199-5.886c2.314-0.979,4.584-2.044,6.809-3.191
	l1.684,6.945l71.102,131.26l-65.535-134.14l-4.727-5.418c2.191-1.212,4.338-2.505,6.43-3.875l2.357,6.752l101.105,148.79
	l-95.85-152.203l-5.24-4.934c2.059-1.432,4.064-2.94,6.016-4.519l3.023,6.524l92.049,107.794l-87.16-111.698l-5.738-4.43
	c1.912-1.633,3.77-3.332,5.566-5.1l3.67,6.24l126.594,124.895L395.266,170.6l-6.176-3.871c1.746-1.811,3.43-3.688,5.053-5.621
	l4.283,5.871l107.945,93.248l-103.906-98.031l-6.551-3.254c1.566-1.966,3.07-3.987,4.508-6.062l4.828,5.411l136.348,90.927
	l-132.801-96.085L402,150.546c1.375-2.096,2.678-4.245,3.916-6.437l5.27,4.863l119.404,62.816l-116.373-68.299l-6.934-1.879
	c1.17-2.198,2.271-4.439,3.301-6.72l5.607,4.231l165.037,69.365l-162.563-75.117l-6.91-1.168c0.957-2.272,1.84-4.58,2.65-6.92
	l5.793,3.539l133.508,40.036l-131.605-46.002l-6.742-0.462c0.734-2.315,1.396-4.661,1.984-7.032l5.838,2.827l189.971,39.662
	L424.49,112.059l-6.418,0.188c0.369-1.685,0.703-3.38,0.996-5.088c0.111-0.656,0.191-1.313,0.289-1.969l5.75,2.113l134.104,10.914
	L425.807,101.08l-6.014,0.769c0.254-2.344,0.432-4.689,0.5-7.033l5.666,1.473H425.957z"/>
<polygon fill="#ECD078" points="325.092,197.6 322.529,197.917 321.354,205.525 335.74,325.176 327.582,204.999 325.092,197.6 "/>
<polygon fill="#ECD078" points="312.227,198.318 310.305,205.775 312.621,394.529 316.563,205.857 314.805,198.249 "/>
<polygon fill="#ECD078" points="301.928,197.709 299.283,204.943 289.502,346.092 305.506,205.636 304.502,197.891 301.928,197.709 
	"/>
<polygon fill="#ECD078" points="294.285,196.525 291.736,196.09 288.4,203.027 255.377,382.42 294.523,204.335 294.283,196.525 "/>
<polygon fill="#ECD078" points="284.248,194.165 281.756,193.486 277.752,200.064 242.166,319.672 283.725,201.96 284.248,194.165 
	"/>
<polygon fill="#ECD078" points="274.496,190.828 272.082,189.914 267.455,196.068 198.133,365.907 273.203,198.533 274.496,190.828 
	"/>
<polygon fill="#ECD078" points="263.076,194.104 265.111,186.557 262.799,185.408 257.594,191.084 200.334,302.059 263.076,194.104 
	"/>
<polygon fill="#ECD078" points="256.195,181.393 254.006,180.021 248.27,185.158 146.394,341.688 253.422,188.703 256.195,181.393 
	"/>
<polygon fill="#ECD078" points="244.357,182.375 247.826,175.376 245.783,173.791 239.566,178.346 162.906,274.537 244.355,182.375 
	"/>
<polygon fill="#ECD078" points="240.084,168.564 238.209,166.792 231.574,170.717 97.957,305.997 235.945,175.195 240.084,168.564 
	"/>
<polygon fill="#ECD078" points="228.281,167.221 233.051,161.032 231.35,159.08 224.371,162.333 126.579,248.116 228.281,167.221 
	"/>
<polygon fill="#ECD078" points="226.779,152.842 225.279,150.738 218.016,153.299 67.133,257.561 221.428,158.54 226.779,152.842 
	"/>
<polygon fill="#ECD078" points="215.471,149.229 221.346,144.085 220.068,141.842 212.58,143.676 94.655,211.788 215.471,149.229 
	"/>
<polygon fill="#ECD078" points="216.797,134.836 215.742,132.482 208.115,133.569 31.906,206.921 210.441,139.377 "/>
<polygon fill="#ECD078" points="206.404,129.083 213.174,125.185 212.355,122.735 204.654,123.074 56.124,169.956 206.404,129.083 
	"/>
<polygon fill="#ECD078" points="210.518,115.223 209.939,112.703 202.244,112.288 17.595,150.142 203.4,118.443 210.518,115.223 "/>
<polygon fill="#ECD078" points="200.902,101.322 49.52,118.217 201.449,107.56 208.846,105.054 208.516,102.492 200.902,101.322 "/>
<polygon fill="#ECD078" points="208.182,94.766 208.102,92.183 200.639,90.273 -0.02,95.099 200.568,96.531 208.182,94.766 "/>
<polygon fill="#ECD078" points="52.822,65.376 200.783,85.475 208.523,84.465 208.703,81.883 201.459,79.252 52.823,65.376 "/>
<polygon fill="#ECD078" points="210.303,71.692 203.352,68.369 3.284,31.25 202.064,74.496 209.873,74.239 210.303,71.692 "/>
<polygon fill="#ECD078" points="245.277,12.958 247.234,11.255 243.961,4.276 132.082,-130.574 239.082,8.202 245.277,12.958 "/>
<polygon fill="#ECD078" points="253.457,6.679 255.557,5.177 252.996,-2.085 145.293,-161.398 247.756,1.342 253.455,6.679 "/>
<polygon fill="#ECD078" points="262.209,1.231 264.453,-0.057 262.609,-7.534 186.025,-147.087 257.061,-4.633 "/>
<polygon fill="#ECD078" points="271.453,-3.331 273.811,-4.391 272.707,-12.013 199.6,-186.08 266.896,-9.68 271.453,-3.331 "/>
<polygon fill="#ECD078" points="281.1,-6.966 283.549,-7.79 283.199,-15.488 234.094,-169.201 277.191,-13.73 281.1,-6.966 "/>
<polygon fill="#ECD078" points="291.059,-9.638 293.578,-10.213 293.98,-17.911 255.377,-212.5 287.826,-16.748 291.059,-9.638 "/>
<polygon fill="#ECD078" points="301.229,-11.321 303.791,-11.653 304.953,-19.268 285.467,-180.209 298.709,-18.721 "/>
<polygon fill="#ECD078" points="311.508,-12.006 309.732,-19.614 313.723,-212.5 315.996,-19.545 314.098,-12.075 311.508,-12.006 
	"/>
</svg>
