<svg xmlns="http://www.w3.org/2000/svg" xmlns:xlink="http://www.w3.org/1999/xlink" width="146" height="59" viewBox="0 0 146 59">
    <defs>
        <path id="5etrzxxbma" d="M0.873 0.182L52.467 0.182 52.467 44 0.873 44z"/>
        <path id="3hvyuc12gc" d="M0.266 0.739L63.101 0.739 63.101 57.026 0.266 57.026z"/>
    </defs>
    <g fill="none" fill-rule="evenodd">
        <g>
            <g>
                <g>
                    <path fill="#FFF" d="M14.833 17.31c-.295 5.88-.157 11.774-.02 17.667.129 5.543.258 11.086.02 16.62-.01.205-.022.395-.038.568-.123 1.306-.448 2.142-.897 2.612-.351.37-.83.512-1.36.49h-.005l-.146-.01c-.886-.085-1.535-.397-1.943-1.016-.506-.77-.76-2.037-.76-3.917 0-2.782-.028-6.779-.055-10.767-.05-7.162-.1-14.324.05-21.488.025-1.262-.127-2.403-1.145-3.579-.865-1-2.377-1.949-5.06-2.922-.318-.115-.498-.603-.602-1.295-.157-1.057-.083-2.463.034-3.937l.015-.184c.13-1.652.252-3.18.763-3.188h.088c1.304-.018 2.573-.048 3.842-.077 4.66-.105 9.328-.21 13.926.238.196.02.21 1.067.226 2.287l.004.332v.005c.005.346.013.662.019.968.05 2.271.087 3.991-.482 4.147-1.606.44-3.11 1.085-4.272 2.061-1.273 1.07-2.106 2.488-2.202 4.385m2.773.132c.052-1.018.506-1.785 1.203-2.369.806-.677 1.956-1.154 3.226-1.502 2.662-.73 2.605-3.394 2.528-6.909l-.02-.956-.004-.327C24.507 2.81 24.477.603 21.8.342 17.05-.123 12.3-.014 7.56.093c-1.287.03-2.573.06-3.821.075l-.09.002C.6.211.383 2.961.148 5.933l-.014.184C0 7.764-.078 9.36.12 10.69c.253 1.693.942 2.974 2.418 3.51 2.174.787 3.324 1.47 3.898 2.132.42.487.482 1.045.468 1.683-.148 7.18-.098 14.368-.05 21.555.023 3.187.045 6.364.045 10.755 0 2.447.412 4.217 1.229 5.463.917 1.397 2.25 2.085 3.997 2.252.082.008.163.014.24.018l.009.001h.003l.005.001H12.39l.029.002c1.305.057 2.52-.335 3.48-1.344.864-.908 1.469-2.297 1.658-4.289.022-.237.039-.474.048-.712.243-5.597.112-11.2-.02-16.805-.135-5.826-.271-11.652.02-17.469" transform="translate(-1047 -5186) translate(0 4945) translate(1047 241.001)"/>
                    <path fill="#FFF" d="M25.569 52.49c0 .664-.271 1.27-.71 1.71-.437.442-1.041.717-1.7.718v-.005h-.003v.006c-.66 0-1.262-.274-1.698-.714-.44-.444-.713-1.05-.713-1.713h.006V20.536h-.006c0-.665.27-1.27.709-1.71.438-.442 1.04-.718 1.7-.718v.005h.003v-.005c.66 0 1.263.273 1.699.713.44.444.712 1.05.713 1.714h-.005V52.49h.005zm1.256-35.642c-.94-.945-2.238-1.534-3.667-1.534v-.007h-.004v.006c-1.428.002-2.723.587-3.658 1.53-.941.947-1.525 2.255-1.525 3.694h-.006V52.493h.006c0 1.438.582 2.742 1.518 3.686.94.947 2.238 1.535 3.667 1.535v.005h.004v-.006c1.428 0 2.722-.586 3.659-1.529.939-.947 1.523-2.255 1.523-3.694h.006V20.535h-.006c0-1.439-.582-2.744-1.517-3.686z" transform="translate(-1047 -5186) translate(0 4945) translate(1047 241.001)"/>
                    <g transform="translate(-1047 -5186) translate(0 4945) translate(1047 241.001) translate(28 14.927)">
                        <mask id="3oi247m2pb" fill="#fff">
                            <use xlink:href="#5etrzxxbma"/>
                        </mask>
                        <path fill="#FFF" d="M49.604 20.784c-.076.78-.352 1.818-.836 2.303-.038.038-.077.068-.116.088-.01.005-.006.007-.01.007l-.029.002-6.073.162c-1.182.032-2.105.626-2.66 1.457-.102.15-.196.323-.28.513-.06.136-.112.277-.155.423-.016.042-.029.086-.039.13l-.01.037h.004l-.004.017c-.545 2.288-.405 4.423.188 5.853.307.74.743 1.333 1.285 1.728.648.473 1.402.659 2.232.492.87-.175 1.788-.766 2.685-1.876.384-.475 1.067-1.24 1.62-1.408.132-.04.32.25.574 1.343.188.81.246 1.589.197 2.324-.105 1.563-.696 2.94-1.557 3.993-.84 1.028-1.935 1.744-3.072 2.012-.409.096-.82.134-1.224.107-4.388-.3-7.216-4.857-8.492-9.96-.258-1.034-.454-2.095-.584-3.155-.126-1.025-.188-2.013-.196-2.95v-.606c.055-5.746 1.222-13.69 4.653-17.993.63-.792 1.337-1.451 2.124-1.934.76-.467 1.607-.775 2.55-.882V3.01l.004-.001c.305-.034.588-.037.85-.011 1.772.175 3.13 1.699 4.133 3.79 1.127 2.352 1.787 5.374 2.101 8.169.255 2.276.28 4.372.137 5.827zM30.268 37.228c0 2.008-.719 3.234-1.623 3.729-.294.162-.608.244-.915.248-.306.005-.609-.067-.887-.212-.788-.415-1.394-1.442-1.394-3.1h.006V16.096c0-.207-.044-.405-.124-.582-2.472-7.016-4.558-6.815-6.257.602-.032.139-.04.277-.032.412l.33 21.383c.024 1.552-.676 2.544-1.572 2.969-.345.164-.719.249-1.09.256-.367.006-.73-.064-1.059-.212-.806-.363-1.428-1.25-1.428-2.696h-.006V16.262c0-.165-.027-.324-.08-.471l.004-.001c-2.385-6.708-4.375-6.6-5.969.325-.028.128-.039.256-.033.38l-.164 22.06c-.009 1.133-.55 1.852-1.245 2.15-.285.124-.593.184-.899.182-.297-.003-.602-.071-.89-.203-.73-.334-1.302-1.141-1.295-2.451l.166-32.616c.004-.83.118-1.442.325-1.854.116-.233.26-.372.42-.421.24-.075.583-.035 1.013.113.895.308 1.98 1.044 3.17 2.177.56.529 1.438.503 1.964-.06l.025-.03.002.002c1.492-1.688 2.853-2.527 4.077-2.446 1.22.08 2.483 1.095 3.796 3.114.42.648 1.282.829 1.925.405.08-.052.152-.111.218-.176 1.16-1.154 2.207-2.014 3.19-2.5.854-.423 1.678-.565 2.52-.37l.005.002c.246.056.493.139.734.248.251.113.501.255.745.424 1.28.894 2.327 2.569 2.327 5.027V37.228zm19.6-31.655C48.465 2.648 46.41.502 43.504.213c-.464-.045-.939-.042-1.425.012l-.01.002h-.006c-1.357.156-2.58.6-3.68 1.277-1.073.658-2.016 1.533-2.843 2.57-1.009 1.265-1.843 2.789-2.53 4.457-.209-3.113-1.689-5.33-3.492-6.587-.384-.268-.784-.494-1.19-.677-.416-.187-.835-.328-1.245-.423l-.006-.002c-1.504-.348-2.928-.12-4.36.589-.918.455-1.823 1.1-2.75 1.91C18.414 1.414 16.75.42 14.982.304c-1.808-.12-3.596.692-5.367 2.377C8.501 1.769 7.433 1.138 6.461.803c-.983-.34-1.904-.39-2.72-.136-.898.279-1.608.886-2.084 1.836-.394.786-.614 1.818-.619 3.103L.873 38.22c-.013 2.596 1.271 4.263 2.916 5.017.63.289 1.322.436 2.02.443.69.007 1.377-.127 2.01-.4 1.634-.705 2.912-2.292 2.93-4.716l.164-21.95c.145-.538.322-.564.531-.08v21.692h-.006c0 2.723 1.343 4.467 3.082 5.249.702.316 1.468.467 2.232.454.76-.014 1.523-.188 2.223-.52 1.804-.855 3.214-2.72 3.171-5.532l-.328-21.284c.245-.97.53-1.054.851-.258v21.558h.006c0 2.842 1.254 4.717 2.885 5.576.69.363 1.445.54 2.202.53.756-.01 1.513-.206 2.21-.588 1.717-.94 3.08-3.005 3.08-6.184v-.848c1.962 3.798 4.973 6.624 9.087 6.905.685.047 1.37-.014 2.04-.172 1.72-.406 3.352-1.46 4.583-2.966 1.212-1.481 2.043-3.406 2.19-5.582.066-1.005-.01-2.06-.264-3.146-.774-3.33-2.41-3.893-4.088-3.381-1.258.385-2.374 1.583-2.968 2.318-.452.559-.81.836-1.075.889-.022.005-.042 0-.057-.01-.122-.088-.24-.272-.349-.534-.389-.938-.459-2.43-.06-4.117l.003.002.01-.037.008-.036c.006-.02.013-.038.022-.057.008-.02.026-.048.051-.087.087-.13.233-.224.42-.23l6.101-.16.027-.001.045-.001.016-.002v.002c.401-.023.766-.126 1.098-.293.305-.152.582-.362.834-.613.99-.991 1.518-2.75 1.641-4.013.16-1.64.138-3.95-.137-6.408-.344-3.064-1.084-6.41-2.362-9.077z" mask="url(#3oi247m2pb)"/>
                    </g>
                    <path fill="#FFF" d="M70.414 30.07c-.031.004-.066.008-.103.01-.162.012-.328 0-.477-.034-.12-.027-.142.09-.168.034-.056-.116-.102-.269-.137-.447-.105-.53-.074-1.16.09-1.707.094-.31.216-.573.358-.727.136.258.245.62.324 1.021.13.656.167 1.34.113 1.85m1.954-4.294c-.413-.734-.993-1.267-1.765-1.442-.317-.072-.643-.079-.973-.013-.237.047-.473.13-.706.243l-.004.002-.001-.002c-.98.475-1.632 1.442-1.964 2.551-.293.976-.348 2.102-.156 3.066.077.39.198.767.365 1.116.374.782 1.175 1.276 2.06 1.478.417.094.858.13 1.272.1.454-.03.902-.139 1.292-.328.644-.312 1.122-.823 1.285-1.552.195-.87.187-2.173-.042-3.322-.136-.683-.354-1.35-.663-1.897M95.585 42.064c-.15.483-.312.882-.485 1.167-.058.094-.103.163-.133.205-.06-.186-.274-1.508-.534-3.197-.41-2.636-.546-6.028-.606-8.612-.16-7.036.32-12.61 1.252-15.198.089-.247.177-.454.265-.617.217.444.467 1.593.719 3.088.418 2.472.6 5.658.667 8.613.025 1.154.032 2.266.029 3.284-.013 3.505-.296 8.454-1.174 11.267m3.219-23.624c-.531-3.146-1.547-5.41-3.336-5.612-.09-.01-.193-.014-.31-.01-.047 0-.095.003-.142.007-.662.063-1.23.408-1.7 1.011l-.002-.002c-.32.408-.6.96-.845 1.641-1.04 2.89-1.582 8.838-1.415 16.206.06 2.673.205 6.193.637 8.986.557 3.6 1.727 6.15 4.039 5.487h.004c.097-.028.205-.069.326-.122.565-.255 1.03-.717 1.41-1.343.299-.492.553-1.1.769-1.792.968-3.102 1.28-8.385 1.293-12.1.004-1.046-.004-2.18-.03-3.339-.066-3.089-.26-6.423-.698-9.018" transform="translate(-1047 -5186) translate(0 4945) translate(1047 241.001)"/>
                    <g transform="translate(-1047 -5186) translate(0 4945) translate(1047 241.001) translate(82 .927)">
                        <mask id="9fgm92w5id" fill="#fff">
                            <use xlink:href="#3hvyuc12gc"/>
                        </mask>
                        <path fill="#FFF" d="M60.005 51.741c-.285.628-.748 1.192-1.342 1.608-.468.33-1.012.562-1.605.66-.17.025-.36.04-.566.04-1.297 0-2.597-.693-3.65-1.772-1.111-1.139-1.928-2.682-2.188-4.306-.053-.335-.082-.693-.082-1.069h-.005V27.265h.005c0-2.124-1.428-2.753-2.773-3.344-.39-.172-.766-.337-.815-.382l-.014-.032c-.008-.02-.017-.04-.027-.058-.061-.15-.117-.312-.167-.489-.062-.215-.108-.416-.137-.599-.172-1.077-.034-2.238.36-3.224l.002.001.003-.006c.105-.145.608-.44 1.111-.735 1.215-.713 2.425-1.424 2.453-2.925l.166-9.318v-.01c.005-.627.5-1.055 1.136-1.267.032-.01.064-.023.094-.035.312-.094.651-.14.995-.14.375-.002.752.055 1.098.168.651.213 1.158.646 1.17 1.284l.166 9.485c.023 1.428.895 1.683 2.047 2.02.748.218 1.845.54 1.916 2.34.114 2.888-.602 3.193-1.242 3.464-1.238.525-2.364 1.002-2.392 3.625l-.165 15.81c-.035 3.426 2.191 4.6 3.704 5.396.293.155.475.197.505.24.284.41.453.841.52 1.272.105.652-.005 1.324-.282 1.935m-17.41 1.818c-.203.242-.477.377-.776.427-.383.063-.819.005-1.252-.14-.848-.288-1.629-.876-2.026-1.56-.082-.176-.203-.336-.36-.468-.588-.496-1.465-.418-1.958.175-.657.79-1.678 1.467-2.8 1.801-.822.244-1.687.297-2.475.058-.755-.228-1.465-.745-2.03-1.646-.747-1.194-1.245-3.02-1.309-5.67l-.66-27.624c-.024-.99.59-1.65 1.395-1.959l-.002-.002c.387-.147.81-.223 1.23-.228.43-.004.862.064 1.263.207.887.316 1.59 1.041 1.598 2.187l.165 21.966c.015 1.954.594 3.253 1.35 3.891.465.392.996.575 1.551.557h.04c.534-.026 1.047-.24 1.495-.636.822-.725 1.483-2.209 1.483-4.317V19.611c0-1.278.623-2.069 1.407-2.403.31-.132.645-.2.978-.205h.005c.328-.006.654.051.953.171.645.255 1.14.851 1.145 1.777l.166 32.283c.005 1.162-.22 1.904-.576 2.325m-23.907-2.595c-.675.87-1.438 1.603-2.296 2.153l.003.004-.002.002c-.825.528-1.746.884-2.775 1.027v.003l-.02.002c-.03.002-.061.004-.092.008-3.968.486-6.39-2.539-7.89-6.686C3.962 42.902 3.4 37.008 3.161 32.518c-.067-1.282-.107-2.509-.118-3.679-.073-7.552.918-13.946 2.764-18.473C7.51 6.19 9.9 3.698 12.776 3.543c.11-.005.191-.009.245-.009h.143c4.113.035 6.672 3.585 8.238 8.394 1.695 5.21 2.224 11.821 2.276 17.358.006.613.006 1.213 0 1.796-.052 6.222-1.248 15.062-4.99 19.882m44.34-1.597c-.133-.845-.452-1.673-.977-2.434-.35-.506-.87-.78-1.505-1.115-.903-.476-2.232-1.177-2.214-2.899l.164-15.809c.01-.78.337-.92.697-1.072 1.474-.625 3.13-1.327 2.938-6.15-.152-3.812-2.393-4.468-3.919-4.914-.002-.002-.006.011-.008.032-.025.195-.028 1.163-.038.59l-.008-.436-.156-9.05c-.036-2.047-1.373-3.343-3.084-3.903-.616-.202-1.287-.3-1.958-.3-.62.001-1.245.091-1.829.27-.044.01-.087.022-.13.037-1.684.562-2.993 1.84-3.04 3.852v.044l-.166 9.32c-.002.082-.534.23-1.07.544-.485.285-.963.575-1.375.921-.503-1.119-1.405-1.904-2.478-2.329-.627-.249-1.314-.369-2.008-.358h-.014c-.681.013-1.366.155-2.002.425-1.736.738-3.116 2.391-3.116 4.978v20.967c0 .78-.096 1.36-.24 1.744-.07-.293-.115-.705-.12-1.25l-.165-21.966c-.018-2.542-1.534-4.136-3.448-4.818-.697-.248-1.454-.367-2.207-.359-.758.007-1.51.144-2.192.405l-.006.002v-.002c-.829.318-1.558.817-2.115 1.478-.319-1.65-.707-3.254-1.194-4.749C22.12 5.153 18.786.788 13.184.74h-.188c-.149.002-.27.005-.36.01C8.576.967 5.365 4.09 3.24 9.303 1.256 14.165.191 20.936.27 28.861c.011 1.267.05 2.535.118 3.8.25 4.687.843 10.864 2.618 15.77 1.929 5.334 5.208 9.203 10.826 8.516.037-.005.075-.012.112-.019l.037-.005.017-.002v.002c1.433-.199 2.723-.7 3.882-1.443l.002.005c1.124-.722 2.118-1.674 2.991-2.8 1.775-2.286 3.032-5.318 3.902-8.556l.06 2.473c.076 3.203.738 5.503 1.732 7.094.96 1.534 2.22 2.428 3.585 2.841 1.333.404 2.745.33 4.051-.059 1.075-.32 2.092-.86 2.945-1.528.714.686 1.61 1.233 2.537 1.546.843.286 1.735.391 2.578.251.922-.153 1.773-.588 2.442-1.38.764-.903 1.248-2.25 1.238-4.145l-.128-25.164c.28.154.572.294.875.427.532.235 1.099.484 1.099.78h.005v19.637h-.005c0 .486.042.992.124 1.507.353 2.21 1.454 4.297 2.949 5.83 1.553 1.592 3.552 2.615 5.63 2.615.313 0 .647-.029 1-.085 1.036-.167 1.969-.563 2.76-1.118 1-.702 1.784-1.664 2.276-2.748.498-1.1.693-2.327.5-3.536" mask="url(#9fgm92w5id)"/>
                    </g>
                </g>
            </g>
        </g>
    </g>
</svg>
