<svg xmlns="http://www.w3.org/2000/svg" width="211" height="466" viewBox="0 0 211 466">
    <g fill="none" fill-rule="evenodd">
        <g fill-rule="nonzero">
            <g>
                <g>
                    <path fill="#000" d="M144.81 391.98c.84 1.137 1.483 2.408 1.9 3.76.11-.25.21-.51.32-.76.2-.49.4-1 .6-1.46.1-.24.2-.47.29-.71.667-1.6 1.313-3.23 1.94-4.89.1-.23.19-.47.28-.7.667-1.68 1.333-3.383 2-5.11.09-.23.17-.46.26-.68.09-.22 0-.16.08-.23.54-1.44 1.08-2.9 1.62-4.38l.27-.73c.07-.2.15-.41.22-.62.66-1.85 1.33-3.72 2-5.63l.18-.53.19-.57.11-.34c.56-1.65 1.13-3.32 1.69-5 0-.14.09-.27.13-.41.46-1.37.91-2.78 1.36-4.19.08-.26.16-.52.25-.78.14-.43.28-.85.42-1.29 0-.07 0-.15.07-.23.667-2.147 1.333-4.327 2-6.54-.004-.043-.004-.087 0-.13-.004-.06-.004-.12 0-.18.31-1 .62-2.08.93-3.14.33-1.12.66-2.23 1-3.37l.12-.42c.62-2.2 1.237-4.427 1.85-6.68.06-.21.11-.41.17-.61.49-1.82 1-3.68 1.46-5.54.38-1.49.76-3 1.14-4.49.35-1.42.71-2.83 1.06-4.27.07-.3.14-.6.22-.91.54-2.26 1.07-4.56 1.59-6.87.08-.34.16-.68.23-1 .22-.95.42-1.93.63-2.89.38-1.72.75-3.457 1.11-5.21.49-2.34 1-4.72 1.44-7.11.07-.39.15-.78.22-1.16.47-2.41.92-4.83 1.36-7.28l.63-3.57c.3-1.69.59-3.38.87-5.09.07-.39.13-.79.19-1.18.12-.72.23-1.46.34-2.19l.09-.62c.25-1.61.51-3.21.75-4.84.06-.39.12-.78.17-1.16.18-1.18.34-2.39.5-3.58 0-.22.07-.45.1-.67.17-1.23.35-2.44.52-3.67 0-.37.09-.73.14-1.1.15-1.15.28-2.32.43-3.48.15-1.25.31-2.52.46-3.78 0-.3.07-.58.11-.88.04-.3.07-.66.11-1 .32-2.8.63-5.62.92-8.48 0-.27.05-.55.08-.83.12-1.23.23-2.48.34-3.71.25-2.71.49-5.45.7-8.21.18-2.25.36-4.49.52-6.77v-.26c.07-1.09.13-2.19.2-3.28.213-3.333.397-6.667.55-10 .1-2.07.2-4.14.28-6.23v-.61c.093-2.507.167-5.033.22-7.58 0-1.12 0-2.23.08-3.35v-2.82l-5.08 7.86s-.42-.71-1-1.77c-3.16 79.76-21.25 142.21-39.12 185.46l2.18 6.18 1.01 4.49zM169.77 30.98l-.2.38c-.63 1.27-1.34 2.88-2.07 4.63.907 4.547 1.767 9.063 2.58 13.55.11-.94.18-1.5.18-1.5l-.49-17.06zM132.74 409.59c2.58-3.6 5.23-11.43 5.23-11.43l2-6.48.74-6.21v-1.74c-3.55 8.47-7.08 16.17-10.47 23.09.412.198.785.469 1.1.8.57.577 1.042 1.242 1.4 1.97zM130.15 406.98v.06s.01.01 0-.06zM122.29 445.66l.88-1.52-1.54-2.43-1.26-2.15c-1.146.652-2.393 1.105-3.69 1.34-1.882.278-3.778.445-5.68.5-4.46 6.95-7.2 10.49-7.2 10.49l16.58-3c.57-1.04 1.21-2.11 1.91-3.23zM162.89 451.51L164.41 453.1 176.2 450.97 171.41 445.98zM129.8 455.6L122.48 460.34 122.74 460.61 111.3 462.67 111.3 462.67 131.02 459.12 130.3 456.63zM187.42 437.19l-.94-1-8.52 5.53 4.65 4.86c-.68 1.14-1.35 2.28-2 3.42 2.393-3.88 4.727-7.773 7-11.68l-.19-1.13zM144.54 452.45l.32 3.21 7-4.56-5.81-6.07-.5.32c-.24 2.21-.42 4.42-.44 6.67l-.57.43z" transform="translate(-1229 -214) translate(0 -157) translate(1229 371)"/>
                    <path fill="#000" d="M126.55 450.15l-4.3-4.49c-.66 1.12-1.3 2.19-1.91 3.2-1.27 2.11-2.44 4-3.48 5.61l1.17 1.22 8.52-5.54zM182.95 251.9c0 .33-.07.66-.11 1 .04-.34.07-.67.11-1zM176.19 295.98c-.07.38-.15.77-.22 1.16.07-.37.15-.76.22-1.16zM173.42 309.48l3.53 3.69 8.52-5.53-5.81-6.07-5.28 3.43.15-.73c-.36 1.753-.73 3.49-1.11 5.21zM147.99 400.78l.13.62 3.1-2-4.19-4.37c-.11.25-.21.51-.32.76.534 1.634.962 3.3 1.28 4.99zM208.78 153.45l-2.48-2.59c-.61 2.072-1.487 4.055-2.61 5.9l5.09-3.31zM168.55 329.91l3.6 3.75 8.53-5.53-5.82-6.07-5.17 3.36c-.4 1.56-.76 3-1.14 4.49zM197.48 334.61L206.01 329.08 200.2 323.01 191.67 328.54zM209.46 205.16L203.65 199.09 195.12 204.63 200.93 210.7zM186.88 349.04L192.69 355.11 201.21 349.57 195.4 343.5zM182.08 369.53L187.89 375.6 196.42 370.07 190.6 364zM185.54 223.61v.26c-.01-.08-.01-.18 0-.26zM186.58 203.52v.61c-.01-.21 0-.41 0-.61zM181.35 379.84L175.53 373.78 167.01 379.31 172.82 385.37zM158.83 362.98c0 .14-.08.27-.13.41.05-.13.09-.26.13-.41zM156.01 378.9l-2-2.06c-.54 1.48-1.08 2.94-1.62 4.38l3.62-2.32zM186.15 359.35L180.33 353.28 171.81 358.81 177.62 364.88zM183.95 242.59c0 .28-.05.56-.08.83.03-.27.05-.55.08-.83zM162.55 374.66L171.08 369.12 165.27 363.05 157.01 368.41 156.9 368.75zM177.55 288.72L177.61 288.36 181.74 292.68 190.27 287.14 184.46 281.07 178.18 285.15zM156.7 369.32l-.18.53.18-.53zM162.21 399.8L168.02 405.86 176.55 400.34 170.74 394.27zM184.8 255.98l-2.06-2.15c-.15 1.26-.31 2.53-.46 3.78l2.52-1.63zM195.74 318.36L189.93 312.29 181.4 317.82 187.22 323.89zM180.58 270.06c0 .38-.11.77-.17 1.16.06-.39.12-.78.17-1.16zM200.54 297.86L194.73 291.79 186.2 297.33 192.01 303.4zM152.34 381.46c-.09.22-.17.45-.26.68.09-.23.21-.46.26-.68zM150.13 387.25c-.09.23-.18.47-.28.7.1-.23.19-.47.28-.7zM179.22 278.89c-.06.39-.12.79-.19 1.18.07-.39.13-.79.19-1.18zM147.91 392.84c-.09.24-.19.47-.29.71.1-.24.2-.47.29-.71zM180 276.42L179.67 276.07 179.58 276.69zM194.05 240.09L185.53 245.62 191.34 251.68 199.86 246.15zM150.11 412.67l2.85 3 8.52-5.53-5.81-6.07-6.17 4 .51 2.42c.135.718.169 1.452.1 2.18zM204.66 225.66L198.85 219.59 190.33 225.12 196.14 231.19zM154.53 375.48c-.07.21-.15.42-.22.62.07-.2.15-.41.22-.62zM205.34 277.37L199.53 271.3 191 276.83 196.81 282.9zM190.94 338.85L185.13 332.78 176.6 338.32 182.42 344.39zM150.52 429.19l-1 6.08 7.19-4.67-5.82-6.07-.16.11c.025 1.52-.045 3.04-.21 4.55zM186.54 272.18l8.52-5.53-5.8-6.07-8.07 5.24c0 .22-.06.45-.1.67l5.45 5.69zM181.83 261.06c0 .37-.1.73-.14 1.1.04-.37.09-.73.14-1.1zM195.47 179.48l8.52-5.53-5.72-6c-1.47 3.38-3.54 7.81-4.47 9.78l1.67 1.75zM181.01 404.99L172.48 410.52 178.3 416.59 186.82 411.06zM162.99 349.83c-.004.043-.004.087 0 .13-.004-.043-.004-.087 0-.13zM209.95 271.11L209.95 264.54 206.06 267.06zM200.6 235.84L206.41 241.91 209.95 239.61 209.95 231.18 209.12 230.32zM195.8 256.34L201.61 262.4 209.95 256.99 209.95 256.68 204.32 250.81zM171.75 420.83L165.94 414.76 157.42 420.29 163.23 426.36zM167.35 354.16l8.53-5.53-5.82-6.07-6.09 3.95c-.31 1.06-.62 2.1-.93 3.14l4.31 4.51zM161.14 435.26L152.62 440.79 158.43 446.85 166.95 441.32zM209.95 220.11L209.95 212.39 205.39 215.35zM201.27 287.55L207.08 293.62 209.95 291.76 209.95 282.18 209.79 282.02zM192.34 380.25l4.5 4.7c.47-.93.91-1.75 1.31-2.37 1.49-2.33 3-4.23 4.16-6.35l-1.44-1.51-8.53 5.53zM196.47 308.05L202.28 314.12 209.95 309.14 209.95 307.68 205 302.51zM188.85 402.11c.144-.666.386-1.306.72-1.9 1.64-2.57.52.36 1.36-1.66l-3.39 2.2 1.31 1.36zM182.75 421.24l4.6 4.8c.46-2.663.704-5.358.73-8.06.005-.063.005-.127 0-.19l-5.33 3.45zM177.27 390.03L183.09 396.09 191.62 390.56 185.81 384.49zM207.76 345.33L209.95 343.91 209.95 334.07 201.94 339.26zM209.95 322.12L209.95 316.68 206.74 318.77zM167.68 431.02L173.49 437.08 182.02 431.55 176.21 425.48zM197.14 359.76l5.81 6.06 5.38-3.49c.32-1.11.78-2.63 1.21-4.06l-3.87-4-8.53 5.49zM185.75 220.34l.12.13 8.52-5.53-5.81-6.07-2.28 1.48c-.16 3.36-.343 6.69-.55 9.99zM209.95 92.59L209.95 90.72 208.84 91.44zM172.78 312.36c-.07.34-.15.68-.23 1 .08-.32.16-.66.23-1zM209.95 169.1L209.95 160.25 204.72 163.64zM201.99 48.22c-.32-1.25-.63-2.51-1-3.81l-1.69 1.1 1.74 8.71 2.78-1.8c-.753-1.333-1.366-2.74-1.83-4.2zM209.95 143.6L209.95 142.86 209.51 143.14zM208.79 109.98c.137 2.331.137 4.669 0 7l1 1.09.09-.05v-9.84l-1.23.79c.1.31.12.67.14 1.01zM186.81 195.98l3.86 4 8.53-5.53-5.81-6.06-6.5 4.22c-.03 1.11-.05 2.22-.08 3.37zM184.29 238.86l5.29-3.42-4.59-4.79c-.19 2.76-.43 5.5-.7 8.21zM207.64 126.98c-.27 1.57-.59 5.88-.85 10.39l3.16-2v-6.16l-2.18-2.27-.13.04zM160.81 358.4l-.36-.38c-.09.26-.17.52-.25.78l.61-.4zM203.38 60.22l5.81 6.07.76-.5v-2.52c-.79-1.36-1.93-3.26-3.11-5.3l-3.46 2.25zM160.47 383.55L151.94 389.08 157.76 395.15 166.28 389.61zM160.93 356.5c0 .08-.05.16-.07.23-.02.07.05-.15.07-.23zM205.86 75.98l1.79 7.72v.93l2.26-1.47v-5l-2.84-3-1.21.82zM170.96 320.25c-.08.31-.15.61-.22.91.07-.3.14-.6.22-.91zM167.09 335.44c-.06.2-.11.4-.17.61.06-.21.11-.41.17-.61zM165.07 342.73l-.12.42.12-.42zM199.92 184.14L205.73 190.2 209.95 187.47 209.95 180.17 208.45 178.6z" transform="translate(-1229 -214) translate(0 -157) translate(1229 371)"/>
                    <path fill="#E4B477" d="M122.49 460.34l7.31-4.75-2-4-4.72-7.43-.88 1.52 4.3 4.49-8.52 5.54-1.17-1.22-.6.93c-3.1 4.8-4.94 7.24-4.94 7.24l11.44-2.06-.22-.26zM177.96 441.74l8.52-5.53.94 1-.6-7.81s.25-1.45.53-3.34l-4.6-4.8 5.32-3.45c-.17-2.62-.31-11.3.78-15.68l-1.31-1.36 3.39-2.2.54-1.31c1.41-3.47 3.59-8.76 5.37-12.29l-4.5-4.7 8.53-5.53 1.44 1.51c.333-.588.63-1.196.89-1.82 1.18-2.92 4.29-8.82 4.83-11 .07-.29.18-.66.3-1.1l-5.38 3.49-5.81-6.06 8.53-5.53 3.87 4 .41-1.31v-13.01l-2.19 1.42-5.82-6.07 8-5.19v-11.95l-3.21-3.35 3.21-2.09v-7.54l-7.67 5-5.81-6.07 8.53-5.54 5 5.17v-15.94l-2.87 1.86-5.81-6.07 8.52-5.53.16.16v-11.07l-3.89-4.05 3.89-2.52v-7.56l-8.34 5.41-5.81-6.06 8.52-5.53 5.63 5.87v-17.06l-3.54 2.3-5.81-6.07 8.52-5.53.83.87v-11.07l-4.56-4.76 4.56-3v-24.88l-4.22 2.73-5.8-6.06 8.52-5.54 1.5 1.56V169.1l-5.23-5.46 5.23-3.39V143.6l-.44-.46.44-.28v-7.54l-3.16 2c-.31 5.39-.51 11.06-.4 12.61.012.296-.018.592-.09.88l2.48 2.59-5.09 3.31c-1.67 3-3.55 6-3.86 7.24-.446 1.36-.967 2.696-1.56 4l5.72 6-8.52 5.53-1.67-1.73-.47 1-5.38 9.42-1 1.6v2.82l6.5-4.22 5.81 6.06-8.53 5.53-3.86-4c-.06 2.54-.133 5.067-.22 7.58v.61c-.08 2.09-.18 4.16-.28 6.23l2.28-1.48 5.81 6.07-8.52 5.53-.12-.13c-.07 1.09-.13 2.19-.2 3.28v.26c-.16 2.28-.34 4.52-.52 6.77l4.59 4.79-5.29 3.42c-.11 1.23-.22 2.48-.34 3.71 0 .28-.05.56-.08.83-.29 2.86-.6 5.68-.92 8.48 0 .33-.07.66-.11 1-.04.34-.07.58-.11.88l2.06 2.15-2.52 1.63c-.15 1.16-.28 2.33-.43 3.48 0 .37-.1.73-.14 1.1-.17 1.23-.35 2.44-.52 3.67l8.07-5.24 5.8 6.07-8.52 5.53-5.45-5.69c-.16 1.19-.32 2.4-.5 3.58 0 .38-.11.77-.17 1.16-.24 1.63-.5 3.23-.75 4.84l.33.35-.42.27c-.11.73-.22 1.47-.34 2.19-.06.39-.12.79-.19 1.18-.28 1.71-.57 3.4-.87 5.09l6.28-4.08 5.81 6.07-8.53 5.54-4.13-4.32-.06.36c-.44 2.45-.89 4.87-1.36 7.28-.07.38-.15.77-.22 1.16-.47 2.39-1 4.77-1.44 7.11l-.15.73 5.28-3.43 5.81 6.07-8.52 5.53-3.53-3.69c-.21 1-.41 1.94-.63 2.89-.07.34-.15.68-.23 1-.52 2.31-1 4.61-1.59 6.87-.08.31-.15.61-.22.91-.35 1.44-.71 2.85-1.06 4.27l5.17-3.36 5.82 6.07-8.53 5.53-3.6-3.75c-.49 1.86-1 3.72-1.46 5.54-.06.2-.11.4-.17.61-.613 2.253-1.23 4.48-1.85 6.68l-.12.42c-.33 1.14-.66 2.25-1 3.37l6.09-3.95 5.82 6.07-8.53 5.53-4.31-4.51c-.004.06-.004.12 0 .18-.004.043-.004.087 0 .13-.667 2.207-1.333 4.387-2 6.54 0 .08-.05.16-.07.23-.14.44-.28.86-.42 1.29l.36.38-.61.4c-.45 1.41-.9 2.82-1.36 4.19 0 .14-.08.27-.13.41-.56 1.69-1.13 3.36-1.69 5l8.26-5.36 5.81 6.07-8.53 5.54-5.65-5.91-.19.57-.18.53c-.66 1.91-1.33 3.78-2 5.63-.07.21-.15.42-.22.62l-.27.73 2 2.06-3.59 2.32c0 .07-.05.15-.08.23-.03.08-.17.45-.26.68-.667 1.727-1.333 3.43-2 5.11-.09.23-.18.47-.28.7-.667 1.66-1.313 3.29-1.94 4.89-.09.24-.19.47-.29.71-.2.5-.4 1-.6 1.46l4.19 4.37-3.1 2 1.38 6.64 6.17-4 5.81 6.07-8.52 5.53-2.85-3c-.2 2.44-1.19 4.85-.17 7.22.531 1.526.792 3.134.77 4.75l.16-.11 5.82 6.07-7.19 4.67-.83 5h-2.48c-.21 1.7-.42 3.39-.61 5.09l.5-.32 5.81 6.07-7 4.56.1.94 19.45-3.5-1.52-1.59 8.52-5.53 4.79 5 4.24-.76.12-.19c.7-1.14 1.37-2.28 2-3.42l-4.83-4.82zm4.06-10.19l-8.52 5.53-5.82-6.06 8.53-5.54 5.81 6.07zm-3.72-15l-5.82-6.07 8.53-5.53 5.81 6.07-8.52 5.53zm-10.28-10.73l-5.81-6.06 8.53-5.53 5.81 6.07-8.53 5.52zm15.07-9.77l-5.81-6.06 8.52-5.54 5.82 6.07-8.53 5.53zm4.8-20.49l-5.81-6.07 8.52-5.53 5.82 6.07-8.53 5.53zm4.8-20.49l-5.81-6.07 8.52-5.54 5.82 6.07-8.53 5.54zm7.51-32.1l5.81 6.07-8.53 5.53-5.81-6.07 8.53-5.53zm3.45-123.92l5.81 6.07-8.53 5.54-5.81-6.07 8.53-5.54zm-4.8 20.5l5.81 6.07-8.52 5.53-5.82-6.07 8.53-5.53zm-7.51 32.09l-5.81-6.06 8.52-5.53 5.81 6.06-8.52 5.53zm8.19 19.62l5.81 6.07-8.53 5.53-5.81-6.07 8.53-5.53zm-4.8 20.49l5.81 6.07-8.53 5.54-5.81-6.07 8.53-5.54zm-4.8 20.5l5.81 6.07-8.52 5.53-5.82-6.07 8.53-5.53zm-4.8 20.49l5.82 6.07-8.53 5.54-5.82-6.07 8.53-5.54zm-4.8 20.5l5.82 6.07-8.53 5.53-5.81-6.07 8.52-5.53zm-4.79 20.5l5.81 6.06-8.53 5.53-5.81-6.06 8.53-5.53zm-17.78 21.37l-5.81-6.07 8.52-5.53 5.81 6.06-8.52 5.54zm8.18 19.61l5.81 6.07-8.52 5.53-5.82-6.07 8.53-5.53zm-7.51 32.09l-5.81-6.06 8.52-5.53 5.81 6.06-8.52 5.53zM208.72 108.89l1.23-.79V92.59l-1.11-1.15 1.11-.72v-7.55l-2.26 1.47c.13 3.79.66 18.2 1.03 24.25zM197.7 37.76l1.55 7.75 1.69-1.1c-.754-2.361-1.845-4.601-3.24-6.65zM208.82 116.9c-.116 3.25-.484 6.487-1.1 9.68l-.08.4.13-.09 2.18 2.27v-11.18l-.09.05-1.04-1.13zM203.38 60.22l3.46-2.25c-1.08-1.85-2.18-3.8-3.07-5.55l-2.78 1.8 1.16 5.82 3.71 16 1.25-.81 2.84 3V65.79l-.76.5-5.81-6.07z" transform="translate(-1229 -214) translate(0 -157) translate(1229 371)"/>
                    <path fill="#7F4D5A" d="M137.84 17.59c1.2-2.39 10.44-12.71 14.91-17.56h-21.23l-11.63 4.63-18 10.06-15.17 8.26s-7.45 9-14.35 12.62c-6.9 3.62-13.7 6.45-20.31 7.46-6.61 1.01-9.44-1.66-15.56-1.41-6.68.26-21.78-3.11-21.78-3.11L0 29.98l2.77 11.37 3.17 7 8.47 6c3.64 2.57 6.06 4.29 11.09 6s21.88 2.23 21.88 2.23l22.18-.43 17.14-2.09 24.14-19 23.19-12.39c1.015-3.776 2.288-7.478 3.81-11.08zm-57.55 28.8c8.15-4.61 19.9-8.57 26.29-15.24-15.26 8-30.83 14.59-46.83 21.18 14.56-8.41 29.91-14.88 44.22-23.22-4.2 2.37-10.19 3.18-14.88 4.67-5.06 1.6-9.61 4.74-14.51 6.45 6.06-3.56 12-6.41 18.18-9.3 9-4.2 18.65-6 27.76-10.17l4.15 2.35c-14.15 8.28-29.02 18.48-44.38 23.28z" transform="translate(-1229 -214) translate(0 -157) translate(1229 371)"/>
                    <path fill="#000" d="M186.91 189.78l1-1.6 5.38-9.42.47-1c.93-2 3-6.4 4.47-9.78.593-1.304 1.114-2.64 1.56-4 .31-1.22 2.19-4.23 3.86-7.24 1.123-1.845 2-3.828 2.61-5.9.072-.288.102-.584.09-.88-.11-1.55.09-7.22.4-12.61.26-4.51.58-8.82.85-10.39l.08-.4c.616-3.193.984-6.43 1.1-9.68.137-2.331.137-4.669 0-7 0-.31 0-.67-.07-1.06-.37-6-.9-20.46-1-24.25v-.93l-1.85-7.66-3.71-16-1.16-5.82-1.7-8.65-1.55-7.75c1.395 2.049 2.486 4.289 3.24 6.65.42 1.3.73 2.56 1 3.81.448 1.457 1.045 2.865 1.78 4.2.89 1.75 2 3.7 3.07 5.55 1.18 2 2.32 3.94 3.11 5.3V17.86l-.65-.49c-2.71-1.95-5.64-3.574-8.73-4.84-2.59-1.09-4.69-1.79-6.14-2.26l-2.22-.68 2.29.41c2.17.4 4.318.92 6.43 1.56 3.14.926 6.161 2.219 9 3.85V2.66l-5.63.32 5.71-.87V.03h-32c-2.041.564-4.045 1.256-6 2.07-3.055 1.25-5.99 2.772-8.77 4.55-1.553.975-3.004 2.104-4.33 3.37l-.24.25-.06.06-.12.14-.48.57c-.31.39-.55.75-.83 1.13-.552.826-1.06 1.68-1.52 2.56-1.94 3.894-3.642 7.901-5.1 12-.83 2.15-1.8 4.27-2.4 6.37-.64 2.223-1.154 4.48-1.54 6.76-.92 4.61-1.43 9.64-3.75 14.5-1.276 2.269-2.831 4.369-4.63 6.25-1.592 1.65-3.031 3.44-4.3 5.35-.4.64-.59 1-1 1.62-.382.548-.792 1.076-1.23 1.58-.827.957-1.723 1.853-2.68 2.68-1.86 1.64-3.79 3-5.6 4.38-1.767 1.27-3.438 2.666-5 4.18-.362.354-.696.735-1 1.14-.28.35-.55.77-.83 1.19-.53.86-1 1.76-1.49 2.68-.899 1.896-1.945 3.718-3.13 5.45-.627.846-1.337 1.627-2.12 2.33-.393.358-.807.692-1.24 1-.4.25-.76.51-1.21.75-3.02 1.556-6.148 2.892-9.36 4l-7.29 2.59c-4 1.39-6.3 2.35-6.3 2.35s2.15-1.19 6.07-2.94l7.07-3.1c3.023-1.294 5.953-2.794 8.77-4.49.36-.21.74-.51 1.12-.77.331-.263.648-.544.95-.84.618-.641 1.168-1.345 1.64-2.1.983-1.714 1.852-3.491 2.6-5.32.44-1 .9-2 1.45-3 .3-.5.58-1 1-1.53.332-.49.697-.958 1.09-1.4 1.574-1.728 3.297-3.314 5.15-4.74 3.63-2.86 7.27-5.66 9.37-9.46 1.374-2.138 2.94-4.147 4.68-6 1.557-1.665 2.922-3.5 4.07-5.47 2-4 2.59-8.79 3.58-13.52.487-2.393 1.108-4.757 1.86-7.08.786-2.232 1.687-4.422 2.7-6.56 1.692-4.124 3.653-8.133 5.87-12 .57-.92 1.2-1.8 1.84-2.65.34-.42.71-.87 1.06-1.25l.52-.53.13-.14.09-.09.07-.07.3-.26c1.486-1.314 3.116-2.455 4.86-3.4 2.968-1.635 6.078-3 9.29-4.08 1.21-.41 2.35-.74 3.45-1h-22.28c-4.47 4.85-13.71 15.17-14.91 17.56-1.518 3.576-2.791 7.251-3.81 11-.46 1.58-.83 3-1.06 4-.81 3.66-9.52 18.67-10.17 21.6-.65 2.93-6 13.29-8.88 15.74-2.88 2.45-11.86 8.18-14.87 11.37-3.01 3.19-17.83 13.82-17.83 13.82l-10.63 6.15-16.94 3.24 2.88 4.46 5.38.62s4.37.72 9.53 1.85c5.16 1.13 22.45 3.33 22.45 3.33l14.57-3s10.78-6.87 13.31-7.86c2.53-.99 8.26-5.89 13.57-12.42 5.31-6.53 16.81-20.16 18.19-22.93 1.38-2.77 6.5-15.48 7.73-17.52.94-1.58 3.68-9.17 6.14-15.1.73-1.75 1.44-3.36 2.07-4.63l.2-.38.49 17.06s-.07.56-.18 1.5c-.46 4-1.66 15-1.48 17.42l1.24 17.21s-.11 9 .06 11.28c.17 2.28 1 15.15 1.2 18.14.2 2.99 1.36 15.43.82 18.47-.54 3.04-2.59 18.33-2.37 21.33.22 3 3.55 17.79 3.71 20 .16 2.21 3.83 11 4 14 .15 2.06 2.22 6.1 3.51 8.43.59 1.06 1 1.77 1 1.77l5.17-7.82zm.59-154.11c.06 4 .35 8.29.31 13.05-.09 2.48-.29 5-.57 7.39-.344 2.318-.538 4.657-.58 7V64.73c.07.61.11 1.32.22 1.85l.3 1.64.41 1.79c.6 2.43 1.31 5 1.83 7.8.15.68.22 1.45.32 2.19l.24 2 .23 2 .31 1.86c.4 2.46 1 5.1 1.54 7.69.54 2.59 1.11 5.27 1.6 8 .23 1.38.49 2.72.64 4.15.08.74.19 1.33.24 2.19l.11 2c.34 5.69-.54 11-1 16-.46 5-.67 9.69-1.3 14.44-.51 4.405-1.294 8.773-2.35 13.08-1 4-2 7.58-3.12 10.71-1.12 3.13-2.17 5.81-3 8-.83 2.19-1.73 3.87-2.24 5l-.8 1.77 1.76-7.21c.47-2.31 1.17-5.07 1.77-8.28.6-3.21 1.23-6.82 1.81-10.75.58-3.93.93-8.26 1.12-12.74.19-4.48 0-9.44.4-14.59.497-5 .647-10.029.45-15.05-.27-5-1.51-10-2.69-15.32-.56-2.68-1.09-5.3-1.51-8.14l-.32-2.1-.2-2-.21-2c-.08-.58-.11-1.13-.24-1.74-.4-2.39-1.08-4.92-1.59-7.57l-.36-2-.3-2.17c-.09-.73-.09-1.3-.14-2V63.04c.28-5.63 1.65-10.21 2-14.5.08-1.12.19-2.35.23-3.34.04-.99.11-2.24.17-3.33.14-2.18.29-4.3.47-6.33.424-6.582 1.537-13.1 3.32-19.45.539-1.777 1.207-3.511 2-5.19l.9-1.72-.54 1.86c-.425 1.762-.76 3.544-1 5.34-.31 2.31-.52 5.14-.65 8.38-.13 3.24-.05 6.91.01 10.91zM120.48 20.76c-9.11 4.14-18.74 6-27.76 10.17-6.22 2.89-12.12 5.74-18.18 9.3 4.9-1.71 9.45-4.85 14.51-6.45 4.69-1.49 10.68-2.3 14.88-4.67-14.31 8.34-29.66 14.81-44.22 23.22 16-6.59 31.57-13.21 46.83-21.18-6.39 6.67-18.14 10.63-26.29 15.24 15.4-4.8 30.27-15 44.38-23.28l-4.15-2.35z" transform="translate(-1229 -214) translate(0 -157) translate(1229 371)"/>
                    <path fill="#E4B477" d="M209.95 2.66L209.95 2.1 204.29 2.98zM187.54 24.76c.13-3.24.34-6.07.65-8.38.24-1.796.575-3.578 1-5.34l.54-1.86-.9 1.72c-.793 1.679-1.461 3.413-2 5.19-1.783 6.35-2.896 12.868-3.32 19.45-.18 2-.33 4.15-.47 6.33-.06 1.09-.11 2.2-.17 3.33-.06 1.13-.15 2.22-.23 3.34-.37 4.29-1.74 8.87-2 14.5V65.23c.05.65.05 1.22.14 2l.3 2.17.36 2c.51 2.65 1.19 5.18 1.59 7.57.13.61.16 1.16.24 1.74l.21 2 .2 2 .32 2.1c.42 2.84 1 5.46 1.51 8.14 1.18 5.33 2.42 10.32 2.69 15.32.197 5.021.047 10.05-.45 15.05-.45 5.15-.11 10.13-.4 14.59-.29 4.46-.63 8.79-1.12 12.74-.49 3.95-1.15 7.56-1.81 10.75-.66 3.19-1.3 6-1.77 8.28l-1.76 7.21.8-1.77c.51-1.16 1.32-2.84 2.24-5 .92-2.16 2-4.87 3-8s2.16-6.73 3.12-10.71c1.056-4.307 1.84-8.675 2.35-13.08.63-4.75.72-9.55 1.3-14.44.58-4.89 1.39-10.29 1-16l-.11-2c0-.86-.16-1.45-.24-2.19-.15-1.43-.41-2.77-.64-4.15-.49-2.71-1.06-5.36-1.6-8-.54-2.64-1.14-5.23-1.54-7.69l-.28-1.88-.23-2-.24-2c-.1-.74-.17-1.51-.32-2.19-.52-2.83-1.23-5.37-1.83-7.8l-.41-1.79-.3-1.64c-.11-.53-.15-1.24-.22-1.85v-1.56c.042-2.343.236-4.682.58-7 .28-2.42.48-4.91.57-7.39 0-4.76-.25-9-.31-13.05-.06-4.05-.14-7.73-.04-10.95zM162.29 5.14c-1.744.945-3.374 2.086-4.86 3.4l-.3.26-.07.07-.09.09-.13.14-.52.53c-.35.38-.72.83-1.06 1.25-.64.85-1.27 1.73-1.84 2.65-2.217 3.867-4.178 7.876-5.87 12-1.013 2.138-1.914 4.328-2.7 6.56-.752 2.323-1.373 4.687-1.86 7.08-1 4.73-1.6 9.56-3.58 13.52-1.148 1.97-2.513 3.805-4.07 5.47-1.74 1.853-3.306 3.862-4.68 6-2.1 3.8-5.74 6.6-9.37 9.46-1.853 1.426-3.576 3.012-5.15 4.74-.393.442-.758.91-1.09 1.4-.38.53-.66 1-1 1.53-.55 1-1 2-1.45 3-.748 1.829-1.617 3.606-2.6 5.32-.472.755-1.022 1.459-1.64 2.1-.302.296-.619.577-.95.84-.38.26-.76.56-1.12.77-2.817 1.696-5.747 3.196-8.77 4.49l-7.07 3.1c-3.92 1.75-6.07 2.94-6.07 2.94s2.25-1 6.3-2.35l7.29-2.59c3.212-1.108 6.34-2.444 9.36-4 .45-.24.81-.5 1.21-.75.433-.308.847-.642 1.24-1 .783-.703 1.493-1.484 2.12-2.33 1.185-1.732 2.231-3.554 3.13-5.45.47-.92 1-1.82 1.49-2.68.28-.42.55-.84.83-1.19.304-.405.638-.786 1-1.14 1.562-1.514 3.233-2.91 5-4.18 1.81-1.36 3.74-2.74 5.6-4.38.957-.827 1.853-1.723 2.68-2.68.438-.504.848-1.032 1.23-1.58.44-.6.63-1 1-1.62 1.269-1.91 2.708-3.7 4.3-5.35 1.799-1.881 3.354-3.981 4.63-6.25 2.32-4.86 2.83-9.89 3.75-14.5.386-2.28.9-4.537 1.54-6.76.6-2.1 1.57-4.22 2.4-6.37 1.458-4.099 3.16-8.106 5.1-12 .46-.88.968-1.734 1.52-2.56.28-.38.52-.74.83-1.13l.48-.57.12-.14.06-.06.24-.25c1.326-1.266 2.777-2.395 4.33-3.37 2.78-1.778 5.715-3.3 8.77-4.55 1.955-.814 3.959-1.506 6-2.07h-3c-1.1.29-2.24.62-3.45 1-3.18 1.104-6.256 2.49-9.19 4.14zM194.5 9.98l-2.29-.41 2.22.68c1.45.47 3.55 1.17 6.14 2.26 3.09 1.266 6.02 2.89 8.73 4.84l.65.49v-2.43c-2.839-1.631-5.86-2.924-9-3.85-2.119-.647-4.272-1.175-6.45-1.58z" transform="translate(-1229 -214) translate(0 -157) translate(1229 371)"/>
                    <path fill="#000" d="M209.95 429.17c-.45 1-.9 2.06-1.35 3.12l.34-1.16 1-4v-70.15l-.41 1.31c-.43 1.43-.89 2.95-1.21 4.06-.12.44-.23.81-.3 1.1-.54 2.16-3.65 8.06-4.83 11-.26.624-.557 1.232-.89 1.82-1.16 2.12-2.67 4-4.16 6.35-.4.62-.84 1.44-1.31 2.37-1.78 3.53-4 8.82-5.37 12.29l-.54 1.31c-.84 2 .28-.91-1.36 1.66-.334.594-.576 1.234-.72 1.9-1.09 4.38-1 13.06-.78 15.68.005.063.005.127 0 .19-.026 2.702-.27 5.397-.73 8.06-.28 1.89-.53 3.34-.53 3.34l.6 7.81.09 1.15v.16l3.66 20.18 13.39-1.09v-4.16l5.38.13.03-24.43zm-.66-36.19c.105.585.169 1.176.19 1.77 0 .39 0 .82-.06 1.18l-.06.4v.34l-.06.22c-.44 1.95-.65 4.13-1.24 6.62-.13.6-.34 1.35-.52 1.92l-.29.85c-.15.44-.26.65-.4 1-.52 1.29-1.1 2.4-1.67 3.51-.57 1.11-1 1.94-1.54 3.15l-.76 1.71c-.276.646-.586 1.277-.93 1.89-.65 1.19-1.33 2.28-1.93 3.31-.6 1.03-1.12 2-1.48 2.76-.71 2.004-1.078 4.114-1.09 6.24 0 1.74 0 3.55-.09 5.36l-4.66-1.19c-.15-1.28-.31-2.63-.38-4.08-.214-2.698.08-5.412.87-8 .504-1.349 1.12-2.653 1.84-3.9.64-1.14 1.28-2.19 1.82-3.21.26-.5.54-1 .74-1.48l.79-1.7c.46-1.09 1.23-2.38 1.84-3.49.61-1.11 1.19-2.1 1.65-3l.34-.66.34-.83c.21-.55.36-.94.54-1.47.67-2 1.23-4.34 2-6.5.57-1.08.06-3.21.51-5.6.447-1.743 1.011-3.454 1.69-5.12.52-1.43.93-2.65 1.21-3.69.212-.812.369-1.637.47-2.47.07-.59.11-.91.11-.91s.08.31.22.89c.21.852.327 1.723.35 2.6.047 1.36-.014 2.72-.18 4.07-.16 1.54-.44 3.28-.54 5 .047.845.168 1.685.36 2.51z" transform="translate(-1229 -214) translate(0 -157) translate(1229 371)"/>
                    <path fill="#E4B477" d="M209.46 385.46c.166-1.35.227-2.71.18-4.07-.023-.877-.14-1.748-.35-2.6-.14-.58-.22-.89-.22-.89s0 .32-.11.91c-.101.833-.258 1.658-.47 2.47-.28 1-.69 2.26-1.21 3.69-.672 1.644-1.234 3.331-1.68 5.05-.45 2.39.06 4.52-.51 5.6-.82 2.16-1.38 4.47-2 6.5-.18.53-.33.92-.54 1.47l-.34.83-.34.66c-.46.93-1.06 2-1.65 3-.59 1-1.38 2.4-1.84 3.49l-.79 1.7c-.2.48-.48 1-.74 1.48-.54 1-1.18 2.07-1.82 3.21-.72 1.247-1.336 2.551-1.84 3.9-.79 2.588-1.084 5.302-.87 8 .07 1.45.23 2.8.38 4.08l4.66 1.19c0-1.81 0-3.62.09-5.36.012-2.126.38-4.236 1.09-6.24.36-.75.85-1.71 1.48-2.76.63-1.05 1.28-2.12 1.93-3.31.344-.613.654-1.244.93-1.89l.76-1.71c.51-1.21 1-2.06 1.54-3.15.54-1.09 1.15-2.22 1.67-3.51.14-.34.25-.55.4-1l.29-.85c.18-.57.39-1.32.52-1.92.59-2.49.8-4.67 1.24-6.62l.06-.22v-.34l.06-.4c0-.36 0-.79.06-1.18-.025-.567-.088-1.132-.19-1.69-.197-.83-.32-1.677-.37-2.53.1-1.71.37-3.47.54-4.99z" transform="translate(-1229 -214) translate(0 -157) translate(1229 371)"/>
                    <path fill="#7F4D5A" d="M140 391.68l-2 6.48s-2.65 7.83-5.23 11.43c2.17 4 4.3 12 4.76 14.17.666 2.264 1.512 4.471 2.53 6.6-.219-4.242-.068-8.494.45-12.71.36 4.47.06 9.87.52 14.83l.74 1.55.69 3.36c-.46-11.73-.09-23.29.43-35.1 1.11 12.18.68 24.28 1.82 36.27-.28-3.5 1-7.69 1.49-11.24.5-3.83-.2-7.79.18-11.54.5 5.08.57 9.84.58 14.83-.045 3.229-.292 6.452-.74 9.65h2.48l.83-5 1-6.08c.158-1.511.221-3.03.19-4.55.022-1.616-.239-3.224-.77-4.75-1-2.37 0-4.78.17-7.22.071-.738.038-1.482-.1-2.21l-.51-2.42-1.38-6.64-.13-.62c-.318-1.693-.745-3.363-1.28-5-.417-1.352-1.06-2.623-1.9-3.76l-.93-4.51-2.18-6.18-1.13-3.23.13 5.63v1.74l-.71 6.22zM116.64 440.9c1.297-.235 2.544-.688 3.69-1.34l-1-1.78c-1.85 1.69-8.37-.72-10.63-1-4.79-.52-9.85-1-14.16-3.57-6.82-4.09-11.81-10.23-16.76-15.88 3.72 2.48 6.09 5.48 9.52 8.24 4.37 3.53 10.45 5.12 15.78 7.17-2.14-1.11-3.55-3.23-5.68-4.56-2.31-1.45-5.86-1.82-6.56-4.94 3.72 2.29 7.82 4.8 11.54 6.69 4.47 2.27 10.28 2.67 14.92 4.34l-1.12-1.91-7.34-8.81-8.34-1.42-9.38-2.34s-.92-2.22-5.66-4.15c-4.74-1.93-13.57-7.36-15.32-10.27-1.75-2.91-4.41-8.05-4.41-8.05l-.15 8.39 3.76 9.62 5.3 9.5s3.5 6.15 6.64 8.14c3.82 2.42 10.44 6 14.78 6.59 6.25.9 9.65 1.94 14.94 1.81 1.888-.046 3.77-.203 5.64-.47z" transform="translate(-1229 -214) translate(0 -157) translate(1229 371)"/>
                    <path fill="#000" d="M140.48 417.65c-.518 4.216-.669 8.468-.45 12.71.36.8.69 1.52 1 2.12-.49-4.96-.19-10.36-.55-14.83zM146.93 430.61c0-5-.08-9.75-.58-14.83-.38 3.75.32 7.71-.18 11.54-.46 3.55-1.77 7.74-1.49 11.24-1.14-12-.71-24.09-1.82-36.27-.52 11.81-.89 23.37-.43 35.1l1.11 5.33 1 9.73.6-.43c0-2.25.2-4.46.44-6.67.19-1.7.4-3.39.61-5.09.448-3.198.695-6.421.74-9.65zM102.34 429.98c-3.72-1.89-7.82-4.4-11.54-6.69.7 3.12 4.25 3.49 6.56 4.94 2.13 1.33 3.54 3.45 5.68 4.56-5.33-2.05-11.41-3.64-15.78-7.17-3.43-2.76-5.8-5.76-9.52-8.24 5 5.65 9.94 11.79 16.76 15.88 4.31 2.59 9.37 3.05 14.16 3.57 2.26.25 8.78 2.66 10.63 1l-2-3.48c-4.67-1.72-10.48-2.12-14.95-4.37z" transform="translate(-1229 -214) translate(0 -157) translate(1229 371)"/>
                    <path fill="#000" d="M144.86 455.66l-.32-3.21-1-9.73-1.11-5.33-.69-3.36-.74-1.55c-.28-.6-.61-1.32-1-2.12-1.018-2.129-1.864-4.336-2.53-6.6-.46-2.19-2.59-10.15-4.76-14.17-.358-.739-.834-1.415-1.41-2-.315-.331-.688-.602-1.1-.8-.12 0-.1.09-.08.17.02.08 0 .08 0 .06 0-.02-.38-.45-1.36-1.68-2.85-3.59-7.6-9.58-10.18-11.82s-5-3.84-6.91-6.24c-1.91-2.4-6.37-7-7.46-8.9-1.09-1.9-5.17-8-5.17-8l-3.83-8.27-3.12-4.93 1.13 8.83.72 6.82 1 8.16.3 4.81 1.53 7.36 2.09 10 4.24 10.27 4.63 8.8 1.08 1.29 7.34 8.81 1.12 1.91 2 3.48 1 1.78 1.26 2.15 1.54 2.43 4.72 7.43 2 4 .5 1 .72 2.49 1.76 6.05 12.78-2.66-.6-5.91-.09-.82zm-16.43-22.91c-1.13-1.81-2.56-3.64-4-5.52l-2.19-2.89c-.38-.515-.735-1.049-1.06-1.6l-.92-1.53c-.275-.458-.583-.896-.92-1.31l-1.12-1.47c-.722-1.042-1.39-2.12-2-3.23-.983-1.998-2.141-3.905-3.46-5.7-1.3-1.55-3-2.89-4.6-4.4-.793-.745-1.504-1.573-2.12-2.47-.6-1-1-1.7-1.39-2.57-1.356-2.65-2.364-5.463-3-8.37-.18-.805-.313-1.62-.4-2.44-.08-.56-.12-.86-.12-.86l.29.82c.16.54.46 1.32.84 2.29 1.088 2.668 2.428 5.226 4 7.64.45.7 1 1.62 1.54 2.25.599.713 1.269 1.363 2 1.94 1.802 1.318 3.51 2.762 5.11 4.32 1.543 1.852 2.884 3.864 4 6 .58 1 1.18 2 1.79 2.84l1.1 1.38c.426.516.817 1.06 1.17 1.63l.93 1.59c.274.49.575.963.9 1.42l2.1 2.85c1.43 1.92 2.742 3.923 3.93 6 1.072 1.968 1.962 4.03 2.66 6.16.33.91.6 1.82.85 2.71-.89-.09-1.69-.18-2.44-.29-.21-.52-.41-1-.64-1.56-.805-1.943-1.751-3.825-2.83-5.63z" transform="translate(-1229 -214) translate(0 -157) translate(1229 371)"/>
                    <path fill="#E4B477" d="M131.29 438.37c.23.53.43 1 .64 1.56.75.11 1.55.2 2.44.29-.25-.89-.52-1.8-.85-2.71-.698-2.13-1.588-4.192-2.66-6.16-1.188-2.077-2.5-4.08-3.93-6l-2.1-2.85c-.325-.457-.626-.93-.9-1.42l-.93-1.59c-.353-.57-.744-1.114-1.17-1.63l-1.1-1.38c-.61-.87-1.21-1.82-1.79-2.84-1.116-2.136-2.457-4.148-4-6-1.6-1.558-3.308-3.002-5.11-4.32-.731-.577-1.401-1.227-2-1.94-.49-.63-1.09-1.55-1.54-2.25-1.572-2.414-2.912-4.972-4-7.64-.38-1-.68-1.75-.84-2.29l-.29-.82s0 .3.12.86c.087.82.22 1.635.4 2.44.636 2.907 1.644 5.72 3 8.37.44.87.79 1.59 1.39 2.57.616.897 1.327 1.725 2.12 2.47 1.55 1.51 3.3 2.85 4.6 4.4 1.319 1.795 2.477 3.702 3.46 5.7.61 1.11 1.278 2.188 2 3.23l1.12 1.47c.337.414.645.852.92 1.31l.92 1.53c.325.551.68 1.085 1.06 1.6l2.19 2.89c1.41 1.88 2.84 3.71 4 5.52 1.079 1.805 2.025 3.687 2.83 5.63z" transform="translate(-1229 -214) translate(0 -157) translate(1229 371)"/>
                </g>
            </g>
        </g>
    </g>
</svg>
