<svg xmlns="http://www.w3.org/2000/svg" width="236" height="579" viewBox="0 0 236 579">
    <g fill="none" fill-rule="evenodd">
        <g>
            <g>
                <g>
                    <path d="M123.545 543l-.73 1-.82 1.4c.55-.32 1.09-.64 1.64-1l-.09-1.4z" transform="translate(0 -192) translate(0 -157) translate(0 349)"/>
                    <path fill="#000" fill-rule="nonzero" d="M101.875 540.07h-16.45l-11.95.12h-10.87l-21.83.09-17.92.07-.84.21 2.46 3.57 75.57-1.13 1.06-1.34s.3-.6.77-1.59zM49.295 59.05c-.12.35-.23.71-.35 1.06-.47 1.47-.95 3-1.43 4.48l-.15.47-1.22 4c-.967 3.18-1.93 6.453-2.89 9.82-.14.47-.27.93-.4 1.41-.13.48-.21.74-.32 1.12-.44 1.61-.89 3.23-1.33 4.88-.11.44-.23.88-.34 1.31-.4 1.49-.79 3-1.17 4.5-.08.28-.15.56-.22.84-.31 1.22-.61 2.47-.92 3.7-.667 2.667-1.31 5.377-1.93 8.13v.12c-.06.25-.12.52-.17.77-.37 1.61-.73 3.24-1.09 4.88l-.33 1.55c-.39 1.8-.77 3.63-1.14 5.47l-.27 1.33c-.3 1.49-.59 3-.88 4.51-.573 2.967-1.123 5.967-1.65 9-.3 1.69-.58 3.4-.87 5.12l-.18 1.11c-.32 2-.62 4-.92 6-.09.59-.18 1.18-.26 1.77-.15 1-.28 2-.42 3-.533 3.8-1.03 7.65-1.49 11.55-.24 2-.47 4.047-.69 6.14l-.15 1.51c-.19 1.81-.36 3.62-.53 5.45-.447 4.86-.83 9.793-1.15 14.8 0 .32-.05.63-.07.95-.02.32-.05.82-.08 1.23-.13 2.23-.24 4.47-.35 6.72 0 .65-.05 1.31-.08 2-.087 2-.16 4.02-.22 6.06-.08 2.48-.13 5-.17 7.5v11.54c0 1.89 0 3.79.07 5.7v1.78c.047 2.373.113 4.76.2 7.16 0 .64.05 1.28.08 1.91.08 2 .17 4 .27 6 .22 4.34.5 8.723.84 13.15.15 1.88.29 3.76.46 5.65 0 .25.05.51.07.76.21 2.37.45 4.74.7 7.13l.21 2c.06.5.12 1 .17 1.49.213 1.94.44 3.883.68 5.83v.34c.06.53.13 1.05.2 1.57.287 2.253.59 4.507.91 6.76.4 2.88.83 5.773 1.29 8.68 0 .3.09.6.14.91.1.64.21 1.29.31 1.93.393 2.353.8 4.713 1.22 7.08.08.43.15.86.23 1.29.467 2.58.963 5.17 1.49 7.77.533 2.667 1.083 5.333 1.65 8 .18.84.35 1.68.53 2.53 0 .19.09.38.13.57.46 2.08 1 4.18 1.45 6.28.74 3.14 1.517 6.297 2.33 9.47.2.77.38 1.54.59 2.32l.39 1.49c.65 2.44 1.31 4.89 2 7.35l.51 1.82c.78 2.76 1.6 5.53 2.44 8.31.24.8.49 1.6.73 2.4.72 2.36 1.463 4.727 2.23 7.1.14.42.27.84.4 1.26.08.22.15.44.23.67 1.267 3.873 2.6 7.753 4 11.64.81 2.31 1.62 4.61 2.48 6.93l.12.32c.2.54.42 1.07.62 1.61.36 1 .72 1.93 1.09 2.89v.05l1.5 3.93c.27.69.53 1.37.8 2.05 1.14 2.88 2.307 5.763 3.5 8.65l.58 1.38c1.087 2.6 2.203 5.207 3.35 7.82l.8 1.82c1.307 2.853 2.647 5.72 4.02 8.6.28.62.58 1.25.87 1.87l.33.69c1.72 3.66 3.49 7.327 5.31 11 1.06 2.12 2.11 4.25 3.2 6.37 2.18 4.26 4.433 8.527 6.76 12.8 1.34 2.45 2.69 4.91 4.08 7.37 1.89 3.35 3.82 6.72 5.8 10.08l.05.06.49.85.78 1.3c1.62 2.707 3.267 5.42 4.94 8.14l1.12 1.82c1.44 2.31 2.93 4.63 4.42 6.95.12-3.43-1.07-7.26-1.58-10.88-.29-2.08-.9-6.45-1.39-9.93-105.18-179.22-79.4-341.09-52.1-426.34l-4.08-3.52-1.18 3.42zM13.645 1.44L14.265 0 7.065 0 12.585 1.46zM62.775 417.32l.58 1.38-.58-1.38z" transform="translate(0 -192) translate(0 -157) translate(0 349)"/>
                    <path fill="#000" fill-rule="nonzero" d="M24.885 294.86l4.74 5.85c-.46-2.907-.89-5.8-1.29-8.68.05.37.09.73.15 1.1l-3.6 1.73zM31.315 310.65c.08.43.15.86.23 1.29-.07-.43-.15-.86-.23-1.29zM35.215 330.19c0 .19.09.38.13.57-.04-.19-.09-.38-.13-.57zM58.285 453.2c-.314 2.519-.76 5.019-1.34 7.49l5.33-2.56-3.99-4.93zM43.125 453.78l7.9 9.76.54-.26c2.55-4.76 4.68-8.91 5.84-11.17l-3-3.74-11.28 5.41zM39.695 483.64c1.22-1.79 2.52-3.87 3.86-6.11l-6.34 3.05 2.48 3.06zM39.285 463.84c-.14 1.89-.33 3.77-.54 5.6l3.66-1.76-3.12-3.84zM52.085 499c1-.94 1.89-1.92 2.78-2.91l-3.69 1.77.91 1.14zM68.335 465.62L57.085 471l7.9 9.76 1.17-.57c2.42-4.16 3.77-7.09 3.77-7.09-.19 1.939-.524 3.86-1 5.75l7.29-3.5-7.88-9.73zM40.415 431.12l-11.25 5.42 6.75 8.34c.206-3.016-.384-6.033-1.71-8.75 2.44 1.67 3.89 5 4.67 9.29l9.44-4.54-7.9-9.76zM51.945 479.48c-.89 3-1.79 6-2.66 8.86l7.08-3.41-4.42-5.45zM28.475 450.44l-7.9-9.76-10.7 5.13c.12.47.25 1 .37 1.45l7 8.59 11.23-5.41zM71.475 437c.28.62.58 1.25.87 1.87-.33-.59-.63-1.22-.87-1.87zM66.705 426.52l.8 1.82-.8-1.82zM104.055 497.56l1.12 1.82-1.12-1.82zM98.335 488.12l.78 1.3-.78-1.3zM26.065 466.81c1.06-2.26 2.09-4.38 3.06-6.3l-5.87 2.83 2.81 3.47zM43.815 505.42c.35-.2.68-.42 1-.63l-.57-.71c-.26.85-.43 1.34-.43 1.34zM13.565 468c.5 4.41.9 8.84 1.24 13l6.52-3.14c.18-.47.36-.93.55-1.39l-7.24-8.95-1.07.48zM70.315 502.17l-7-8.64c-1.97 3.876-4.132 7.65-6.48 11.31l2.23 2.74 11.25-5.41zM29.785 301.64c.1.64.21 1.29.31 1.93-.1-.64-.21-1.29-.31-1.93zM58.475 406.62c.27.69.53 1.37.8 2.05-.27-.67-.53-1.36-.8-2.05zM48.885 392.7l3.73-1.8c-1.38-3.887-2.713-7.767-4-11.64l-7.66 3.68 7.93 9.76zM70.895 454l7-3.38c-1.82-3.68-3.59-7.347-5.31-11l-9.62 4.63 7.93 9.75zM38.275 360.29l-11.25 5.41 7.9 9.76 10.86-5.23c-.24-.8-.49-1.6-.73-2.4.13.44.26.88.4 1.32l-7.18-8.86zM56.935 402.64c-.37-1-.73-1.93-1.09-2.89l-.9.43 1.99 2.46zM18.985 321.65l7.9 9.76 7.79-3.75c-.573-2.667-1.123-5.333-1.65-8l-2.8-3.46-11.24 5.45zM39.115 346.52c-.813-3.167-1.59-6.323-2.33-9.47l-3.84 1.85 6.17 7.62zM55.115 397.82l.12.32-.12-.32zM42.105 357.7l.51 1.82-.51-1.82zM105.905 531.34c1.6-3.69 3-7.42 3.25-9.33.15-1.27.23-2.75.28-4.29l-10.47 5 6.94 8.62zM39.715 348.86l.39 1.49-.39-1.49zM90.915 478.71l6.88 8.5c-2-3.36-3.91-6.73-5.8-10.08.16.28.3.56.46.84l-1.54.74zM62.625 540.23L73.495 540.19 70.475 536.46zM90.335 526.91L79.095 532.31 85.425 540.14 91.055 540.12 98.235 536.66zM76.955 461.47l7.91 9.76 3-1.47c-2.32-4.267-4.573-8.533-6.76-12.8l1 2-5.15 2.51zM48.025 377.33c.14.42.27.84.4 1.26-.13-.42-.26-.84-.4-1.26zM37.775 530.18c-4.49 5.22-7.62 8.45-7.62 8.45l-7.27 1.76 17.92-.07 3.73-1.79-6.76-8.35zM19.895 167.07l-7.91-9.76-6.26 3c-.528 2.348-.915 4.726-1.16 7.12l4.08 5 11.25-5.36zM36.605 104.88c-.06.25-.12.52-.17.77.04-.25.11-.52.17-.77zM41.215 86.27c-.11.44-.23.88-.34 1.31.11-.43.23-.87.34-1.31zM18.265 335.56L10.355 325.8.475 330.55.475 332.89 7.005 340.97zM39.705 92.08c-.08.28-.15.56-.22.84.07-.28.14-.56.22-.84zM10.925 277.61l7.9 9.76 8.35-4c-.24-1.947-.467-3.89-.68-5.83l-4.32-5.34-11.25 5.41zM49.295 59.05c-.12.35-.23.71-.35 1.06.12-.35.23-.71.35-1.06zM42.865 80.27c-.11.37-.21.74-.32 1.12.11-.39.21-.75.32-1.12zM47.475 64.59l-.15.47.15-.47zM92.895 515.27L104.145 509.86 96.255 500.1 84.995 505.51zM2.305 281.76L.475 282.64.475 296.2 10.205 291.52zM65.125 515.06L73.035 524.82 84.275 519.41 76.375 509.66zM78.945 498.03L90.195 492.62 82.295 482.86 71.045 488.27zM.475 415.89L.475 415.98.525 415.95zM.475 381.79L.475 392.02 6.435 389.16zM12.345 362.36L4.445 352.6.475 354.51.475 366.98 1.105 367.76zM45.265 524.62L53.165 534.38 64.405 528.97 56.505 519.21zM21.255 66.47L21.435 70.04 21.365 70.54 23.655 69.43zM43.255 78.85c.96-3.333 1.923-6.607 2.89-9.82l-7.8 3.75 4.91 6.07zM36.635 104.76c.633-2.76 1.277-5.47 1.93-8.13l-6.09 2.94 4.16 5.19zM35.625 50.12L24.385 55.53 32.285 65.29 43.525 59.88zM31.135 132.07l-.06.37c.527-3.06 1.077-6.06 1.65-9l-6.2 3 4.61 5.63zM27.425 1.21L30.175 0 23.065 0 23.175 1.28zM26.925 161c.46-3.9.957-7.75 1.49-11.55l-7.8 3.76 6.31 7.79zM37.615 86.68L29.725 76.92 19.685 81.75 19.425 83.5 26.375 92.09zM25.805 140.28l-7.91-9.76-6.33 3c-.41 1.82-.93 4.09-1.49 6.59l4.48 5.53 11.25-5.36zM.595 211.44L.475 212.08.475 224.32 8.065 220.67zM.475 245.39L.475 248.28 2.165 247.47zM16.115 264.71L8.215 254.96.475 258.68.475 264.69 4.865 270.12zM17.555 95.99L17.495 96.35 17.745 96.23zM13.975 193.88l-7.9-9.76-1.5.73c-.46 4.41-1.12 9.29-1.91 14.34l.07.09 11.24-5.4zM31.705 113.48L23.815 103.72 15.815 107.56 15.115 112.27 20.465 118.88zM20.105 43.38l.18 3.72 5.28-2.53c-1.862-.168-3.697-.567-5.46-1.19zM.475 313.59L.475 320.15 4.295 318.31zM23.475 213.86v1.95-1.95zM23.915 197.76c0 .65-.05 1.31-.08 2 .03-.69.05-1.35.08-2zM23.475 230.5v1.78-1.78zM3.335 438.56c2.11-6.65 3.83-10.9 3.83-10.9.17 3.15.49 6.15.82 8.66l6.5-3.13-7.9-9.75-6.11 2.94v8.82l2.76 3.4.1-.04zM20.395 406.4L12.495 396.64 1.245 402.05 9.145 411.81zM8.795 206.77l7.9 9.75 6.78-3.24c0-2.52.09-5 .17-7.5l-3.58-4.42-11.27 5.41zM23.385 223.71l-.63.3.64.79v-2c-.02.3-.02.6-.01.91zM35.345 110.53l-.33 1.55.33-1.55zM29.105 144.63c-.09.59-.18 1.18-.26 1.77.08-.59.17-1.18.26-1.77zM30.205 137.56l-.18 1.11.18-1.11zM14.715 180l7.89 9.76 1.8-.87c.32-5.013.703-9.947 1.15-14.8 0 .24 0 .48-.07.73L14.715 180zM33.875 117.55l-.27 1.33.27-1.33zM26.235 167.1l-.15 1.51.15-1.51zM24.345 189.81c0 .41-.05.82-.08 1.23.03-.41.06-.82.08-1.23zM56.945 436.74L68.185 431.33 60.285 421.57 49.045 426.98zM27.225 283.7c.06.53.13 1.05.2 1.57-.07-.52-.14-1.04-.2-1.57zM29.025 402.25L40.265 396.84 32.365 387.08 21.125 392.49zM42.985 419.49L54.225 414.08 46.325 404.33 35.085 409.74zM15.205 419.3L23.105 429.05 34.355 423.64 26.455 413.88zM14.125 228.16L2.885 233.56 10.785 243.33 22.025 237.92zM26.305 379.6L18.405 369.84 7.165 375.25 15.065 385.01zM23.695 239.44c0 .64.05 1.28.08 1.91-.03-.63-.05-1.27-.08-1.91zM16.265 299L5.025 304.41 12.925 314.17 24.165 308.76zM32.215 352.8L24.315 343.05 13.075 348.45 20.975 358.21zM26.125 274l.21 2-.21-2zM24.745 260.57l.14-.07c-.34-4.42-.62-8.803-.84-13.15l-7.2 3.46 7.9 9.76zM25.355 266.14c0 .25.05.51.07.76-.02-.25-.05-.51-.07-.76zM119.145 31.53l-8.06-2.24c2.65 2.16 5.18 4.41 7.45 6.15 5.8 4.22 11.825 8.119 18.05 11.68 7.65 4.62 14 9.22 19.73 16-5.83-4.52-6.89-6-11-8.06-5.12-2.55-9.35-6-14.54-8.67-8-4.09-14.5-10.62-22.91-13.26 4.62 7.27 14.7 11 21.16 16.3 5.29 4.288 10.815 8.277 16.55 11.95 6.61 4.34 17.81 14.74 21.22 21.76-6.7-9.41-18.27-16-18.27-16-9.4-6.18-13.83-8.9-19.65-14-4.4-3.89-10.72-5.86-13.4-11.31 2.49 5.69 7 12 10 17.53 2.28 4.2 4.92 7.63 8.48 13.45-5.55-6-6.74-8.34-10.11-12.91-2.75-3.75-5.07-6.13-7.25-10.27-3.798-6.972-8.69-13.289-14.49-18.71 2.45 3.4 3.94 6.78 5.66 11.67 4.09 6.7 5.37 10.25 7.26 17.53 0 0 .13 4 .38 8.06 10.17 8.87 21.15 13.66 31.2 21.29 17.45 13.23 37.28 31.23 46.57 38.74 5.39 4.37 4.59 1.65 4.59 1.65-12.82-46.06-43.6-79.15-62.62-92.77l-8.27-2.83-7.73-2.73z" transform="translate(0 -192) translate(0 -157) translate(0 349)"/>
                    <path fill="#7F4D5A" fill-rule="nonzero" d="M99.995 27.79L99.495 27.79 100.105 28.49zM130.125 532.45c-.291.825-.67 1.616-1.13 2.36l2.41 3.35c11.47-10.69 21.48-26.72 26.39-39-3.76 9.56-5.68 25.85-15.81 31.12 6.14.08 14.56-12.88 18-17.85 5.31-7.73 8.61-16.07 13.87-23.72-6.63 22.35-23 46.16-43.22 56.93l-6.87.48.29 4.33c5.29-1.34 11.18-2.87 17.17-4.38 2.31-2.49 4.52-4.92 5.41-6.07 2.23-2.84 7.44-6.61 10.67-9.76 3.23-3.15 12.33-16.77 14.94-18.65 2.61-1.88 5-15.57 5-15.57l.95-14.33-1-13.71-5.26-10.26s-.28 7.66-.73 12.12c-.45 4.46-8.43 15.48-13.25 20.16s-4.67 7.92-4.67 7.92l-10.44 7.54-3.58 2.18c-.58 3.84-1.2 9.2-1.35 11.61-.2 3.55-7 10.46-7.79 13.2z" transform="translate(0 -192) translate(0 -157) translate(0 349)"/>
                    <path fill="#7F4D5A" fill-rule="nonzero" d="M129.415 540h-.89l-1.55-1.92c-1.28 1.93-2.63 3.82-3.43 4.93l.09 1.39c2.018-1.343 3.949-2.812 5.78-4.4z" transform="translate(0 -192) translate(0 -157) translate(0 349)"/>
                    <path fill="#000" fill-rule="nonzero" d="M130.615 545.59c20.23-10.77 36.59-34.58 43.22-56.93-5.26 7.65-8.56 16-13.87 23.72-3.42 5-11.84 17.93-18 17.85 10.13-5.27 12.05-21.56 15.81-31.12-4.91 12.33-14.92 28.36-26.39 39l1.3 1.79h-3.29c-1.831 1.591-3.762 3.064-5.78 4.41-.55.36-1.09.68-1.64 1l-.5.86 2.25-.16 6.89-.42z" transform="translate(0 -192) translate(0 -157) translate(0 349)"/>
                    <path fill="#E4B477" fill-rule="nonzero" d="M15.975 499.4c0-5.94 2.33-13.86 5.35-21.58l-6.52 3.18c.67 8.17 1.02 15.18 1.17 18.4zM3.235 438.6l-2.76-3.4v13.17c1-3.62 1.94-6.94 2.86-9.81l-.1.04z" transform="translate(0 -192) translate(0 -157) translate(0 349)"/>
                    <path fill="#E4B477" fill-rule="nonzero" d="M14.475 433.19l-6.5 3.13c.54 4 1.1 6.79 1.1 6.79.27.83.53 1.74.79 2.7l10.67-5.13 7.9 9.76-11.25 5.41-6.95-8.59c1.518 6.842 2.63 13.767 3.33 20.74l1.07-.51 7.24 8.95c1.34-3.33 2.78-6.59 4.19-9.62l-2.81-3.47 5.87-2.83c2.93-5.83 5.2-9.78 5.2-9.78.91-1.826 1.45-3.814 1.59-5.85l-6.75-8.34 11.25-5.42 7.9 9.76-9.44 4.54c1 5.28.92 11.92.41 18.42l3.12 3.84-3.66 1.76c-1.2 10.57-3.19 19.46-3.19 19.46 1.555-1.608 2.942-3.37 4.14-5.26l-2.48-3.06 6.34-3.05c2.72-4.53 5.56-9.66 8-14.25l-.54.26-7.9-9.76 11.25-5.41 3 3.74.92-1.84c.113.973.113 1.957 0 2.93l4 4.93-5.33 2.56c-1.22 5.46-3.07 12.2-5 18.79l4.42 5.45-7.08 3.41c-2.21 7.17-4.18 13.18-5 15.74l.57.71c2.601-1.678 5.02-3.622 7.22-5.8l-.91-1.14 3.69-1.77c4.284-4.885 8.067-10.188 11.29-15.83l-1.17.57-7.9-9.83 11.25-5.41 7.9 9.76-7.29 3.5c-1.317 5.079-3.202 9.993-5.62 14.65l7 8.64-11.25 5.44-2.23-2.74c-5.761 8.879-12.133 17.346-19.07 25.34l6.76 8.35-3.73 1.79 21.83-.09 7.84-3.77 3 3.73 12-.05-6.33-7.83 11.24-5.4 7.9 9.75-7.18 3.46h10.82c.93-1.91 2.55-5.3 4-8.73l-6.94-8.58 10.47-5c.12-4 0-8.54.15-11.07v-.32c-1.49-2.32-3-4.64-4.42-6.95l-1.12-1.82c-1.68-2.72-3.327-5.433-4.94-8.14l-.78-1.3-.49-.85-.05-.06-6.88-8.5 1.55-.8c-.16-.28-.3-.56-.46-.84-1.39-2.46-2.74-4.92-4.08-7.37l-3 1.47-7.91-9.76 5.15-2.5-1-2c-1.09-2.12-2.14-4.25-3.2-6.37l-7 3.38-7.89-9.76 9.62-4.63-.33-.69c-.29-.62-.59-1.25-.87-1.87-1.333-2.9-2.643-5.797-3.93-8.69l-.8-1.82c-1.14-2.607-2.257-5.213-3.35-7.82l-.58-1.38c-1.2-2.887-2.367-5.77-3.5-8.65-.27-.68-.53-1.36-.8-2.05-.51-1.31-1-2.62-1.5-3.93v-.05l-2-2.46.9-.43c-.2-.54-.42-1.07-.62-1.61l-.12-.32c-.86-2.32-1.67-4.62-2.48-6.93l-3.73 1.8-7.9-9.76 7.66-3.68c-.08-.23-.15-.45-.23-.67-.13-.42-.26-.84-.4-1.26-.767-2.373-1.51-4.74-2.23-7.1l-10.86 5.23-7.9-9.76 11.25-5.41 7.09 8.84c-.14-.44-.27-.88-.4-1.32-.84-2.78-1.66-5.55-2.44-8.31l-.51-1.82c-.69-2.46-1.35-4.91-2-7.35l-.39-1.49c-.21-.78-.39-1.55-.59-2.32l-6.17-7.62 3.84-1.85c-.49-2.1-1-4.2-1.45-6.28 0-.19-.09-.38-.13-.57-.18-.85-.35-1.69-.53-2.53l-7.79 3.75-7.9-9.76 11.24-5.4 2.8 3.46c-.52-2.6-1.017-5.19-1.49-7.77-.08-.43-.15-.86-.23-1.29-.42-2.373-.827-4.733-1.22-7.08-.1-.64-.21-1.29-.31-1.93 0-.31-.1-.61-.14-.91l-4.74-5.85 3.6-1.73c-.06-.37-.1-.73-.15-1.1-.32-2.26-.623-4.513-.91-6.76-.07-.52-.14-1-.2-1.57v-.34l-8.35 4-7.9-9.76 11.16-5.45 4.3 5.33c-.05-.49-.11-1-.17-1.49l-.21-2c-.25-2.39-.49-4.76-.7-7.13 0-.25-.05-.51-.07-.76-.17-1.89-.31-3.77-.46-5.65l-.14.07-7.9-9.76 7.2-3.46c-.1-2-.19-4-.27-6 0-.63-.05-1.27-.08-1.91-.08-2.4-.147-4.787-.2-7.16v-1.78c0-1.91-.06-3.81-.07-5.7l-.64-.79.63-.3v-.91-8.95-.59l-6.75 3.24-7.9-9.75 11.24-5.41 3.58 4.42c.06-2 .133-4.02.22-6.06 0-.65.05-1.31.08-2 .11-2.25.22-4.49.35-6.72 0-.41.06-.82.08-1.23.02-.41.05-.63.07-.95l-1.8.87-7.85-9.67 10.76-5.21c0-.25 0-.49.07-.73.17-1.83.34-3.64.53-5.45l.15-1.51c.22-2.06.45-4.107.69-6.14l-6.31-7.79 7.8-3.76c.14-1 .27-2 .42-3 .08-.59.17-1.18.26-1.77.3-2 .6-4 .92-6l.18-1.11c.29-1.72.57-3.43.87-5.12l.06-.37-4.61-5.7 6.2-3c.29-1.52.58-3 .88-4.51l.27-1.33c.37-1.84.75-3.67 1.14-5.47l.33-1.55c.36-1.64.72-3.27 1.09-4.88 0-.25.11-.52.17-.77v-.12l-4.11-5.14 6.13-2.94c.31-1.23.61-2.48.92-3.7.07-.28.14-.56.22-.84.38-1.52.77-3 1.17-4.5.11-.43.23-.87.34-1.31.44-1.65.89-3.27 1.33-4.88.11-.38.21-.75.32-1.12.11-.37.26-.94.4-1.41l-4.91-6.07 7.75-3.8 1.22-4 .15-.47c.48-1.52 1-3 1.43-4.48.12-.35.23-.71.35-1.06l1.18-3.36-2.24-1.94c-2.39-1.81-3.65-2.7-6.35-4.43-3.63-1.31-5.51-1.94-9.43-3.17-2.158-.95-4.482-1.466-6.84-1.52l-5.33 2.53 1 19.37 2.41 3-2.3 1.11-1.71 11.17 10-4.83 7.89 9.76-11.2 5.41-6.9-8.59-1.92 12.5.19.24-.25.12-1.68 11.21 8-3.84 7.89 9.76-11.23 5.39-5.35-6.61-2.53 16.85s-.4 1.72-1 4.44l6.33-3 7.91 9.76-11.25 5.4-4.51-5.57c-1.46 6.46-3.21 14.45-4.35 20.17l6.26-3 7.91 9.76-11.25 5.4-4.08-5c-.008.083-.008.167 0 .25.93 3.26.77 9.5 0 17.16l1.5-.73 7.9 9.76-11.24 5.4-.07-.09c-.63 4-1.33 8.16-2.07 12.25l7.47 9.23-7.58 3.61v21.07l1.69 2.08-1.69.81v10.4l7.74-3.68 7.9 9.75-11.25 5.37-4.39-5.43v17.95l1.83-.88 7.9 9.76-9.73 4.68v17.39l3.82 4.72-3.82 1.84v10.4l9.88-4.75 7.9 9.76L7.005 341l-6.53-8.11v21.62l4-1.91 7.9 9.76-11.27 5.4-.63-.76v14.81l6 7.37-6 2.82v23.87l.05.06v10.41l6.11-2.94 7.84 9.79zm38.69 101.19l-7.9-9.76 11.21-5.41 7.93 9.79-11.24 5.38zm19.87-9.56l-7.91-9.76 11.25-5.4 7.9 9.75-11.24 5.41zm23.22-24.72l7.89 9.76-11.25 5.41-7.9-9.76 11.26-5.41zm-14-17.24l7.9 9.76-11.21 5.38-7.9-9.76 11.21-5.38zm-50-417.57l-7.9-9.76 11.24-5.41 7.9 9.76-11.24 5.41zm-21.5 178l-7.9-9.77 11.24-5.4 7.9 9.76-11.24 5.41zm12.35 185.76l-7.9-9.75 11.27-5.42 7.9 9.76-11.27 5.41zm37.18-7.48l7.9 9.76-11.24 5.41-7.9-9.74 11.24-5.43zm-14-17.24l7.9 9.75-11.24 5.41-7.9-9.75 11.24-5.41zm-14-17.25l7.9 9.76-11.24 5.41-7.9-9.76 11.24-5.41zm-19.36-72.92l-7.9-9.75 11.24-5.41 7.9 9.76-11.24 5.4zm11.39 28.89l7.9 9.75-11.25 5.41-7.89-9.76 11.24-5.4zm-5.91 26.79l7.9 9.76-11.24 5.4-7.9-9.76 11.24-5.4zm-5.93 26.8l7.9 9.76-11.23 5.4-7.9-9.75 11.23-5.41zM129.415 540h3.29l-1.3-1.79-2.41-3.35c-.57 1-1.28 2.12-2 3.24l1.55 1.92.87-.02z" transform="translate(0 -192) translate(0 -157) translate(0 349)"/>
                    <path fill="#000" fill-rule="nonzero" d="M30.175 0l-2.7 1.21-4.25.07-.16-1.28h-8.8l-.62 1.44h-1.06L7.065 0H.475v5.55l1.06.32-1.06-.21v4.18l1.83-1.78s-.63 1-1.83 2.76v26c1.41-3.82 2.71-7.38 4.06-10.46.76-1.79 1.48-3.47 2.14-5 .66-1.53 1.38-2.92 2-4.18 2.43-5 4.1-7.73 4.1-7.73s-.27.75-.8 2.15-1.18 3.48-2.06 6.1c-.88 2.62-1.86 5.86-2.94 9.57-1.08 3.71-2.24 7.9-3.5 12.46-.89 3.73-2 7.66-3 11.81v160.54l.12-.64c.74-4.09 1.44-8.22 2.07-12.25.79-5.05 1.45-9.93 1.91-14.34.78-7.66.94-13.9 0-17.16-.008-.083-.008-.167 0-.25.245-2.394.632-4.772 1.16-7.12 1.14-5.72 2.89-13.71 4.35-20.17.56-2.5 1.08-4.77 1.49-6.59.62-2.72 1-4.44 1-4.44l2.53-16.85.7-4.71 1.67-11.21.06-.36 1.94-12.49.26-1.75 1.68-11.21.06-.54-.18-3.57-1-19.37-.18-3.72 34.82-14.77c-1.46-.41-2.94-.8-4.38-1.25-6.608-2.224-13.383-3.916-20.26-5.06 6.25.13 12.487.662 18.67 1.59 3.733.55 7.413 1.417 11 2.59l23.51-9.98c4.037 1.89 7.902 4.129 11.55 6.69 1.77 1.68 3.24 3.18 4.5 4.6h.5l-1-5.5c4 .88 8.18 3.84 12 7l8.06 2.24 7.68 2.73 8.27 2.83 5.67 1.95s10 6.14 12.91 7.43c2.336 1.177 4.57 2.545 6.68 4.09l5.27 3.24 7.49 5.66 9.49 1.93 4.08 1.56 8.85 2.66 5.69 5.82 8.49 10.34 5.18 8.27s4.15 10 6.5 13.8c2.35 3.8 7.22 13.31 7.22 13.31l4.28 3.55 3-5.17-.61-6-1.28-8.74s-.47-12.44-1.88-14.7-6.29-11.8-7.43-15.3c-1.14-3.5-11-19.34-11-19.34l-13.41-16.61-10.16-11.37s-10-9.37-12.1-11.15c-2.1-1.78-16.49-11.47-16.49-11.47s-.45-.32-1.18-.81H30.175zm110.59 12.13l.35.07 1.4.28c3.14.39 7.22.2 11.36.9 1.076.2 2.138.468 3.18.8l1.37.47 1.53.65c1.858.846 3.665 1.8 5.41 2.86l4.89 3 1.19.71.71.42.6.39 2.41 1.54c6.86 4.94 11.69 10.73 16.63 16 4.94 5.27 10 10.32 14.21 15.67 2.122 2.59 4.095 5.297 5.91 8.11 1.77 2.87 3.18 5.27 4.88 7.62 1.724 2.352 3.288 4.818 4.68 7.38.7 1.29 1.13 2.53 1.66 3.67.53 1.14.94 2.41 1.37 3.55 1.59 4.63 2.67 8.68 3.51 12 1.63 6.7 2.57 10.54 2.57 10.54s-.38-.91-1.11-2.61c-.73-1.7-1.74-4.2-3-7.4s-2.76-7.08-4.79-11.31c-.53-1-1-2.11-1.6-3.22-.6-1.11-1.18-2.31-1.86-3.3-1.522-2.239-3.158-4.398-4.9-6.47-1.89-2.27-3.76-5-5.46-7.42-1.86-2.43-3.8-4.93-6-7.36-4.28-5-9.35-9.63-14.44-15-5.09-5.37-10.09-11-15.52-15.08l-2.43-1.59-.6-.4-.51-.31-1.27-.77-4.83-3.1c-1.507-.99-3.066-1.898-4.67-2.72l-1.1-.53-1.33-.52c-.775-.28-1.566-.51-2.37-.69-3.41-.74-7-.64-11.45-1.52-3.94-1.07-7.34-2.1-11-3.15-3.66-1.05-7.23-1.79-10.8-2.69l-10.6-2.22c-7-1.29-13.85-2.37-20.36-3.15-6.51-.78-12.68-1.42-18.39-1.81-12.718-.993-25.485-1.21-38.23-.65 0 0 3.81-.53 10.51-1 3.35-.25 7.42-.48 12.1-.6s10-.21 15.73-.05c5.73.16 12 .42 18.61.93 6.61.51 13.56 1.34 20.68 2.38l10.88 1.86c3.64.81 7.34 1.54 11 2.43l5.55 1.44 2.79.73.7.18.25.06z" transform="translate(0 -192) translate(0 -157) translate(0 349)"/>
                    <path fill="#E4B477" fill-rule="nonzero" d="M.475 5.55L.475 5.66 1.535 5.87zM.475 9.84v1c1.2-1.78 1.83-2.78 1.83-2.78L.475 9.84z" transform="translate(0 -192) translate(0 -157) translate(0 349)"/>
                    <path fill="#000" fill-rule="nonzero" d="M114.975 60.12c-1.89-7.28-3.17-10.83-7.26-17.53-1.72-4.89-3.21-8.27-5.66-11.67l-1.82-1.73-.13-.74-.61-.7c-1.26-1.42-2.73-2.92-4.5-4.6-3.639-2.56-7.493-4.798-11.52-6.69l-23.49 10 .48.15c2.085.718 4.098 1.632 6.01 2.73 1.6.93 3.18 1.89 4.69 2.87.91.6 1.36.9 2.22 1.5.86.6 1.43 1.12 2.12 1.69 1.38 1.14 2.72 2.32 3.93 3.53 2.353 2.338 4.409 4.958 6.12 7.8 1.555 2.744 2.834 5.634 3.82 8.63.94 2.72 1.93 5.47 2.79 8.38.887 3.024 1.49 6.124 1.8 9.26.289 3.426.249 6.872-.12 10.29-.63 6.87-1.91 13.63-1.7 19.32.037 2.655.464 5.29 1.27 7.82.8 2.228 1.904 4.334 3.28 6.26 1.4 2 2.92 4 4.46 5.87.49.63.73 1 1.23 1.57.5.57.62.93 1 1.55.7 1 1.47 2.31 2.14 3.32.633 1.006 1.327 1.97 2.08 2.89l.54.66.23.27.32.32 1.32 1.26c1.75 1.66 3.56 3.38 5.38 4.81 1.82 1.43 3.81 2.71 5.65 4 1.83 1.242 3.726 2.384 5.68 3.42 3.79 2 7.39 3.88 10.51 5.15 3.12 1.27 5.76 2.38 7.58 3.09l2.85 1.08s-1-.22-2.85-.65c-1.85-.43-4.55-1.08-7.82-1.91-3.27-.83-7.23-2.2-11.41-3.64-4.519-1.654-8.902-3.656-13.11-5.99-2.202-1.22-4.338-2.556-6.4-4-.52-.36-1-.72-1.55-1.09l-.4-.28-.45-.37c-.31-.27-.46-.4-.76-.68-1.015-.862-1.964-1.798-2.84-2.8-3.18-3.54-6.98-6.7-10.42-10.54-1.89-2.004-3.456-4.292-4.64-6.78-1.154-2.866-1.8-5.912-1.91-9-.42-6.54.81-13.87 1.66-20.6.434-3.187.595-6.406.48-9.62-.177-3.068-.551-6.12-1.12-9.14-.53-3-1.31-6.23-2.06-9.46-.671-3.035-1.615-6.004-2.82-8.87-1.222-2.853-2.797-5.54-4.69-8-1.978-2.568-4.228-4.915-6.71-7-1.31-1.08-2.69-2.17-4.11-3.22-1.21-.863-2.511-1.591-3.88-2.17-1.598-.68-3.242-1.244-4.92-1.69l-34.83 14.93c1.763.623 3.598 1.022 5.46 1.19 2.358.054 4.682.57 6.84 1.52 3.92 1.23 5.8 1.86 9.43 3.17 2.7 1.73 4 2.62 6.35 4.43l2.29 1.94 4.13 3.52c2 1.66 4 3.39 5.61 4.71 4.38 3.6 3.12 4.16 4.34 9 1.22 4.84 2.92 12.14 3.34 17.24.42 5.1 1.7 4.53 1.7 4.53-.15 3.75-.26 5.64-.46 9.4 1 5.36 1.41 8 2.58 13.35l8.56 15c2.47 4.32 6.46 6.67 9.84 10.75s7.45 3.69 11.19 6.32c3.74 2.63 6.62 5.71 13.27 8.7 6.65 2.99 10.05 4.57 14.39 4.11 4.34-.46 8.93 2.17 15.77 2.18 6.84.01 17.39-.07 17.39-.07 9-.09 19.39-2.25 22.38-5.09-4.71-1.12-9.39-2.38-14-3.85-6.45-1.46-9.49-2.23-15.27-3.87-6.957-2.359-13.718-5.261-20.22-8.68-3.91-3.667-7.277-7.873-10-12.49-4.033-4.847-7.44-10.182-10.14-15.88-.204-6.67-.037-13.348.5-20 0 0 1.46-15.1.77-18.76-.369-2.48-.61-4.976-.72-7.48-.32-4.16-.45-8.15-.45-8.15z" transform="translate(0 -192) translate(0 -157) translate(0 349)"/>
                    <path fill="#E4B477" fill-rule="nonzero" d="M59.855 30.26c1.369.579 2.67 1.307 3.88 2.17 1.42 1 2.8 2.14 4.11 3.22 2.482 2.085 4.732 4.432 6.71 7 1.893 2.46 3.468 5.147 4.69 8 1.205 2.866 2.149 5.835 2.82 8.87.75 3.23 1.53 6.42 2.06 9.46.564 2.98.938 5.993 1.12 9.02.111 3.191-.05 6.386-.48 9.55-.85 6.73-2.08 14.06-1.66 20.6.11 3.088.756 6.134 1.91 9 1.177 2.513 2.743 4.825 4.64 6.85 3.44 3.89 7.24 7.07 10.37 10.62.876 1.002 1.825 1.938 2.84 2.8.3.28.45.41.76.68l.45.37.4.28c.51.37 1 .73 1.55 1.09 2.062 1.444 4.198 2.78 6.4 4 4.243 2.311 8.66 4.287 13.21 5.91 4.18 1.44 8.15 2.81 11.41 3.64 3.26.83 6 1.49 7.82 1.91 1.82.42 2.85.65 2.85.65l-2.85-1.08c-1.82-.71-4.46-1.81-7.58-3.09-3.12-1.28-6.72-3.14-10.51-5.15-1.954-1.036-3.85-2.178-5.68-3.42-1.84-1.25-3.86-2.55-5.65-4-1.79-1.45-3.63-3.15-5.38-4.81l-1.32-1.26-.32-.32-.23-.27-.54-.66c-.753-.92-1.447-1.884-2.08-2.89-.67-1-1.44-2.32-2.14-3.32-.43-.62-.64-.93-1-1.55s-.74-.94-1.23-1.57c-1.54-1.9-3.06-3.87-4.46-5.87-1.376-1.926-2.48-4.032-3.28-6.26-.806-2.53-1.233-5.165-1.27-7.82-.21-5.69 1.07-12.45 1.7-19.32.352-3.42.376-6.866.07-10.29-.306-3.122-.902-6.209-1.78-9.22-.86-2.91-1.85-5.66-2.79-8.38-.986-2.996-2.265-5.886-3.82-8.63-1.702-2.855-3.751-5.488-6.1-7.84-1.21-1.21-2.55-2.39-3.93-3.53-.69-.57-1.39-1.13-2.12-1.69-.73-.56-1.31-.9-2.22-1.5-1.51-1-3.09-1.94-4.69-2.87-1.921-1.107-3.944-2.028-6.04-2.75l-.48-.15c-3.587-1.173-7.267-2.04-11-2.59-6.183-.928-12.42-1.46-18.67-1.59 6.877 1.144 13.652 2.836 20.26 5.06 1.44.45 2.92.84 4.38 1.25 1.668.447 3.302 1.012 4.89 1.69zM3.475 39.73c1.26-4.56 2.37-8.73 3.48-12.47 1.11-3.74 2.09-6.92 2.94-9.57.85-2.65 1.58-4.69 2.06-6.1.48-1.41.8-2.15.8-2.15s-1.67 2.71-4.1 7.73c-.6 1.26-1.267 2.653-2 4.18-.66 1.54-1.38 3.22-2.14 5-1.33 3.09-2.63 6.65-4.04 10.42v14.77c1-4.15 2.1-8.08 3-11.81zM139.835 11.89l-2.79-.73-5.57-1.44c-3.7-.89-7.4-1.62-11-2.43l-10.88-1.86c-7.12-1.04-14.12-1.87-20.68-2.43-6.56-.56-12.84-.8-18.61-.91-5.77-.11-11-.1-15.73.05-4.73.15-8.75.35-12.1.6-6.7.5-10.51 1-10.51 1 12.745-.56 25.512-.343 38.23.65 5.71.39 11.89 1 18.39 1.81s13.34 1.86 20.36 3.15l10.63 2.23c3.57.9 7.19 1.72 10.8 2.69 3.61.97 7.06 2.08 11 3.15 4.4.88 8 .78 11.45 1.52.804.18 1.595.41 2.37.69l1.33.52 1.1.53c1.604.822 3.163 1.73 4.67 2.72l4.83 3.1 1.27.77.51.31.6.4 2.38 1.57c5.43 4.1 10.51 9.82 15.52 15.08s10.16 10.07 14.44 15c2.17 2.43 4.11 4.93 6 7.36 1.7 2.4 3.57 5.15 5.46 7.42 1.742 2.072 3.378 4.231 4.9 6.47.68 1 1.23 2.19 1.86 3.3.63 1.11 1.07 2.18 1.6 3.22 2 4.23 3.48 8.14 4.79 11.31s2.27 5.71 3 7.4c.73 1.69 1.11 2.61 1.11 2.61s-.94-3.84-2.57-10.54c-.84-3.36-1.92-7.41-3.51-12-.43-1.14-.87-2.38-1.37-3.55-.5-1.17-1-2.38-1.66-3.67-1.382-2.54-2.932-4.986-4.64-7.32-1.7-2.35-3.11-4.75-4.88-7.62-1.824-2.783-3.804-5.46-5.93-8.02-4.26-5.35-9.32-10.46-14.21-15.67-4.89-5.21-9.77-11.1-16.63-16l-2.41-1.54-.6-.39-.71-.42-1.19-.71-4.89-3c-1.745-1.06-3.552-2.014-5.41-2.86l-1.48-.76-1.37-.47c-1.042-.332-2.104-.6-3.18-.8-4.14-.7-8.22-.51-11.36-.9l-1.4-.28-.35-.07-.23-.06-.75-.18z" transform="translate(0 -192) translate(0 -157) translate(0 349)"/>
                    <path fill="#ECD078" fill-rule="nonzero" d="M100.235 29.19l1.82 1.73c5.8 5.421 10.692 11.738 14.49 18.71 2.18 4.14 4.5 6.52 7.25 10.27 3.37 4.57 4.56 7 10.11 12.91-3.56-5.82-6.2-9.25-8.48-13.45-3-5.51-7.5-11.84-10-17.53 2.72 5.45 9 7.42 13.44 11.29 5.82 5.11 10.25 7.83 19.65 14 0 0 11.57 6.6 18.27 16-3.41-7-14.61-17.42-21.22-21.76-5.727-3.66-11.245-7.636-16.53-11.91-6.46-5.28-16.54-9-21.16-16.3 8.41 2.64 14.89 9.17 22.91 13.26 5.19 2.65 9.42 6.12 14.54 8.67 4.09 2 5.15 3.54 11 8.06-5.76-6.82-12.08-11.42-19.73-16-6.225-3.561-12.25-7.46-18.05-11.68-2.27-1.74-4.8-4-7.45-6.15-3.87-3.16-8-6.12-12-7l1 5.5.11.66.03.72z" transform="translate(0 -192) translate(0 -157) translate(0 349)"/>
                    <path fill="#000" fill-rule="nonzero" d="M30.155 538.63s3.13-3.23 7.62-8.45c6.937-7.994 13.309-16.461 19.07-25.34 2.348-3.66 4.51-7.434 6.48-11.31 2.418-4.657 4.303-9.571 5.62-14.65.476-1.89.81-3.811 1-5.75 0 0-1.35 2.93-3.77 7.09-3.223 5.642-7.006 10.945-11.29 15.83-.89 1-1.82 2-2.78 2.91-2.207 2.19-4.637 4.144-7.25 5.83-.34.21-.67.43-1 .63 0 0 .17-.49.45-1.34.84-2.56 2.81-8.57 5-15.74.87-2.83 1.77-5.83 2.66-8.86 1.93-6.59 3.78-13.33 5-18.79.58-2.471 1.026-4.971 1.34-7.49.113-.973.113-1.957 0-2.93l-.92 1.84c-1.16 2.26-3.29 6.41-5.84 11.17-2.45 4.59-5.29 9.72-8 14.25-1.34 2.24-2.64 4.32-3.86 6.11-1.198 1.89-2.585 3.652-4.14 5.26 0 0 2-8.89 3.19-19.46.21-1.83.4-3.71.54-5.6.51-6.5.56-13.14-.41-18.42-.78-4.25-2.23-7.62-4.67-9.29 1.326 2.717 1.916 5.734 1.71 8.75-.14 2.036-.68 4.024-1.59 5.85 0 0-2.27 3.95-5.2 9.78-1 1.92-2 4-3.06 6.3-1.41 3-2.85 6.29-4.19 9.62-.19.46-.37.92-.55 1.39-3 7.72-5.36 15.64-5.35 21.58-.15-3.22-.51-10.23-1.17-18.44-.34-4.13-.74-8.56-1.24-13-.697-6.97-1.806-13.891-3.32-20.73-.12-.49-.25-1-.37-1.45-.26-1-.52-1.87-.79-2.7 0 0-.56-2.75-1.1-6.79-.33-2.51-.65-5.51-.82-8.66 0 0-1.72 4.25-3.83 10.9-.92 2.87-1.9 6.19-2.86 9.81v97.47l21.57-5.24.84-.21 7.28-1.73zM108.015 495.45c.51 3.62 1.7 7.45 1.58 10.88v.32c-.15 2.53 0 7-.15 11.07 0 1.54-.13 3-.28 4.29-.22 1.91-1.65 5.64-3.25 9.33-1.48 3.43-3.1 6.82-4 8.73-.47 1-.77 1.58-.77 1.58l-1.1 1.35-15.31 19.37-5 6.26 11.67 9.45s18-12.5 18.46-14.15c.46-1.65 5.16-6.8 6.69-9.32 1-1.67 3.42-5.79 4.94-8.38l.5-.86.82-1.4.73-1c.8-1.11 2.15-3 3.43-4.93.74-1.12 1.45-2.24 2-3.24.46-.744.839-1.535 1.13-2.36.79-2.74 7.59-9.65 7.79-13.16.15-2.41.77-7.77 1.35-11.61.17-1.299.41-2.587.72-3.86.63-2.2.21-11.86-1.47-17.12-1.68-5.26-1.41-11.76-2.41-13.84-1-2.08-2.52-7.9-4.09-10.76-1.57-2.86-2.37-8.45-3.94-11.3-1.57-2.85-2.89-12.19-2.89-12.19l5.5-24.6-13.72 14.4s-8 11.15-8.22 20.19c-.06 2.9-3.32 11.51-4.11 14.26-.79 2.75 1.31 17.67 1.31 17.67l.7 5c.49 3.48 1.1 7.85 1.39 9.93zm8.24 54.45c-.723 1.929-1.702 3.752-2.91 5.42l-3.28 4.43-.17.2-1 .18c-1.26.23-2.5.41-3.75.59l2.17-3.15 2.82-4.46c.914-1.498 1.64-3.104 2.16-4.78.33-.91.65-1.86 1.05-2.85s.89-2.05 1.32-2.91c1-2 2-3.67 2.89-5.42.847-1.78 1.517-3.639 2-5.55.633-1.908 1.112-3.865 1.43-5.85.24-1.97.293-3.96.16-5.94-.315-4.1-1.062-8.157-2.23-12.1l-.19-.68-.25-.76c-.17-.44-.29-.74-.52-1.23-.4-.91-.88-1.87-1.3-2.94-.483-1.108-.82-2.275-1-3.47-.169-1.112-.252-2.235-.25-3.36 0-2.15.13-4.09 0-5.92 0-1-.09-1.94-.13-2.9.015-1.043.086-2.084.21-3.12.24-1.95.64-3.73.91-5.41.261-1.607.405-3.232.43-4.86.16-6.43.18-11.95.76-15.75.201-1.474.509-2.93.92-4.36l.49-1.48-.26 1.54c-.184 1.446-.274 2.902-.27 4.36 0 1.88.09 4.16.28 6.78.19 2.62.49 5.58.67 8.87.124 1.751.124 3.509 0 5.26-.15 1.81-.37 3.6-.48 5.37-.07.9 0 1.71 0 2.52s.19 1.91.3 2.88c.2 2.08.17 4.14.3 6.05.043.92.15 1.835.32 2.74.146.853.412 1.681.79 2.46.37.85.85 1.74 1.34 2.73.23.45.52 1.12.74 1.66l.28.74.27.84c1.454 4.256 2.374 8.677 2.74 13.16.2 2.332.156 4.678-.13 7-.38 2.253-.946 4.47-1.69 6.63-.34 1-.57 1.92-1 3.11-.384 1.098-.852 2.164-1.4 3.19-1 2-2.21 3.75-3.11 5.35-.95 1.661-1.762 3.397-2.43 5.19z" transform="translate(0 -192) translate(0 -157) translate(0 349)"/>
                    <path fill="#E4B477" fill-rule="nonzero" d="M121.775 539.38c.548-1.026 1.016-2.092 1.4-3.19.43-1.19.66-2.09 1-3.11.744-2.16 1.31-4.377 1.69-6.63.286-2.322.33-4.668.13-7-.366-4.483-1.286-8.904-2.74-13.16l-.27-.84-.28-.74c-.22-.54-.51-1.21-.74-1.66-.49-1-1-1.88-1.34-2.73-.378-.779-.644-1.607-.79-2.46-.17-.905-.277-1.82-.32-2.74-.13-1.91-.1-4-.3-6.05-.113-.973-.213-1.933-.3-2.88v-2.52c.11-1.77.33-3.56.48-5.37.124-1.751.124-3.509 0-5.26-.18-3.29-.5-6.24-.67-8.87-.17-2.63-.31-4.9-.28-6.78-.004-1.458.086-2.914.27-4.36l.26-1.54-.49 1.48c-.411 1.43-.719 2.886-.92 4.36-.58 3.8-.6 9.32-.76 15.75-.025 1.628-.169 3.253-.43 4.86-.27 1.68-.67 3.46-.91 5.41-.124 1.036-.195 2.077-.21 3.12 0 1 .09 1.92.13 2.9.09 1.83 0 3.77 0 5.92-.002 1.125.081 2.248.25 3.36.18 1.195.517 2.362 1 3.47.42 1.07.9 2 1.3 2.94.23.49.35.79.52 1.23l.25.76.19.68c1.168 3.943 1.915 8 2.23 12.1.133 1.98.08 3.97-.16 5.94-.318 1.985-.797 3.942-1.43 5.85-.483 1.911-1.153 3.77-2 5.55-.87 1.75-1.87 3.46-2.89 5.42-.43.86-1 1.93-1.32 2.91-.32.98-.72 1.94-1.05 2.85-.52 1.676-1.246 3.282-2.16 4.78l-2.82 4.46-2.17 3.15c1.25-.18 2.49-.36 3.75-.59l1-.18.17-.2 3.28-4.43c1.208-1.668 2.187-3.491 2.91-5.42.663-1.785 1.469-3.514 2.41-5.17.92-1.62 2.11-3.39 3.13-5.37z" transform="translate(0 -192) translate(0 -157) translate(0 349)"/>
                </g>
            </g>
        </g>
    </g>
</svg>
