<?xml version="1.0" standalone="no"?>
<!DOCTYPE svg PUBLIC "-//W3C//DTD SVG 1.1//EN" "http://www.w3.org/Graphics/SVG/1.1/DTD/svg11.dtd" >
<svg xmlns="http://www.w3.org/2000/svg" xmlns:xlink="http://www.w3.org/1999/xlink" version="1.1">
<metadata>
Created by FontForge 20190801 at Mon Jun 23 11:10:30 2014
 By www-data
Modesto. (c) Copyright, 2000. Parkinson Type Design.
</metadata>
<defs>
<font id="ParkinsonModestoExpandedRegular" horiz-adv-x="730" >
  <font-face 
    font-family="ParkinsonModestoExpandedRegular"
    font-weight="400"
    font-stretch="normal"
    units-per-em="1000"
    panose-1="2 0 5 5 5 0 0 2 0 4"
    ascent="808"
    descent="-192"
    x-height="559"
    cap-height="700"
    bbox="-28 -166 1579 851"
    underline-thickness="20"
    underline-position="-133"
    unicode-range="U+0020-FB02"
  />
<missing-glyph horiz-adv-x="280" 
 />
    <glyph glyph-name=".notdef" horiz-adv-x="280" 
 />
    <glyph glyph-name=".null" horiz-adv-x="0" 
 />
    <glyph glyph-name="nonmarkingreturn" horiz-adv-x="333" 
 />
    <glyph glyph-name="NUL" horiz-adv-x="0" 
 />
    <glyph glyph-name="NUL" horiz-adv-x="0" 
 />
    <glyph glyph-name="space" unicode=" " horiz-adv-x="280" 
 />
    <glyph glyph-name="exclam" unicode="!" horiz-adv-x="341" 
d="M301 674q-20 0 -24 -25l-51 -389h-112l-49 389q-4 25 -25 25v26h261v-26zM269 81q0 -42 -28 -66t-69 -24t-69 24t-28 66q0 40 28.5 65.5t68.5 25.5t68.5 -25.5t28.5 -65.5z" />
    <glyph glyph-name="quotedbl" unicode="&#x22;" horiz-adv-x="373" 
d="M323 714l-20 -240h-78l-22 240h120zM169 714l-20 -240h-79l-20 240h119z" />
    <glyph glyph-name="numbersign" unicode="#" horiz-adv-x="789" 
d="M730 487l-33 -91h-104l-34 -100h108l-29 -90h-107l-61 -183h-138l61 183h-95l-60 -183h-132l60 183h-107l34 90h103l32 100h-111l32 91h110l63 188h130l-63 -188h96l63 188h138l-62 -188h106zM455 396h-95l-32 -100h93z" />
    <glyph glyph-name="dollar" unicode="$" horiz-adv-x="807" 
d="M707 269q0 -174 -256 -194v-100h-101v98q-34 2 -69.5 7t-58 9t-26.5 4q-20 0 -37 -7l-51 189l35 10q17 -31 35.5 -46.5t60.5 -25.5t113 -10q148 0 148 46q0 13 -16 20.5t-62 16.5q-132 26 -152 30q-75 14 -122.5 53t-47.5 106q0 161 250 180v90h101v-88q32 -1 60.5 -4
t44 -5.5t19.5 -2.5q27 0 39 6l45 -172l-33 -10q-15 22 -30.5 34t-56 20.5t-109.5 8.5q-124 0 -124 -35q0 -15 16 -22.5t64 -17.5q115 -23 159 -32q162 -32 162 -156z" />
    <glyph glyph-name="percent" unicode="%" horiz-adv-x="1120" 
d="M1080 177q0 -79 -70 -132t-164 -53q-93 0 -164 53t-71 132t71 133t164 54t163.5 -54t70.5 -133zM904 711l-530 -719h-162l528 719h164zM508 524q0 -79 -70.5 -132.5t-163.5 -53.5t-163.5 53.5t-70.5 132.5t70.5 132.5t163.5 53.5t163.5 -53.5t70.5 -132.5zM925 177
q0 32 -21.5 55.5t-57.5 23.5t-57 -23.5t-21 -55.5t21 -55.5t57 -23.5t57.5 23.5t21.5 55.5zM354 524q0 32 -22 55.5t-58 23.5t-57.5 -23.5t-21.5 -55.5t21.5 -55.5t57.5 -23.5t58 23.5t22 55.5z" />
    <glyph glyph-name="ampersand" unicode="&#x26;" horiz-adv-x="933" 
d="M888 302q0 -33 -19 -68l-17 2q-2 34 -35 34q-25 0 -47.5 -14t-36 -29t-33.5 -43l82 -117q30 -43 72 -43v-24h-258l-35 53q-100 -79 -235 -79q-140 0 -215.5 64.5t-75.5 182.5q0 48 21.5 91t58 76t76 57.5t84.5 43.5l-126 190l12 21h476q18 0 42 6l61 -183l-26 -8
q-20 40 -65 40h-192l142 -219q73 100 147 100q142 0 142 -134zM473 189l-116 175q-49 -13 -80 -46.5t-31 -78.5q0 -43 31 -70.5t76 -27.5q43 0 67 11t53 37z" />
    <glyph glyph-name="quotesingle" unicode="'" horiz-adv-x="219" 
d="M169 714l-20 -240h-79l-20 240h119z" />
    <glyph glyph-name="parenleft" unicode="(" horiz-adv-x="510" 
d="M460 -61q-157 22 -258.5 128t-101.5 283q0 95 30 171t82 124.5t114 77t134 39.5v-62q-81 -42 -121 -125.5t-40 -224.5t38.5 -222t122.5 -128v-61z" />
    <glyph glyph-name="parenright" unicode=")" horiz-adv-x="511" 
d="M411 350q0 -177 -102 -282.5t-259 -128.5v61q84 47 123 128t39 222q0 140 -40.5 223.5t-121.5 126.5v62q72 -11 134 -39.5t114 -77t82.5 -124.5t30.5 -171z" />
    <glyph glyph-name="asterisk" unicode="*" horiz-adv-x="428" 
d="M368 554l-97 -7v-1l71 -70l-85 -62l-42 92h-1l-41 -92l-87 61l70 71v1l-96 11l30 102l87 -48v1l-14 94h106l-20 -94l1 -1l91 48z" />
    <glyph glyph-name="plus" unicode="+" horiz-adv-x="618" 
d="M558 284h-184v-184h-130v184h-184v129h184v184h130v-184h184v-129z" />
    <glyph glyph-name="comma" unicode="," horiz-adv-x="273" 
d="M233 54q0 -63 -44 -109.5t-117 -71.5l-30 51q56 20 79 64q-81 11 -81 88q0 38 28 62t67 24q48 0 73 -29t25 -79z" />
    <glyph glyph-name="hyphen" unicode="-" horiz-adv-x="411" 
d="M351 250h-291v135h291v-135z" />
    <glyph glyph-name="period" unicode="." horiz-adv-x="273" 
d="M233 75q0 -42 -27 -66t-68 -24t-69.5 24t-28.5 66q0 40 29 66t69 26t67.5 -26t27.5 -66z" />
    <glyph glyph-name="slash" unicode="/" horiz-adv-x="415" 
d="M400 762l-243 -822h-142l242 822h143z" />
    <glyph glyph-name="zero" unicode="0" horiz-adv-x="790" 
d="M763 349q0 -156 -99.5 -260t-268.5 -104q-165 0 -266.5 103t-101.5 261t101.5 261t266.5 103t266.5 -103t101.5 -261zM561 349q0 91 -41 150t-125 59t-124.5 -58t-40.5 -151t40.5 -150.5t124.5 -57.5t125 58t41 150z" />
    <glyph glyph-name="one" unicode="1" horiz-adv-x="498" 
d="M427 0h-296v23q50 0 50 59v405q-22 -9 -67.5 -18t-76.5 -10v123q19 2 45 8.5t58 19.5t58 36.5t36 53.5h152q-9 -28 -9 -57v-561q0 -59 50 -59v-23z" />
    <glyph glyph-name="two" unicode="2" horiz-adv-x="720" 
d="M684 197l-45 -205q-19 8 -68 8h-537q0 118 81.5 220.5t197.5 157.5q86 40 115.5 65.5t29.5 56.5q0 71 -126 71q-185 0 -248 -90l-25 8l49 216q17 -4 43 -4q13 0 77.5 7.5t132.5 7.5q305 0 305 -210q0 -139 -183 -220q-62 -27 -93 -42.5t-61.5 -40.5t-41.5 -52h296
q51 0 76 54z" />
    <glyph glyph-name="three" unicode="3" horiz-adv-x="699" 
d="M675 212q0 -102 -89 -165t-234 -63q-73 0 -152.5 9t-81.5 9q-26 0 -36 -4l-60 227l27 8q28 -59 93 -81.5t163 -22.5q72 0 116.5 22.5t44.5 66.5q0 87 -136 87h-45v126h52q40 0 66.5 18.5t26.5 52.5q0 36 -30.5 52.5t-100.5 16.5q-105 0 -150.5 -18t-75.5 -59l-24 9
l52 210q18 -5 44 -5q15 0 71 4t105 4q314 0 314 -182q0 -58 -30.5 -91.5t-92.5 -51.5v-3q72 -11 117.5 -60t45.5 -116z" />
    <glyph glyph-name="four" unicode="4" horiz-adv-x="784" 
d="M766 271l-35 -148h-105v-39q0 -60 50 -60v-24h-292v24q28 0 38.5 14.5t10.5 45.5v39h-401v104l321 473h283q-10 -37 -10 -59v-384h48q19 0 42 3.5t36 7.5zM433 257v312l-194 -312h194z" />
    <glyph glyph-name="five" unicode="5" horiz-adv-x="686" 
d="M664 241q0 -117 -91.5 -187t-237.5 -70q-63 0 -137 10.5t-78 10.5q-25 0 -37 -4l-51 203l28 9q42 -85 240 -85q75 0 117.5 29t42.5 74q0 44 -35 65t-119 21q-115 0 -172 -47l-101 43l82 387h398q34 0 62 10l48 -206l-23 -8q-24 53 -96 53h-253l-28 -110q70 19 141 19
q128 0 214 -56t86 -161z" />
    <glyph glyph-name="six" unicode="6" horiz-adv-x="733" 
d="M711 238q0 -113 -88.5 -183t-240.5 -70q-161 0 -258 92.5t-97 262.5q0 181 109 278.5t274 97.5q58 0 109 -7.5t52 -7.5q21 0 38 5l47 -191l-23 -8q-24 36 -70 50.5t-154 14.5q-81 0 -128.5 -40.5t-52.5 -112.5q99 42 196 42q132 0 209.5 -58.5t77.5 -164.5zM520 223
q0 44 -39 70t-103 26q-80 0 -146 -32q2 -75 40.5 -115.5t112.5 -40.5q135 0 135 92z" />
    <glyph glyph-name="seven" unicode="7" horiz-adv-x="706" 
d="M696 637q-132 -128 -218.5 -286.5t-86.5 -298.5q0 -28 37 -28v-24h-259q24 183 80 313t176 236h-310q-48 0 -72 -52l-26 7l48 207q31 -11 57 -11h542z" />
    <glyph glyph-name="eight" unicode="8" horiz-adv-x="771" 
d="M747 196q0 -90 -89 -151t-271 -61q-184 0 -273.5 60.5t-89.5 151.5q0 75 42 114.5t118 64.5v2q-119 41 -119 160q0 78 84.5 128.5t237.5 50.5t236 -48.5t83 -129.5q0 -119 -119 -162v-1q160 -45 160 -179zM509 497q0 28 -31.5 49.5t-90.5 21.5q-63 0 -94 -20.5t-31 -51.5
q0 -30 30 -50.5t95 -20.5q62 0 92 20t30 52zM543 211q0 33 -40.5 58t-115.5 25q-81 0 -119.5 -24.5t-38.5 -60.5q0 -81 158 -81q156 0 156 83z" />
    <glyph glyph-name="nine" unicode="9" horiz-adv-x="733" 
d="M706 361q0 -178 -103.5 -276.5t-278.5 -98.5q-48 0 -103.5 7t-57.5 7q-22 0 -39 -5l-50 201l23 8q22 -40 70.5 -57t146.5 -17q84 0 135 42t56 113q-92 -45 -195 -45q-132 0 -210 62.5t-78 169.5t91 175.5t237 68.5q178 0 267 -91.5t89 -263.5zM502 414q-2 75 -40.5 116.5
t-112.5 41.5q-65 0 -101.5 -23.5t-36.5 -67.5q0 -49 38 -74.5t106 -25.5q79 0 147 33z" />
    <glyph glyph-name="colon" unicode=":" horiz-adv-x="273" 
d="M233 350q0 -42 -27 -66.5t-68 -24.5t-69.5 24.5t-28.5 66.5q0 40 29 65.5t69 25.5t67.5 -25.5t27.5 -65.5zM233 75q0 -42 -27 -66t-68 -24t-69.5 24t-28.5 66q0 40 29 66t69 26t67.5 -26t27.5 -66z" />
    <glyph glyph-name="semicolon" unicode=";" horiz-adv-x="273" 
d="M233 350q0 -42 -27 -66.5t-68 -24.5t-69.5 24.5t-28.5 66.5q0 40 29 65.5t69 25.5t67.5 -25.5t27.5 -65.5zM233 54q0 -63 -44 -109.5t-117 -71.5l-30 51q56 20 79 64q-81 11 -81 88q0 38 28 62t67 24q48 0 73 -29t25 -79z" />
    <glyph glyph-name="less" unicode="&#x3c;" horiz-adv-x="565" 
d="M505 107l-445 199v87l445 199v-144l-246 -99l246 -97v-145z" />
    <glyph glyph-name="equal" unicode="=" horiz-adv-x="532" 
d="M472 376h-412v130h412v-130zM472 194h-412v128h412v-128z" />
    <glyph glyph-name="greater" unicode="&#x3e;" horiz-adv-x="565" 
d="M505 306l-445 -199v145l246 97l-246 99v144l445 -199v-87z" />
    <glyph glyph-name="question" unicode="?" horiz-adv-x="568" 
d="M528 535q0 -56 -33.5 -92.5t-92.5 -70.5q-75 -44 -92 -63q-15 -18 -15 -36q0 -20 29 -20v-23h-163q-6 18 -6 36q0 76 70 125q60 43 84 68t24 49q0 64 -97 64q-57 0 -101.5 -21.5t-63.5 -50.5l-31 8l46 202q14 -5 45 -5q5 0 51.5 5.5t97.5 5.5q117 0 182.5 -48t65.5 -133z
M335 82q0 -42 -27.5 -66t-68.5 -24t-69 24t-28 66q0 40 28.5 65.5t68.5 25.5t68 -25t28 -66z" />
    <glyph glyph-name="at" unicode="@" horiz-adv-x="1164" 
d="M1084 323q0 -112 -69.5 -186t-194.5 -74q-115 0 -160 45q-46 -42 -113 -42q-71 0 -107 34t-36 92q0 62 55 102.5t161 71.5v5q0 25 -15 37t-51 12q-68 0 -87 -52l-30 7l27 145q20 -8 37 -8q2 0 41.5 5t59.5 5q89 0 131.5 -40t42.5 -110v-182q0 -35 51 -35q123 0 123 166
q0 130 -92.5 204t-259.5 74q-165 0 -269 -85.5t-104 -216.5q0 -143 101.5 -223t271.5 -80q104 0 196 42q39 -76 56 -104q-122 -48 -252 -48q-234 0 -376 113.5t-142 299.5q0 112 68 206t187 149t263 55q219 0 352.5 -107t133.5 -277zM620 204v70q-34 -12 -48.5 -27.5
t-14.5 -40.5q0 -16 9 -26.5t22 -10.5q14 0 23 11t9 24z" />
    <glyph glyph-name="A" unicode="A" horiz-adv-x="871" 
d="M860 0h-309v26q42 0 42 26q0 13 -7 28l-5 10q-82 -20 -144 -20q-66 0 -150 20l-4 -13q-5 -20 -5 -29q0 -22 37 -22v-26h-304v26q24 0 35.5 10.5t23.5 40.5l219 532q12 27 12 38q0 27 -27 27v26h330v-26q-29 0 -29 -27q0 -11 11 -39l217 -532q13 -30 24.5 -40t32.5 -10
v-26zM523 235l-101 266h-2l-92 -267q46 -16 97 -16q56 0 98 17z" />
    <glyph glyph-name="B" unicode="B" horiz-adv-x="801" 
d="M769 212q0 -222 -382 -222q-225 0 -350 10v26q30 0 42.5 13t12.5 48v520q0 38 -12.5 52.5t-42.5 14.5v26q142 12 333 12q54 0 89.5 -1.5t84.5 -7t81 -17.5t62.5 -32t45.5 -52.5t15 -75.5q0 -96 -120 -141v-2q62 -19 101.5 -61t39.5 -110zM534 489q0 37 -32.5 53.5
t-98.5 16.5q-69 0 -102 -4v-133q25 -2 103 -2q130 0 130 69zM556 219q0 41 -34 59t-118 18q-37 0 -103 -3v-151q44 -3 102 -3q153 0 153 80z" />
    <glyph glyph-name="C" unicode="C" horiz-adv-x="768" 
d="M736 217l-54 -223q-16 7 -33 7q-4 0 -33.5 -5t-77.5 -10t-96 -5q-180 0 -295 104t-115 266q0 158 116.5 263t293.5 105q70 0 137.5 -10.5t70.5 -10.5q19 0 33 7l53 -223l-23 -9q-22 48 -73 71t-142 23q-103 0 -177 -58.5t-74 -159.5q0 -99 69 -157.5t182 -58.5
q93 0 143 21.5t72 70.5z" />
    <glyph glyph-name="D" unicode="D" horiz-adv-x="898" 
d="M866 351q0 -168 -108.5 -267t-334.5 -99q-191 0 -386 15v26q28 0 41.5 13.5t13.5 44.5v523q0 37 -13 52t-42 15v26q205 16 377 16q207 0 329.5 -100t122.5 -265zM651 352q0 104 -65.5 154t-174.5 50q-66 0 -110 -4v-405q40 -4 120 -4q105 0 167.5 53.5t62.5 155.5z" />
    <glyph glyph-name="E" unicode="E" horiz-adv-x="786" 
d="M758 204l-45 -214q-27 10 -57 10h-619v26q30 0 42.5 13.5t12.5 46.5v528q0 60 -55 60v26h613q38 0 60 8l45 -210l-25 -9q-25 53 -81 53h-348v-110h254q32 0 45.5 10t13.5 32h25v-240h-25q0 22 -13.5 32t-45.5 10h-254v-119h346q59 0 85 56z" />
    <glyph glyph-name="F" unicode="F" horiz-adv-x="769" 
d="M753 499l-23 -9q-25 52 -78 52h-351v-147h285q33 0 46 10t13 32h26v-242h-26q0 24 -12.5 33.5t-46.5 9.5h-285v-153q0 -33 12.5 -46t42.5 -13v-26h-319v26q30 0 42.5 13t12.5 46v529q0 34 -12.5 47t-42.5 13v26h614q34 0 56 10z" />
    <glyph glyph-name="G" unicode="G" horiz-adv-x="884" 
d="M866 321q-28 0 -41.5 -14.5t-13.5 -46.5v-124q0 -27 11 -45q-8 -4 -31.5 -16t-49.5 -24t-52 -22q-116 -46 -227 -46q-189 0 -309.5 104t-120.5 268q0 108 59.5 192.5t156.5 128.5t212 44q43 0 88 -5.5t74 -11t33 -5.5q28 0 43 7l55 -224l-23 -7q-26 50 -76.5 72
t-168.5 22q-39 0 -79.5 -13t-76.5 -37.5t-59 -66.5t-23 -94q0 -98 67.5 -155t156.5 -57q87 0 137 26v89q0 61 -55 61v26h313v-26z" />
    <glyph glyph-name="H" unicode="H" horiz-adv-x="923" 
d="M886 0h-318v26q55 0 55 59v181h-320v-181q0 -59 55 -59v-26h-320v26q55 0 55 59v529q0 60 -56 60v26h321v-26q-55 0 -55 -60v-178h320v178q0 60 -55 60v26h318v-26q-25 0 -40 -15.5t-15 -44.5v-529q0 -59 55 -59v-26z" />
    <glyph glyph-name="I" unicode="I" horiz-adv-x="393" 
d="M356 0h-319v26q55 0 55 59v529q0 60 -55 60v26h319v-26q-55 0 -55 -60v-529q0 -59 55 -59v-26z" />
    <glyph glyph-name="J" unicode="J" horiz-adv-x="691" 
d="M657 675q-28 0 -41.5 -13.5t-13.5 -47.5v-384q0 -79 11 -100q-149 -147 -322 -147q-170 0 -285 115q24 29 126 169l23 -13q-6 -12 -6 -21q0 -39 36 -67.5t97 -28.5q46 0 79 21.5t33 69.5v386q0 36 -12 48t-43 12v26l318 1v-26z" />
    <glyph glyph-name="K" unicode="K" horiz-adv-x="880" 
d="M864 0h-288q-102 164 -157 308l-118 -101v-121q0 -34 13.5 -47t41.5 -13v-26h-319v26q29 0 42 13.5t13 46.5v528q0 34 -12 47t-43 13v26h319v-26q-30 0 -42.5 -13.5t-12.5 -46.5v-200h6l200 198q19 19 19 35q0 12 -7.5 20t-22.5 8v25h361v-25q-39 0 -80 -41l-193 -189
q22 -62 89.5 -184.5t113.5 -186.5q34 -48 77 -48v-26z" />
    <glyph glyph-name="L" unicode="L" horiz-adv-x="734" 
d="M718 202l-46 -211q-24 9 -57 9h-578v26q55 0 55 60v528q0 60 -55 60v26h319v-26q-55 0 -55 -60v-457h318q47 0 73 56z" />
    <glyph glyph-name="M" unicode="M" horiz-adv-x="1066" 
d="M1029 0h-319v26q32 0 43.5 12t11.5 47v309h-1l-196 -318h-75l-214 314h-3v-305q0 -32 12.5 -45.5t42.5 -13.5v-26h-294v26q31 0 43 12.5t12 46.5v530q0 34 -11 46.5t-44 12.5v26h278q2 -23 18 -48l204 -317h2l189 317q18 30 19 48h282v-26q-30 0 -43 -13t-13 -46v-530
q0 -33 12.5 -46t43.5 -13v-26z" />
    <glyph glyph-name="N" unicode="N" horiz-adv-x="891" 
d="M854 674q-29 0 -42 -13.5t-13 -46.5v-614h-177q-3 30 -30 60l-318 356v-330q0 -60 55 -60v-26h-291v26q54 0 54 60v528q0 32 -12.5 46t-42.5 14v26h261q2 -27 22 -50l295 -327v291q0 34 -12.5 47t-42.5 13v26h294v-26z" />
    <glyph glyph-name="O" unicode="O" horiz-adv-x="915" 
d="M883 346q0 -87 -36.5 -158.5t-97.5 -116t-136.5 -68.5t-156.5 -24q-109 0 -204 40.5t-157.5 126t-62.5 200.5q0 111 63 199t159 133t204 45t204 -43.5t158.5 -131.5t62.5 -202zM669 344q0 69 -34 119t-81 71.5t-97 21.5q-83 0 -146.5 -56.5t-63.5 -153.5
q0 -93 65.5 -148.5t143.5 -55.5q81 0 147 52.5t66 149.5z" />
    <glyph glyph-name="P" unicode="P" horiz-adv-x="809" 
d="M777 462q0 -120 -98.5 -184.5t-275.5 -64.5q-70 0 -102 4v-128q0 -34 13 -48.5t42 -14.5v-26h-319v26q28 0 41.5 14t13.5 47v527q0 60 -55 60v26q192 12 337 12q203 0 303 -59.5t100 -190.5zM569 455q0 31 -16 51t-45.5 29t-56.5 12t-63 3q-39 0 -87 -3v-186q36 -4 90 -4
q178 0 178 98z" />
    <glyph glyph-name="Q" unicode="Q" horiz-adv-x="915" 
d="M883 343q0 -84 -38.5 -155t-107.5 -116q22 -46 57 -46q20 0 37.5 10.5t25.5 26.5l18 -7q-6 -69 -41 -111.5t-100 -42.5q-33 0 -58.5 9t-42.5 26t-25.5 30t-19.5 34q-71 -20 -134 -20q-178 0 -300 101t-122 258q0 86 36 159t95.5 121t135 74.5t155.5 26.5
q186 0 307.5 -108.5t121.5 -269.5zM669 345q0 71 -35.5 120.5t-83.5 69.5t-102 20q-78 0 -139.5 -56.5t-61.5 -152.5q0 -89 64 -145.5t140 -56.5q47 0 71 11q-13 44 -44 79.5t-69 35.5q-15 0 -25 -6l-11 15q49 67 113 67q105 0 158 -100q10 14 17.5 42.5t7.5 56.5z" />
    <glyph glyph-name="R" unicode="R" horiz-adv-x="800" 
d="M777 0h-265q-63 77 -109 217l-102 2v-134q0 -33 13 -46t42 -13v-26h-319v26q31 0 43 12.5t12 46.5v533q0 30 -11.5 43t-43.5 13v26q215 11 335 11q405 0 405 -246q0 -76 -46.5 -130t-132.5 -81q33 -78 124 -197q9 -11 14.5 -16t16 -10t24.5 -5v-26zM564 455
q0 54 -42.5 74t-135.5 20q-16 0 -85 -3v-185q25 -3 88 -3q86 0 130.5 22.5t44.5 74.5z" />
    <glyph glyph-name="S" unicode="S" horiz-adv-x="749" 
d="M718 227q0 -246 -372 -246q-46 0 -95.5 6.5t-81.5 13.5t-36 7q-21 0 -36 -4l-59 243l28 8q22 -56 101 -89.5t183 -33.5q76 0 110 18.5t34 45.5q0 21 -22.5 35.5t-74.5 26.5q-7 2 -166 39q-190 44 -190 199q0 107 97.5 166t266.5 59q48 0 89.5 -5t64.5 -10t27 -5
q26 0 41 5l54 -225l-26 -7q-27 45 -93 74t-142 29q-157 0 -157 -58q0 -20 24 -33t76 -25q32 -8 88.5 -21t83.5 -20q89 -22 136 -73t47 -120z" />
    <glyph glyph-name="T" unicode="T" horiz-adv-x="837" 
d="M819 498l-26 -10q-24 54 -82 54h-188v-457q0 -59 55 -59v-26h-319v26q29 0 42 14t13 45v457h-186q-58 0 -83 -55l-27 11l45 212q27 -10 61 -10h590q33 0 60 10z" />
    <glyph glyph-name="U" unicode="U" horiz-adv-x="896" 
d="M862 675q-55 0 -55 -60v-390q0 -52 10 -72q-150 -171 -364 -171q-222 0 -375 171q11 21 11 72v389q0 30 -15.5 45t-39.5 15v26h319v-26q-29 0 -42 -14t-13 -46v-357q0 -50 46.5 -81.5t108.5 -31.5q68 0 119 30t51 85v356q0 60 -55 60v25h294v-25z" />
    <glyph glyph-name="V" unicode="V" horiz-adv-x="862" 
d="M851 674q-21 0 -33.5 -12t-23.5 -37l-214 -522q-17 -42 -17 -51q0 -26 25 -26v-26h-320v26q27 0 27 28q0 9 -15 47l-211 521q-12 29 -25 40.5t-33 11.5v26h312v-26q-42 0 -42 -34q0 -14 5 -27l157 -423h2l144 424q6 20 6 28q0 32 -35 32v26h291v-26z" />
    <glyph glyph-name="W" unicode="W" horiz-adv-x="1196" 
d="M1185 674q-22 0 -33.5 -10t-21.5 -39l-184 -540q-9 -27 -9 -36q0 -10 7 -16.5t18 -6.5v-26h-307v26q31 0 31 29q0 14 -8 35l-79 204h-4l-71 -201q-10 -29 -10 -43q0 -24 26 -24v-26h-313v26q26 0 26 25q0 12 -9 39l-178 532q-18 52 -55 52v26h310v-26q-42 0 -42 -30
q0 -7 9 -41l111 -382h3l147 376h114l141 -374h4l119 392q5 17 5 28q0 31 -36 31v26h289v-26z" />
    <glyph glyph-name="X" unicode="X" horiz-adv-x="857" 
d="M840 0h-354v26q38 0 38 30q0 16 -22 46l-83 110h-2l-95 -125q-14 -19 -14 -34q0 -27 33 -27v-26h-324v26q41 0 81 51l214 266l-215 284q-36 47 -80 47v26h357v-26q-36 0 -36 -29q0 -13 11 -29l91 -126h2l97 126q12 15 12 28q0 30 -37 30v26h325v-26q-40 0 -78 -47
l-214 -266l217 -284q38 -51 76 -51v-26z" />
    <glyph glyph-name="Y" unicode="Y" horiz-adv-x="932" 
d="M921 674q-41 0 -73 -48l-279 -421v-120q0 -32 12 -45.5t43 -13.5v-26h-319v26q31 0 43.5 13t12.5 46v122l-280 416q-20 29 -34.5 40t-35.5 11v26h356v-26q-41 0 -41 -30q0 -12 10 -29l141 -247h2l136 244q13 23 13 36q0 26 -41 26v26h334v-26z" />
    <glyph glyph-name="Z" unicode="Z" horiz-adv-x="800" 
d="M768 207l-46 -216q-27 9 -61 9h-590l-39 70l391 469l-1 3h-288q-49 0 -73 -52l-23 6l45 214q28 -10 63 -10h582l34 -63l-391 -477v-3h300q24 0 44 16t30 39z" />
    <glyph glyph-name="bracketleft" unicode="[" horiz-adv-x="438" 
d="M388 -61h-288v823h287v-62h-120v-700h121v-61z" />
    <glyph glyph-name="backslash" unicode="\" horiz-adv-x="415" 
d="M400 -60h-143l-242 822h143z" />
    <glyph glyph-name="bracketright" unicode="]" horiz-adv-x="438" 
d="M338 -61h-288v61h121v700h-119v62h286v-823z" />
    <glyph glyph-name="asciicircum" unicode="^" horiz-adv-x="514" 
d="M504 280h-140l-109 264h-3l-106 -264h-136l187 420h117z" />
    <glyph glyph-name="underscore" unicode="_" horiz-adv-x="800" 
d="M802 -148h-804v35h804v-35z" />
    <glyph glyph-name="grave" unicode="`" 
d="M474 624h-94l-130 86h139z" />
    <glyph glyph-name="a" unicode="a" horiz-adv-x="701" 
d="M697 0h-255v24q30 0 30 19q0 2 -2 7t-3 8l-4 11q-60 -15 -112 -15q-51 0 -115 15l-4 -13q-4 -14 -4 -16q0 -16 31 -16v-24h-255v24q16 0 24 7t18 29l188 434q7 15 7 22q0 19 -20 19v24h263v-24q-22 0 -22 -17q0 -11 7 -26l187 -433q9 -22 17.5 -28.5t23.5 -6.5v-24z
M410 194l-70 181h-1q-43 -121 -66 -181q31 -11 68 -11q38 0 69 11z" />
    <glyph glyph-name="b" unicode="b" horiz-adv-x="628" 
d="M612 171q0 -179 -309 -179q-171 0 -279 8v24q22 0 30.5 8.5t8.5 31.5v425q0 46 -39 46v24q116 10 265 10q38 0 60.5 -0.5t58.5 -3.5t58.5 -8.5t49.5 -16.5t42 -27t25.5 -40t10.5 -55q0 -39 -24.5 -68.5t-59.5 -42.5v-1q43 -13 72.5 -47.5t29.5 -87.5zM409 389
q0 43 -93 43q-31 0 -71 -2v-87q40 -2 71 -2q93 0 93 48zM427 178q0 53 -111 53q-3 0 -71 -4v-96q38 -4 71 -4q111 0 111 51z" />
    <glyph glyph-name="c" unicode="c" horiz-adv-x="616" 
d="M596 176l-48 -190q-15 9 -31 9q-3 0 -27.5 -3t-62.5 -6t-76 -3q-147 0 -240.5 84t-93.5 214q0 126 95 211t239 85q45 0 103.5 -6.5t62.5 -6.5q8 0 15.5 2t11.5 4l4 1l48 -187l-27 -9q-16 38 -55.5 53t-116.5 15q-80 0 -138 -44.5t-58 -119.5q0 -73 53.5 -118t141.5 -45
q77 0 116.5 15t56.5 53z" />
    <glyph glyph-name="d" unicode="d" horiz-adv-x="714" 
d="M696 281q0 -134 -88 -213.5t-272 -79.5q-161 0 -312 12v24q39 0 39 39v426q0 46 -39 46v24q151 12 304 12q168 0 268 -79t100 -211zM512 282q0 78 -50 114t-136 36q-50 0 -81 -3v-301q30 -3 89 -3q82 0 130 40t48 117z" />
    <glyph glyph-name="e" unicode="e" horiz-adv-x="633" 
d="M613 168l-40 -178q-25 10 -50 10h-498v24q39 0 39 40v430q0 19 -11.5 30t-28.5 11v24h494q31 0 52 9l41 -178l-25 -8q-10 22 -23.5 31t-35.5 9h-281v-71h207q37 0 41 35h22v-207h-22q-3 37 -41 37h-207v-80h281q45 0 62 42z" />
    <glyph glyph-name="f" unicode="f" horiz-adv-x="621" 
d="M607 391l-23 -9q-18 41 -57 41h-281v-101h231q37 0 41 34h23v-207h-23q-3 36 -41 36h-231v-122q0 -39 40 -39v-24h-261v24q39 0 39 39v431q0 19 -11.5 30t-28.5 11v24h495q28 0 50 10z" />
    <glyph glyph-name="g" unicode="g" horiz-adv-x="710" 
d="M695 259q-42 0 -42 -40v-107q0 -26 10 -39q-8 -3 -45 -22.5t-67 -30.5q-96 -37 -184 -37q-153 0 -251.5 84.5t-98.5 216.5q0 130 102.5 211.5t246.5 81.5q34 0 70 -4.5t59 -9.5t27 -5q23 0 39 10l47 -191l-25 -7q-20 40 -59.5 56.5t-137.5 16.5q-68 0 -126.5 -42
t-58.5 -116q0 -73 52.5 -117t120.5 -44t104 18v77q0 18 -10.5 29.5t-29.5 11.5v24h257v-25z" />
    <glyph glyph-name="h" unicode="h" horiz-adv-x="732" 
d="M708 0h-261v24q41 0 41 39v144h-243v-144q0 -39 40 -39v-24h-261v24q39 0 39 39v311v120q0 41 -39 41v24h262v-24q-17 0 -28.5 -11t-11.5 -30v-140h242v140q0 18 -11 29.5t-30 11.5v24h261v-24q-39 0 -39 -41v-313v-118q0 -39 39 -39v-24z" />
    <glyph glyph-name="i" unicode="i" horiz-adv-x="309" 
d="M285 0h-261v24q39 0 39 39v431q0 18 -10.5 29.5t-28.5 11.5v24h261v-23q-17 0 -28.5 -10.5t-11.5 -29.5v-433q0 -39 40 -39v-24z" />
    <glyph glyph-name="j" unicode="j" horiz-adv-x="559" 
d="M538 535q-17 0 -28.5 -10.5t-11.5 -29.5v-313q0 -53 10 -77q-124 -122 -267 -122q-140 0 -237 97q16 19 43 54.5t46 61.5l19 26l20 -14q-5 -9 -5 -18q0 -27 31 -49.5t77 -22.5q34 0 57.5 15t23.5 48v313q0 41 -39 41v24h261v-24z" />
    <glyph glyph-name="k" unicode="k" horiz-adv-x="707" 
d="M696 0h-233q-81 118 -134 235l-83 -69v-103q0 -19 11.5 -29t28.5 -10v-24h-262v24q39 0 39 40v430q0 41 -39 41v24h261v-24q-40 0 -40 -40v-157h1h4l160 159q13 13 13 21q0 17 -24 17v24h291v-24q-22 0 -57 -31l-166 -153q63 -147 172 -293q24 -34 57 -34v-24z" />
    <glyph glyph-name="l" unicode="l" horiz-adv-x="600" 
d="M580 168l-40 -178q-23 10 -51 10h-465v24q40 0 40 40v430q0 41 -39 41v24h261v-24q-17 0 -28.5 -10.5t-11.5 -29.5v-359h255q35 0 55 42z" />
    <glyph glyph-name="m" unicode="m" horiz-adv-x="847" 
d="M823 0h-261v24q41 0 41 39v236h-5l-164 -257h-42l-163 252h-5v-231q0 -39 42 -39v-24h-242v24q39 0 39 39v433q0 39 -39 39v24h228q3 -15 18 -41l158 -248h2l150 248q13 22 15 41h228v-24q-40 0 -40 -39v-433q0 -39 40 -39v-24z" />
    <glyph glyph-name="n" unicode="n" horiz-adv-x="708" 
d="M684 535q-18 0 -29.5 -10.5t-11.5 -29.5v-495h-159q-6 26 -26 48l-234 260v-245q0 -19 11.5 -29t28.5 -10v-24h-240v24q39 0 39 40v430q0 41 -39 41v24h214q4 -22 20 -41l224 -248v224q0 41 -39 41v24h241v-24z" />
    <glyph glyph-name="o" unicode="o" horiz-adv-x="729" 
d="M712 277q0 -93 -52.5 -161.5t-130 -100.5t-166.5 -32q-65 0 -126.5 19t-110.5 55t-79 93t-30 127q0 90 51.5 160t130 105.5t165.5 35.5q88 0 166 -34t130 -104.5t52 -162.5zM526 275q0 76 -50.5 117t-112.5 41q-64 0 -113 -42t-49 -114q0 -69 51 -111t111 -42
q62 0 112.5 39t50.5 112z" />
    <glyph glyph-name="p" unicode="p" horiz-adv-x="644" 
d="M627 367q0 -97 -81.5 -149t-225.5 -52q-44 0 -75 3v-103q0 -42 40 -42v-24h-261v24q39 0 39 41v429q0 41 -39 41v24q158 10 271 10q164 0 248 -48t84 -154zM445 362q0 28 -22 43.5t-49 19t-67 3.5q-42 0 -62 -1v-132q34 -2 64 -2q136 0 136 69z" />
    <glyph glyph-name="q" unicode="q" horiz-adv-x="729" 
d="M712 274q0 -67 -30.5 -125t-83.5 -92q14 -27 35 -27q16 0 29 9t18 23l21 -9q-5 -57 -35 -95t-81 -38q-35 0 -62 14.5t-37.5 27.5t-21.5 34q-49 -14 -103 -14q-145 0 -244.5 82t-99.5 208q0 92 51 163.5t128.5 107t164.5 35.5q151 0 251 -87.5t100 -216.5zM526 275
q0 78 -51.5 118t-117.5 40q-60 0 -107.5 -42.5t-47.5 -114.5q0 -66 48.5 -109.5t107.5 -43.5q30 0 48 5q-7 20 -20 34.5t-29 14.5q-11 0 -18 -6l-12 15q34 55 90 55q51 0 84 -53q25 39 25 87z" />
    <glyph glyph-name="r" unicode="r" horiz-adv-x="643" 
d="M627 0h-222q-59 71 -90 167l-70 1v-105q0 -39 40 -39v-24h-261v24q39 0 39 39v435q0 17 -10.5 27t-28.5 10v24q189 9 270 9q56 0 101.5 -4.5t90 -17.5t74.5 -34t48.5 -56t18.5 -82q0 -61 -36.5 -105t-100.5 -65q31 -80 94 -160q16 -20 43 -20v-24zM442 362
q0 37 -31.5 51.5t-105.5 14.5q-30 0 -60 -2v-130q24 -3 63 -3q134 0 134 69z" />
    <glyph glyph-name="s" unicode="s" horiz-adv-x="596" 
d="M580 184q0 -199 -301 -199q-37 0 -77.5 4.5t-67 9.5t-29.5 5q-20 0 -34 -5l-51 205l27 9q21 -48 71.5 -73.5t147.5 -25.5q120 0 120 46q0 14 -14.5 22.5t-56.5 18.5q-28 6 -66.5 16.5t-57.5 15.5q-161 39 -161 164q0 89 74.5 135.5t205.5 46.5q36 0 72.5 -4.5t59.5 -9
t27 -4.5q24 0 36 6l48 -188l-25 -9q-19 38 -72 60t-126 22q-64 0 -86.5 -10t-22.5 -29q0 -14 17 -22t57 -17q30 -7 76 -18.5t57 -14.5q68 -17 110 -59t42 -98z" />
    <glyph glyph-name="t" unicode="t" horiz-adv-x="694" 
d="M676 390l-24 -8q-12 23 -25 32t-35 9h-154v-360q0 -39 40 -39v-24h-263v24q41 0 41 39v360h-154q-22 0 -35 -9t-25 -32l-24 8l39 179q25 -10 54 -10h471q29 0 54 10z" />
    <glyph glyph-name="u" unicode="u" horiz-adv-x="712" 
d="M690 535q-40 0 -40 -41v-315q0 -41 10 -57q-122 -139 -300 -139q-181 0 -308 139q10 17 10 57v316q0 19 -11.5 29.5t-28.5 10.5v24h260v-24q-39 0 -39 -41v-289q0 -36 34.5 -60t82.5 -24q52 0 90.5 23t38.5 62v289q0 19 -11.5 29.5t-29.5 10.5v24h242v-24z" />
    <glyph glyph-name="v" unicode="v" horiz-adv-x="705" 
d="M695 535q-26 0 -41 -35l-182 -426q-12 -29 -12 -38q0 -10 20 -14v-22h-261v21q22 2 22 19q0 9 -12 33l-178 425q-10 23 -17.5 30t-23.5 7v24h254v-24q-33 0 -33 -22q0 -8 4 -17l122 -334h1l111 334q3 8 3 17q0 22 -27 22v24h250v-24z" />
    <glyph glyph-name="w" unicode="w" horiz-adv-x="973" 
d="M963 535q-17 0 -25.5 -7t-15.5 -28l-156 -430q-10 -27 -10 -34q0 -12 20 -12v-24h-249v24q24 0 24 18q0 8 -5 24l-59 165h-2l-54 -163q-6 -18 -6 -30q0 -14 19 -14v-24h-254v24q22 0 22 14q0 10 -6 28l-157 433q-8 20 -16 28t-23 8v24h257v-24q-34 0 -34 -20q0 -10 5 -25
l98 -294h3l125 323h57l128 -323h3l94 298q4 12 4 23q0 18 -27 18v24h240v-24z" />
    <glyph glyph-name="x" unicode="x" horiz-adv-x="693" 
d="M678 0h-287v24q27 0 27 22q0 9 -14 28l-67 91h-2l-72 -96q-14 -18 -14 -28q0 -17 25 -17v-24h-259v24q26 0 57 37l176 210l-178 229q-16 21 -27 28t-27 7v24h285v-24q-28 0 -28 -17q0 -10 7 -18l77 -101h2l77 101q9 10 9 18q0 17 -27 17v24h258v-24q-16 0 -26 -7t-28 -28
l-177 -210l177 -227q30 -39 56 -39v-24z" />
    <glyph glyph-name="y" unicode="y" horiz-adv-x="761" 
d="M751 535q-16 0 -26.5 -7.5t-25.5 -28.5l-229 -333v-103q0 -39 41 -39v-24h-260v24q39 0 39 39v103l-229 333q-16 22 -25 29t-26 7v24h292v-24q-31 0 -31 -21q0 -6 6 -17l113 -192h2l106 189q9 15 9 26q0 15 -27 15v24h271v-24z" />
    <glyph glyph-name="z" unicode="z" horiz-adv-x="631" 
d="M614 167l-40 -176q-22 9 -53 9h-469l-35 62l308 360h-226q-36 0 -54 -41l-24 9l40 179q28 -10 56 -10h453l31 -59l-305 -365h241q17 0 32 11.5t22 30.5z" />
    <glyph glyph-name="braceleft" unicode="{" horiz-adv-x="416" 
d="M366 -61q-141 0 -192.5 36.5t-51.5 122.5v158q0 30 -19.5 49.5t-52.5 25.5v39q72 12 72 75v157q0 88 52.5 124t191.5 36v-62q-45 -5 -61 -19t-16 -52v-171q0 -37 -29.5 -68t-82.5 -39v-1q53 -8 82.5 -38.5t29.5 -67.5v-174q0 -38 17 -52t60 -19v-60z" />
    <glyph glyph-name="bar" unicode="|" horiz-adv-x="302" 
d="M222 -61h-142v824h142v-824z" />
    <glyph glyph-name="braceright" unicode="}" horiz-adv-x="416" 
d="M366 331q-33 -6 -52.5 -25.5t-19.5 -49.5v-158q0 -86 -51.5 -122.5t-192.5 -36.5v60q43 5 60 19t17 52v174q0 37 29.5 67.5t82.5 38.5v1q-53 8 -82.5 39t-29.5 68v171q0 38 -16 52t-61 19v62q139 0 191.5 -36t52.5 -124v-157q0 -63 72 -75v-39z" />
    <glyph glyph-name="asciitilde" unicode="~" horiz-adv-x="514" 
d="M486 464q0 -67 -33 -119.5t-99 -52.5q-14 0 -29 2.5t-25 4.5t-29 8.5t-24.5 8.5t-28 11.5t-24.5 10.5q-23 10 -39 10q-17 0 -29.5 -14t-12.5 -41h-84q0 73 38 122t96 49q27 0 59 -8.5t48 -15.5t54 -24q14 -7 34 -7q17 0 30.5 15t13.5 40h84z" />
    <glyph glyph-name="uni00A0" unicode="&#xa0;" horiz-adv-x="280" 
 />
    <glyph glyph-name="exclamdown" unicode="&#xa1;" horiz-adv-x="341" 
d="M266 619q0 -40 -28.5 -65.5t-68.5 -25.5t-68 25.5t-28 65.5q0 42 27.5 66t68.5 24t69 -24t28 -66zM301 0h-261v26q20 0 24 26l51 388h112l49 -388q4 -26 25 -26v-26z" />
    <glyph glyph-name="cent" unicode="&#xa2;" horiz-adv-x="707" 
d="M647 265l-52 -176q-20 11 -34 11q-3 0 -18.5 -1.5t-42 -4t-53.5 -3.5v-116h-101v118q-129 13 -207.5 82t-78.5 172q0 100 80 170t206 83v124h101v-122q32 -2 69.5 -6t44.5 -4t15.5 2t13.5 4l6 3l51 -173l-33 -14q-27 63 -172 63q-78 0 -132.5 -34.5t-54.5 -96.5
q0 -60 50.5 -95t135.5 -35q140 0 173 59z" />
    <glyph glyph-name="sterling" unicode="&#xa3;" horiz-adv-x="768" 
d="M708 186l-62 -192q-87 13 -274 13q-140 0 -312 -12v131l23 2q42 3 80.5 36.5t38.5 83.5q0 28 -6 51h-124v102h102q-21 76 -21 125q0 80 70.5 130.5t197.5 50.5q43 0 97.5 -6.5t62.5 -6.5q32 0 45 4l37 -181l-28 -11q-14 24 -28 37.5t-48 23.5t-88 10q-58 0 -92.5 -19.5
t-34.5 -58.5q0 -29 18 -98h188v-102h-166q9 -33 9 -55q0 -47 -79 -94v-2q70 12 174 12q26 0 69 -6t55 -6q43 0 66 52z" />
    <glyph glyph-name="yen" unicode="&#xa5;" horiz-adv-x="873" 
d="M833 674q-42 0 -69 -48l-150 -274h158v-82h-205l-35 -61l1 -10h239v-82h-239v-31q0 -59 49 -59v-27h-292v27q46 0 46 59v31h-234v82h234v8l-34 63h-200v82h154l-150 271q-28 51 -66 51v26h336v-26q-39 0 -39 -32q0 -6 8 -26l101 -236h3l95 231q11 29 11 37q0 12 -12 19
t-28 7v26h318v-26z" />
    <glyph glyph-name="brokenbar" unicode="&#xa6;" horiz-adv-x="302" 
d="M222 405h-142v357h142v-357zM222 -61h-142v352h142v-352z" />
    <glyph glyph-name="section" unicode="&#xa7;" horiz-adv-x="529" 
d="M497 123q0 -65 -66 -103t-195 -38q-35 0 -74.5 3.5t-51.5 3.5q-18 0 -38 -6l-37 161l22 8q20 -33 50.5 -46.5t108.5 -13.5q96 0 96 37q0 16 -14 26t-51 20l-111 32q-103 30 -103 127q0 33 21.5 64t52.5 47q-75 41 -75 113q0 62 68.5 103.5t182.5 41.5q40 0 81 -4t46 -4
q22 0 47 5l37 -160l-23 -8q-15 32 -47.5 46t-107.5 14q-99 0 -99 -37q0 -17 15.5 -26.5t47.5 -18.5l109 -31q108 -31 108 -127q0 -31 -20.5 -64t-56.5 -49q77 -42 77 -116zM333 334q0 17 -17 22l-96 30q-8 -4 -16 -16t-8 -19q0 -16 22 -23l90 -30q8 4 16.5 16t8.5 20z" />
    <glyph glyph-name="dieresis" unicode="&#xa8;" 
d="M525 669q0 -20 -16 -33.5t-39 -13.5t-40.5 14t-17.5 33t17.5 32.5t40.5 13.5t39 -13.5t16 -32.5zM318 669q0 -19 -17 -33t-40 -14t-39.5 13.5t-16.5 33.5q0 19 16.5 32.5t39.5 13.5t40 -13.5t17 -32.5z" />
    <glyph glyph-name="copyright" unicode="&#xa9;" horiz-adv-x="822" 
d="M772 350q0 -151 -105 -256t-256 -105t-256 105t-105 256t105 255.5t256 104.5t256 -104.5t105 -255.5zM714 350q0 125 -89 213.5t-214 88.5t-214 -88.5t-89 -213.5t89 -214.5t214 -89.5t214 89.5t89 214.5zM607 287l-35 -137q-11 7 -22 7q-8 0 -45.5 -5t-73.5 -5
q-106 0 -173.5 59t-67.5 152q0 91 68.5 150.5t172.5 59.5q32 0 74 -5t45 -5l23 6l34 -135l-24 -7q-27 50 -119 50q-59 0 -100 -30.5t-41 -84.5q0 -53 38 -83t102 -30q95 0 120 49z" />
    <glyph glyph-name="ordfeminine" unicode="&#xaa;" horiz-adv-x="395" 
d="M344 394h-103q-4 7 -6 20h-2q-36 -26 -85 -26q-102 0 -102 78q0 44 44.5 64.5t127.5 33.5v8q0 34 -63 34q-49 0 -63 -29l-21 6l19 87q12 -4 28 -4q5 0 28 3.5t51 3.5q71 0 103 -27.5t32 -83.5v-125q0 -26 12 -43zM358 280h-315v56h315v-56zM218 473v38q-67 -10 -67 -36
q0 -25 34 -25q33 0 33 23z" />
    <glyph glyph-name="guillemotleft" unicode="&#xab;" horiz-adv-x="603" 
d="M533 101h-141l-87 171v9l87 166h141l-91 -172zM298 101h-141l-87 171v9l87 166h141l-91 -172z" />
    <glyph glyph-name="logicalnot" unicode="&#xac;" horiz-adv-x="616" 
d="M533 155h-78v169h-372v76h450v-245z" />
    <glyph glyph-name="registered" unicode="&#xae;" horiz-adv-x="541" 
d="M491 480q0 -96 -63 -160t-162 -64q-97 0 -156.5 61.5t-59.5 162.5q0 98 64.5 160.5t155.5 62.5q93 0 157 -62.5t64 -160.5zM449 480q0 75 -52.5 128t-126.5 53t-124 -52.5t-50 -128.5q0 -81 47.5 -131t122.5 -50q77 0 130 54t53 127zM396 377h-89q-20 22 -35 66h-27v-35
q0 -15 20 -15v-16h-108v16q18 0 18 15v151q0 19 -18 19v14q100 4 107 4q128 0 128 -75q0 -49 -52 -65q11 -25 35 -55q6 -7 21 -7v-17zM321 516q0 26 -52 26q-4 0 -12.5 -0.5t-11.5 -0.5v-50q6 -1 25 -1q51 0 51 26z" />
    <glyph glyph-name="macron" unicode="&#xaf;" 
d="M483 636h-236v58h236v-58z" />
    <glyph glyph-name="degree" unicode="&#xb0;" horiz-adv-x="294" 
d="M254 605q0 -43 -31.5 -73.5t-75.5 -30.5t-75.5 30.5t-31.5 73.5t31.5 74t75.5 31t75.5 -31t31.5 -74zM197 606q0 21 -14.5 35t-35.5 14q-22 0 -35.5 -14t-13.5 -35t14 -35.5t35 -14.5t35.5 14.5t14.5 35.5z" />
    <glyph glyph-name="plusminus" unicode="&#xb1;" horiz-adv-x="548" 
d="M488 303h-164v-173h-100v173h-164v93h164v172h100v-172h164v-93zM488 0h-428v92h428v-92z" />
    <glyph glyph-name="twosuperior" unicode="&#xb2;" horiz-adv-x="386" 
d="M359 452l-25 -110q-13 6 -35 6h-272q0 123 142 190q43 20 57 32t14 25q0 34 -61 34q-98 0 -126 -40l-17 6l25 104q13 -3 24 -3q5 0 37.5 5t71.5 5q155 0 155 -106q0 -70 -93 -111q-68 -30 -83 -45q-7 -7 -11 -15h142q27 0 39 26z" />
    <glyph glyph-name="threesuperior" unicode="&#xb3;" horiz-adv-x="386" 
d="M365 443q0 -50 -46 -78.5t-127 -28.5q-45 0 -83 6.5t-39 6.5q-11 0 -20 -4l-27 113l18 7q27 -52 136 -52q78 0 78 41q0 39 -65 39h-17v68h21q43 0 43 30q0 33 -60 33q-96 0 -121 -33l-16 6l24 97q8 -2 24 -2q8 0 42 5t62 5q71 0 112 -24.5t41 -73.5q0 -53 -59 -72v-2
q36 -7 57.5 -31t21.5 -56z" />
    <glyph glyph-name="acute" unicode="&#xb4;" 
d="M479 711l-129 -87h-93l83 87h139z" />
    <glyph glyph-name="mu" unicode="&#xb5;" horiz-adv-x="591" 
d="M567 0l-161 -3q-1 2 -11 57h-4q-24 -21 -39.5 -32.5t-48 -25t-67.5 -13.5q-36 0 -58 5v-24q0 -75 32 -107v-2l-148 -21l-2 2v552q0 44 -42 44v27l183 18v-294q0 -41 17.5 -58t53.5 -17q58 0 113 59v224q0 41 -42 41v28l181 17v-404q0 -45 43 -45v-28z" />
    <glyph glyph-name="paragraph" unicode="&#xb6;" horiz-adv-x="836" 
d="M776 -160h-295v160h-38q-187 0 -285 91t-98 261q0 169 97 258.5t286 89.5h333v-70h-79v-720h79v-70zM622 -90v720h-64v-720h64z" />
    <glyph glyph-name="periodcentered" unicode="&#xb7;" horiz-adv-x="333" 
d="M263 340q0 -42 -27 -66t-68 -24t-69.5 24t-28.5 66q0 40 29 65.5t69 25.5t67.5 -25.5t27.5 -65.5z" />
    <glyph glyph-name="cedilla" unicode="&#xb8;" 
d="M513 -82q0 -30 -37 -51.5t-109 -21.5q-36 0 -86 10l14 36q25 -7 53 -7q58 0 58 24t-41 24q-29 0 -50 -5l-20 20l28 59h53l-17 -36v-2q24 3 52 3q102 0 102 -53z" />
    <glyph glyph-name="onesuperior" unicode="&#xb9;" horiz-adv-x="386" 
d="M286 351h-154v16q25 0 25 27v195q-29 -10 -71 -12v65q26 2 58 16.5t41 41.5h83q-7 -18 -7 -30v-276q0 -27 25 -27v-16z" />
    <glyph glyph-name="ordmasculine" unicode="&#xba;" horiz-adv-x="395" 
d="M363 536q0 -70 -46 -108.5t-119 -38.5q-75 0 -120.5 37.5t-45.5 108.5q0 66 47 103.5t119 37.5q66 0 115.5 -38t49.5 -102zM354 280h-313v56h313v-56zM254 535q0 37 -16 54t-40 17t-40.5 -17t-16.5 -54q0 -75 57 -75q56 0 56 75z" />
    <glyph glyph-name="guillemotright" unicode="&#xbb;" horiz-adv-x="603" 
d="M533 272l-87 -171h-141l91 174l-91 172h141l87 -166v-9zM298 272l-87 -171h-141l91 174l-91 172h141l87 -166v-9z" />
    <glyph glyph-name="onequarter" unicode="&#xbc;" horiz-adv-x="865" 
d="M802 151l-20 -91h-52v-17q0 -26 24 -26v-18h-152v18q25 0 25 26v17h-207v61l149 203q9 14 13 26h152q-4 -12 -4 -32v-176h18q34 0 54 9zM742 700l-516 -700h-139l514 700h141zM283 351h-153v16q25 0 25 27v195q-29 -10 -72 -12v65q26 2 58 16.5t41 41.5h83q-6 -16 -6 -30
v-276q0 -27 24 -27v-16zM627 142v132l-88 -132h88z" />
    <glyph glyph-name="onehalf" unicode="&#xbd;" horiz-adv-x="865" 
d="M790 104l-25 -110q-13 6 -35 6h-272q0 123 142 190q43 20 57 32t14 25q0 34 -61 34q-98 0 -126 -40l-17 6l25 104q13 -3 24 -3q5 0 37.5 5t71.5 5q155 0 155 -106q0 -70 -93 -111q-68 -30 -83 -45q-7 -7 -11 -15h142q27 0 39 26zM706 700l-516 -700h-138l513 700h141z
M247 351h-153v16q25 0 25 27v195q-29 -10 -72 -12v65q26 2 58 16.5t41 41.5h83q-6 -16 -6 -30v-276q0 -27 24 -27v-16z" />
    <glyph glyph-name="threequarters" unicode="&#xbe;" horiz-adv-x="865" 
d="M838 148l-21 -88h-52v-17q0 -26 25 -26v-18h-152v18q14 0 19 6t5 20v17h-207v61l149 202q11 16 14 27h152q-5 -15 -5 -32v-176h21q31 0 52 6zM787 700l-516 -700h-139l514 700h141zM372 443q0 -50 -45 -78.5t-128 -28.5q-45 0 -83 6.5t-39 6.5q-11 0 -20 -4l-27 113l18 7
q27 -52 136 -52q78 0 78 41q0 39 -65 39h-17v68h21q43 0 43 30q0 33 -60 33q-96 0 -121 -33l-16 6l24 97q8 -2 24 -2q8 0 42 5t62 5q71 0 112 -24.5t41 -73.5q0 -53 -59 -72v-2q36 -7 57.5 -31t21.5 -56zM662 142v132l-87 -132h87z" />
    <glyph glyph-name="questiondown" unicode="&#xbf;" horiz-adv-x="569" 
d="M426 621q0 -40 -28.5 -65.5t-68.5 -25.5t-68 25t-28 66q0 42 27.5 66t68.5 24t69 -24t28 -66zM528 195l-46 -202q-14 5 -45 5q-5 0 -51.5 -5.5t-97.5 -5.5q-117 0 -182.5 48t-65.5 133q0 56 33.5 92.5t92.5 70.5q75 44 92 63q15 18 15 36q0 20 -29 20v23h163q6 -18 6 -36
q0 -76 -70 -125q-60 -43 -84 -68t-24 -49q0 -64 97 -64q57 0 101.5 21.5t63.5 50.5z" />
    <glyph glyph-name="Agrave" unicode="&#xc0;" horiz-adv-x="871" 
d="M860 0h-309v26q42 0 42 26q0 13 -7 28l-5 10q-82 -20 -144 -20q-66 0 -150 20l-4 -13q-5 -20 -5 -29q0 -22 37 -22v-26h-304v26q24 0 35.5 10.5t23.5 40.5l219 532q12 27 12 38q0 27 -27 27v26h330v-26q-29 0 -29 -27q0 -11 11 -39l217 -532q13 -30 24.5 -40t32.5 -10
v-26zM523 235l-101 266h-2l-92 -267q46 -16 97 -16q56 0 98 17zM521 738h-94l-130 86h139z" />
    <glyph glyph-name="Aacute" unicode="&#xc1;" horiz-adv-x="871" 
d="M860 0h-309v26q42 0 42 26q0 13 -7 28l-5 10q-82 -20 -144 -20q-66 0 -150 20l-4 -13q-5 -20 -5 -29q0 -22 37 -22v-26h-304v26q24 0 35.5 10.5t23.5 40.5l219 532q12 27 12 38q0 27 -27 27v26h330v-26q-29 0 -29 -27q0 -11 11 -39l217 -532q13 -30 24.5 -40t32.5 -10
v-26zM523 235l-101 266h-2l-92 -267q46 -16 97 -16q56 0 98 17zM562 825l-129 -87h-93l83 87h139z" />
    <glyph glyph-name="Acircumflex" unicode="&#xc2;" horiz-adv-x="871" 
d="M860 0h-309v26q42 0 42 26q0 13 -7 28l-5 10q-82 -20 -144 -20q-66 0 -150 20l-4 -13q-5 -20 -5 -29q0 -22 37 -22v-26h-304v26q24 0 35.5 10.5t23.5 40.5l219 532q12 27 12 38q0 27 -27 27v26h330v-26q-29 0 -29 -27q0 -11 11 -39l217 -532q13 -30 24.5 -40t32.5 -10
v-26zM523 235l-101 266h-2l-92 -267q46 -16 97 -16q56 0 98 17zM621 738h-132l-53 45l-51 -45h-131l115 86h135z" />
    <glyph glyph-name="Atilde" unicode="&#xc3;" horiz-adv-x="871" 
d="M860 0h-309v26q42 0 42 26q0 13 -7 28l-5 10q-82 -20 -144 -20q-66 0 -150 20l-4 -13q-5 -20 -5 -29q0 -22 37 -22v-26h-304v26q24 0 35.5 10.5t23.5 40.5l219 532q12 27 12 38q0 27 -27 27v26h330v-26q-29 0 -29 -27q0 -11 11 -39l217 -532q13 -30 24.5 -40t32.5 -10
v-26zM523 235l-101 266h-2l-92 -267q46 -16 97 -16q56 0 98 17zM590 829q-6 -40 -30 -65.5t-67 -25.5q-23 0 -69 13q-39 13 -52 13q-27 0 -35 -27h-58q3 40 29 66t69 26q26 0 67 -13q36 -13 47 -13q31 0 37 26h62z" />
    <glyph glyph-name="Adieresis" unicode="&#xc4;" horiz-adv-x="871" 
d="M860 0h-309v26q42 0 42 26q0 13 -7 28l-5 10q-82 -20 -144 -20q-66 0 -150 20l-4 -13q-5 -20 -5 -29q0 -22 37 -22v-26h-304v26q24 0 35.5 10.5t23.5 40.5l219 532q12 27 12 38q0 27 -27 27v26h330v-26q-29 0 -29 -27q0 -11 11 -39l217 -532q13 -30 24.5 -40t32.5 -10
v-26zM523 235l-101 266h-2l-92 -267q46 -16 97 -16q56 0 98 17zM599 785q0 -20 -16 -33.5t-39 -13.5t-40.5 14t-17.5 33t17.5 32.5t40.5 13.5t39 -13.5t16 -32.5zM392 785q0 -19 -17 -33t-40 -14t-39.5 13.5t-16.5 33.5q0 19 16.5 32.5t39.5 13.5t40 -13.5t17 -32.5z" />
    <glyph glyph-name="Aring" unicode="&#xc5;" horiz-adv-x="871" 
d="M860 0h-309v26q42 0 42 26q0 13 -7 28l-5 10q-82 -20 -144 -20q-66 0 -150 20l-4 -13q-5 -20 -5 -29q0 -22 37 -22v-26h-304v26q24 0 35.5 10.5t23.5 40.5l219 532q12 27 12 38q0 27 -27 27v26h330v-26q-29 0 -29 -27q0 -11 11 -39l217 -532q13 -30 24.5 -40t32.5 -10
v-26zM523 235l-101 266h-2l-92 -267q46 -16 97 -16q56 0 98 17zM513 790q0 -26 -22.5 -43.5t-53.5 -17.5t-54 17.5t-23 43.5t23 43.5t54 17.5t53.5 -17.5t22.5 -43.5zM470 789q0 10 -10 18.5t-24 8.5t-23.5 -8.5t-9.5 -18.5t9.5 -18t23.5 -8t24 8t10 18z" />
    <glyph glyph-name="AE" unicode="&#xc6;" horiz-adv-x="1271" 
d="M1244 202l-45 -212q-27 10 -57 10h-613v24q23 0 36.5 16t13.5 45v18q-57 -20 -135 -20q-72 0 -137 19l-15 -26q-10 -14 -10 -25q0 -27 34 -27v-24h-305v24q19 0 29.5 7t25.5 32l337 544q13 19 13 36q0 31 -28 31v26h749q38 0 60 8l44 -210l-25 -9q-25 53 -83 53h-345
v-110h258q53 0 53 43h26v-241h-26q0 42 -51 42h-260v-119h346q58 0 84 56zM579 247v314h-3l-181 -314q43 -17 87 -17q53 0 97 17z" />
    <glyph glyph-name="Ccedilla" unicode="&#xc7;" horiz-adv-x="768" 
d="M736 226l-54 -222q-14 6 -33 6q-4 0 -30 -3.5t-69 -7.5t-86 -5l-12 -23v-2q16 2 52 2q102 0 102 -52q0 -30 -37 -51.5t-109 -21.5q-36 0 -86 10l14 35q22 -6 53 -6q58 0 58 24t-41 24q-29 0 -50 -5l-20 20l22 47q-169 9 -273.5 107t-104.5 252q0 157 116 258.5t294 101.5
q70 0 137.5 -8t70.5 -8q19 0 33 7l53 -223l-23 -9q-22 47 -72 67.5t-143 20.5q-105 0 -178 -54.5t-73 -154.5q0 -98 68.5 -151.5t182.5 -53.5q94 0 143.5 19.5t71.5 68.5z" />
    <glyph glyph-name="Egrave" unicode="&#xc8;" horiz-adv-x="786" 
d="M758 204l-45 -214q-27 10 -57 10h-619v26q30 0 42.5 13.5t12.5 46.5v528q0 60 -55 60v26h613q38 0 60 8l45 -210l-25 -9q-25 53 -81 53h-348v-110h254q32 0 45.5 10t13.5 32h25v-240h-25q0 22 -13.5 32t-45.5 10h-254v-119h346q59 0 85 56zM479 738h-94l-130 86h139z" />
    <glyph glyph-name="Eacute" unicode="&#xc9;" horiz-adv-x="786" 
d="M758 204l-45 -214q-27 10 -57 10h-619v26q30 0 42.5 13.5t12.5 46.5v528q0 60 -55 60v26h613q38 0 60 8l45 -210l-25 -9q-25 53 -81 53h-348v-110h254q32 0 45.5 10t13.5 32h25v-240h-25q0 22 -13.5 32t-45.5 10h-254v-119h346q59 0 85 56zM552 825l-129 -87h-93l83 87
h139z" />
    <glyph glyph-name="Ecircumflex" unicode="&#xca;" horiz-adv-x="786" 
d="M758 204l-45 -214q-27 10 -57 10h-619v26q30 0 42.5 13.5t12.5 46.5v528q0 60 -55 60v26h613q38 0 60 8l45 -210l-25 -9q-25 53 -81 53h-348v-110h254q32 0 45.5 10t13.5 32h25v-240h-25q0 22 -13.5 32t-45.5 10h-254v-119h346q59 0 85 56zM577 738h-132l-53 45l-51 -45
h-131l115 86h135z" />
    <glyph glyph-name="Edieresis" unicode="&#xcb;" horiz-adv-x="786" 
d="M758 204l-45 -214q-27 10 -57 10h-619v26q30 0 42.5 13.5t12.5 46.5v528q0 60 -55 60v26h613q38 0 60 8l45 -210l-25 -9q-25 53 -81 53h-348v-110h254q32 0 45.5 10t13.5 32h25v-240h-25q0 22 -13.5 32t-45.5 10h-254v-119h346q59 0 85 56zM535 785q0 -20 -16 -33.5
t-39 -13.5t-40.5 14t-17.5 33t17.5 32.5t40.5 13.5t39 -13.5t16 -32.5zM328 785q0 -19 -17 -33t-40 -14t-39.5 13.5t-16.5 33.5q0 19 16.5 32.5t39.5 13.5t40 -13.5t17 -32.5z" />
    <glyph glyph-name="Igrave" unicode="&#xcc;" horiz-adv-x="393" 
d="M356 0h-319v26q55 0 55 59v529q0 60 -55 60v26h319v-26q-55 0 -55 -60v-529q0 -59 55 -59v-26zM295 738h-94l-130 86h139z" />
    <glyph glyph-name="Iacute" unicode="&#xcd;" horiz-adv-x="393" 
d="M356 0h-319v26q55 0 55 59v529q0 60 -55 60v26h319v-26q-55 0 -55 -60v-529q0 -59 55 -59v-26zM323 825l-129 -87h-93l83 87h139z" />
    <glyph glyph-name="Icircumflex" unicode="&#xce;" horiz-adv-x="393" 
d="M356 0h-319v26q55 0 55 59v529q0 60 -55 60v26h319v-26q-55 0 -55 -60v-529q0 -59 55 -59v-26zM379 738h-132l-53 45l-51 -45h-131l115 86h135z" />
    <glyph glyph-name="Idieresis" unicode="&#xcf;" horiz-adv-x="393" 
d="M356 0h-319v26q55 0 55 59v529q0 60 -55 60v26h319v-26q-55 0 -55 -60v-529q0 -59 55 -59v-26zM356 785q0 -20 -16 -33.5t-39 -13.5t-40.5 14t-17.5 33t17.5 32.5t40.5 13.5t39 -13.5t16 -32.5zM149 785q0 -19 -17 -33t-40 -14t-39.5 13.5t-16.5 33.5q0 19 16.5 32.5
t39.5 13.5t40 -13.5t17 -32.5z" />
    <glyph glyph-name="Eth" unicode="&#xd0;" horiz-adv-x="909" 
d="M877 351q0 -168 -108.5 -267t-334.5 -99q-191 0 -386 15v26q28 0 41.5 13.5t13.5 44.5v209h-97v115h97v199q0 37 -13 52t-42 15v26q205 16 377 16q207 0 329.5 -100t122.5 -265zM662 352q0 104 -65.5 154t-174.5 50q-70 0 -110 -5v-143h192v-115h-192v-145q36 -5 120 -5
q105 0 167.5 53.5t62.5 155.5z" />
    <glyph glyph-name="Ntilde" unicode="&#xd1;" horiz-adv-x="891" 
d="M854 674q-29 0 -42 -13.5t-13 -46.5v-614h-177q-3 30 -30 60l-318 356v-330q0 -60 55 -60v-26h-291v26q54 0 54 60v528q0 32 -12.5 46t-42.5 14v26h261q2 -27 22 -50l295 -327v291q0 34 -12.5 47t-42.5 13v26h294v-26zM594 829q-6 -40 -30 -65.5t-67 -25.5q-23 0 -69 13
q-39 13 -52 13q-27 0 -35 -27h-58q3 40 29 66t69 26q26 0 67 -13q36 -13 47 -13q31 0 37 26h62z" />
    <glyph glyph-name="Ograve" unicode="&#xd2;" horiz-adv-x="915" 
d="M883 346q0 -87 -36.5 -158.5t-97.5 -116t-136.5 -68.5t-156.5 -24q-109 0 -204 40.5t-157.5 126t-62.5 200.5q0 111 63 199t159 133t204 45t204 -43.5t158.5 -131.5t62.5 -202zM669 344q0 69 -34 119t-81 71.5t-97 21.5q-83 0 -146.5 -56.5t-63.5 -153.5
q0 -93 65.5 -148.5t143.5 -55.5q81 0 147 52.5t66 149.5zM527 738h-94l-130 86h139z" />
    <glyph glyph-name="Oacute" unicode="&#xd3;" horiz-adv-x="915" 
d="M883 346q0 -87 -36.5 -158.5t-97.5 -116t-136.5 -68.5t-156.5 -24q-109 0 -204 40.5t-157.5 126t-62.5 200.5q0 111 63 199t159 133t204 45t204 -43.5t158.5 -131.5t62.5 -202zM669 344q0 69 -34 119t-81 71.5t-97 21.5q-83 0 -146.5 -56.5t-63.5 -153.5
q0 -93 65.5 -148.5t143.5 -55.5q81 0 147 52.5t66 149.5zM569 825l-129 -87h-93l83 87h139z" />
    <glyph glyph-name="Ocircumflex" unicode="&#xd4;" horiz-adv-x="915" 
d="M883 346q0 -87 -36.5 -158.5t-97.5 -116t-136.5 -68.5t-156.5 -24q-109 0 -204 40.5t-157.5 126t-62.5 200.5q0 111 63 199t159 133t204 45t204 -43.5t158.5 -131.5t62.5 -202zM669 344q0 69 -34 119t-81 71.5t-97 21.5q-83 0 -146.5 -56.5t-63.5 -153.5
q0 -93 65.5 -148.5t143.5 -55.5q81 0 147 52.5t66 149.5zM642 738h-132l-53 45l-51 -45h-131l115 86h135z" />
    <glyph glyph-name="Otilde" unicode="&#xd5;" horiz-adv-x="915" 
d="M883 346q0 -87 -36.5 -158.5t-97.5 -116t-136.5 -68.5t-156.5 -24q-109 0 -204 40.5t-157.5 126t-62.5 200.5q0 111 63 199t159 133t204 45t204 -43.5t158.5 -131.5t62.5 -202zM669 344q0 69 -34 119t-81 71.5t-97 21.5q-83 0 -146.5 -56.5t-63.5 -153.5
q0 -93 65.5 -148.5t143.5 -55.5q81 0 147 52.5t66 149.5zM622 829q-6 -40 -30 -65.5t-67 -25.5q-23 0 -69 13q-39 13 -52 13q-27 0 -35 -27h-58q3 40 29 66t69 26q26 0 67 -13q36 -13 47 -13q31 0 37 26h62z" />
    <glyph glyph-name="Odieresis" unicode="&#xd6;" horiz-adv-x="915" 
d="M883 346q0 -87 -36.5 -158.5t-97.5 -116t-136.5 -68.5t-156.5 -24q-109 0 -204 40.5t-157.5 126t-62.5 200.5q0 111 63 199t159 133t204 45t204 -43.5t158.5 -131.5t62.5 -202zM669 344q0 69 -34 119t-81 71.5t-97 21.5q-83 0 -146.5 -56.5t-63.5 -153.5
q0 -93 65.5 -148.5t143.5 -55.5q81 0 147 52.5t66 149.5zM612 785q0 -20 -16 -33.5t-39 -13.5t-40.5 14t-17.5 33t17.5 32.5t40.5 13.5t39 -13.5t16 -32.5zM405 785q0 -19 -17 -33t-40 -14t-39.5 13.5t-16.5 33.5q0 19 16.5 32.5t39.5 13.5t40 -13.5t17 -32.5z" />
    <glyph glyph-name="multiply" unicode="&#xd7;" horiz-adv-x="563" 
d="M513 206l-87 -89l-145 144l-142 -142l-89 87l144 143l-144 144l89 88l142 -143l145 144l87 -86l-142 -147z" />
    <glyph glyph-name="Oslash" unicode="&#xd8;" horiz-adv-x="915" 
d="M883 346q0 -87 -36.5 -157.5t-97.5 -113.5t-136 -66t-157 -23q-110 0 -208 43l-83 -104l-67 56l76 89q-142 107 -142 276q0 84 36.5 155t97 117t136.5 71.5t156 25.5q110 0 208 -45l76 92l69 -51l-70 -84q63 -46 102.5 -117.5t39.5 -163.5zM669 344q0 82 -48 136
l-257 -313q54 -19 92 -19q51 0 97.5 18.5t81 65t34.5 112.5zM551 529q-44 19 -94 19q-84 0 -147 -53t-63 -149q0 -72 46 -127z" />
    <glyph glyph-name="Ugrave" unicode="&#xd9;" horiz-adv-x="896" 
d="M862 675q-55 0 -55 -60v-390q0 -52 10 -72q-150 -171 -364 -171q-222 0 -375 171q11 21 11 72v389q0 30 -15.5 45t-39.5 15v26h319v-26q-29 0 -42 -14t-13 -46v-357q0 -50 46.5 -81.5t108.5 -31.5q68 0 119 30t51 85v356q0 60 -55 60v25h294v-25zM517 738h-94l-130 86
h139z" />
    <glyph glyph-name="Uacute" unicode="&#xda;" horiz-adv-x="896" 
d="M862 675q-55 0 -55 -60v-390q0 -52 10 -72q-150 -171 -364 -171q-222 0 -375 171q11 21 11 72v389q0 30 -15.5 45t-39.5 15v26h319v-26q-29 0 -42 -14t-13 -46v-357q0 -50 46.5 -81.5t108.5 -31.5q68 0 119 30t51 85v356q0 60 -55 60v25h294v-25zM647 825l-129 -87h-93
l83 87h139z" />
    <glyph glyph-name="Ucircumflex" unicode="&#xdb;" horiz-adv-x="896" 
d="M862 675q-55 0 -55 -60v-390q0 -52 10 -72q-150 -171 -364 -171q-222 0 -375 171q11 21 11 72v389q0 30 -15.5 45t-39.5 15v26h319v-26q-29 0 -42 -14t-13 -46v-357q0 -50 46.5 -81.5t108.5 -31.5q68 0 119 30t51 85v356q0 60 -55 60v25h294v-25zM649 738h-132l-53 45
l-51 -45h-131l115 86h135z" />
    <glyph glyph-name="Udieresis" unicode="&#xdc;" horiz-adv-x="896" 
d="M862 675q-55 0 -55 -60v-390q0 -52 10 -72q-150 -171 -364 -171q-222 0 -375 171q11 21 11 72v389q0 30 -15.5 45t-39.5 15v26h319v-26q-29 0 -42 -14t-13 -46v-357q0 -50 46.5 -81.5t108.5 -31.5q68 0 119 30t51 85v356q0 60 -55 60v25h294v-25zM621 785
q0 -20 -16 -33.5t-39 -13.5t-40.5 14t-17.5 33t17.5 32.5t40.5 13.5t39 -13.5t16 -32.5zM414 785q0 -19 -17 -33t-40 -14t-39.5 13.5t-16.5 33.5q0 19 16.5 32.5t39.5 13.5t40 -13.5t17 -32.5z" />
    <glyph glyph-name="Yacute" unicode="&#xdd;" horiz-adv-x="932" 
d="M921 674q-41 0 -73 -48l-279 -421v-120q0 -32 12 -45.5t43 -13.5v-26h-319v26q31 0 43.5 13t12.5 46v122l-280 416q-20 29 -34.5 40t-35.5 11v26h356v-26q-41 0 -41 -30q0 -12 10 -29l141 -247h2l136 244q13 23 13 36q0 26 -41 26v26h334v-26zM630 825l-129 -87h-93
l83 87h139z" />
    <glyph glyph-name="Thorn" unicode="&#xde;" horiz-adv-x="809" 
d="M777 346q0 -120 -98.5 -184t-275.5 -64q-70 0 -102 4v-13q0 -34 13 -48.5t42 -14.5v-26h-319v26q29 0 42 14t13 47v527q0 60 -55 60v26h319v-26q-54 0 -54 -60v-18q31 1 72 1q203 0 303 -59.5t100 -191.5zM569 340q0 31 -16 51t-46 28.5t-56.5 11.5t-62.5 3q-39 0 -87 -3
v-186q27 -3 90 -3q178 0 178 98z" />
    <glyph glyph-name="germandbls" unicode="&#xdf;" horiz-adv-x="678" 
d="M618 353q-94 -154 -240 -154q-49 0 -104.5 24.5t-98.5 49t-61 24.5q-25 0 -43 -11l-11 18q85 98 190 98q34 0 133 -31t147 -31q47 0 74 27z" />
    <glyph glyph-name="agrave" unicode="&#xe0;" horiz-adv-x="701" 
d="M697 0h-255v24q30 0 30 19q0 2 -2 7t-3 8l-4 11q-60 -15 -112 -15q-51 0 -115 15l-4 -13q-4 -14 -4 -16q0 -16 31 -16v-24h-255v24q16 0 24 7t18 29l188 434q7 15 7 22q0 19 -20 19v24h263v-24q-22 0 -22 -17q0 -11 7 -26l187 -433q9 -22 17.5 -28.5t23.5 -6.5v-24z
M410 194l-70 181h-1q-43 -121 -66 -181q31 -11 68 -11q38 0 69 11zM428 624h-94l-130 86h139z" />
    <glyph glyph-name="aacute" unicode="&#xe1;" horiz-adv-x="701" 
d="M697 0h-255v24q30 0 30 19q0 2 -2 7t-3 8l-4 11q-60 -15 -112 -15q-51 0 -115 15l-4 -13q-4 -14 -4 -16q0 -16 31 -16v-24h-255v24q16 0 24 7t18 29l188 434q7 15 7 22q0 19 -20 19v24h263v-24q-22 0 -22 -17q0 -11 7 -26l187 -433q9 -22 17.5 -28.5t23.5 -6.5v-24z
M410 194l-70 181h-1q-43 -121 -66 -181q31 -11 68 -11q38 0 69 11zM479 711l-129 -87h-93l83 87h139z" />
    <glyph glyph-name="acircumflex" unicode="&#xe2;" horiz-adv-x="701" 
d="M697 0h-255v24q30 0 30 19q0 2 -2 7t-3 8l-4 11q-60 -15 -112 -15q-51 0 -115 15l-4 -13q-4 -14 -4 -16q0 -16 31 -16v-24h-255v24q16 0 24 7t18 29l188 434q7 15 7 22q0 19 -20 19v24h263v-24q-22 0 -22 -17q0 -11 7 -26l187 -433q9 -22 17.5 -28.5t23.5 -6.5v-24z
M410 194l-70 181h-1q-43 -121 -66 -181q31 -11 68 -11q38 0 69 11zM533 624h-132l-53 45l-51 -45h-131l115 86h135z" />
    <glyph glyph-name="atilde" unicode="&#xe3;" horiz-adv-x="701" 
d="M697 0h-255v24q30 0 30 19q0 2 -2 7t-3 8l-4 11q-60 -15 -112 -15q-51 0 -115 15l-4 -13q-4 -14 -4 -16q0 -16 31 -16v-24h-255v24q16 0 24 7t18 29l188 434q7 15 7 22q0 19 -20 19v24h263v-24q-22 0 -22 -17q0 -11 7 -26l187 -433q9 -22 17.5 -28.5t23.5 -6.5v-24z
M410 194l-70 181h-1q-43 -121 -66 -181q31 -11 68 -11q38 0 69 11zM516 713q-6 -40 -30 -65.5t-67 -25.5q-23 0 -69 13q-39 13 -52 13q-27 0 -35 -27h-58q3 40 29 66t69 26q26 0 67 -13q36 -13 47 -13q31 0 37 26h62z" />
    <glyph glyph-name="adieresis" unicode="&#xe4;" horiz-adv-x="701" 
d="M697 0h-255v24q30 0 30 19q0 2 -2 7t-3 8l-4 11q-60 -15 -112 -15q-51 0 -115 15l-4 -13q-4 -14 -4 -16q0 -16 31 -16v-24h-255v24q16 0 24 7t18 29l188 434q7 15 7 22q0 19 -20 19v24h263v-24q-22 0 -22 -17q0 -11 7 -26l187 -433q9 -22 17.5 -28.5t23.5 -6.5v-24z
M410 194l-70 181h-1q-43 -121 -66 -181q31 -11 68 -11q38 0 69 11zM523 669q0 -20 -16 -33.5t-39 -13.5t-40.5 14t-17.5 33t17.5 32.5t40.5 13.5t39 -13.5t16 -32.5zM316 669q0 -19 -17 -33t-40 -14t-39.5 13.5t-16.5 33.5q0 19 16.5 32.5t39.5 13.5t40 -13.5t17 -32.5z" />
    <glyph glyph-name="aring" unicode="&#xe5;" horiz-adv-x="701" 
d="M697 0h-255v24q30 0 30 19q0 2 -2 7t-3 8l-4 11q-60 -15 -112 -15q-51 0 -115 15l-4 -13q-4 -14 -4 -16q0 -16 31 -16v-24h-255v24q16 0 24 7t18 29l188 434q7 15 7 22q0 19 -20 19v24h263v-24q-22 0 -22 -17q0 -11 7 -26l187 -433q9 -22 17.5 -28.5t23.5 -6.5v-24z
M410 194l-70 181h-1q-43 -121 -66 -181q31 -11 68 -11q38 0 69 11zM426 666q0 -26 -22.5 -43.5t-53.5 -17.5t-54 17.5t-23 43.5t23 43.5t54 17.5t53.5 -17.5t22.5 -43.5zM383 665q0 10 -10 18.5t-24 8.5t-23.5 -8.5t-9.5 -18.5t9.5 -18t23.5 -8t24 8t10 18z" />
    <glyph glyph-name="ae" unicode="&#xe6;" horiz-adv-x="1015" 
d="M999 168l-39 -178q-25 10 -51 10h-492v24q39 0 39 39v16q-52 -13 -108 -13q-60 0 -103 13l-15 -23q-6 -10 -6 -17q0 -15 25 -15v-24h-245v24q15 0 21.5 6.5t20.5 29.5l271 429q11 17 11 27q0 19 -21 19v24h598q32 0 53 9l39 -178l-25 -8q-10 22 -23 31t-35 9h-282v-71
h207q37 0 41 35h23v-207h-23q-3 37 -41 37h-207v-80h282q44 0 61 42zM455 209v225h-1q-96 -166 -130 -226q23 -10 65 -10q35 0 66 11z" />
    <glyph glyph-name="ccedilla" unicode="&#xe7;" horiz-adv-x="616" 
d="M596 191l-48 -189q-15 9 -31 9q-3 0 -27.5 -3.5t-62.5 -6.5t-76 -3h-2l-13 -28v-2q24 3 52 3q102 0 102 -53q0 -30 -37 -51.5t-109 -21.5q-36 0 -86 10l14 36q25 -7 53 -7q58 0 58 24t-41 24q-29 0 -50 -5l-20 20l25 54q-126 14 -203 91.5t-77 193.5q0 125 94.5 205
t239.5 80q45 0 103.5 -6.5t62.5 -6.5q8 0 15.5 2t11.5 4l4 2l48 -188l-27 -8q-16 38 -55.5 53t-116.5 15q-82 0 -139 -40t-57 -114q0 -72 53 -112t142 -40q77 0 116.5 15t56.5 53z" />
    <glyph glyph-name="egrave" unicode="&#xe8;" horiz-adv-x="633" 
d="M613 168l-40 -178q-25 10 -50 10h-498v24q39 0 39 40v430q0 19 -11.5 30t-28.5 11v24h494q31 0 52 9l41 -178l-25 -8q-10 22 -23.5 31t-35.5 9h-281v-71h207q37 0 41 35h22v-207h-22q-3 37 -41 37h-207v-80h281q45 0 62 42zM410 624h-94l-130 86h139z" />
    <glyph glyph-name="eacute" unicode="&#xe9;" horiz-adv-x="633" 
d="M613 168l-40 -178q-25 10 -50 10h-498v24q39 0 39 40v430q0 19 -11.5 30t-28.5 11v24h494q31 0 52 9l41 -178l-25 -8q-10 22 -23.5 31t-35.5 9h-281v-71h207q37 0 41 35h22v-207h-22q-3 37 -41 37h-207v-80h281q45 0 62 42zM479 711l-129 -87h-93l83 87h139z" />
    <glyph glyph-name="ecircumflex" unicode="&#xea;" horiz-adv-x="633" 
d="M613 168l-40 -178q-25 10 -50 10h-498v24q39 0 39 40v430q0 19 -11.5 30t-28.5 11v24h494q31 0 52 9l41 -178l-25 -8q-10 22 -23.5 31t-35.5 9h-281v-71h207q37 0 41 35h22v-207h-22q-3 37 -41 37h-207v-80h281q45 0 62 42zM508 624h-132l-53 45l-51 -45h-131l115 86h135
z" />
    <glyph glyph-name="edieresis" unicode="&#xeb;" horiz-adv-x="633" 
d="M613 168l-40 -178q-25 10 -50 10h-498v24q39 0 39 40v430q0 19 -11.5 30t-28.5 11v24h494q31 0 52 9l41 -178l-25 -8q-10 22 -23.5 31t-35.5 9h-281v-71h207q37 0 41 35h22v-207h-22q-3 37 -41 37h-207v-80h281q45 0 62 42zM474 669q0 -20 -16 -33.5t-39 -13.5t-40.5 14
t-17.5 33t17.5 32.5t40.5 13.5t39 -13.5t16 -32.5zM267 669q0 -19 -17 -33t-40 -14t-39.5 13.5t-16.5 33.5q0 19 16.5 32.5t39.5 13.5t40 -13.5t17 -32.5z" />
    <glyph glyph-name="igrave" unicode="&#xec;" horiz-adv-x="309" 
d="M285 0h-261v24q39 0 39 39v431q0 18 -10.5 29.5t-28.5 11.5v24h261v-23q-17 0 -28.5 -10.5t-11.5 -29.5v-433q0 -39 40 -39v-24zM255 624h-94l-130 86h139z" />
    <glyph glyph-name="iacute" unicode="&#xed;" horiz-adv-x="309" 
d="M285 0h-261v24q39 0 39 39v431q0 18 -10.5 29.5t-28.5 11.5v24h261v-23q-17 0 -28.5 -10.5t-11.5 -29.5v-433q0 -39 40 -39v-24zM277 711l-129 -87h-93l83 87h139z" />
    <glyph glyph-name="icircumflex" unicode="&#xee;" horiz-adv-x="309" 
d="M285 0h-261v24q39 0 39 39v431q0 18 -10.5 29.5t-28.5 11.5v24h261v-23q-17 0 -28.5 -10.5t-11.5 -29.5v-433q0 -39 40 -39v-24zM339 624h-132l-53 45l-51 -45h-131l115 86h135z" />
    <glyph glyph-name="idieresis" unicode="&#xef;" horiz-adv-x="309" 
d="M285 0h-261v24q39 0 39 39v431q0 18 -10.5 29.5t-28.5 11.5v24h261v-23q-17 0 -28.5 -10.5t-11.5 -29.5v-433q0 -39 40 -39v-24zM314 669q0 -20 -16 -33.5t-39 -13.5t-40.5 14t-17.5 33t17.5 32.5t40.5 13.5t39 -13.5t16 -32.5zM107 669q0 -19 -17 -33t-40 -14
t-39.5 13.5t-16.5 33.5q0 19 16.5 32.5t39.5 13.5t40 -13.5t17 -32.5z" />
    <glyph glyph-name="eth" unicode="&#xf0;" horiz-adv-x="732" 
d="M714 281q0 -134 -88 -213.5t-272 -79.5q-161 0 -312 12v24q39 0 39 39v167h-77v102h77v157q0 46 -39 46v24q151 12 303 12q168 0 268.5 -79t100.5 -211zM529 282q0 78 -50 114t-136 36q-57 0 -80 -2v-98h153v-102h-153v-100q50 -5 89 -5q82 0 129.5 40t47.5 117z" />
    <glyph glyph-name="ntilde" unicode="&#xf1;" horiz-adv-x="708" 
d="M684 535q-18 0 -29.5 -10.5t-11.5 -29.5v-495h-159q-6 26 -26 48l-234 260v-245q0 -19 11.5 -29t28.5 -10v-24h-240v24q39 0 39 40v430q0 41 -39 41v24h214q4 -22 20 -41l224 -248v224q0 41 -39 41v24h241v-24zM521 713q-6 -40 -30 -65.5t-67 -25.5q-24 0 -69 13
q-39 13 -52 13q-27 0 -35 -27h-58q3 40 29 66t69 26q26 0 67 -13q36 -13 47 -13q31 0 37 26h62z" />
    <glyph glyph-name="ograve" unicode="&#xf2;" horiz-adv-x="729" 
d="M712 277q0 -93 -52.5 -161.5t-130 -100.5t-166.5 -32q-65 0 -126.5 19t-110.5 55t-79 93t-30 127q0 90 51.5 160t130 105.5t165.5 35.5q88 0 166 -34t130 -104.5t52 -162.5zM526 275q0 76 -50.5 117t-112.5 41q-64 0 -113 -42t-49 -114q0 -69 51 -111t111 -42
q62 0 112.5 39t50.5 112zM421 624h-94l-130 86h139z" />
    <glyph glyph-name="oacute" unicode="&#xf3;" horiz-adv-x="729" 
d="M712 277q0 -93 -52.5 -161.5t-130 -100.5t-166.5 -32q-65 0 -126.5 19t-110.5 55t-79 93t-30 127q0 90 51.5 160t130 105.5t165.5 35.5q88 0 166 -34t130 -104.5t52 -162.5zM526 275q0 76 -50.5 117t-112.5 41q-64 0 -113 -42t-49 -114q0 -69 51 -111t111 -42
q62 0 112.5 39t50.5 112zM513 711l-129 -87h-93l83 87h139z" />
    <glyph glyph-name="ocircumflex" unicode="&#xf4;" horiz-adv-x="729" 
d="M712 277q0 -93 -52.5 -161.5t-130 -100.5t-166.5 -32q-65 0 -126.5 19t-110.5 55t-79 93t-30 127q0 90 51.5 160t130 105.5t165.5 35.5q88 0 166 -34t130 -104.5t52 -162.5zM526 275q0 76 -50.5 117t-112.5 41q-64 0 -113 -42t-49 -114q0 -69 51 -111t111 -42
q62 0 112.5 39t50.5 112zM548 624h-132l-53 45l-51 -45h-131l115 86h135z" />
    <glyph glyph-name="otilde" unicode="&#xf5;" horiz-adv-x="729" 
d="M712 277q0 -93 -52.5 -161.5t-130 -100.5t-166.5 -32q-65 0 -126.5 19t-110.5 55t-79 93t-30 127q0 90 51.5 160t130 105.5t165.5 35.5q88 0 166 -34t130 -104.5t52 -162.5zM526 275q0 76 -50.5 117t-112.5 41q-64 0 -113 -42t-49 -114q0 -69 51 -111t111 -42
q62 0 112.5 39t50.5 112zM521 713q-6 -40 -30 -65.5t-67 -25.5q-24 0 -69 13q-39 13 -52 13q-27 0 -35 -27h-58q3 40 29 66t69 26q26 0 67 -13q36 -13 47 -13q31 0 37 26h62z" />
    <glyph glyph-name="odieresis" unicode="&#xf6;" horiz-adv-x="729" 
d="M712 277q0 -93 -52.5 -161.5t-130 -100.5t-166.5 -32q-65 0 -126.5 19t-110.5 55t-79 93t-30 127q0 90 51.5 160t130 105.5t165.5 35.5q88 0 166 -34t130 -104.5t52 -162.5zM526 275q0 76 -50.5 117t-112.5 41q-64 0 -113 -42t-49 -114q0 -69 51 -111t111 -42
q62 0 112.5 39t50.5 112zM518 669q0 -20 -16 -33.5t-39 -13.5t-40.5 14t-17.5 33t17.5 32.5t40.5 13.5t39 -13.5t16 -32.5zM311 669q0 -19 -17 -33t-40 -14t-39.5 13.5t-16.5 33.5q0 19 16.5 32.5t39.5 13.5t40 -13.5t17 -32.5z" />
    <glyph glyph-name="divide" unicode="&#xf7;" horiz-adv-x="569" 
d="M358 558q0 -32 -23 -55.5t-55 -23.5t-55.5 23.5t-23.5 55.5t23.5 55.5t55.5 23.5t55 -23.5t23 -55.5zM495 313h-421v128h421v-128zM358 203q0 -32 -23 -56t-55 -24t-55.5 24t-23.5 56t23.5 55.5t55.5 23.5t55 -23.5t23 -55.5z" />
    <glyph glyph-name="oslash" unicode="&#xf8;" horiz-adv-x="729" 
d="M712 277q0 -70 -30 -126.5t-80.5 -91t-111.5 -53t-127 -18.5q-90 0 -163 31l-68 -82l-59 49l58 71q-114 79 -114 220q0 133 105 214t242 81q89 0 168 -34l60 73l63 -45l-56 -66q49 -33 81 -91t32 -132zM526 275q0 54 -32 97l-192 -230q26 -12 61 -12q64 0 113.5 36.5
t49.5 108.5zM429 415q-32 13 -66 13q-65 0 -113.5 -40t-48.5 -111q0 -51 35 -92z" />
    <glyph glyph-name="ugrave" unicode="&#xf9;" horiz-adv-x="712" 
d="M690 535q-40 0 -40 -41v-315q0 -41 10 -57q-122 -139 -300 -139q-181 0 -308 139q10 17 10 57v316q0 19 -11.5 29.5t-28.5 10.5v24h260v-24q-39 0 -39 -41v-289q0 -36 34.5 -60t82.5 -24q52 0 90.5 23t38.5 62v289q0 19 -11.5 29.5t-29.5 10.5v24h242v-24zM428 624h-94
l-130 86h139z" />
    <glyph glyph-name="uacute" unicode="&#xfa;" horiz-adv-x="712" 
d="M690 535q-40 0 -40 -41v-315q0 -41 10 -57q-122 -139 -300 -139q-181 0 -308 139q10 17 10 57v316q0 19 -11.5 29.5t-28.5 10.5v24h260v-24q-39 0 -39 -41v-289q0 -36 34.5 -60t82.5 -24q52 0 90.5 23t38.5 62v289q0 19 -11.5 29.5t-29.5 10.5v24h242v-24zM533 711
l-129 -87h-93l83 87h139z" />
    <glyph glyph-name="ucircumflex" unicode="&#xfb;" horiz-adv-x="712" 
d="M690 535q-40 0 -40 -41v-315q0 -41 10 -57q-122 -139 -300 -139q-181 0 -308 139q10 17 10 57v316q0 19 -11.5 29.5t-28.5 10.5v24h260v-24q-39 0 -39 -41v-289q0 -36 34.5 -60t82.5 -24q52 0 90.5 23t38.5 62v289q0 19 -11.5 29.5t-29.5 10.5v24h242v-24zM551 624h-132
l-53 45l-51 -45h-131l115 86h135z" />
    <glyph glyph-name="udieresis" unicode="&#xfc;" horiz-adv-x="712" 
d="M690 535q-40 0 -40 -41v-315q0 -41 10 -57q-122 -139 -300 -139q-181 0 -308 139q10 17 10 57v316q0 19 -11.5 29.5t-28.5 10.5v24h260v-24q-39 0 -39 -41v-289q0 -36 34.5 -60t82.5 -24q52 0 90.5 23t38.5 62v289q0 19 -11.5 29.5t-29.5 10.5v24h242v-24zM519 669
q0 -20 -16 -33.5t-39 -13.5t-40.5 14t-17.5 33t17.5 32.5t40.5 13.5t39 -13.5t16 -32.5zM312 669q0 -19 -17 -33t-40 -14t-39.5 13.5t-16.5 33.5q0 19 16.5 32.5t39.5 13.5t40 -13.5t17 -32.5z" />
    <glyph glyph-name="yacute" unicode="&#xfd;" horiz-adv-x="761" 
d="M751 535q-16 0 -26.5 -7.5t-25.5 -28.5l-229 -333v-103q0 -39 41 -39v-24h-260v24q39 0 39 39v103l-229 333q-16 22 -25 29t-26 7v24h292v-24q-31 0 -31 -21q0 -6 6 -17l113 -192h2l106 189q9 15 9 26q0 15 -27 15v24h271v-24zM547 711l-129 -87h-93l83 87h139z" />
    <glyph glyph-name="thorn" unicode="&#xfe;" horiz-adv-x="644" 
d="M627 277q0 -97 -80.5 -148.5t-223.5 -51.5q-47 0 -78 3v-11q0 -25 9.5 -35t30.5 -10v-24h-261v24q21 0 30 9t9 33v427q0 42 -39 42v24h262v-24q-41 0 -41 -41v-16q20 1 53 1q164 0 246.5 -48t82.5 -154zM445 271q0 68 -138 68q-42 0 -62 -2v-132q25 -3 64 -3
q136 0 136 69z" />
    <glyph glyph-name="ydieresis" unicode="&#xff;" horiz-adv-x="761" 
d="M751 535q-16 0 -26.5 -7.5t-25.5 -28.5l-229 -333v-103q0 -39 41 -39v-24h-260v24q39 0 39 39v103l-229 333q-16 22 -25 29t-26 7v24h292v-24q-31 0 -31 -21q0 -6 6 -17l113 -192h2l106 189q9 15 9 26q0 15 -27 15v24h271v-24zM550 669q0 -20 -16 -33.5t-39 -13.5
t-40.5 14t-17.5 33t17.5 32.5t40.5 13.5t39 -13.5t16 -32.5zM343 669q0 -19 -17 -33t-40 -14t-39.5 13.5t-16.5 33.5q0 19 16.5 32.5t39.5 13.5t40 -13.5t17 -32.5z" />
    <glyph glyph-name="dotlessi" unicode="&#x131;" horiz-adv-x="309" 
d="M285 0h-261v24q39 0 39 39v431q0 18 -10.5 29.5t-28.5 11.5v24h261v-23q-17 0 -28.5 -10.5t-11.5 -29.5v-433q0 -39 40 -39v-24z" />
    <glyph glyph-name="Lslash" unicode="&#x141;" horiz-adv-x="750" 
d="M733 204l-46 -213q-24 9 -57 9h-578v26q56 0 56 60v155l-102 -49v128l102 49v245q0 60 -56 60v26h320v-26q-56 0 -56 -60v-144l147 71v-129l-147 -71v-184h319q46 0 72 56z" />
    <glyph glyph-name="lslash" unicode="&#x142;" horiz-adv-x="611" 
d="M600 170l-39 -180q-23 10 -51 10h-466v24q41 0 41 40v121l-81 -38v113l81 38v196q0 18 -10.5 29.5t-29.5 11.5v24h262v-24q-17 0 -29 -10.5t-12 -29.5v-111l112 53v-112l-112 -54v-135h256q34 0 54 42z" />
    <glyph glyph-name="OE" unicode="&#x152;" horiz-adv-x="1325" 
d="M1297 202l-45 -211q-24 9 -57 9h-611q-63 -15 -128 -15q-81 0 -156 23t-135.5 67t-96.5 114t-36 157q0 111 63 197.5t159 129.5t204 43q60 0 126 -16h606q37 0 59 8l45 -210l-24 -9q-25 53 -80 53h-350v-110h258q55 0 55 42h26v-240h-26q0 22 -12 32t-43 10h-258v-119
h344q61 0 87 56zM631 226v241q-31 40 -78 60.5t-96 20.5q-84 0 -147 -53t-63 -149q0 -93 65 -145.5t144 -52.5q49 0 96.5 19.5t78.5 58.5z" />
    <glyph glyph-name="oe" unicode="&#x153;" horiz-adv-x="1056" 
d="M1036 168l-40 -178q-25 10 -50 10h-477q-51 -12 -106 -12q-89 0 -166 31t-128.5 98.5t-51.5 159.5q0 133 105 214t242 81q50 0 105 -13h472q32 0 53 9l40 -178l-26 -8q-10 22 -23 31t-35 9h-281v-71h207q37 0 41 35h22v-207h-22q-3 37 -41 37h-207v-80h281q45 0 62 42z
M488 177v201q-49 50 -125 50q-65 0 -113.5 -40t-48.5 -111q0 -68 50.5 -107.5t111.5 -39.5q78 0 125 47z" />
    <glyph glyph-name="Scaron" unicode="&#x160;" horiz-adv-x="749" 
d="M718 227q0 -246 -372 -246q-46 0 -95.5 6.5t-81.5 13.5t-36 7q-21 0 -36 -4l-59 243l28 8q22 -56 101 -89.5t183 -33.5q76 0 110 18.5t34 45.5q0 21 -22.5 35.5t-74.5 26.5q-7 2 -166 39q-190 44 -190 199q0 107 97.5 166t266.5 59q48 0 89.5 -5t64.5 -10t27 -5
q26 0 41 5l54 -225l-26 -7q-27 45 -93 74t-142 29q-157 0 -157 -58q0 -20 24 -33t76 -25q32 -8 88.5 -21t83.5 -20q89 -22 136 -73t47 -120zM553 824l-115 -86h-134l-117 86h133l51 -45l52 45h130z" />
    <glyph glyph-name="scaron" unicode="&#x161;" horiz-adv-x="596" 
d="M580 184q0 -199 -301 -199q-37 0 -77.5 4.5t-67 9.5t-29.5 5q-20 0 -34 -5l-51 205l27 9q21 -48 71.5 -73.5t147.5 -25.5q120 0 120 46q0 14 -14.5 22.5t-56.5 18.5q-28 6 -66.5 16.5t-57.5 15.5q-161 39 -161 164q0 89 74.5 135.5t205.5 46.5q36 0 72.5 -4.5t59.5 -9
t27 -4.5q24 0 36 6l48 -188l-25 -9q-19 38 -72 60t-126 22q-64 0 -86.5 -10t-22.5 -29q0 -14 17 -22t57 -17q30 -7 76 -18.5t57 -14.5q68 -17 110 -59t42 -98zM481 710l-115 -86h-134l-117 86h133l51 -45l52 45h130z" />
    <glyph glyph-name="Ydieresis" unicode="&#x178;" horiz-adv-x="932" 
d="M921 674q-41 0 -73 -48l-279 -421v-120q0 -32 12 -45.5t43 -13.5v-26h-319v26q31 0 43.5 13t12.5 46v122l-280 416q-20 29 -34.5 40t-35.5 11v26h356v-26q-41 0 -41 -30q0 -12 10 -29l141 -247h2l136 244q13 23 13 36q0 26 -41 26v26h334v-26zM634 785q0 -20 -16 -33.5
t-39 -13.5t-40.5 14t-17.5 33t17.5 32.5t40.5 13.5t39 -13.5t16 -32.5zM427 785q0 -19 -17 -33t-40 -14t-39.5 13.5t-16.5 33.5q0 19 16.5 32.5t39.5 13.5t40 -13.5t17 -32.5z" />
    <glyph glyph-name="Zcaron" unicode="&#x17d;" horiz-adv-x="800" 
d="M768 207l-46 -216q-27 9 -61 9h-590l-39 70l391 469l-1 3h-288q-49 0 -73 -52l-23 6l45 214q28 -10 63 -10h582l34 -63l-391 -477v-3h300q24 0 44 16t30 39zM574 824l-115 -86h-134l-117 86h133l51 -45l52 45h130z" />
    <glyph glyph-name="zcaron" unicode="&#x17e;" horiz-adv-x="631" 
d="M614 167l-40 -176q-22 9 -53 9h-469l-35 62l308 360h-226q-36 0 -54 -41l-24 9l40 179q28 -10 56 -10h453l31 -59l-305 -365h241q17 0 32 11.5t22 30.5zM490 710l-115 -86h-134l-117 86h133l51 -45l52 45h130z" />
    <glyph glyph-name="florin" unicode="&#x192;" horiz-adv-x="687" 
d="M657 539l-30 -12q-16 30 -39 42t-63 12q-59 0 -65 -67l-10 -105h112v-92h-121l-27 -284q-15 -162 -207 -162q-22 0 -51.5 5t-40.5 5q-25 0 -45 -5l-40 165l31 10q28 -57 104 -57q57 0 64 66l25 257h-93v92h102l14 139q8 75 59.5 115.5t144.5 40.5q21 0 53 -4.5t43 -4.5
q20 0 40 5z" />
    <glyph glyph-name="circumflex" unicode="&#x2c6;" 
d="M548 624h-132l-53 45l-51 -45h-131l115 86h135z" />
    <glyph glyph-name="caron" unicode="&#x2c7;" 
d="M548 710l-115 -86h-134l-117 86h133l51 -45l52 45h130z" />
    <glyph glyph-name="breve" unicode="&#x2d8;" 
d="M520 700q-21 -41 -62.5 -63.5t-94.5 -22.5q-115 0 -154 86l36 23q39 -47 118 -47t118 47z" />
    <glyph glyph-name="dotaccent" unicode="&#x2d9;" 
d="M422 670q0 -20 -16.5 -33.5t-39.5 -13.5t-40 14t-17 33t17 32.5t40 13.5t39.5 -13.5t16.5 -32.5z" />
    <glyph glyph-name="ring" unicode="&#x2da;" 
d="M441 666q0 -26 -22.5 -43.5t-53.5 -17.5t-54 17.5t-23 43.5t23 43.5t54 17.5t53.5 -17.5t22.5 -43.5zM398 665q0 10 -10 18.5t-24 8.5t-23.5 -8.5t-9.5 -18.5t9.5 -18t23.5 -8t24 8t10 18z" />
    <glyph glyph-name="ogonek" unicode="&#x2db;" 
d="M481 -114q-45 -17 -106 -17q-151 0 -151 64q0 54 128 76h71q-72 -30 -72 -65q0 -28 56 -28q31 0 59 10z" />
    <glyph glyph-name="tilde" unicode="&#x2dc;" 
d="M521 713q-6 -40 -30 -65.5t-67 -25.5q-24 0 -69 13q-39 13 -52 13q-27 0 -35 -27h-58q3 40 29 66t69 26q26 0 67 -13q36 -13 47 -13q31 0 37 26h62z" />
    <glyph glyph-name="hungarumlaut" unicode="&#x2dd;" 
d="M604 703l-134 -75h-104l108 75h130zM363 703l-133 -75h-104l108 75h129z" />
    <glyph glyph-name="pi" unicode="&#x3c0;" horiz-adv-x="606" 
d="M523 0h-83q-84 0 -84 104v304h-118v-408h-99v408h-56v84h440v-84h-66v-299q0 -24 14 -24h52v-85z" />
    <glyph glyph-name="endash" unicode="&#x2013;" horiz-adv-x="493" 
d="M433 251h-373v134h373v-134z" />
    <glyph glyph-name="emdash" unicode="&#x2014;" horiz-adv-x="773" 
d="M713 251h-653v134h653v-134z" />
    <glyph glyph-name="quoteleft" unicode="&#x2018;" horiz-adv-x="313" 
d="M253 524q0 -38 -27.5 -62t-66.5 -24q-48 0 -73.5 29.5t-25.5 79.5q0 63 43.5 109.5t117.5 71.5l31 -51q-56 -20 -79 -64q80 -11 80 -89z" />
    <glyph glyph-name="quoteright" unicode="&#x2019;" horiz-adv-x="313" 
d="M253 617q0 -63 -43.5 -109.5t-116.5 -71.5l-31 51q56 20 79 64q-81 11 -81 89q0 38 28 62t67 24q48 0 73 -29.5t25 -79.5z" />
    <glyph glyph-name="quotesinglbase" unicode="&#x201a;" horiz-adv-x="273" 
d="M233 60q0 -126 -160 -181l-31 50q56 20 79 64q-81 11 -81 89q0 38 28 61.5t67 23.5q48 0 73 -30t25 -77z" />
    <glyph glyph-name="quotedblleft" unicode="&#x201c;" horiz-adv-x="542" 
d="M482 524q0 -39 -27.5 -62.5t-66.5 -23.5q-48 0 -73.5 29.5t-25.5 79.5q0 63 43.5 109.5t117.5 71.5l30 -51q-54 -19 -78 -64q80 -11 80 -89zM253 524q0 -38 -27.5 -62t-66.5 -24q-48 0 -73.5 29.5t-25.5 79.5q0 63 43.5 109.5t117.5 71.5l31 -51q-56 -20 -79 -64
q80 -11 80 -89z" />
    <glyph glyph-name="quotedblright" unicode="&#x201d;" horiz-adv-x="542" 
d="M482 617q0 -65 -43 -110.5t-117 -70.5l-31 51q56 20 79 64q-35 5 -58 27t-23 62q0 38 28 62t67 24q48 0 73 -29.5t25 -79.5zM253 617q0 -63 -43.5 -109.5t-116.5 -71.5l-31 51q56 20 79 64q-81 11 -81 89q0 38 28 62t67 24q48 0 73 -29.5t25 -79.5z" />
    <glyph glyph-name="quotedblbase" unicode="&#x201e;" horiz-adv-x="502" 
d="M462 60q0 -126 -160 -181l-31 50q56 20 79 64q-81 11 -81 89q0 38 28 61.5t67 23.5q48 0 73 -30t25 -77zM233 60q0 -126 -160 -181l-31 50q56 20 79 64q-81 11 -81 89q0 38 28 61.5t67 23.5q48 0 73 -30t25 -77z" />
    <glyph glyph-name="dagger" unicode="&#x2020;" horiz-adv-x="583" 
d="M523 396h-21q-4 22 -46 31l-112 25l44 -131l-59 -370h-73l-61 370l43 131l-110 -25q-43 -10 -47 -30h-21v67v22v112h21q3 -18 47 -29l110 -25l-30 103q-5 15 -11.5 21t-24.5 7v25h99h58h83v-25q-31 -2 -39 -28l-29 -103l112 25q40 9 46 30h21v-122v-23v-58z" />
    <glyph glyph-name="daggerdbl" unicode="&#x2021;" horiz-adv-x="583" 
d="M523 54h-21q-2 13 -12 19.5t-34 11.5l-109 24l27 -103q6 -27 37 -29v-26h-83h-57h-100v26q19 1 26 7.5t11 21.5l29 103l-109 -24q-43 -9 -47 -30h-21v201h21q2 -12 11.5 -17.5t35.5 -11.5l109 -25l-44 129l44 120l-109 -25q-24 -6 -34.5 -12t-12.5 -17h-21v201h21
q2 -12 11 -17.5t36 -11.5l109 -24l-29 101q-5 15 -11.5 21t-25.5 7v26h240v-26q-31 -2 -37 -28l-27 -100l109 23q24 5 33 11.5t13 18.5h21v-203h-21q-2 12 -12.5 19t-33.5 12l-109 24l42 -120l-42 -128l109 25q26 6 34 11.5t12 17.5h21v-203z" />
    <glyph glyph-name="bullet" unicode="&#x2022;" horiz-adv-x="469" 
d="M409 340q0 -73 -51 -123.5t-124 -50.5t-123.5 50.5t-50.5 123.5t50.5 124t123.5 51t124 -51t51 -124z" />
    <glyph glyph-name="ellipsis" unicode="&#x2026;" horiz-adv-x="859" 
d="M819 76q0 -42 -27 -66t-68 -24t-69.5 24t-28.5 66q0 40 29 65.5t69 25.5t67.5 -25.5t27.5 -65.5zM526 76q0 -42 -27 -66t-68 -24t-69.5 24t-28.5 66q0 40 29 65.5t69 25.5t67.5 -25.5t27.5 -65.5zM233 76q0 -42 -27 -66t-68 -24t-69.5 24t-28.5 66q0 40 29 65.5t69 25.5
t67.5 -25.5t27.5 -65.5z" />
    <glyph glyph-name="perthousand" unicode="&#x2030;" horiz-adv-x="1619" 
d="M1579 177q0 -79 -70 -132t-163 -53t-164 53t-71 132t71 133t164 54t163 -54t70 -133zM1080 177q0 -79 -70 -132t-164 -53q-93 0 -164 53t-71 132t71 133t164 54t163.5 -54t70.5 -133zM904 711l-530 -719h-162l528 719h164zM508 524q0 -79 -70.5 -132.5t-163.5 -53.5
t-163.5 53.5t-70.5 132.5t70.5 132.5t163.5 53.5t163.5 -53.5t70.5 -132.5zM1425 177q0 32 -21.5 55.5t-57.5 23.5t-57.5 -23.5t-21.5 -55.5t21.5 -55.5t57.5 -23.5t57.5 23.5t21.5 55.5zM925 177q0 32 -21.5 55.5t-57.5 23.5t-57 -23.5t-21 -55.5t21 -55.5t57 -23.5
t57.5 23.5t21.5 55.5zM354 524q0 32 -22 55.5t-58 23.5t-57.5 -23.5t-21.5 -55.5t21.5 -55.5t57.5 -23.5t58 23.5t22 55.5z" />
    <glyph glyph-name="guilsinglleft" unicode="&#x2039;" horiz-adv-x="368" 
d="M298 101h-141l-87 171v9l87 166h141l-91 -172z" />
    <glyph glyph-name="guilsinglright" unicode="&#x203a;" horiz-adv-x="368" 
d="M298 272l-87 -171h-141l91 174l-91 172h141l87 -166v-9z" />
    <glyph glyph-name="fraction" unicode="&#x2044;" horiz-adv-x="716" 
d="M704 711l-530 -719h-162l528 719h164z" />
    <glyph glyph-name="Euro" unicode="&#x20ac;" horiz-adv-x="810" 
d="M783 202l-52 -208q-12 5 -34 5q-4 0 -31 -3.5t-72.5 -7t-93.5 -3.5q-152 0 -253.5 73.5t-135.5 200.5h-94l24 71h60q-1 22 0 46h-84l24 71h73q34 120 137 193.5t249 73.5q56 0 125 -7.5t74 -7.5q21 0 33 6l50 -206l-23 -10q-20 38 -65.5 55t-136.5 17q-147 0 -218 -114
h316l-24 -71h-315q-3 -21 0 -46h339l-24 -71h-299q66 -121 224 -121q90 0 136 17.5t69 55.5z" />
    <glyph glyph-name="trademark" unicode="&#x2122;" horiz-adv-x="708" 
d="M648 477h-104v13q16 0 16 16v83h-2l-65 -106h-17l-65 104h-2v-81q0 -16 17 -16v-13h-97v13q17 0 17 16v162q0 16 -17 16v16h93q0 -8 5 -16l64 -99h2l59 99q5 8 5 16h91v-16q-15 0 -15 -16v-162q0 -16 15 -16v-13zM324 632l-16 -6q-7 19 -23 19h-57v-139q0 -16 16 -16v-13
h-104v13q15 0 15 16v139h-54q-16 0 -25 -18l-16 5l16 73q10 -5 22 -5h188q12 0 22 5z" />
    <glyph glyph-name="Omega" unicode="&#x2126;" horiz-adv-x="781" 
d="M698 344q0 -87 -44 -158.5t-83 -98.5h114l-12 -87h-225v98q6 2 16.5 7t36.5 25t45.5 45.5t36 70.5t16.5 98q0 106 -56.5 169t-151.5 63t-152 -63t-57 -169q0 -53 15.5 -98.5t37.5 -71.5t44 -44t37 -25l16 -7v-98h-224l-13 87h114q-39 27 -82.5 98.5t-43.5 158.5
q0 141 82 229.5t225 88.5t225.5 -88t82.5 -230z" />
    <glyph glyph-name="partialdiff" unicode="&#x2202;" horiz-adv-x="603" 
d="M520 237q0 -116 -59 -181.5t-156 -65.5q-107 0 -164.5 54.5t-57.5 165.5q0 95 59.5 152.5t143.5 57.5q43 0 88 -16q-38 64 -93 102.5t-130 64.5l45 74q106 -28 180.5 -93t109 -145t34.5 -170zM419 225q0 51 -11 80q-41 29 -113 29q-45 0 -78 -33.5t-33 -90.5
q0 -60 32 -95.5t89 -35.5q51 0 82.5 42t31.5 104z" />
    <glyph glyph-name="Delta" unicode="&#x2206;" horiz-adv-x="642" 
d="M592 0h-542l272 646zM446 90l-147 355l-140 -354z" />
    <glyph glyph-name="product" unicode="&#x220f;" horiz-adv-x="812" 
d="M729 0h-251v76h71v528h-287v-528h69v-76h-248v76h70v528h-70v77h646v-77h-70v-528h70v-76z" />
    <glyph glyph-name="summation" unicode="&#x2211;" horiz-adv-x="714" 
d="M631 105l-28 -105h-506l-14 98l218 241l-217 243l12 99h508l25 -105h-382l203 -237l-204 -234h385z" />
    <glyph glyph-name="minus" unicode="&#x2212;" horiz-adv-x="524" 
d="M464 283h-404v129h404v-129z" />
    <glyph glyph-name="radical" unicode="&#x221a;" horiz-adv-x="588" 
d="M505 669l-238 -669h-57l-80 305h-47v56h121l45 -204l169 512h87z" />
    <glyph glyph-name="infinity" unicode="&#x221e;" horiz-adv-x="760" 
d="M680 348q0 -58 -35 -93t-92 -35q-88 0 -173 78q-89 -78 -172 -78q-57 0 -92.5 34.5t-35.5 90.5q0 54 37 89.5t96 35.5q46 0 84 -20.5t83 -58.5q88 79 166 79q60 0 97 -33t37 -89zM596 343q0 22 -14.5 37t-39.5 15q-49 0 -100 -51q56 -50 96 -50q27 0 42.5 13.5t15.5 35.5
zM319 344q-19 18 -29 26t-29 16.5t-40 8.5q-26 0 -41.5 -17t-15.5 -35q0 -21 17.5 -35t40.5 -14q19 0 38 9t29 16.5t30 24.5z" />
    <glyph glyph-name="integral" unicode="&#x222b;" horiz-adv-x="410" 
d="M346 691l-18 -81h-1q-18 15 -34 15q-43 0 -43 -59v-606q0 -54 -33 -90t-83 -36q-35 0 -70 13l17 81h2q14 -14 32 -14q44 0 44 56v605q0 60 34 94.5t82 34.5q32 0 71 -13z" />
    <glyph glyph-name="approxequal" unicode="&#x2248;" horiz-adv-x="635" 
d="M552 358q-27 -48 -64.5 -73t-75.5 -25t-97.5 23t-87.5 23q-24 0 -39.5 -15t-30.5 -43l-74 49q69 96 150 96q35 0 97 -21t80 -21q40 0 74 55zM552 194q-27 -48 -64 -72.5t-76 -24.5q-38 0 -97.5 22.5t-87.5 22.5q-24 0 -39.5 -15t-30.5 -43l-74 49q69 96 150 96
q35 0 97 -21t80 -21q25 0 41.5 14t32.5 40z" />
    <glyph glyph-name="notequal" unicode="&#x2260;" horiz-adv-x="633" 
d="M553 225h-272l-88 -140l-78 45l59 95h-94v92h152l42 68h-194v93h251l89 142l78 -45l-60 -97h115v-93h-172l-43 -68h215v-92z" />
    <glyph glyph-name="lessequal" unicode="&#x2264;" horiz-adv-x="503" 
d="M443 135l-382 172v85l382 170v-105l-244 -108l244 -109v-105zM443 0h-383v89h383v-89z" />
    <glyph glyph-name="greaterequal" unicode="&#x2265;" horiz-adv-x="503" 
d="M442 307l-382 -172v105l244 109l-244 108v105l382 -170v-85zM443 0h-383v89h383v-89z" />
    <glyph glyph-name="lozenge" unicode="&#x25ca;" horiz-adv-x="567" 
d="M484 345l-176 -344h-50l-175 344l175 336h50zM381 343l-98 190l-97 -190l97 -194z" />
    <glyph glyph-name="fi" unicode="&#xfb01;" horiz-adv-x="678" 
d="M618 353q-94 -154 -240 -154q-49 0 -104.5 24.5t-98.5 49t-61 24.5q-25 0 -43 -11l-11 18q85 98 190 98q34 0 133 -31t147 -31q47 0 74 27z" />
    <glyph glyph-name="fl" unicode="&#xfb02;" horiz-adv-x="678" 
d="M618 353q-94 -154 -240 -154q-49 0 -104.5 24.5t-98.5 49t-61 24.5q-25 0 -43 -11l-11 18q85 98 190 98q34 0 133 -31t147 -31q47 0 74 27z" />
    <glyph glyph-name="typedesign.com" horiz-adv-x="890" 
d="M790 350q0 -137 -101 -235t-243 -98q-143 0 -244.5 98t-101.5 235t101.5 235t244.5 98q142 0 243 -98t101 -235zM756 347q0 120 -83 206t-211 96v-598q44 0 77 13v245h215q2 20 2 38zM721 178v104h-150v-104h150zM322 408v104h-149v-104h149zM426 51v596q-45 0 -75 -12
v-480q-62 29 -96 80t-34 116q0 21 2 37h-88q-2 -26 -2 -37q0 -124 86 -207.5t207 -92.5zM664 388h-125v157q42 -10 81.5 -58.5t43.5 -98.5zM693 204h-96v53h96v-53zM296 433h-96v54h96v-54z" />
    </font>
</defs>
</svg>
