<?xml version="1.0" standalone="no"?>
<!DOCTYPE svg PUBLIC "-//W3C//DTD SVG 1.1//EN" "http://www.w3.org/Graphics/SVG/1.1/DTD/svg11.dtd" >
<svg xmlns="http://www.w3.org/2000/svg" xmlns:xlink="http://www.w3.org/1999/xlink" version="1.1">
<metadata>
Created by FontForge 20190801 at Mon Jun 23 19:41:20 2014
 By www-data
Modesto. (c) Copyright, 2000. Parkinson Type Design.
</metadata>
<defs>
<font id="ParkinsonModestoPosterRegular" horiz-adv-x="622" >
  <font-face 
    font-family="ParkinsonModestoPosterRegular"
    font-weight="400"
    font-stretch="normal"
    units-per-em="1000"
    panose-1="2 0 5 3 5 0 0 2 0 4"
    ascent="808"
    descent="-192"
    x-height="559"
    cap-height="700"
    bbox="-12 -155 1271 847"
    underline-thickness="20"
    underline-position="-133"
    unicode-range="U+0020-FB02"
  />
<missing-glyph horiz-adv-x="1000" 
 />
    <glyph glyph-name=".notdef" horiz-adv-x="1000" 
 />
    <glyph glyph-name=".null" horiz-adv-x="0" 
 />
    <glyph glyph-name="nonmarkingreturn" horiz-adv-x="333" 
 />
    <glyph glyph-name="NUL" horiz-adv-x="0" 
 />
    <glyph glyph-name="NUL" horiz-adv-x="0" 
 />
    <glyph glyph-name="space" unicode=" " horiz-adv-x="212" 
 />
    <glyph glyph-name="exclam" unicode="!" horiz-adv-x="285" 
d="M257 678q-21 0 -25 -29l-50 -389h-81l-49 389q-4 29 -24 29v22h229v-22zM223 62q0 -36 -23.5 -57t-57.5 -21q-35 0 -59 21t-24 57q0 34 24.5 56t58.5 22t57.5 -22t23.5 -56z" />
    <glyph glyph-name="quotedbl" unicode="&#x22;" horiz-adv-x="345" 
d="M308 708l-20 -240h-79l-20 240h119zM156 708l-20 -240h-79l-20 240h119z" />
    <glyph glyph-name="numbersign" unicode="#" horiz-adv-x="576" 
d="M546 480l-25 -87h-81l-25 -94h83l-23 -86h-82l-47 -173h-106l46 173h-72l-46 -173h-102l45 173h-81l25 86h80l24 94h-85l26 87h83l49 179h99l-47 -179h74l47 179h107l-47 -179h81zM334 393h-73l-24 -94h73z" />
    <glyph glyph-name="dollar" unicode="$" horiz-adv-x="603" 
d="M543 232q0 -74 -47 -122t-133 -61v-96h-99v91q-16 2 -33.5 5t-38.5 7t-33 6q-9 2 -22 2q-12 0 -40 -10l-37 207l36 9q11 -37 29 -54q37 -34 150 -34q92 0 92 35q0 10 -6.5 17t-35.5 22t-90 40q-162 66 -162 175q0 72 50 119.5t141 60.5v95h99v-90q22 -3 51 -8
q28 -5 40 -5q14 0 40 9l21 -189l-36 -8q-9 32 -29 45q-27 18 -111 18q-82 0 -82 -29q0 -8 7 -14.5t33.5 -20t79.5 -34.5q79 -32 122.5 -75t43.5 -113z" />
    <glyph glyph-name="percent" unicode="%" horiz-adv-x="916" 
d="M876 191q0 -91 -47 -146.5t-131 -55.5t-131 55.5t-47 146.5q0 87 51 140.5t127 53.5t127 -53.5t51 -140.5zM737 711l-418 -719h-140l416 719h142zM396 516q0 -91 -47 -146.5t-131 -55.5t-131 55.5t-47 146.5q0 87 51 140.5t127 53.5t127 -53.5t51 -140.5zM760 190
q0 96 -63 96q-28 0 -44.5 -24.5t-16.5 -71.5q0 -103 61 -103q63 0 63 103zM280 515q0 48 -17 72.5t-46 24.5q-28 0 -44.5 -24.5t-16.5 -71.5q0 -104 61 -104q63 0 63 103z" />
    <glyph glyph-name="ampersand" unicode="&#x26;" horiz-adv-x="717" 
d="M707 302q0 -31 -14 -68l-19 2q-2 34 -28 34q-21 0 -47 -26t-41 -60l58 -117q22 -43 65 -43v-24h-213l-28 53q-78 -70 -188 -70q-107 0 -170.5 56.5t-63.5 162.5q0 172 205 262l-124 236h394q16 0 34 6l48 -183l-26 -8q-15 40 -52 40h-140l134 -247q21 35 54 61t71 26
q41 0 66 -26t25 -67zM381 173l-85 152q-108 -36 -108 -114q0 -37 25 -61.5t60 -24.5q60 0 108 48z" />
    <glyph glyph-name="quotesingle" unicode="'" horiz-adv-x="193" 
d="M156 708l-20 -240h-79l-20 240h119z" />
    <glyph glyph-name="parenleft" unicode="(" horiz-adv-x="408" 
d="M368 -61q-124 21 -206 127t-82 275q0 91 24 164.5t65.5 121t91.5 76.5t107 39v-42q-129 -80 -129 -359q0 -273 129 -358v-44z" />
    <glyph glyph-name="parenright" unicode=")" horiz-adv-x="408" 
d="M328 341q0 -169 -82 -275t-206 -127v44q129 85 129 358q0 279 -129 359v42q57 -10 107 -39t91.5 -76.5t65.5 -121t24 -164.5z" />
    <glyph glyph-name="asterisk" unicode="*" horiz-adv-x="357" 
d="M317 569l-88 -6v-1l65 -63l-78 -56l-37 82h-1l-37 -82l-78 55l62 64v1l-85 9l26 92l78 -43v1l-11 85h94l-17 -85l1 -1l81 43z" />
    <glyph glyph-name="plus" unicode="+" horiz-adv-x="531" 
d="M476 270h-158v-158h-105v158h-158v104h158v158h105v-158h158v-104z" />
    <glyph glyph-name="comma" unicode="," horiz-adv-x="234" 
d="M199 49q0 -54 -37.5 -94t-99.5 -61l-26 43q48 18 68 55q-69 9 -69 76q0 32 23.5 52.5t56.5 20.5q41 0 62.5 -26t21.5 -66z" />
    <glyph glyph-name="hyphen" unicode="-" horiz-adv-x="363" 
d="M308 234h-253v114h253v-114z" />
    <glyph glyph-name="period" unicode="." horiz-adv-x="234" 
d="M199 65q0 -36 -23 -56.5t-58 -20.5t-59 20.5t-24 56.5q0 34 24.5 56.5t58.5 22.5t57.5 -22t23.5 -57z" />
    <glyph glyph-name="slash" unicode="/" horiz-adv-x="391" 
d="M371 752l-234 -804h-117l233 804h118z" />
    <glyph glyph-name="zero" unicode="0" horiz-adv-x="704" 
d="M676 357q0 -165 -86 -268.5t-238 -103.5q-151 0 -237.5 104t-86.5 268q0 158 93 258.5t231 100.5t231 -100.5t93 -258.5zM490 355q0 103 -39 157.5t-100 54.5t-98 -55t-37 -155q0 -108 36 -166t99 -58q66 0 102.5 57.5t36.5 164.5z" />
    <glyph glyph-name="one" unicode="1" horiz-adv-x="456" 
d="M391 0h-253v22q20 0 30 13t10 47v422q-58 -24 -137 -26v106q19 2 44 8.5t56 19t56 35.5t35 53h126q-8 -25 -8 -58v-560q0 -60 41 -60v-22z" />
    <glyph glyph-name="two" unicode="2" horiz-adv-x="631" 
d="M607 190l-44 -198q-19 8 -68 8h-471q0 120 73.5 220.5t186.5 153.5q72 35 98.5 63t26.5 61q0 76 -142 70q-82 -3 -127 -24.5t-70 -63.5l-27 8l48 213q17 -4 44 -4q11 0 78.5 9t102.5 9q139 0 209 -56t70 -155q0 -142 -161 -217q-86 -40 -127 -68t-58 -68h257
q28 0 45.5 9.5t29.5 35.5z" />
    <glyph glyph-name="three" unicode="3" horiz-adv-x="627" 
d="M605 213q0 -98 -83 -160.5t-202 -62.5q-48 0 -112.5 5t-72.5 5q-23 0 -35 -5l-55 218l27 7q30 -49 78.5 -69.5t131.5 -20.5q63 0 98 22.5t35 61.5q0 86 -136 86h-32v131h38q54 0 83 21.5t29 53.5q0 38 -31 53.5t-98 15.5q-85 0 -123 -18t-62 -58l-24 9l47 203
q18 -5 44 -5q5 0 55 5.5t93 5.5q133 0 207.5 -47.5t74.5 -137.5q0 -100 -121 -145v-2q66 -13 106 -57t40 -115z" />
    <glyph glyph-name="four" unicode="4" horiz-adv-x="701" 
d="M681 269l-34 -136h-78v-49q0 -34 10 -48t31 -14v-22h-255v22q41 0 41 62v49h-372v94l297 473h262q-14 -32 -14 -59v-382h43q29 0 69 10zM397 259v312l-182 -312h182z" />
    <glyph glyph-name="five" unicode="5" horiz-adv-x="637" 
d="M615 224q0 -112 -86.5 -176t-234.5 -64q-42 0 -110.5 12.5t-76.5 12.5q-25 0 -37 -4l-48 200l27 8q24 -43 72 -64t158 -21q150 0 150 98q0 91 -135 91q-110 0 -162 -43l-102 43l75 383h360q34 0 62 10l48 -206l-25 -6q-13 29 -35 40t-60 11h-215l-23 -106q47 11 127 11
q121 0 196 -58t75 -172z" />
    <glyph glyph-name="six" unicode="6" horiz-adv-x="673" 
d="M651 230q0 -104 -81.5 -175t-219.5 -71q-159 0 -240.5 92t-81.5 264q0 176 96.5 275.5t245.5 99.5q51 0 101 -6t52 -6q26 0 39 4l44 -189l-22 -8q-16 24 -32 36t-52.5 20t-98.5 8q-84 0 -130.5 -41t-51.5 -114q66 36 161 36q128 0 199.5 -58t71.5 -167zM471 224
q0 45 -32.5 68.5t-90.5 23.5q-79 0 -128 -29q0 -70 30 -112.5t91 -42.5q60 0 95 25.5t35 66.5z" />
    <glyph glyph-name="seven" unicode="7" horiz-adv-x="627" 
d="M617 638q-121 -109 -190.5 -266.5t-69.5 -319.5q0 -29 37 -29v-23h-234q0 142 64 302.5t163 246.5v0v0v0v0v0v0v0v0v0h1v0v0v0v0v0v0v0v0h1v0v0v0v0v0v0v0v0v0v0v0h1v0v0v0v0v0v0v0v0v0v0v0v0v0v0h-1v0v0v0v0v0v0v0v0h-1v0v0v0v0v0h-1v0v0v0h-1v0v0v0h-1v0v0h-1v0v0h-1v0
v0h-1v0v0h-1v0v0h-1v0h-1v0h-1v0h-1v0h-1v0h-1v0h-1v0h-1v0h-1v0h-1v0h-1v0h-1v0h-1v0h-1v0h-1v0h-1h-1v0h-1h-1v0h-1h-1v0h-1h-1v0h-1h-1h-1v0h-1h-1h-1h-1v0h-1h-1h-1h-1h-1h-1h-1h-1h-1h-1h-1h-1h-1h-1h-1h-1h-1h-1h-1h-1h-1h-1h-1h-1h-1h-1h-1h-1h-1h-1h-1h-1h-1h-1h-1
h-1h-1h-1h-1h-1h-1h-1h-1h-1h-1h-1h-1h-1h-1h-1h-1h-1h-1h-1h-1h-1h-1h-1h-1h-1h-1h-1h-1h-1h-1h-1h-1h-1h-1h-1h-1h-1h-1h-1h-1h-1h-1h-1h-1h-1h-1h-1h-1h-1h-1h-1h-1h-1h-1h-1h-1h-1h-1h-1h-1h-1h-1h-1h-1h-1h-1h-1h-1h-1h-1h-1h-1h-1h-1h-1h-1h-1h-1h-1h-1h-1h-1h-1h-1
h-1h-1h-1h-1h-1h-1h-1h-1h-1h-1h-1h-1h-1h-1h-1h-1h-1h-1h-1h-1h-1h-1h-1h-1h-1h-1h-1h-1h-1h-1h-1h-1h-1h-1h-1h-1h-1h-1h-1h-1h-1h-1h-1h-1h-1h-1h-1h-1h-1h-1h-1h-1h-1h-1h-1h-1h-1h-1h-1h-1h-1h-1h-1h-1h-1h-1h-1h-1h-1h-1h-1h-1h-1h-1h-1h-1h-1h-1h-1h-1h-1h-1h-1h-1
h-1h-1h-1h-1h-1h-1h-1h-1h-1h-1h-1h-1h-1h-1h-1h-1h-1h-1h-1h-1h-1h-1h-1h-1h-1h-1h-1h-1h-1h-10q-48 0 -69 -44l-26 8l45 198q28 -11 57 -11h468z" />
    <glyph glyph-name="eight" unicode="8" horiz-adv-x="649" 
d="M629 198q0 -91 -76 -152t-228 -61q-154 0 -229.5 61.5t-75.5 151.5q0 132 133 175v2q-92 44 -92 151q0 84 70.5 137t193.5 53q127 0 195.5 -54t68.5 -135q0 -109 -90 -152v-1q58 -19 94 -63t36 -113zM423 496q0 35 -26 56.5t-72 21.5q-44 0 -71.5 -21t-27.5 -57
q0 -35 26.5 -55.5t72.5 -20.5t72 21.5t26 54.5zM456 213q0 38 -33.5 62.5t-97.5 24.5q-62 0 -97 -24.5t-35 -62.5q0 -40 34.5 -64.5t97.5 -24.5q65 0 98 24.5t33 64.5z" />
    <glyph glyph-name="nine" unicode="9" horiz-adv-x="664" 
d="M636 363q0 -179 -88 -276t-227 -97q-39 0 -104.5 4.5t-69.5 4.5q-22 0 -39 -5l-45 194l22 6q22 -34 64 -50.5t119 -16.5q87 0 134.5 43.5t49.5 114.5q-66 -36 -166 -36q-124 0 -194 61t-70 159q0 110 75.5 178.5t218.5 68.5q155 0 237.5 -92t82.5 -261zM452 418
q0 69 -32.5 110t-94.5 41q-63 0 -97.5 -24t-34.5 -71q0 -87 125 -87q82 0 134 31z" />
    <glyph glyph-name="colon" unicode=":" horiz-adv-x="234" 
d="M199 353q0 -36 -23 -56.5t-58 -20.5t-59 20.5t-24 56.5q0 34 24.5 56t58.5 22t57.5 -22t23.5 -56zM199 67q0 -36 -23 -56.5t-58 -20.5t-59 20.5t-24 56.5q0 34 24.5 56t58.5 22t57.5 -22t23.5 -56z" />
    <glyph glyph-name="semicolon" unicode=";" horiz-adv-x="235" 
d="M200 350q0 -36 -23.5 -57t-58.5 -21t-59 21t-24 57q0 34 24.5 56t58.5 22t58 -22t24 -56zM200 49q0 -54 -37.5 -94t-100.5 -61l-26 43q48 18 68 55q-69 9 -69 76q0 32 23.5 52.5t56.5 20.5q41 0 63 -26t22 -66z" />
    <glyph glyph-name="less" unicode="&#x3c;" horiz-adv-x="511" 
d="M456 100l-401 180v77l401 180v-130l-220 -89l220 -87v-131z" />
    <glyph glyph-name="equal" unicode="=" horiz-adv-x="482" 
d="M427 343h-372v117h372v-117zM427 179h-372v115h372v-115z" />
    <glyph glyph-name="greater" unicode="&#x3e;" horiz-adv-x="511" 
d="M456 280l-401 -180v131l221 87l-221 89v130l401 -180v-77z" />
    <glyph glyph-name="question" unicode="?" horiz-adv-x="463" 
d="M435 535q0 -94 -98 -161q-33 -23 -48.5 -35t-29 -30t-13.5 -36q0 -20 24 -20v-23h-138q-6 18 -6 36q0 75 60 125q48 40 66 67t18 53q0 67 -88 67q-92 0 -133 -74l-21 8l40 199q11 -5 38 -5q6 0 51 5.5t76 5.5q96 0 149 -48.5t53 -133.5zM282 62q0 -36 -23.5 -57
t-57.5 -21q-35 0 -58.5 21t-23.5 57q0 34 24 55.5t58 21.5t57.5 -21.5t23.5 -55.5z" />
    <glyph glyph-name="at" unicode="@" horiz-adv-x="946" 
d="M866 342q0 -109 -50 -179.5t-147 -70.5q-91 0 -125 43q-35 -39 -99 -39q-56 0 -88.5 33.5t-32.5 87.5q0 58 50.5 97.5t138.5 70.5v3q0 48 -62 48q-30 0 -52.5 -15t-28.5 -34l-20 6l21 139q18 -9 30 -9q8 0 45 5.5t53 5.5q136 0 136 -123v-196q0 -34 41 -34q45 0 65 38
t20 121q0 127 -73 201t-203 74q-129 0 -210 -85.5t-81 -212.5q0 -138 79 -217.5t212 -79.5q81 0 154 41q31 -67 44 -94q-93 -46 -198 -46q-183 0 -294 109t-111 287q0 165 117 279.5t288 114.5q172 0 276.5 -102.5t104.5 -266.5zM513 228v67q-33 -14 -51 -28.5t-18 -36.5
q0 -15 11.5 -25t22.5 -10q12 0 23.5 10.5t11.5 22.5z" />
    <glyph glyph-name="A" unicode="A" horiz-adv-x="712" 
d="M704 0h-272v22q39 0 39 30q0 7 -6 25l-5 17q-45 -16 -108 -16q-58 0 -106 16l-7 -19q-6 -15 -6 -25q0 -28 34 -28v-22h-259v22q20 0 28.5 7.5t18.5 37.5l185 548q8 27 8 38q0 25 -23 25v22h265v-22q-24 0 -24 -26q0 -12 12 -48l179 -535q10 -30 19 -38.5t28 -8.5v-22z
M425 230l-73 274h-1l-72 -274q38 -12 77 -12q44 0 69 12z" />
    <glyph glyph-name="B" unicode="B" horiz-adv-x="653" 
d="M627 210q0 -220 -361 -220q-132 0 -234 10v22q21 0 30.5 12t9.5 43v550q0 51 -40 51v22q117 10 242 10q165 0 245.5 -40.5t80.5 -144.5q0 -51 -30.5 -87.5t-74.5 -52.5v-1q132 -39 132 -174zM427 502q0 31 -27 47.5t-103 16.5q-23 0 -45 -2v-127q22 -3 56 -3q65 0 92 16
t27 52zM449 217q0 36 -26.5 58.5t-100.5 22.5q-46 0 -70 -3v-160q32 -2 42 -2q90 0 122.5 19t32.5 65z" />
    <glyph glyph-name="C" unicode="C" horiz-adv-x="637" 
d="M611 216l-43 -220q-15 5 -36 5q-4 0 -29.5 -3.5t-62 -7t-67.5 -3.5q-149 0 -247 97.5t-98 266.5q0 88 30 159t79 114.5t110 67t126 23.5q37 0 97 -6t62 -6q9 0 18 1.5t14 3.5l4 1l39 -206l-30 -9q-23 75 -163 75q-85 0 -142.5 -55t-57.5 -164q0 -108 59 -160t144 -52
q68 0 107.5 19t55.5 68z" />
    <glyph glyph-name="D" unicode="D" horiz-adv-x="699" 
d="M671 358q0 -173 -99 -270t-313 -97q-148 0 -227 9v22q40 0 40 57v549q0 22 -11 35.5t-29 14.5v22q102 10 243 10q196 0 296 -95t100 -257zM484 356q0 102 -49 155.5t-127 53.5q-24 0 -56 -2v-423q18 -3 54 -3q83 0 130.5 56.5t47.5 162.5z" />
    <glyph glyph-name="E" unicode="E" horiz-adv-x="594" 
d="M570 180l-41 -191q-31 11 -66 11h-431v22q40 0 40 52v553q0 22 -11.5 37t-28.5 15v21h438q26 0 57 7l35 -178l-21 -7q-13 22 -25 29.5t-38 7.5h-226v-121h206q34 0 34 30h23v-203h-23q0 29 -34 29h-206v-150h229q27 0 40 9t25 35z" />
    <glyph glyph-name="F" unicode="F" horiz-adv-x="581" 
d="M563 529l-22 -7q-12 21 -23 29t-30 8h-236v-139h204q36 0 36 31h23v-204h-22q0 30 -37 30h-204v-203q0 -52 40 -52v-22h-260v22q40 0 40 52v554q0 22 -11.5 36t-28.5 14v22h439q30 0 56 7z" />
    <glyph glyph-name="G" unicode="G" horiz-adv-x="692" 
d="M674 322q-39 0 -39 -44v-186q0 -24 12 -41q-117 -74 -273 -74t-251 105.5t-95 272.5q0 83 31 153t80.5 114t106.5 68.5t112 24.5q40 0 88.5 -5.5t50.5 -5.5q9 0 18.5 2t14.5 4l4 2l55 -212l-28 -10q-11 34 -37 52q-38 27 -109 27q-84 0 -142 -55t-58 -157
q0 -105 48.5 -168.5t121.5 -63.5q44 0 74 13v140q0 44 -39 44v22h254v-22z" />
    <glyph glyph-name="H" unicode="H" horiz-adv-x="739" 
d="M707 0h-259v22q40 0 40 58v209h-236v-209q0 -58 40 -58v-22h-260v22q40 0 40 58v552q0 22 -11.5 34t-28.5 12v22h260v-22q-40 0 -40 -57v-182h236v193q0 46 -40 46v22h259v-22q-21 0 -30 -13t-9 -44v-541q0 -31 9 -44.5t30 -13.5v-22z" />
    <glyph glyph-name="I" unicode="I" horiz-adv-x="324" 
d="M292 0h-260v22q40 0 40 57v549q0 22 -11.5 36t-28.5 14v22h260v-22q-40 0 -40 -55v-544q0 -57 40 -57v-22z" />
    <glyph glyph-name="J" unicode="J" horiz-adv-x="557" 
d="M525 678q-21 0 -30 -11.5t-9 -42.5v-445q0 -59 16 -77q-52 -62 -111.5 -93.5t-147.5 -31.5q-56 0 -104 15t-71 29.5t-54 39.5q93 162 101 176l22 -11q-5 -15 -5 -36q0 -26 24.5 -45.5t68.5 -19.5q80 0 80 96v406q0 30 -9 40.5t-30 10.5v22h259v-22z" />
    <glyph glyph-name="K" unicode="K" horiz-adv-x="700" 
d="M688 0h-243q-20 44 -60 167q-36 113 -44 150l-89 -122v-116q0 -57 40 -57v-22h-260v22q40 0 40 57v546q0 30 -9.5 41.5t-30.5 11.5v22h260v-22q-22 0 -31 -11t-9 -42v-220h5l147 210q16 22 16 35q0 28 -26 28v22h290v-22q-19 0 -28.5 -7.5t-28.5 -31.5l-150 -187
q21 -90 65 -198t86 -185q14 -26 27.5 -36.5t32.5 -10.5v-22z" />
    <glyph glyph-name="L" unicode="L" horiz-adv-x="584" 
d="M570 180l-42 -191q-29 11 -57 11h-439v22q40 0 40 55v552q0 22 -11 35.5t-29 13.5v22h260v-22q-40 0 -40 -54v-480h236q41 0 58 44z" />
    <glyph glyph-name="M" unicode="M" horiz-adv-x="866" 
d="M834 0h-245v22q21 0 30 13t9 44v311h-2l-159 -316h-78l-149 316h-3v-311q0 -32 9.5 -44.5t30.5 -12.5v-22h-245v22q21 0 30.5 12.5t9.5 44.5v552q0 47 -40 47v22h246q0 -19 15 -49l146 -304h2l152 304q18 36 17 49h224v-22q-39 0 -39 -43v-556q0 -32 9 -44.5t30 -12.5
v-22z" />
    <glyph glyph-name="N" unicode="N" horiz-adv-x="728" 
d="M696 678q-21 0 -30 -12t-9 -43v-623h-157q-1 28 -23 63l-242 386h-4v-370q0 -57 39 -57v-22h-238v22q40 0 40 57v549q0 22 -11.5 36t-28.5 14v22h255q4 -26 28 -64l178 -287h4v278q0 28 -9.5 39.5t-30.5 11.5v22h239v-22z" />
    <glyph glyph-name="O" unicode="O" horiz-adv-x="733" 
d="M705 352q0 -165 -90.5 -270t-248.5 -105q-157 0 -247.5 105.5t-90.5 269.5q0 171 96 271t242 100t242.5 -100t96.5 -271zM517 351q0 113 -43 168t-109 55q-65 0 -108 -57.5t-43 -164.5q0 -108 41 -167.5t110 -59.5q72 0 112 59.5t40 166.5z" />
    <glyph glyph-name="P" unicode="P" horiz-adv-x="660" 
d="M638 451q0 -69 -26.5 -121.5t-71 -81.5t-96 -43t-109.5 -14q-31 0 -83 5v-117q0 -57 40 -57v-22h-260v22q40 0 40 57v555q0 44 -40 44v24q98 8 265 8q60 0 109.5 -7.5t93.5 -26t73.5 -47.5t47 -74t17.5 -104zM454 451q0 60 -39 87.5t-99 27.5q-28 0 -64 -2v-231
q30 -3 69 -3q60 0 96.5 30t36.5 91z" />
    <glyph glyph-name="Q" unicode="Q" horiz-adv-x="733" 
d="M740 63q-11 -61 -44 -99t-82 -38q-90 0 -125 75q-49 -21 -123 -21q-153 0 -245.5 103.5t-92.5 274.5q0 165 96.5 264.5t241.5 99.5q146 0 242.5 -99t96.5 -265q0 -177 -94 -279q15 -34 62 -34q28 0 46 34zM516 356q0 107 -43 162t-108 55q-64 0 -107.5 -58t-43.5 -157
q0 -112 41 -171.5t110 -59.5q24 0 60 18q-33 83 -63 83q-21 0 -30 -6l-16 34q31 40 69 40q43 0 68 -14t47 -48q16 39 16 122z" />
    <glyph glyph-name="R" unicode="R" horiz-adv-x="678" 
d="M654 0h-233q-36 64 -71 213q-22 -2 -49 -2q-21 0 -49 2v-136q0 -31 9.5 -43t30.5 -12v-22h-260v22q40 0 40 55v551q0 50 -40 50v22q207 9 250 9q67 0 118 -5.5t100 -21t80.5 -42t50.5 -70.5t19 -104q0 -73 -41.5 -128.5t-101.5 -80.5q12 -46 40 -106.5t57 -101.5
q11 -15 21 -21t29 -6v-22zM466 459q0 106 -160 106q-28 0 -54 -2v-212q30 -3 59 -3q80 0 117.5 26.5t37.5 84.5z" />
    <glyph glyph-name="S" unicode="S" horiz-adv-x="580" 
d="M552 205q0 -105 -65.5 -165.5t-202.5 -60.5q-36 0 -103.5 11.5t-78.5 11.5q-23 0 -37 -7l-37 229l35 11q18 -45 31 -58q51 -51 162 -51q117 0 117 64q0 21 -29 41.5t-129 64.5q-90 39 -132.5 87t-42.5 114q0 99 74 160.5t209 61.5q27 0 77 -8.5t61 -8.5q24 0 36 6
l21 -204l-29 -6q-10 31 -36 49q-41 27 -123 27q-53 0 -78.5 -16t-25.5 -39q0 -20 29 -39.5t114 -56.5q88 -38 135.5 -87.5t47.5 -130.5z" />
    <glyph glyph-name="T" unicode="T" horiz-adv-x="667" 
d="M651 525l-27 -9q-13 43 -45 43h-155v-478q0 -59 39 -59v-22h-259v22q40 0 40 59v478h-152q-34 0 -48 -43l-28 9l37 181q14 -6 51 -6h469q25 0 41 6z" />
    <glyph glyph-name="U" unicode="U" horiz-adv-x="717" 
d="M687 678q-21 0 -30 -12.5t-9 -43.5v-408q0 -81 12 -98q-66 -73 -129.5 -106t-161.5 -33q-100 0 -174.5 34t-136.5 105q12 17 12 98v411q0 30 -10 41.5t-30 11.5v22h260v-22q-21 0 -30.5 -11.5t-9.5 -41.5v-398q0 -52 33.5 -77t88.5 -25q47 0 76 26.5t29 73.5v400
q0 30 -9 41.5t-30 11.5v22h249v-22z" />
    <glyph glyph-name="V" unicode="V" horiz-adv-x="749" 
d="M741 678q-19 0 -28.5 -11.5t-22.5 -44.5l-204 -530q-12 -31 -12 -45q0 -25 22 -25v-22h-248v22q23 0 23 25q0 15 -12 47l-204 535q-12 32 -19.5 40.5t-27.5 8.5v22h289v-22q-42 0 -42 -31q0 -12 5 -27l122 -389h2l117 391q5 17 5 27q0 29 -39 29v22h274v-22z" />
    <glyph glyph-name="W" unicode="W" horiz-adv-x="1014" 
d="M1006 678q-21 0 -30 -8.5t-18 -38.5l-162 -531q-13 -39 -13 -53q0 -25 22 -25v-22h-243v22q22 0 22 26q0 10 -14 51l-61 173h-2l-63 -172q-16 -43 -16 -53q0 -25 22 -25v-22h-241v22q21 0 21 26q0 16 -19 75l-153 498q-9 32 -19.5 44.5t-30.5 12.5v22h286v-22
q-43 0 -43 -33q0 -8 4 -24l90 -390h2l109 312h109l109 -312h2l93 387q5 22 5 33q0 27 -37 27v22h269v-22z" />
    <glyph glyph-name="X" unicode="X" horiz-adv-x="744" 
d="M720 0h-285v22q30 0 30 21q0 16 -12 35l-83 134h-2l-83 -134q-11 -17 -11 -35q0 -21 29 -21v-22h-279v22q19 0 29 9.5t34 46.5l184 273l-185 276q-22 32 -32 41.5t-29 9.5v22h284v-22q-26 0 -26 -26q0 -9 9 -25l81 -134h1l80 129q8 13 8 29q0 27 -26 27v22h283v-22
q-19 0 -33 -11.5t-36 -44.5l-178 -267l185 -277q15 -23 21.5 -31.5t17.5 -16.5t24 -8v-22z" />
    <glyph glyph-name="Y" unicode="Y" horiz-adv-x="708" 
d="M700 678q-14 0 -24 -10t-27 -44l-204 -404v-144q0 -30 9 -42t30 -12v-22h-259v22q21 0 30 11.5t9 42.5v143l-203 403q-19 37 -28 46.5t-25 9.5v22h280v-22q-14 0 -24 -9t-10 -22q0 -10 6 -25l102 -244h2l106 246q6 14 6 26q0 28 -32 28v22h256v-22z" />
    <glyph glyph-name="Z" unicode="Z" horiz-adv-x="653" 
d="M627 185l-46 -196q-47 11 -63 11h-465l-27 46l336 513h-230q-44 0 -69 -49l-25 9l46 187q16 -6 50 -6h462l26 -43l-337 -513h254q41 0 58 51z" />
    <glyph glyph-name="bracketleft" unicode="[" horiz-adv-x="360" 
d="M320 -59h-240v802h238v-43h-86v-717h88v-42z" />
    <glyph glyph-name="backslash" unicode="\" horiz-adv-x="391" 
d="M371 -52h-117l-234 804h118z" />
    <glyph glyph-name="bracketright" unicode="]" horiz-adv-x="360" 
d="M280 -59h-240v42h88v717h-86v43h238v-802z" />
    <glyph glyph-name="asciicircum" unicode="^" horiz-adv-x="515" 
d="M485 258h-129l-100 242h-3l-98 -242h-125l172 386h108z" />
    <glyph glyph-name="underscore" unicode="_" horiz-adv-x="736" 
d="M738 -136h-740v32h740v-32z" />
    <glyph glyph-name="grave" unicode="`" 
d="M401 627h-75l-105 80h113z" />
    <glyph glyph-name="a" unicode="a" horiz-adv-x="608" 
d="M600 0h-238v22q34 0 34 24q0 3 -8 27q-34 -10 -86 -10q-50 0 -87 10q-8 -27 -8 -30q0 -21 28 -21v-22h-227v22q17 0 24 7.5t16 30.5l157 426q9 24 9 31q0 20 -21 20v22h225v-22q-20 0 -20 -20q0 -12 9 -36l154 -419q9 -24 16 -32t23 -8v-22zM356 189l-54 196h-2l-53 -195
q27 -8 58 -8t51 7z" />
    <glyph glyph-name="b" unicode="b" horiz-adv-x="556" 
d="M535 174q0 -100 -77 -140.5t-241 -40.5q-119 0 -189 7v22q33 0 33 44v431q0 40 -33 40v22q99 9 208 9q140 0 211 -32.5t71 -117.5q0 -38 -24.5 -69.5t-60.5 -43.5v-1q46 -15 74 -48t28 -82zM358 399q0 21 -20.5 33t-82.5 12q-14 0 -32 -2v-89q18 -2 40 -2q53 0 74 11.5
t21 36.5zM376 176q0 26 -20.5 42t-80.5 16q-16 0 -52 -3v-114q22 -2 36 -2q70 0 93.5 14t23.5 47z" />
    <glyph glyph-name="c" unicode="c" horiz-adv-x="522" 
d="M500 178l-39 -185q-16 5 -33 5q-2 0 -42.5 -5.5t-76.5 -5.5q-122 0 -204.5 80t-82.5 215q0 89 43.5 157t107.5 100.5t136 32.5q35 0 76.5 -6.5t42.5 -6.5l33 6l39 -182l-29 -10q-11 30 -26 44q-33 31 -88 31q-71 0 -119 -41t-48 -127q0 -84 48 -125t119 -41q60 0 90 30
q16 14 26 43z" />
    <glyph glyph-name="d" unicode="d" horiz-adv-x="595" 
d="M573 288q0 -134 -84.5 -214t-264.5 -80q-134 0 -196 6v22q33 0 33 45v431q0 39 -33 39v22q106 9 208 9q172 0 254.5 -75t82.5 -205zM406 287q0 78 -37.5 117t-104.5 39q-15 0 -41 -2v-321q22 -2 39 -2q66 0 105 44t39 125z" />
    <glyph glyph-name="e" unicode="e" horiz-adv-x="508" 
d="M489 150l-36 -157q-21 7 -61 7h-364v22q33 0 33 41v433q0 17 -9 29t-24 12v22h371q25 0 51 7l32 -148l-22 -9q-16 30 -54 30h-184v-86h166q32 0 32 24h22v-169h-22q0 23 -32 23h-166v-107h186q25 0 36.5 6t21.5 27z" />
    <glyph glyph-name="f" unicode="f" horiz-adv-x="499" 
d="M482 418l-24 -10q-16 31 -48 31h-188v-99h165q33 0 33 23h22v-168h-22q0 22 -33 22h-165v-154q0 -41 33 -41v-22h-227v22q33 0 33 41v435q0 17 -9 28t-24 11v22h371q32 0 51 7z" />
    <glyph glyph-name="g" unicode="g" horiz-adv-x="590" 
d="M575 259q-33 0 -33 -36v-136q0 -17 9 -34q-50 -32 -101 -48.5t-132 -16.5q-133 0 -214.5 82t-81.5 214q0 87 46.5 155t110 100t126.5 32q38 0 77 -7l38 -6q8 0 16.5 2t13.5 4l5 3l49 -177l-26 -10q-11 29 -30 42q-37 25 -96 25q-68 0 -115 -42t-47 -120q0 -79 39.5 -126
t97.5 -47q31 0 57 8v103q0 36 -33 36v22h224v-22z" />
    <glyph glyph-name="h" unicode="h" horiz-adv-x="632" 
d="M604 0h-230v22q34 0 34 47v157h-186v-157q0 -47 33 -47v-22h-227v22q33 0 33 47v431q0 16 -9 26.5t-24 10.5v22h227v-22q-33 0 -33 -45v-138h186v146q0 37 -34 37v22h230v-22q-35 0 -35 -45v-423q0 -47 35 -47v-22z" />
    <glyph glyph-name="i" unicode="i" horiz-adv-x="283" 
d="M255 0h-227v22q33 0 33 46v430q0 17 -9 28t-24 11v22h227v-22q-32 0 -32 -44v-425q0 -46 32 -46v-22z" />
    <glyph glyph-name="j" unicode="j" horiz-adv-x="478" 
d="M454 537q-18 0 -25.5 -10t-7.5 -33v-346q0 -43 16 -61q-47 -52 -98 -78t-126 -26q-124 0 -199 69q58 93 90 149l21 -11q-5 -15 -5 -25q0 -25 19.5 -40.5t54.5 -15.5q30 0 48 18.5t18 53.5v315q0 23 -7.5 32t-25.5 9v22h227v-22z" />
    <glyph glyph-name="k" unicode="k" horiz-adv-x="598" 
d="M586 0h-212q-15 32 -51 134q-29 86 -35 109l-66 -87v-88q0 -46 33 -46v-22h-227v22q32 0 32 46v427q0 23 -7 32.5t-25 9.5v22h227v-22q-19 0 -26 -9.5t-7 -32.5v-162h4l113 158q12 17 12 25q0 21 -21 21v22h253v-22q-20 0 -49 -34l-124 -146q38 -145 125 -294
q24 -41 51 -41v-22z" />
    <glyph glyph-name="l" unicode="l" horiz-adv-x="501" 
d="M489 150l-38 -157q-19 7 -51 7h-372v22q33 0 33 43v434q0 38 -33 38v22h227v-22q-33 0 -33 -43v-371h192q38 0 52 35z" />
    <glyph glyph-name="m" unicode="m" horiz-adv-x="737" 
d="M709 0h-215v22q33 0 33 46v225h-2l-125 -233h-72l-116 232h-2v-224q0 -46 33 -46v-22h-215v22q18 0 25.5 10.5t7.5 35.5v432q0 37 -33 37v22h209q0 -15 13 -41l123 -245h1l131 245q15 28 14 41h190v-22q-33 0 -33 -37v-432q0 -25 7.5 -35.5t25.5 -10.5v-22z" />
    <glyph glyph-name="n" unicode="n" horiz-adv-x="621" 
d="M593 537q-33 0 -33 -44v-493h-143q1 9 -5.5 27t-12.5 26l-193 285h-2v-270q0 -46 33 -46v-22h-209v22q33 0 33 46v430q0 17 -9 28t-24 11v22h217q4 -23 25 -53l144 -210h2v201q0 21 -7.5 30.5t-25.5 9.5v22h210v-22z" />
    <glyph glyph-name="o" unicode="o" horiz-adv-x="621" 
d="M599 281q0 -132 -77 -215t-212 -83q-134 0 -211 84t-77 214q0 138 82 217.5t206 79.5q125 0 207 -79.5t82 -217.5zM431 280q0 82 -31.5 127t-89.5 45q-56 0 -88 -45.5t-32 -125.5q0 -84 32.5 -128t87.5 -44q57 0 89 44t32 127z" />
    <glyph glyph-name="p" unicode="p" horiz-adv-x="561" 
d="M546 359q0 -55 -23 -96.5t-61.5 -65t-82.5 -35t-93 -11.5q-25 0 -63 4v-87q0 -46 33 -46v-22h-228v22q33 0 33 46v434q0 35 -33 35v22q103 9 227 9q291 0 291 -209zM381 359q0 44 -31.5 64.5t-79.5 20.5q-32 0 -47 -1v-172q16 -1 51 -1q107 0 107 89z" />
    <glyph glyph-name="q" unicode="q" horiz-adv-x="621" 
d="M628 59q-8 -51 -37 -83.5t-73 -32.5q-74 0 -107 62q-38 -21 -100 -21q-133 0 -211 82.5t-78 224.5q0 130 83 208.5t206 78.5t205.5 -79t82.5 -208q0 -146 -76 -219q15 -31 49 -31q20 0 35 29zM431 287q0 77 -31.5 120.5t-89.5 43.5q-55 0 -87.5 -42.5t-32.5 -120.5
q0 -177 120 -177q21 0 43 10q-27 64 -52 64q-13 0 -21 -7l-15 23q30 43 66 43q30 0 49 -10t40 -37q11 38 11 90z" />
    <glyph glyph-name="r" unicode="r" horiz-adv-x="575" 
d="M558 0h-202q-16 24 -34.5 75.5t-26.5 91.5q-31 -2 -72 0v-100q0 -45 33 -45v-22h-228v22q33 0 33 45v431q0 17 -9 28t-24 11v22q172 8 237 8q290 0 290 -197q0 -57 -31.5 -98.5t-77.5 -62.5q22 -96 69 -162q16 -25 43 -25v-22zM391 365q0 40 -30.5 59t-98.5 19
q-17 0 -39 -2v-157q15 -1 44 -1q65 0 94.5 20t29.5 62z" />
    <glyph glyph-name="s" unicode="s" horiz-adv-x="491" 
d="M471 167q0 -82 -60.5 -130.5t-168.5 -48.5q-32 0 -87.5 8t-64.5 8q-19 0 -35 -8l-35 195l27 6q13 -36 27 -49q39 -37 145 -37q48 0 70 12t22 28q0 17 -23 32.5t-105 49.5q-76 31 -113.5 70t-37.5 92q0 80 63.5 127.5t178.5 47.5q22 0 64 -6t51 -6q20 0 34 7l20 -175
l-25 -5q-8 27 -29 40q-33 22 -108 22q-82 0 -82 -32q0 -15 22 -30t94 -44q75 -31 115.5 -70t40.5 -104z" />
    <glyph glyph-name="t" unicode="t" horiz-adv-x="575" 
d="M561 412l-26 -7q-6 19 -14 26.5t-23 7.5h-129v-369q0 -48 33 -48v-22h-228v22q33 0 33 48v369h-128q-16 0 -24 -7t-15 -27l-26 7l33 155q18 -8 48 -8h388q14 0 46 8z" />
    <glyph glyph-name="u" unicode="u" horiz-adv-x="599" 
d="M575 537q-33 0 -33 -45v-312q0 -59 12 -78q-61 -64 -110.5 -91.5t-130.5 -27.5q-155 0 -268 119q12 16 12 78v315q0 23 -7.5 32.5t-25.5 9.5v22h227v-22q-18 0 -25.5 -9.5t-7.5 -32.5v-308q0 -38 26.5 -57.5t70.5 -19.5q37 0 59.5 20t22.5 55v310q0 23 -7.5 32.5
t-25.5 9.5v22h211v-22z" />
    <glyph glyph-name="v" unicode="v" horiz-adv-x="621" 
d="M613 537q-15 0 -23 -9.5t-19 -36.5l-163 -415q-10 -25 -10 -35q0 -19 19 -19v-22h-217v22q21 0 21 18q0 10 -11 37l-162 421q-9 25 -16 32t-24 7v22h253v-22q-35 0 -35 -29q0 -8 2 -18l89 -297h1l84 299q3 12 3 20q0 25 -31 25v22h239v-22z" />
    <glyph glyph-name="w" unicode="w" horiz-adv-x="842" 
d="M834 537q-16 0 -24.5 -7.5t-15.5 -30.5l-127 -412q-10 -33 -10 -45q0 -20 19 -20v-22h-215v22q18 0 18 21q0 15 -7 38l-49 137h-1l-51 -134q-10 -30 -10 -42q0 -20 18 -20v-22h-212v22q17 0 17 21q0 15 -15 67l-119 381q-8 26 -16.5 36t-25.5 10v22h247v-22
q-35 0 -35 -21q0 -15 4 -29l62 -283h2l88 245h100l85 -248h2l63 286q4 16 4 28q0 22 -30 22v22h234v-22z" />
    <glyph glyph-name="x" unicode="x" horiz-adv-x="623" 
d="M608 0h-249v22q25 0 25 18q0 9 -10 25l-61 97h-2l-68 -97q-9 -13 -9 -25q0 -18 24 -18v-22h-243v22q7 0 12.5 1t10.5 6.5t8 8.5t10.5 14.5t12.5 17.5l155 212l-156 212q-18 25 -28 34t-25 9v22h249v-22q-23 0 -23 -17q0 -7 8 -20l62 -103h2l61 98q8 11 8 24q0 18 -24 18
v22h248v-22q-15 0 -24.5 -9t-30.5 -38l-151 -208l155 -212q3 -4 9 -12.5t9 -12t8 -9.5t8.5 -8t8.5 -4t10 -2v-22z" />
    <glyph glyph-name="y" unicode="y" horiz-adv-x="606" 
d="M598 537q-13 0 -20 -7.5t-22 -36.5l-171 -316v-111q0 -44 32 -44v-22h-227v22q33 0 33 44v110l-172 315q-17 32 -23.5 39t-19.5 7v22h244v-22q-28 0 -28 -22q0 -7 5 -20l80 -182h2l83 181q6 12 6 22q0 21 -27 21v22h225v-22z" />
    <glyph glyph-name="z" unicode="z" horiz-adv-x="539" 
d="M525 155l-41 -163q-24 8 -57 8h-386l-27 42l273 397h-177q-41 0 -62 -42l-25 11l41 158q19 -7 47 -7h385l25 -39l-272 -396h206q33 0 44 41z" />
    <glyph glyph-name="braceleft" unicode="{" horiz-adv-x="390" 
d="M350 -59q-97 0 -146 15.5t-65.5 45.5t-16.5 89v157q0 30 -19.5 50t-52.5 26v38q72 12 72 76v156q0 60 17.5 90.5t66 44.5t144.5 14v-42q-44 -4 -60.5 -22t-16.5 -57v-171q0 -37 -30 -68t-83 -39v-2q53 -8 83 -39t30 -67v-173q0 -39 18 -58.5t59 -23.5v-40z" />
    <glyph glyph-name="bar" unicode="|" horiz-adv-x="272" 
d="M202 -59h-132v803h132v-803z" />
    <glyph glyph-name="braceright" unicode="}" horiz-adv-x="390" 
d="M340 324q-33 -6 -52.5 -26t-19.5 -50v-157q0 -59 -16.5 -89t-65.5 -45.5t-146 -15.5v40q41 4 59 23.5t18 58.5v173q0 36 30 67t83 39v2q-53 8 -83 39t-30 68v171q0 39 -16.5 57t-60.5 22v42q96 0 144.5 -14t66 -44.5t17.5 -90.5v-156q0 -64 72 -76v-38z" />
    <glyph glyph-name="asciitilde" unicode="~" horiz-adv-x="515" 
d="M468 427q0 -62 -30.5 -110t-90.5 -48q-51 0 -148 42q-22 9 -35 9q-16 0 -27.5 -13t-11.5 -37h-77q0 67 34.5 112t88.5 45q56 0 148 -44q15 -7 31 -7q15 0 28 14t13 37h77z" />
    <glyph glyph-name="uni00A0" unicode="&#xa0;" horiz-adv-x="212" 
 />
    <glyph glyph-name="exclamdown" unicode="&#xa1;" horiz-adv-x="285" 
d="M225 639q0 -34 -24 -56t-58 -22t-57.5 22t-23.5 56q0 36 23.5 57t57.5 21q35 0 58.5 -21t23.5 -57zM257 1h-229v22q20 0 24 29l50 389h81l49 -389q4 -29 25 -29v-22z" />
    <glyph glyph-name="cent" unicode="&#xa2;" horiz-adv-x="651" 
d="M581 248l-43 -207q-21 13 -38 13q-14 0 -42 -5t-38 -6v-90h-99v95q-110 18 -180.5 99.5t-70.5 204.5q0 124 73 202t178 97v95h99v-90q12 -1 43.5 -5t36.5 -4q8 0 17.5 2.5t14.5 5.5l6 3l43 -202l-33 -11q-25 45 -45.5 58.5t-76.5 13.5q-73 0 -120 -39t-47 -127
q0 -86 46.5 -126t120.5 -40q94 0 121 74z" />
    <glyph glyph-name="sterling" unicode="&#xa3;" horiz-adv-x="679" 
d="M607 185l-52 -192q-70 14 -226 14q-114 0 -259 -13v131l27 2q27 2 55.5 40.5t28.5 87.5q0 24 -4 41h-97v114h79q-14 65 -14 110q0 91 58 142t165 51q34 0 78 -7t50 -7q21 0 44 8l33 -200l-29 -10q-18 38 -46.5 56.5t-88.5 18.5q-43 0 -68 -21t-25 -56q0 -25 12 -85h153
v-114h-131q2 -13 2 -46q0 -54 -42 -98q58 8 112 8q22 0 56 -6t43 -6q40 0 57 47z" />
    <glyph glyph-name="yen" unicode="&#xa5;" horiz-adv-x="734" 
d="M704 678q-15 0 -25.5 -10t-26.5 -44l-146 -303h140v-74h-176l-13 -27v-29h189v-73h-189v-42q0 -30 9.5 -42t30.5 -12v-22h-260v22q21 0 30.5 12t9.5 42v42h-188v73h188v28l-14 28h-174v74h139l-144 301q-18 37 -28 46.5t-26 9.5v22h281v-22q-15 0 -25.5 -8t-10.5 -20
t7 -30l92 -242h2l97 246q7 17 7 29q0 25 -33 25v22h257v-22z" />
    <glyph glyph-name="brokenbar" unicode="&#xa6;" horiz-adv-x="279" 
d="M205 411h-131v333h131v-333zM205 -59h-131v333h131v-333z" />
    <glyph glyph-name="section" unicode="&#xa7;" horiz-adv-x="483" 
d="M428 123q0 -65 -53 -103t-156 -38q-20 0 -54.5 6t-46.5 6q-15 0 -31 -6l-29 156l17 4q16 -34 40.5 -48t86.5 -14q38 0 58 12t20 31q0 15 -10.5 23.5t-41.5 22.5l-89 39q-45 20 -64 50t-19 77q0 64 59 104q-60 41 -60 113q0 62 55.5 103.5t146.5 41.5q23 0 59 -6t42 -6
q18 0 38 5l29 -156l-19 -5q-13 33 -39 48.5t-85 15.5q-79 0 -79 -44q0 -6 2 -11t4.5 -8.5t8.5 -7.5t9.5 -5.5t13 -6t13.5 -6.5l87 -42q87 -40 87 -127q0 -66 -62 -102q62 -44 62 -116zM296 327q0 15 -14 22l-76 37q-7 -4 -13 -13t-6 -16q0 -16 17 -24l73 -35q19 11 19 29z
" />
    <glyph glyph-name="dieresis" unicode="&#xa8;" 
d="M463 674q0 -19 -16 -32t-39 -13t-39.5 13t-16.5 32t17 32t39 13q23 0 39 -13t16 -32zM267 674q0 -19 -16 -32t-39 -13t-39.5 13t-16.5 32t16.5 32t39.5 13q22 0 38.5 -13t16.5 -32z" />
    <glyph glyph-name="copyright" unicode="&#xa9;" horiz-adv-x="795" 
d="M792 350q0 -151 -105 -256t-256 -105t-256 105t-105 256t105 255.5t256 104.5t256 -104.5t105 -255.5zM746 350q0 130 -92.5 222t-222.5 92t-222.5 -92t-92.5 -222t92.5 -223t222.5 -93t222.5 93t92.5 223zM594 270l-31 -147q-13 8 -26 8q-3 0 -16 -2.5t-34.5 -5
t-44.5 -2.5q-96 0 -162 63.5t-66 167.5q0 105 69 166.5t159 61.5q23 0 44.5 -2t34.5 -4.5t16 -2.5q6 0 12.5 1.5t10.5 3.5l3 2l31 -145l-23 -8q-12 28 -20 35q-23 21 -70 21q-56 0 -93 -31t-37 -99q0 -67 36.5 -97.5t93.5 -30.5q48 0 71 21q13 11 21 34z" />
    <glyph glyph-name="ordfeminine" unicode="&#xaa;" horiz-adv-x="365" 
d="M297 430h-83q-2 5 -4 20h-2q-30 -26 -68 -26q-81 0 -81 77q0 44 35.5 65.5t101.5 33.5v8q0 34 -51 34q-37 0 -49 -29l-18 6l16 87q10 -4 22 -4q4 0 22 3t41 3q56 0 82 -27t26 -83v-125q0 -25 10 -43zM308 316h-252v56h252v-56zM196 509v37q-54 -10 -54 -35t27 -25t27 23z
" />
    <glyph glyph-name="guillemotleft" unicode="&#xab;" horiz-adv-x="533" 
d="M473 129h-126l-84 166v5l84 162h126l-87 -166zM271 129h-126l-85 166v5l85 162h126l-88 -166z" />
    <glyph glyph-name="logicalnot" unicode="&#xac;" horiz-adv-x="566" 
d="M490 143h-71v155h-343v70h414v-225z" />
    <glyph glyph-name="registered" unicode="&#xae;" horiz-adv-x="542" 
d="M492 490q0 -96 -63.5 -160t-162.5 -64q-97 0 -156.5 61.5t-59.5 162.5q0 98 64.5 160.5t155.5 62.5q93 0 157.5 -62.5t64.5 -160.5zM455 490q0 77 -55 132t-130 55t-127.5 -54t-52.5 -133q0 -83 49.5 -134.5t126.5 -51.5q79 0 134 55.5t55 130.5zM382 380h-84
q-6 7 -15 30q-2 5 -4.5 13.5t-4.5 16t-3 9.5h-27v-41q0 -19 14 -19v-9h-95v9q14 0 14 19v177q0 17 -14 17v9q51 3 88 3q62 0 95.5 -16.5t33.5 -64.5t-47 -68q11 -37 32 -66q7 -10 17 -10v-9zM313 531q0 32 -53 32q-3 0 -8 -0.5t-8 -0.5v-64q3 0 9 -0.5t9 -0.5q51 0 51 34z
" />
    <glyph glyph-name="macron" unicode="&#xaf;" 
d="M426 637h-229v56h229v-56z" />
    <glyph glyph-name="degree" unicode="&#xb0;" horiz-adv-x="314" 
d="M264 605q0 -43 -31.5 -73.5t-75.5 -30.5t-75.5 30.5t-31.5 73.5t31.5 74t75.5 31t75.5 -31t31.5 -74zM214 606q0 23 -17 39.5t-40 16.5q-25 0 -41 -16t-16 -40t16.5 -41t40.5 -17q23 0 40 17.5t17 40.5z" />
    <glyph glyph-name="plusminus" unicode="&#xb1;" horiz-adv-x="504" 
d="M449 279h-151v-159h-92v159h-151v85h151v159h92v-159h151v-85zM449 0h-394v85h394v-85z" />
    <glyph glyph-name="twosuperior" unicode="&#xb2;" horiz-adv-x="386" 
d="M354 447l-25 -105q-15 6 -37 6h-264q0 61 42.5 113t103.5 79q37 17 50.5 29.5t13.5 26.5q0 29 -76 29q-34 0 -54.5 -5t-28.5 -11.5t-18 -20.5l-19 6l27 104q10 -2 26 -2q8 0 38 5t60 5q74 0 113 -28.5t39 -78.5q0 -71 -89 -110q-72 -31 -88 -60h130q25 0 38 23z" />
    <glyph glyph-name="threesuperior" unicode="&#xb3;" horiz-adv-x="386" 
d="M349 448q0 -47 -43.5 -75.5t-122.5 -28.5q-37 0 -65.5 4.5t-31.5 4.5q-14 0 -22 -3l-28 112l20 4q15 -27 35.5 -35.5t69.5 -8.5q81 0 81 34q0 39 -67 39h-18v71h21q20 0 35 8.5t15 20.5q0 33 -64 33q-48 0 -67.5 -7t-32.5 -27l-18 7l27 101q13 -3 25 -3q4 0 30.5 3
t50.5 3q71 0 113 -25.5t42 -72.5q0 -49 -57 -70q32 -9 52 -32t20 -57z" />
    <glyph glyph-name="acute" unicode="&#xb4;" 
d="M401 707l-105 -80h-75l67 80h113z" />
    <glyph glyph-name="mu" unicode="&#xb5;" horiz-adv-x="555" 
d="M530 0l-148 -3q-7 23 -11 53h-3q-26 -22 -37.5 -31t-42.5 -22t-63 -13q-33 0 -53 5v-22q0 -70 29 -99v-1l-136 -20l-2 2v508q0 40 -38 40v25l168 17v-271q0 -38 16 -53.5t49 -15.5q51 0 104 55v206q0 37 -38 37v26l166 16v-372q0 -41 40 -41v-26z" />
    <glyph glyph-name="paragraph" unicode="&#xb6;" horiz-adv-x="712" 
d="M642 0h-266q-150 0 -228 91t-78 261q0 169 77.5 258.5t228.5 89.5h266v-75h-69v-549h69v-76zM486 77v547h-61v-547h61z" />
    <glyph glyph-name="periodcentered" unicode="&#xb7;" horiz-adv-x="284" 
d="M224 342q0 -36 -23 -56.5t-58 -20.5t-59 20.5t-24 56.5q0 34 24.5 56t58.5 22t57.5 -22t23.5 -56z" />
    <glyph glyph-name="cedilla" unicode="&#xb8;" 
d="M434 -86q0 -69 -118 -69q-38 0 -81 9l14 36q23 -6 47 -6q58 0 58 24t-40 24q-25 0 -46 -5l-20 20l28 59h49l-18 -36v-2q24 3 43 3q34 0 59 -15.5t25 -41.5z" />
    <glyph glyph-name="onesuperior" unicode="&#xb9;" horiz-adv-x="386" 
d="M281 350h-140v18q11 0 16 5t5 21v201q-26 -9 -73 -11v59q28 2 59.5 16t41.5 41h75q-6 -17 -6 -32v-274q0 -26 22 -26v-18z" />
    <glyph glyph-name="ordmasculine" unicode="&#xba;" horiz-adv-x="365" 
d="M315 569q0 -70 -37 -109t-96 -39t-95.5 38t-36.5 109q0 66 37 103t95 37q52 0 92.5 -38t40.5 -101zM307 312h-251v56h251v-56zM227 568q0 70 -45 70q-46 0 -46 -70q0 -76 46 -76q45 0 45 76z" />
    <glyph glyph-name="guillemotright" unicode="&#xbb;" horiz-adv-x="533" 
d="M473 295l-84 -166h-126l87 167l-87 166h126l84 -162v-5zM271 295l-85 -166h-126l88 167l-88 166h126l85 -162v-5z" />
    <glyph glyph-name="onequarter" unicode="&#xbc;" horiz-adv-x="819" 
d="M660 700l-406 -700h-133l404 700h135zM247 350h-140v18q11 0 16 5t5 21v201q-26 -9 -72 -11v59q28 2 59.5 16t41.5 41h74q-6 -17 -6 -32v-274q0 -26 22 -26v-18zM785 151l-22 -91h-51v-17q0 -26 25 -26v-18h-152v18q14 0 19 6t5 20v17h-214v61l166 229h159q-8 -27 -8 -58
v-150h21q30 0 52 9zM609 142v132l-87 -132h87z" />
    <glyph glyph-name="onehalf" unicode="&#xbd;" horiz-adv-x="819" 
d="M777 100l-24 -105q-15 6 -39 6h-264q0 61 42.5 112.5t104.5 79.5q37 17 50.5 29.5t13.5 26.5q0 29 -76 29q-34 0 -54.5 -5t-28.5 -11.5t-18 -20.5l-19 6l27 104q5 -1 26 -1q7 0 39.5 4.5t57.5 4.5q74 0 113.5 -28.5t39.5 -78.5q0 -71 -89 -110q-72 -31 -88 -60h130
q25 0 38 23zM634 700l-406 -700h-132l404 700h134zM222 351h-141v17q11 0 16 5t5 21v201q-26 -9 -72 -11v59q28 2 60 16t42 41h73q-5 -14 -5 -32v-274q0 -26 22 -26v-17z" />
    <glyph glyph-name="threequarters" unicode="&#xbe;" horiz-adv-x="819" 
d="M687 700l-405 -700h-133l404 700h134zM347 454q0 -48 -44 -79t-122 -31q-37 0 -65.5 4.5t-31.5 4.5q-13 0 -21 -3l-29 112l20 4q15 -27 35.5 -35.5t69.5 -8.5q81 0 81 34q0 39 -67 39h-18v71h22q20 0 34.5 8.5t14.5 20.5q0 33 -64 33q-48 0 -66.5 -7t-32.5 -27l-19 7
l27 101q14 -3 26 -3q4 0 30.5 3t50.5 3q71 0 112.5 -24t41.5 -71q0 -25 -16 -44.5t-41 -28.5q72 -20 72 -83zM804 151l-22 -91h-51v-17q0 -26 25 -26v-18h-152v18q14 0 19 6t5 20v17h-214v61l166 229h159q-8 -27 -8 -58v-150h21q30 0 52 9zM628 142v132l-87 -132h87z" />
    <glyph glyph-name="questiondown" unicode="&#xbf;" horiz-adv-x="463" 
d="M344 638q0 -34 -24.5 -56.5t-58.5 -22.5t-57.5 22t-23.5 57q0 36 23 56.5t58 20.5t59 -20.5t24 -56.5zM435 194l-40 -199q-13 6 -38 6q-4 0 -43.5 -5.5t-83.5 -5.5q-96 0 -149 46t-53 131q0 92 98 159q34 24 48.5 35t28.5 29t14 36q0 20 -24 20v23h138q6 -18 6 -36
q0 -75 -60 -125q-53 -44 -68.5 -62.5t-15.5 -42.5q0 -74 88 -74q92 0 132 72z" />
    <glyph glyph-name="Agrave" unicode="&#xc0;" horiz-adv-x="712" 
d="M704 0h-272v22q39 0 39 30q0 7 -6 25l-5 17q-45 -16 -108 -16q-58 0 -106 16l-7 -19q-6 -15 -6 -25q0 -28 34 -28v-22h-259v22q20 0 28.5 7.5t18.5 37.5l185 548q8 27 8 38q0 25 -23 25v22h265v-22q-24 0 -24 -26q0 -12 12 -48l179 -535q10 -30 19 -38.5t28 -8.5v-22z
M425 230l-73 274h-1l-72 -274q38 -12 77 -12q44 0 69 12zM422 738h-75l-105 80h113z" />
    <glyph glyph-name="Aacute" unicode="&#xc1;" horiz-adv-x="712" 
d="M704 0h-272v22q39 0 39 30q0 7 -6 25l-5 17q-45 -16 -108 -16q-58 0 -106 16l-7 -19q-6 -15 -6 -25q0 -28 34 -28v-22h-259v22q20 0 28.5 7.5t18.5 37.5l185 548q8 27 8 38q0 25 -23 25v22h265v-22q-24 0 -24 -26q0 -12 12 -48l179 -535q10 -30 19 -38.5t28 -8.5v-22z
M425 230l-73 274h-1l-72 -274q38 -12 77 -12q44 0 69 12zM484 818l-105 -80h-75l67 80h113z" />
    <glyph glyph-name="Acircumflex" unicode="&#xc2;" horiz-adv-x="712" 
d="M704 0h-272v22q39 0 39 30q0 7 -6 25l-5 17q-45 -16 -108 -16q-58 0 -106 16l-7 -19q-6 -15 -6 -25q0 -28 34 -28v-22h-259v22q20 0 28.5 7.5t18.5 37.5l185 548q8 27 8 38q0 25 -23 25v22h265v-22q-24 0 -24 -26q0 -12 12 -48l179 -535q10 -30 19 -38.5t28 -8.5v-22z
M425 230l-73 274h-1l-72 -274q38 -12 77 -12q44 0 69 12zM482 738h-86l-41 44l-40 -44h-84l81 84h86z" />
    <glyph glyph-name="Atilde" unicode="&#xc3;" horiz-adv-x="712" 
d="M704 0h-272v22q39 0 39 30q0 7 -6 25l-5 17q-45 -16 -108 -16q-58 0 -106 16l-7 -19q-6 -15 -6 -25q0 -28 34 -28v-22h-259v22q20 0 28.5 7.5t18.5 37.5l185 548q8 27 8 38q0 25 -23 25v22h265v-22q-24 0 -24 -26q0 -12 12 -48l179 -535q10 -30 19 -38.5t28 -8.5v-22z
M425 230l-73 274h-1l-72 -274q38 -12 77 -12q44 0 69 12zM490 826q-5 -39 -24 -63.5t-54 -24.5q-24 0 -56 13q-31 12 -43 12q-22 0 -28 -25h-47q2 38 23.5 63t56.5 25q26 0 54 -13q26 -12 39 -12q24 0 29 25h50z" />
    <glyph glyph-name="Adieresis" unicode="&#xc4;" horiz-adv-x="712" 
d="M704 0h-272v22q39 0 39 30q0 7 -6 25l-5 17q-45 -16 -108 -16q-58 0 -106 16l-7 -19q-6 -15 -6 -25q0 -28 34 -28v-22h-259v22q20 0 28.5 7.5t18.5 37.5l185 548q8 27 8 38q0 25 -23 25v22h265v-22q-24 0 -24 -26q0 -12 12 -48l179 -535q10 -30 19 -38.5t28 -8.5v-22z
M425 230l-73 274h-1l-72 -274q38 -12 77 -12q44 0 69 12zM508 783q0 -19 -16 -32t-39 -13t-39.5 13t-16.5 32t17 32t39 13q23 0 39 -13t16 -32zM312 783q0 -19 -16 -32t-39 -13t-39.5 13t-16.5 32t16.5 32t39.5 13q22 0 38.5 -13t16.5 -32z" />
    <glyph glyph-name="Aring" unicode="&#xc5;" horiz-adv-x="712" 
d="M704 0h-272v22q39 0 39 30q0 7 -6 25l-5 17q-45 -16 -108 -16q-58 0 -106 16l-7 -19q-6 -15 -6 -25q0 -28 34 -28v-22h-259v22q20 0 28.5 7.5t18.5 37.5l185 548q8 27 8 38q0 25 -23 25v22h265v-22q-24 0 -24 -26q0 -12 12 -48l179 -535q10 -30 19 -38.5t28 -8.5v-22z
M425 230l-73 274h-1l-72 -274q38 -12 77 -12q44 0 69 12zM425 788q0 -25 -21.5 -42t-51.5 -17q-31 0 -53.5 17t-22.5 42t22.5 42t53.5 17q30 0 51.5 -17t21.5 -42zM384 787q0 10 -10 18t-23 8t-22 -8t-9 -18t9 -17.5t22 -7.5t23 7.5t10 17.5z" />
    <glyph glyph-name="AE" unicode="&#xc6;" horiz-adv-x="984" 
d="M960 180l-42 -191q-31 11 -66 11h-431v22q40 0 40 52v20q-45 -16 -109 -16q-55 0 -103 16l-10 -19q-8 -16 -8 -27q0 -26 29 -26v-22h-252v22q18 0 25 7t22 38l263 544q13 26 13 42q0 25 -26 25v22h334h220q25 0 57 7l35 -178l-21 -7q-13 23 -25 30t-37 7h-227v-121h206
q34 0 34 30h23v-203h-23q0 29 -34 29h-206v-150h229q27 0 40.5 9t25.5 35zM461 230v316h-2l-144 -316q38 -12 77 -12q44 0 69 12z" />
    <glyph glyph-name="Ccedilla" unicode="&#xc7;" horiz-adv-x="610" 
d="M584 215l-43 -222q-15 8 -36 8q-3 0 -21 -3.5t-47.5 -7t-62.5 -3.5l-8 -17v-2q24 3 42 3q34 0 59.5 -15.5t25.5 -41.5q0 -69 -119 -69q-38 0 -81 9l15 36q22 -6 47 -6q58 0 58 24t-40 24q-25 0 -46 -5l-20 20l20 42q-129 13 -214 112t-85 250q0 85 29.5 154.5t77.5 113
t107.5 67t121.5 23.5q46 0 94 -7l47 -6q9 0 18 2t13 4l5 2l43 -219l-27 -8q-9 26 -34 51q-36 36 -102 36q-89 0 -148 -51t-59 -163q0 -109 59 -161t148 -52q44 0 65.5 8.5t39.5 27.5q23 23 31 50z" />
    <glyph glyph-name="Egrave" unicode="&#xc8;" horiz-adv-x="594" 
d="M570 180l-41 -191q-31 11 -66 11h-431v22q40 0 40 52v553q0 22 -11.5 37t-28.5 15v21h438q26 0 57 7l35 -178l-21 -7q-13 22 -25 29.5t-38 7.5h-226v-121h206q34 0 34 30h23v-203h-23q0 29 -34 29h-206v-150h229q27 0 40 9t25 35zM360 738h-75l-105 80h113z" />
    <glyph glyph-name="Eacute" unicode="&#xc9;" horiz-adv-x="594" 
d="M570 180l-41 -191q-31 11 -66 11h-431v22q40 0 40 52v553q0 22 -11.5 37t-28.5 15v21h438q26 0 57 7l35 -178l-21 -7q-13 22 -25 29.5t-38 7.5h-226v-121h206q34 0 34 30h23v-203h-23q0 29 -34 29h-206v-150h229q27 0 40 9t25 35zM448 818l-105 -80h-75l67 80h113z" />
    <glyph glyph-name="Ecircumflex" unicode="&#xca;" horiz-adv-x="594" 
d="M570 180l-41 -191q-31 11 -66 11h-431v22q40 0 40 52v553q0 22 -11.5 37t-28.5 15v21h438q26 0 57 7l35 -178l-21 -7q-13 22 -25 29.5t-38 7.5h-226v-121h206q34 0 34 30h23v-203h-23q0 29 -34 29h-206v-150h229q27 0 40 9t25 35zM419 738h-86l-41 44l-40 -44h-84l81 84
h86z" />
    <glyph glyph-name="Edieresis" unicode="&#xcb;" horiz-adv-x="594" 
d="M570 180l-41 -191q-31 11 -66 11h-431v22q40 0 40 52v553q0 22 -11.5 37t-28.5 15v21h438q26 0 57 7l35 -178l-21 -7q-13 22 -25 29.5t-38 7.5h-226v-121h206q34 0 34 30h23v-203h-23q0 29 -34 29h-206v-150h229q27 0 40 9t25 35zM448 783q0 -19 -16 -32t-39 -13
t-39.5 13t-16.5 32t17 32t39 13q23 0 39 -13t16 -32zM252 783q0 -19 -16 -32t-39 -13t-39.5 13t-16.5 32t16.5 32t39.5 13q22 0 38.5 -13t16.5 -32z" />
    <glyph glyph-name="Igrave" unicode="&#xcc;" horiz-adv-x="324" 
d="M292 0h-260v22q40 0 40 57v549q0 22 -11.5 36t-28.5 14v22h260v-22q-40 0 -40 -55v-544q0 -57 40 -57v-22zM239 738h-75l-105 80h113z" />
    <glyph glyph-name="Iacute" unicode="&#xcd;" horiz-adv-x="324" 
d="M292 0h-260v22q40 0 40 57v549q0 22 -11.5 36t-28.5 14v22h260v-22q-40 0 -40 -55v-544q0 -57 40 -57v-22zM263 818l-105 -80h-75l67 80h113z" />
    <glyph glyph-name="Icircumflex" unicode="&#xce;" horiz-adv-x="324" 
d="M292 0h-260v22q40 0 40 57v549q0 22 -11.5 36t-28.5 14v22h260v-22q-40 0 -40 -55v-544q0 -57 40 -57v-22zM288 738h-86l-41 44l-40 -44h-84l81 84h86z" />
    <glyph glyph-name="Idieresis" unicode="&#xcf;" horiz-adv-x="324" 
d="M292 0h-260v22q40 0 40 57v549q0 22 -11.5 36t-28.5 14v22h260v-22q-40 0 -40 -55v-544q0 -57 40 -57v-22zM317 783q0 -19 -16 -32t-39 -13t-39.5 13t-16.5 32t17 32t39 13q23 0 39 -13t16 -32zM121 783q0 -19 -16 -32t-39 -13t-39.5 13t-16.5 32t16.5 32t39.5 13
q22 0 38.5 -13t16.5 -32z" />
    <glyph glyph-name="Eth" unicode="&#xd0;" horiz-adv-x="698" 
d="M671 361q0 -173 -99 -271.5t-313 -98.5q-148 0 -227 9v22q40 0 40 57v225h-66v95h66v229q0 22 -11 35.5t-29 14.5v22q102 10 243 10q196 0 296 -94.5t100 -254.5zM484 356q0 101 -48.5 155t-127.5 54q-24 0 -56 -2v-164h145v-95h-145v-164q18 -3 54 -3q83 0 130.5 56.5
t47.5 162.5z" />
    <glyph glyph-name="Ntilde" unicode="&#xd1;" horiz-adv-x="728" 
d="M696 678q-21 0 -30 -12t-9 -43v-623h-157q-1 28 -23 63l-242 386h-4v-370q0 -57 39 -57v-22h-238v22q40 0 40 57v549q0 22 -11.5 36t-28.5 14v22h255q4 -26 28 -64l178 -287h4v278q0 28 -9.5 39.5t-30.5 11.5v22h239v-22zM498 826q-5 -39 -24 -63.5t-54 -24.5
q-24 0 -56 13q-31 12 -43 12q-22 0 -28 -25h-47q2 38 23.5 63t56.5 25q26 0 54 -13q26 -12 39 -12q24 0 29 25h50z" />
    <glyph glyph-name="Ograve" unicode="&#xd2;" horiz-adv-x="733" 
d="M705 352q0 -165 -90.5 -270t-248.5 -105q-157 0 -247.5 105.5t-90.5 269.5q0 171 96 271t242 100t242.5 -100t96.5 -271zM517 351q0 113 -43 168t-109 55q-65 0 -108 -57.5t-43 -164.5q0 -108 41 -167.5t110 -59.5q72 0 112 59.5t40 166.5zM420 738h-75l-105 80h113z" />
    <glyph glyph-name="Oacute" unicode="&#xd3;" horiz-adv-x="733" 
d="M705 352q0 -165 -90.5 -270t-248.5 -105q-157 0 -247.5 105.5t-90.5 269.5q0 171 96 271t242 100t242.5 -100t96.5 -271zM517 351q0 113 -43 168t-109 55q-65 0 -108 -57.5t-43 -164.5q0 -108 41 -167.5t110 -59.5q72 0 112 59.5t40 166.5zM485 818l-105 -80h-75l67 80
h113z" />
    <glyph glyph-name="Ocircumflex" unicode="&#xd4;" horiz-adv-x="733" 
d="M705 352q0 -165 -90.5 -270t-248.5 -105q-157 0 -247.5 105.5t-90.5 269.5q0 171 96 271t242 100t242.5 -100t96.5 -271zM517 351q0 113 -43 168t-109 55q-65 0 -108 -57.5t-43 -164.5q0 -108 41 -167.5t110 -59.5q72 0 112 59.5t40 166.5zM491 738h-86l-41 44l-40 -44
h-84l81 84h86z" />
    <glyph glyph-name="Otilde" unicode="&#xd5;" horiz-adv-x="733" 
d="M705 352q0 -165 -90.5 -270t-248.5 -105q-157 0 -247.5 105.5t-90.5 269.5q0 171 96 271t242 100t242.5 -100t96.5 -271zM517 351q0 113 -43 168t-109 55q-65 0 -108 -57.5t-43 -164.5q0 -108 41 -167.5t110 -59.5q72 0 112 59.5t40 166.5zM488 826q-5 -39 -24 -63.5
t-54 -24.5q-24 0 -56 13q-31 12 -43 12q-22 0 -28 -25h-47q2 38 23.5 63t56.5 25q26 0 54 -13q26 -12 39 -12q24 0 29 25h50z" />
    <glyph glyph-name="Odieresis" unicode="&#xd6;" horiz-adv-x="733" 
d="M705 352q0 -165 -90.5 -270t-248.5 -105q-157 0 -247.5 105.5t-90.5 269.5q0 171 96 271t242 100t242.5 -100t96.5 -271zM517 351q0 113 -43 168t-109 55q-65 0 -108 -57.5t-43 -164.5q0 -108 41 -167.5t110 -59.5q72 0 112 59.5t40 166.5zM516 783q0 -19 -16 -32
t-39 -13t-39.5 13t-16.5 32t17 32t39 13q23 0 39 -13t16 -32zM320 783q0 -19 -16 -32t-39 -13t-39.5 13t-16.5 32t16.5 32t39.5 13q22 0 38.5 -13t16.5 -32z" />
    <glyph glyph-name="multiply" unicode="&#xd7;" horiz-adv-x="509" 
d="M463 191l-79 -80l-130 130l-128 -128l-80 78l130 129l-130 129l80 80l128 -130l130 131l79 -78l-129 -132z" />
    <glyph glyph-name="Oslash" unicode="&#xd8;" horiz-adv-x="733" 
d="M705 358q0 -165 -90.5 -269.5t-248.5 -104.5q-80 0 -165 45l-61 -92l-60 41l59 91q-111 99 -111 289q0 164 96.5 261.5t241.5 97.5q84 0 169 -46l52 79l62 -40l-56 -83q53 -41 82.5 -112.5t29.5 -156.5zM448 537q-42 31 -83 31q-65 0 -108 -55.5t-43 -154.5
q0 -83 25 -140zM518 356q0 68 -24 123l-206 -317q39 -30 77 -30q72 0 112.5 58.5t40.5 165.5z" />
    <glyph glyph-name="Ugrave" unicode="&#xd9;" horiz-adv-x="717" 
d="M687 678q-21 0 -30 -12.5t-9 -43.5v-408q0 -81 12 -98q-66 -73 -129.5 -106t-161.5 -33q-100 0 -174.5 34t-136.5 105q12 17 12 98v411q0 30 -10 41.5t-30 11.5v22h260v-22q-21 0 -30.5 -11.5t-9.5 -41.5v-398q0 -52 33.5 -77t88.5 -25q47 0 76 26.5t29 73.5v400
q0 30 -9 41.5t-30 11.5v22h249v-22zM411 738h-75l-105 80h113z" />
    <glyph glyph-name="Uacute" unicode="&#xda;" horiz-adv-x="717" 
d="M687 678q-21 0 -30 -12.5t-9 -43.5v-408q0 -81 12 -98q-66 -73 -129.5 -106t-161.5 -33q-100 0 -174.5 34t-136.5 105q12 17 12 98v411q0 30 -10 41.5t-30 11.5v22h260v-22q-21 0 -30.5 -11.5t-9.5 -41.5v-398q0 -52 33.5 -77t88.5 -25q47 0 76 26.5t29 73.5v400
q0 30 -9 41.5t-30 11.5v22h249v-22zM485 818l-105 -80h-75l67 80h113z" />
    <glyph glyph-name="Ucircumflex" unicode="&#xdb;" horiz-adv-x="717" 
d="M687 678q-21 0 -30 -12.5t-9 -43.5v-408q0 -81 12 -98q-66 -73 -129.5 -106t-161.5 -33q-100 0 -174.5 34t-136.5 105q12 17 12 98v411q0 30 -10 41.5t-30 11.5v22h260v-22q-21 0 -30.5 -11.5t-9.5 -41.5v-398q0 -52 33.5 -77t88.5 -25q47 0 76 26.5t29 73.5v400
q0 30 -9 41.5t-30 11.5v22h249v-22zM491 738h-86l-41 44l-40 -44h-84l81 84h86z" />
    <glyph glyph-name="Udieresis" unicode="&#xdc;" horiz-adv-x="717" 
d="M687 678q-21 0 -30 -12.5t-9 -43.5v-408q0 -81 12 -98q-66 -73 -129.5 -106t-161.5 -33q-100 0 -174.5 34t-136.5 105q12 17 12 98v411q0 30 -10 41.5t-30 11.5v22h260v-22q-21 0 -30.5 -11.5t-9.5 -41.5v-398q0 -52 33.5 -77t88.5 -25q47 0 76 26.5t29 73.5v400
q0 30 -9 41.5t-30 11.5v22h249v-22zM518 783q0 -19 -16 -32t-39 -13t-39.5 13t-16.5 32t17 32t39 13q23 0 39 -13t16 -32zM322 783q0 -19 -16 -32t-39 -13t-39.5 13t-16.5 32t16.5 32t39.5 13q22 0 38.5 -13t16.5 -32z" />
    <glyph glyph-name="Yacute" unicode="&#xdd;" horiz-adv-x="708" 
d="M700 678q-14 0 -24 -10t-27 -44l-204 -404v-144q0 -30 9 -42t30 -12v-22h-259v22q21 0 30 11.5t9 42.5v143l-203 403q-19 37 -28 46.5t-25 9.5v22h280v-22q-14 0 -24 -9t-10 -22q0 -10 6 -25l102 -244h2l106 246q6 14 6 26q0 28 -32 28v22h256v-22zM492 818l-105 -80h-75
l67 80h113z" />
    <glyph glyph-name="Thorn" unicode="&#xde;" horiz-adv-x="661" 
d="M639 353q0 -122 -78.5 -188.5t-226.5 -66.5q-34 0 -82 4v-16q0 -36 9 -50t31 -14v-22h-260v22q22 0 31 14t9 48v536q0 58 -39 58v22h259v-22q-21 0 -30.5 -13.5t-9.5 -44.5v-25q32 2 53 2q166 0 250 -57t84 -187zM454 348q0 106 -135 106q-34 0 -67 -3v-205q34 -4 70 -4
q66 0 99 25t33 81z" />
    <glyph glyph-name="germandbls" unicode="&#xdf;" horiz-adv-x="526" 
d="M486 340q-74 -123 -192 -123q-39 0 -83 19.5t-78.5 39.5t-49.5 20q-23 0 -35 -9l-8 14q68 79 151 79q27 0 106.5 -25t118.5 -25q37 0 59 22z" />
    <glyph glyph-name="agrave" unicode="&#xe0;" horiz-adv-x="608" 
d="M600 0h-238v22q34 0 34 24q0 3 -8 27q-34 -10 -86 -10q-50 0 -87 10q-8 -27 -8 -30q0 -21 28 -21v-22h-227v22q17 0 24 7.5t16 30.5l157 426q9 24 9 31q0 20 -21 20v22h225v-22q-20 0 -20 -20q0 -12 9 -36l154 -419q9 -24 16 -32t23 -8v-22zM356 189l-54 196h-2l-53 -195
q27 -8 58 -8t51 7zM367 627h-75l-105 80h113z" />
    <glyph glyph-name="aacute" unicode="&#xe1;" horiz-adv-x="608" 
d="M600 0h-238v22q34 0 34 24q0 3 -8 27q-34 -10 -86 -10q-50 0 -87 10q-8 -27 -8 -30q0 -21 28 -21v-22h-227v22q17 0 24 7.5t16 30.5l157 426q9 24 9 31q0 20 -21 20v22h225v-22q-20 0 -20 -20q0 -12 9 -36l154 -419q9 -24 16 -32t23 -8v-22zM356 189l-54 196h-2l-53 -195
q27 -8 58 -8t51 7zM439 707l-105 -80h-75l67 80h113z" />
    <glyph glyph-name="acircumflex" unicode="&#xe2;" horiz-adv-x="608" 
d="M600 0h-238v22q34 0 34 24q0 3 -8 27q-34 -10 -86 -10q-50 0 -87 10q-8 -27 -8 -30q0 -21 28 -21v-22h-227v22q17 0 24 7.5t16 30.5l157 426q9 24 9 31q0 20 -21 20v22h225v-22q-20 0 -20 -20q0 -12 9 -36l154 -419q9 -24 16 -32t23 -8v-22zM356 189l-54 196h-2l-53 -195
q27 -8 58 -8t51 7zM433 627h-86l-41 44l-40 -44h-84l81 84h86z" />
    <glyph glyph-name="atilde" unicode="&#xe3;" horiz-adv-x="608" 
d="M600 0h-238v22q34 0 34 24q0 3 -8 27q-34 -10 -86 -10q-50 0 -87 10q-8 -27 -8 -30q0 -21 28 -21v-22h-227v22q17 0 24 7.5t16 30.5l157 426q9 24 9 31q0 20 -21 20v22h225v-22q-20 0 -20 -20q0 -12 9 -36l154 -419q9 -24 16 -32t23 -8v-22zM356 189l-54 196h-2l-53 -195
q27 -8 58 -8t51 7zM436 713q-5 -39 -24 -63.5t-54 -24.5q-24 0 -56 13q-31 12 -43 12q-22 0 -28 -25h-47q2 38 23.5 63t56.5 25q26 0 54 -13q26 -12 39 -12q24 0 29 25h50z" />
    <glyph glyph-name="adieresis" unicode="&#xe4;" horiz-adv-x="608" 
d="M600 0h-238v22q34 0 34 24q0 3 -8 27q-34 -10 -86 -10q-50 0 -87 10q-8 -27 -8 -30q0 -21 28 -21v-22h-227v22q17 0 24 7.5t16 30.5l157 426q9 24 9 31q0 20 -21 20v22h225v-22q-20 0 -20 -20q0 -12 9 -36l154 -419q9 -24 16 -32t23 -8v-22zM356 189l-54 196h-2l-53 -195
q27 -8 58 -8t51 7zM459 674q0 -19 -16 -32t-39 -13t-39.5 13t-16.5 32t17 32t39 13q23 0 39 -13t16 -32zM263 674q0 -19 -16 -32t-39 -13t-39.5 13t-16.5 32t16.5 32t39.5 13q22 0 38.5 -13t16.5 -32z" />
    <glyph glyph-name="aring" unicode="&#xe5;" horiz-adv-x="608" 
d="M600 0h-238v22q34 0 34 24q0 3 -8 27q-34 -10 -86 -10q-50 0 -87 10q-8 -27 -8 -30q0 -21 28 -21v-22h-227v22q17 0 24 7.5t16 30.5l157 426q9 24 9 31q0 20 -21 20v22h225v-22q-20 0 -20 -20q0 -12 9 -36l154 -419q9 -24 16 -32t23 -8v-22zM356 189l-54 196h-2l-53 -195
q27 -8 58 -8t51 7zM374 668q0 -25 -21.5 -42t-51.5 -17q-31 0 -53.5 17t-22.5 42t22.5 42t53.5 17q30 0 51.5 -17t21.5 -42zM333 667q0 10 -10 18t-23 8t-22 -8t-9 -18t9 -17.5t22 -7.5t23 7.5t10 17.5z" />
    <glyph glyph-name="ae" unicode="&#xe6;" horiz-adv-x="837" 
d="M818 150l-37 -157q-21 7 -60 7h-365v22q33 0 33 41v10q-36 -10 -87 -10q-45 0 -82 10q-13 -26 -13 -33q0 -18 23 -18v-22h-222v22q5 0 8.5 0.5t7 2.5t5 3t4.5 5.5t4 6.5t5 9.5t6 10.5l221 426q11 19 11 31q0 20 -23 20v22h238h233q25 0 51 7l32 -148l-22 -9
q-16 30 -55 30h-184v-86h167q31 0 31 24h22v-169h-22q0 23 -31 23h-167v-107h186q25 0 37 6t22 27zM389 189v244h-1l-111 -243q27 -8 58 -8q33 0 54 7z" />
    <glyph glyph-name="ccedilla" unicode="&#xe7;" horiz-adv-x="522" 
d="M500 178l-39 -185q-16 9 -33 9q-3 0 -16.5 -2.5t-35.5 -5t-46 -3.5l-10 -21v-2q24 3 42 3q34 0 59.5 -15.5t25.5 -41.5q0 -69 -119 -69q-38 0 -81 9l15 36q22 -6 47 -6q58 0 58 24t-40 24q-25 0 -46 -5l-20 20l21 45q-112 9 -186 88.5t-74 201.5q0 132 87 208.5t200 76.5
q38 0 79 -5l40 -6q8 0 16 2t12 4l5 3l39 -182l-29 -10q-11 30 -26 44q-28 26 -88 26q-72 0 -119.5 -38.5t-47.5 -124.5q0 -84 47.5 -123t119.5 -39q64 0 90 26q16 14 26 43z" />
    <glyph glyph-name="egrave" unicode="&#xe8;" horiz-adv-x="508" 
d="M489 150l-36 -157q-21 7 -61 7h-364v22q33 0 33 41v433q0 17 -9 29t-24 12v22h371q25 0 51 7l32 -148l-22 -9q-16 30 -54 30h-184v-86h166q32 0 32 24h22v-169h-22q0 23 -32 23h-166v-107h186q25 0 36.5 6t21.5 27zM303 627h-75l-105 80h113z" />
    <glyph glyph-name="eacute" unicode="&#xe9;" horiz-adv-x="508" 
d="M489 150l-36 -157q-21 7 -61 7h-364v22q33 0 33 41v433q0 17 -9 29t-24 12v22h371q25 0 51 7l32 -148l-22 -9q-16 30 -54 30h-184v-86h166q32 0 32 24h22v-169h-22q0 23 -32 23h-166v-107h186q25 0 36.5 6t21.5 27zM395 707l-105 -80h-75l67 80h113z" />
    <glyph glyph-name="ecircumflex" unicode="&#xea;" horiz-adv-x="508" 
d="M489 150l-36 -157q-21 7 -61 7h-364v22q33 0 33 41v433q0 17 -9 29t-24 12v22h371q25 0 51 7l32 -148l-22 -9q-16 30 -54 30h-184v-86h166q32 0 32 24h22v-169h-22q0 23 -32 23h-166v-107h186q25 0 36.5 6t21.5 27zM378 627h-86l-41 44l-40 -44h-84l81 84h86z" />
    <glyph glyph-name="edieresis" unicode="&#xeb;" horiz-adv-x="508" 
d="M489 150l-36 -157q-21 7 -61 7h-364v22q33 0 33 41v433q0 17 -9 29t-24 12v22h371q25 0 51 7l32 -148l-22 -9q-16 30 -54 30h-184v-86h166q32 0 32 24h22v-169h-22q0 23 -32 23h-166v-107h186q25 0 36.5 6t21.5 27zM412 674q0 -19 -16 -32t-39 -13t-39.5 13t-16.5 32
t17 32t39 13q23 0 39 -13t16 -32zM216 674q0 -19 -16 -32t-39 -13t-39.5 13t-16.5 32t16.5 32t39.5 13q22 0 38.5 -13t16.5 -32z" />
    <glyph glyph-name="igrave" unicode="&#xec;" horiz-adv-x="283" 
d="M255 0h-227v22q33 0 33 46v430q0 17 -9 28t-24 11v22h227v-22q-32 0 -32 -44v-425q0 -46 32 -46v-22zM207 627h-75l-105 80h113z" />
    <glyph glyph-name="iacute" unicode="&#xed;" horiz-adv-x="283" 
d="M255 0h-227v22q33 0 33 46v430q0 17 -9 28t-24 11v22h227v-22q-32 0 -32 -44v-425q0 -46 32 -46v-22zM259 707l-105 -80h-75l67 80h113z" />
    <glyph glyph-name="icircumflex" unicode="&#xee;" horiz-adv-x="283" 
d="M255 0h-227v22q33 0 33 46v430q0 17 -9 28t-24 11v22h227v-22q-32 0 -32 -44v-425q0 -46 32 -46v-22zM265 627h-86l-41 44l-40 -44h-84l81 84h86z" />
    <glyph glyph-name="idieresis" unicode="&#xef;" horiz-adv-x="283" 
d="M255 0h-227v22q33 0 33 46v430q0 17 -9 28t-24 11v22h227v-22q-32 0 -32 -44v-425q0 -46 32 -46v-22zM295 674q0 -19 -16 -32t-39 -13t-39.5 13t-16.5 32t17 32t39 13q23 0 39 -13t16 -32zM99 674q0 -19 -16 -32t-39 -13t-39.5 13t-16.5 32t16.5 32t39.5 13
q22 0 38.5 -13t16.5 -32z" />
    <glyph glyph-name="eth" unicode="&#xf0;" horiz-adv-x="595" 
d="M573 288q0 -134 -84.5 -214t-264.5 -80q-134 0 -196 6v22q33 0 33 45v171h-61v85h61v175q0 39 -33 39v22q106 9 208 9q172 0 254.5 -75t82.5 -205zM406 287q0 78 -37.5 117t-104.5 39q-11 0 -41 -2v-118h113v-85h-113v-118q22 -2 39 -2q66 0 105 44t39 125z" />
    <glyph glyph-name="ntilde" unicode="&#xf1;" horiz-adv-x="621" 
d="M593 537q-33 0 -33 -44v-493h-143q1 9 -5.5 27t-12.5 26l-193 285h-2v-270q0 -46 33 -46v-22h-209v22q33 0 33 46v430q0 17 -9 28t-24 11v22h217q4 -23 25 -53l144 -210h2v201q0 21 -7.5 30.5t-25.5 9.5v22h210v-22zM436 713q-5 -39 -24 -63.5t-54 -24.5q-24 0 -56 13
q-31 12 -43 12q-22 0 -28 -25h-47q2 38 23.5 63t56.5 25q26 0 54 -13q26 -12 39 -12q24 0 29 25h50z" />
    <glyph glyph-name="ograve" unicode="&#xf2;" horiz-adv-x="621" 
d="M599 281q0 -132 -77 -215t-212 -83q-134 0 -211 84t-77 214q0 138 82 217.5t206 79.5q125 0 207 -79.5t82 -217.5zM431 280q0 82 -31.5 127t-89.5 45q-56 0 -88 -45.5t-32 -125.5q0 -84 32.5 -128t87.5 -44q57 0 89 44t32 127zM354 627h-75l-105 80h113z" />
    <glyph glyph-name="oacute" unicode="&#xf3;" horiz-adv-x="621" 
d="M599 281q0 -132 -77 -215t-212 -83q-134 0 -211 84t-77 214q0 138 82 217.5t206 79.5q125 0 207 -79.5t82 -217.5zM431 280q0 82 -31.5 127t-89.5 45q-56 0 -88 -45.5t-32 -125.5q0 -84 32.5 -128t87.5 -44q57 0 89 44t32 127zM434 707l-105 -80h-75l67 80h113z" />
    <glyph glyph-name="ocircumflex" unicode="&#xf4;" horiz-adv-x="621" 
d="M599 281q0 -132 -77 -215t-212 -83q-134 0 -211 84t-77 214q0 138 82 217.5t206 79.5q125 0 207 -79.5t82 -217.5zM431 280q0 82 -31.5 127t-89.5 45q-56 0 -88 -45.5t-32 -125.5q0 -84 32.5 -128t87.5 -44q57 0 89 44t32 127zM437 627h-86l-41 44l-40 -44h-84l81 84h86z
" />
    <glyph glyph-name="otilde" unicode="&#xf5;" horiz-adv-x="621" 
d="M599 281q0 -132 -77 -215t-212 -83q-134 0 -211 84t-77 214q0 138 82 217.5t206 79.5q125 0 207 -79.5t82 -217.5zM431 280q0 82 -31.5 127t-89.5 45q-56 0 -88 -45.5t-32 -125.5q0 -84 32.5 -128t87.5 -44q57 0 89 44t32 127zM436 713q-5 -39 -24 -63.5t-54 -24.5
q-24 0 -56 13q-31 12 -43 12q-22 0 -28 -25h-47q2 38 23.5 63t56.5 25q26 0 54 -13q26 -12 39 -12q24 0 29 25h50z" />
    <glyph glyph-name="odieresis" unicode="&#xf6;" horiz-adv-x="621" 
d="M599 281q0 -132 -77 -215t-212 -83q-134 0 -211 84t-77 214q0 138 82 217.5t206 79.5q125 0 207 -79.5t82 -217.5zM431 280q0 82 -31.5 127t-89.5 45q-56 0 -88 -45.5t-32 -125.5q0 -84 32.5 -128t87.5 -44q57 0 89 44t32 127zM461 674q0 -19 -16 -32t-39 -13t-39.5 13
t-16.5 32t17 32t39 13q23 0 39 -13t16 -32zM265 674q0 -19 -16 -32t-39 -13t-39.5 13t-16.5 32t16.5 32t39.5 13q22 0 38.5 -13t16.5 -32z" />
    <glyph glyph-name="divide" unicode="&#xf7;" horiz-adv-x="527" 
d="M331 513q0 -30 -20.5 -51t-50.5 -21t-51.5 21t-21.5 51t21.5 51.5t51.5 21.5t50.5 -21.5t20.5 -51.5zM457 288h-387v118h387v-118zM331 187q0 -30 -20.5 -52t-50.5 -22t-51.5 22t-21.5 52t21.5 51t51.5 21t50.5 -21t20.5 -51z" />
    <glyph glyph-name="oslash" unicode="&#xf8;" horiz-adv-x="621" 
d="M599 286q0 -136 -76.5 -216.5t-212.5 -80.5q-64 0 -135 31l-54 -78l-54 41l51 73q-96 79 -96 230q0 131 82 208t206 77q70 0 138 -34l51 74l56 -37l-51 -74q95 -81 95 -214zM371 424q-31 20 -61 20q-52 0 -86 -39t-34 -119q0 -55 18 -102zM431 285q0 52 -15 89l-164 -241
q31 -18 58 -18q121 0 121 170z" />
    <glyph glyph-name="ugrave" unicode="&#xf9;" horiz-adv-x="599" 
d="M575 537q-33 0 -33 -45v-312q0 -59 12 -78q-61 -64 -110.5 -91.5t-130.5 -27.5q-155 0 -268 119q12 16 12 78v315q0 23 -7.5 32.5t-25.5 9.5v22h227v-22q-18 0 -25.5 -9.5t-7.5 -32.5v-308q0 -38 26.5 -57.5t70.5 -19.5q37 0 59.5 20t22.5 55v310q0 23 -7.5 32.5
t-25.5 9.5v22h211v-22zM364 627h-75l-105 80h113z" />
    <glyph glyph-name="uacute" unicode="&#xfa;" horiz-adv-x="599" 
d="M575 537q-33 0 -33 -45v-312q0 -59 12 -78q-61 -64 -110.5 -91.5t-130.5 -27.5q-155 0 -268 119q12 16 12 78v315q0 23 -7.5 32.5t-25.5 9.5v22h227v-22q-18 0 -25.5 -9.5t-7.5 -32.5v-308q0 -38 26.5 -57.5t70.5 -19.5q37 0 59.5 20t22.5 55v310q0 23 -7.5 32.5
t-25.5 9.5v22h211v-22zM453 707l-105 -80h-75l67 80h113z" />
    <glyph glyph-name="ucircumflex" unicode="&#xfb;" horiz-adv-x="599" 
d="M575 537q-33 0 -33 -45v-312q0 -59 12 -78q-61 -64 -110.5 -91.5t-130.5 -27.5q-155 0 -268 119q12 16 12 78v315q0 23 -7.5 32.5t-25.5 9.5v22h227v-22q-18 0 -25.5 -9.5t-7.5 -32.5v-308q0 -38 26.5 -57.5t70.5 -19.5q37 0 59.5 20t22.5 55v310q0 23 -7.5 32.5
t-25.5 9.5v22h211v-22zM437 627h-86l-41 44l-40 -44h-84l81 84h86z" />
    <glyph glyph-name="udieresis" unicode="&#xfc;" horiz-adv-x="599" 
d="M575 537q-33 0 -33 -45v-312q0 -59 12 -78q-61 -64 -110.5 -91.5t-130.5 -27.5q-155 0 -268 119q12 16 12 78v315q0 23 -7.5 32.5t-25.5 9.5v22h227v-22q-18 0 -25.5 -9.5t-7.5 -32.5v-308q0 -38 26.5 -57.5t70.5 -19.5q37 0 59.5 20t22.5 55v310q0 23 -7.5 32.5
t-25.5 9.5v22h211v-22zM461 674q0 -19 -16 -32t-39 -13t-39.5 13t-16.5 32t17 32t39 13q23 0 39 -13t16 -32zM265 674q0 -19 -16 -32t-39 -13t-39.5 13t-16.5 32t16.5 32t39.5 13q22 0 38.5 -13t16.5 -32z" />
    <glyph glyph-name="yacute" unicode="&#xfd;" horiz-adv-x="606" 
d="M598 537q-13 0 -20 -7.5t-22 -36.5l-171 -316v-111q0 -44 32 -44v-22h-227v22q33 0 33 44v110l-172 315q-17 32 -23.5 39t-19.5 7v22h244v-22q-28 0 -28 -22q0 -7 5 -20l80 -182h2l83 181q6 12 6 22q0 21 -27 21v22h225v-22zM448 707l-105 -80h-75l67 80h113z" />
    <glyph glyph-name="thorn" unicode="&#xfe;" horiz-adv-x="568" 
d="M546 277q0 -200 -259 -200q-33 0 -64 3v-11q0 -25 7.5 -36t24.5 -11v-22h-227v22q33 0 33 44v427q0 44 -33 44v22h227v-22q-32 0 -32 -43v-16q5 0 18.5 0.5t20.5 0.5q284 0 284 -202zM382 271q0 77 -111 77q-26 0 -48 -2v-145q27 -3 50 -3q109 0 109 73z" />
    <glyph glyph-name="ydieresis" unicode="&#xff;" horiz-adv-x="606" 
d="M598 537q-13 0 -20 -7.5t-22 -36.5l-171 -316v-111q0 -44 32 -44v-22h-227v22q33 0 33 44v110l-172 315q-17 32 -23.5 39t-19.5 7v22h244v-22q-28 0 -28 -22q0 -7 5 -20l80 -182h2l83 181q6 12 6 22q0 21 -27 21v22h225v-22zM458 674q0 -19 -16 -32t-39 -13t-39.5 13
t-16.5 32t17 32t39 13q23 0 39 -13t16 -32zM262 674q0 -19 -16 -32t-39 -13t-39.5 13t-16.5 32t16.5 32t39.5 13q22 0 38.5 -13t16.5 -32z" />
    <glyph glyph-name="dotlessi" unicode="&#x131;" horiz-adv-x="283" 
d="M255 0h-227v22q33 0 33 46v430q0 17 -9 28t-24 11v22h227v-22q-32 0 -32 -44v-425q0 -46 32 -46v-22z" />
    <glyph glyph-name="Lslash" unicode="&#x141;" 
d="M604 180l-43 -191q-29 11 -57 11h-439v22q40 0 40 55v170l-96 -46v122l96 47v259q0 22 -11 35.5t-29 13.5v22h260v-22q-40 0 -40 -54v-167l126 62v-124l-126 -61v-190h236q42 0 59 44z" />
    <glyph glyph-name="lslash" unicode="&#x142;" horiz-adv-x="524" 
d="M513 150l-38 -157q-19 7 -51 7h-372v22q33 0 33 43v136l-79 -37v100l79 38v197q0 38 -33 38v22h227v-22q-33 0 -33 -43v-115l100 48v-100l-100 -48v-156h192q38 0 52 35z" />
    <glyph glyph-name="OE" unicode="&#x152;" horiz-adv-x="996" 
d="M973 180l-41 -191q-31 11 -66 11h-409q-48 -10 -91 -10q-161 0 -249.5 96.5t-88.5 271.5q0 157 97 254.5t241 97.5q39 0 86 -10h421q25 0 57 7l35 -178l-21 -7q-13 22 -25 29.5t-38 7.5h-226v-121h206q34 0 34 30h23v-203h-23q0 29 -34 29h-206v-150h229q27 0 40 9t25 35
zM475 184v328q-34 49 -110 49q-65 0 -108.5 -52.5t-43.5 -150.5q0 -107 41 -163.5t111 -56.5q79 0 110 46z" />
    <glyph glyph-name="oe" unicode="&#x153;" horiz-adv-x="842" 
d="M823 150l-36 -157q-21 7 -61 7h-341q-32 -7 -75 -7q-134 0 -211 81.5t-77 211.5q0 125 83 203.5t205 78.5q38 0 73 -9h350q25 0 51 7l32 -148l-22 -9q-16 30 -54 30h-184v-86h166q31 0 31 24h23v-169h-23q0 23 -31 23h-166v-107h186q25 0 36.5 6t21.5 27zM395 150v259
q-26 32 -85 32q-51 0 -85.5 -39.5t-34.5 -115.5q0 -83 32 -125t88 -42q58 0 85 31z" />
    <glyph glyph-name="Scaron" unicode="&#x160;" horiz-adv-x="580" 
d="M552 205q0 -105 -65.5 -165.5t-202.5 -60.5q-36 0 -103.5 11.5t-78.5 11.5q-23 0 -37 -7l-37 229l35 11q18 -45 31 -58q51 -51 162 -51q117 0 117 64q0 21 -29 41.5t-129 64.5q-90 39 -132.5 87t-42.5 114q0 99 74 160.5t209 61.5q27 0 77 -8.5t61 -8.5q24 0 36 6
l21 -204l-29 -6q-10 31 -36 49q-41 27 -123 27q-53 0 -78.5 -16t-25.5 -39q0 -20 29 -39.5t114 -56.5q88 -38 135.5 -87.5t47.5 -130.5zM431 822l-81 -84h-86l-84 84h85l42 -44l40 44h84z" />
    <glyph glyph-name="scaron" unicode="&#x161;" horiz-adv-x="491" 
d="M471 167q0 -82 -60.5 -130.5t-168.5 -48.5q-32 0 -87.5 8t-64.5 8q-19 0 -35 -8l-35 195l27 6q13 -36 27 -49q39 -37 145 -37q48 0 70 12t22 28q0 17 -23 32.5t-105 49.5q-76 31 -113.5 70t-37.5 92q0 80 63.5 127.5t178.5 47.5q22 0 64 -6t51 -6q20 0 34 7l20 -175
l-25 -5q-8 27 -29 40q-33 22 -108 22q-82 0 -82 -32q0 -15 22 -30t94 -44q75 -31 115.5 -70t40.5 -104zM385 711l-81 -84h-86l-84 84h85l42 -44l40 44h84z" />
    <glyph glyph-name="Ydieresis" unicode="&#x178;" horiz-adv-x="708" 
d="M700 678q-14 0 -24 -10t-27 -44l-204 -404v-144q0 -30 9 -42t30 -12v-22h-259v22q21 0 30 11.5t9 42.5v143l-203 403q-19 37 -28 46.5t-25 9.5v22h280v-22q-14 0 -24 -9t-10 -22q0 -10 6 -25l102 -244h2l106 246q6 14 6 26q0 28 -32 28v22h256v-22zM503 783
q0 -19 -16 -32t-39 -13t-39.5 13t-16.5 32t17 32t39 13q23 0 39 -13t16 -32zM307 783q0 -19 -16 -32t-39 -13t-39.5 13t-16.5 32t16.5 32t39.5 13q22 0 38.5 -13t16.5 -32z" />
    <glyph glyph-name="Zcaron" unicode="&#x17d;" horiz-adv-x="653" 
d="M627 185l-46 -196q-47 11 -63 11h-465l-27 46l336 513h-230q-44 0 -69 -49l-25 9l46 187q16 -6 50 -6h462l26 -43l-337 -513h254q41 0 58 51zM468 822l-81 -84h-86l-84 84h85l42 -44l40 44h84z" />
    <glyph glyph-name="zcaron" unicode="&#x17e;" horiz-adv-x="539" 
d="M525 155l-41 -163q-24 8 -57 8h-386l-27 42l273 397h-177q-41 0 -62 -42l-25 11l41 158q19 -7 47 -7h385l25 -39l-272 -396h206q33 0 44 41zM402 711l-81 -84h-86l-84 84h85l42 -44l40 44h84z" />
    <glyph glyph-name="florin" unicode="&#x192;" horiz-adv-x="602" 
d="M562 557l-31 -12q-12 30 -29 40t-50 10q-44 0 -49 -59l-8 -117h88v-111h-98l-19 -267q-12 -170 -175 -170q-19 0 -59 8q-10 2 -14 2q-19 0 -43 -8l-35 183l31 9q10 -31 28.5 -42t50.5 -11q19 0 33.5 16t16.5 42l17 238h-73v111h82l12 153q6 79 50 121.5t123 42.5
q17 0 42.5 -4.5t34.5 -4.5q17 0 39 8z" />
    <glyph glyph-name="circumflex" unicode="&#x2c6;" 
d="M437 627h-86l-41 44l-40 -44h-84l81 84h86z" />
    <glyph glyph-name="caron" unicode="&#x2c7;" 
d="M437 711l-81 -84h-86l-84 84h85l42 -44l40 44h84z" />
    <glyph glyph-name="breve" unicode="&#x2d8;" 
d="M438 700q-17 -40 -51 -62.5t-77 -22.5q-45 0 -78 22.5t-48 62.5l29 21q33 -46 97 -46q62 0 95 46z" />
    <glyph glyph-name="dotaccent" unicode="&#x2d9;" 
d="M364 674q0 -19 -15.5 -32t-38.5 -13t-39 13t-16 32t16 32t39 13t38.5 -13t15.5 -32z" />
    <glyph glyph-name="ring" unicode="&#x2da;" 
d="M385 668q0 -25 -21.5 -42t-51.5 -17q-31 0 -53.5 17t-22.5 42t22.5 42t53.5 17q30 0 51.5 -17t21.5 -42zM344 667q0 10 -10 18t-23 8t-22 -8t-9 -18t9 -17.5t22 -7.5t23 7.5t10 17.5z" />
    <glyph glyph-name="ogonek" unicode="&#x2db;" 
d="M415 -114q-37 -17 -85 -17q-121 0 -121 64q0 54 103 76h57q-58 -30 -58 -65q0 -28 44 -28q24 0 47 10z" />
    <glyph glyph-name="tilde" unicode="&#x2dc;" 
d="M436 713q-5 -39 -24 -63.5t-54 -24.5q-24 0 -56 13q-31 12 -43 12q-22 0 -28 -25h-47q2 38 23.5 63t56.5 25q26 0 54 -13q26 -12 39 -12q24 0 29 25h50z" />
    <glyph glyph-name="hungarumlaut" unicode="&#x2dd;" 
d="M531 709l-136 -91h-105l108 91h133zM328 709l-136 -91h-105l109 91h132z" />
    <glyph glyph-name="pi" unicode="&#x3c0;" horiz-adv-x="557" 
d="M481 0h-76q-77 0 -77 96v279h-109v-375h-91v375h-52v78h405v-78h-61v-275q0 -22 13 -22h48v-78z" />
    <glyph glyph-name="endash" unicode="&#x2013;" horiz-adv-x="484" 
d="M429 234h-374v114h374v-114z" />
    <glyph glyph-name="emdash" unicode="&#x2014;" horiz-adv-x="736" 
d="M681 234h-626v113h626v-113z" />
    <glyph glyph-name="quoteleft" unicode="&#x2018;" horiz-adv-x="244" 
d="M204 577q0 -32 -23.5 -52.5t-56.5 -20.5q-41 0 -62.5 26t-21.5 66q0 54 37.5 94t99.5 61l26 -44q-49 -18 -68 -54q69 -9 69 -76z" />
    <glyph glyph-name="quoteright" unicode="&#x2019;" horiz-adv-x="244" 
d="M204 656q0 -54 -37.5 -94t-99.5 -61l-26 44q49 18 68 54q-69 9 -69 76q0 32 23.5 52.5t56.5 20.5q41 0 62.5 -26t21.5 -66z" />
    <glyph glyph-name="quotesinglbase" unicode="&#x201a;" horiz-adv-x="244" 
d="M204 49q0 -54 -37.5 -94t-99.5 -61l-26 43q48 18 68 55q-69 9 -69 76q0 32 23.5 52.5t56.5 20.5q41 0 62.5 -26t21.5 -66z" />
    <glyph glyph-name="quotedblleft" unicode="&#x201c;" horiz-adv-x="447" 
d="M407 577q0 -32 -23.5 -52.5t-56.5 -20.5q-41 0 -62 25.5t-21 66.5q0 54 37.5 94t99.5 61l25 -44q-49 -18 -68 -54q69 -9 69 -76zM204 577q0 -32 -23.5 -52.5t-56.5 -20.5q-41 0 -62.5 26t-21.5 66q0 54 37.5 94t99.5 61l26 -44q-49 -18 -68 -54q69 -9 69 -76z" />
    <glyph glyph-name="quotedblright" unicode="&#x201d;" horiz-adv-x="447" 
d="M407 656q0 -54 -37.5 -94t-99.5 -61l-26 44q50 18 69 54q-69 9 -69 76q0 32 23.5 52.5t56.5 20.5q41 0 62 -25.5t21 -66.5zM204 656q0 -54 -37.5 -94t-99.5 -61l-26 44q49 18 68 54q-69 9 -69 76q0 32 23.5 52.5t56.5 20.5q41 0 62.5 -26t21.5 -66z" />
    <glyph glyph-name="quotedblbase" unicode="&#x201e;" horiz-adv-x="447" 
d="M407 49q0 -54 -37.5 -94t-99.5 -61l-26 43q49 18 69 55q-69 9 -69 76q0 32 23.5 52.5t56.5 20.5q41 0 62 -25.5t21 -66.5zM204 49q0 -54 -37.5 -94t-99.5 -61l-26 43q48 18 68 55q-69 9 -69 76q0 32 23.5 52.5t56.5 20.5q41 0 62.5 -26t21.5 -66z" />
    <glyph glyph-name="dagger" unicode="&#x2020;" horiz-adv-x="530" 
d="M475 401h-17q-6 20 -45 31l-108 28l43 -139l-54 -370h-58l-54 370l41 139l-106 -28q-39 -11 -45 -30h-17v64v22v109h17q6 -20 45 -30l105 -27l-29 112q-4 16 -10 23t-22 9v16h85h52h71v-16q-29 -4 -35 -32l-28 -112l107 28q37 10 44 30h18v-120v-22v-55z" />
    <glyph glyph-name="daggerdbl" unicode="&#x2021;" horiz-adv-x="530" 
d="M475 55h-17q-6 22 -45 31l-103 27l26 -112q7 -28 33 -32v-18h-71h-51h-85v18q16 2 22 9t10 23l28 112l-104 -27q-39 -10 -45 -30h-18v194h18q3 -12 12 -17t33 -11l105 -28l-42 137l42 128l-105 -28q-40 -11 -45 -29h-18v195h18q3 -12 12.5 -18.5t32.5 -11.5l104 -26
l-28 110q-4 16 -10 23t-22 9v17h207v-17q-27 -4 -33 -32l-26 -109l103 26q21 5 30 11.5t14 18.5h18v-197h-17q-6 21 -45 31l-104 27l41 -128l-41 -136l104 28q23 6 31.5 11t12.5 17h18v-196z" />
    <glyph glyph-name="bullet" unicode="&#x2022;" horiz-adv-x="419" 
d="M349 340q0 -58 -41 -98.5t-99 -40.5t-98.5 40.5t-40.5 98.5t40.5 99t98.5 41t99 -41t41 -99z" />
    <glyph glyph-name="ellipsis" unicode="&#x2026;" horiz-adv-x="687" 
d="M647 67q0 -36 -23 -56.5t-58 -20.5t-58.5 20.5t-23.5 56.5q0 34 24 56t58 22t57.5 -22t23.5 -56zM426 67q0 -36 -23 -56.5t-58 -20.5t-59 20.5t-24 56.5q0 34 24.5 56t58.5 22t57.5 -22t23.5 -56zM204 67q0 -36 -23 -56.5t-58 -20.5t-59 20.5t-24 56.5q0 34 24.5 56
t58.5 22t57.5 -22t23.5 -56z" />
    <glyph glyph-name="perthousand" unicode="&#x2030;" horiz-adv-x="1311" 
d="M1271 191q0 -91 -47 -146.5t-131 -55.5t-131 55.5t-47 146.5q0 87 51 140.5t127 53.5t127 -53.5t51 -140.5zM876 191q0 -91 -47 -146.5t-131 -55.5t-131 55.5t-47 146.5q0 87 51 140.5t127 53.5t127 -53.5t51 -140.5zM737 711l-418 -719h-140l416 719h142zM396 516
q0 -91 -47 -146.5t-131 -55.5t-131 55.5t-47 146.5q0 87 51 140.5t127 53.5t127 -53.5t51 -140.5zM1155 190q0 96 -63 96q-29 0 -45.5 -24.5t-16.5 -71.5q0 -103 62 -103q63 0 63 103zM760 190q0 96 -63 96q-28 0 -44.5 -24.5t-16.5 -71.5q0 -103 61 -103q63 0 63 103z
M280 515q0 48 -17 72.5t-46 24.5q-28 0 -44.5 -24.5t-16.5 -71.5q0 -104 61 -104q63 0 63 103z" />
    <glyph glyph-name="guilsinglleft" unicode="&#x2039;" horiz-adv-x="331" 
d="M271 129h-126l-85 166v5l85 162h126l-88 -166z" />
    <glyph glyph-name="guilsinglright" unicode="&#x203a;" horiz-adv-x="331" 
d="M271 295l-85 -166h-126l88 167l-88 166h126l85 -162v-5z" />
    <glyph glyph-name="fraction" unicode="&#x2044;" horiz-adv-x="572" 
d="M552 709l-415 -717h-117l415 717h117z" />
    <glyph glyph-name="Euro" unicode="&#x20ac;" horiz-adv-x="693" 
d="M643 215l-43 -222q-15 8 -36 8q-4 0 -23 -3.5t-51 -7t-67 -3.5q-120 0 -210.5 74t-116.5 200h-79l18 67h52q-1 25 0 51h-70l18 66h62q29 125 122 194.5t204 69.5q46 0 93 -7l48 -6q9 0 18 2t14 4l4 2l43 -219l-30 -9q-11 32 -31 52q-36 36 -102 36q-65 0 -115 -28.5
t-72 -90.5h253l-18 -66h-248q-3 -23 0 -51h266l-18 -67h-236q40 -124 188 -124q43 0 65 9t40 28q17 17 27 50z" />
    <glyph glyph-name="trademark" unicode="&#x2122;" horiz-adv-x="603" 
d="M543 477h-86v8q13 0 13 18v88h-1l-49 -95h-29l-47 94h-1v-87q0 -18 14 -18v-8h-87v8q13 0 13 18v173q0 15 -13 15v9h87q0 -6 5 -16l46 -92h1l49 92q6 14 6 16h79v-9q-13 0 -13 -15v-173q0 -18 13 -18v-8zM265 641l-10 -3q-6 14 -15 14h-52v-148q0 -19 13 -19v-8h-91v8
q13 0 13 19v148h-51q-10 0 -15 -14l-11 3l14 62q6 -3 19 -3h118h37q6 0 18 3z" />
    <glyph glyph-name="Omega" unicode="&#x2126;" horiz-adv-x="718" 
d="M642 316q0 -81 -40 -146.5t-77 -89.5h105l-11 -80h-207v90q6 2 15 6.5t33 23t42.5 41.5t33.5 64.5t15 90.5q0 97 -52 155.5t-139 58.5t-140 -58.5t-53 -155.5q0 -49 14 -90.5t34.5 -65.5t41 -40.5t34.5 -23.5l14 -6v-90h-206l-12 80h105q-36 25 -76 90t-40 146
q0 130 75.5 211.5t207.5 81.5t207.5 -81.5t75.5 -211.5z" />
    <glyph glyph-name="partialdiff" unicode="&#x2202;" horiz-adv-x="554" 
d="M478 218q0 -108 -53.5 -167.5t-143.5 -59.5q-205 0 -205 202q0 87 55 140t132 53q42 0 81 -14q-35 59 -85 93.5t-120 59.5l41 68q144 -39 221 -143.5t77 -231.5zM385 207q0 51 -10 74q-35 26 -104 26q-41 0 -71.5 -31t-30.5 -83q0 -56 30 -88t82 -32q47 0 75.5 38.5
t28.5 95.5z" />
    <glyph glyph-name="Delta" unicode="&#x2206;" horiz-adv-x="599" 
d="M549 0h-499l250 594zM414 83l-135 326l-129 -325z" />
    <glyph glyph-name="product" unicode="&#x220f;" horiz-adv-x="747" 
d="M671 0h-231v70h65v486h-264v-486h64v-70h-229v70h65v486h-65v71h595v-71h-65v-486h65v-70z" />
    <glyph glyph-name="summation" unicode="&#x2211;" horiz-adv-x="657" 
d="M581 97l-26 -97h-466l-13 90l201 222l-200 223l11 92h468l23 -97h-352l187 -218l-188 -215h355z" />
    <glyph glyph-name="minus" unicode="&#x2212;" horiz-adv-x="463" 
d="M413 261h-363v116h363v-116z" />
    <glyph glyph-name="radical" unicode="&#x221a;" horiz-adv-x="541" 
d="M465 615l-219 -615h-53l-73 281h-44v51h112l41 -188l156 471h80z" />
    <glyph glyph-name="infinity" unicode="&#x221e;" horiz-adv-x="700" 
d="M626 320q0 -54 -32.5 -86t-84.5 -32q-80 0 -159 72q-81 -72 -159 -72q-53 0 -85 31.5t-32 83.5q0 49 34 82t88 33q71 0 154 -72q79 72 152 72q55 0 89.5 -30t34.5 -82zM548 316q0 20 -13 33.5t-36 13.5q-45 0 -92 -47q52 -46 88 -46q25 0 39 13t14 33zM293 316
q-19 17 -27 24t-26 15t-37 8q-24 0 -38 -15t-14 -32q0 -19 16 -32.5t37 -13.5q35 0 89 46z" />
    <glyph glyph-name="integral" unicode="&#x222b;" horiz-adv-x="377" 
d="M318 636l-16 -75h-1q-18 14 -31 14q-40 0 -40 -54v-558q0 -50 -30.5 -83t-76.5 -33q-33 0 -64 12l16 75h1q13 -13 30 -13q40 0 40 51v557q0 55 31.5 87t75.5 32q32 0 65 -12z" />
    <glyph glyph-name="approxequal" unicode="&#x2248;" horiz-adv-x="584" 
d="M508 329q-25 -44 -59.5 -67t-69.5 -23t-89.5 21.5t-80.5 21.5q-22 0 -36.5 -14t-28.5 -40l-68 45q63 89 138 89q32 0 89.5 -19.5t73.5 -19.5q36 0 68 51zM508 178q-50 -89 -129 -89q-35 0 -89.5 21t-80.5 21q-22 0 -36.5 -14t-28.5 -40l-68 45q63 89 138 89
q32 0 89.5 -19.5t73.5 -19.5q37 0 68 50z" />
    <glyph glyph-name="notequal" unicode="&#x2260;" horiz-adv-x="583" 
d="M509 207h-250l-81 -129l-72 42l54 87h-86v85h139l39 62h-178v86h231l81 130l72 -41l-55 -89h106v-86h-158l-40 -62h198v-85z" />
    <glyph glyph-name="lessequal" unicode="&#x2264;" horiz-adv-x="463" 
d="M408 124l-352 158v79l352 156v-97l-225 -99l225 -100v-97zM408 0h-353v82h353v-82z" />
    <glyph glyph-name="greaterequal" unicode="&#x2265;" horiz-adv-x="463" 
d="M407 282l-352 -158v97l225 100l-225 99v97l352 -156v-79zM408 0h-353v82h353v-82z" />
    <glyph glyph-name="lozenge" unicode="&#x25ca;" horiz-adv-x="509" 
d="M439 317l-162 -316h-46l-161 316l161 310h46zM345 316l-91 174l-89 -174l89 -179z" />
    <glyph glyph-name="fi" unicode="&#xfb01;" horiz-adv-x="526" 
d="M486 340q-74 -123 -192 -123q-39 0 -83 19.5t-78.5 39.5t-49.5 20q-23 0 -35 -9l-8 14q68 79 151 79q27 0 106.5 -25t118.5 -25q37 0 59 22z" />
    <glyph glyph-name="fl" unicode="&#xfb02;" horiz-adv-x="526" 
d="M486 340q-74 -123 -192 -123q-39 0 -83 19.5t-78.5 39.5t-49.5 20q-23 0 -35 -9l-8 14q68 79 151 79q27 0 106.5 -25t118.5 -25q37 0 59 22z" />
    <glyph glyph-name="typedesign.com" horiz-adv-x="890" 
d="M790 350q0 -137 -101 -235t-243 -98q-143 0 -244.5 98t-101.5 235t101.5 235t244.5 98q142 0 243 -98t101 -235zM756 347q0 120 -83 206t-211 96v-598q45 0 78 13v245h214q2 20 2 38zM721 178v104h-150v-104h150zM323 408v104h-149v-104h149zM427 51v596q-46 0 -76 -12
v-480q-62 29 -96 80t-34 116q0 21 2 37h-88q-2 -26 -2 -37q0 -124 86.5 -207.5t207.5 -92.5zM664 388h-124v157q42 -10 81 -58.5t43 -98.5zM693 204h-95v53h95v-53zM296 433h-96v54h96v-54z" />
    </font>
</defs>
</svg>
