<svg xmlns="http://www.w3.org/2000/svg" width="17" height="17" viewBox="0 0 17 17">
    <g fill="none" fill-rule="evenodd">
        <g fill="#FFF">
            <path d="M328.587 123.016c.55.55.55 1.428 0 1.97l-.598.607c-.55.543-1.427.543-1.97 0l-5.518-5.52-5.518 5.52c-.542.543-1.428.543-1.97 0l-.606-.606c-.543-.543-.543-1.42 0-1.97l5.518-5.521-5.518-5.52c-.543-.543-.543-1.42 0-1.963l.606-.606c.542-.543 1.428-.543 1.97 0l5.518 5.52 5.518-5.52c.543-.543 1.42-.543 1.97 0l.598.606c.55.543.55 1.42 0 1.963l-5.518 5.52 5.518 5.52z" transform="translate(-312 -109)"/>
        </g>
    </g>
</svg>
