<?xml version="1.0" encoding="utf-8"?>
<!-- Generator: Adobe Illustrator 23.0.1, SVG Export Plug-In . SVG Version: 6.00 Build 0)  -->
<svg version="1.1" id="Layer_1" xmlns="http://www.w3.org/2000/svg" xmlns:xlink="http://www.w3.org/1999/xlink" x="0px" y="0px"
	 viewBox="0 0 25 25" style="enable-background:new 0 0 25 25;" xml:space="preserve">
<style type="text/css">
	.st0{fill-rule:evenodd;clip-rule:evenodd;fill:#018101;}
</style>
<g>
	<g>
		<g>
			<path class="st0" d="M24.1,20.4c0.8,0.8,0.8,2,0,2.8l-0.8,0.9c-0.8,0.8-2,0.8-2.8,0l-7.8-7.8l-7.8,7.8c-0.8,0.8-2,0.8-2.8,0
				l-0.9-0.9c-0.8-0.8-0.8-2,0-2.8L9,12.6L1.2,4.9c-0.8-0.8-0.8-2,0-2.8l0.9-0.9c0.8-0.8,2-0.8,2.8,0L12.7,9l7.8-7.8
				c0.8-0.8,2-0.8,2.8,0l0.8,0.9c0.8,0.8,0.8,2,0,2.8l-7.8,7.8C16.3,12.6,24.1,20.4,24.1,20.4z"/>
		</g>
	</g>
</g>
</svg>
