<svg xmlns="http://www.w3.org/2000/svg" width="299" height="10" viewBox="0 0 299 10">
    <defs>
        <filter id="z9qsubfiha">
            <feColorMatrix in="SourceGraphic" values="0 0 0 0 0.004000 0 0 0 0 0.392000 0 0 0 0 0.475000 0 0 0 1.000000 0"/>
        </filter>
        <filter id="18shoha94b">
            <feColorMatrix in="SourceGraphic" values="0 0 0 0 0.004000 0 0 0 0 0.392000 0 0 0 0 0.475000 0 0 0 1.000000 0"/>
        </filter>
    </defs>
    <g fill="none" fill-rule="evenodd">
        <g>
            <g filter="url(#z9qsubfiha)" transform="translate(-571 -221) translate(130 221)">
                <g filter="url(#18shoha94b)" transform="translate(407)">
                    <g>
                        <g fill="#016479">
                            <path d="M47.796 0l-.68.996-.819.86-.862.813-.894.781-.87.803-.046 1.251.874.803.881.797.9.776.71.966.896.777.577.312.562-.327.924-.755.68-.997.914-.76.77-.907 1.041-.63-.076-1.328-.917-.762-.74-.937-.789-.886-.88-.795-.857-.817L47.796 0zm-.174 7.187l-.618-.875-.806-.684-.682-.773.801-.656.704-.787.726-.766.715-.684.842.563.766.725.722.77.702.835-.794.748-.792.702-.71.78-.735.801-.84-.699zM16.918 4.52l1.04.27 1.182-.078 1.141.321 1.185-.084 1.167.08 1.157.18 1.164.11 1.152.23 1.177-.004 1.154.231 1.153-.104.927-.397.992-.349.965-.407-.954-.427-.909-.536-1-.329-1.162.137-1.154.205-1.173.021-1.158.167-1.152.227-1.168.076-1.186-.106-1.163.118-1.14.356-1.17.07-1.067.022zM29.9 7.59l-1.175-.38-1.194.076-1.154-.322-1.193.083-1.179-.08-1.167-.182-1.176-.11-1.162-.232-1.186.003-1.164-.232-1.197.104-1.172-.143-1.165-.209-1.17-.143-1.175-.116-1.163-.234-1.185-.007-1.177-.1-1.183-.03-1.166-.215-1.179-.069-1.186-.009-1.172-.16-1.154-.34-1.09-.026 1.064-.26 1.177-.072 1.201.135 1.164-.214 1.176-.089L7.57 3.87l1.165-.208 1.19.023 1.171-.14 1.15-.366 1.178-.078 1.202.161 1.173-.136 1.152-.327 1.164-.223 1.174-.116 1.197.107 1.161-.26 1.174-.127 1.171-.156 1.196.088 1.158-.279 1.19.03 1.188-.016 1.133-.14 1.078.44 1.198.261.97.77 1.15.372 1.05.592 1.228.376-1.123.606-1.197.264-1.04.612-1.127.426-1.07.551-1.074.612zM67.329 3.317l-.963.352-1.006.316-.985.535 1.084.31.843.68 1.034.164 1.147.065 1.16-.134 1.17-.057 1.163-.124 1.14-.342 1.166-.102 1.169-.058 1.179.028 1.149-.266 1.17-.053 1.132-.112-1.113-.257-1.184.09-1.147-.27-1.17-.052-1.16-.161-1.162-.14-1.168-.066-1.154-.211-1.187.11-1.163-.083-1.144-.162zm-6.944 1.202l1.178-.503 1.146-.38 1.079-.527 1.01-.682 1.209-.244 1.013-.761 1.192.299 1.176.103 1.168.178 1.174.112 1.197-.106 1.173.134 1.167.177 1.16.264 1.19-.03 1.167.183 1.178.089 1.157.294 1.195-.088 1.159.269 1.18.055 1.169.162 1.172.14 1.18.068 1.166.212 1.198-.11 1.178.085 1.146.393 1.204-.163 1.173.158 1.07.22-1.08.096h-1.184l-1.146.412-1.191-.055-1.185.014-1.175.102-1.147.387-1.202-.153-1.157.287-1.165.207-1.173.137-1.193-.058-1.18.064-1.175.093-1.155.31-1.165.205-1.195-.078-1.153.33-1.19-.037-1.186.014-1.182.05-1.166.206-1.166.215-1.19-.015-1.183.336-1.017-.732-1.223-.208-1.064-.558-1.104-.475-1.1-.48-1.132-.617z" transform="translate(34) translate(101)"/>
                        </g>
                        <path stroke="#016479" d="M206.206 4.502L298.925 4.502M0 4.502L92.718 4.502" transform="translate(34)"/>
                    </g>
                </g>
            </g>
        </g>
    </g>
</svg>
